  0
SECTION
  2
HEADER
  9
$ACADVER
  1
AC1009
  9
$FILLMODE
 70
 0
  9
$SPLFRAME
 70
 1
  9
$EXTMIN
 10
0
 20
0
 30
0.0
  9
$EXTMAX
 10
1058.33
 20
1058.33
 30
0.0
  0
ENDSEC
  0
SECTION
  2
TABLES
  0
TABLE
  2
LAYER
 70
1
  0
LAYER
  2
0
 70
     0
 62
     7
  6
CONTINUOUS
  0
ENDTAB
  0
ENDSEC
  0
SECTION
  2
ENTITIES
  0
LINE
  8
0
 62
     0
 10
0.0950846
 20
168.18
 30
0.0
 11
438.721
 21
168.18
 31
0.0
  0
LINE
  8
0
 62
     0
 10
438.721
 20
168.18
 30
0.0
 11
438.721
 21
0.304546
 31
0.0
  0
LINE
  8
0
 62
     0
 10
438.721
 20
0.304546
 30
0.0
 11
0.0950846
 21
0.304546
 31
0.0
  0
LINE
  8
0
 62
     0
 10
0.0950846
 20
0.304546
 30
0.0
 11
0.0950846
 21
168.18
 31
0.0
  0
LINE
  8
0
 62
     0
 10
17.1442
 20
21.8309
 30
0.0
 11
17.1442
 21
17.1304
 31
0.0
  0
LINE
  8
0
 62
     0
 10
17.1442
 20
17.1304
 30
0.0
 11
15.62
 21
17.1304
 31
0.0
  0
LINE
  8
0
 62
     0
 10
15.62
 20
17.1304
 30
0.0
 11
15.62
 21
20.3605
 31
0.0
  0
LINE
  8
0
 62
     0
 10
15.62
 20
20.3605
 30
0.0
 11
8.86905
 21
20.3605
 31
0.0
  0
LINE
  8
0
 62
     0
 10
8.86905
 20
20.3605
 30
0.0
 11
8.86905
 21
17.1304
 31
0.0
  0
LINE
  8
0
 62
     0
 10
8.86905
 20
17.1304
 30
0.0
 11
8.04499
 21
17.1304
 31
0.0
  0
LINE
  8
0
 62
     0
 10
8.04499
 20
17.1304
 30
0.0
 11
8.04499
 21
14.3302
 31
0.0
  0
LINE
  8
0
 62
     0
 10
8.04499
 20
14.3302
 30
0.0
 11
8.86905
 21
14.3302
 31
0.0
  0
LINE
  8
0
 62
     0
 10
8.86905
 20
14.3302
 30
0.0
 11
8.86905
 21
8.06016
 31
0.0
  0
LINE
  8
0
 62
     0
 10
8.86905
 20
8.06016
 30
0.0
 11
10.5944
 21
8.06016
 31
0.0
  0
LINE
  8
0
 62
     0
 10
10.5944
 20
8.06016
 30
0.0
 11
10.5944
 21
6.85987
 31
0.0
  0
LINE
  8
0
 62
     0
 10
10.5944
 20
6.85987
 30
0.0
 11
13.8948
 21
6.85987
 31
0.0
  0
LINE
  8
0
 62
     0
 10
13.8948
 20
6.85987
 30
0.0
 11
13.8948
 21
8.06016
 31
0.0
  0
LINE
  8
0
 62
     0
 10
13.8948
 20
8.06016
 30
0.0
 11
15.62
 21
8.06016
 31
0.0
  0
LINE
  8
0
 62
     0
 10
15.62
 20
8.06016
 30
0.0
 11
15.62
 21
12.5305
 31
0.0
  0
LINE
  8
0
 62
     0
 10
15.62
 20
12.5305
 30
0.0
 11
17.1442
 21
12.5305
 31
0.0
  0
LINE
  8
0
 62
     0
 10
17.1442
 20
12.5305
 30
0.0
 11
17.1442
 21
7.83001
 31
0.0
  0
LINE
  8
0
 62
     0
 10
17.1442
 20
7.83001
 30
0.0
 11
31.1451
 21
7.83001
 31
0.0
  0
LINE
  8
0
 62
     0
 10
31.1451
 20
7.83001
 30
0.0
 11
31.1451
 21
12.5305
 31
0.0
  0
LINE
  8
0
 62
     0
 10
31.1451
 20
12.5305
 30
0.0
 11
32.6692
 21
12.5305
 31
0.0
  0
LINE
  8
0
 62
     0
 10
32.6692
 20
12.5305
 30
0.0
 11
32.6692
 21
8.06016
 31
0.0
  0
LINE
  8
0
 62
     0
 10
32.6692
 20
8.06016
 30
0.0
 11
34.3945
 21
8.06016
 31
0.0
  0
LINE
  8
0
 62
     0
 10
34.3945
 20
8.06016
 30
0.0
 11
34.3945
 21
6.85987
 31
0.0
  0
LINE
  8
0
 62
     0
 10
34.3945
 20
6.85987
 30
0.0
 11
37.695
 21
6.85987
 31
0.0
  0
LINE
  8
0
 62
     0
 10
37.695
 20
6.85987
 30
0.0
 11
37.695
 21
8.06016
 31
0.0
  0
LINE
  8
0
 62
     0
 10
37.695
 20
8.06016
 30
0.0
 11
39.4201
 21
8.06016
 31
0.0
  0
LINE
  8
0
 62
     0
 10
39.4201
 20
8.06016
 30
0.0
 11
39.4201
 21
14.3302
 31
0.0
  0
LINE
  8
0
 62
     0
 10
39.4201
 20
14.3302
 30
0.0
 11
40.2442
 21
14.3302
 31
0.0
  0
LINE
  8
0
 62
     0
 10
40.2442
 20
14.3302
 30
0.0
 11
40.2442
 21
17.1304
 31
0.0
  0
LINE
  8
0
 62
     0
 10
40.2442
 20
17.1304
 30
0.0
 11
39.4201
 21
17.1304
 31
0.0
  0
LINE
  8
0
 62
     0
 10
39.4201
 20
17.1304
 30
0.0
 11
39.4201
 21
20.3605
 31
0.0
  0
LINE
  8
0
 62
     0
 10
39.4201
 20
20.3605
 30
0.0
 11
32.6692
 21
20.3605
 31
0.0
  0
LINE
  8
0
 62
     0
 10
32.6692
 20
20.3605
 30
0.0
 11
32.6692
 21
17.1304
 31
0.0
  0
LINE
  8
0
 62
     0
 10
32.6692
 20
17.1304
 30
0.0
 11
31.1451
 21
17.1304
 31
0.0
  0
LINE
  8
0
 62
     0
 10
31.1451
 20
17.1304
 30
0.0
 11
31.1451
 21
21.8309
 31
0.0
  0
LINE
  8
0
 62
     0
 10
31.1451
 20
21.8309
 30
0.0
 11
17.1442
 21
21.8309
 31
0.0
  0
LINE
  8
0
 62
     0
 10
210.026
 20
21.8309
 30
0.0
 11
210.026
 21
17.1304
 31
0.0
  0
LINE
  8
0
 62
     0
 10
210.026
 20
17.1304
 30
0.0
 11
170.4
 21
17.1304
 31
0.0
  0
LINE
  8
0
 62
     0
 10
170.4
 20
17.1304
 30
0.0
 11
170.4
 21
20.3605
 31
0.0
  0
LINE
  8
0
 62
     0
 10
170.4
 20
20.3605
 30
0.0
 11
163.65
 21
20.3605
 31
0.0
  0
LINE
  8
0
 62
     0
 10
163.65
 20
20.3605
 30
0.0
 11
163.65
 21
17.1304
 31
0.0
  0
LINE
  8
0
 62
     0
 10
163.65
 20
17.1304
 30
0.0
 11
162.825
 21
17.1304
 31
0.0
  0
LINE
  8
0
 62
     0
 10
162.825
 20
17.1304
 30
0.0
 11
162.825
 21
14.3302
 31
0.0
  0
LINE
  8
0
 62
     0
 10
162.825
 20
14.3302
 30
0.0
 11
163.65
 21
14.3302
 31
0.0
  0
LINE
  8
0
 62
     0
 10
163.65
 20
14.3302
 30
0.0
 11
163.65
 21
8.06016
 31
0.0
  0
LINE
  8
0
 62
     0
 10
163.65
 20
8.06016
 30
0.0
 11
165.376
 21
8.06016
 31
0.0
  0
LINE
  8
0
 62
     0
 10
165.376
 20
8.06016
 30
0.0
 11
165.376
 21
6.85987
 31
0.0
  0
LINE
  8
0
 62
     0
 10
165.376
 20
6.85987
 30
0.0
 11
168.676
 21
6.85987
 31
0.0
  0
LINE
  8
0
 62
     0
 10
168.676
 20
6.85987
 30
0.0
 11
168.676
 21
8.06016
 31
0.0
  0
LINE
  8
0
 62
     0
 10
168.676
 20
8.06016
 30
0.0
 11
170.4
 21
8.06016
 31
0.0
  0
LINE
  8
0
 62
     0
 10
170.4
 20
8.06016
 30
0.0
 11
170.4
 21
12.5305
 31
0.0
  0
LINE
  8
0
 62
     0
 10
170.4
 20
12.5305
 30
0.0
 11
210.026
 21
12.5305
 31
0.0
  0
LINE
  8
0
 62
     0
 10
210.026
 20
12.5305
 30
0.0
 11
210.026
 21
7.83001
 31
0.0
  0
LINE
  8
0
 62
     0
 10
210.026
 20
7.83001
 30
0.0
 11
224.025
 21
7.83001
 31
0.0
  0
LINE
  8
0
 62
     0
 10
224.025
 20
7.83001
 30
0.0
 11
224.025
 21
12.5305
 31
0.0
  0
LINE
  8
0
 62
     0
 10
224.025
 20
12.5305
 30
0.0
 11
263.65
 21
12.5305
 31
0.0
  0
LINE
  8
0
 62
     0
 10
263.65
 20
12.5305
 30
0.0
 11
263.65
 21
8.06016
 31
0.0
  0
LINE
  8
0
 62
     0
 10
263.65
 20
8.06016
 30
0.0
 11
265.376
 21
8.06016
 31
0.0
  0
LINE
  8
0
 62
     0
 10
265.376
 20
8.06016
 30
0.0
 11
265.376
 21
6.85987
 31
0.0
  0
LINE
  8
0
 62
     0
 10
265.376
 20
6.85987
 30
0.0
 11
268.676
 21
6.85987
 31
0.0
  0
LINE
  8
0
 62
     0
 10
268.676
 20
6.85987
 30
0.0
 11
268.676
 21
8.06016
 31
0.0
  0
LINE
  8
0
 62
     0
 10
268.676
 20
8.06016
 30
0.0
 11
270.4
 21
8.06016
 31
0.0
  0
LINE
  8
0
 62
     0
 10
270.4
 20
8.06016
 30
0.0
 11
270.4
 21
14.3302
 31
0.0
  0
LINE
  8
0
 62
     0
 10
270.4
 20
14.3302
 30
0.0
 11
271.225
 21
14.3302
 31
0.0
  0
LINE
  8
0
 62
     0
 10
271.225
 20
14.3302
 30
0.0
 11
271.225
 21
17.1304
 31
0.0
  0
LINE
  8
0
 62
     0
 10
271.225
 20
17.1304
 30
0.0
 11
270.4
 21
17.1304
 31
0.0
  0
LINE
  8
0
 62
     0
 10
270.4
 20
17.1304
 30
0.0
 11
270.4
 21
20.3605
 31
0.0
  0
LINE
  8
0
 62
     0
 10
270.4
 20
20.3605
 30
0.0
 11
263.65
 21
20.3605
 31
0.0
  0
LINE
  8
0
 62
     0
 10
263.65
 20
20.3605
 30
0.0
 11
263.65
 21
17.1304
 31
0.0
  0
LINE
  8
0
 62
     0
 10
263.65
 20
17.1304
 30
0.0
 11
224.025
 21
17.1304
 31
0.0
  0
LINE
  8
0
 62
     0
 10
224.025
 20
17.1304
 30
0.0
 11
224.025
 21
21.8309
 31
0.0
  0
LINE
  8
0
 62
     0
 10
224.025
 20
21.8309
 30
0.0
 11
210.026
 21
21.8309
 31
0.0
  0
LINE
  8
0
 62
     0
 10
45.7193
 20
21.8309
 30
0.0
 11
59.72
 21
21.8309
 31
0.0
  0
LINE
  8
0
 62
     0
 10
59.72
 20
21.8309
 30
0.0
 11
59.72
 21
7.83001
 31
0.0
  0
LINE
  8
0
 62
     0
 10
59.72
 20
7.83001
 30
0.0
 11
45.7193
 21
7.83001
 31
0.0
  0
LINE
  8
0
 62
     0
 10
45.7193
 20
7.83001
 30
0.0
 11
45.7193
 21
21.8309
 31
0.0
  0
LINE
  8
0
 62
     0
 10
90.963
 20
21.8309
 30
0.0
 11
104.962
 21
21.8309
 31
0.0
  0
LINE
  8
0
 62
     0
 10
104.962
 20
21.8309
 30
0.0
 11
104.962
 21
7.83001
 31
0.0
  0
LINE
  8
0
 62
     0
 10
104.962
 20
7.83001
 30
0.0
 11
90.963
 21
7.83001
 31
0.0
  0
LINE
  8
0
 62
     0
 10
90.963
 20
7.83001
 30
0.0
 11
90.963
 21
21.8309
 31
0.0
  0
LINE
  8
0
 62
     0
 10
114.776
 20
21.8309
 30
0.0
 11
128.775
 21
21.8309
 31
0.0
  0
LINE
  8
0
 62
     0
 10
128.775
 20
21.8309
 30
0.0
 11
128.775
 21
7.83001
 31
0.0
  0
LINE
  8
0
 62
     0
 10
128.775
 20
7.83001
 30
0.0
 11
114.776
 21
7.83001
 31
0.0
  0
LINE
  8
0
 62
     0
 10
114.776
 20
7.83001
 30
0.0
 11
114.776
 21
21.8309
 31
0.0
  0
LINE
  8
0
 62
     0
 10
138.588
 20
21.8309
 30
0.0
 11
152.587
 21
21.8309
 31
0.0
  0
LINE
  8
0
 62
     0
 10
152.587
 20
21.8309
 30
0.0
 11
152.587
 21
7.83001
 31
0.0
  0
LINE
  8
0
 62
     0
 10
152.587
 20
7.83001
 30
0.0
 11
138.588
 21
7.83001
 31
0.0
  0
LINE
  8
0
 62
     0
 10
138.588
 20
7.83001
 30
0.0
 11
138.588
 21
21.8309
 31
0.0
  0
LINE
  8
0
 62
     0
 10
281.463
 20
21.8309
 30
0.0
 11
295.462
 21
21.8309
 31
0.0
  0
LINE
  8
0
 62
     0
 10
295.462
 20
21.8309
 30
0.0
 11
295.462
 21
7.83001
 31
0.0
  0
LINE
  8
0
 62
     0
 10
295.462
 20
7.83001
 30
0.0
 11
281.463
 21
7.83001
 31
0.0
  0
LINE
  8
0
 62
     0
 10
281.463
 20
7.83001
 30
0.0
 11
281.463
 21
21.8309
 31
0.0
  0
LINE
  8
0
 62
     0
 10
305.276
 20
21.8309
 30
0.0
 11
319.275
 21
21.8309
 31
0.0
  0
LINE
  8
0
 62
     0
 10
319.275
 20
21.8309
 30
0.0
 11
319.275
 21
7.83001
 31
0.0
  0
LINE
  8
0
 62
     0
 10
319.275
 20
7.83001
 30
0.0
 11
305.276
 21
7.83001
 31
0.0
  0
LINE
  8
0
 62
     0
 10
305.276
 20
7.83001
 30
0.0
 11
305.276
 21
21.8309
 31
0.0
  0
LINE
  8
0
 62
     0
 10
329.088
 20
21.8309
 30
0.0
 11
343.087
 21
21.8309
 31
0.0
  0
LINE
  8
0
 62
     0
 10
343.087
 20
21.8309
 30
0.0
 11
343.087
 21
7.83001
 31
0.0
  0
LINE
  8
0
 62
     0
 10
343.087
 20
7.83001
 30
0.0
 11
329.088
 21
7.83001
 31
0.0
  0
LINE
  8
0
 62
     0
 10
329.088
 20
7.83001
 30
0.0
 11
329.088
 21
21.8309
 31
0.0
  0
LINE
  8
0
 62
     0
 10
352.901
 20
21.8309
 30
0.0
 11
366.899
 21
21.8309
 31
0.0
  0
LINE
  8
0
 62
     0
 10
366.899
 20
21.8309
 30
0.0
 11
366.899
 21
7.83001
 31
0.0
  0
LINE
  8
0
 62
     0
 10
366.899
 20
7.83001
 30
0.0
 11
352.901
 21
7.83001
 31
0.0
  0
LINE
  8
0
 62
     0
 10
352.901
 20
7.83001
 30
0.0
 11
352.901
 21
21.8309
 31
0.0
  0
LINE
  8
0
 62
     0
 10
379.095
 20
21.8309
 30
0.0
 11
393.097
 21
21.8309
 31
0.0
  0
LINE
  8
0
 62
     0
 10
393.097
 20
21.8309
 30
0.0
 11
393.097
 21
7.83001
 31
0.0
  0
LINE
  8
0
 62
     0
 10
393.097
 20
7.83001
 30
0.0
 11
379.095
 21
7.83001
 31
0.0
  0
LINE
  8
0
 62
     0
 10
379.095
 20
7.83001
 30
0.0
 11
379.095
 21
21.8309
 31
0.0
  0
LINE
  8
0
 62
     0
 10
398.145
 20
21.8309
 30
0.0
 11
412.147
 21
21.8309
 31
0.0
  0
LINE
  8
0
 62
     0
 10
412.147
 20
21.8309
 30
0.0
 11
412.147
 21
7.83001
 31
0.0
  0
LINE
  8
0
 62
     0
 10
412.147
 20
7.83001
 30
0.0
 11
398.145
 21
7.83001
 31
0.0
  0
LINE
  8
0
 62
     0
 10
398.145
 20
7.83001
 30
0.0
 11
398.145
 21
21.8309
 31
0.0
  0
LINE
  8
0
 62
     0
 10
417.195
 20
21.8309
 30
0.0
 11
431.197
 21
21.8309
 31
0.0
  0
LINE
  8
0
 62
     0
 10
431.197
 20
21.8309
 30
0.0
 11
431.197
 21
7.83001
 31
0.0
  0
LINE
  8
0
 62
     0
 10
431.197
 20
7.83001
 30
0.0
 11
417.195
 21
7.83001
 31
0.0
  0
LINE
  8
0
 62
     0
 10
417.195
 20
7.83001
 30
0.0
 11
417.195
 21
21.8309
 31
0.0
  0
LINE
  8
0
 62
     0
 10
71.2692
 20
40.4551
 30
0.0
 11
71.2692
 21
39.6311
 31
0.0
  0
LINE
  8
0
 62
     0
 10
71.2692
 20
39.6311
 30
0.0
 11
64.9993
 21
39.6311
 31
0.0
  0
LINE
  8
0
 62
     0
 10
64.9993
 20
39.6311
 30
0.0
 11
64.9993
 21
37.9056
 31
0.0
  0
LINE
  8
0
 62
     0
 10
64.9993
 20
37.9056
 30
0.0
 11
63.7992
 21
37.9056
 31
0.0
  0
LINE
  8
0
 62
     0
 10
63.7992
 20
37.9056
 30
0.0
 11
63.7992
 21
34.6053
 31
0.0
  0
LINE
  8
0
 62
     0
 10
63.7992
 20
34.6053
 30
0.0
 11
64.9993
 21
34.6053
 31
0.0
  0
LINE
  8
0
 62
     0
 10
64.9993
 20
34.6053
 30
0.0
 11
64.9993
 21
32.88
 31
0.0
  0
LINE
  8
0
 62
     0
 10
64.9993
 20
32.88
 30
0.0
 11
69.4697
 21
32.88
 31
0.0
  0
LINE
  8
0
 62
     0
 10
69.4697
 20
32.88
 30
0.0
 11
69.4697
 21
31.3559
 31
0.0
  0
LINE
  8
0
 62
     0
 10
69.4697
 20
31.3559
 30
0.0
 11
64.7693
 21
31.3559
 31
0.0
  0
LINE
  8
0
 62
     0
 10
64.7693
 20
31.3559
 30
0.0
 11
64.7693
 21
17.355
 31
0.0
  0
LINE
  8
0
 62
     0
 10
64.7693
 20
17.355
 30
0.0
 11
69.4697
 21
17.355
 31
0.0
  0
LINE
  8
0
 62
     0
 10
69.4697
 20
17.355
 30
0.0
 11
69.4697
 21
15.8309
 31
0.0
  0
LINE
  8
0
 62
     0
 10
69.4697
 20
15.8309
 30
0.0
 11
64.9993
 21
15.8309
 31
0.0
  0
LINE
  8
0
 62
     0
 10
64.9993
 20
15.8309
 30
0.0
 11
64.9993
 21
14.1056
 31
0.0
  0
LINE
  8
0
 62
     0
 10
64.9993
 20
14.1056
 30
0.0
 11
63.7992
 21
14.1056
 31
0.0
  0
LINE
  8
0
 62
     0
 10
63.7992
 20
14.1056
 30
0.0
 11
63.7992
 21
10.8052
 31
0.0
  0
LINE
  8
0
 62
     0
 10
63.7992
 20
10.8052
 30
0.0
 11
64.9993
 21
10.8052
 31
0.0
  0
LINE
  8
0
 62
     0
 10
64.9993
 20
10.8052
 30
0.0
 11
64.9993
 21
9.0799
 31
0.0
  0
LINE
  8
0
 62
     0
 10
64.9993
 20
9.0799
 30
0.0
 11
71.2692
 21
9.0799
 31
0.0
  0
LINE
  8
0
 62
     0
 10
71.2692
 20
9.0799
 30
0.0
 11
71.2692
 21
8.25581
 31
0.0
  0
LINE
  8
0
 62
     0
 10
71.2692
 20
8.25581
 30
0.0
 11
74.0696
 21
8.25581
 31
0.0
  0
LINE
  8
0
 62
     0
 10
74.0696
 20
8.25581
 30
0.0
 11
74.0696
 21
9.0799
 31
0.0
  0
LINE
  8
0
 62
     0
 10
74.0696
 20
9.0799
 30
0.0
 11
77.2996
 21
9.0799
 31
0.0
  0
LINE
  8
0
 62
     0
 10
77.2996
 20
9.0799
 30
0.0
 11
77.2996
 21
15.8309
 31
0.0
  0
LINE
  8
0
 62
     0
 10
77.2996
 20
15.8309
 30
0.0
 11
74.0696
 21
15.8309
 31
0.0
  0
LINE
  8
0
 62
     0
 10
74.0696
 20
15.8309
 30
0.0
 11
74.0696
 21
17.355
 31
0.0
  0
LINE
  8
0
 62
     0
 10
74.0696
 20
17.355
 30
0.0
 11
78.77
 21
17.355
 31
0.0
  0
LINE
  8
0
 62
     0
 10
78.77
 20
17.355
 30
0.0
 11
78.77
 21
31.3559
 31
0.0
  0
LINE
  8
0
 62
     0
 10
78.77
 20
31.3559
 30
0.0
 11
74.0696
 21
31.3559
 31
0.0
  0
LINE
  8
0
 62
     0
 10
74.0696
 20
31.3559
 30
0.0
 11
74.0696
 21
32.88
 31
0.0
  0
LINE
  8
0
 62
     0
 10
74.0696
 20
32.88
 30
0.0
 11
77.2996
 21
32.88
 31
0.0
  0
LINE
  8
0
 62
     0
 10
77.2996
 20
32.88
 30
0.0
 11
77.2996
 21
39.6311
 31
0.0
  0
LINE
  8
0
 62
     0
 10
77.2996
 20
39.6311
 30
0.0
 11
74.0696
 21
39.6311
 31
0.0
  0
LINE
  8
0
 62
     0
 10
74.0696
 20
39.6311
 30
0.0
 11
74.0696
 21
40.4551
 31
0.0
  0
LINE
  8
0
 62
     0
 10
74.0696
 20
40.4551
 30
0.0
 11
71.2692
 21
40.4551
 31
0.0
  0
LINE
  8
0
 62
     0
 10
100.488
 20
40.8809
 30
0.0
 11
100.488
 21
36.1805
 31
0.0
  0
LINE
  8
0
 62
     0
 10
100.488
 20
36.1805
 30
0.0
 11
98.9623
 21
36.1805
 31
0.0
  0
LINE
  8
0
 62
     0
 10
98.9623
 20
36.1805
 30
0.0
 11
98.9623
 21
39.4106
 31
0.0
  0
LINE
  8
0
 62
     0
 10
98.9623
 20
39.4106
 30
0.0
 11
92.2129
 21
39.4106
 31
0.0
  0
LINE
  8
0
 62
     0
 10
92.2129
 20
39.4106
 30
0.0
 11
92.2129
 21
36.1805
 31
0.0
  0
LINE
  8
0
 62
     0
 10
92.2129
 20
36.1805
 30
0.0
 11
91.3874
 21
36.1805
 31
0.0
  0
LINE
  8
0
 62
     0
 10
91.3874
 20
36.1805
 30
0.0
 11
91.3874
 21
33.3802
 31
0.0
  0
LINE
  8
0
 62
     0
 10
91.3874
 20
33.3802
 30
0.0
 11
92.2129
 21
33.3802
 31
0.0
  0
LINE
  8
0
 62
     0
 10
92.2129
 20
33.3802
 30
0.0
 11
92.2129
 21
27.1102
 31
0.0
  0
LINE
  8
0
 62
     0
 10
92.2129
 20
27.1102
 30
0.0
 11
93.938
 21
27.1102
 31
0.0
  0
LINE
  8
0
 62
     0
 10
93.938
 20
27.1102
 30
0.0
 11
93.938
 21
25.9099
 31
0.0
  0
LINE
  8
0
 62
     0
 10
93.938
 20
25.9099
 30
0.0
 11
97.2372
 21
25.9099
 31
0.0
  0
LINE
  8
0
 62
     0
 10
97.2372
 20
25.9099
 30
0.0
 11
97.2372
 21
27.1102
 31
0.0
  0
LINE
  8
0
 62
     0
 10
97.2372
 20
27.1102
 30
0.0
 11
98.9623
 21
27.1102
 31
0.0
  0
LINE
  8
0
 62
     0
 10
98.9623
 20
27.1102
 30
0.0
 11
98.9623
 21
31.5805
 31
0.0
  0
LINE
  8
0
 62
     0
 10
98.9623
 20
31.5805
 30
0.0
 11
100.488
 21
31.5805
 31
0.0
  0
LINE
  8
0
 62
     0
 10
100.488
 20
31.5805
 30
0.0
 11
100.488
 21
26.88
 31
0.0
  0
LINE
  8
0
 62
     0
 10
100.488
 20
26.88
 30
0.0
 11
114.487
 21
26.88
 31
0.0
  0
LINE
  8
0
 62
     0
 10
114.487
 20
26.88
 30
0.0
 11
114.487
 21
31.5805
 31
0.0
  0
LINE
  8
0
 62
     0
 10
114.487
 20
31.5805
 30
0.0
 11
116.013
 21
31.5805
 31
0.0
  0
LINE
  8
0
 62
     0
 10
116.013
 20
31.5805
 30
0.0
 11
116.013
 21
27.1102
 31
0.0
  0
LINE
  8
0
 62
     0
 10
116.013
 20
27.1102
 30
0.0
 11
117.737
 21
27.1102
 31
0.0
  0
LINE
  8
0
 62
     0
 10
117.737
 20
27.1102
 30
0.0
 11
117.737
 21
25.9099
 31
0.0
  0
LINE
  8
0
 62
     0
 10
117.737
 20
25.9099
 30
0.0
 11
121.037
 21
25.9099
 31
0.0
  0
LINE
  8
0
 62
     0
 10
121.037
 20
25.9099
 30
0.0
 11
121.037
 21
27.1102
 31
0.0
  0
LINE
  8
0
 62
     0
 10
121.037
 20
27.1102
 30
0.0
 11
122.762
 21
27.1102
 31
0.0
  0
LINE
  8
0
 62
     0
 10
122.762
 20
27.1102
 30
0.0
 11
122.762
 21
33.3802
 31
0.0
  0
LINE
  8
0
 62
     0
 10
122.762
 20
33.3802
 30
0.0
 11
123.588
 21
33.3802
 31
0.0
  0
LINE
  8
0
 62
     0
 10
123.588
 20
33.3802
 30
0.0
 11
123.588
 21
36.1805
 31
0.0
  0
LINE
  8
0
 62
     0
 10
123.588
 20
36.1805
 30
0.0
 11
122.762
 21
36.1805
 31
0.0
  0
LINE
  8
0
 62
     0
 10
122.762
 20
36.1805
 30
0.0
 11
122.762
 21
39.4106
 31
0.0
  0
LINE
  8
0
 62
     0
 10
122.762
 20
39.4106
 30
0.0
 11
116.013
 21
39.4106
 31
0.0
  0
LINE
  8
0
 62
     0
 10
116.013
 20
39.4106
 30
0.0
 11
116.013
 21
36.1805
 31
0.0
  0
LINE
  8
0
 62
     0
 10
116.013
 20
36.1805
 30
0.0
 11
114.487
 21
36.1805
 31
0.0
  0
LINE
  8
0
 62
     0
 10
114.487
 20
36.1805
 30
0.0
 11
114.487
 21
40.8809
 31
0.0
  0
LINE
  8
0
 62
     0
 10
114.487
 20
40.8809
 30
0.0
 11
100.488
 21
40.8809
 31
0.0
  0
LINE
  8
0
 62
     0
 10
338.613
 20
40.8809
 30
0.0
 11
338.613
 21
36.1805
 31
0.0
  0
LINE
  8
0
 62
     0
 10
338.613
 20
36.1805
 30
0.0
 11
337.087
 21
36.1805
 31
0.0
  0
LINE
  8
0
 62
     0
 10
337.087
 20
36.1805
 30
0.0
 11
337.087
 21
39.4106
 31
0.0
  0
LINE
  8
0
 62
     0
 10
337.087
 20
39.4106
 30
0.0
 11
330.338
 21
39.4106
 31
0.0
  0
LINE
  8
0
 62
     0
 10
330.338
 20
39.4106
 30
0.0
 11
330.338
 21
36.1805
 31
0.0
  0
LINE
  8
0
 62
     0
 10
330.338
 20
36.1805
 30
0.0
 11
329.512
 21
36.1805
 31
0.0
  0
LINE
  8
0
 62
     0
 10
329.512
 20
36.1805
 30
0.0
 11
329.512
 21
33.3802
 31
0.0
  0
LINE
  8
0
 62
     0
 10
329.512
 20
33.3802
 30
0.0
 11
330.338
 21
33.3802
 31
0.0
  0
LINE
  8
0
 62
     0
 10
330.338
 20
33.3802
 30
0.0
 11
330.338
 21
27.1102
 31
0.0
  0
LINE
  8
0
 62
     0
 10
330.338
 20
27.1102
 30
0.0
 11
332.063
 21
27.1102
 31
0.0
  0
LINE
  8
0
 62
     0
 10
332.063
 20
27.1102
 30
0.0
 11
332.063
 21
25.9099
 31
0.0
  0
LINE
  8
0
 62
     0
 10
332.063
 20
25.9099
 30
0.0
 11
335.362
 21
25.9099
 31
0.0
  0
LINE
  8
0
 62
     0
 10
335.362
 20
25.9099
 30
0.0
 11
335.362
 21
27.1102
 31
0.0
  0
LINE
  8
0
 62
     0
 10
335.362
 20
27.1102
 30
0.0
 11
337.087
 21
27.1102
 31
0.0
  0
LINE
  8
0
 62
     0
 10
337.087
 20
27.1102
 30
0.0
 11
337.087
 21
31.5805
 31
0.0
  0
LINE
  8
0
 62
     0
 10
337.087
 20
31.5805
 30
0.0
 11
338.613
 21
31.5805
 31
0.0
  0
LINE
  8
0
 62
     0
 10
338.613
 20
31.5805
 30
0.0
 11
338.613
 21
26.88
 31
0.0
  0
LINE
  8
0
 62
     0
 10
338.613
 20
26.88
 30
0.0
 11
352.612
 21
26.88
 31
0.0
  0
LINE
  8
0
 62
     0
 10
352.612
 20
26.88
 30
0.0
 11
352.612
 21
31.5805
 31
0.0
  0
LINE
  8
0
 62
     0
 10
352.612
 20
31.5805
 30
0.0
 11
354.139
 21
31.5805
 31
0.0
  0
LINE
  8
0
 62
     0
 10
354.139
 20
31.5805
 30
0.0
 11
354.139
 21
27.1102
 31
0.0
  0
LINE
  8
0
 62
     0
 10
354.139
 20
27.1102
 30
0.0
 11
355.861
 21
27.1102
 31
0.0
  0
LINE
  8
0
 62
     0
 10
355.861
 20
27.1102
 30
0.0
 11
355.861
 21
25.9099
 31
0.0
  0
LINE
  8
0
 62
     0
 10
355.861
 20
25.9099
 30
0.0
 11
359.163
 21
25.9099
 31
0.0
  0
LINE
  8
0
 62
     0
 10
359.163
 20
25.9099
 30
0.0
 11
359.163
 21
27.1102
 31
0.0
  0
LINE
  8
0
 62
     0
 10
359.163
 20
27.1102
 30
0.0
 11
360.888
 21
27.1102
 31
0.0
  0
LINE
  8
0
 62
     0
 10
360.888
 20
27.1102
 30
0.0
 11
360.888
 21
33.3802
 31
0.0
  0
LINE
  8
0
 62
     0
 10
360.888
 20
33.3802
 30
0.0
 11
361.714
 21
33.3802
 31
0.0
  0
LINE
  8
0
 62
     0
 10
361.714
 20
33.3802
 30
0.0
 11
361.714
 21
36.1805
 31
0.0
  0
LINE
  8
0
 62
     0
 10
361.714
 20
36.1805
 30
0.0
 11
360.888
 21
36.1805
 31
0.0
  0
LINE
  8
0
 62
     0
 10
360.888
 20
36.1805
 30
0.0
 11
360.888
 21
39.4106
 31
0.0
  0
LINE
  8
0
 62
     0
 10
360.888
 20
39.4106
 30
0.0
 11
354.139
 21
39.4106
 31
0.0
  0
LINE
  8
0
 62
     0
 10
354.139
 20
39.4106
 30
0.0
 11
354.139
 21
36.1805
 31
0.0
  0
LINE
  8
0
 62
     0
 10
354.139
 20
36.1805
 30
0.0
 11
352.612
 21
36.1805
 31
0.0
  0
LINE
  8
0
 62
     0
 10
352.612
 20
36.1805
 30
0.0
 11
352.612
 21
40.8809
 31
0.0
  0
LINE
  8
0
 62
     0
 10
352.612
 20
40.8809
 30
0.0
 11
338.613
 21
40.8809
 31
0.0
  0
LINE
  8
0
 62
     0
 10
7.61919
 20
40.8809
 30
0.0
 11
21.6201
 21
40.8809
 31
0.0
  0
LINE
  8
0
 62
     0
 10
21.6201
 20
40.8809
 30
0.0
 11
21.6201
 21
26.88
 31
0.0
  0
LINE
  8
0
 62
     0
 10
21.6201
 20
26.88
 30
0.0
 11
7.61919
 21
26.88
 31
0.0
  0
LINE
  8
0
 62
     0
 10
7.61919
 20
26.88
 30
0.0
 11
7.61919
 21
40.8809
 31
0.0
  0
LINE
  8
0
 62
     0
 10
26.6692
 20
40.8809
 30
0.0
 11
40.67
 21
40.8809
 31
0.0
  0
LINE
  8
0
 62
     0
 10
40.67
 20
40.8809
 30
0.0
 11
40.67
 21
26.88
 31
0.0
  0
LINE
  8
0
 62
     0
 10
40.67
 20
26.88
 30
0.0
 11
26.6692
 21
26.88
 31
0.0
  0
LINE
  8
0
 62
     0
 10
26.6692
 20
26.88
 30
0.0
 11
26.6692
 21
40.8809
 31
0.0
  0
LINE
  8
0
 62
     0
 10
45.7193
 20
40.8809
 30
0.0
 11
59.72
 21
40.8809
 31
0.0
  0
LINE
  8
0
 62
     0
 10
59.72
 20
40.8809
 30
0.0
 11
59.72
 21
26.88
 31
0.0
  0
LINE
  8
0
 62
     0
 10
59.72
 20
26.88
 30
0.0
 11
45.7193
 21
26.88
 31
0.0
  0
LINE
  8
0
 62
     0
 10
45.7193
 20
26.88
 30
0.0
 11
45.7193
 21
40.8809
 31
0.0
  0
LINE
  8
0
 62
     0
 10
131.444
 20
40.8809
 30
0.0
 11
145.445
 21
40.8809
 31
0.0
  0
LINE
  8
0
 62
     0
 10
145.445
 20
40.8809
 30
0.0
 11
145.445
 21
26.88
 31
0.0
  0
LINE
  8
0
 62
     0
 10
145.445
 20
26.88
 30
0.0
 11
131.444
 21
26.88
 31
0.0
  0
LINE
  8
0
 62
     0
 10
131.444
 20
26.88
 30
0.0
 11
131.444
 21
40.8809
 31
0.0
  0
LINE
  8
0
 62
     0
 10
150.494
 20
40.8809
 30
0.0
 11
164.495
 21
40.8809
 31
0.0
  0
LINE
  8
0
 62
     0
 10
164.495
 20
40.8809
 30
0.0
 11
164.495
 21
26.88
 31
0.0
  0
LINE
  8
0
 62
     0
 10
164.495
 20
26.88
 30
0.0
 11
150.494
 21
26.88
 31
0.0
  0
LINE
  8
0
 62
     0
 10
150.494
 20
26.88
 30
0.0
 11
150.494
 21
40.8809
 31
0.0
  0
LINE
  8
0
 62
     0
 10
169.544
 20
40.8809
 30
0.0
 11
183.545
 21
40.8809
 31
0.0
  0
LINE
  8
0
 62
     0
 10
183.545
 20
40.8809
 30
0.0
 11
183.545
 21
26.88
 31
0.0
  0
LINE
  8
0
 62
     0
 10
183.545
 20
26.88
 30
0.0
 11
169.544
 21
26.88
 31
0.0
  0
LINE
  8
0
 62
     0
 10
169.544
 20
26.88
 30
0.0
 11
169.544
 21
40.8809
 31
0.0
  0
LINE
  8
0
 62
     0
 10
188.594
 20
40.8809
 30
0.0
 11
202.595
 21
40.8809
 31
0.0
  0
LINE
  8
0
 62
     0
 10
202.595
 20
40.8809
 30
0.0
 11
202.595
 21
26.88
 31
0.0
  0
LINE
  8
0
 62
     0
 10
202.595
 20
26.88
 30
0.0
 11
188.594
 21
26.88
 31
0.0
  0
LINE
  8
0
 62
     0
 10
188.594
 20
26.88
 30
0.0
 11
188.594
 21
40.8809
 31
0.0
  0
LINE
  8
0
 62
     0
 10
207.644
 20
40.8809
 30
0.0
 11
221.645
 21
40.8809
 31
0.0
  0
LINE
  8
0
 62
     0
 10
221.645
 20
40.8809
 30
0.0
 11
221.645
 21
26.88
 31
0.0
  0
LINE
  8
0
 62
     0
 10
221.645
 20
26.88
 30
0.0
 11
207.644
 21
26.88
 31
0.0
  0
LINE
  8
0
 62
     0
 10
207.644
 20
26.88
 30
0.0
 11
207.644
 21
40.8809
 31
0.0
  0
LINE
  8
0
 62
     0
 10
226.694
 20
40.8809
 30
0.0
 11
240.695
 21
40.8809
 31
0.0
  0
LINE
  8
0
 62
     0
 10
240.695
 20
40.8809
 30
0.0
 11
240.695
 21
26.88
 31
0.0
  0
LINE
  8
0
 62
     0
 10
240.695
 20
26.88
 30
0.0
 11
226.694
 21
26.88
 31
0.0
  0
LINE
  8
0
 62
     0
 10
226.694
 20
26.88
 30
0.0
 11
226.694
 21
40.8809
 31
0.0
  0
LINE
  8
0
 62
     0
 10
245.744
 20
40.8809
 30
0.0
 11
259.745
 21
40.8809
 31
0.0
  0
LINE
  8
0
 62
     0
 10
259.745
 20
40.8809
 30
0.0
 11
259.745
 21
26.88
 31
0.0
  0
LINE
  8
0
 62
     0
 10
259.745
 20
26.88
 30
0.0
 11
245.744
 21
26.88
 31
0.0
  0
LINE
  8
0
 62
     0
 10
245.744
 20
26.88
 30
0.0
 11
245.744
 21
40.8809
 31
0.0
  0
LINE
  8
0
 62
     0
 10
264.794
 20
40.8809
 30
0.0
 11
278.795
 21
40.8809
 31
0.0
  0
LINE
  8
0
 62
     0
 10
278.795
 20
40.8809
 30
0.0
 11
278.795
 21
26.88
 31
0.0
  0
LINE
  8
0
 62
     0
 10
278.795
 20
26.88
 30
0.0
 11
264.794
 21
26.88
 31
0.0
  0
LINE
  8
0
 62
     0
 10
264.794
 20
26.88
 30
0.0
 11
264.794
 21
40.8809
 31
0.0
  0
LINE
  8
0
 62
     0
 10
283.844
 20
40.8809
 30
0.0
 11
297.845
 21
40.8809
 31
0.0
  0
LINE
  8
0
 62
     0
 10
297.845
 20
40.8809
 30
0.0
 11
297.845
 21
26.88
 31
0.0
  0
LINE
  8
0
 62
     0
 10
297.845
 20
26.88
 30
0.0
 11
283.844
 21
26.88
 31
0.0
  0
LINE
  8
0
 62
     0
 10
283.844
 20
26.88
 30
0.0
 11
283.844
 21
40.8809
 31
0.0
  0
LINE
  8
0
 62
     0
 10
302.894
 20
40.8809
 30
0.0
 11
316.895
 21
40.8809
 31
0.0
  0
LINE
  8
0
 62
     0
 10
316.895
 20
40.8809
 30
0.0
 11
316.895
 21
26.88
 31
0.0
  0
LINE
  8
0
 62
     0
 10
316.895
 20
26.88
 30
0.0
 11
302.894
 21
26.88
 31
0.0
  0
LINE
  8
0
 62
     0
 10
302.894
 20
26.88
 30
0.0
 11
302.894
 21
40.8809
 31
0.0
  0
LINE
  8
0
 62
     0
 10
398.145
 20
40.8809
 30
0.0
 11
412.147
 21
40.8809
 31
0.0
  0
LINE
  8
0
 62
     0
 10
412.147
 20
40.8809
 30
0.0
 11
412.147
 21
26.88
 31
0.0
  0
LINE
  8
0
 62
     0
 10
412.147
 20
26.88
 30
0.0
 11
398.145
 21
26.88
 31
0.0
  0
LINE
  8
0
 62
     0
 10
398.145
 20
26.88
 30
0.0
 11
398.145
 21
40.8809
 31
0.0
  0
LINE
  8
0
 62
     0
 10
343.376
 20
59.9309
 30
0.0
 11
343.376
 21
55.2305
 31
0.0
  0
LINE
  8
0
 62
     0
 10
343.376
 20
55.2305
 30
0.0
 11
341.85
 21
55.2305
 31
0.0
  0
LINE
  8
0
 62
     0
 10
341.85
 20
55.2305
 30
0.0
 11
341.85
 21
58.4606
 31
0.0
  0
LINE
  8
0
 62
     0
 10
341.85
 20
58.4606
 30
0.0
 11
335.1
 21
58.4606
 31
0.0
  0
LINE
  8
0
 62
     0
 10
335.1
 20
58.4606
 30
0.0
 11
335.1
 21
55.2305
 31
0.0
  0
LINE
  8
0
 62
     0
 10
335.1
 20
55.2305
 30
0.0
 11
334.275
 21
55.2305
 31
0.0
  0
LINE
  8
0
 62
     0
 10
334.275
 20
55.2305
 30
0.0
 11
334.275
 21
52.4302
 31
0.0
  0
LINE
  8
0
 62
     0
 10
334.275
 20
52.4302
 30
0.0
 11
335.1
 21
52.4302
 31
0.0
  0
LINE
  8
0
 62
     0
 10
335.1
 20
52.4302
 30
0.0
 11
335.1
 21
46.1603
 31
0.0
  0
LINE
  8
0
 62
     0
 10
335.1
 20
46.1603
 30
0.0
 11
336.826
 21
46.1603
 31
0.0
  0
LINE
  8
0
 62
     0
 10
336.826
 20
46.1603
 30
0.0
 11
336.826
 21
44.9598
 31
0.0
  0
LINE
  8
0
 62
     0
 10
336.826
 20
44.9598
 30
0.0
 11
340.126
 21
44.9598
 31
0.0
  0
LINE
  8
0
 62
     0
 10
340.126
 20
44.9598
 30
0.0
 11
340.126
 21
46.1603
 31
0.0
  0
LINE
  8
0
 62
     0
 10
340.126
 20
46.1603
 30
0.0
 11
341.85
 21
46.1603
 31
0.0
  0
LINE
  8
0
 62
     0
 10
341.85
 20
46.1603
 30
0.0
 11
341.85
 21
50.6307
 31
0.0
  0
LINE
  8
0
 62
     0
 10
341.85
 20
50.6307
 30
0.0
 11
343.376
 21
50.6307
 31
0.0
  0
LINE
  8
0
 62
     0
 10
343.376
 20
50.6307
 30
0.0
 11
343.376
 21
45.9299
 31
0.0
  0
LINE
  8
0
 62
     0
 10
343.376
 20
45.9299
 30
0.0
 11
357.374
 21
45.9299
 31
0.0
  0
LINE
  8
0
 62
     0
 10
357.374
 20
45.9299
 30
0.0
 11
357.374
 21
50.6307
 31
0.0
  0
LINE
  8
0
 62
     0
 10
357.374
 20
50.6307
 30
0.0
 11
358.902
 21
50.6307
 31
0.0
  0
LINE
  8
0
 62
     0
 10
358.902
 20
50.6307
 30
0.0
 11
358.902
 21
46.1603
 31
0.0
  0
LINE
  8
0
 62
     0
 10
358.902
 20
46.1603
 30
0.0
 11
360.627
 21
46.1603
 31
0.0
  0
LINE
  8
0
 62
     0
 10
360.627
 20
46.1603
 30
0.0
 11
360.627
 21
44.9598
 31
0.0
  0
LINE
  8
0
 62
     0
 10
360.627
 20
44.9598
 30
0.0
 11
363.926
 21
44.9598
 31
0.0
  0
LINE
  8
0
 62
     0
 10
363.926
 20
44.9598
 30
0.0
 11
363.926
 21
46.1603
 31
0.0
  0
LINE
  8
0
 62
     0
 10
363.926
 20
46.1603
 30
0.0
 11
365.651
 21
46.1603
 31
0.0
  0
LINE
  8
0
 62
     0
 10
365.651
 20
46.1603
 30
0.0
 11
365.651
 21
52.4302
 31
0.0
  0
LINE
  8
0
 62
     0
 10
365.651
 20
52.4302
 30
0.0
 11
366.476
 21
52.4302
 31
0.0
  0
LINE
  8
0
 62
     0
 10
366.476
 20
52.4302
 30
0.0
 11
366.476
 21
55.2305
 31
0.0
  0
LINE
  8
0
 62
     0
 10
366.476
 20
55.2305
 30
0.0
 11
365.651
 21
55.2305
 31
0.0
  0
LINE
  8
0
 62
     0
 10
365.651
 20
55.2305
 30
0.0
 11
365.651
 21
58.4606
 31
0.0
  0
LINE
  8
0
 62
     0
 10
365.651
 20
58.4606
 30
0.0
 11
358.902
 21
58.4606
 31
0.0
  0
LINE
  8
0
 62
     0
 10
358.902
 20
58.4606
 30
0.0
 11
358.902
 21
55.2305
 31
0.0
  0
LINE
  8
0
 62
     0
 10
358.902
 20
55.2305
 30
0.0
 11
357.374
 21
55.2305
 31
0.0
  0
LINE
  8
0
 62
     0
 10
357.374
 20
55.2305
 30
0.0
 11
357.374
 21
59.9309
 31
0.0
  0
LINE
  8
0
 62
     0
 10
357.374
 20
59.9309
 30
0.0
 11
343.376
 21
59.9309
 31
0.0
  0
LINE
  8
0
 62
     0
 10
7.61919
 20
59.9309
 30
0.0
 11
21.6201
 21
59.9309
 31
0.0
  0
LINE
  8
0
 62
     0
 10
21.6201
 20
59.9309
 30
0.0
 11
21.6201
 21
45.9299
 31
0.0
  0
LINE
  8
0
 62
     0
 10
21.6201
 20
45.9299
 30
0.0
 11
7.61919
 21
45.9299
 31
0.0
  0
LINE
  8
0
 62
     0
 10
7.61919
 20
45.9299
 30
0.0
 11
7.61919
 21
59.9309
 31
0.0
  0
LINE
  8
0
 62
     0
 10
26.6692
 20
59.9309
 30
0.0
 11
40.67
 21
59.9309
 31
0.0
  0
LINE
  8
0
 62
     0
 10
40.67
 20
59.9309
 30
0.0
 11
40.67
 21
45.9299
 31
0.0
  0
LINE
  8
0
 62
     0
 10
40.67
 20
45.9299
 30
0.0
 11
26.6692
 21
45.9299
 31
0.0
  0
LINE
  8
0
 62
     0
 10
26.6692
 20
45.9299
 30
0.0
 11
26.6692
 21
59.9309
 31
0.0
  0
LINE
  8
0
 62
     0
 10
45.7193
 20
59.9309
 30
0.0
 11
59.72
 21
59.9309
 31
0.0
  0
LINE
  8
0
 62
     0
 10
59.72
 20
59.9309
 30
0.0
 11
59.72
 21
45.9299
 31
0.0
  0
LINE
  8
0
 62
     0
 10
59.72
 20
45.9299
 30
0.0
 11
45.7193
 21
45.9299
 31
0.0
  0
LINE
  8
0
 62
     0
 10
45.7193
 20
45.9299
 30
0.0
 11
45.7193
 21
59.9309
 31
0.0
  0
LINE
  8
0
 62
     0
 10
95.7255
 20
59.9309
 30
0.0
 11
109.725
 21
59.9309
 31
0.0
  0
LINE
  8
0
 62
     0
 10
109.725
 20
59.9309
 30
0.0
 11
109.725
 21
45.9299
 31
0.0
  0
LINE
  8
0
 62
     0
 10
109.725
 20
45.9299
 30
0.0
 11
95.7255
 21
45.9299
 31
0.0
  0
LINE
  8
0
 62
     0
 10
95.7255
 20
45.9299
 30
0.0
 11
95.7255
 21
59.9309
 31
0.0
  0
LINE
  8
0
 62
     0
 10
121.919
 20
59.9309
 30
0.0
 11
135.92
 21
59.9309
 31
0.0
  0
LINE
  8
0
 62
     0
 10
135.92
 20
59.9309
 30
0.0
 11
135.92
 21
45.9299
 31
0.0
  0
LINE
  8
0
 62
     0
 10
135.92
 20
45.9299
 30
0.0
 11
121.919
 21
45.9299
 31
0.0
  0
LINE
  8
0
 62
     0
 10
121.919
 20
45.9299
 30
0.0
 11
121.919
 21
59.9309
 31
0.0
  0
LINE
  8
0
 62
     0
 10
140.969
 20
59.9309
 30
0.0
 11
154.97
 21
59.9309
 31
0.0
  0
LINE
  8
0
 62
     0
 10
154.97
 20
59.9309
 30
0.0
 11
154.97
 21
45.9299
 31
0.0
  0
LINE
  8
0
 62
     0
 10
154.97
 20
45.9299
 30
0.0
 11
140.969
 21
45.9299
 31
0.0
  0
LINE
  8
0
 62
     0
 10
140.969
 20
45.9299
 30
0.0
 11
140.969
 21
59.9309
 31
0.0
  0
LINE
  8
0
 62
     0
 10
160.019
 20
59.9309
 30
0.0
 11
174.02
 21
59.9309
 31
0.0
  0
LINE
  8
0
 62
     0
 10
174.02
 20
59.9309
 30
0.0
 11
174.02
 21
45.9299
 31
0.0
  0
LINE
  8
0
 62
     0
 10
174.02
 20
45.9299
 30
0.0
 11
160.019
 21
45.9299
 31
0.0
  0
LINE
  8
0
 62
     0
 10
160.019
 20
45.9299
 30
0.0
 11
160.019
 21
59.9309
 31
0.0
  0
LINE
  8
0
 62
     0
 10
179.069
 20
59.9309
 30
0.0
 11
193.07
 21
59.9309
 31
0.0
  0
LINE
  8
0
 62
     0
 10
193.07
 20
59.9309
 30
0.0
 11
193.07
 21
45.9299
 31
0.0
  0
LINE
  8
0
 62
     0
 10
193.07
 20
45.9299
 30
0.0
 11
179.069
 21
45.9299
 31
0.0
  0
LINE
  8
0
 62
     0
 10
179.069
 20
45.9299
 30
0.0
 11
179.069
 21
59.9309
 31
0.0
  0
LINE
  8
0
 62
     0
 10
198.119
 20
59.9309
 30
0.0
 11
212.12
 21
59.9309
 31
0.0
  0
LINE
  8
0
 62
     0
 10
212.12
 20
59.9309
 30
0.0
 11
212.12
 21
45.9299
 31
0.0
  0
LINE
  8
0
 62
     0
 10
212.12
 20
45.9299
 30
0.0
 11
198.119
 21
45.9299
 31
0.0
  0
LINE
  8
0
 62
     0
 10
198.119
 20
45.9299
 30
0.0
 11
198.119
 21
59.9309
 31
0.0
  0
LINE
  8
0
 62
     0
 10
217.169
 20
59.9309
 30
0.0
 11
231.17
 21
59.9309
 31
0.0
  0
LINE
  8
0
 62
     0
 10
231.17
 20
59.9309
 30
0.0
 11
231.17
 21
45.9299
 31
0.0
  0
LINE
  8
0
 62
     0
 10
231.17
 20
45.9299
 30
0.0
 11
217.169
 21
45.9299
 31
0.0
  0
LINE
  8
0
 62
     0
 10
217.169
 20
45.9299
 30
0.0
 11
217.169
 21
59.9309
 31
0.0
  0
LINE
  8
0
 62
     0
 10
236.219
 20
59.9309
 30
0.0
 11
250.22
 21
59.9309
 31
0.0
  0
LINE
  8
0
 62
     0
 10
250.22
 20
59.9309
 30
0.0
 11
250.22
 21
45.9299
 31
0.0
  0
LINE
  8
0
 62
     0
 10
250.22
 20
45.9299
 30
0.0
 11
236.219
 21
45.9299
 31
0.0
  0
LINE
  8
0
 62
     0
 10
236.219
 20
45.9299
 30
0.0
 11
236.219
 21
59.9309
 31
0.0
  0
LINE
  8
0
 62
     0
 10
255.269
 20
59.9309
 30
0.0
 11
269.27
 21
59.9309
 31
0.0
  0
LINE
  8
0
 62
     0
 10
269.27
 20
59.9309
 30
0.0
 11
269.27
 21
45.9299
 31
0.0
  0
LINE
  8
0
 62
     0
 10
269.27
 20
45.9299
 30
0.0
 11
255.269
 21
45.9299
 31
0.0
  0
LINE
  8
0
 62
     0
 10
255.269
 20
45.9299
 30
0.0
 11
255.269
 21
59.9309
 31
0.0
  0
LINE
  8
0
 62
     0
 10
274.319
 20
59.9309
 30
0.0
 11
288.32
 21
59.9309
 31
0.0
  0
LINE
  8
0
 62
     0
 10
288.32
 20
59.9309
 30
0.0
 11
288.32
 21
45.9299
 31
0.0
  0
LINE
  8
0
 62
     0
 10
288.32
 20
45.9299
 30
0.0
 11
274.319
 21
45.9299
 31
0.0
  0
LINE
  8
0
 62
     0
 10
274.319
 20
45.9299
 30
0.0
 11
274.319
 21
59.9309
 31
0.0
  0
LINE
  8
0
 62
     0
 10
293.369
 20
59.9309
 30
0.0
 11
307.37
 21
59.9309
 31
0.0
  0
LINE
  8
0
 62
     0
 10
307.37
 20
59.9309
 30
0.0
 11
307.37
 21
45.9299
 31
0.0
  0
LINE
  8
0
 62
     0
 10
307.37
 20
45.9299
 30
0.0
 11
293.369
 21
45.9299
 31
0.0
  0
LINE
  8
0
 62
     0
 10
293.369
 20
45.9299
 30
0.0
 11
293.369
 21
59.9309
 31
0.0
  0
LINE
  8
0
 62
     0
 10
312.419
 20
59.9309
 30
0.0
 11
326.42
 21
59.9309
 31
0.0
  0
LINE
  8
0
 62
     0
 10
326.42
 20
59.9309
 30
0.0
 11
326.42
 21
45.9299
 31
0.0
  0
LINE
  8
0
 62
     0
 10
326.42
 20
45.9299
 30
0.0
 11
312.419
 21
45.9299
 31
0.0
  0
LINE
  8
0
 62
     0
 10
312.419
 20
45.9299
 30
0.0
 11
312.419
 21
59.9309
 31
0.0
  0
LINE
  8
0
 62
     0
 10
71.2692
 20
78.5551
 30
0.0
 11
71.2692
 21
77.7311
 31
0.0
  0
LINE
  8
0
 62
     0
 10
71.2692
 20
77.7311
 30
0.0
 11
64.9993
 21
77.7311
 31
0.0
  0
LINE
  8
0
 62
     0
 10
64.9993
 20
77.7311
 30
0.0
 11
64.9993
 21
76.0056
 31
0.0
  0
LINE
  8
0
 62
     0
 10
64.9993
 20
76.0056
 30
0.0
 11
63.7992
 21
76.0056
 31
0.0
  0
LINE
  8
0
 62
     0
 10
63.7992
 20
76.0056
 30
0.0
 11
63.7992
 21
72.7054
 31
0.0
  0
LINE
  8
0
 62
     0
 10
63.7992
 20
72.7054
 30
0.0
 11
64.9993
 21
72.7054
 31
0.0
  0
LINE
  8
0
 62
     0
 10
64.9993
 20
72.7054
 30
0.0
 11
64.9993
 21
70.9799
 31
0.0
  0
LINE
  8
0
 62
     0
 10
64.9993
 20
70.9799
 30
0.0
 11
69.4697
 21
70.9799
 31
0.0
  0
LINE
  8
0
 62
     0
 10
69.4697
 20
70.9799
 30
0.0
 11
69.4697
 21
69.4559
 31
0.0
  0
LINE
  8
0
 62
     0
 10
69.4697
 20
69.4559
 30
0.0
 11
64.7693
 21
69.4559
 31
0.0
  0
LINE
  8
0
 62
     0
 10
64.7693
 20
69.4559
 30
0.0
 11
64.7693
 21
55.4549
 31
0.0
  0
LINE
  8
0
 62
     0
 10
64.7693
 20
55.4549
 30
0.0
 11
69.4697
 21
55.4549
 31
0.0
  0
LINE
  8
0
 62
     0
 10
69.4697
 20
55.4549
 30
0.0
 11
69.4697
 21
53.9309
 31
0.0
  0
LINE
  8
0
 62
     0
 10
69.4697
 20
53.9309
 30
0.0
 11
64.9993
 21
53.9309
 31
0.0
  0
LINE
  8
0
 62
     0
 10
64.9993
 20
53.9309
 30
0.0
 11
64.9993
 21
52.2055
 31
0.0
  0
LINE
  8
0
 62
     0
 10
64.9993
 20
52.2055
 30
0.0
 11
63.7992
 21
52.2055
 31
0.0
  0
LINE
  8
0
 62
     0
 10
63.7992
 20
52.2055
 30
0.0
 11
63.7992
 21
48.9052
 31
0.0
  0
LINE
  8
0
 62
     0
 10
63.7992
 20
48.9052
 30
0.0
 11
64.9993
 21
48.9052
 31
0.0
  0
LINE
  8
0
 62
     0
 10
64.9993
 20
48.9052
 30
0.0
 11
64.9993
 21
47.1798
 31
0.0
  0
LINE
  8
0
 62
     0
 10
64.9993
 20
47.1798
 30
0.0
 11
71.2692
 21
47.1798
 31
0.0
  0
LINE
  8
0
 62
     0
 10
71.2692
 20
47.1798
 30
0.0
 11
71.2692
 21
46.3557
 31
0.0
  0
LINE
  8
0
 62
     0
 10
71.2692
 20
46.3557
 30
0.0
 11
74.0696
 21
46.3557
 31
0.0
  0
LINE
  8
0
 62
     0
 10
74.0696
 20
46.3557
 30
0.0
 11
74.0696
 21
47.1798
 31
0.0
  0
LINE
  8
0
 62
     0
 10
74.0696
 20
47.1798
 30
0.0
 11
77.2996
 21
47.1798
 31
0.0
  0
LINE
  8
0
 62
     0
 10
77.2996
 20
47.1798
 30
0.0
 11
77.2996
 21
53.9309
 31
0.0
  0
LINE
  8
0
 62
     0
 10
77.2996
 20
53.9309
 30
0.0
 11
74.0696
 21
53.9309
 31
0.0
  0
LINE
  8
0
 62
     0
 10
74.0696
 20
53.9309
 30
0.0
 11
74.0696
 21
55.4549
 31
0.0
  0
LINE
  8
0
 62
     0
 10
74.0696
 20
55.4549
 30
0.0
 11
78.77
 21
55.4549
 31
0.0
  0
LINE
  8
0
 62
     0
 10
78.77
 20
55.4549
 30
0.0
 11
78.77
 21
69.4559
 31
0.0
  0
LINE
  8
0
 62
     0
 10
78.77
 20
69.4559
 30
0.0
 11
74.0696
 21
69.4559
 31
0.0
  0
LINE
  8
0
 62
     0
 10
74.0696
 20
69.4559
 30
0.0
 11
74.0696
 21
70.9799
 31
0.0
  0
LINE
  8
0
 62
     0
 10
74.0696
 20
70.9799
 30
0.0
 11
77.2996
 21
70.9799
 31
0.0
  0
LINE
  8
0
 62
     0
 10
77.2996
 20
70.9799
 30
0.0
 11
77.2996
 21
77.7311
 31
0.0
  0
LINE
  8
0
 62
     0
 10
77.2996
 20
77.7311
 30
0.0
 11
74.0696
 21
77.7311
 31
0.0
  0
LINE
  8
0
 62
     0
 10
74.0696
 20
77.7311
 30
0.0
 11
74.0696
 21
78.5551
 31
0.0
  0
LINE
  8
0
 62
     0
 10
74.0696
 20
78.5551
 30
0.0
 11
71.2692
 21
78.5551
 31
0.0
  0
LINE
  8
0
 62
     0
 10
7.61919
 20
78.9809
 30
0.0
 11
21.6201
 21
78.9809
 31
0.0
  0
LINE
  8
0
 62
     0
 10
21.6201
 20
78.9809
 30
0.0
 11
21.6201
 21
64.9799
 31
0.0
  0
LINE
  8
0
 62
     0
 10
21.6201
 20
64.9799
 30
0.0
 11
7.61919
 21
64.9799
 31
0.0
  0
LINE
  8
0
 62
     0
 10
7.61919
 20
64.9799
 30
0.0
 11
7.61919
 21
78.9809
 31
0.0
  0
LINE
  8
0
 62
     0
 10
26.6692
 20
78.9809
 30
0.0
 11
40.67
 21
78.9809
 31
0.0
  0
LINE
  8
0
 62
     0
 10
40.67
 20
78.9809
 30
0.0
 11
40.67
 21
64.9799
 31
0.0
  0
LINE
  8
0
 62
     0
 10
40.67
 20
64.9799
 30
0.0
 11
26.6692
 21
64.9799
 31
0.0
  0
LINE
  8
0
 62
     0
 10
26.6692
 20
64.9799
 30
0.0
 11
26.6692
 21
78.9809
 31
0.0
  0
LINE
  8
0
 62
     0
 10
45.7193
 20
78.9809
 30
0.0
 11
59.72
 21
78.9809
 31
0.0
  0
LINE
  8
0
 62
     0
 10
59.72
 20
78.9809
 30
0.0
 11
59.72
 21
64.9799
 31
0.0
  0
LINE
  8
0
 62
     0
 10
59.72
 20
64.9799
 30
0.0
 11
45.7193
 21
64.9799
 31
0.0
  0
LINE
  8
0
 62
     0
 10
45.7193
 20
64.9799
 30
0.0
 11
45.7193
 21
78.9809
 31
0.0
  0
LINE
  8
0
 62
     0
 10
93.3443
 20
78.9809
 30
0.0
 11
107.345
 21
78.9809
 31
0.0
  0
LINE
  8
0
 62
     0
 10
107.345
 20
78.9809
 30
0.0
 11
107.345
 21
64.9799
 31
0.0
  0
LINE
  8
0
 62
     0
 10
107.345
 20
64.9799
 30
0.0
 11
93.3443
 21
64.9799
 31
0.0
  0
LINE
  8
0
 62
     0
 10
93.3443
 20
64.9799
 30
0.0
 11
93.3443
 21
78.9809
 31
0.0
  0
LINE
  8
0
 62
     0
 10
117.157
 20
78.9809
 30
0.0
 11
131.156
 21
78.9809
 31
0.0
  0
LINE
  8
0
 62
     0
 10
131.156
 20
78.9809
 30
0.0
 11
131.156
 21
64.9799
 31
0.0
  0
LINE
  8
0
 62
     0
 10
131.156
 20
64.9799
 30
0.0
 11
117.157
 21
64.9799
 31
0.0
  0
LINE
  8
0
 62
     0
 10
117.157
 20
64.9799
 30
0.0
 11
117.157
 21
78.9809
 31
0.0
  0
LINE
  8
0
 62
     0
 10
136.207
 20
78.9809
 30
0.0
 11
150.206
 21
78.9809
 31
0.0
  0
LINE
  8
0
 62
     0
 10
150.206
 20
78.9809
 30
0.0
 11
150.206
 21
64.9799
 31
0.0
  0
LINE
  8
0
 62
     0
 10
150.206
 20
64.9799
 30
0.0
 11
136.207
 21
64.9799
 31
0.0
  0
LINE
  8
0
 62
     0
 10
136.207
 20
64.9799
 30
0.0
 11
136.207
 21
78.9809
 31
0.0
  0
LINE
  8
0
 62
     0
 10
155.257
 20
78.9809
 30
0.0
 11
169.256
 21
78.9809
 31
0.0
  0
LINE
  8
0
 62
     0
 10
169.256
 20
78.9809
 30
0.0
 11
169.256
 21
64.9799
 31
0.0
  0
LINE
  8
0
 62
     0
 10
169.256
 20
64.9799
 30
0.0
 11
155.257
 21
64.9799
 31
0.0
  0
LINE
  8
0
 62
     0
 10
155.257
 20
64.9799
 30
0.0
 11
155.257
 21
78.9809
 31
0.0
  0
LINE
  8
0
 62
     0
 10
174.307
 20
78.9809
 30
0.0
 11
188.306
 21
78.9809
 31
0.0
  0
LINE
  8
0
 62
     0
 10
188.306
 20
78.9809
 30
0.0
 11
188.306
 21
64.9799
 31
0.0
  0
LINE
  8
0
 62
     0
 10
188.306
 20
64.9799
 30
0.0
 11
174.307
 21
64.9799
 31
0.0
  0
LINE
  8
0
 62
     0
 10
174.307
 20
64.9799
 30
0.0
 11
174.307
 21
78.9809
 31
0.0
  0
LINE
  8
0
 62
     0
 10
193.357
 20
78.9809
 30
0.0
 11
207.356
 21
78.9809
 31
0.0
  0
LINE
  8
0
 62
     0
 10
207.356
 20
78.9809
 30
0.0
 11
207.356
 21
64.9799
 31
0.0
  0
LINE
  8
0
 62
     0
 10
207.356
 20
64.9799
 30
0.0
 11
193.357
 21
64.9799
 31
0.0
  0
LINE
  8
0
 62
     0
 10
193.357
 20
64.9799
 30
0.0
 11
193.357
 21
78.9809
 31
0.0
  0
LINE
  8
0
 62
     0
 10
212.407
 20
78.9809
 30
0.0
 11
226.406
 21
78.9809
 31
0.0
  0
LINE
  8
0
 62
     0
 10
226.406
 20
78.9809
 30
0.0
 11
226.406
 21
64.9799
 31
0.0
  0
LINE
  8
0
 62
     0
 10
226.406
 20
64.9799
 30
0.0
 11
212.407
 21
64.9799
 31
0.0
  0
LINE
  8
0
 62
     0
 10
212.407
 20
64.9799
 30
0.0
 11
212.407
 21
78.9809
 31
0.0
  0
LINE
  8
0
 62
     0
 10
231.457
 20
78.9809
 30
0.0
 11
245.456
 21
78.9809
 31
0.0
  0
LINE
  8
0
 62
     0
 10
245.456
 20
78.9809
 30
0.0
 11
245.456
 21
64.9799
 31
0.0
  0
LINE
  8
0
 62
     0
 10
245.456
 20
64.9799
 30
0.0
 11
231.457
 21
64.9799
 31
0.0
  0
LINE
  8
0
 62
     0
 10
231.457
 20
64.9799
 30
0.0
 11
231.457
 21
78.9809
 31
0.0
  0
LINE
  8
0
 62
     0
 10
250.507
 20
78.9809
 30
0.0
 11
264.506
 21
78.9809
 31
0.0
  0
LINE
  8
0
 62
     0
 10
264.506
 20
78.9809
 30
0.0
 11
264.506
 21
64.9799
 31
0.0
  0
LINE
  8
0
 62
     0
 10
264.506
 20
64.9799
 30
0.0
 11
250.507
 21
64.9799
 31
0.0
  0
LINE
  8
0
 62
     0
 10
250.507
 20
64.9799
 30
0.0
 11
250.507
 21
78.9809
 31
0.0
  0
LINE
  8
0
 62
     0
 10
269.557
 20
78.9809
 30
0.0
 11
283.556
 21
78.9809
 31
0.0
  0
LINE
  8
0
 62
     0
 10
283.556
 20
78.9809
 30
0.0
 11
283.556
 21
64.9799
 31
0.0
  0
LINE
  8
0
 62
     0
 10
283.556
 20
64.9799
 30
0.0
 11
269.557
 21
64.9799
 31
0.0
  0
LINE
  8
0
 62
     0
 10
269.557
 20
64.9799
 30
0.0
 11
269.557
 21
78.9809
 31
0.0
  0
LINE
  8
0
 62
     0
 10
288.607
 20
78.9809
 30
0.0
 11
302.606
 21
78.9809
 31
0.0
  0
LINE
  8
0
 62
     0
 10
302.606
 20
78.9809
 30
0.0
 11
302.606
 21
64.9799
 31
0.0
  0
LINE
  8
0
 62
     0
 10
302.606
 20
64.9799
 30
0.0
 11
288.607
 21
64.9799
 31
0.0
  0
LINE
  8
0
 62
     0
 10
288.607
 20
64.9799
 30
0.0
 11
288.607
 21
78.9809
 31
0.0
  0
LINE
  8
0
 62
     0
 10
307.657
 20
78.9809
 30
0.0
 11
321.656
 21
78.9809
 31
0.0
  0
LINE
  8
0
 62
     0
 10
321.656
 20
78.9809
 30
0.0
 11
321.656
 21
64.9799
 31
0.0
  0
LINE
  8
0
 62
     0
 10
321.656
 20
64.9799
 30
0.0
 11
307.657
 21
64.9799
 31
0.0
  0
LINE
  8
0
 62
     0
 10
307.657
 20
64.9799
 30
0.0
 11
307.657
 21
78.9809
 31
0.0
  0
LINE
  8
0
 62
     0
 10
326.707
 20
78.9809
 30
0.0
 11
340.706
 21
78.9809
 31
0.0
  0
LINE
  8
0
 62
     0
 10
340.706
 20
78.9809
 30
0.0
 11
340.706
 21
64.9799
 31
0.0
  0
LINE
  8
0
 62
     0
 10
340.706
 20
64.9799
 30
0.0
 11
326.707
 21
64.9799
 31
0.0
  0
LINE
  8
0
 62
     0
 10
326.707
 20
64.9799
 30
0.0
 11
326.707
 21
78.9809
 31
0.0
  0
LINE
  8
0
 62
     0
 10
350.519
 20
78.9809
 30
0.0
 11
364.522
 21
78.9809
 31
0.0
  0
LINE
  8
0
 62
     0
 10
364.522
 20
78.9809
 30
0.0
 11
364.522
 21
64.9799
 31
0.0
  0
LINE
  8
0
 62
     0
 10
364.522
 20
64.9799
 30
0.0
 11
350.519
 21
64.9799
 31
0.0
  0
LINE
  8
0
 62
     0
 10
350.519
 20
64.9799
 30
0.0
 11
350.519
 21
78.9809
 31
0.0
  0
LINE
  8
0
 62
     0
 10
379.095
 20
78.9809
 30
0.0
 11
393.097
 21
78.9809
 31
0.0
  0
LINE
  8
0
 62
     0
 10
393.097
 20
78.9809
 30
0.0
 11
393.097
 21
64.9799
 31
0.0
  0
LINE
  8
0
 62
     0
 10
393.097
 20
64.9799
 30
0.0
 11
379.095
 21
64.9799
 31
0.0
  0
LINE
  8
0
 62
     0
 10
379.095
 20
64.9799
 30
0.0
 11
379.095
 21
78.9809
 31
0.0
  0
LINE
  8
0
 62
     0
 10
398.145
 20
78.9809
 30
0.0
 11
412.147
 21
78.9809
 31
0.0
  0
LINE
  8
0
 62
     0
 10
412.147
 20
78.9809
 30
0.0
 11
412.147
 21
64.9799
 31
0.0
  0
LINE
  8
0
 62
     0
 10
412.147
 20
64.9799
 30
0.0
 11
398.145
 21
64.9799
 31
0.0
  0
LINE
  8
0
 62
     0
 10
398.145
 20
64.9799
 30
0.0
 11
398.145
 21
78.9809
 31
0.0
  0
LINE
  8
0
 62
     0
 10
417.195
 20
78.9809
 30
0.0
 11
431.197
 21
78.9809
 31
0.0
  0
LINE
  8
0
 62
     0
 10
431.197
 20
78.9809
 30
0.0
 11
431.197
 21
64.9799
 31
0.0
  0
LINE
  8
0
 62
     0
 10
431.197
 20
64.9799
 30
0.0
 11
417.195
 21
64.9799
 31
0.0
  0
LINE
  8
0
 62
     0
 10
417.195
 20
64.9799
 30
0.0
 11
417.195
 21
78.9809
 31
0.0
  0
LINE
  8
0
 62
     0
 10
345.757
 20
98.0309
 30
0.0
 11
345.757
 21
93.3305
 31
0.0
  0
LINE
  8
0
 62
     0
 10
345.757
 20
93.3305
 30
0.0
 11
344.231
 21
93.3305
 31
0.0
  0
LINE
  8
0
 62
     0
 10
344.231
 20
93.3305
 30
0.0
 11
344.231
 21
96.5606
 31
0.0
  0
LINE
  8
0
 62
     0
 10
344.231
 20
96.5606
 30
0.0
 11
337.482
 21
96.5606
 31
0.0
  0
LINE
  8
0
 62
     0
 10
337.482
 20
96.5606
 30
0.0
 11
337.482
 21
93.3305
 31
0.0
  0
LINE
  8
0
 62
     0
 10
337.482
 20
93.3305
 30
0.0
 11
336.656
 21
93.3305
 31
0.0
  0
LINE
  8
0
 62
     0
 10
336.656
 20
93.3305
 30
0.0
 11
336.656
 21
90.5302
 31
0.0
  0
LINE
  8
0
 62
     0
 10
336.656
 20
90.5302
 30
0.0
 11
337.482
 21
90.5302
 31
0.0
  0
LINE
  8
0
 62
     0
 10
337.482
 20
90.5302
 30
0.0
 11
337.482
 21
84.2603
 31
0.0
  0
LINE
  8
0
 62
     0
 10
337.482
 20
84.2603
 30
0.0
 11
339.207
 21
84.2603
 31
0.0
  0
LINE
  8
0
 62
     0
 10
339.207
 20
84.2603
 30
0.0
 11
339.207
 21
83.0598
 31
0.0
  0
LINE
  8
0
 62
     0
 10
339.207
 20
83.0598
 30
0.0
 11
342.506
 21
83.0598
 31
0.0
  0
LINE
  8
0
 62
     0
 10
342.506
 20
83.0598
 30
0.0
 11
342.506
 21
84.2603
 31
0.0
  0
LINE
  8
0
 62
     0
 10
342.506
 20
84.2603
 30
0.0
 11
344.231
 21
84.2603
 31
0.0
  0
LINE
  8
0
 62
     0
 10
344.231
 20
84.2603
 30
0.0
 11
344.231
 21
88.7307
 31
0.0
  0
LINE
  8
0
 62
     0
 10
344.231
 20
88.7307
 30
0.0
 11
345.757
 21
88.7307
 31
0.0
  0
LINE
  8
0
 62
     0
 10
345.757
 20
88.7307
 30
0.0
 11
345.757
 21
84.0299
 31
0.0
  0
LINE
  8
0
 62
     0
 10
345.757
 20
84.0299
 30
0.0
 11
359.756
 21
84.0299
 31
0.0
  0
LINE
  8
0
 62
     0
 10
359.756
 20
84.0299
 30
0.0
 11
359.756
 21
88.7307
 31
0.0
  0
LINE
  8
0
 62
     0
 10
359.756
 20
88.7307
 30
0.0
 11
361.283
 21
88.7307
 31
0.0
  0
LINE
  8
0
 62
     0
 10
361.283
 20
88.7307
 30
0.0
 11
361.283
 21
84.2603
 31
0.0
  0
LINE
  8
0
 62
     0
 10
361.283
 20
84.2603
 30
0.0
 11
363.008
 21
84.2603
 31
0.0
  0
LINE
  8
0
 62
     0
 10
363.008
 20
84.2603
 30
0.0
 11
363.008
 21
83.0598
 31
0.0
  0
LINE
  8
0
 62
     0
 10
363.008
 20
83.0598
 30
0.0
 11
366.307
 21
83.0598
 31
0.0
  0
LINE
  8
0
 62
     0
 10
366.307
 20
83.0598
 30
0.0
 11
366.307
 21
84.2603
 31
0.0
  0
LINE
  8
0
 62
     0
 10
366.307
 20
84.2603
 30
0.0
 11
368.032
 21
84.2603
 31
0.0
  0
LINE
  8
0
 62
     0
 10
368.032
 20
84.2603
 30
0.0
 11
368.032
 21
90.5302
 31
0.0
  0
LINE
  8
0
 62
     0
 10
368.032
 20
90.5302
 30
0.0
 11
368.857
 21
90.5302
 31
0.0
  0
LINE
  8
0
 62
     0
 10
368.857
 20
90.5302
 30
0.0
 11
368.857
 21
93.3305
 31
0.0
  0
LINE
  8
0
 62
     0
 10
368.857
 20
93.3305
 30
0.0
 11
368.032
 21
93.3305
 31
0.0
  0
LINE
  8
0
 62
     0
 10
368.032
 20
93.3305
 30
0.0
 11
368.032
 21
96.5606
 31
0.0
  0
LINE
  8
0
 62
     0
 10
368.032
 20
96.5606
 30
0.0
 11
361.283
 21
96.5606
 31
0.0
  0
LINE
  8
0
 62
     0
 10
361.283
 20
96.5606
 30
0.0
 11
361.283
 21
93.3305
 31
0.0
  0
LINE
  8
0
 62
     0
 10
361.283
 20
93.3305
 30
0.0
 11
359.756
 21
93.3305
 31
0.0
  0
LINE
  8
0
 62
     0
 10
359.756
 20
93.3305
 30
0.0
 11
359.756
 21
98.0309
 31
0.0
  0
LINE
  8
0
 62
     0
 10
359.756
 20
98.0309
 30
0.0
 11
345.757
 21
98.0309
 31
0.0
  0
LINE
  8
0
 62
     0
 10
7.61919
 20
98.0309
 30
0.0
 11
21.6201
 21
98.0309
 31
0.0
  0
LINE
  8
0
 62
     0
 10
21.6201
 20
98.0309
 30
0.0
 11
21.6201
 21
84.0299
 31
0.0
  0
LINE
  8
0
 62
     0
 10
21.6201
 20
84.0299
 30
0.0
 11
7.61919
 21
84.0299
 31
0.0
  0
LINE
  8
0
 62
     0
 10
7.61919
 20
84.0299
 30
0.0
 11
7.61919
 21
98.0309
 31
0.0
  0
LINE
  8
0
 62
     0
 10
26.6692
 20
98.0309
 30
0.0
 11
40.67
 21
98.0309
 31
0.0
  0
LINE
  8
0
 62
     0
 10
40.67
 20
98.0309
 30
0.0
 11
40.67
 21
84.0299
 31
0.0
  0
LINE
  8
0
 62
     0
 10
40.67
 20
84.0299
 30
0.0
 11
26.6692
 21
84.0299
 31
0.0
  0
LINE
  8
0
 62
     0
 10
26.6692
 20
84.0299
 30
0.0
 11
26.6692
 21
98.0309
 31
0.0
  0
LINE
  8
0
 62
     0
 10
45.7193
 20
98.0309
 30
0.0
 11
59.72
 21
98.0309
 31
0.0
  0
LINE
  8
0
 62
     0
 10
59.72
 20
98.0309
 30
0.0
 11
59.72
 21
84.0299
 31
0.0
  0
LINE
  8
0
 62
     0
 10
59.72
 20
84.0299
 30
0.0
 11
45.7193
 21
84.0299
 31
0.0
  0
LINE
  8
0
 62
     0
 10
45.7193
 20
84.0299
 30
0.0
 11
45.7193
 21
98.0309
 31
0.0
  0
LINE
  8
0
 62
     0
 10
64.7693
 20
98.0309
 30
0.0
 11
78.77
 21
98.0309
 31
0.0
  0
LINE
  8
0
 62
     0
 10
78.77
 20
98.0309
 30
0.0
 11
78.77
 21
84.0299
 31
0.0
  0
LINE
  8
0
 62
     0
 10
78.77
 20
84.0299
 30
0.0
 11
64.7693
 21
84.0299
 31
0.0
  0
LINE
  8
0
 62
     0
 10
64.7693
 20
84.0299
 30
0.0
 11
64.7693
 21
98.0309
 31
0.0
  0
LINE
  8
0
 62
     0
 10
88.5818
 20
98.0309
 30
0.0
 11
102.581
 21
98.0309
 31
0.0
  0
LINE
  8
0
 62
     0
 10
102.581
 20
98.0309
 30
0.0
 11
102.581
 21
84.0299
 31
0.0
  0
LINE
  8
0
 62
     0
 10
102.581
 20
84.0299
 30
0.0
 11
88.5818
 21
84.0299
 31
0.0
  0
LINE
  8
0
 62
     0
 10
88.5818
 20
84.0299
 30
0.0
 11
88.5818
 21
98.0309
 31
0.0
  0
LINE
  8
0
 62
     0
 10
107.632
 20
98.0309
 30
0.0
 11
121.631
 21
98.0309
 31
0.0
  0
LINE
  8
0
 62
     0
 10
121.631
 20
98.0309
 30
0.0
 11
121.631
 21
84.0299
 31
0.0
  0
LINE
  8
0
 62
     0
 10
121.631
 20
84.0299
 30
0.0
 11
107.632
 21
84.0299
 31
0.0
  0
LINE
  8
0
 62
     0
 10
107.632
 20
84.0299
 30
0.0
 11
107.632
 21
98.0309
 31
0.0
  0
LINE
  8
0
 62
     0
 10
126.682
 20
98.0309
 30
0.0
 11
140.681
 21
98.0309
 31
0.0
  0
LINE
  8
0
 62
     0
 10
140.681
 20
98.0309
 30
0.0
 11
140.681
 21
84.0299
 31
0.0
  0
LINE
  8
0
 62
     0
 10
140.681
 20
84.0299
 30
0.0
 11
126.682
 21
84.0299
 31
0.0
  0
LINE
  8
0
 62
     0
 10
126.682
 20
84.0299
 30
0.0
 11
126.682
 21
98.0309
 31
0.0
  0
LINE
  8
0
 62
     0
 10
145.732
 20
98.0309
 30
0.0
 11
159.731
 21
98.0309
 31
0.0
  0
LINE
  8
0
 62
     0
 10
159.731
 20
98.0309
 30
0.0
 11
159.731
 21
84.0299
 31
0.0
  0
LINE
  8
0
 62
     0
 10
159.731
 20
84.0299
 30
0.0
 11
145.732
 21
84.0299
 31
0.0
  0
LINE
  8
0
 62
     0
 10
145.732
 20
84.0299
 30
0.0
 11
145.732
 21
98.0309
 31
0.0
  0
LINE
  8
0
 62
     0
 10
164.782
 20
98.0309
 30
0.0
 11
178.781
 21
98.0309
 31
0.0
  0
LINE
  8
0
 62
     0
 10
178.781
 20
98.0309
 30
0.0
 11
178.781
 21
84.0299
 31
0.0
  0
LINE
  8
0
 62
     0
 10
178.781
 20
84.0299
 30
0.0
 11
164.782
 21
84.0299
 31
0.0
  0
LINE
  8
0
 62
     0
 10
164.782
 20
84.0299
 30
0.0
 11
164.782
 21
98.0309
 31
0.0
  0
LINE
  8
0
 62
     0
 10
183.832
 20
98.0309
 30
0.0
 11
197.831
 21
98.0309
 31
0.0
  0
LINE
  8
0
 62
     0
 10
197.831
 20
98.0309
 30
0.0
 11
197.831
 21
84.0299
 31
0.0
  0
LINE
  8
0
 62
     0
 10
197.831
 20
84.0299
 30
0.0
 11
183.832
 21
84.0299
 31
0.0
  0
LINE
  8
0
 62
     0
 10
183.832
 20
84.0299
 30
0.0
 11
183.832
 21
98.0309
 31
0.0
  0
LINE
  8
0
 62
     0
 10
202.882
 20
98.0309
 30
0.0
 11
216.881
 21
98.0309
 31
0.0
  0
LINE
  8
0
 62
     0
 10
216.881
 20
98.0309
 30
0.0
 11
216.881
 21
84.0299
 31
0.0
  0
LINE
  8
0
 62
     0
 10
216.881
 20
84.0299
 30
0.0
 11
202.882
 21
84.0299
 31
0.0
  0
LINE
  8
0
 62
     0
 10
202.882
 20
84.0299
 30
0.0
 11
202.882
 21
98.0309
 31
0.0
  0
LINE
  8
0
 62
     0
 10
221.932
 20
98.0309
 30
0.0
 11
235.931
 21
98.0309
 31
0.0
  0
LINE
  8
0
 62
     0
 10
235.931
 20
98.0309
 30
0.0
 11
235.931
 21
84.0299
 31
0.0
  0
LINE
  8
0
 62
     0
 10
235.931
 20
84.0299
 30
0.0
 11
221.932
 21
84.0299
 31
0.0
  0
LINE
  8
0
 62
     0
 10
221.932
 20
84.0299
 30
0.0
 11
221.932
 21
98.0309
 31
0.0
  0
LINE
  8
0
 62
     0
 10
240.982
 20
98.0309
 30
0.0
 11
254.981
 21
98.0309
 31
0.0
  0
LINE
  8
0
 62
     0
 10
254.981
 20
98.0309
 30
0.0
 11
254.981
 21
84.0299
 31
0.0
  0
LINE
  8
0
 62
     0
 10
254.981
 20
84.0299
 30
0.0
 11
240.982
 21
84.0299
 31
0.0
  0
LINE
  8
0
 62
     0
 10
240.982
 20
84.0299
 30
0.0
 11
240.982
 21
98.0309
 31
0.0
  0
LINE
  8
0
 62
     0
 10
260.032
 20
98.0309
 30
0.0
 11
274.031
 21
98.0309
 31
0.0
  0
LINE
  8
0
 62
     0
 10
274.031
 20
98.0309
 30
0.0
 11
274.031
 21
84.0299
 31
0.0
  0
LINE
  8
0
 62
     0
 10
274.031
 20
84.0299
 30
0.0
 11
260.032
 21
84.0299
 31
0.0
  0
LINE
  8
0
 62
     0
 10
260.032
 20
84.0299
 30
0.0
 11
260.032
 21
98.0309
 31
0.0
  0
LINE
  8
0
 62
     0
 10
279.082
 20
98.0309
 30
0.0
 11
293.081
 21
98.0309
 31
0.0
  0
LINE
  8
0
 62
     0
 10
293.081
 20
98.0309
 30
0.0
 11
293.081
 21
84.0299
 31
0.0
  0
LINE
  8
0
 62
     0
 10
293.081
 20
84.0299
 30
0.0
 11
279.082
 21
84.0299
 31
0.0
  0
LINE
  8
0
 62
     0
 10
279.082
 20
84.0299
 30
0.0
 11
279.082
 21
98.0309
 31
0.0
  0
LINE
  8
0
 62
     0
 10
298.132
 20
98.0309
 30
0.0
 11
312.131
 21
98.0309
 31
0.0
  0
LINE
  8
0
 62
     0
 10
312.131
 20
98.0309
 30
0.0
 11
312.131
 21
84.0299
 31
0.0
  0
LINE
  8
0
 62
     0
 10
312.131
 20
84.0299
 30
0.0
 11
298.132
 21
84.0299
 31
0.0
  0
LINE
  8
0
 62
     0
 10
298.132
 20
84.0299
 30
0.0
 11
298.132
 21
98.0309
 31
0.0
  0
LINE
  8
0
 62
     0
 10
317.182
 20
98.0309
 30
0.0
 11
331.181
 21
98.0309
 31
0.0
  0
LINE
  8
0
 62
     0
 10
331.181
 20
98.0309
 30
0.0
 11
331.181
 21
84.0299
 31
0.0
  0
LINE
  8
0
 62
     0
 10
331.181
 20
84.0299
 30
0.0
 11
317.182
 21
84.0299
 31
0.0
  0
LINE
  8
0
 62
     0
 10
317.182
 20
84.0299
 30
0.0
 11
317.182
 21
98.0309
 31
0.0
  0
LINE
  8
0
 62
     0
 10
379.095
 20
98.0309
 30
0.0
 11
393.097
 21
98.0309
 31
0.0
  0
LINE
  8
0
 62
     0
 10
393.097
 20
98.0309
 30
0.0
 11
393.097
 21
84.0299
 31
0.0
  0
LINE
  8
0
 62
     0
 10
393.097
 20
84.0299
 30
0.0
 11
379.095
 21
84.0299
 31
0.0
  0
LINE
  8
0
 62
     0
 10
379.095
 20
84.0299
 30
0.0
 11
379.095
 21
98.0309
 31
0.0
  0
LINE
  8
0
 62
     0
 10
398.145
 20
98.0309
 30
0.0
 11
412.147
 21
98.0309
 31
0.0
  0
LINE
  8
0
 62
     0
 10
412.147
 20
98.0309
 30
0.0
 11
412.147
 21
84.0299
 31
0.0
  0
LINE
  8
0
 62
     0
 10
412.147
 20
84.0299
 30
0.0
 11
398.145
 21
84.0299
 31
0.0
  0
LINE
  8
0
 62
     0
 10
398.145
 20
84.0299
 30
0.0
 11
398.145
 21
98.0309
 31
0.0
  0
LINE
  8
0
 62
     0
 10
417.195
 20
98.0309
 30
0.0
 11
431.197
 21
98.0309
 31
0.0
  0
LINE
  8
0
 62
     0
 10
431.197
 20
98.0309
 30
0.0
 11
431.197
 21
84.0299
 31
0.0
  0
LINE
  8
0
 62
     0
 10
431.197
 20
84.0299
 30
0.0
 11
417.195
 21
84.0299
 31
0.0
  0
LINE
  8
0
 62
     0
 10
417.195
 20
84.0299
 30
0.0
 11
417.195
 21
98.0309
 31
0.0
  0
LINE
  8
0
 62
     0
 10
17.1442
 20
126.606
 30
0.0
 11
31.1451
 21
126.606
 31
0.0
  0
LINE
  8
0
 62
     0
 10
31.1451
 20
126.606
 30
0.0
 11
31.1451
 21
112.605
 31
0.0
  0
LINE
  8
0
 62
     0
 10
31.1451
 20
112.605
 30
0.0
 11
17.1442
 21
112.605
 31
0.0
  0
LINE
  8
0
 62
     0
 10
17.1442
 20
112.605
 30
0.0
 11
17.1442
 21
126.606
 31
0.0
  0
LINE
  8
0
 62
     0
 10
36.1943
 20
126.606
 30
0.0
 11
50.1936
 21
126.606
 31
0.0
  0
LINE
  8
0
 62
     0
 10
50.1936
 20
126.606
 30
0.0
 11
50.1936
 21
112.605
 31
0.0
  0
LINE
  8
0
 62
     0
 10
50.1936
 20
112.605
 30
0.0
 11
36.1943
 21
112.605
 31
0.0
  0
LINE
  8
0
 62
     0
 10
36.1943
 20
112.605
 30
0.0
 11
36.1943
 21
126.606
 31
0.0
  0
LINE
  8
0
 62
     0
 10
55.2443
 20
126.606
 30
0.0
 11
69.2436
 21
126.606
 31
0.0
  0
LINE
  8
0
 62
     0
 10
69.2436
 20
126.606
 30
0.0
 11
69.2436
 21
112.605
 31
0.0
  0
LINE
  8
0
 62
     0
 10
69.2436
 20
112.605
 30
0.0
 11
55.2443
 21
112.605
 31
0.0
  0
LINE
  8
0
 62
     0
 10
55.2443
 20
112.605
 30
0.0
 11
55.2443
 21
126.606
 31
0.0
  0
LINE
  8
0
 62
     0
 10
88.5818
 20
126.606
 30
0.0
 11
102.581
 21
126.606
 31
0.0
  0
LINE
  8
0
 62
     0
 10
102.581
 20
126.606
 30
0.0
 11
102.581
 21
112.605
 31
0.0
  0
LINE
  8
0
 62
     0
 10
102.581
 20
112.605
 30
0.0
 11
88.5818
 21
112.605
 31
0.0
  0
LINE
  8
0
 62
     0
 10
88.5818
 20
112.605
 30
0.0
 11
88.5818
 21
126.606
 31
0.0
  0
LINE
  8
0
 62
     0
 10
126.682
 20
126.606
 30
0.0
 11
140.681
 21
126.606
 31
0.0
  0
LINE
  8
0
 62
     0
 10
140.681
 20
126.606
 30
0.0
 11
140.681
 21
112.605
 31
0.0
  0
LINE
  8
0
 62
     0
 10
140.681
 20
112.605
 30
0.0
 11
126.682
 21
112.605
 31
0.0
  0
LINE
  8
0
 62
     0
 10
126.682
 20
112.605
 30
0.0
 11
126.682
 21
126.606
 31
0.0
  0
LINE
  8
0
 62
     0
 10
145.732
 20
126.606
 30
0.0
 11
159.731
 21
126.606
 31
0.0
  0
LINE
  8
0
 62
     0
 10
159.731
 20
126.606
 30
0.0
 11
159.731
 21
112.605
 31
0.0
  0
LINE
  8
0
 62
     0
 10
159.731
 20
112.605
 30
0.0
 11
145.732
 21
112.605
 31
0.0
  0
LINE
  8
0
 62
     0
 10
145.732
 20
112.605
 30
0.0
 11
145.732
 21
126.606
 31
0.0
  0
LINE
  8
0
 62
     0
 10
164.782
 20
126.606
 30
0.0
 11
178.781
 21
126.606
 31
0.0
  0
LINE
  8
0
 62
     0
 10
178.781
 20
126.606
 30
0.0
 11
178.781
 21
112.605
 31
0.0
  0
LINE
  8
0
 62
     0
 10
178.781
 20
112.605
 30
0.0
 11
164.782
 21
112.605
 31
0.0
  0
LINE
  8
0
 62
     0
 10
164.782
 20
112.605
 30
0.0
 11
164.782
 21
126.606
 31
0.0
  0
LINE
  8
0
 62
     0
 10
183.832
 20
126.606
 30
0.0
 11
197.831
 21
126.606
 31
0.0
  0
LINE
  8
0
 62
     0
 10
197.831
 20
126.606
 30
0.0
 11
197.831
 21
112.605
 31
0.0
  0
LINE
  8
0
 62
     0
 10
197.831
 20
112.605
 30
0.0
 11
183.832
 21
112.605
 31
0.0
  0
LINE
  8
0
 62
     0
 10
183.832
 20
112.605
 30
0.0
 11
183.832
 21
126.606
 31
0.0
  0
LINE
  8
0
 62
     0
 10
212.407
 20
126.606
 30
0.0
 11
226.406
 21
126.606
 31
0.0
  0
LINE
  8
0
 62
     0
 10
226.406
 20
126.606
 30
0.0
 11
226.406
 21
112.605
 31
0.0
  0
LINE
  8
0
 62
     0
 10
226.406
 20
112.605
 30
0.0
 11
212.407
 21
112.605
 31
0.0
  0
LINE
  8
0
 62
     0
 10
212.407
 20
112.605
 30
0.0
 11
212.407
 21
126.606
 31
0.0
  0
LINE
  8
0
 62
     0
 10
231.457
 20
126.606
 30
0.0
 11
245.456
 21
126.606
 31
0.0
  0
LINE
  8
0
 62
     0
 10
245.456
 20
126.606
 30
0.0
 11
245.456
 21
112.605
 31
0.0
  0
LINE
  8
0
 62
     0
 10
245.456
 20
112.605
 30
0.0
 11
231.457
 21
112.605
 31
0.0
  0
LINE
  8
0
 62
     0
 10
231.457
 20
112.605
 30
0.0
 11
231.457
 21
126.606
 31
0.0
  0
LINE
  8
0
 62
     0
 10
250.507
 20
126.606
 30
0.0
 11
264.506
 21
126.606
 31
0.0
  0
LINE
  8
0
 62
     0
 10
264.506
 20
126.606
 30
0.0
 11
264.506
 21
112.605
 31
0.0
  0
LINE
  8
0
 62
     0
 10
264.506
 20
112.605
 30
0.0
 11
250.507
 21
112.605
 31
0.0
  0
LINE
  8
0
 62
     0
 10
250.507
 20
112.605
 30
0.0
 11
250.507
 21
126.606
 31
0.0
  0
LINE
  8
0
 62
     0
 10
269.557
 20
126.606
 30
0.0
 11
283.556
 21
126.606
 31
0.0
  0
LINE
  8
0
 62
     0
 10
283.556
 20
126.606
 30
0.0
 11
283.556
 21
112.605
 31
0.0
  0
LINE
  8
0
 62
     0
 10
283.556
 20
112.605
 30
0.0
 11
269.557
 21
112.605
 31
0.0
  0
LINE
  8
0
 62
     0
 10
269.557
 20
112.605
 30
0.0
 11
269.557
 21
126.606
 31
0.0
  0
LINE
  8
0
 62
     0
 10
298.132
 20
126.606
 30
0.0
 11
312.131
 21
126.606
 31
0.0
  0
LINE
  8
0
 62
     0
 10
312.131
 20
126.606
 30
0.0
 11
312.131
 21
112.605
 31
0.0
  0
LINE
  8
0
 62
     0
 10
312.131
 20
112.605
 30
0.0
 11
298.132
 21
112.605
 31
0.0
  0
LINE
  8
0
 62
     0
 10
298.132
 20
112.605
 30
0.0
 11
298.132
 21
126.606
 31
0.0
  0
LINE
  8
0
 62
     0
 10
317.182
 20
126.606
 30
0.0
 11
331.181
 21
126.606
 31
0.0
  0
LINE
  8
0
 62
     0
 10
331.181
 20
126.606
 30
0.0
 11
331.181
 21
112.605
 31
0.0
  0
LINE
  8
0
 62
     0
 10
331.181
 20
112.605
 30
0.0
 11
317.182
 21
112.605
 31
0.0
  0
LINE
  8
0
 62
     0
 10
317.182
 20
112.605
 30
0.0
 11
317.182
 21
126.606
 31
0.0
  0
LINE
  8
0
 62
     0
 10
336.232
 20
126.606
 30
0.0
 11
350.231
 21
126.606
 31
0.0
  0
LINE
  8
0
 62
     0
 10
350.231
 20
126.606
 30
0.0
 11
350.231
 21
112.605
 31
0.0
  0
LINE
  8
0
 62
     0
 10
350.231
 20
112.605
 30
0.0
 11
336.232
 21
112.605
 31
0.0
  0
LINE
  8
0
 62
     0
 10
336.232
 20
112.605
 30
0.0
 11
336.232
 21
126.606
 31
0.0
  0
LINE
  8
0
 62
     0
 10
355.282
 20
126.606
 30
0.0
 11
369.281
 21
126.606
 31
0.0
  0
LINE
  8
0
 62
     0
 10
369.281
 20
126.606
 30
0.0
 11
369.281
 21
112.605
 31
0.0
  0
LINE
  8
0
 62
     0
 10
369.281
 20
112.605
 30
0.0
 11
355.282
 21
112.605
 31
0.0
  0
LINE
  8
0
 62
     0
 10
355.282
 20
112.605
 30
0.0
 11
355.282
 21
126.606
 31
0.0
  0
LINE
  8
0
 62
     0
 10
379.095
 20
126.606
 30
0.0
 11
393.097
 21
126.606
 31
0.0
  0
LINE
  8
0
 62
     0
 10
393.097
 20
126.606
 30
0.0
 11
393.097
 21
112.605
 31
0.0
  0
LINE
  8
0
 62
     0
 10
393.097
 20
112.605
 30
0.0
 11
379.095
 21
112.605
 31
0.0
  0
LINE
  8
0
 62
     0
 10
379.095
 20
112.605
 30
0.0
 11
379.095
 21
126.606
 31
0.0
  0
LINE
  8
0
 62
     0
 10
398.145
 20
126.606
 30
0.0
 11
412.147
 21
126.606
 31
0.0
  0
LINE
  8
0
 62
     0
 10
412.147
 20
126.606
 30
0.0
 11
412.147
 21
112.605
 31
0.0
  0
LINE
  8
0
 62
     0
 10
412.147
 20
112.605
 30
0.0
 11
398.145
 21
112.605
 31
0.0
  0
LINE
  8
0
 62
     0
 10
398.145
 20
112.605
 30
0.0
 11
398.145
 21
126.606
 31
0.0
  0
LINE
  8
0
 62
     0
 10
417.195
 20
126.606
 30
0.0
 11
431.197
 21
126.606
 31
0.0
  0
LINE
  8
0
 62
     0
 10
431.197
 20
126.606
 30
0.0
 11
431.197
 21
112.605
 31
0.0
  0
LINE
  8
0
 62
     0
 10
431.197
 20
112.605
 30
0.0
 11
417.195
 21
112.605
 31
0.0
  0
LINE
  8
0
 62
     0
 10
417.195
 20
112.605
 30
0.0
 11
417.195
 21
126.606
 31
0.0
  0
LINE
  8
0
 62
     0
 10
55.2443
 20
145.656
 30
0.0
 11
69.245
 21
145.656
 31
0.0
  0
LINE
  8
0
 62
     0
 10
69.245
 20
145.656
 30
0.0
 11
69.245
 21
131.655
 31
0.0
  0
LINE
  8
0
 62
     0
 10
69.245
 20
131.655
 30
0.0
 11
55.2443
 21
131.655
 31
0.0
  0
LINE
  8
0
 62
     0
 10
55.2443
 20
131.655
 30
0.0
 11
55.2443
 21
145.656
 31
0.0
  0
LINE
  8
0
 62
     0
 10
88.5818
 20
145.656
 30
0.0
 11
102.581
 21
145.656
 31
0.0
  0
LINE
  8
0
 62
     0
 10
102.581
 20
145.656
 30
0.0
 11
102.581
 21
131.655
 31
0.0
  0
LINE
  8
0
 62
     0
 10
102.581
 20
131.655
 30
0.0
 11
88.5818
 21
131.655
 31
0.0
  0
LINE
  8
0
 62
     0
 10
88.5818
 20
131.655
 30
0.0
 11
88.5818
 21
145.656
 31
0.0
  0
LINE
  8
0
 62
     0
 10
126.682
 20
145.656
 30
0.0
 11
140.681
 21
145.656
 31
0.0
  0
LINE
  8
0
 62
     0
 10
140.681
 20
145.656
 30
0.0
 11
140.681
 21
131.655
 31
0.0
  0
LINE
  8
0
 62
     0
 10
140.681
 20
131.655
 30
0.0
 11
126.682
 21
131.655
 31
0.0
  0
LINE
  8
0
 62
     0
 10
126.682
 20
131.655
 30
0.0
 11
126.682
 21
145.656
 31
0.0
  0
LINE
  8
0
 62
     0
 10
145.732
 20
145.656
 30
0.0
 11
159.731
 21
145.656
 31
0.0
  0
LINE
  8
0
 62
     0
 10
159.731
 20
145.656
 30
0.0
 11
159.731
 21
131.655
 31
0.0
  0
LINE
  8
0
 62
     0
 10
159.731
 20
131.655
 30
0.0
 11
145.732
 21
131.655
 31
0.0
  0
LINE
  8
0
 62
     0
 10
145.732
 20
131.655
 30
0.0
 11
145.732
 21
145.656
 31
0.0
  0
LINE
  8
0
 62
     0
 10
164.782
 20
145.656
 30
0.0
 11
178.781
 21
145.656
 31
0.0
  0
LINE
  8
0
 62
     0
 10
178.781
 20
145.656
 30
0.0
 11
178.781
 21
131.655
 31
0.0
  0
LINE
  8
0
 62
     0
 10
178.781
 20
131.655
 30
0.0
 11
164.782
 21
131.655
 31
0.0
  0
LINE
  8
0
 62
     0
 10
164.782
 20
131.655
 30
0.0
 11
164.782
 21
145.656
 31
0.0
  0
LINE
  8
0
 62
     0
 10
183.832
 20
145.656
 30
0.0
 11
197.831
 21
145.656
 31
0.0
  0
LINE
  8
0
 62
     0
 10
197.831
 20
145.656
 30
0.0
 11
197.831
 21
131.655
 31
0.0
  0
LINE
  8
0
 62
     0
 10
197.831
 20
131.655
 30
0.0
 11
183.832
 21
131.655
 31
0.0
  0
LINE
  8
0
 62
     0
 10
183.832
 20
131.655
 30
0.0
 11
183.832
 21
145.656
 31
0.0
  0
LINE
  8
0
 62
     0
 10
212.407
 20
145.656
 30
0.0
 11
226.406
 21
145.656
 31
0.0
  0
LINE
  8
0
 62
     0
 10
226.406
 20
145.656
 30
0.0
 11
226.406
 21
131.655
 31
0.0
  0
LINE
  8
0
 62
     0
 10
226.406
 20
131.655
 30
0.0
 11
212.407
 21
131.655
 31
0.0
  0
LINE
  8
0
 62
     0
 10
212.407
 20
131.655
 30
0.0
 11
212.407
 21
145.656
 31
0.0
  0
LINE
  8
0
 62
     0
 10
231.457
 20
145.656
 30
0.0
 11
245.456
 21
145.656
 31
0.0
  0
LINE
  8
0
 62
     0
 10
245.456
 20
145.656
 30
0.0
 11
245.456
 21
131.655
 31
0.0
  0
LINE
  8
0
 62
     0
 10
245.456
 20
131.655
 30
0.0
 11
231.457
 21
131.655
 31
0.0
  0
LINE
  8
0
 62
     0
 10
231.457
 20
131.655
 30
0.0
 11
231.457
 21
145.656
 31
0.0
  0
LINE
  8
0
 62
     0
 10
250.507
 20
145.656
 30
0.0
 11
264.506
 21
145.656
 31
0.0
  0
LINE
  8
0
 62
     0
 10
264.506
 20
145.656
 30
0.0
 11
264.506
 21
131.655
 31
0.0
  0
LINE
  8
0
 62
     0
 10
264.506
 20
131.655
 30
0.0
 11
250.507
 21
131.655
 31
0.0
  0
LINE
  8
0
 62
     0
 10
250.507
 20
131.655
 30
0.0
 11
250.507
 21
145.656
 31
0.0
  0
LINE
  8
0
 62
     0
 10
269.557
 20
145.656
 30
0.0
 11
283.556
 21
145.656
 31
0.0
  0
LINE
  8
0
 62
     0
 10
283.556
 20
145.656
 30
0.0
 11
283.556
 21
131.655
 31
0.0
  0
LINE
  8
0
 62
     0
 10
283.556
 20
131.655
 30
0.0
 11
269.557
 21
131.655
 31
0.0
  0
LINE
  8
0
 62
     0
 10
269.557
 20
131.655
 30
0.0
 11
269.557
 21
145.656
 31
0.0
  0
LINE
  8
0
 62
     0
 10
298.132
 20
145.656
 30
0.0
 11
312.131
 21
145.656
 31
0.0
  0
LINE
  8
0
 62
     0
 10
312.131
 20
145.656
 30
0.0
 11
312.131
 21
131.655
 31
0.0
  0
LINE
  8
0
 62
     0
 10
312.131
 20
131.655
 30
0.0
 11
298.132
 21
131.655
 31
0.0
  0
LINE
  8
0
 62
     0
 10
298.132
 20
131.655
 30
0.0
 11
298.132
 21
145.656
 31
0.0
  0
LINE
  8
0
 62
     0
 10
317.182
 20
145.656
 30
0.0
 11
331.181
 21
145.656
 31
0.0
  0
LINE
  8
0
 62
     0
 10
331.181
 20
145.656
 30
0.0
 11
331.181
 21
131.655
 31
0.0
  0
LINE
  8
0
 62
     0
 10
331.181
 20
131.655
 30
0.0
 11
317.182
 21
131.655
 31
0.0
  0
LINE
  8
0
 62
     0
 10
317.182
 20
131.655
 30
0.0
 11
317.182
 21
145.656
 31
0.0
  0
LINE
  8
0
 62
     0
 10
336.232
 20
145.656
 30
0.0
 11
350.231
 21
145.656
 31
0.0
  0
LINE
  8
0
 62
     0
 10
350.231
 20
145.656
 30
0.0
 11
350.231
 21
131.655
 31
0.0
  0
LINE
  8
0
 62
     0
 10
350.231
 20
131.655
 30
0.0
 11
336.232
 21
131.655
 31
0.0
  0
LINE
  8
0
 62
     0
 10
336.232
 20
131.655
 30
0.0
 11
336.232
 21
145.656
 31
0.0
  0
LINE
  8
0
 62
     0
 10
355.282
 20
145.656
 30
0.0
 11
369.281
 21
145.656
 31
0.0
  0
LINE
  8
0
 62
     0
 10
369.281
 20
145.656
 30
0.0
 11
369.281
 21
131.655
 31
0.0
  0
LINE
  8
0
 62
     0
 10
369.281
 20
131.655
 30
0.0
 11
355.282
 21
131.655
 31
0.0
  0
LINE
  8
0
 62
     0
 10
355.282
 20
131.655
 30
0.0
 11
355.282
 21
145.656
 31
0.0
  0
ENDSEC
  0
EOF
