  0
SECTION
  2
HEADER
  9
$ACADVER
  1
AC1009
  9
$FILLMODE
 70
 0
  9
$SPLFRAME
 70
 1
  9
$EXTMIN
 10
0
 20
0
 30
0.0
  9
$EXTMAX
 10
1058.33
 20
1058.33
 30
0.0
  0
ENDSEC
  0
SECTION
  2
TABLES
  0
TABLE
  2
LAYER
 70
1
  0
LAYER
  2
0
 70
     0
 62
     7
  6
CONTINUOUS
  0
ENDTAB
  0
ENDSEC
  0
SECTION
  2
ENTITIES
  0
LINE
  8
0
 62
     0
 10
0.0950846
 20
167.121
 30
0.0
 11
438.732
 21
167.121
 31
0.0
  0
LINE
  8
0
 62
     0
 10
438.732
 20
167.121
 30
0.0
 11
438.732
 21
0.234267
 31
0.0
  0
LINE
  8
0
 62
     0
 10
438.732
 20
0.234267
 30
0.0
 11
0.0950846
 21
0.234267
 31
0.0
  0
LINE
  8
0
 62
     0
 10
0.0950846
 20
0.234267
 30
0.0
 11
0.0950846
 21
167.121
 31
0.0
  0
LINE
  8
0
 62
     0
 10
17.1566
 20
21.5663
 30
0.0
 11
17.1566
 21
16.8658
 31
0.0
  0
LINE
  8
0
 62
     0
 10
17.1566
 20
16.8658
 30
0.0
 11
15.62
 21
16.8658
 31
0.0
  0
LINE
  8
0
 62
     0
 10
15.62
 20
16.8658
 30
0.0
 11
15.62
 21
20.0959
 31
0.0
  0
LINE
  8
0
 62
     0
 10
15.62
 20
20.0959
 30
0.0
 11
13.8934
 21
20.0959
 31
0.0
  0
LINE
  8
0
 62
     0
 10
13.8934
 20
20.0959
 30
0.0
 11
13.8934
 21
21.0165
 31
0.0
  0
LINE
  8
0
 62
     0
 10
13.8934
 20
21.0165
 30
0.0
 11
10.6068
 21
21.0165
 31
0.0
  0
LINE
  8
0
 62
     0
 10
10.6068
 20
21.0165
 30
0.0
 11
10.6068
 21
20.0959
 31
0.0
  0
LINE
  8
0
 62
     0
 10
10.6068
 20
20.0959
 30
0.0
 11
8.88146
 21
20.0959
 31
0.0
  0
LINE
  8
0
 62
     0
 10
8.88146
 20
20.0959
 30
0.0
 11
8.88146
 21
16.8658
 31
0.0
  0
LINE
  8
0
 62
     0
 10
8.88146
 20
16.8658
 30
0.0
 11
8.056
 21
16.8658
 31
0.0
  0
LINE
  8
0
 62
     0
 10
8.056
 20
16.8658
 30
0.0
 11
8.056
 21
14.0781
 31
0.0
  0
LINE
  8
0
 62
     0
 10
8.056
 20
14.0781
 30
0.0
 11
8.88146
 21
14.0781
 31
0.0
  0
LINE
  8
0
 62
     0
 10
8.88146
 20
14.0781
 30
0.0
 11
8.88146
 21
7.80796
 31
0.0
  0
LINE
  8
0
 62
     0
 10
8.88146
 20
7.80796
 30
0.0
 11
10.6068
 21
7.80796
 31
0.0
  0
LINE
  8
0
 62
     0
 10
10.6068
 20
7.80796
 30
0.0
 11
10.6068
 21
6.82819
 31
0.0
  0
LINE
  8
0
 62
     0
 10
10.6068
 20
6.82819
 30
0.0
 11
13.8934
 21
6.82819
 31
0.0
  0
LINE
  8
0
 62
     0
 10
13.8934
 20
6.82819
 30
0.0
 11
13.8934
 21
7.80796
 31
0.0
  0
LINE
  8
0
 62
     0
 10
13.8934
 20
7.80796
 30
0.0
 11
15.62
 21
7.80796
 31
0.0
  0
LINE
  8
0
 62
     0
 10
15.62
 20
7.80796
 30
0.0
 11
15.62
 21
12.2783
 31
0.0
  0
LINE
  8
0
 62
     0
 10
15.62
 20
12.2783
 30
0.0
 11
17.1566
 21
12.2783
 31
0.0
  0
LINE
  8
0
 62
     0
 10
17.1566
 20
12.2783
 30
0.0
 11
17.1566
 21
7.57784
 31
0.0
  0
LINE
  8
0
 62
     0
 10
17.1566
 20
7.57784
 30
0.0
 11
31.1451
 21
7.57784
 31
0.0
  0
LINE
  8
0
 62
     0
 10
31.1451
 20
7.57784
 30
0.0
 11
31.1451
 21
12.2783
 31
0.0
  0
LINE
  8
0
 62
     0
 10
31.1451
 20
12.2783
 30
0.0
 11
32.6815
 21
12.2783
 31
0.0
  0
LINE
  8
0
 62
     0
 10
32.6815
 20
12.2783
 30
0.0
 11
32.6815
 21
7.80796
 31
0.0
  0
LINE
  8
0
 62
     0
 10
32.6815
 20
7.80796
 30
0.0
 11
34.4069
 21
7.80796
 31
0.0
  0
LINE
  8
0
 62
     0
 10
34.4069
 20
7.80796
 30
0.0
 11
34.4069
 21
6.82819
 31
0.0
  0
LINE
  8
0
 62
     0
 10
34.4069
 20
6.82819
 30
0.0
 11
37.695
 21
6.82819
 31
0.0
  0
LINE
  8
0
 62
     0
 10
37.695
 20
6.82819
 30
0.0
 11
37.695
 21
7.80796
 31
0.0
  0
LINE
  8
0
 62
     0
 10
37.695
 20
7.80796
 30
0.0
 11
39.4201
 21
7.80796
 31
0.0
  0
LINE
  8
0
 62
     0
 10
39.4201
 20
7.80796
 30
0.0
 11
39.4201
 21
14.0781
 31
0.0
  0
LINE
  8
0
 62
     0
 10
39.4201
 20
14.0781
 30
0.0
 11
40.2442
 21
14.0781
 31
0.0
  0
LINE
  8
0
 62
     0
 10
40.2442
 20
14.0781
 30
0.0
 11
40.2442
 21
16.8658
 31
0.0
  0
LINE
  8
0
 62
     0
 10
40.2442
 20
16.8658
 30
0.0
 11
39.4201
 21
16.8658
 31
0.0
  0
LINE
  8
0
 62
     0
 10
39.4201
 20
16.8658
 30
0.0
 11
39.4201
 21
20.0959
 31
0.0
  0
LINE
  8
0
 62
     0
 10
39.4201
 20
20.0959
 30
0.0
 11
37.695
 21
20.0959
 31
0.0
  0
LINE
  8
0
 62
     0
 10
37.695
 20
20.0959
 30
0.0
 11
37.695
 21
21.0165
 31
0.0
  0
LINE
  8
0
 62
     0
 10
37.695
 20
21.0165
 30
0.0
 11
34.4069
 21
21.0165
 31
0.0
  0
LINE
  8
0
 62
     0
 10
34.4069
 20
21.0165
 30
0.0
 11
34.4069
 21
20.0959
 31
0.0
  0
LINE
  8
0
 62
     0
 10
34.4069
 20
20.0959
 30
0.0
 11
32.6815
 21
20.0959
 31
0.0
  0
LINE
  8
0
 62
     0
 10
32.6815
 20
20.0959
 30
0.0
 11
32.6815
 21
16.8658
 31
0.0
  0
LINE
  8
0
 62
     0
 10
32.6815
 20
16.8658
 30
0.0
 11
31.1451
 21
16.8658
 31
0.0
  0
LINE
  8
0
 62
     0
 10
31.1451
 20
16.8658
 30
0.0
 11
31.1451
 21
21.5663
 31
0.0
  0
LINE
  8
0
 62
     0
 10
31.1451
 20
21.5663
 30
0.0
 11
17.1566
 21
21.5663
 31
0.0
  0
LINE
  8
0
 62
     0
 10
210.038
 20
21.5663
 30
0.0
 11
210.038
 21
16.8658
 31
0.0
  0
LINE
  8
0
 62
     0
 10
210.038
 20
16.8658
 30
0.0
 11
170.4
 21
16.8658
 31
0.0
  0
LINE
  8
0
 62
     0
 10
170.4
 20
16.8658
 30
0.0
 11
170.4
 21
20.0959
 31
0.0
  0
LINE
  8
0
 62
     0
 10
170.4
 20
20.0959
 30
0.0
 11
168.676
 21
20.0959
 31
0.0
  0
LINE
  8
0
 62
     0
 10
168.676
 20
20.0959
 30
0.0
 11
168.676
 21
21.0165
 31
0.0
  0
LINE
  8
0
 62
     0
 10
168.676
 20
21.0165
 30
0.0
 11
165.388
 21
21.0165
 31
0.0
  0
LINE
  8
0
 62
     0
 10
165.388
 20
21.0165
 30
0.0
 11
165.388
 21
20.0959
 31
0.0
  0
LINE
  8
0
 62
     0
 10
165.388
 20
20.0959
 30
0.0
 11
163.663
 21
20.0959
 31
0.0
  0
LINE
  8
0
 62
     0
 10
163.663
 20
20.0959
 30
0.0
 11
163.663
 21
16.8658
 31
0.0
  0
LINE
  8
0
 62
     0
 10
163.663
 20
16.8658
 30
0.0
 11
162.837
 21
16.8658
 31
0.0
  0
LINE
  8
0
 62
     0
 10
162.837
 20
16.8658
 30
0.0
 11
162.837
 21
14.0781
 31
0.0
  0
LINE
  8
0
 62
     0
 10
162.837
 20
14.0781
 30
0.0
 11
163.663
 21
14.0781
 31
0.0
  0
LINE
  8
0
 62
     0
 10
163.663
 20
14.0781
 30
0.0
 11
163.663
 21
7.80796
 31
0.0
  0
LINE
  8
0
 62
     0
 10
163.663
 20
7.80796
 30
0.0
 11
165.388
 21
7.80796
 31
0.0
  0
LINE
  8
0
 62
     0
 10
165.388
 20
7.80796
 30
0.0
 11
165.388
 21
6.82819
 31
0.0
  0
LINE
  8
0
 62
     0
 10
165.388
 20
6.82819
 30
0.0
 11
168.676
 21
6.82819
 31
0.0
  0
LINE
  8
0
 62
     0
 10
168.676
 20
6.82819
 30
0.0
 11
168.676
 21
7.80796
 31
0.0
  0
LINE
  8
0
 62
     0
 10
168.676
 20
7.80796
 30
0.0
 11
170.4
 21
7.80796
 31
0.0
  0
LINE
  8
0
 62
     0
 10
170.4
 20
7.80796
 30
0.0
 11
170.4
 21
12.2783
 31
0.0
  0
LINE
  8
0
 62
     0
 10
170.4
 20
12.2783
 30
0.0
 11
210.038
 21
12.2783
 31
0.0
  0
LINE
  8
0
 62
     0
 10
210.038
 20
12.2783
 30
0.0
 11
210.038
 21
7.57784
 31
0.0
  0
LINE
  8
0
 62
     0
 10
210.038
 20
7.57784
 30
0.0
 11
224.025
 21
7.57784
 31
0.0
  0
LINE
  8
0
 62
     0
 10
224.025
 20
7.57784
 30
0.0
 11
224.025
 21
12.2783
 31
0.0
  0
LINE
  8
0
 62
     0
 10
224.025
 20
12.2783
 30
0.0
 11
263.663
 21
12.2783
 31
0.0
  0
LINE
  8
0
 62
     0
 10
263.663
 20
12.2783
 30
0.0
 11
263.663
 21
7.80796
 31
0.0
  0
LINE
  8
0
 62
     0
 10
263.663
 20
7.80796
 30
0.0
 11
265.388
 21
7.80796
 31
0.0
  0
LINE
  8
0
 62
     0
 10
265.388
 20
7.80796
 30
0.0
 11
265.388
 21
6.82819
 31
0.0
  0
LINE
  8
0
 62
     0
 10
265.388
 20
6.82819
 30
0.0
 11
268.676
 21
6.82819
 31
0.0
  0
LINE
  8
0
 62
     0
 10
268.676
 20
6.82819
 30
0.0
 11
268.676
 21
7.80796
 31
0.0
  0
LINE
  8
0
 62
     0
 10
268.676
 20
7.80796
 30
0.0
 11
270.4
 21
7.80796
 31
0.0
  0
LINE
  8
0
 62
     0
 10
270.4
 20
7.80796
 30
0.0
 11
270.4
 21
14.0781
 31
0.0
  0
LINE
  8
0
 62
     0
 10
270.4
 20
14.0781
 30
0.0
 11
271.225
 21
14.0781
 31
0.0
  0
LINE
  8
0
 62
     0
 10
271.225
 20
14.0781
 30
0.0
 11
271.225
 21
16.8658
 31
0.0
  0
LINE
  8
0
 62
     0
 10
271.225
 20
16.8658
 30
0.0
 11
270.4
 21
16.8658
 31
0.0
  0
LINE
  8
0
 62
     0
 10
270.4
 20
16.8658
 30
0.0
 11
270.4
 21
20.0959
 31
0.0
  0
LINE
  8
0
 62
     0
 10
270.4
 20
20.0959
 30
0.0
 11
268.676
 21
20.0959
 31
0.0
  0
LINE
  8
0
 62
     0
 10
268.676
 20
20.0959
 30
0.0
 11
268.676
 21
21.0165
 31
0.0
  0
LINE
  8
0
 62
     0
 10
268.676
 20
21.0165
 30
0.0
 11
265.388
 21
21.0165
 31
0.0
  0
LINE
  8
0
 62
     0
 10
265.388
 20
21.0165
 30
0.0
 11
265.388
 21
20.0959
 31
0.0
  0
LINE
  8
0
 62
     0
 10
265.388
 20
20.0959
 30
0.0
 11
263.663
 21
20.0959
 31
0.0
  0
LINE
  8
0
 62
     0
 10
263.663
 20
20.0959
 30
0.0
 11
263.663
 21
16.8658
 31
0.0
  0
LINE
  8
0
 62
     0
 10
263.663
 20
16.8658
 30
0.0
 11
224.025
 21
16.8658
 31
0.0
  0
LINE
  8
0
 62
     0
 10
224.025
 20
16.8658
 30
0.0
 11
224.025
 21
21.5663
 31
0.0
  0
LINE
  8
0
 62
     0
 10
224.025
 20
21.5663
 30
0.0
 11
210.038
 21
21.5663
 31
0.0
  0
LINE
  8
0
 62
     0
 10
45.7316
 20
21.5663
 30
0.0
 11
59.72
 21
21.5663
 31
0.0
  0
LINE
  8
0
 62
     0
 10
59.72
 20
21.5663
 30
0.0
 11
59.72
 21
7.57784
 31
0.0
  0
LINE
  8
0
 62
     0
 10
59.72
 20
7.57784
 30
0.0
 11
45.7316
 21
7.57784
 31
0.0
  0
LINE
  8
0
 62
     0
 10
45.7316
 20
7.57784
 30
0.0
 11
45.7316
 21
21.5663
 31
0.0
  0
LINE
  8
0
 62
     0
 10
90.9754
 20
21.5663
 30
0.0
 11
104.962
 21
21.5663
 31
0.0
  0
LINE
  8
0
 62
     0
 10
104.962
 20
21.5663
 30
0.0
 11
104.962
 21
7.57784
 31
0.0
  0
LINE
  8
0
 62
     0
 10
104.962
 20
7.57784
 30
0.0
 11
90.9754
 21
7.57784
 31
0.0
  0
LINE
  8
0
 62
     0
 10
90.9754
 20
7.57784
 30
0.0
 11
90.9754
 21
21.5663
 31
0.0
  0
LINE
  8
0
 62
     0
 10
114.788
 20
21.5663
 30
0.0
 11
128.775
 21
21.5663
 31
0.0
  0
LINE
  8
0
 62
     0
 10
128.775
 20
21.5663
 30
0.0
 11
128.775
 21
7.57784
 31
0.0
  0
LINE
  8
0
 62
     0
 10
128.775
 20
7.57784
 30
0.0
 11
114.788
 21
7.57784
 31
0.0
  0
LINE
  8
0
 62
     0
 10
114.788
 20
7.57784
 30
0.0
 11
114.788
 21
21.5663
 31
0.0
  0
LINE
  8
0
 62
     0
 10
138.6
 20
21.5663
 30
0.0
 11
152.587
 21
21.5663
 31
0.0
  0
LINE
  8
0
 62
     0
 10
152.587
 20
21.5663
 30
0.0
 11
152.587
 21
7.57784
 31
0.0
  0
LINE
  8
0
 62
     0
 10
152.587
 20
7.57784
 30
0.0
 11
138.6
 21
7.57784
 31
0.0
  0
LINE
  8
0
 62
     0
 10
138.6
 20
7.57784
 30
0.0
 11
138.6
 21
21.5663
 31
0.0
  0
LINE
  8
0
 62
     0
 10
281.475
 20
21.5663
 30
0.0
 11
295.462
 21
21.5663
 31
0.0
  0
LINE
  8
0
 62
     0
 10
295.462
 20
21.5663
 30
0.0
 11
295.462
 21
7.57784
 31
0.0
  0
LINE
  8
0
 62
     0
 10
295.462
 20
7.57784
 30
0.0
 11
281.475
 21
7.57784
 31
0.0
  0
LINE
  8
0
 62
     0
 10
281.475
 20
7.57784
 30
0.0
 11
281.475
 21
21.5663
 31
0.0
  0
LINE
  8
0
 62
     0
 10
305.288
 20
21.5663
 30
0.0
 11
319.275
 21
21.5663
 31
0.0
  0
LINE
  8
0
 62
     0
 10
319.275
 20
21.5663
 30
0.0
 11
319.275
 21
7.57784
 31
0.0
  0
LINE
  8
0
 62
     0
 10
319.275
 20
7.57784
 30
0.0
 11
305.288
 21
7.57784
 31
0.0
  0
LINE
  8
0
 62
     0
 10
305.288
 20
7.57784
 30
0.0
 11
305.288
 21
21.5663
 31
0.0
  0
LINE
  8
0
 62
     0
 10
329.1
 20
21.5663
 30
0.0
 11
343.087
 21
21.5663
 31
0.0
  0
LINE
  8
0
 62
     0
 10
343.087
 20
21.5663
 30
0.0
 11
343.087
 21
7.57784
 31
0.0
  0
LINE
  8
0
 62
     0
 10
343.087
 20
7.57784
 30
0.0
 11
329.1
 21
7.57784
 31
0.0
  0
LINE
  8
0
 62
     0
 10
329.1
 20
7.57784
 30
0.0
 11
329.1
 21
21.5663
 31
0.0
  0
LINE
  8
0
 62
     0
 10
352.912
 20
21.5663
 30
0.0
 11
366.899
 21
21.5663
 31
0.0
  0
LINE
  8
0
 62
     0
 10
366.899
 20
21.5663
 30
0.0
 11
366.899
 21
7.57784
 31
0.0
  0
LINE
  8
0
 62
     0
 10
366.899
 20
7.57784
 30
0.0
 11
352.912
 21
7.57784
 31
0.0
  0
LINE
  8
0
 62
     0
 10
352.912
 20
7.57784
 30
0.0
 11
352.912
 21
21.5663
 31
0.0
  0
LINE
  8
0
 62
     0
 10
379.106
 20
21.5663
 30
0.0
 11
393.097
 21
21.5663
 31
0.0
  0
LINE
  8
0
 62
     0
 10
393.097
 20
21.5663
 30
0.0
 11
393.097
 21
7.57784
 31
0.0
  0
LINE
  8
0
 62
     0
 10
393.097
 20
7.57784
 30
0.0
 11
379.106
 21
7.57784
 31
0.0
  0
LINE
  8
0
 62
     0
 10
379.106
 20
7.57784
 30
0.0
 11
379.106
 21
21.5663
 31
0.0
  0
LINE
  8
0
 62
     0
 10
398.156
 20
21.5663
 30
0.0
 11
412.147
 21
21.5663
 31
0.0
  0
LINE
  8
0
 62
     0
 10
412.147
 20
21.5663
 30
0.0
 11
412.147
 21
7.57784
 31
0.0
  0
LINE
  8
0
 62
     0
 10
412.147
 20
7.57784
 30
0.0
 11
398.156
 21
7.57784
 31
0.0
  0
LINE
  8
0
 62
     0
 10
398.156
 20
7.57784
 30
0.0
 11
398.156
 21
21.5663
 31
0.0
  0
LINE
  8
0
 62
     0
 10
417.206
 20
21.5663
 30
0.0
 11
431.197
 21
21.5663
 31
0.0
  0
LINE
  8
0
 62
     0
 10
431.197
 20
21.5663
 30
0.0
 11
431.197
 21
7.57784
 31
0.0
  0
LINE
  8
0
 62
     0
 10
431.197
 20
7.57784
 30
0.0
 11
417.206
 21
7.57784
 31
0.0
  0
LINE
  8
0
 62
     0
 10
417.206
 20
7.57784
 30
0.0
 11
417.206
 21
21.5663
 31
0.0
  0
LINE
  8
0
 62
     0
 10
71.2819
 20
40.192
 30
0.0
 11
71.2819
 21
39.3665
 31
0.0
  0
LINE
  8
0
 62
     0
 10
71.2819
 20
39.3665
 30
0.0
 11
65.0117
 21
39.3665
 31
0.0
  0
LINE
  8
0
 62
     0
 10
65.0117
 20
39.3665
 30
0.0
 11
65.0117
 21
37.641
 31
0.0
  0
LINE
  8
0
 62
     0
 10
65.0117
 20
37.641
 30
0.0
 11
64.032
 21
37.641
 31
0.0
  0
LINE
  8
0
 62
     0
 10
64.032
 20
37.641
 30
0.0
 11
64.032
 21
34.3531
 31
0.0
  0
LINE
  8
0
 62
     0
 10
64.032
 20
34.3531
 30
0.0
 11
65.0117
 21
34.3531
 31
0.0
  0
LINE
  8
0
 62
     0
 10
65.0117
 20
34.3531
 30
0.0
 11
65.0117
 21
32.6278
 31
0.0
  0
LINE
  8
0
 62
     0
 10
65.0117
 20
32.6278
 30
0.0
 11
69.4821
 21
32.6278
 31
0.0
  0
LINE
  8
0
 62
     0
 10
69.4821
 20
32.6278
 30
0.0
 11
69.4821
 21
31.0913
 31
0.0
  0
LINE
  8
0
 62
     0
 10
69.4821
 20
31.0913
 30
0.0
 11
64.7816
 21
31.0913
 31
0.0
  0
LINE
  8
0
 62
     0
 10
64.7816
 20
31.0913
 30
0.0
 11
64.7816
 21
17.1028
 31
0.0
  0
LINE
  8
0
 62
     0
 10
64.7816
 20
17.1028
 30
0.0
 11
69.4821
 21
17.1028
 31
0.0
  0
LINE
  8
0
 62
     0
 10
69.4821
 20
17.1028
 30
0.0
 11
69.4821
 21
15.5663
 31
0.0
  0
LINE
  8
0
 62
     0
 10
69.4821
 20
15.5663
 30
0.0
 11
65.0117
 21
15.5663
 31
0.0
  0
LINE
  8
0
 62
     0
 10
65.0117
 20
15.5663
 30
0.0
 11
65.0117
 21
13.841
 31
0.0
  0
LINE
  8
0
 62
     0
 10
65.0117
 20
13.841
 30
0.0
 11
64.032
 21
13.841
 31
0.0
  0
LINE
  8
0
 62
     0
 10
64.032
 20
13.841
 30
0.0
 11
64.032
 21
10.553
 31
0.0
  0
LINE
  8
0
 62
     0
 10
64.032
 20
10.553
 30
0.0
 11
65.0117
 21
10.553
 31
0.0
  0
LINE
  8
0
 62
     0
 10
65.0117
 20
10.553
 30
0.0
 11
65.0117
 21
8.8277
 31
0.0
  0
LINE
  8
0
 62
     0
 10
65.0117
 20
8.8277
 30
0.0
 11
71.2819
 21
8.8277
 31
0.0
  0
LINE
  8
0
 62
     0
 10
71.2819
 20
8.8277
 30
0.0
 11
71.2819
 21
8.00365
 31
0.0
  0
LINE
  8
0
 62
     0
 10
71.2819
 20
8.00365
 30
0.0
 11
74.0696
 21
8.00365
 31
0.0
  0
LINE
  8
0
 62
     0
 10
74.0696
 20
8.00365
 30
0.0
 11
74.0696
 21
8.8277
 31
0.0
  0
LINE
  8
0
 62
     0
 10
74.0696
 20
8.8277
 30
0.0
 11
77.2996
 21
8.8277
 31
0.0
  0
LINE
  8
0
 62
     0
 10
77.2996
 20
8.8277
 30
0.0
 11
77.2996
 21
10.553
 31
0.0
  0
LINE
  8
0
 62
     0
 10
77.2996
 20
10.553
 30
0.0
 11
78.219
 21
10.553
 31
0.0
  0
LINE
  8
0
 62
     0
 10
78.219
 20
10.553
 30
0.0
 11
78.219
 21
13.841
 31
0.0
  0
LINE
  8
0
 62
     0
 10
78.219
 20
13.841
 30
0.0
 11
77.2996
 21
13.841
 31
0.0
  0
LINE
  8
0
 62
     0
 10
77.2996
 20
13.841
 30
0.0
 11
77.2996
 21
15.5663
 31
0.0
  0
LINE
  8
0
 62
     0
 10
77.2996
 20
15.5663
 30
0.0
 11
74.0696
 21
15.5663
 31
0.0
  0
LINE
  8
0
 62
     0
 10
74.0696
 20
15.5663
 30
0.0
 11
74.0696
 21
17.1028
 31
0.0
  0
LINE
  8
0
 62
     0
 10
74.0696
 20
17.1028
 30
0.0
 11
78.77
 21
17.1028
 31
0.0
  0
LINE
  8
0
 62
     0
 10
78.77
 20
17.1028
 30
0.0
 11
78.77
 21
31.0913
 31
0.0
  0
LINE
  8
0
 62
     0
 10
78.77
 20
31.0913
 30
0.0
 11
74.0696
 21
31.0913
 31
0.0
  0
LINE
  8
0
 62
     0
 10
74.0696
 20
31.0913
 30
0.0
 11
74.0696
 21
32.6278
 31
0.0
  0
LINE
  8
0
 62
     0
 10
74.0696
 20
32.6278
 30
0.0
 11
77.2982
 21
32.6278
 31
0.0
  0
LINE
  8
0
 62
     0
 10
77.2982
 20
32.6278
 30
0.0
 11
77.2982
 21
34.3531
 31
0.0
  0
LINE
  8
0
 62
     0
 10
77.2982
 20
34.3531
 30
0.0
 11
78.219
 21
34.3531
 31
0.0
  0
LINE
  8
0
 62
     0
 10
78.219
 20
34.3531
 30
0.0
 11
78.219
 21
37.641
 31
0.0
  0
LINE
  8
0
 62
     0
 10
78.219
 20
37.641
 30
0.0
 11
77.2982
 21
37.641
 31
0.0
  0
LINE
  8
0
 62
     0
 10
77.2982
 20
37.641
 30
0.0
 11
77.2982
 21
39.3665
 31
0.0
  0
LINE
  8
0
 62
     0
 10
77.2982
 20
39.3665
 30
0.0
 11
74.0696
 21
39.3665
 31
0.0
  0
LINE
  8
0
 62
     0
 10
74.0696
 20
39.3665
 30
0.0
 11
74.0696
 21
40.192
 31
0.0
  0
LINE
  8
0
 62
     0
 10
74.0696
 20
40.192
 30
0.0
 11
71.2819
 21
40.192
 31
0.0
  0
LINE
  8
0
 62
     0
 10
100.5
 20
40.6164
 30
0.0
 11
100.5
 21
35.916
 31
0.0
  0
LINE
  8
0
 62
     0
 10
100.5
 20
35.916
 30
0.0
 11
98.9623
 21
35.916
 31
0.0
  0
LINE
  8
0
 62
     0
 10
98.9623
 20
35.916
 30
0.0
 11
98.9623
 21
39.146
 31
0.0
  0
LINE
  8
0
 62
     0
 10
98.9623
 20
39.146
 30
0.0
 11
97.2372
 21
39.146
 31
0.0
  0
LINE
  8
0
 62
     0
 10
97.2372
 20
39.146
 30
0.0
 11
97.2372
 21
40.0664
 31
0.0
  0
LINE
  8
0
 62
     0
 10
97.2372
 20
40.0664
 30
0.0
 11
93.9504
 21
40.0664
 31
0.0
  0
LINE
  8
0
 62
     0
 10
93.9504
 20
40.0664
 30
0.0
 11
93.9504
 21
39.146
 31
0.0
  0
LINE
  8
0
 62
     0
 10
93.9504
 20
39.146
 30
0.0
 11
92.2253
 21
39.146
 31
0.0
  0
LINE
  8
0
 62
     0
 10
92.2253
 20
39.146
 30
0.0
 11
92.2253
 21
35.916
 31
0.0
  0
LINE
  8
0
 62
     0
 10
92.2253
 20
35.916
 30
0.0
 11
91.4012
 21
35.916
 31
0.0
  0
LINE
  8
0
 62
     0
 10
91.4012
 20
35.916
 30
0.0
 11
91.4012
 21
33.1281
 31
0.0
  0
LINE
  8
0
 62
     0
 10
91.4012
 20
33.1281
 30
0.0
 11
92.2253
 21
33.1281
 31
0.0
  0
LINE
  8
0
 62
     0
 10
92.2253
 20
33.1281
 30
0.0
 11
92.2253
 21
26.8593
 31
0.0
  0
LINE
  8
0
 62
     0
 10
92.2253
 20
26.8593
 30
0.0
 11
93.9504
 21
26.8593
 31
0.0
  0
LINE
  8
0
 62
     0
 10
93.9504
 20
26.8593
 30
0.0
 11
93.9504
 21
25.8782
 31
0.0
  0
LINE
  8
0
 62
     0
 10
93.9504
 20
25.8782
 30
0.0
 11
97.2372
 21
25.8782
 31
0.0
  0
LINE
  8
0
 62
     0
 10
97.2372
 20
25.8782
 30
0.0
 11
97.2372
 21
26.8593
 31
0.0
  0
LINE
  8
0
 62
     0
 10
97.2372
 20
26.8593
 30
0.0
 11
98.9623
 21
26.8593
 31
0.0
  0
LINE
  8
0
 62
     0
 10
98.9623
 20
26.8593
 30
0.0
 11
98.9623
 21
31.3297
 31
0.0
  0
LINE
  8
0
 62
     0
 10
98.9623
 20
31.3297
 30
0.0
 11
100.5
 21
31.3297
 31
0.0
  0
LINE
  8
0
 62
     0
 10
100.5
 20
31.3297
 30
0.0
 11
100.5
 21
26.6278
 31
0.0
  0
LINE
  8
0
 62
     0
 10
100.5
 20
26.6278
 30
0.0
 11
114.487
 21
26.6278
 31
0.0
  0
LINE
  8
0
 62
     0
 10
114.487
 20
26.6278
 30
0.0
 11
114.487
 21
31.3297
 31
0.0
  0
LINE
  8
0
 62
     0
 10
114.487
 20
31.3297
 30
0.0
 11
116.025
 21
31.3297
 31
0.0
  0
LINE
  8
0
 62
     0
 10
116.025
 20
31.3297
 30
0.0
 11
116.025
 21
26.8593
 31
0.0
  0
LINE
  8
0
 62
     0
 10
116.025
 20
26.8593
 30
0.0
 11
117.751
 21
26.8593
 31
0.0
  0
LINE
  8
0
 62
     0
 10
117.751
 20
26.8593
 30
0.0
 11
117.751
 21
25.8782
 31
0.0
  0
LINE
  8
0
 62
     0
 10
117.751
 20
25.8782
 30
0.0
 11
121.037
 21
25.8782
 31
0.0
  0
LINE
  8
0
 62
     0
 10
121.037
 20
25.8782
 30
0.0
 11
121.037
 21
26.8593
 31
0.0
  0
LINE
  8
0
 62
     0
 10
121.037
 20
26.8593
 30
0.0
 11
122.762
 21
26.8593
 31
0.0
  0
LINE
  8
0
 62
     0
 10
122.762
 20
26.8593
 30
0.0
 11
122.762
 21
33.1281
 31
0.0
  0
LINE
  8
0
 62
     0
 10
122.762
 20
33.1281
 30
0.0
 11
123.588
 21
33.1281
 31
0.0
  0
LINE
  8
0
 62
     0
 10
123.588
 20
33.1281
 30
0.0
 11
123.588
 21
35.916
 31
0.0
  0
LINE
  8
0
 62
     0
 10
123.588
 20
35.916
 30
0.0
 11
122.762
 21
35.916
 31
0.0
  0
LINE
  8
0
 62
     0
 10
122.762
 20
35.916
 30
0.0
 11
122.762
 21
39.146
 31
0.0
  0
LINE
  8
0
 62
     0
 10
122.762
 20
39.146
 30
0.0
 11
121.037
 21
39.146
 31
0.0
  0
LINE
  8
0
 62
     0
 10
121.037
 20
39.146
 30
0.0
 11
121.037
 21
40.0664
 31
0.0
  0
LINE
  8
0
 62
     0
 10
121.037
 20
40.0664
 30
0.0
 11
117.751
 21
40.0664
 31
0.0
  0
LINE
  8
0
 62
     0
 10
117.751
 20
40.0664
 30
0.0
 11
117.751
 21
39.146
 31
0.0
  0
LINE
  8
0
 62
     0
 10
117.751
 20
39.146
 30
0.0
 11
116.025
 21
39.146
 31
0.0
  0
LINE
  8
0
 62
     0
 10
116.025
 20
39.146
 30
0.0
 11
116.025
 21
35.916
 31
0.0
  0
LINE
  8
0
 62
     0
 10
116.025
 20
35.916
 30
0.0
 11
114.487
 21
35.916
 31
0.0
  0
LINE
  8
0
 62
     0
 10
114.487
 20
35.916
 30
0.0
 11
114.487
 21
40.6164
 31
0.0
  0
LINE
  8
0
 62
     0
 10
114.487
 20
40.6164
 30
0.0
 11
100.5
 21
40.6164
 31
0.0
  0
LINE
  8
0
 62
     0
 10
338.625
 20
40.6164
 30
0.0
 11
338.625
 21
35.916
 31
0.0
  0
LINE
  8
0
 62
     0
 10
338.625
 20
35.916
 30
0.0
 11
337.087
 21
35.916
 31
0.0
  0
LINE
  8
0
 62
     0
 10
337.087
 20
35.916
 30
0.0
 11
337.087
 21
39.146
 31
0.0
  0
LINE
  8
0
 62
     0
 10
337.087
 20
39.146
 30
0.0
 11
335.362
 21
39.146
 31
0.0
  0
LINE
  8
0
 62
     0
 10
335.362
 20
39.146
 30
0.0
 11
335.362
 21
40.0664
 31
0.0
  0
LINE
  8
0
 62
     0
 10
335.362
 20
40.0664
 30
0.0
 11
332.075
 21
40.0664
 31
0.0
  0
LINE
  8
0
 62
     0
 10
332.075
 20
40.0664
 30
0.0
 11
332.075
 21
39.146
 31
0.0
  0
LINE
  8
0
 62
     0
 10
332.075
 20
39.146
 30
0.0
 11
330.35
 21
39.146
 31
0.0
  0
LINE
  8
0
 62
     0
 10
330.35
 20
39.146
 30
0.0
 11
330.35
 21
35.916
 31
0.0
  0
LINE
  8
0
 62
     0
 10
330.35
 20
35.916
 30
0.0
 11
329.526
 21
35.916
 31
0.0
  0
LINE
  8
0
 62
     0
 10
329.526
 20
35.916
 30
0.0
 11
329.526
 21
33.1281
 31
0.0
  0
LINE
  8
0
 62
     0
 10
329.526
 20
33.1281
 30
0.0
 11
330.35
 21
33.1281
 31
0.0
  0
LINE
  8
0
 62
     0
 10
330.35
 20
33.1281
 30
0.0
 11
330.35
 21
26.8593
 31
0.0
  0
LINE
  8
0
 62
     0
 10
330.35
 20
26.8593
 30
0.0
 11
332.075
 21
26.8593
 31
0.0
  0
LINE
  8
0
 62
     0
 10
332.075
 20
26.8593
 30
0.0
 11
332.075
 21
25.8782
 31
0.0
  0
LINE
  8
0
 62
     0
 10
332.075
 20
25.8782
 30
0.0
 11
335.362
 21
25.8782
 31
0.0
  0
LINE
  8
0
 62
     0
 10
335.362
 20
25.8782
 30
0.0
 11
335.362
 21
26.8593
 31
0.0
  0
LINE
  8
0
 62
     0
 10
335.362
 20
26.8593
 30
0.0
 11
337.087
 21
26.8593
 31
0.0
  0
LINE
  8
0
 62
     0
 10
337.087
 20
26.8593
 30
0.0
 11
337.087
 21
31.3297
 31
0.0
  0
LINE
  8
0
 62
     0
 10
337.087
 20
31.3297
 30
0.0
 11
338.625
 21
31.3297
 31
0.0
  0
LINE
  8
0
 62
     0
 10
338.625
 20
31.3297
 30
0.0
 11
338.625
 21
26.6278
 31
0.0
  0
LINE
  8
0
 62
     0
 10
338.625
 20
26.6278
 30
0.0
 11
352.612
 21
26.6278
 31
0.0
  0
LINE
  8
0
 62
     0
 10
352.612
 20
26.6278
 30
0.0
 11
352.612
 21
31.3297
 31
0.0
  0
LINE
  8
0
 62
     0
 10
352.612
 20
31.3297
 30
0.0
 11
354.15
 21
31.3297
 31
0.0
  0
LINE
  8
0
 62
     0
 10
354.15
 20
31.3297
 30
0.0
 11
354.15
 21
26.8593
 31
0.0
  0
LINE
  8
0
 62
     0
 10
354.15
 20
26.8593
 30
0.0
 11
355.875
 21
26.8593
 31
0.0
  0
LINE
  8
0
 62
     0
 10
355.875
 20
26.8593
 30
0.0
 11
355.875
 21
25.8782
 31
0.0
  0
LINE
  8
0
 62
     0
 10
355.875
 20
25.8782
 30
0.0
 11
359.163
 21
25.8782
 31
0.0
  0
LINE
  8
0
 62
     0
 10
359.163
 20
25.8782
 30
0.0
 11
359.163
 21
26.8593
 31
0.0
  0
LINE
  8
0
 62
     0
 10
359.163
 20
26.8593
 30
0.0
 11
360.888
 21
26.8593
 31
0.0
  0
LINE
  8
0
 62
     0
 10
360.888
 20
26.8593
 30
0.0
 11
360.888
 21
33.1281
 31
0.0
  0
LINE
  8
0
 62
     0
 10
360.888
 20
33.1281
 30
0.0
 11
361.714
 21
33.1281
 31
0.0
  0
LINE
  8
0
 62
     0
 10
361.714
 20
33.1281
 30
0.0
 11
361.714
 21
35.916
 31
0.0
  0
LINE
  8
0
 62
     0
 10
361.714
 20
35.916
 30
0.0
 11
360.888
 21
35.916
 31
0.0
  0
LINE
  8
0
 62
     0
 10
360.888
 20
35.916
 30
0.0
 11
360.888
 21
39.146
 31
0.0
  0
LINE
  8
0
 62
     0
 10
360.888
 20
39.146
 30
0.0
 11
359.163
 21
39.146
 31
0.0
  0
LINE
  8
0
 62
     0
 10
359.163
 20
39.146
 30
0.0
 11
359.163
 21
40.0664
 31
0.0
  0
LINE
  8
0
 62
     0
 10
359.163
 20
40.0664
 30
0.0
 11
355.875
 21
40.0664
 31
0.0
  0
LINE
  8
0
 62
     0
 10
355.875
 20
40.0664
 30
0.0
 11
355.875
 21
39.146
 31
0.0
  0
LINE
  8
0
 62
     0
 10
355.875
 20
39.146
 30
0.0
 11
354.15
 21
39.146
 31
0.0
  0
LINE
  8
0
 62
     0
 10
354.15
 20
39.146
 30
0.0
 11
354.15
 21
35.916
 31
0.0
  0
LINE
  8
0
 62
     0
 10
354.15
 20
35.916
 30
0.0
 11
352.612
 21
35.916
 31
0.0
  0
LINE
  8
0
 62
     0
 10
352.612
 20
35.916
 30
0.0
 11
352.612
 21
40.6164
 31
0.0
  0
LINE
  8
0
 62
     0
 10
352.612
 20
40.6164
 30
0.0
 11
338.625
 21
40.6164
 31
0.0
  0
LINE
  8
0
 62
     0
 10
7.63157
 20
40.6164
 30
0.0
 11
21.6201
 21
40.6164
 31
0.0
  0
LINE
  8
0
 62
     0
 10
21.6201
 20
40.6164
 30
0.0
 11
21.6201
 21
26.6278
 31
0.0
  0
LINE
  8
0
 62
     0
 10
21.6201
 20
26.6278
 30
0.0
 11
7.63157
 21
26.6278
 31
0.0
  0
LINE
  8
0
 62
     0
 10
7.63157
 20
26.6278
 30
0.0
 11
7.63157
 21
40.6164
 31
0.0
  0
LINE
  8
0
 62
     0
 10
26.6816
 20
40.6164
 30
0.0
 11
40.6686
 21
40.6164
 31
0.0
  0
LINE
  8
0
 62
     0
 10
40.6686
 20
40.6164
 30
0.0
 11
40.6686
 21
26.6278
 31
0.0
  0
LINE
  8
0
 62
     0
 10
40.6686
 20
26.6278
 30
0.0
 11
26.6816
 21
26.6278
 31
0.0
  0
LINE
  8
0
 62
     0
 10
26.6816
 20
26.6278
 30
0.0
 11
26.6816
 21
40.6164
 31
0.0
  0
LINE
  8
0
 62
     0
 10
45.7316
 20
40.6164
 30
0.0
 11
59.72
 21
40.6164
 31
0.0
  0
LINE
  8
0
 62
     0
 10
59.72
 20
40.6164
 30
0.0
 11
59.72
 21
26.6278
 31
0.0
  0
LINE
  8
0
 62
     0
 10
59.72
 20
26.6278
 30
0.0
 11
45.7316
 21
26.6278
 31
0.0
  0
LINE
  8
0
 62
     0
 10
45.7316
 20
26.6278
 30
0.0
 11
45.7316
 21
40.6164
 31
0.0
  0
LINE
  8
0
 62
     0
 10
131.457
 20
40.6164
 30
0.0
 11
145.445
 21
40.6164
 31
0.0
  0
LINE
  8
0
 62
     0
 10
145.445
 20
40.6164
 30
0.0
 11
145.445
 21
26.6278
 31
0.0
  0
LINE
  8
0
 62
     0
 10
145.445
 20
26.6278
 30
0.0
 11
131.457
 21
26.6278
 31
0.0
  0
LINE
  8
0
 62
     0
 10
131.457
 20
26.6278
 30
0.0
 11
131.457
 21
40.6164
 31
0.0
  0
LINE
  8
0
 62
     0
 10
150.507
 20
40.6164
 30
0.0
 11
164.495
 21
40.6164
 31
0.0
  0
LINE
  8
0
 62
     0
 10
164.495
 20
40.6164
 30
0.0
 11
164.495
 21
26.6278
 31
0.0
  0
LINE
  8
0
 62
     0
 10
164.495
 20
26.6278
 30
0.0
 11
150.507
 21
26.6278
 31
0.0
  0
LINE
  8
0
 62
     0
 10
150.507
 20
26.6278
 30
0.0
 11
150.507
 21
40.6164
 31
0.0
  0
LINE
  8
0
 62
     0
 10
169.557
 20
40.6164
 30
0.0
 11
183.545
 21
40.6164
 31
0.0
  0
LINE
  8
0
 62
     0
 10
183.545
 20
40.6164
 30
0.0
 11
183.545
 21
26.6278
 31
0.0
  0
LINE
  8
0
 62
     0
 10
183.545
 20
26.6278
 30
0.0
 11
169.557
 21
26.6278
 31
0.0
  0
LINE
  8
0
 62
     0
 10
169.557
 20
26.6278
 30
0.0
 11
169.557
 21
40.6164
 31
0.0
  0
LINE
  8
0
 62
     0
 10
188.607
 20
40.6164
 30
0.0
 11
202.595
 21
40.6164
 31
0.0
  0
LINE
  8
0
 62
     0
 10
202.595
 20
40.6164
 30
0.0
 11
202.595
 21
26.6278
 31
0.0
  0
LINE
  8
0
 62
     0
 10
202.595
 20
26.6278
 30
0.0
 11
188.607
 21
26.6278
 31
0.0
  0
LINE
  8
0
 62
     0
 10
188.607
 20
26.6278
 30
0.0
 11
188.607
 21
40.6164
 31
0.0
  0
LINE
  8
0
 62
     0
 10
207.657
 20
40.6164
 30
0.0
 11
221.645
 21
40.6164
 31
0.0
  0
LINE
  8
0
 62
     0
 10
221.645
 20
40.6164
 30
0.0
 11
221.645
 21
26.6278
 31
0.0
  0
LINE
  8
0
 62
     0
 10
221.645
 20
26.6278
 30
0.0
 11
207.657
 21
26.6278
 31
0.0
  0
LINE
  8
0
 62
     0
 10
207.657
 20
26.6278
 30
0.0
 11
207.657
 21
40.6164
 31
0.0
  0
LINE
  8
0
 62
     0
 10
226.707
 20
40.6164
 30
0.0
 11
240.695
 21
40.6164
 31
0.0
  0
LINE
  8
0
 62
     0
 10
240.695
 20
40.6164
 30
0.0
 11
240.695
 21
26.6278
 31
0.0
  0
LINE
  8
0
 62
     0
 10
240.695
 20
26.6278
 30
0.0
 11
226.707
 21
26.6278
 31
0.0
  0
LINE
  8
0
 62
     0
 10
226.707
 20
26.6278
 30
0.0
 11
226.707
 21
40.6164
 31
0.0
  0
LINE
  8
0
 62
     0
 10
245.757
 20
40.6164
 30
0.0
 11
259.745
 21
40.6164
 31
0.0
  0
LINE
  8
0
 62
     0
 10
259.745
 20
40.6164
 30
0.0
 11
259.745
 21
26.6278
 31
0.0
  0
LINE
  8
0
 62
     0
 10
259.745
 20
26.6278
 30
0.0
 11
245.757
 21
26.6278
 31
0.0
  0
LINE
  8
0
 62
     0
 10
245.757
 20
26.6278
 30
0.0
 11
245.757
 21
40.6164
 31
0.0
  0
LINE
  8
0
 62
     0
 10
264.807
 20
40.6164
 30
0.0
 11
278.795
 21
40.6164
 31
0.0
  0
LINE
  8
0
 62
     0
 10
278.795
 20
40.6164
 30
0.0
 11
278.795
 21
26.6278
 31
0.0
  0
LINE
  8
0
 62
     0
 10
278.795
 20
26.6278
 30
0.0
 11
264.807
 21
26.6278
 31
0.0
  0
LINE
  8
0
 62
     0
 10
264.807
 20
26.6278
 30
0.0
 11
264.807
 21
40.6164
 31
0.0
  0
LINE
  8
0
 62
     0
 10
283.857
 20
40.6164
 30
0.0
 11
297.845
 21
40.6164
 31
0.0
  0
LINE
  8
0
 62
     0
 10
297.845
 20
40.6164
 30
0.0
 11
297.845
 21
26.6278
 31
0.0
  0
LINE
  8
0
 62
     0
 10
297.845
 20
26.6278
 30
0.0
 11
283.857
 21
26.6278
 31
0.0
  0
LINE
  8
0
 62
     0
 10
283.857
 20
26.6278
 30
0.0
 11
283.857
 21
40.6164
 31
0.0
  0
LINE
  8
0
 62
     0
 10
302.907
 20
40.6164
 30
0.0
 11
316.895
 21
40.6164
 31
0.0
  0
LINE
  8
0
 62
     0
 10
316.895
 20
40.6164
 30
0.0
 11
316.895
 21
26.6278
 31
0.0
  0
LINE
  8
0
 62
     0
 10
316.895
 20
26.6278
 30
0.0
 11
302.907
 21
26.6278
 31
0.0
  0
LINE
  8
0
 62
     0
 10
302.907
 20
26.6278
 30
0.0
 11
302.907
 21
40.6164
 31
0.0
  0
LINE
  8
0
 62
     0
 10
398.156
 20
40.6164
 30
0.0
 11
412.147
 21
40.6164
 31
0.0
  0
LINE
  8
0
 62
     0
 10
412.147
 20
40.6164
 30
0.0
 11
412.147
 21
26.6278
 31
0.0
  0
LINE
  8
0
 62
     0
 10
412.147
 20
26.6278
 30
0.0
 11
398.156
 21
26.6278
 31
0.0
  0
LINE
  8
0
 62
     0
 10
398.156
 20
26.6278
 30
0.0
 11
398.156
 21
40.6164
 31
0.0
  0
LINE
  8
0
 62
     0
 10
343.388
 20
59.6664
 30
0.0
 11
343.388
 21
54.966
 31
0.0
  0
LINE
  8
0
 62
     0
 10
343.388
 20
54.966
 30
0.0
 11
341.85
 21
54.966
 31
0.0
  0
LINE
  8
0
 62
     0
 10
341.85
 20
54.966
 30
0.0
 11
341.85
 21
58.196
 31
0.0
  0
LINE
  8
0
 62
     0
 10
341.85
 20
58.196
 30
0.0
 11
340.126
 21
58.196
 31
0.0
  0
LINE
  8
0
 62
     0
 10
340.126
 20
58.196
 30
0.0
 11
340.126
 21
59.1164
 31
0.0
  0
LINE
  8
0
 62
     0
 10
340.126
 20
59.1164
 30
0.0
 11
336.838
 21
59.1164
 31
0.0
  0
LINE
  8
0
 62
     0
 10
336.838
 20
59.1164
 30
0.0
 11
336.838
 21
58.196
 31
0.0
  0
LINE
  8
0
 62
     0
 10
336.838
 20
58.196
 30
0.0
 11
335.113
 21
58.196
 31
0.0
  0
LINE
  8
0
 62
     0
 10
335.113
 20
58.196
 30
0.0
 11
335.113
 21
54.966
 31
0.0
  0
LINE
  8
0
 62
     0
 10
335.113
 20
54.966
 30
0.0
 11
334.287
 21
54.966
 31
0.0
  0
LINE
  8
0
 62
     0
 10
334.287
 20
54.966
 30
0.0
 11
334.287
 21
52.178
 31
0.0
  0
LINE
  8
0
 62
     0
 10
334.287
 20
52.178
 30
0.0
 11
335.113
 21
52.178
 31
0.0
  0
LINE
  8
0
 62
     0
 10
335.113
 20
52.178
 30
0.0
 11
335.113
 21
45.908
 31
0.0
  0
LINE
  8
0
 62
     0
 10
335.113
 20
45.908
 30
0.0
 11
336.838
 21
45.908
 31
0.0
  0
LINE
  8
0
 62
     0
 10
336.838
 20
45.908
 30
0.0
 11
336.838
 21
44.928
 31
0.0
  0
LINE
  8
0
 62
     0
 10
336.838
 20
44.928
 30
0.0
 11
340.126
 21
44.928
 31
0.0
  0
LINE
  8
0
 62
     0
 10
340.126
 20
44.928
 30
0.0
 11
340.126
 21
45.908
 31
0.0
  0
LINE
  8
0
 62
     0
 10
340.126
 20
45.908
 30
0.0
 11
341.85
 21
45.908
 31
0.0
  0
LINE
  8
0
 62
     0
 10
341.85
 20
45.908
 30
0.0
 11
341.85
 21
50.3784
 31
0.0
  0
LINE
  8
0
 62
     0
 10
341.85
 20
50.3784
 30
0.0
 11
343.388
 21
50.3784
 31
0.0
  0
LINE
  8
0
 62
     0
 10
343.388
 20
50.3784
 30
0.0
 11
343.388
 21
45.6777
 31
0.0
  0
LINE
  8
0
 62
     0
 10
343.388
 20
45.6777
 30
0.0
 11
357.374
 21
45.6777
 31
0.0
  0
LINE
  8
0
 62
     0
 10
357.374
 20
45.6777
 30
0.0
 11
357.374
 21
50.3784
 31
0.0
  0
LINE
  8
0
 62
     0
 10
357.374
 20
50.3784
 30
0.0
 11
358.913
 21
50.3784
 31
0.0
  0
LINE
  8
0
 62
     0
 10
358.913
 20
50.3784
 30
0.0
 11
358.913
 21
45.908
 31
0.0
  0
LINE
  8
0
 62
     0
 10
358.913
 20
45.908
 30
0.0
 11
360.638
 21
45.908
 31
0.0
  0
LINE
  8
0
 62
     0
 10
360.638
 20
45.908
 30
0.0
 11
360.638
 21
44.928
 31
0.0
  0
LINE
  8
0
 62
     0
 10
360.638
 20
44.928
 30
0.0
 11
363.926
 21
44.928
 31
0.0
  0
LINE
  8
0
 62
     0
 10
363.926
 20
44.928
 30
0.0
 11
363.926
 21
45.908
 31
0.0
  0
LINE
  8
0
 62
     0
 10
363.926
 20
45.908
 30
0.0
 11
365.651
 21
45.908
 31
0.0
  0
LINE
  8
0
 62
     0
 10
365.651
 20
45.908
 30
0.0
 11
365.651
 21
52.178
 31
0.0
  0
LINE
  8
0
 62
     0
 10
365.651
 20
52.178
 30
0.0
 11
366.476
 21
52.178
 31
0.0
  0
LINE
  8
0
 62
     0
 10
366.476
 20
52.178
 30
0.0
 11
366.476
 21
54.966
 31
0.0
  0
LINE
  8
0
 62
     0
 10
366.476
 20
54.966
 30
0.0
 11
365.651
 21
54.966
 31
0.0
  0
LINE
  8
0
 62
     0
 10
365.651
 20
54.966
 30
0.0
 11
365.651
 21
58.196
 31
0.0
  0
LINE
  8
0
 62
     0
 10
365.651
 20
58.196
 30
0.0
 11
363.926
 21
58.196
 31
0.0
  0
LINE
  8
0
 62
     0
 10
363.926
 20
58.196
 30
0.0
 11
363.926
 21
59.1164
 31
0.0
  0
LINE
  8
0
 62
     0
 10
363.926
 20
59.1164
 30
0.0
 11
360.638
 21
59.1164
 31
0.0
  0
LINE
  8
0
 62
     0
 10
360.638
 20
59.1164
 30
0.0
 11
360.638
 21
58.196
 31
0.0
  0
LINE
  8
0
 62
     0
 10
360.638
 20
58.196
 30
0.0
 11
358.913
 21
58.196
 31
0.0
  0
LINE
  8
0
 62
     0
 10
358.913
 20
58.196
 30
0.0
 11
358.913
 21
54.966
 31
0.0
  0
LINE
  8
0
 62
     0
 10
358.913
 20
54.966
 30
0.0
 11
357.374
 21
54.966
 31
0.0
  0
LINE
  8
0
 62
     0
 10
357.374
 20
54.966
 30
0.0
 11
357.374
 21
59.6664
 31
0.0
  0
LINE
  8
0
 62
     0
 10
357.374
 20
59.6664
 30
0.0
 11
343.388
 21
59.6664
 31
0.0
  0
LINE
  8
0
 62
     0
 10
7.63157
 20
59.6664
 30
0.0
 11
21.6201
 21
59.6664
 31
0.0
  0
LINE
  8
0
 62
     0
 10
21.6201
 20
59.6664
 30
0.0
 11
21.6201
 21
45.6777
 31
0.0
  0
LINE
  8
0
 62
     0
 10
21.6201
 20
45.6777
 30
0.0
 11
7.63157
 21
45.6777
 31
0.0
  0
LINE
  8
0
 62
     0
 10
7.63157
 20
45.6777
 30
0.0
 11
7.63157
 21
59.6664
 31
0.0
  0
LINE
  8
0
 62
     0
 10
26.6816
 20
59.6664
 30
0.0
 11
40.6686
 21
59.6664
 31
0.0
  0
LINE
  8
0
 62
     0
 10
40.6686
 20
59.6664
 30
0.0
 11
40.6686
 21
45.6777
 31
0.0
  0
LINE
  8
0
 62
     0
 10
40.6686
 20
45.6777
 30
0.0
 11
26.6816
 21
45.6777
 31
0.0
  0
LINE
  8
0
 62
     0
 10
26.6816
 20
45.6777
 30
0.0
 11
26.6816
 21
59.6664
 31
0.0
  0
LINE
  8
0
 62
     0
 10
45.7316
 20
59.6664
 30
0.0
 11
59.72
 21
59.6664
 31
0.0
  0
LINE
  8
0
 62
     0
 10
59.72
 20
59.6664
 30
0.0
 11
59.72
 21
45.6777
 31
0.0
  0
LINE
  8
0
 62
     0
 10
59.72
 20
45.6777
 30
0.0
 11
45.7316
 21
45.6777
 31
0.0
  0
LINE
  8
0
 62
     0
 10
45.7316
 20
45.6777
 30
0.0
 11
45.7316
 21
59.6664
 31
0.0
  0
LINE
  8
0
 62
     0
 10
95.7379
 20
59.6664
 30
0.0
 11
109.725
 21
59.6664
 31
0.0
  0
LINE
  8
0
 62
     0
 10
109.725
 20
59.6664
 30
0.0
 11
109.725
 21
45.6777
 31
0.0
  0
LINE
  8
0
 62
     0
 10
109.725
 20
45.6777
 30
0.0
 11
95.7379
 21
45.6777
 31
0.0
  0
LINE
  8
0
 62
     0
 10
95.7379
 20
45.6777
 30
0.0
 11
95.7379
 21
59.6664
 31
0.0
  0
LINE
  8
0
 62
     0
 10
121.932
 20
59.6664
 30
0.0
 11
135.92
 21
59.6664
 31
0.0
  0
LINE
  8
0
 62
     0
 10
135.92
 20
59.6664
 30
0.0
 11
135.92
 21
45.6777
 31
0.0
  0
LINE
  8
0
 62
     0
 10
135.92
 20
45.6777
 30
0.0
 11
121.932
 21
45.6777
 31
0.0
  0
LINE
  8
0
 62
     0
 10
121.932
 20
45.6777
 30
0.0
 11
121.932
 21
59.6664
 31
0.0
  0
LINE
  8
0
 62
     0
 10
140.982
 20
59.6664
 30
0.0
 11
154.97
 21
59.6664
 31
0.0
  0
LINE
  8
0
 62
     0
 10
154.97
 20
59.6664
 30
0.0
 11
154.97
 21
45.6777
 31
0.0
  0
LINE
  8
0
 62
     0
 10
154.97
 20
45.6777
 30
0.0
 11
140.982
 21
45.6777
 31
0.0
  0
LINE
  8
0
 62
     0
 10
140.982
 20
45.6777
 30
0.0
 11
140.982
 21
59.6664
 31
0.0
  0
LINE
  8
0
 62
     0
 10
160.032
 20
59.6664
 30
0.0
 11
174.02
 21
59.6664
 31
0.0
  0
LINE
  8
0
 62
     0
 10
174.02
 20
59.6664
 30
0.0
 11
174.02
 21
45.6777
 31
0.0
  0
LINE
  8
0
 62
     0
 10
174.02
 20
45.6777
 30
0.0
 11
160.032
 21
45.6777
 31
0.0
  0
LINE
  8
0
 62
     0
 10
160.032
 20
45.6777
 30
0.0
 11
160.032
 21
59.6664
 31
0.0
  0
LINE
  8
0
 62
     0
 10
179.082
 20
59.6664
 30
0.0
 11
193.07
 21
59.6664
 31
0.0
  0
LINE
  8
0
 62
     0
 10
193.07
 20
59.6664
 30
0.0
 11
193.07
 21
45.6777
 31
0.0
  0
LINE
  8
0
 62
     0
 10
193.07
 20
45.6777
 30
0.0
 11
179.082
 21
45.6777
 31
0.0
  0
LINE
  8
0
 62
     0
 10
179.082
 20
45.6777
 30
0.0
 11
179.082
 21
59.6664
 31
0.0
  0
LINE
  8
0
 62
     0
 10
198.132
 20
59.6664
 30
0.0
 11
212.12
 21
59.6664
 31
0.0
  0
LINE
  8
0
 62
     0
 10
212.12
 20
59.6664
 30
0.0
 11
212.12
 21
45.6777
 31
0.0
  0
LINE
  8
0
 62
     0
 10
212.12
 20
45.6777
 30
0.0
 11
198.132
 21
45.6777
 31
0.0
  0
LINE
  8
0
 62
     0
 10
198.132
 20
45.6777
 30
0.0
 11
198.132
 21
59.6664
 31
0.0
  0
LINE
  8
0
 62
     0
 10
217.182
 20
59.6664
 30
0.0
 11
231.17
 21
59.6664
 31
0.0
  0
LINE
  8
0
 62
     0
 10
231.17
 20
59.6664
 30
0.0
 11
231.17
 21
45.6777
 31
0.0
  0
LINE
  8
0
 62
     0
 10
231.17
 20
45.6777
 30
0.0
 11
217.182
 21
45.6777
 31
0.0
  0
LINE
  8
0
 62
     0
 10
217.182
 20
45.6777
 30
0.0
 11
217.182
 21
59.6664
 31
0.0
  0
LINE
  8
0
 62
     0
 10
236.232
 20
59.6664
 30
0.0
 11
250.22
 21
59.6664
 31
0.0
  0
LINE
  8
0
 62
     0
 10
250.22
 20
59.6664
 30
0.0
 11
250.22
 21
45.6777
 31
0.0
  0
LINE
  8
0
 62
     0
 10
250.22
 20
45.6777
 30
0.0
 11
236.232
 21
45.6777
 31
0.0
  0
LINE
  8
0
 62
     0
 10
236.232
 20
45.6777
 30
0.0
 11
236.232
 21
59.6664
 31
0.0
  0
LINE
  8
0
 62
     0
 10
255.282
 20
59.6664
 30
0.0
 11
269.27
 21
59.6664
 31
0.0
  0
LINE
  8
0
 62
     0
 10
269.27
 20
59.6664
 30
0.0
 11
269.27
 21
45.6777
 31
0.0
  0
LINE
  8
0
 62
     0
 10
269.27
 20
45.6777
 30
0.0
 11
255.282
 21
45.6777
 31
0.0
  0
LINE
  8
0
 62
     0
 10
255.282
 20
45.6777
 30
0.0
 11
255.282
 21
59.6664
 31
0.0
  0
LINE
  8
0
 62
     0
 10
274.332
 20
59.6664
 30
0.0
 11
288.32
 21
59.6664
 31
0.0
  0
LINE
  8
0
 62
     0
 10
288.32
 20
59.6664
 30
0.0
 11
288.32
 21
45.6777
 31
0.0
  0
LINE
  8
0
 62
     0
 10
288.32
 20
45.6777
 30
0.0
 11
274.332
 21
45.6777
 31
0.0
  0
LINE
  8
0
 62
     0
 10
274.332
 20
45.6777
 30
0.0
 11
274.332
 21
59.6664
 31
0.0
  0
LINE
  8
0
 62
     0
 10
293.382
 20
59.6664
 30
0.0
 11
307.37
 21
59.6664
 31
0.0
  0
LINE
  8
0
 62
     0
 10
307.37
 20
59.6664
 30
0.0
 11
307.37
 21
45.6777
 31
0.0
  0
LINE
  8
0
 62
     0
 10
307.37
 20
45.6777
 30
0.0
 11
293.382
 21
45.6777
 31
0.0
  0
LINE
  8
0
 62
     0
 10
293.382
 20
45.6777
 30
0.0
 11
293.382
 21
59.6664
 31
0.0
  0
LINE
  8
0
 62
     0
 10
312.432
 20
59.6664
 30
0.0
 11
326.42
 21
59.6664
 31
0.0
  0
LINE
  8
0
 62
     0
 10
326.42
 20
59.6664
 30
0.0
 11
326.42
 21
45.6777
 31
0.0
  0
LINE
  8
0
 62
     0
 10
326.42
 20
45.6777
 30
0.0
 11
312.432
 21
45.6777
 31
0.0
  0
LINE
  8
0
 62
     0
 10
312.432
 20
45.6777
 30
0.0
 11
312.432
 21
59.6664
 31
0.0
  0
LINE
  8
0
 62
     0
 10
71.2819
 20
78.292
 30
0.0
 11
71.2819
 21
77.4665
 31
0.0
  0
LINE
  8
0
 62
     0
 10
71.2819
 20
77.4665
 30
0.0
 11
65.0117
 21
77.4665
 31
0.0
  0
LINE
  8
0
 62
     0
 10
65.0117
 20
77.4665
 30
0.0
 11
65.0117
 21
75.741
 31
0.0
  0
LINE
  8
0
 62
     0
 10
65.0117
 20
75.741
 30
0.0
 11
64.032
 21
75.741
 31
0.0
  0
LINE
  8
0
 62
     0
 10
64.032
 20
75.741
 30
0.0
 11
64.032
 21
72.4531
 31
0.0
  0
LINE
  8
0
 62
     0
 10
64.032
 20
72.4531
 30
0.0
 11
65.0117
 21
72.4531
 31
0.0
  0
LINE
  8
0
 62
     0
 10
65.0117
 20
72.4531
 30
0.0
 11
65.0117
 21
70.7277
 31
0.0
  0
LINE
  8
0
 62
     0
 10
65.0117
 20
70.7277
 30
0.0
 11
69.4821
 21
70.7277
 31
0.0
  0
LINE
  8
0
 62
     0
 10
69.4821
 20
70.7277
 30
0.0
 11
69.4821
 21
69.1914
 31
0.0
  0
LINE
  8
0
 62
     0
 10
69.4821
 20
69.1914
 30
0.0
 11
64.7816
 21
69.1914
 31
0.0
  0
LINE
  8
0
 62
     0
 10
64.7816
 20
69.1914
 30
0.0
 11
64.7816
 21
55.2027
 31
0.0
  0
LINE
  8
0
 62
     0
 10
64.7816
 20
55.2027
 30
0.0
 11
69.4821
 21
55.2027
 31
0.0
  0
LINE
  8
0
 62
     0
 10
69.4821
 20
55.2027
 30
0.0
 11
69.4821
 21
53.6663
 31
0.0
  0
LINE
  8
0
 62
     0
 10
69.4821
 20
53.6663
 30
0.0
 11
65.0117
 21
53.6663
 31
0.0
  0
LINE
  8
0
 62
     0
 10
65.0117
 20
53.6663
 30
0.0
 11
65.0117
 21
51.9409
 31
0.0
  0
LINE
  8
0
 62
     0
 10
65.0117
 20
51.9409
 30
0.0
 11
64.032
 21
51.9409
 31
0.0
  0
LINE
  8
0
 62
     0
 10
64.032
 20
51.9409
 30
0.0
 11
64.032
 21
48.653
 31
0.0
  0
LINE
  8
0
 62
     0
 10
64.032
 20
48.653
 30
0.0
 11
65.0117
 21
48.653
 31
0.0
  0
LINE
  8
0
 62
     0
 10
65.0117
 20
48.653
 30
0.0
 11
65.0117
 21
46.9276
 31
0.0
  0
LINE
  8
0
 62
     0
 10
65.0117
 20
46.9276
 30
0.0
 11
71.2819
 21
46.9276
 31
0.0
  0
LINE
  8
0
 62
     0
 10
71.2819
 20
46.9276
 30
0.0
 11
71.2819
 21
46.1038
 31
0.0
  0
LINE
  8
0
 62
     0
 10
71.2819
 20
46.1038
 30
0.0
 11
74.0696
 21
46.1038
 31
0.0
  0
LINE
  8
0
 62
     0
 10
74.0696
 20
46.1038
 30
0.0
 11
74.0696
 21
46.9276
 31
0.0
  0
LINE
  8
0
 62
     0
 10
74.0696
 20
46.9276
 30
0.0
 11
77.2996
 21
46.9276
 31
0.0
  0
LINE
  8
0
 62
     0
 10
77.2996
 20
46.9276
 30
0.0
 11
77.2996
 21
48.653
 31
0.0
  0
LINE
  8
0
 62
     0
 10
77.2996
 20
48.653
 30
0.0
 11
78.219
 21
48.653
 31
0.0
  0
LINE
  8
0
 62
     0
 10
78.219
 20
48.653
 30
0.0
 11
78.219
 21
51.9409
 31
0.0
  0
LINE
  8
0
 62
     0
 10
78.219
 20
51.9409
 30
0.0
 11
77.2996
 21
51.9409
 31
0.0
  0
LINE
  8
0
 62
     0
 10
77.2996
 20
51.9409
 30
0.0
 11
77.2996
 21
53.6663
 31
0.0
  0
LINE
  8
0
 62
     0
 10
77.2996
 20
53.6663
 30
0.0
 11
74.0696
 21
53.6663
 31
0.0
  0
LINE
  8
0
 62
     0
 10
74.0696
 20
53.6663
 30
0.0
 11
74.0696
 21
55.2027
 31
0.0
  0
LINE
  8
0
 62
     0
 10
74.0696
 20
55.2027
 30
0.0
 11
78.77
 21
55.2027
 31
0.0
  0
LINE
  8
0
 62
     0
 10
78.77
 20
55.2027
 30
0.0
 11
78.77
 21
69.1914
 31
0.0
  0
LINE
  8
0
 62
     0
 10
78.77
 20
69.1914
 30
0.0
 11
74.0696
 21
69.1914
 31
0.0
  0
LINE
  8
0
 62
     0
 10
74.0696
 20
69.1914
 30
0.0
 11
74.0696
 21
70.7277
 31
0.0
  0
LINE
  8
0
 62
     0
 10
74.0696
 20
70.7277
 30
0.0
 11
77.2982
 21
70.7277
 31
0.0
  0
LINE
  8
0
 62
     0
 10
77.2982
 20
70.7277
 30
0.0
 11
77.2982
 21
72.4531
 31
0.0
  0
LINE
  8
0
 62
     0
 10
77.2982
 20
72.4531
 30
0.0
 11
78.219
 21
72.4531
 31
0.0
  0
LINE
  8
0
 62
     0
 10
78.219
 20
72.4531
 30
0.0
 11
78.219
 21
75.741
 31
0.0
  0
LINE
  8
0
 62
     0
 10
78.219
 20
75.741
 30
0.0
 11
77.2982
 21
75.741
 31
0.0
  0
LINE
  8
0
 62
     0
 10
77.2982
 20
75.741
 30
0.0
 11
77.2982
 21
77.4665
 31
0.0
  0
LINE
  8
0
 62
     0
 10
77.2982
 20
77.4665
 30
0.0
 11
74.0696
 21
77.4665
 31
0.0
  0
LINE
  8
0
 62
     0
 10
74.0696
 20
77.4665
 30
0.0
 11
74.0696
 21
78.292
 31
0.0
  0
LINE
  8
0
 62
     0
 10
74.0696
 20
78.292
 30
0.0
 11
71.2819
 21
78.292
 31
0.0
  0
LINE
  8
0
 62
     0
 10
7.63157
 20
78.7164
 30
0.0
 11
21.6201
 21
78.7164
 31
0.0
  0
LINE
  8
0
 62
     0
 10
21.6201
 20
78.7164
 30
0.0
 11
21.6201
 21
64.7277
 31
0.0
  0
LINE
  8
0
 62
     0
 10
21.6201
 20
64.7277
 30
0.0
 11
7.63157
 21
64.7277
 31
0.0
  0
LINE
  8
0
 62
     0
 10
7.63157
 20
64.7277
 30
0.0
 11
7.63157
 21
78.7164
 31
0.0
  0
LINE
  8
0
 62
     0
 10
26.6816
 20
78.7164
 30
0.0
 11
40.6686
 21
78.7164
 31
0.0
  0
LINE
  8
0
 62
     0
 10
40.6686
 20
78.7164
 30
0.0
 11
40.6686
 21
64.7277
 31
0.0
  0
LINE
  8
0
 62
     0
 10
40.6686
 20
64.7277
 30
0.0
 11
26.6816
 21
64.7277
 31
0.0
  0
LINE
  8
0
 62
     0
 10
26.6816
 20
64.7277
 30
0.0
 11
26.6816
 21
78.7164
 31
0.0
  0
LINE
  8
0
 62
     0
 10
45.7316
 20
78.7164
 30
0.0
 11
59.72
 21
78.7164
 31
0.0
  0
LINE
  8
0
 62
     0
 10
59.72
 20
78.7164
 30
0.0
 11
59.72
 21
64.7277
 31
0.0
  0
LINE
  8
0
 62
     0
 10
59.72
 20
64.7277
 30
0.0
 11
45.7316
 21
64.7277
 31
0.0
  0
LINE
  8
0
 62
     0
 10
45.7316
 20
64.7277
 30
0.0
 11
45.7316
 21
78.7164
 31
0.0
  0
LINE
  8
0
 62
     0
 10
93.3566
 20
78.7164
 30
0.0
 11
107.345
 21
78.7164
 31
0.0
  0
LINE
  8
0
 62
     0
 10
107.345
 20
78.7164
 30
0.0
 11
107.345
 21
64.7277
 31
0.0
  0
LINE
  8
0
 62
     0
 10
107.345
 20
64.7277
 30
0.0
 11
93.3566
 21
64.7277
 31
0.0
  0
LINE
  8
0
 62
     0
 10
93.3566
 20
64.7277
 30
0.0
 11
93.3566
 21
78.7164
 31
0.0
  0
LINE
  8
0
 62
     0
 10
117.169
 20
78.7164
 30
0.0
 11
131.156
 21
78.7164
 31
0.0
  0
LINE
  8
0
 62
     0
 10
131.156
 20
78.7164
 30
0.0
 11
131.156
 21
64.7277
 31
0.0
  0
LINE
  8
0
 62
     0
 10
131.156
 20
64.7277
 30
0.0
 11
117.169
 21
64.7277
 31
0.0
  0
LINE
  8
0
 62
     0
 10
117.169
 20
64.7277
 30
0.0
 11
117.169
 21
78.7164
 31
0.0
  0
LINE
  8
0
 62
     0
 10
136.219
 20
78.7164
 30
0.0
 11
150.206
 21
78.7164
 31
0.0
  0
LINE
  8
0
 62
     0
 10
150.206
 20
78.7164
 30
0.0
 11
150.206
 21
64.7277
 31
0.0
  0
LINE
  8
0
 62
     0
 10
150.206
 20
64.7277
 30
0.0
 11
136.219
 21
64.7277
 31
0.0
  0
LINE
  8
0
 62
     0
 10
136.219
 20
64.7277
 30
0.0
 11
136.219
 21
78.7164
 31
0.0
  0
LINE
  8
0
 62
     0
 10
155.269
 20
78.7164
 30
0.0
 11
169.256
 21
78.7164
 31
0.0
  0
LINE
  8
0
 62
     0
 10
169.256
 20
78.7164
 30
0.0
 11
169.256
 21
64.7277
 31
0.0
  0
LINE
  8
0
 62
     0
 10
169.256
 20
64.7277
 30
0.0
 11
155.269
 21
64.7277
 31
0.0
  0
LINE
  8
0
 62
     0
 10
155.269
 20
64.7277
 30
0.0
 11
155.269
 21
78.7164
 31
0.0
  0
LINE
  8
0
 62
     0
 10
174.319
 20
78.7164
 30
0.0
 11
188.306
 21
78.7164
 31
0.0
  0
LINE
  8
0
 62
     0
 10
188.306
 20
78.7164
 30
0.0
 11
188.306
 21
64.7277
 31
0.0
  0
LINE
  8
0
 62
     0
 10
188.306
 20
64.7277
 30
0.0
 11
174.319
 21
64.7277
 31
0.0
  0
LINE
  8
0
 62
     0
 10
174.319
 20
64.7277
 30
0.0
 11
174.319
 21
78.7164
 31
0.0
  0
LINE
  8
0
 62
     0
 10
193.369
 20
78.7164
 30
0.0
 11
207.356
 21
78.7164
 31
0.0
  0
LINE
  8
0
 62
     0
 10
207.356
 20
78.7164
 30
0.0
 11
207.356
 21
64.7277
 31
0.0
  0
LINE
  8
0
 62
     0
 10
207.356
 20
64.7277
 30
0.0
 11
193.369
 21
64.7277
 31
0.0
  0
LINE
  8
0
 62
     0
 10
193.369
 20
64.7277
 30
0.0
 11
193.369
 21
78.7164
 31
0.0
  0
LINE
  8
0
 62
     0
 10
212.419
 20
78.7164
 30
0.0
 11
226.406
 21
78.7164
 31
0.0
  0
LINE
  8
0
 62
     0
 10
226.406
 20
78.7164
 30
0.0
 11
226.406
 21
64.7277
 31
0.0
  0
LINE
  8
0
 62
     0
 10
226.406
 20
64.7277
 30
0.0
 11
212.419
 21
64.7277
 31
0.0
  0
LINE
  8
0
 62
     0
 10
212.419
 20
64.7277
 30
0.0
 11
212.419
 21
78.7164
 31
0.0
  0
LINE
  8
0
 62
     0
 10
231.469
 20
78.7164
 30
0.0
 11
245.456
 21
78.7164
 31
0.0
  0
LINE
  8
0
 62
     0
 10
245.456
 20
78.7164
 30
0.0
 11
245.456
 21
64.7277
 31
0.0
  0
LINE
  8
0
 62
     0
 10
245.456
 20
64.7277
 30
0.0
 11
231.469
 21
64.7277
 31
0.0
  0
LINE
  8
0
 62
     0
 10
231.469
 20
64.7277
 30
0.0
 11
231.469
 21
78.7164
 31
0.0
  0
LINE
  8
0
 62
     0
 10
250.519
 20
78.7164
 30
0.0
 11
264.506
 21
78.7164
 31
0.0
  0
LINE
  8
0
 62
     0
 10
264.506
 20
78.7164
 30
0.0
 11
264.506
 21
64.7277
 31
0.0
  0
LINE
  8
0
 62
     0
 10
264.506
 20
64.7277
 30
0.0
 11
250.519
 21
64.7277
 31
0.0
  0
LINE
  8
0
 62
     0
 10
250.519
 20
64.7277
 30
0.0
 11
250.519
 21
78.7164
 31
0.0
  0
LINE
  8
0
 62
     0
 10
269.569
 20
78.7164
 30
0.0
 11
283.556
 21
78.7164
 31
0.0
  0
LINE
  8
0
 62
     0
 10
283.556
 20
78.7164
 30
0.0
 11
283.556
 21
64.7277
 31
0.0
  0
LINE
  8
0
 62
     0
 10
283.556
 20
64.7277
 30
0.0
 11
269.569
 21
64.7277
 31
0.0
  0
LINE
  8
0
 62
     0
 10
269.569
 20
64.7277
 30
0.0
 11
269.569
 21
78.7164
 31
0.0
  0
LINE
  8
0
 62
     0
 10
288.619
 20
78.7164
 30
0.0
 11
302.606
 21
78.7164
 31
0.0
  0
LINE
  8
0
 62
     0
 10
302.606
 20
78.7164
 30
0.0
 11
302.606
 21
64.7277
 31
0.0
  0
LINE
  8
0
 62
     0
 10
302.606
 20
64.7277
 30
0.0
 11
288.619
 21
64.7277
 31
0.0
  0
LINE
  8
0
 62
     0
 10
288.619
 20
64.7277
 30
0.0
 11
288.619
 21
78.7164
 31
0.0
  0
LINE
  8
0
 62
     0
 10
307.669
 20
78.7164
 30
0.0
 11
321.656
 21
78.7164
 31
0.0
  0
LINE
  8
0
 62
     0
 10
321.656
 20
78.7164
 30
0.0
 11
321.656
 21
64.7277
 31
0.0
  0
LINE
  8
0
 62
     0
 10
321.656
 20
64.7277
 30
0.0
 11
307.669
 21
64.7277
 31
0.0
  0
LINE
  8
0
 62
     0
 10
307.669
 20
64.7277
 30
0.0
 11
307.669
 21
78.7164
 31
0.0
  0
LINE
  8
0
 62
     0
 10
326.719
 20
78.7164
 30
0.0
 11
340.706
 21
78.7164
 31
0.0
  0
LINE
  8
0
 62
     0
 10
340.706
 20
78.7164
 30
0.0
 11
340.706
 21
64.7277
 31
0.0
  0
LINE
  8
0
 62
     0
 10
340.706
 20
64.7277
 30
0.0
 11
326.719
 21
64.7277
 31
0.0
  0
LINE
  8
0
 62
     0
 10
326.719
 20
64.7277
 30
0.0
 11
326.719
 21
78.7164
 31
0.0
  0
LINE
  8
0
 62
     0
 10
350.532
 20
78.7164
 30
0.0
 11
364.522
 21
78.7164
 31
0.0
  0
LINE
  8
0
 62
     0
 10
364.522
 20
78.7164
 30
0.0
 11
364.522
 21
64.7277
 31
0.0
  0
LINE
  8
0
 62
     0
 10
364.522
 20
64.7277
 30
0.0
 11
350.532
 21
64.7277
 31
0.0
  0
LINE
  8
0
 62
     0
 10
350.532
 20
64.7277
 30
0.0
 11
350.532
 21
78.7164
 31
0.0
  0
LINE
  8
0
 62
     0
 10
379.106
 20
78.7164
 30
0.0
 11
393.097
 21
78.7164
 31
0.0
  0
LINE
  8
0
 62
     0
 10
393.097
 20
78.7164
 30
0.0
 11
393.097
 21
64.7277
 31
0.0
  0
LINE
  8
0
 62
     0
 10
393.097
 20
64.7277
 30
0.0
 11
379.106
 21
64.7277
 31
0.0
  0
LINE
  8
0
 62
     0
 10
379.106
 20
64.7277
 30
0.0
 11
379.106
 21
78.7164
 31
0.0
  0
LINE
  8
0
 62
     0
 10
398.156
 20
78.7164
 30
0.0
 11
412.147
 21
78.7164
 31
0.0
  0
LINE
  8
0
 62
     0
 10
412.147
 20
78.7164
 30
0.0
 11
412.147
 21
64.7277
 31
0.0
  0
LINE
  8
0
 62
     0
 10
412.147
 20
64.7277
 30
0.0
 11
398.156
 21
64.7277
 31
0.0
  0
LINE
  8
0
 62
     0
 10
398.156
 20
64.7277
 30
0.0
 11
398.156
 21
78.7164
 31
0.0
  0
LINE
  8
0
 62
     0
 10
417.206
 20
78.7164
 30
0.0
 11
431.197
 21
78.7164
 31
0.0
  0
LINE
  8
0
 62
     0
 10
431.197
 20
78.7164
 30
0.0
 11
431.197
 21
64.7277
 31
0.0
  0
LINE
  8
0
 62
     0
 10
431.197
 20
64.7277
 30
0.0
 11
417.206
 21
64.7277
 31
0.0
  0
LINE
  8
0
 62
     0
 10
417.206
 20
64.7277
 30
0.0
 11
417.206
 21
78.7164
 31
0.0
  0
LINE
  8
0
 62
     0
 10
345.769
 20
97.7664
 30
0.0
 11
345.769
 21
93.0659
 31
0.0
  0
LINE
  8
0
 62
     0
 10
345.769
 20
93.0659
 30
0.0
 11
344.231
 21
93.0659
 31
0.0
  0
LINE
  8
0
 62
     0
 10
344.231
 20
93.0659
 30
0.0
 11
344.231
 21
96.296
 31
0.0
  0
LINE
  8
0
 62
     0
 10
344.231
 20
96.296
 30
0.0
 11
342.506
 21
96.296
 31
0.0
  0
LINE
  8
0
 62
     0
 10
342.506
 20
96.296
 30
0.0
 11
342.506
 21
97.2164
 31
0.0
  0
LINE
  8
0
 62
     0
 10
342.506
 20
97.2164
 30
0.0
 11
339.219
 21
97.2164
 31
0.0
  0
LINE
  8
0
 62
     0
 10
339.219
 20
97.2164
 30
0.0
 11
339.219
 21
96.296
 31
0.0
  0
LINE
  8
0
 62
     0
 10
339.219
 20
96.296
 30
0.0
 11
337.494
 21
96.296
 31
0.0
  0
LINE
  8
0
 62
     0
 10
337.494
 20
96.296
 30
0.0
 11
337.494
 21
93.0659
 31
0.0
  0
LINE
  8
0
 62
     0
 10
337.494
 20
93.0659
 30
0.0
 11
336.67
 21
93.0659
 31
0.0
  0
LINE
  8
0
 62
     0
 10
336.67
 20
93.0659
 30
0.0
 11
336.67
 21
90.278
 31
0.0
  0
LINE
  8
0
 62
     0
 10
336.67
 20
90.278
 30
0.0
 11
337.494
 21
90.278
 31
0.0
  0
LINE
  8
0
 62
     0
 10
337.494
 20
90.278
 30
0.0
 11
337.494
 21
84.008
 31
0.0
  0
LINE
  8
0
 62
     0
 10
337.494
 20
84.008
 30
0.0
 11
339.219
 21
84.008
 31
0.0
  0
LINE
  8
0
 62
     0
 10
339.219
 20
84.008
 30
0.0
 11
339.219
 21
83.028
 31
0.0
  0
LINE
  8
0
 62
     0
 10
339.219
 20
83.028
 30
0.0
 11
342.506
 21
83.028
 31
0.0
  0
LINE
  8
0
 62
     0
 10
342.506
 20
83.028
 30
0.0
 11
342.506
 21
84.008
 31
0.0
  0
LINE
  8
0
 62
     0
 10
342.506
 20
84.008
 30
0.0
 11
344.231
 21
84.008
 31
0.0
  0
LINE
  8
0
 62
     0
 10
344.231
 20
84.008
 30
0.0
 11
344.231
 21
88.4784
 31
0.0
  0
LINE
  8
0
 62
     0
 10
344.231
 20
88.4784
 30
0.0
 11
345.769
 21
88.4784
 31
0.0
  0
LINE
  8
0
 62
     0
 10
345.769
 20
88.4784
 30
0.0
 11
345.769
 21
83.7777
 31
0.0
  0
LINE
  8
0
 62
     0
 10
345.769
 20
83.7777
 30
0.0
 11
359.756
 21
83.7777
 31
0.0
  0
LINE
  8
0
 62
     0
 10
359.756
 20
83.7777
 30
0.0
 11
359.756
 21
88.4784
 31
0.0
  0
LINE
  8
0
 62
     0
 10
359.756
 20
88.4784
 30
0.0
 11
361.294
 21
88.4784
 31
0.0
  0
LINE
  8
0
 62
     0
 10
361.294
 20
88.4784
 30
0.0
 11
361.294
 21
84.008
 31
0.0
  0
LINE
  8
0
 62
     0
 10
361.294
 20
84.008
 30
0.0
 11
363.019
 21
84.008
 31
0.0
  0
LINE
  8
0
 62
     0
 10
363.019
 20
84.008
 30
0.0
 11
363.019
 21
83.028
 31
0.0
  0
LINE
  8
0
 62
     0
 10
363.019
 20
83.028
 30
0.0
 11
366.307
 21
83.028
 31
0.0
  0
LINE
  8
0
 62
     0
 10
366.307
 20
83.028
 30
0.0
 11
366.307
 21
84.008
 31
0.0
  0
LINE
  8
0
 62
     0
 10
366.307
 20
84.008
 30
0.0
 11
368.032
 21
84.008
 31
0.0
  0
LINE
  8
0
 62
     0
 10
368.032
 20
84.008
 30
0.0
 11
368.032
 21
90.278
 31
0.0
  0
LINE
  8
0
 62
     0
 10
368.032
 20
90.278
 30
0.0
 11
368.857
 21
90.278
 31
0.0
  0
LINE
  8
0
 62
     0
 10
368.857
 20
90.278
 30
0.0
 11
368.857
 21
93.0659
 31
0.0
  0
LINE
  8
0
 62
     0
 10
368.857
 20
93.0659
 30
0.0
 11
368.032
 21
93.0659
 31
0.0
  0
LINE
  8
0
 62
     0
 10
368.032
 20
93.0659
 30
0.0
 11
368.032
 21
96.296
 31
0.0
  0
LINE
  8
0
 62
     0
 10
368.032
 20
96.296
 30
0.0
 11
366.307
 21
96.296
 31
0.0
  0
LINE
  8
0
 62
     0
 10
366.307
 20
96.296
 30
0.0
 11
366.307
 21
97.2164
 31
0.0
  0
LINE
  8
0
 62
     0
 10
366.307
 20
97.2164
 30
0.0
 11
363.019
 21
97.2164
 31
0.0
  0
LINE
  8
0
 62
     0
 10
363.019
 20
97.2164
 30
0.0
 11
363.019
 21
96.296
 31
0.0
  0
LINE
  8
0
 62
     0
 10
363.019
 20
96.296
 30
0.0
 11
361.294
 21
96.296
 31
0.0
  0
LINE
  8
0
 62
     0
 10
361.294
 20
96.296
 30
0.0
 11
361.294
 21
93.0659
 31
0.0
  0
LINE
  8
0
 62
     0
 10
361.294
 20
93.0659
 30
0.0
 11
359.756
 21
93.0659
 31
0.0
  0
LINE
  8
0
 62
     0
 10
359.756
 20
93.0659
 30
0.0
 11
359.756
 21
97.7664
 31
0.0
  0
LINE
  8
0
 62
     0
 10
359.756
 20
97.7664
 30
0.0
 11
345.769
 21
97.7664
 31
0.0
  0
LINE
  8
0
 62
     0
 10
7.63157
 20
97.7664
 30
0.0
 11
21.6201
 21
97.7664
 31
0.0
  0
LINE
  8
0
 62
     0
 10
21.6201
 20
97.7664
 30
0.0
 11
21.6201
 21
83.7777
 31
0.0
  0
LINE
  8
0
 62
     0
 10
21.6201
 20
83.7777
 30
0.0
 11
7.63157
 21
83.7777
 31
0.0
  0
LINE
  8
0
 62
     0
 10
7.63157
 20
83.7777
 30
0.0
 11
7.63157
 21
97.7664
 31
0.0
  0
LINE
  8
0
 62
     0
 10
26.6816
 20
97.7664
 30
0.0
 11
40.6686
 21
97.7664
 31
0.0
  0
LINE
  8
0
 62
     0
 10
40.6686
 20
97.7664
 30
0.0
 11
40.6686
 21
83.7777
 31
0.0
  0
LINE
  8
0
 62
     0
 10
40.6686
 20
83.7777
 30
0.0
 11
26.6816
 21
83.7777
 31
0.0
  0
LINE
  8
0
 62
     0
 10
26.6816
 20
83.7777
 30
0.0
 11
26.6816
 21
97.7664
 31
0.0
  0
LINE
  8
0
 62
     0
 10
45.7316
 20
97.7664
 30
0.0
 11
59.72
 21
97.7664
 31
0.0
  0
LINE
  8
0
 62
     0
 10
59.72
 20
97.7664
 30
0.0
 11
59.72
 21
83.7777
 31
0.0
  0
LINE
  8
0
 62
     0
 10
59.72
 20
83.7777
 30
0.0
 11
45.7316
 21
83.7777
 31
0.0
  0
LINE
  8
0
 62
     0
 10
45.7316
 20
83.7777
 30
0.0
 11
45.7316
 21
97.7664
 31
0.0
  0
LINE
  8
0
 62
     0
 10
64.7816
 20
97.7664
 30
0.0
 11
78.77
 21
97.7664
 31
0.0
  0
LINE
  8
0
 62
     0
 10
78.77
 20
97.7664
 30
0.0
 11
78.77
 21
83.7777
 31
0.0
  0
LINE
  8
0
 62
     0
 10
78.77
 20
83.7777
 30
0.0
 11
64.7816
 21
83.7777
 31
0.0
  0
LINE
  8
0
 62
     0
 10
64.7816
 20
83.7777
 30
0.0
 11
64.7816
 21
97.7664
 31
0.0
  0
LINE
  8
0
 62
     0
 10
88.5941
 20
97.7664
 30
0.0
 11
102.581
 21
97.7664
 31
0.0
  0
LINE
  8
0
 62
     0
 10
102.581
 20
97.7664
 30
0.0
 11
102.581
 21
83.7777
 31
0.0
  0
LINE
  8
0
 62
     0
 10
102.581
 20
83.7777
 30
0.0
 11
88.5941
 21
83.7777
 31
0.0
  0
LINE
  8
0
 62
     0
 10
88.5941
 20
83.7777
 30
0.0
 11
88.5941
 21
97.7664
 31
0.0
  0
LINE
  8
0
 62
     0
 10
107.644
 20
97.7664
 30
0.0
 11
121.631
 21
97.7664
 31
0.0
  0
LINE
  8
0
 62
     0
 10
121.631
 20
97.7664
 30
0.0
 11
121.631
 21
83.7777
 31
0.0
  0
LINE
  8
0
 62
     0
 10
121.631
 20
83.7777
 30
0.0
 11
107.644
 21
83.7777
 31
0.0
  0
LINE
  8
0
 62
     0
 10
107.644
 20
83.7777
 30
0.0
 11
107.644
 21
97.7664
 31
0.0
  0
LINE
  8
0
 62
     0
 10
126.694
 20
97.7664
 30
0.0
 11
140.681
 21
97.7664
 31
0.0
  0
LINE
  8
0
 62
     0
 10
140.681
 20
97.7664
 30
0.0
 11
140.681
 21
83.7777
 31
0.0
  0
LINE
  8
0
 62
     0
 10
140.681
 20
83.7777
 30
0.0
 11
126.694
 21
83.7777
 31
0.0
  0
LINE
  8
0
 62
     0
 10
126.694
 20
83.7777
 30
0.0
 11
126.694
 21
97.7664
 31
0.0
  0
LINE
  8
0
 62
     0
 10
145.744
 20
97.7664
 30
0.0
 11
159.731
 21
97.7664
 31
0.0
  0
LINE
  8
0
 62
     0
 10
159.731
 20
97.7664
 30
0.0
 11
159.731
 21
83.7777
 31
0.0
  0
LINE
  8
0
 62
     0
 10
159.731
 20
83.7777
 30
0.0
 11
145.744
 21
83.7777
 31
0.0
  0
LINE
  8
0
 62
     0
 10
145.744
 20
83.7777
 30
0.0
 11
145.744
 21
97.7664
 31
0.0
  0
LINE
  8
0
 62
     0
 10
164.794
 20
97.7664
 30
0.0
 11
178.781
 21
97.7664
 31
0.0
  0
LINE
  8
0
 62
     0
 10
178.781
 20
97.7664
 30
0.0
 11
178.781
 21
83.7777
 31
0.0
  0
LINE
  8
0
 62
     0
 10
178.781
 20
83.7777
 30
0.0
 11
164.794
 21
83.7777
 31
0.0
  0
LINE
  8
0
 62
     0
 10
164.794
 20
83.7777
 30
0.0
 11
164.794
 21
97.7664
 31
0.0
  0
LINE
  8
0
 62
     0
 10
183.844
 20
97.7664
 30
0.0
 11
197.831
 21
97.7664
 31
0.0
  0
LINE
  8
0
 62
     0
 10
197.831
 20
97.7664
 30
0.0
 11
197.831
 21
83.7777
 31
0.0
  0
LINE
  8
0
 62
     0
 10
197.831
 20
83.7777
 30
0.0
 11
183.844
 21
83.7777
 31
0.0
  0
LINE
  8
0
 62
     0
 10
183.844
 20
83.7777
 30
0.0
 11
183.844
 21
97.7664
 31
0.0
  0
LINE
  8
0
 62
     0
 10
202.894
 20
97.7664
 30
0.0
 11
216.881
 21
97.7664
 31
0.0
  0
LINE
  8
0
 62
     0
 10
216.881
 20
97.7664
 30
0.0
 11
216.881
 21
83.7777
 31
0.0
  0
LINE
  8
0
 62
     0
 10
216.881
 20
83.7777
 30
0.0
 11
202.894
 21
83.7777
 31
0.0
  0
LINE
  8
0
 62
     0
 10
202.894
 20
83.7777
 30
0.0
 11
202.894
 21
97.7664
 31
0.0
  0
LINE
  8
0
 62
     0
 10
221.944
 20
97.7664
 30
0.0
 11
235.931
 21
97.7664
 31
0.0
  0
LINE
  8
0
 62
     0
 10
235.931
 20
97.7664
 30
0.0
 11
235.931
 21
83.7777
 31
0.0
  0
LINE
  8
0
 62
     0
 10
235.931
 20
83.7777
 30
0.0
 11
221.944
 21
83.7777
 31
0.0
  0
LINE
  8
0
 62
     0
 10
221.944
 20
83.7777
 30
0.0
 11
221.944
 21
97.7664
 31
0.0
  0
LINE
  8
0
 62
     0
 10
240.994
 20
97.7664
 30
0.0
 11
254.981
 21
97.7664
 31
0.0
  0
LINE
  8
0
 62
     0
 10
254.981
 20
97.7664
 30
0.0
 11
254.981
 21
83.7777
 31
0.0
  0
LINE
  8
0
 62
     0
 10
254.981
 20
83.7777
 30
0.0
 11
240.994
 21
83.7777
 31
0.0
  0
LINE
  8
0
 62
     0
 10
240.994
 20
83.7777
 30
0.0
 11
240.994
 21
97.7664
 31
0.0
  0
LINE
  8
0
 62
     0
 10
260.044
 20
97.7664
 30
0.0
 11
274.031
 21
97.7664
 31
0.0
  0
LINE
  8
0
 62
     0
 10
274.031
 20
97.7664
 30
0.0
 11
274.031
 21
83.7777
 31
0.0
  0
LINE
  8
0
 62
     0
 10
274.031
 20
83.7777
 30
0.0
 11
260.044
 21
83.7777
 31
0.0
  0
LINE
  8
0
 62
     0
 10
260.044
 20
83.7777
 30
0.0
 11
260.044
 21
97.7664
 31
0.0
  0
LINE
  8
0
 62
     0
 10
279.094
 20
97.7664
 30
0.0
 11
293.081
 21
97.7664
 31
0.0
  0
LINE
  8
0
 62
     0
 10
293.081
 20
97.7664
 30
0.0
 11
293.081
 21
83.7777
 31
0.0
  0
LINE
  8
0
 62
     0
 10
293.081
 20
83.7777
 30
0.0
 11
279.094
 21
83.7777
 31
0.0
  0
LINE
  8
0
 62
     0
 10
279.094
 20
83.7777
 30
0.0
 11
279.094
 21
97.7664
 31
0.0
  0
LINE
  8
0
 62
     0
 10
298.144
 20
97.7664
 30
0.0
 11
312.131
 21
97.7664
 31
0.0
  0
LINE
  8
0
 62
     0
 10
312.131
 20
97.7664
 30
0.0
 11
312.131
 21
83.7777
 31
0.0
  0
LINE
  8
0
 62
     0
 10
312.131
 20
83.7777
 30
0.0
 11
298.144
 21
83.7777
 31
0.0
  0
LINE
  8
0
 62
     0
 10
298.144
 20
83.7777
 30
0.0
 11
298.144
 21
97.7664
 31
0.0
  0
LINE
  8
0
 62
     0
 10
317.194
 20
97.7664
 30
0.0
 11
331.181
 21
97.7664
 31
0.0
  0
LINE
  8
0
 62
     0
 10
331.181
 20
97.7664
 30
0.0
 11
331.181
 21
83.7777
 31
0.0
  0
LINE
  8
0
 62
     0
 10
331.181
 20
83.7777
 30
0.0
 11
317.194
 21
83.7777
 31
0.0
  0
LINE
  8
0
 62
     0
 10
317.194
 20
83.7777
 30
0.0
 11
317.194
 21
97.7664
 31
0.0
  0
LINE
  8
0
 62
     0
 10
379.106
 20
97.7664
 30
0.0
 11
393.097
 21
97.7664
 31
0.0
  0
LINE
  8
0
 62
     0
 10
393.097
 20
97.7664
 30
0.0
 11
393.097
 21
83.7777
 31
0.0
  0
LINE
  8
0
 62
     0
 10
393.097
 20
83.7777
 30
0.0
 11
379.106
 21
83.7777
 31
0.0
  0
LINE
  8
0
 62
     0
 10
379.106
 20
83.7777
 30
0.0
 11
379.106
 21
97.7664
 31
0.0
  0
LINE
  8
0
 62
     0
 10
398.156
 20
97.7664
 30
0.0
 11
412.147
 21
97.7664
 31
0.0
  0
LINE
  8
0
 62
     0
 10
412.147
 20
97.7664
 30
0.0
 11
412.147
 21
83.7777
 31
0.0
  0
LINE
  8
0
 62
     0
 10
412.147
 20
83.7777
 30
0.0
 11
398.156
 21
83.7777
 31
0.0
  0
LINE
  8
0
 62
     0
 10
398.156
 20
83.7777
 30
0.0
 11
398.156
 21
97.7664
 31
0.0
  0
LINE
  8
0
 62
     0
 10
417.206
 20
97.7664
 30
0.0
 11
431.197
 21
97.7664
 31
0.0
  0
LINE
  8
0
 62
     0
 10
431.197
 20
97.7664
 30
0.0
 11
431.197
 21
83.7777
 31
0.0
  0
LINE
  8
0
 62
     0
 10
431.197
 20
83.7777
 30
0.0
 11
417.206
 21
83.7777
 31
0.0
  0
LINE
  8
0
 62
     0
 10
417.206
 20
83.7777
 30
0.0
 11
417.206
 21
97.7664
 31
0.0
  0
LINE
  8
0
 62
     0
 10
17.1566
 20
126.341
 30
0.0
 11
31.1451
 21
126.341
 31
0.0
  0
LINE
  8
0
 62
     0
 10
31.1451
 20
126.341
 30
0.0
 11
31.1451
 21
112.353
 31
0.0
  0
LINE
  8
0
 62
     0
 10
31.1451
 20
112.353
 30
0.0
 11
17.1566
 21
112.353
 31
0.0
  0
LINE
  8
0
 62
     0
 10
17.1566
 20
112.353
 30
0.0
 11
17.1566
 21
126.341
 31
0.0
  0
LINE
  8
0
 62
     0
 10
36.2066
 20
126.341
 30
0.0
 11
50.195
 21
126.341
 31
0.0
  0
LINE
  8
0
 62
     0
 10
50.195
 20
126.341
 30
0.0
 11
50.195
 21
112.353
 31
0.0
  0
LINE
  8
0
 62
     0
 10
50.195
 20
112.353
 30
0.0
 11
36.2066
 21
112.353
 31
0.0
  0
LINE
  8
0
 62
     0
 10
36.2066
 20
112.353
 30
0.0
 11
36.2066
 21
126.341
 31
0.0
  0
LINE
  8
0
 62
     0
 10
55.2566
 20
126.341
 30
0.0
 11
69.245
 21
126.341
 31
0.0
  0
LINE
  8
0
 62
     0
 10
69.245
 20
126.341
 30
0.0
 11
69.245
 21
112.353
 31
0.0
  0
LINE
  8
0
 62
     0
 10
69.245
 20
112.353
 30
0.0
 11
55.2566
 21
112.353
 31
0.0
  0
LINE
  8
0
 62
     0
 10
55.2566
 20
112.353
 30
0.0
 11
55.2566
 21
126.341
 31
0.0
  0
LINE
  8
0
 62
     0
 10
88.5941
 20
126.341
 30
0.0
 11
102.581
 21
126.341
 31
0.0
  0
LINE
  8
0
 62
     0
 10
102.581
 20
126.341
 30
0.0
 11
102.581
 21
112.353
 31
0.0
  0
LINE
  8
0
 62
     0
 10
102.581
 20
112.353
 30
0.0
 11
88.5941
 21
112.353
 31
0.0
  0
LINE
  8
0
 62
     0
 10
88.5941
 20
112.353
 30
0.0
 11
88.5941
 21
126.341
 31
0.0
  0
LINE
  8
0
 62
     0
 10
126.694
 20
126.341
 30
0.0
 11
140.681
 21
126.341
 31
0.0
  0
LINE
  8
0
 62
     0
 10
140.681
 20
126.341
 30
0.0
 11
140.681
 21
112.353
 31
0.0
  0
LINE
  8
0
 62
     0
 10
140.681
 20
112.353
 30
0.0
 11
126.694
 21
112.353
 31
0.0
  0
LINE
  8
0
 62
     0
 10
126.694
 20
112.353
 30
0.0
 11
126.694
 21
126.341
 31
0.0
  0
LINE
  8
0
 62
     0
 10
145.744
 20
126.341
 30
0.0
 11
159.731
 21
126.341
 31
0.0
  0
LINE
  8
0
 62
     0
 10
159.731
 20
126.341
 30
0.0
 11
159.731
 21
112.353
 31
0.0
  0
LINE
  8
0
 62
     0
 10
159.731
 20
112.353
 30
0.0
 11
145.744
 21
112.353
 31
0.0
  0
LINE
  8
0
 62
     0
 10
145.744
 20
112.353
 30
0.0
 11
145.744
 21
126.341
 31
0.0
  0
LINE
  8
0
 62
     0
 10
164.794
 20
126.341
 30
0.0
 11
178.781
 21
126.341
 31
0.0
  0
LINE
  8
0
 62
     0
 10
178.781
 20
126.341
 30
0.0
 11
178.781
 21
112.353
 31
0.0
  0
LINE
  8
0
 62
     0
 10
178.781
 20
112.353
 30
0.0
 11
164.794
 21
112.353
 31
0.0
  0
LINE
  8
0
 62
     0
 10
164.794
 20
112.353
 30
0.0
 11
164.794
 21
126.341
 31
0.0
  0
LINE
  8
0
 62
     0
 10
183.844
 20
126.341
 30
0.0
 11
197.831
 21
126.341
 31
0.0
  0
LINE
  8
0
 62
     0
 10
197.831
 20
126.341
 30
0.0
 11
197.831
 21
112.353
 31
0.0
  0
LINE
  8
0
 62
     0
 10
197.831
 20
112.353
 30
0.0
 11
183.844
 21
112.353
 31
0.0
  0
LINE
  8
0
 62
     0
 10
183.844
 20
112.353
 30
0.0
 11
183.844
 21
126.341
 31
0.0
  0
LINE
  8
0
 62
     0
 10
212.419
 20
126.341
 30
0.0
 11
226.406
 21
126.341
 31
0.0
  0
LINE
  8
0
 62
     0
 10
226.406
 20
126.341
 30
0.0
 11
226.406
 21
112.353
 31
0.0
  0
LINE
  8
0
 62
     0
 10
226.406
 20
112.353
 30
0.0
 11
212.419
 21
112.353
 31
0.0
  0
LINE
  8
0
 62
     0
 10
212.419
 20
112.353
 30
0.0
 11
212.419
 21
126.341
 31
0.0
  0
LINE
  8
0
 62
     0
 10
231.469
 20
126.341
 30
0.0
 11
245.456
 21
126.341
 31
0.0
  0
LINE
  8
0
 62
     0
 10
245.456
 20
126.341
 30
0.0
 11
245.456
 21
112.353
 31
0.0
  0
LINE
  8
0
 62
     0
 10
245.456
 20
112.353
 30
0.0
 11
231.469
 21
112.353
 31
0.0
  0
LINE
  8
0
 62
     0
 10
231.469
 20
112.353
 30
0.0
 11
231.469
 21
126.341
 31
0.0
  0
LINE
  8
0
 62
     0
 10
250.519
 20
126.341
 30
0.0
 11
264.506
 21
126.341
 31
0.0
  0
LINE
  8
0
 62
     0
 10
264.506
 20
126.341
 30
0.0
 11
264.506
 21
112.353
 31
0.0
  0
LINE
  8
0
 62
     0
 10
264.506
 20
112.353
 30
0.0
 11
250.519
 21
112.353
 31
0.0
  0
LINE
  8
0
 62
     0
 10
250.519
 20
112.353
 30
0.0
 11
250.519
 21
126.341
 31
0.0
  0
LINE
  8
0
 62
     0
 10
269.569
 20
126.341
 30
0.0
 11
283.556
 21
126.341
 31
0.0
  0
LINE
  8
0
 62
     0
 10
283.556
 20
126.341
 30
0.0
 11
283.556
 21
112.353
 31
0.0
  0
LINE
  8
0
 62
     0
 10
283.556
 20
112.353
 30
0.0
 11
269.569
 21
112.353
 31
0.0
  0
LINE
  8
0
 62
     0
 10
269.569
 20
112.353
 30
0.0
 11
269.569
 21
126.341
 31
0.0
  0
LINE
  8
0
 62
     0
 10
298.144
 20
126.341
 30
0.0
 11
312.131
 21
126.341
 31
0.0
  0
LINE
  8
0
 62
     0
 10
312.131
 20
126.341
 30
0.0
 11
312.131
 21
112.353
 31
0.0
  0
LINE
  8
0
 62
     0
 10
312.131
 20
112.353
 30
0.0
 11
298.144
 21
112.353
 31
0.0
  0
LINE
  8
0
 62
     0
 10
298.144
 20
112.353
 30
0.0
 11
298.144
 21
126.341
 31
0.0
  0
LINE
  8
0
 62
     0
 10
317.194
 20
126.341
 30
0.0
 11
331.181
 21
126.341
 31
0.0
  0
LINE
  8
0
 62
     0
 10
331.181
 20
126.341
 30
0.0
 11
331.181
 21
112.353
 31
0.0
  0
LINE
  8
0
 62
     0
 10
331.181
 20
112.353
 30
0.0
 11
317.194
 21
112.353
 31
0.0
  0
LINE
  8
0
 62
     0
 10
317.194
 20
112.353
 30
0.0
 11
317.194
 21
126.341
 31
0.0
  0
LINE
  8
0
 62
     0
 10
336.244
 20
126.341
 30
0.0
 11
350.231
 21
126.341
 31
0.0
  0
LINE
  8
0
 62
     0
 10
350.231
 20
126.341
 30
0.0
 11
350.231
 21
112.353
 31
0.0
  0
LINE
  8
0
 62
     0
 10
350.231
 20
112.353
 30
0.0
 11
336.244
 21
112.353
 31
0.0
  0
LINE
  8
0
 62
     0
 10
336.244
 20
112.353
 30
0.0
 11
336.244
 21
126.341
 31
0.0
  0
LINE
  8
0
 62
     0
 10
355.293
 20
126.341
 30
0.0
 11
369.281
 21
126.341
 31
0.0
  0
LINE
  8
0
 62
     0
 10
369.281
 20
126.341
 30
0.0
 11
369.281
 21
112.353
 31
0.0
  0
LINE
  8
0
 62
     0
 10
369.281
 20
112.353
 30
0.0
 11
355.293
 21
112.353
 31
0.0
  0
LINE
  8
0
 62
     0
 10
355.293
 20
112.353
 30
0.0
 11
355.293
 21
126.341
 31
0.0
  0
LINE
  8
0
 62
     0
 10
379.106
 20
126.341
 30
0.0
 11
393.097
 21
126.341
 31
0.0
  0
LINE
  8
0
 62
     0
 10
393.097
 20
126.341
 30
0.0
 11
393.097
 21
112.353
 31
0.0
  0
LINE
  8
0
 62
     0
 10
393.097
 20
112.353
 30
0.0
 11
379.106
 21
112.353
 31
0.0
  0
LINE
  8
0
 62
     0
 10
379.106
 20
112.353
 30
0.0
 11
379.106
 21
126.341
 31
0.0
  0
LINE
  8
0
 62
     0
 10
398.156
 20
126.341
 30
0.0
 11
412.147
 21
126.341
 31
0.0
  0
LINE
  8
0
 62
     0
 10
412.147
 20
126.341
 30
0.0
 11
412.147
 21
112.353
 31
0.0
  0
LINE
  8
0
 62
     0
 10
412.147
 20
112.353
 30
0.0
 11
398.156
 21
112.353
 31
0.0
  0
LINE
  8
0
 62
     0
 10
398.156
 20
112.353
 30
0.0
 11
398.156
 21
126.341
 31
0.0
  0
LINE
  8
0
 62
     0
 10
417.206
 20
126.341
 30
0.0
 11
431.197
 21
126.341
 31
0.0
  0
LINE
  8
0
 62
     0
 10
431.197
 20
126.341
 30
0.0
 11
431.197
 21
112.353
 31
0.0
  0
LINE
  8
0
 62
     0
 10
431.197
 20
112.353
 30
0.0
 11
417.206
 21
112.353
 31
0.0
  0
LINE
  8
0
 62
     0
 10
417.206
 20
112.353
 30
0.0
 11
417.206
 21
126.341
 31
0.0
  0
LINE
  8
0
 62
     0
 10
55.2566
 20
145.391
 30
0.0
 11
69.245
 21
145.391
 31
0.0
  0
LINE
  8
0
 62
     0
 10
69.245
 20
145.391
 30
0.0
 11
69.245
 21
131.404
 31
0.0
  0
LINE
  8
0
 62
     0
 10
69.245
 20
131.404
 30
0.0
 11
55.2566
 21
131.404
 31
0.0
  0
LINE
  8
0
 62
     0
 10
55.2566
 20
131.404
 30
0.0
 11
55.2566
 21
145.391
 31
0.0
  0
LINE
  8
0
 62
     0
 10
88.5941
 20
145.391
 30
0.0
 11
102.581
 21
145.391
 31
0.0
  0
LINE
  8
0
 62
     0
 10
102.581
 20
145.391
 30
0.0
 11
102.581
 21
131.404
 31
0.0
  0
LINE
  8
0
 62
     0
 10
102.581
 20
131.404
 30
0.0
 11
88.5941
 21
131.404
 31
0.0
  0
LINE
  8
0
 62
     0
 10
88.5941
 20
131.404
 30
0.0
 11
88.5941
 21
145.391
 31
0.0
  0
LINE
  8
0
 62
     0
 10
126.694
 20
145.391
 30
0.0
 11
140.681
 21
145.391
 31
0.0
  0
LINE
  8
0
 62
     0
 10
140.681
 20
145.391
 30
0.0
 11
140.681
 21
131.404
 31
0.0
  0
LINE
  8
0
 62
     0
 10
140.681
 20
131.404
 30
0.0
 11
126.694
 21
131.404
 31
0.0
  0
LINE
  8
0
 62
     0
 10
126.694
 20
131.404
 30
0.0
 11
126.694
 21
145.391
 31
0.0
  0
LINE
  8
0
 62
     0
 10
145.744
 20
145.391
 30
0.0
 11
159.731
 21
145.391
 31
0.0
  0
LINE
  8
0
 62
     0
 10
159.731
 20
145.391
 30
0.0
 11
159.731
 21
131.404
 31
0.0
  0
LINE
  8
0
 62
     0
 10
159.731
 20
131.404
 30
0.0
 11
145.744
 21
131.404
 31
0.0
  0
LINE
  8
0
 62
     0
 10
145.744
 20
131.404
 30
0.0
 11
145.744
 21
145.391
 31
0.0
  0
LINE
  8
0
 62
     0
 10
164.794
 20
145.391
 30
0.0
 11
178.781
 21
145.391
 31
0.0
  0
LINE
  8
0
 62
     0
 10
178.781
 20
145.391
 30
0.0
 11
178.781
 21
131.404
 31
0.0
  0
LINE
  8
0
 62
     0
 10
178.781
 20
131.404
 30
0.0
 11
164.794
 21
131.404
 31
0.0
  0
LINE
  8
0
 62
     0
 10
164.794
 20
131.404
 30
0.0
 11
164.794
 21
145.391
 31
0.0
  0
LINE
  8
0
 62
     0
 10
183.844
 20
145.391
 30
0.0
 11
197.831
 21
145.391
 31
0.0
  0
LINE
  8
0
 62
     0
 10
197.831
 20
145.391
 30
0.0
 11
197.831
 21
131.404
 31
0.0
  0
LINE
  8
0
 62
     0
 10
197.831
 20
131.404
 30
0.0
 11
183.844
 21
131.404
 31
0.0
  0
LINE
  8
0
 62
     0
 10
183.844
 20
131.404
 30
0.0
 11
183.844
 21
145.391
 31
0.0
  0
LINE
  8
0
 62
     0
 10
212.419
 20
145.391
 30
0.0
 11
226.406
 21
145.391
 31
0.0
  0
LINE
  8
0
 62
     0
 10
226.406
 20
145.391
 30
0.0
 11
226.406
 21
131.404
 31
0.0
  0
LINE
  8
0
 62
     0
 10
226.406
 20
131.404
 30
0.0
 11
212.419
 21
131.404
 31
0.0
  0
LINE
  8
0
 62
     0
 10
212.419
 20
131.404
 30
0.0
 11
212.419
 21
145.391
 31
0.0
  0
LINE
  8
0
 62
     0
 10
231.469
 20
145.391
 30
0.0
 11
245.456
 21
145.391
 31
0.0
  0
LINE
  8
0
 62
     0
 10
245.456
 20
145.391
 30
0.0
 11
245.456
 21
131.404
 31
0.0
  0
LINE
  8
0
 62
     0
 10
245.456
 20
131.404
 30
0.0
 11
231.469
 21
131.404
 31
0.0
  0
LINE
  8
0
 62
     0
 10
231.469
 20
131.404
 30
0.0
 11
231.469
 21
145.391
 31
0.0
  0
LINE
  8
0
 62
     0
 10
250.519
 20
145.391
 30
0.0
 11
264.506
 21
145.391
 31
0.0
  0
LINE
  8
0
 62
     0
 10
264.506
 20
145.391
 30
0.0
 11
264.506
 21
131.404
 31
0.0
  0
LINE
  8
0
 62
     0
 10
264.506
 20
131.404
 30
0.0
 11
250.519
 21
131.404
 31
0.0
  0
LINE
  8
0
 62
     0
 10
250.519
 20
131.404
 30
0.0
 11
250.519
 21
145.391
 31
0.0
  0
LINE
  8
0
 62
     0
 10
269.569
 20
145.391
 30
0.0
 11
283.556
 21
145.391
 31
0.0
  0
LINE
  8
0
 62
     0
 10
283.556
 20
145.391
 30
0.0
 11
283.556
 21
131.404
 31
0.0
  0
LINE
  8
0
 62
     0
 10
283.556
 20
131.404
 30
0.0
 11
269.569
 21
131.404
 31
0.0
  0
LINE
  8
0
 62
     0
 10
269.569
 20
131.404
 30
0.0
 11
269.569
 21
145.391
 31
0.0
  0
LINE
  8
0
 62
     0
 10
298.144
 20
145.391
 30
0.0
 11
312.131
 21
145.391
 31
0.0
  0
LINE
  8
0
 62
     0
 10
312.131
 20
145.391
 30
0.0
 11
312.131
 21
131.404
 31
0.0
  0
LINE
  8
0
 62
     0
 10
312.131
 20
131.404
 30
0.0
 11
298.144
 21
131.404
 31
0.0
  0
LINE
  8
0
 62
     0
 10
298.144
 20
131.404
 30
0.0
 11
298.144
 21
145.391
 31
0.0
  0
LINE
  8
0
 62
     0
 10
317.194
 20
145.391
 30
0.0
 11
331.181
 21
145.391
 31
0.0
  0
LINE
  8
0
 62
     0
 10
331.181
 20
145.391
 30
0.0
 11
331.181
 21
131.404
 31
0.0
  0
LINE
  8
0
 62
     0
 10
331.181
 20
131.404
 30
0.0
 11
317.194
 21
131.404
 31
0.0
  0
LINE
  8
0
 62
     0
 10
317.194
 20
131.404
 30
0.0
 11
317.194
 21
145.391
 31
0.0
  0
LINE
  8
0
 62
     0
 10
336.244
 20
145.391
 30
0.0
 11
350.231
 21
145.391
 31
0.0
  0
LINE
  8
0
 62
     0
 10
350.231
 20
145.391
 30
0.0
 11
350.231
 21
131.404
 31
0.0
  0
LINE
  8
0
 62
     0
 10
350.231
 20
131.404
 30
0.0
 11
336.244
 21
131.404
 31
0.0
  0
LINE
  8
0
 62
     0
 10
336.244
 20
131.404
 30
0.0
 11
336.244
 21
145.391
 31
0.0
  0
LINE
  8
0
 62
     0
 10
355.293
 20
145.391
 30
0.0
 11
369.281
 21
145.391
 31
0.0
  0
LINE
  8
0
 62
     0
 10
369.281
 20
145.391
 30
0.0
 11
369.281
 21
131.404
 31
0.0
  0
LINE
  8
0
 62
     0
 10
369.281
 20
131.404
 30
0.0
 11
355.293
 21
131.404
 31
0.0
  0
LINE
  8
0
 62
     0
 10
355.293
 20
131.404
 30
0.0
 11
355.293
 21
145.391
 31
0.0
  0
LINE
  8
0
 62
     0
 10
379.106
 20
145.391
 30
0.0
 11
393.097
 21
145.391
 31
0.0
  0
LINE
  8
0
 62
     0
 10
393.097
 20
145.391
 30
0.0
 11
393.097
 21
131.404
 31
0.0
  0
LINE
  8
0
 62
     0
 10
393.097
 20
131.404
 30
0.0
 11
379.106
 21
131.404
 31
0.0
  0
LINE
  8
0
 62
     0
 10
379.106
 20
131.404
 30
0.0
 11
379.106
 21
145.391
 31
0.0
  0
LINE
  8
0
 62
     0
 10
398.156
 20
145.391
 30
0.0
 11
412.147
 21
145.391
 31
0.0
  0
LINE
  8
0
 62
     0
 10
412.147
 20
145.391
 30
0.0
 11
412.147
 21
131.404
 31
0.0
  0
LINE
  8
0
 62
     0
 10
412.147
 20
131.404
 30
0.0
 11
398.156
 21
131.404
 31
0.0
  0
LINE
  8
0
 62
     0
 10
398.156
 20
131.404
 30
0.0
 11
398.156
 21
145.391
 31
0.0
  0
LINE
  8
0
 62
     0
 10
417.206
 20
145.391
 30
0.0
 11
431.197
 21
145.391
 31
0.0
  0
LINE
  8
0
 62
     0
 10
431.197
 20
145.391
 30
0.0
 11
431.197
 21
131.404
 31
0.0
  0
LINE
  8
0
 62
     0
 10
431.197
 20
131.404
 30
0.0
 11
417.206
 21
131.404
 31
0.0
  0
LINE
  8
0
 62
     0
 10
417.206
 20
131.404
 30
0.0
 11
417.206
 21
145.391
 31
0.0
  0
ENDSEC
  0
EOF
