  0
SECTION
  2
HEADER
  9
$ACADVER
  1
AC1009
  9
$FILLMODE
 70
 0
  9
$SPLFRAME
 70
 1
  9
$EXTMIN
 10
0
 20
0
 30
0.0
  9
$EXTMAX
 10
1058.33
 20
1058.33
 30
0.0
  0
ENDSEC
  0
SECTION
  2
TABLES
  0
TABLE
  2
LAYER
 70
1
  0
LAYER
  2
0
 70
     0
 62
     7
  6
CONTINUOUS
  0
ENDTAB
  0
ENDSEC
  0
SECTION
  2
ENTITIES
  0
LINE
  8
0
 62
     0
 10
0.0950846
 20
165.71
 30
0.0
 11
432.618
 21
165.71
 31
0.0
  0
LINE
  8
0
 62
     0
 10
432.618
 20
165.71
 30
0.0
 11
432.618
 21
0.129536
 31
0.0
  0
LINE
  8
0
 62
     0
 10
432.618
 20
0.129536
 30
0.0
 11
0.0950846
 21
0.129536
 31
0.0
  0
LINE
  8
0
 62
     0
 10
0.0950846
 20
0.129536
 30
0.0
 11
0.0950846
 21
165.71
 31
0.0
  0
LINE
  8
0
 62
     0
 10
7.49378
 20
22.2112
 30
0.0
 11
7.49378
 21
21.2314
 31
0.0
  0
LINE
  8
0
 62
     0
 10
7.49378
 20
21.2314
 30
0.0
 11
5.76848
 21
21.2314
 31
0.0
  0
LINE
  8
0
 62
     0
 10
5.76848
 20
21.2314
 30
0.0
 11
5.76848
 21
14.9614
 31
0.0
  0
LINE
  8
0
 62
     0
 10
5.76848
 20
14.9614
 30
0.0
 11
4.94302
 21
14.9614
 31
0.0
  0
LINE
  8
0
 62
     0
 10
4.94302
 20
14.9614
 30
0.0
 11
4.94302
 21
12.0606
 31
0.0
  0
LINE
  8
0
 62
     0
 10
4.94302
 20
12.0606
 30
0.0
 11
5.76848
 21
12.0606
 31
0.0
  0
LINE
  8
0
 62
     0
 10
5.76848
 20
12.0606
 30
0.0
 11
5.76848
 21
8.83049
 31
0.0
  0
LINE
  8
0
 62
     0
 10
5.76848
 20
8.83049
 30
0.0
 11
7.49378
 21
8.83049
 31
0.0
  0
LINE
  8
0
 62
     0
 10
7.49378
 20
8.83049
 30
0.0
 11
7.49378
 21
7.91132
 31
0.0
  0
LINE
  8
0
 62
     0
 10
7.49378
 20
7.91132
 30
0.0
 11
10.8948
 21
7.91132
 31
0.0
  0
LINE
  8
0
 62
     0
 10
10.8948
 20
7.91132
 30
0.0
 11
10.8948
 21
8.83049
 31
0.0
  0
LINE
  8
0
 62
     0
 10
10.8948
 20
8.83049
 30
0.0
 11
12.6201
 21
8.83049
 31
0.0
  0
LINE
  8
0
 62
     0
 10
12.6201
 20
8.83049
 30
0.0
 11
12.6201
 21
12.0606
 31
0.0
  0
LINE
  8
0
 62
     0
 10
12.6201
 20
12.0606
 30
0.0
 11
14.045
 21
12.0606
 31
0.0
  0
LINE
  8
0
 62
     0
 10
14.045
 20
12.0606
 30
0.0
 11
14.045
 21
7.36148
 31
0.0
  0
LINE
  8
0
 62
     0
 10
14.045
 20
7.36148
 30
0.0
 11
28.1451
 21
7.36148
 31
0.0
  0
LINE
  8
0
 62
     0
 10
28.1451
 20
7.36148
 30
0.0
 11
28.1451
 21
12.0606
 31
0.0
  0
LINE
  8
0
 62
     0
 10
28.1451
 20
12.0606
 30
0.0
 11
29.5699
 21
12.0606
 31
0.0
  0
LINE
  8
0
 62
     0
 10
29.5699
 20
12.0606
 30
0.0
 11
29.5699
 21
8.83049
 31
0.0
  0
LINE
  8
0
 62
     0
 10
29.5699
 20
8.83049
 30
0.0
 11
31.2939
 21
8.83049
 31
0.0
  0
LINE
  8
0
 62
     0
 10
31.2939
 20
8.83049
 30
0.0
 11
31.2939
 21
7.91132
 31
0.0
  0
LINE
  8
0
 62
     0
 10
31.2939
 20
7.91132
 30
0.0
 11
34.6949
 21
7.91132
 31
0.0
  0
LINE
  8
0
 62
     0
 10
34.6949
 20
7.91132
 30
0.0
 11
34.6949
 21
8.83049
 31
0.0
  0
LINE
  8
0
 62
     0
 10
34.6949
 20
8.83049
 30
0.0
 11
36.4201
 21
8.83049
 31
0.0
  0
LINE
  8
0
 62
     0
 10
36.4201
 20
8.83049
 30
0.0
 11
36.4201
 21
12.0606
 31
0.0
  0
LINE
  8
0
 62
     0
 10
36.4201
 20
12.0606
 30
0.0
 11
37.2442
 21
12.0606
 31
0.0
  0
LINE
  8
0
 62
     0
 10
37.2442
 20
12.0606
 30
0.0
 11
37.2442
 21
14.9614
 31
0.0
  0
LINE
  8
0
 62
     0
 10
37.2442
 20
14.9614
 30
0.0
 11
36.4201
 21
14.9614
 31
0.0
  0
LINE
  8
0
 62
     0
 10
36.4201
 20
14.9614
 30
0.0
 11
36.4201
 21
21.2314
 31
0.0
  0
LINE
  8
0
 62
     0
 10
36.4201
 20
21.2314
 30
0.0
 11
34.6949
 21
21.2314
 31
0.0
  0
LINE
  8
0
 62
     0
 10
34.6949
 20
21.2314
 30
0.0
 11
34.6949
 21
22.2112
 31
0.0
  0
LINE
  8
0
 62
     0
 10
34.6949
 20
22.2112
 30
0.0
 11
31.2939
 21
22.2112
 31
0.0
  0
LINE
  8
0
 62
     0
 10
31.2939
 20
22.2112
 30
0.0
 11
31.2939
 21
21.2314
 31
0.0
  0
LINE
  8
0
 62
     0
 10
31.2939
 20
21.2314
 30
0.0
 11
29.5699
 21
21.2314
 31
0.0
  0
LINE
  8
0
 62
     0
 10
29.5699
 20
21.2314
 30
0.0
 11
29.5699
 21
16.7611
 31
0.0
  0
LINE
  8
0
 62
     0
 10
29.5699
 20
16.7611
 30
0.0
 11
28.1451
 21
16.7611
 31
0.0
  0
LINE
  8
0
 62
     0
 10
28.1451
 20
16.7611
 30
0.0
 11
28.1451
 21
21.4616
 31
0.0
  0
LINE
  8
0
 62
     0
 10
28.1451
 20
21.4616
 30
0.0
 11
14.045
 21
21.4616
 31
0.0
  0
LINE
  8
0
 62
     0
 10
14.045
 20
21.4616
 30
0.0
 11
14.045
 21
16.7611
 31
0.0
  0
LINE
  8
0
 62
     0
 10
14.045
 20
16.7611
 30
0.0
 11
12.6201
 21
16.7611
 31
0.0
  0
LINE
  8
0
 62
     0
 10
12.6201
 20
16.7611
 30
0.0
 11
12.6201
 21
21.2314
 31
0.0
  0
LINE
  8
0
 62
     0
 10
12.6201
 20
21.2314
 30
0.0
 11
10.8948
 21
21.2314
 31
0.0
  0
LINE
  8
0
 62
     0
 10
10.8948
 20
21.2314
 30
0.0
 11
10.8934
 21
22.2112
 31
0.0
  0
LINE
  8
0
 62
     0
 10
10.8934
 20
22.2112
 30
0.0
 11
7.49378
 21
22.2112
 31
0.0
  0
LINE
  8
0
 62
     0
 10
42.6201
 20
21.4616
 30
0.0
 11
56.72
 21
21.4616
 31
0.0
  0
LINE
  8
0
 62
     0
 10
56.72
 20
21.4616
 30
0.0
 11
56.72
 21
7.36148
 31
0.0
  0
LINE
  8
0
 62
     0
 10
56.72
 20
7.36148
 30
0.0
 11
42.6201
 21
7.36148
 31
0.0
  0
LINE
  8
0
 62
     0
 10
42.6201
 20
7.36148
 30
0.0
 11
42.6201
 21
21.4616
 31
0.0
  0
LINE
  8
0
 62
     0
 10
87.8625
 20
21.4616
 30
0.0
 11
101.962
 21
21.4616
 31
0.0
  0
LINE
  8
0
 62
     0
 10
101.962
 20
21.4616
 30
0.0
 11
101.962
 21
7.36148
 31
0.0
  0
LINE
  8
0
 62
     0
 10
101.962
 20
7.36148
 30
0.0
 11
87.8625
 21
7.36148
 31
0.0
  0
LINE
  8
0
 62
     0
 10
87.8625
 20
7.36148
 30
0.0
 11
87.8625
 21
21.4616
 31
0.0
  0
LINE
  8
0
 62
     0
 10
111.675
 20
21.4616
 30
0.0
 11
125.775
 21
21.4616
 31
0.0
  0
LINE
  8
0
 62
     0
 10
125.775
 20
21.4616
 30
0.0
 11
125.775
 21
7.36148
 31
0.0
  0
LINE
  8
0
 62
     0
 10
125.775
 20
7.36148
 30
0.0
 11
111.675
 21
7.36148
 31
0.0
  0
LINE
  8
0
 62
     0
 10
111.675
 20
7.36148
 30
0.0
 11
111.675
 21
21.4616
 31
0.0
  0
LINE
  8
0
 62
     0
 10
135.487
 20
21.4616
 30
0.0
 11
149.587
 21
21.4616
 31
0.0
  0
LINE
  8
0
 62
     0
 10
149.587
 20
21.4616
 30
0.0
 11
149.587
 21
7.36148
 31
0.0
  0
LINE
  8
0
 62
     0
 10
149.587
 20
7.36148
 30
0.0
 11
135.487
 21
7.36148
 31
0.0
  0
LINE
  8
0
 62
     0
 10
135.487
 20
7.36148
 30
0.0
 11
135.487
 21
21.4616
 31
0.0
  0
LINE
  8
0
 62
     0
 10
162.275
 20
22.2112
 30
0.0
 11
162.275
 21
21.2314
 31
0.0
  0
LINE
  8
0
 62
     0
 10
162.275
 20
21.2314
 30
0.0
 11
160.551
 21
21.2314
 31
0.0
  0
LINE
  8
0
 62
     0
 10
160.551
 20
21.2314
 30
0.0
 11
160.551
 21
14.9614
 31
0.0
  0
LINE
  8
0
 62
     0
 10
160.551
 20
14.9614
 30
0.0
 11
159.726
 21
14.9614
 31
0.0
  0
LINE
  8
0
 62
     0
 10
159.726
 20
14.9614
 30
0.0
 11
159.726
 21
12.0606
 31
0.0
  0
LINE
  8
0
 62
     0
 10
159.726
 20
12.0606
 30
0.0
 11
160.551
 21
12.0606
 31
0.0
  0
LINE
  8
0
 62
     0
 10
160.551
 20
12.0606
 30
0.0
 11
160.551
 21
8.83049
 31
0.0
  0
LINE
  8
0
 62
     0
 10
160.551
 20
8.83049
 30
0.0
 11
162.275
 21
8.83049
 31
0.0
  0
LINE
  8
0
 62
     0
 10
162.275
 20
8.83049
 30
0.0
 11
162.275
 21
7.91132
 31
0.0
  0
LINE
  8
0
 62
     0
 10
162.275
 20
7.91132
 30
0.0
 11
165.676
 21
7.91132
 31
0.0
  0
LINE
  8
0
 62
     0
 10
165.676
 20
7.91132
 30
0.0
 11
165.676
 21
8.83049
 31
0.0
  0
LINE
  8
0
 62
     0
 10
165.676
 20
8.83049
 30
0.0
 11
167.4
 21
8.83049
 31
0.0
  0
LINE
  8
0
 62
     0
 10
167.4
 20
8.83049
 30
0.0
 11
167.4
 21
12.0606
 31
0.0
  0
LINE
  8
0
 62
     0
 10
167.4
 20
12.0606
 30
0.0
 11
206.925
 21
12.0606
 31
0.0
  0
LINE
  8
0
 62
     0
 10
206.925
 20
12.0606
 30
0.0
 11
206.925
 21
7.36148
 31
0.0
  0
LINE
  8
0
 62
     0
 10
206.925
 20
7.36148
 30
0.0
 11
221.025
 21
7.36148
 31
0.0
  0
LINE
  8
0
 62
     0
 10
221.025
 20
7.36148
 30
0.0
 11
221.025
 21
12.0606
 31
0.0
  0
LINE
  8
0
 62
     0
 10
221.025
 20
12.0606
 30
0.0
 11
260.55
 21
12.0606
 31
0.0
  0
LINE
  8
0
 62
     0
 10
260.55
 20
12.0606
 30
0.0
 11
260.55
 21
8.83049
 31
0.0
  0
LINE
  8
0
 62
     0
 10
260.55
 20
8.83049
 30
0.0
 11
262.275
 21
8.83049
 31
0.0
  0
LINE
  8
0
 62
     0
 10
262.275
 20
8.83049
 30
0.0
 11
262.275
 21
7.91132
 31
0.0
  0
LINE
  8
0
 62
     0
 10
262.275
 20
7.91132
 30
0.0
 11
265.676
 21
7.91132
 31
0.0
  0
LINE
  8
0
 62
     0
 10
265.676
 20
7.91132
 30
0.0
 11
265.676
 21
8.83049
 31
0.0
  0
LINE
  8
0
 62
     0
 10
265.676
 20
8.83049
 30
0.0
 11
267.4
 21
8.83049
 31
0.0
  0
LINE
  8
0
 62
     0
 10
267.4
 20
8.83049
 30
0.0
 11
267.4
 21
12.0606
 31
0.0
  0
LINE
  8
0
 62
     0
 10
267.4
 20
12.0606
 30
0.0
 11
268.225
 21
12.0606
 31
0.0
  0
LINE
  8
0
 62
     0
 10
268.225
 20
12.0606
 30
0.0
 11
268.225
 21
14.9614
 31
0.0
  0
LINE
  8
0
 62
     0
 10
268.225
 20
14.9614
 30
0.0
 11
267.4
 21
14.9614
 31
0.0
  0
LINE
  8
0
 62
     0
 10
267.4
 20
14.9614
 30
0.0
 11
267.4
 21
21.2314
 31
0.0
  0
LINE
  8
0
 62
     0
 10
267.4
 20
21.2314
 30
0.0
 11
265.676
 21
21.2314
 31
0.0
  0
LINE
  8
0
 62
     0
 10
265.676
 20
21.2314
 30
0.0
 11
265.676
 21
22.2112
 31
0.0
  0
LINE
  8
0
 62
     0
 10
265.676
 20
22.2112
 30
0.0
 11
262.275
 21
22.2112
 31
0.0
  0
LINE
  8
0
 62
     0
 10
262.275
 20
22.2112
 30
0.0
 11
262.275
 21
21.2314
 31
0.0
  0
LINE
  8
0
 62
     0
 10
262.275
 20
21.2314
 30
0.0
 11
260.55
 21
21.2314
 31
0.0
  0
LINE
  8
0
 62
     0
 10
260.55
 20
21.2314
 30
0.0
 11
260.55
 21
16.7611
 31
0.0
  0
LINE
  8
0
 62
     0
 10
260.55
 20
16.7611
 30
0.0
 11
221.025
 21
16.7611
 31
0.0
  0
LINE
  8
0
 62
     0
 10
221.025
 20
16.7611
 30
0.0
 11
221.025
 21
21.4616
 31
0.0
  0
LINE
  8
0
 62
     0
 10
221.025
 20
21.4616
 30
0.0
 11
206.925
 21
21.4616
 31
0.0
  0
LINE
  8
0
 62
     0
 10
206.925
 20
21.4616
 30
0.0
 11
206.925
 21
16.7611
 31
0.0
  0
LINE
  8
0
 62
     0
 10
206.925
 20
16.7611
 30
0.0
 11
167.4
 21
16.7611
 31
0.0
  0
LINE
  8
0
 62
     0
 10
167.4
 20
16.7611
 30
0.0
 11
167.4
 21
21.2314
 31
0.0
  0
LINE
  8
0
 62
     0
 10
167.4
 20
21.2314
 30
0.0
 11
165.676
 21
21.2314
 31
0.0
  0
LINE
  8
0
 62
     0
 10
165.676
 20
21.2314
 30
0.0
 11
165.676
 21
22.2112
 31
0.0
  0
LINE
  8
0
 62
     0
 10
165.676
 20
22.2112
 30
0.0
 11
162.275
 21
22.2112
 31
0.0
  0
LINE
  8
0
 62
     0
 10
278.362
 20
21.4616
 30
0.0
 11
292.462
 21
21.4616
 31
0.0
  0
LINE
  8
0
 62
     0
 10
292.462
 20
21.4616
 30
0.0
 11
292.462
 21
7.36148
 31
0.0
  0
LINE
  8
0
 62
     0
 10
292.462
 20
7.36148
 30
0.0
 11
278.362
 21
7.36148
 31
0.0
  0
LINE
  8
0
 62
     0
 10
278.362
 20
7.36148
 30
0.0
 11
278.362
 21
21.4616
 31
0.0
  0
LINE
  8
0
 62
     0
 10
302.175
 20
21.4616
 30
0.0
 11
316.275
 21
21.4616
 31
0.0
  0
LINE
  8
0
 62
     0
 10
316.275
 20
21.4616
 30
0.0
 11
316.275
 21
7.36148
 31
0.0
  0
LINE
  8
0
 62
     0
 10
316.275
 20
7.36148
 30
0.0
 11
302.175
 21
7.36148
 31
0.0
  0
LINE
  8
0
 62
     0
 10
302.175
 20
7.36148
 30
0.0
 11
302.175
 21
21.4616
 31
0.0
  0
LINE
  8
0
 62
     0
 10
325.987
 20
21.4616
 30
0.0
 11
340.087
 21
21.4616
 31
0.0
  0
LINE
  8
0
 62
     0
 10
340.087
 20
21.4616
 30
0.0
 11
340.087
 21
7.36148
 31
0.0
  0
LINE
  8
0
 62
     0
 10
340.087
 20
7.36148
 30
0.0
 11
325.987
 21
7.36148
 31
0.0
  0
LINE
  8
0
 62
     0
 10
325.987
 20
7.36148
 30
0.0
 11
325.987
 21
21.4616
 31
0.0
  0
LINE
  8
0
 62
     0
 10
349.8
 20
21.4616
 30
0.0
 11
363.901
 21
21.4616
 31
0.0
  0
LINE
  8
0
 62
     0
 10
363.901
 20
21.4616
 30
0.0
 11
363.901
 21
7.36148
 31
0.0
  0
LINE
  8
0
 62
     0
 10
363.901
 20
7.36148
 30
0.0
 11
349.8
 21
7.36148
 31
0.0
  0
LINE
  8
0
 62
     0
 10
349.8
 20
7.36148
 30
0.0
 11
349.8
 21
21.4616
 31
0.0
  0
LINE
  8
0
 62
     0
 10
375.994
 20
21.4616
 30
0.0
 11
390.095
 21
21.4616
 31
0.0
  0
LINE
  8
0
 62
     0
 10
390.095
 20
21.4616
 30
0.0
 11
390.095
 21
7.36148
 31
0.0
  0
LINE
  8
0
 62
     0
 10
390.095
 20
7.36148
 30
0.0
 11
375.994
 21
7.36148
 31
0.0
  0
LINE
  8
0
 62
     0
 10
375.994
 20
7.36148
 30
0.0
 11
375.994
 21
21.4616
 31
0.0
  0
LINE
  8
0
 62
     0
 10
395.044
 20
21.4616
 30
0.0
 11
409.145
 21
21.4616
 31
0.0
  0
LINE
  8
0
 62
     0
 10
409.145
 20
21.4616
 30
0.0
 11
409.145
 21
7.36148
 31
0.0
  0
LINE
  8
0
 62
     0
 10
409.145
 20
7.36148
 30
0.0
 11
395.044
 21
7.36148
 31
0.0
  0
LINE
  8
0
 62
     0
 10
395.044
 20
7.36148
 30
0.0
 11
395.044
 21
21.4616
 31
0.0
  0
LINE
  8
0
 62
     0
 10
414.094
 20
21.4616
 30
0.0
 11
428.195
 21
21.4616
 31
0.0
  0
LINE
  8
0
 62
     0
 10
428.195
 20
21.4616
 30
0.0
 11
428.195
 21
7.36148
 31
0.0
  0
LINE
  8
0
 62
     0
 10
428.195
 20
7.36148
 30
0.0
 11
414.094
 21
7.36148
 31
0.0
  0
LINE
  8
0
 62
     0
 10
414.094
 20
7.36148
 30
0.0
 11
414.094
 21
21.4616
 31
0.0
  0
LINE
  8
0
 62
     0
 10
68.1701
 20
40.0858
 30
0.0
 11
68.1701
 21
39.2617
 31
0.0
  0
LINE
  8
0
 62
     0
 10
68.1701
 20
39.2617
 30
0.0
 11
61.9002
 21
39.2617
 31
0.0
  0
LINE
  8
0
 62
     0
 10
61.9002
 20
39.2617
 30
0.0
 11
61.9002
 21
37.5363
 31
0.0
  0
LINE
  8
0
 62
     0
 10
61.9002
 20
37.5363
 30
0.0
 11
60.9191
 21
37.5363
 31
0.0
  0
LINE
  8
0
 62
     0
 10
60.9191
 20
37.5363
 30
0.0
 11
60.9191
 21
34.1354
 31
0.0
  0
LINE
  8
0
 62
     0
 10
60.9191
 20
34.1354
 30
0.0
 11
61.9002
 21
34.1354
 31
0.0
  0
LINE
  8
0
 62
     0
 10
61.9002
 20
34.1354
 30
0.0
 11
61.9002
 21
32.4115
 31
0.0
  0
LINE
  8
0
 62
     0
 10
61.9002
 20
32.4115
 30
0.0
 11
66.3691
 21
32.4115
 31
0.0
  0
LINE
  8
0
 62
     0
 10
66.3691
 20
32.4115
 30
0.0
 11
66.3691
 21
30.9866
 31
0.0
  0
LINE
  8
0
 62
     0
 10
66.3691
 20
30.9866
 30
0.0
 11
61.6701
 21
30.9866
 31
0.0
  0
LINE
  8
0
 62
     0
 10
61.6701
 20
30.9866
 30
0.0
 11
61.6701
 21
16.8865
 31
0.0
  0
LINE
  8
0
 62
     0
 10
61.6701
 20
16.8865
 30
0.0
 11
66.3691
 21
16.8865
 31
0.0
  0
LINE
  8
0
 62
     0
 10
66.3691
 20
16.8865
 30
0.0
 11
66.3691
 21
15.4616
 31
0.0
  0
LINE
  8
0
 62
     0
 10
66.3691
 20
15.4616
 30
0.0
 11
61.9002
 21
15.4616
 31
0.0
  0
LINE
  8
0
 62
     0
 10
61.9002
 20
15.4616
 30
0.0
 11
61.9002
 21
13.7363
 31
0.0
  0
LINE
  8
0
 62
     0
 10
61.9002
 20
13.7363
 30
0.0
 11
60.9191
 21
13.7363
 31
0.0
  0
LINE
  8
0
 62
     0
 10
60.9191
 20
13.7363
 30
0.0
 11
60.9191
 21
10.3367
 31
0.0
  0
LINE
  8
0
 62
     0
 10
60.9191
 20
10.3367
 30
0.0
 11
61.9002
 21
10.3367
 31
0.0
  0
LINE
  8
0
 62
     0
 10
61.9002
 20
10.3367
 30
0.0
 11
61.9002
 21
8.61138
 31
0.0
  0
LINE
  8
0
 62
     0
 10
61.9002
 20
8.61138
 30
0.0
 11
68.1701
 21
8.61138
 31
0.0
  0
LINE
  8
0
 62
     0
 10
68.1701
 20
8.61138
 30
0.0
 11
68.1701
 21
7.78591
 31
0.0
  0
LINE
  8
0
 62
     0
 10
68.1701
 20
7.78591
 30
0.0
 11
71.0696
 21
7.78591
 31
0.0
  0
LINE
  8
0
 62
     0
 10
71.0696
 20
7.78591
 30
0.0
 11
71.0696
 21
8.61138
 31
0.0
  0
LINE
  8
0
 62
     0
 10
71.0696
 20
8.61138
 30
0.0
 11
74.2996
 21
8.61138
 31
0.0
  0
LINE
  8
0
 62
     0
 10
74.2996
 20
8.61138
 30
0.0
 11
74.2996
 21
10.3367
 31
0.0
  0
LINE
  8
0
 62
     0
 10
74.2996
 20
10.3367
 30
0.0
 11
75.2189
 21
10.3367
 31
0.0
  0
LINE
  8
0
 62
     0
 10
75.2189
 20
10.3367
 30
0.0
 11
75.2189
 21
13.7363
 31
0.0
  0
LINE
  8
0
 62
     0
 10
75.2189
 20
13.7363
 30
0.0
 11
74.2996
 21
13.7363
 31
0.0
  0
LINE
  8
0
 62
     0
 10
74.2996
 20
13.7363
 30
0.0
 11
74.2996
 21
15.4616
 31
0.0
  0
LINE
  8
0
 62
     0
 10
74.2996
 20
15.4616
 30
0.0
 11
71.0696
 21
15.4616
 31
0.0
  0
LINE
  8
0
 62
     0
 10
71.0696
 20
15.4616
 30
0.0
 11
71.0696
 21
16.8865
 31
0.0
  0
LINE
  8
0
 62
     0
 10
71.0696
 20
16.8865
 30
0.0
 11
75.77
 21
16.8865
 31
0.0
  0
LINE
  8
0
 62
     0
 10
75.77
 20
16.8865
 30
0.0
 11
75.77
 21
30.9866
 31
0.0
  0
LINE
  8
0
 62
     0
 10
75.77
 20
30.9866
 30
0.0
 11
71.0696
 21
30.9866
 31
0.0
  0
LINE
  8
0
 62
     0
 10
71.0696
 20
30.9866
 30
0.0
 11
71.0696
 21
32.4115
 31
0.0
  0
LINE
  8
0
 62
     0
 10
71.0696
 20
32.4115
 30
0.0
 11
74.2996
 21
32.4115
 31
0.0
  0
LINE
  8
0
 62
     0
 10
74.2996
 20
32.4115
 30
0.0
 11
74.2996
 21
34.1354
 31
0.0
  0
LINE
  8
0
 62
     0
 10
74.2996
 20
34.1354
 30
0.0
 11
75.2189
 21
34.1354
 31
0.0
  0
LINE
  8
0
 62
     0
 10
75.2189
 20
34.1354
 30
0.0
 11
75.2189
 21
37.5363
 31
0.0
  0
LINE
  8
0
 62
     0
 10
75.2189
 20
37.5363
 30
0.0
 11
74.2996
 21
37.5363
 31
0.0
  0
LINE
  8
0
 62
     0
 10
74.2996
 20
37.5363
 30
0.0
 11
74.2996
 21
39.2617
 31
0.0
  0
LINE
  8
0
 62
     0
 10
74.2996
 20
39.2617
 30
0.0
 11
71.0696
 21
39.2617
 31
0.0
  0
LINE
  8
0
 62
     0
 10
71.0696
 20
39.2617
 30
0.0
 11
71.0696
 21
40.0858
 31
0.0
  0
LINE
  8
0
 62
     0
 10
71.0696
 20
40.0858
 30
0.0
 11
68.1701
 21
40.0858
 31
0.0
  0
LINE
  8
0
 62
     0
 10
4.51997
 20
40.5116
 30
0.0
 11
18.6201
 21
40.5116
 31
0.0
  0
LINE
  8
0
 62
     0
 10
18.6201
 20
40.5116
 30
0.0
 11
18.6201
 21
26.4115
 31
0.0
  0
LINE
  8
0
 62
     0
 10
18.6201
 20
26.4115
 30
0.0
 11
4.51997
 21
26.4115
 31
0.0
  0
LINE
  8
0
 62
     0
 10
4.51997
 20
26.4115
 30
0.0
 11
4.51997
 21
40.5116
 31
0.0
  0
LINE
  8
0
 62
     0
 10
23.57
 20
40.5116
 30
0.0
 11
37.67
 21
40.5116
 31
0.0
  0
LINE
  8
0
 62
     0
 10
37.67
 20
40.5116
 30
0.0
 11
37.67
 21
26.4115
 31
0.0
  0
LINE
  8
0
 62
     0
 10
37.67
 20
26.4115
 30
0.0
 11
23.57
 21
26.4115
 31
0.0
  0
LINE
  8
0
 62
     0
 10
23.57
 20
26.4115
 30
0.0
 11
23.57
 21
40.5116
 31
0.0
  0
LINE
  8
0
 62
     0
 10
42.6201
 20
40.5116
 30
0.0
 11
56.72
 21
40.5116
 31
0.0
  0
LINE
  8
0
 62
     0
 10
56.72
 20
40.5116
 30
0.0
 11
56.72
 21
26.4115
 31
0.0
  0
LINE
  8
0
 62
     0
 10
56.72
 20
26.4115
 30
0.0
 11
42.6201
 21
26.4115
 31
0.0
  0
LINE
  8
0
 62
     0
 10
42.6201
 20
26.4115
 30
0.0
 11
42.6201
 21
40.5116
 31
0.0
  0
LINE
  8
0
 62
     0
 10
90.8375
 20
41.2627
 30
0.0
 11
90.8375
 21
40.2816
 31
0.0
  0
LINE
  8
0
 62
     0
 10
90.8375
 20
40.2816
 30
0.0
 11
89.1124
 21
40.2816
 31
0.0
  0
LINE
  8
0
 62
     0
 10
89.1124
 20
40.2816
 30
0.0
 11
89.1124
 21
34.0114
 31
0.0
  0
LINE
  8
0
 62
     0
 10
89.1124
 20
34.0114
 30
0.0
 11
88.2883
 21
34.0114
 31
0.0
  0
LINE
  8
0
 62
     0
 10
88.2883
 20
34.0114
 30
0.0
 11
88.2883
 21
31.1106
 31
0.0
  0
LINE
  8
0
 62
     0
 10
88.2883
 20
31.1106
 30
0.0
 11
89.1124
 21
31.1106
 31
0.0
  0
LINE
  8
0
 62
     0
 10
89.1124
 20
31.1106
 30
0.0
 11
89.1124
 21
27.8805
 31
0.0
  0
LINE
  8
0
 62
     0
 10
89.1124
 20
27.8805
 30
0.0
 11
90.8375
 21
27.8805
 31
0.0
  0
LINE
  8
0
 62
     0
 10
90.8375
 20
27.8805
 30
0.0
 11
90.8375
 21
26.9613
 31
0.0
  0
LINE
  8
0
 62
     0
 10
90.8375
 20
26.9613
 30
0.0
 11
94.2372
 21
26.9613
 31
0.0
  0
LINE
  8
0
 62
     0
 10
94.2372
 20
26.9613
 30
0.0
 11
94.2372
 21
27.8805
 31
0.0
  0
LINE
  8
0
 62
     0
 10
94.2372
 20
27.8805
 30
0.0
 11
95.9626
 21
27.8805
 31
0.0
  0
LINE
  8
0
 62
     0
 10
95.9626
 20
27.8805
 30
0.0
 11
95.9626
 21
31.1106
 31
0.0
  0
LINE
  8
0
 62
     0
 10
95.9626
 20
31.1106
 30
0.0
 11
97.3875
 21
31.1106
 31
0.0
  0
LINE
  8
0
 62
     0
 10
97.3875
 20
31.1106
 30
0.0
 11
97.3875
 21
26.4115
 31
0.0
  0
LINE
  8
0
 62
     0
 10
97.3875
 20
26.4115
 30
0.0
 11
111.487
 21
26.4115
 31
0.0
  0
LINE
  8
0
 62
     0
 10
111.487
 20
26.4115
 30
0.0
 11
111.487
 21
31.1106
 31
0.0
  0
LINE
  8
0
 62
     0
 10
111.487
 20
31.1106
 30
0.0
 11
112.912
 21
31.1106
 31
0.0
  0
LINE
  8
0
 62
     0
 10
112.912
 20
31.1106
 30
0.0
 11
112.912
 21
27.8805
 31
0.0
  0
LINE
  8
0
 62
     0
 10
112.912
 20
27.8805
 30
0.0
 11
114.638
 21
27.8805
 31
0.0
  0
LINE
  8
0
 62
     0
 10
114.638
 20
27.8805
 30
0.0
 11
114.638
 21
26.9613
 31
0.0
  0
LINE
  8
0
 62
     0
 10
114.638
 20
26.9613
 30
0.0
 11
118.037
 21
26.9613
 31
0.0
  0
LINE
  8
0
 62
     0
 10
118.037
 20
26.9613
 30
0.0
 11
118.037
 21
27.8819
 31
0.0
  0
LINE
  8
0
 62
     0
 10
118.037
 20
27.8819
 30
0.0
 11
119.762
 21
27.8819
 31
0.0
  0
LINE
  8
0
 62
     0
 10
119.762
 20
27.8819
 30
0.0
 11
119.762
 21
31.1106
 31
0.0
  0
LINE
  8
0
 62
     0
 10
119.762
 20
31.1106
 30
0.0
 11
120.588
 21
31.1106
 31
0.0
  0
LINE
  8
0
 62
     0
 10
120.588
 20
31.1106
 30
0.0
 11
120.588
 21
34.0114
 31
0.0
  0
LINE
  8
0
 62
     0
 10
120.588
 20
34.0114
 30
0.0
 11
119.762
 21
34.0114
 31
0.0
  0
LINE
  8
0
 62
     0
 10
119.762
 20
34.0114
 30
0.0
 11
119.762
 21
40.2816
 31
0.0
  0
LINE
  8
0
 62
     0
 10
119.762
 20
40.2816
 30
0.0
 11
118.037
 21
40.2816
 31
0.0
  0
LINE
  8
0
 62
     0
 10
118.037
 20
40.2816
 30
0.0
 11
118.037
 21
41.2627
 31
0.0
  0
LINE
  8
0
 62
     0
 10
118.037
 20
41.2627
 30
0.0
 11
114.638
 21
41.2627
 31
0.0
  0
LINE
  8
0
 62
     0
 10
114.638
 20
41.2627
 30
0.0
 11
114.638
 21
40.2816
 31
0.0
  0
LINE
  8
0
 62
     0
 10
114.638
 20
40.2816
 30
0.0
 11
112.912
 21
40.2816
 31
0.0
  0
LINE
  8
0
 62
     0
 10
112.912
 20
40.2816
 30
0.0
 11
112.912
 21
35.8112
 31
0.0
  0
LINE
  8
0
 62
     0
 10
112.912
 20
35.8112
 30
0.0
 11
111.487
 21
35.8112
 31
0.0
  0
LINE
  8
0
 62
     0
 10
111.487
 20
35.8112
 30
0.0
 11
111.487
 21
40.5116
 31
0.0
  0
LINE
  8
0
 62
     0
 10
111.487
 20
40.5116
 30
0.0
 11
97.3875
 21
40.5116
 31
0.0
  0
LINE
  8
0
 62
     0
 10
97.3875
 20
40.5116
 30
0.0
 11
97.3875
 21
35.8112
 31
0.0
  0
LINE
  8
0
 62
     0
 10
97.3875
 20
35.8112
 30
0.0
 11
95.9626
 21
35.8112
 31
0.0
  0
LINE
  8
0
 62
     0
 10
95.9626
 20
35.8112
 30
0.0
 11
95.9626
 21
40.2816
 31
0.0
  0
LINE
  8
0
 62
     0
 10
95.9626
 20
40.2816
 30
0.0
 11
94.2372
 21
40.2816
 31
0.0
  0
LINE
  8
0
 62
     0
 10
94.2372
 20
40.2816
 30
0.0
 11
94.2372
 21
41.2627
 31
0.0
  0
LINE
  8
0
 62
     0
 10
94.2372
 20
41.2627
 30
0.0
 11
90.8375
 21
41.2627
 31
0.0
  0
LINE
  8
0
 62
     0
 10
128.345
 20
40.5116
 30
0.0
 11
142.445
 21
40.5116
 31
0.0
  0
LINE
  8
0
 62
     0
 10
142.445
 20
40.5116
 30
0.0
 11
142.445
 21
26.4115
 31
0.0
  0
LINE
  8
0
 62
     0
 10
142.445
 20
26.4115
 30
0.0
 11
128.345
 21
26.4115
 31
0.0
  0
LINE
  8
0
 62
     0
 10
128.345
 20
26.4115
 30
0.0
 11
128.345
 21
40.5116
 31
0.0
  0
LINE
  8
0
 62
     0
 10
147.395
 20
40.5116
 30
0.0
 11
161.495
 21
40.5116
 31
0.0
  0
LINE
  8
0
 62
     0
 10
161.495
 20
40.5116
 30
0.0
 11
161.495
 21
26.4115
 31
0.0
  0
LINE
  8
0
 62
     0
 10
161.495
 20
26.4115
 30
0.0
 11
147.395
 21
26.4115
 31
0.0
  0
LINE
  8
0
 62
     0
 10
147.395
 20
26.4115
 30
0.0
 11
147.395
 21
40.5116
 31
0.0
  0
LINE
  8
0
 62
     0
 10
166.445
 20
40.5116
 30
0.0
 11
180.545
 21
40.5116
 31
0.0
  0
LINE
  8
0
 62
     0
 10
180.545
 20
40.5116
 30
0.0
 11
180.545
 21
26.4115
 31
0.0
  0
LINE
  8
0
 62
     0
 10
180.545
 20
26.4115
 30
0.0
 11
166.445
 21
26.4115
 31
0.0
  0
LINE
  8
0
 62
     0
 10
166.445
 20
26.4115
 30
0.0
 11
166.445
 21
40.5116
 31
0.0
  0
LINE
  8
0
 62
     0
 10
185.495
 20
40.5116
 30
0.0
 11
199.595
 21
40.5116
 31
0.0
  0
LINE
  8
0
 62
     0
 10
199.595
 20
40.5116
 30
0.0
 11
199.595
 21
26.4115
 31
0.0
  0
LINE
  8
0
 62
     0
 10
199.595
 20
26.4115
 30
0.0
 11
185.495
 21
26.4115
 31
0.0
  0
LINE
  8
0
 62
     0
 10
185.495
 20
26.4115
 30
0.0
 11
185.495
 21
40.5116
 31
0.0
  0
LINE
  8
0
 62
     0
 10
204.545
 20
40.5116
 30
0.0
 11
218.645
 21
40.5116
 31
0.0
  0
LINE
  8
0
 62
     0
 10
218.645
 20
40.5116
 30
0.0
 11
218.645
 21
26.4115
 31
0.0
  0
LINE
  8
0
 62
     0
 10
218.645
 20
26.4115
 30
0.0
 11
204.545
 21
26.4115
 31
0.0
  0
LINE
  8
0
 62
     0
 10
204.545
 20
26.4115
 30
0.0
 11
204.545
 21
40.5116
 31
0.0
  0
LINE
  8
0
 62
     0
 10
223.595
 20
40.5116
 30
0.0
 11
237.695
 21
40.5116
 31
0.0
  0
LINE
  8
0
 62
     0
 10
237.695
 20
40.5116
 30
0.0
 11
237.695
 21
26.4115
 31
0.0
  0
LINE
  8
0
 62
     0
 10
237.695
 20
26.4115
 30
0.0
 11
223.595
 21
26.4115
 31
0.0
  0
LINE
  8
0
 62
     0
 10
223.595
 20
26.4115
 30
0.0
 11
223.595
 21
40.5116
 31
0.0
  0
LINE
  8
0
 62
     0
 10
242.645
 20
40.5116
 30
0.0
 11
256.744
 21
40.5116
 31
0.0
  0
LINE
  8
0
 62
     0
 10
256.744
 20
40.5116
 30
0.0
 11
256.744
 21
26.4115
 31
0.0
  0
LINE
  8
0
 62
     0
 10
256.744
 20
26.4115
 30
0.0
 11
242.645
 21
26.4115
 31
0.0
  0
LINE
  8
0
 62
     0
 10
242.645
 20
26.4115
 30
0.0
 11
242.645
 21
40.5116
 31
0.0
  0
LINE
  8
0
 62
     0
 10
261.695
 20
40.5116
 30
0.0
 11
275.795
 21
40.5116
 31
0.0
  0
LINE
  8
0
 62
     0
 10
275.795
 20
40.5116
 30
0.0
 11
275.795
 21
26.4115
 31
0.0
  0
LINE
  8
0
 62
     0
 10
275.795
 20
26.4115
 30
0.0
 11
261.695
 21
26.4115
 31
0.0
  0
LINE
  8
0
 62
     0
 10
261.695
 20
26.4115
 30
0.0
 11
261.695
 21
40.5116
 31
0.0
  0
LINE
  8
0
 62
     0
 10
280.745
 20
40.5116
 30
0.0
 11
294.845
 21
40.5116
 31
0.0
  0
LINE
  8
0
 62
     0
 10
294.845
 20
40.5116
 30
0.0
 11
294.845
 21
26.4115
 31
0.0
  0
LINE
  8
0
 62
     0
 10
294.845
 20
26.4115
 30
0.0
 11
280.745
 21
26.4115
 31
0.0
  0
LINE
  8
0
 62
     0
 10
280.745
 20
26.4115
 30
0.0
 11
280.745
 21
40.5116
 31
0.0
  0
LINE
  8
0
 62
     0
 10
299.795
 20
40.5116
 30
0.0
 11
313.895
 21
40.5116
 31
0.0
  0
LINE
  8
0
 62
     0
 10
313.895
 20
40.5116
 30
0.0
 11
313.895
 21
26.4115
 31
0.0
  0
LINE
  8
0
 62
     0
 10
313.895
 20
26.4115
 30
0.0
 11
299.795
 21
26.4115
 31
0.0
  0
LINE
  8
0
 62
     0
 10
299.795
 20
26.4115
 30
0.0
 11
299.795
 21
40.5116
 31
0.0
  0
LINE
  8
0
 62
     0
 10
328.962
 20
41.2627
 30
0.0
 11
328.962
 21
40.2816
 31
0.0
  0
LINE
  8
0
 62
     0
 10
328.962
 20
40.2816
 30
0.0
 11
327.237
 21
40.2816
 31
0.0
  0
LINE
  8
0
 62
     0
 10
327.237
 20
40.2816
 30
0.0
 11
327.237
 21
34.0114
 31
0.0
  0
LINE
  8
0
 62
     0
 10
327.237
 20
34.0114
 30
0.0
 11
326.413
 21
34.0114
 31
0.0
  0
LINE
  8
0
 62
     0
 10
326.413
 20
34.0114
 30
0.0
 11
326.413
 21
31.1106
 31
0.0
  0
LINE
  8
0
 62
     0
 10
326.413
 20
31.1106
 30
0.0
 11
327.237
 21
31.1106
 31
0.0
  0
LINE
  8
0
 62
     0
 10
327.237
 20
31.1106
 30
0.0
 11
327.237
 21
27.8805
 31
0.0
  0
LINE
  8
0
 62
     0
 10
327.237
 20
27.8805
 30
0.0
 11
328.962
 21
27.8805
 31
0.0
  0
LINE
  8
0
 62
     0
 10
328.962
 20
27.8805
 30
0.0
 11
328.962
 21
26.9613
 31
0.0
  0
LINE
  8
0
 62
     0
 10
328.962
 20
26.9613
 30
0.0
 11
332.362
 21
26.9613
 31
0.0
  0
LINE
  8
0
 62
     0
 10
332.362
 20
26.9613
 30
0.0
 11
332.362
 21
27.8805
 31
0.0
  0
LINE
  8
0
 62
     0
 10
332.362
 20
27.8805
 30
0.0
 11
334.088
 21
27.8805
 31
0.0
  0
LINE
  8
0
 62
     0
 10
334.088
 20
27.8805
 30
0.0
 11
334.088
 21
31.1106
 31
0.0
  0
LINE
  8
0
 62
     0
 10
334.088
 20
31.1106
 30
0.0
 11
335.512
 21
31.1106
 31
0.0
  0
LINE
  8
0
 62
     0
 10
335.512
 20
31.1106
 30
0.0
 11
335.512
 21
26.4115
 31
0.0
  0
LINE
  8
0
 62
     0
 10
335.512
 20
26.4115
 30
0.0
 11
349.612
 21
26.4115
 31
0.0
  0
LINE
  8
0
 62
     0
 10
349.612
 20
26.4115
 30
0.0
 11
349.612
 21
31.1106
 31
0.0
  0
LINE
  8
0
 62
     0
 10
349.612
 20
31.1106
 30
0.0
 11
351.037
 21
31.1106
 31
0.0
  0
LINE
  8
0
 62
     0
 10
351.037
 20
31.1106
 30
0.0
 11
351.037
 21
27.8805
 31
0.0
  0
LINE
  8
0
 62
     0
 10
351.037
 20
27.8805
 30
0.0
 11
352.763
 21
27.8805
 31
0.0
  0
LINE
  8
0
 62
     0
 10
352.763
 20
27.8805
 30
0.0
 11
352.763
 21
26.9613
 31
0.0
  0
LINE
  8
0
 62
     0
 10
352.763
 20
26.9613
 30
0.0
 11
356.161
 21
26.9613
 31
0.0
  0
LINE
  8
0
 62
     0
 10
356.161
 20
26.9613
 30
0.0
 11
356.161
 21
27.8819
 31
0.0
  0
LINE
  8
0
 62
     0
 10
356.161
 20
27.8819
 30
0.0
 11
357.886
 21
27.8819
 31
0.0
  0
LINE
  8
0
 62
     0
 10
357.886
 20
27.8819
 30
0.0
 11
357.886
 21
31.1106
 31
0.0
  0
LINE
  8
0
 62
     0
 10
357.886
 20
31.1106
 30
0.0
 11
358.712
 21
31.1106
 31
0.0
  0
LINE
  8
0
 62
     0
 10
358.712
 20
31.1106
 30
0.0
 11
358.712
 21
34.0114
 31
0.0
  0
LINE
  8
0
 62
     0
 10
358.712
 20
34.0114
 30
0.0
 11
357.886
 21
34.0114
 31
0.0
  0
LINE
  8
0
 62
     0
 10
357.886
 20
34.0114
 30
0.0
 11
357.886
 21
40.2816
 31
0.0
  0
LINE
  8
0
 62
     0
 10
357.886
 20
40.2816
 30
0.0
 11
356.161
 21
40.2816
 31
0.0
  0
LINE
  8
0
 62
     0
 10
356.161
 20
40.2816
 30
0.0
 11
356.161
 21
41.2627
 31
0.0
  0
LINE
  8
0
 62
     0
 10
356.161
 20
41.2627
 30
0.0
 11
352.763
 21
41.2627
 31
0.0
  0
LINE
  8
0
 62
     0
 10
352.763
 20
41.2627
 30
0.0
 11
352.763
 21
40.2816
 31
0.0
  0
LINE
  8
0
 62
     0
 10
352.763
 20
40.2816
 30
0.0
 11
351.037
 21
40.2816
 31
0.0
  0
LINE
  8
0
 62
     0
 10
351.037
 20
40.2816
 30
0.0
 11
351.037
 21
35.8112
 31
0.0
  0
LINE
  8
0
 62
     0
 10
351.037
 20
35.8112
 30
0.0
 11
349.612
 21
35.8112
 31
0.0
  0
LINE
  8
0
 62
     0
 10
349.612
 20
35.8112
 30
0.0
 11
349.612
 21
40.5116
 31
0.0
  0
LINE
  8
0
 62
     0
 10
349.612
 20
40.5116
 30
0.0
 11
335.512
 21
40.5116
 31
0.0
  0
LINE
  8
0
 62
     0
 10
335.512
 20
40.5116
 30
0.0
 11
335.512
 21
35.8112
 31
0.0
  0
LINE
  8
0
 62
     0
 10
335.512
 20
35.8112
 30
0.0
 11
334.088
 21
35.8112
 31
0.0
  0
LINE
  8
0
 62
     0
 10
334.088
 20
35.8112
 30
0.0
 11
334.088
 21
40.2816
 31
0.0
  0
LINE
  8
0
 62
     0
 10
334.088
 20
40.2816
 30
0.0
 11
332.362
 21
40.2816
 31
0.0
  0
LINE
  8
0
 62
     0
 10
332.362
 20
40.2816
 30
0.0
 11
332.362
 21
41.2627
 31
0.0
  0
LINE
  8
0
 62
     0
 10
332.362
 20
41.2627
 30
0.0
 11
328.962
 21
41.2627
 31
0.0
  0
LINE
  8
0
 62
     0
 10
395.044
 20
40.5116
 30
0.0
 11
409.145
 21
40.5116
 31
0.0
  0
LINE
  8
0
 62
     0
 10
409.145
 20
40.5116
 30
0.0
 11
409.145
 21
26.4115
 31
0.0
  0
LINE
  8
0
 62
     0
 10
409.145
 20
26.4115
 30
0.0
 11
395.044
 21
26.4115
 31
0.0
  0
LINE
  8
0
 62
     0
 10
395.044
 20
26.4115
 30
0.0
 11
395.044
 21
40.5116
 31
0.0
  0
LINE
  8
0
 62
     0
 10
4.51997
 20
59.5616
 30
0.0
 11
18.6201
 21
59.5616
 31
0.0
  0
LINE
  8
0
 62
     0
 10
18.6201
 20
59.5616
 30
0.0
 11
18.6201
 21
45.4614
 31
0.0
  0
LINE
  8
0
 62
     0
 10
18.6201
 20
45.4614
 30
0.0
 11
4.51997
 21
45.4614
 31
0.0
  0
LINE
  8
0
 62
     0
 10
4.51997
 20
45.4614
 30
0.0
 11
4.51997
 21
59.5616
 31
0.0
  0
LINE
  8
0
 62
     0
 10
23.57
 20
59.5616
 30
0.0
 11
37.67
 21
59.5616
 31
0.0
  0
LINE
  8
0
 62
     0
 10
37.67
 20
59.5616
 30
0.0
 11
37.67
 21
45.4614
 31
0.0
  0
LINE
  8
0
 62
     0
 10
37.67
 20
45.4614
 30
0.0
 11
23.57
 21
45.4614
 31
0.0
  0
LINE
  8
0
 62
     0
 10
23.57
 20
45.4614
 30
0.0
 11
23.57
 21
59.5616
 31
0.0
  0
LINE
  8
0
 62
     0
 10
42.6201
 20
59.5616
 30
0.0
 11
56.72
 21
59.5616
 31
0.0
  0
LINE
  8
0
 62
     0
 10
56.72
 20
59.5616
 30
0.0
 11
56.72
 21
45.4614
 31
0.0
  0
LINE
  8
0
 62
     0
 10
56.72
 20
45.4614
 30
0.0
 11
42.6201
 21
45.4614
 31
0.0
  0
LINE
  8
0
 62
     0
 10
42.6201
 20
45.4614
 30
0.0
 11
42.6201
 21
59.5616
 31
0.0
  0
LINE
  8
0
 62
     0
 10
92.625
 20
59.5616
 30
0.0
 11
106.725
 21
59.5616
 31
0.0
  0
LINE
  8
0
 62
     0
 10
106.725
 20
59.5616
 30
0.0
 11
106.725
 21
45.4614
 31
0.0
  0
LINE
  8
0
 62
     0
 10
106.725
 20
45.4614
 30
0.0
 11
92.625
 21
45.4614
 31
0.0
  0
LINE
  8
0
 62
     0
 10
92.625
 20
45.4614
 30
0.0
 11
92.625
 21
59.5616
 31
0.0
  0
LINE
  8
0
 62
     0
 10
118.82
 20
59.5616
 30
0.0
 11
132.92
 21
59.5616
 31
0.0
  0
LINE
  8
0
 62
     0
 10
132.92
 20
59.5616
 30
0.0
 11
132.92
 21
45.4614
 31
0.0
  0
LINE
  8
0
 62
     0
 10
132.92
 20
45.4614
 30
0.0
 11
118.82
 21
45.4614
 31
0.0
  0
LINE
  8
0
 62
     0
 10
118.82
 20
45.4614
 30
0.0
 11
118.82
 21
59.5616
 31
0.0
  0
LINE
  8
0
 62
     0
 10
137.87
 20
59.5616
 30
0.0
 11
151.97
 21
59.5616
 31
0.0
  0
LINE
  8
0
 62
     0
 10
151.97
 20
59.5616
 30
0.0
 11
151.97
 21
45.4614
 31
0.0
  0
LINE
  8
0
 62
     0
 10
151.97
 20
45.4614
 30
0.0
 11
137.87
 21
45.4614
 31
0.0
  0
LINE
  8
0
 62
     0
 10
137.87
 20
45.4614
 30
0.0
 11
137.87
 21
59.5616
 31
0.0
  0
LINE
  8
0
 62
     0
 10
156.92
 20
59.5616
 30
0.0
 11
171.02
 21
59.5616
 31
0.0
  0
LINE
  8
0
 62
     0
 10
171.02
 20
59.5616
 30
0.0
 11
171.02
 21
45.4614
 31
0.0
  0
LINE
  8
0
 62
     0
 10
171.02
 20
45.4614
 30
0.0
 11
156.92
 21
45.4614
 31
0.0
  0
LINE
  8
0
 62
     0
 10
156.92
 20
45.4614
 30
0.0
 11
156.92
 21
59.5616
 31
0.0
  0
LINE
  8
0
 62
     0
 10
175.97
 20
59.5616
 30
0.0
 11
190.07
 21
59.5616
 31
0.0
  0
LINE
  8
0
 62
     0
 10
190.07
 20
59.5616
 30
0.0
 11
190.07
 21
45.4614
 31
0.0
  0
LINE
  8
0
 62
     0
 10
190.07
 20
45.4614
 30
0.0
 11
175.97
 21
45.4614
 31
0.0
  0
LINE
  8
0
 62
     0
 10
175.97
 20
45.4614
 30
0.0
 11
175.97
 21
59.5616
 31
0.0
  0
LINE
  8
0
 62
     0
 10
195.02
 20
59.5616
 30
0.0
 11
209.12
 21
59.5616
 31
0.0
  0
LINE
  8
0
 62
     0
 10
209.12
 20
59.5616
 30
0.0
 11
209.12
 21
45.4614
 31
0.0
  0
LINE
  8
0
 62
     0
 10
209.12
 20
45.4614
 30
0.0
 11
195.02
 21
45.4614
 31
0.0
  0
LINE
  8
0
 62
     0
 10
195.02
 20
45.4614
 30
0.0
 11
195.02
 21
59.5616
 31
0.0
  0
LINE
  8
0
 62
     0
 10
214.07
 20
59.5616
 30
0.0
 11
228.17
 21
59.5616
 31
0.0
  0
LINE
  8
0
 62
     0
 10
228.17
 20
59.5616
 30
0.0
 11
228.17
 21
45.4614
 31
0.0
  0
LINE
  8
0
 62
     0
 10
228.17
 20
45.4614
 30
0.0
 11
214.07
 21
45.4614
 31
0.0
  0
LINE
  8
0
 62
     0
 10
214.07
 20
45.4614
 30
0.0
 11
214.07
 21
59.5616
 31
0.0
  0
LINE
  8
0
 62
     0
 10
233.12
 20
59.5616
 30
0.0
 11
247.22
 21
59.5616
 31
0.0
  0
LINE
  8
0
 62
     0
 10
247.22
 20
59.5616
 30
0.0
 11
247.22
 21
45.4614
 31
0.0
  0
LINE
  8
0
 62
     0
 10
247.22
 20
45.4614
 30
0.0
 11
233.12
 21
45.4614
 31
0.0
  0
LINE
  8
0
 62
     0
 10
233.12
 20
45.4614
 30
0.0
 11
233.12
 21
59.5616
 31
0.0
  0
LINE
  8
0
 62
     0
 10
252.17
 20
59.5616
 30
0.0
 11
266.27
 21
59.5616
 31
0.0
  0
LINE
  8
0
 62
     0
 10
266.27
 20
59.5616
 30
0.0
 11
266.27
 21
45.4614
 31
0.0
  0
LINE
  8
0
 62
     0
 10
266.27
 20
45.4614
 30
0.0
 11
252.17
 21
45.4614
 31
0.0
  0
LINE
  8
0
 62
     0
 10
252.17
 20
45.4614
 30
0.0
 11
252.17
 21
59.5616
 31
0.0
  0
LINE
  8
0
 62
     0
 10
271.22
 20
59.5616
 30
0.0
 11
285.32
 21
59.5616
 31
0.0
  0
LINE
  8
0
 62
     0
 10
285.32
 20
59.5616
 30
0.0
 11
285.32
 21
45.4614
 31
0.0
  0
LINE
  8
0
 62
     0
 10
285.32
 20
45.4614
 30
0.0
 11
271.22
 21
45.4614
 31
0.0
  0
LINE
  8
0
 62
     0
 10
271.22
 20
45.4614
 30
0.0
 11
271.22
 21
59.5616
 31
0.0
  0
LINE
  8
0
 62
     0
 10
290.27
 20
59.5616
 30
0.0
 11
304.37
 21
59.5616
 31
0.0
  0
LINE
  8
0
 62
     0
 10
304.37
 20
59.5616
 30
0.0
 11
304.37
 21
45.4614
 31
0.0
  0
LINE
  8
0
 62
     0
 10
304.37
 20
45.4614
 30
0.0
 11
290.27
 21
45.4614
 31
0.0
  0
LINE
  8
0
 62
     0
 10
290.27
 20
45.4614
 30
0.0
 11
290.27
 21
59.5616
 31
0.0
  0
LINE
  8
0
 62
     0
 10
309.32
 20
59.5616
 30
0.0
 11
323.42
 21
59.5616
 31
0.0
  0
LINE
  8
0
 62
     0
 10
323.42
 20
59.5616
 30
0.0
 11
323.42
 21
45.4614
 31
0.0
  0
LINE
  8
0
 62
     0
 10
323.42
 20
45.4614
 30
0.0
 11
309.32
 21
45.4614
 31
0.0
  0
LINE
  8
0
 62
     0
 10
309.32
 20
45.4614
 30
0.0
 11
309.32
 21
59.5616
 31
0.0
  0
LINE
  8
0
 62
     0
 10
333.725
 20
60.3112
 30
0.0
 11
333.725
 21
59.3316
 31
0.0
  0
LINE
  8
0
 62
     0
 10
333.725
 20
59.3316
 30
0.0
 11
332.001
 21
59.3316
 31
0.0
  0
LINE
  8
0
 62
     0
 10
332.001
 20
59.3316
 30
0.0
 11
332.001
 21
53.0613
 31
0.0
  0
LINE
  8
0
 62
     0
 10
332.001
 20
53.0613
 30
0.0
 11
331.176
 21
53.0613
 31
0.0
  0
LINE
  8
0
 62
     0
 10
331.176
 20
53.0613
 30
0.0
 11
331.176
 21
50.1608
 31
0.0
  0
LINE
  8
0
 62
     0
 10
331.176
 20
50.1608
 30
0.0
 11
332.001
 21
50.1608
 31
0.0
  0
LINE
  8
0
 62
     0
 10
332.001
 20
50.1608
 30
0.0
 11
332.001
 21
46.9304
 31
0.0
  0
LINE
  8
0
 62
     0
 10
332.001
 20
46.9304
 30
0.0
 11
333.725
 21
46.9304
 31
0.0
  0
LINE
  8
0
 62
     0
 10
333.725
 20
46.9304
 30
0.0
 11
333.725
 21
46.0114
 31
0.0
  0
LINE
  8
0
 62
     0
 10
333.725
 20
46.0114
 30
0.0
 11
337.126
 21
46.0114
 31
0.0
  0
LINE
  8
0
 62
     0
 10
337.126
 20
46.0114
 30
0.0
 11
337.126
 21
46.9304
 31
0.0
  0
LINE
  8
0
 62
     0
 10
337.126
 20
46.9304
 30
0.0
 11
338.85
 21
46.9304
 31
0.0
  0
LINE
  8
0
 62
     0
 10
338.85
 20
46.9304
 30
0.0
 11
338.85
 21
50.1608
 31
0.0
  0
LINE
  8
0
 62
     0
 10
338.85
 20
50.1608
 30
0.0
 11
340.275
 21
50.1608
 31
0.0
  0
LINE
  8
0
 62
     0
 10
340.275
 20
50.1608
 30
0.0
 11
340.275
 21
45.4614
 31
0.0
  0
LINE
  8
0
 62
     0
 10
340.275
 20
45.4614
 30
0.0
 11
354.376
 21
45.4614
 31
0.0
  0
LINE
  8
0
 62
     0
 10
354.376
 20
45.4614
 30
0.0
 11
354.376
 21
50.1608
 31
0.0
  0
LINE
  8
0
 62
     0
 10
354.376
 20
50.1608
 30
0.0
 11
355.801
 21
50.1608
 31
0.0
  0
LINE
  8
0
 62
     0
 10
355.801
 20
50.1608
 30
0.0
 11
355.801
 21
46.9304
 31
0.0
  0
LINE
  8
0
 62
     0
 10
355.801
 20
46.9304
 30
0.0
 11
357.526
 21
46.9304
 31
0.0
  0
LINE
  8
0
 62
     0
 10
357.526
 20
46.9304
 30
0.0
 11
357.526
 21
46.0114
 31
0.0
  0
LINE
  8
0
 62
     0
 10
357.526
 20
46.0114
 30
0.0
 11
360.927
 21
46.0114
 31
0.0
  0
LINE
  8
0
 62
     0
 10
360.927
 20
46.0114
 30
0.0
 11
360.927
 21
46.9304
 31
0.0
  0
LINE
  8
0
 62
     0
 10
360.927
 20
46.9304
 30
0.0
 11
362.648
 21
46.9304
 31
0.0
  0
LINE
  8
0
 62
     0
 10
362.648
 20
46.9304
 30
0.0
 11
362.648
 21
50.1608
 31
0.0
  0
LINE
  8
0
 62
     0
 10
362.648
 20
50.1608
 30
0.0
 11
363.474
 21
50.1608
 31
0.0
  0
LINE
  8
0
 62
     0
 10
363.474
 20
50.1608
 30
0.0
 11
363.474
 21
53.0613
 31
0.0
  0
LINE
  8
0
 62
     0
 10
363.474
 20
53.0613
 30
0.0
 11
362.648
 21
53.0613
 31
0.0
  0
LINE
  8
0
 62
     0
 10
362.648
 20
53.0613
 30
0.0
 11
362.648
 21
59.3316
 31
0.0
  0
LINE
  8
0
 62
     0
 10
362.648
 20
59.3316
 30
0.0
 11
360.927
 21
59.3316
 31
0.0
  0
LINE
  8
0
 62
     0
 10
360.927
 20
59.3316
 30
0.0
 11
360.927
 21
60.3112
 31
0.0
  0
LINE
  8
0
 62
     0
 10
360.927
 20
60.3112
 30
0.0
 11
357.526
 21
60.3112
 31
0.0
  0
LINE
  8
0
 62
     0
 10
357.526
 20
60.3112
 30
0.0
 11
357.526
 21
59.3316
 31
0.0
  0
LINE
  8
0
 62
     0
 10
357.526
 20
59.3316
 30
0.0
 11
355.801
 21
59.3316
 31
0.0
  0
LINE
  8
0
 62
     0
 10
355.801
 20
59.3316
 30
0.0
 11
355.801
 21
54.8612
 31
0.0
  0
LINE
  8
0
 62
     0
 10
355.801
 20
54.8612
 30
0.0
 11
354.376
 21
54.8612
 31
0.0
  0
LINE
  8
0
 62
     0
 10
354.376
 20
54.8612
 30
0.0
 11
354.376
 21
59.5616
 31
0.0
  0
LINE
  8
0
 62
     0
 10
354.376
 20
59.5616
 30
0.0
 11
340.275
 21
59.5616
 31
0.0
  0
LINE
  8
0
 62
     0
 10
340.275
 20
59.5616
 30
0.0
 11
340.275
 21
54.8612
 31
0.0
  0
LINE
  8
0
 62
     0
 10
340.275
 20
54.8612
 30
0.0
 11
338.85
 21
54.8612
 31
0.0
  0
LINE
  8
0
 62
     0
 10
338.85
 20
54.8612
 30
0.0
 11
338.85
 21
59.3316
 31
0.0
  0
LINE
  8
0
 62
     0
 10
338.85
 20
59.3316
 30
0.0
 11
337.126
 21
59.3316
 31
0.0
  0
LINE
  8
0
 62
     0
 10
337.126
 20
59.3316
 30
0.0
 11
337.126
 21
60.3112
 31
0.0
  0
LINE
  8
0
 62
     0
 10
337.126
 20
60.3112
 30
0.0
 11
333.725
 21
60.3112
 31
0.0
  0
LINE
  8
0
 62
     0
 10
68.1701
 20
78.1858
 30
0.0
 11
68.1701
 21
77.3617
 31
0.0
  0
LINE
  8
0
 62
     0
 10
68.1701
 20
77.3617
 30
0.0
 11
61.9002
 21
77.3617
 31
0.0
  0
LINE
  8
0
 62
     0
 10
61.9002
 20
77.3617
 30
0.0
 11
61.9002
 21
75.6363
 31
0.0
  0
LINE
  8
0
 62
     0
 10
61.9002
 20
75.6363
 30
0.0
 11
60.9191
 21
75.6363
 31
0.0
  0
LINE
  8
0
 62
     0
 10
60.9191
 20
75.6363
 30
0.0
 11
60.9191
 21
72.2355
 31
0.0
  0
LINE
  8
0
 62
     0
 10
60.9191
 20
72.2355
 30
0.0
 11
61.9002
 21
72.2355
 31
0.0
  0
LINE
  8
0
 62
     0
 10
61.9002
 20
72.2355
 30
0.0
 11
61.9002
 21
70.5115
 31
0.0
  0
LINE
  8
0
 62
     0
 10
61.9002
 20
70.5115
 30
0.0
 11
66.3691
 21
70.5115
 31
0.0
  0
LINE
  8
0
 62
     0
 10
66.3691
 20
70.5115
 30
0.0
 11
66.3691
 21
69.0866
 31
0.0
  0
LINE
  8
0
 62
     0
 10
66.3691
 20
69.0866
 30
0.0
 11
61.6701
 21
69.0866
 31
0.0
  0
LINE
  8
0
 62
     0
 10
61.6701
 20
69.0866
 30
0.0
 11
61.6701
 21
54.9864
 31
0.0
  0
LINE
  8
0
 62
     0
 10
61.6701
 20
54.9864
 30
0.0
 11
66.3691
 21
54.9864
 31
0.0
  0
LINE
  8
0
 62
     0
 10
66.3691
 20
54.9864
 30
0.0
 11
66.3691
 21
53.5615
 31
0.0
  0
LINE
  8
0
 62
     0
 10
66.3691
 20
53.5615
 30
0.0
 11
61.9002
 21
53.5615
 31
0.0
  0
LINE
  8
0
 62
     0
 10
61.9002
 20
53.5615
 30
0.0
 11
61.9002
 21
51.8365
 31
0.0
  0
LINE
  8
0
 62
     0
 10
61.9002
 20
51.8365
 30
0.0
 11
60.9191
 21
51.8365
 31
0.0
  0
LINE
  8
0
 62
     0
 10
60.9191
 20
51.8365
 30
0.0
 11
60.9191
 21
48.4367
 31
0.0
  0
LINE
  8
0
 62
     0
 10
60.9191
 20
48.4367
 30
0.0
 11
61.9002
 21
48.4367
 31
0.0
  0
LINE
  8
0
 62
     0
 10
61.9002
 20
48.4367
 30
0.0
 11
61.9002
 21
46.7113
 31
0.0
  0
LINE
  8
0
 62
     0
 10
61.9002
 20
46.7113
 30
0.0
 11
68.1701
 21
46.7113
 31
0.0
  0
LINE
  8
0
 62
     0
 10
68.1701
 20
46.7113
 30
0.0
 11
68.1701
 21
45.8858
 31
0.0
  0
LINE
  8
0
 62
     0
 10
68.1701
 20
45.8858
 30
0.0
 11
71.0696
 21
45.8858
 31
0.0
  0
LINE
  8
0
 62
     0
 10
71.0696
 20
45.8858
 30
0.0
 11
71.0696
 21
46.7113
 31
0.0
  0
LINE
  8
0
 62
     0
 10
71.0696
 20
46.7113
 30
0.0
 11
74.2996
 21
46.7113
 31
0.0
  0
LINE
  8
0
 62
     0
 10
74.2996
 20
46.7113
 30
0.0
 11
74.2996
 21
48.4367
 31
0.0
  0
LINE
  8
0
 62
     0
 10
74.2996
 20
48.4367
 30
0.0
 11
75.2189
 21
48.4367
 31
0.0
  0
LINE
  8
0
 62
     0
 10
75.2189
 20
48.4367
 30
0.0
 11
75.2189
 21
51.8365
 31
0.0
  0
LINE
  8
0
 62
     0
 10
75.2189
 20
51.8365
 30
0.0
 11
74.2996
 21
51.8365
 31
0.0
  0
LINE
  8
0
 62
     0
 10
74.2996
 20
51.8365
 30
0.0
 11
74.2996
 21
53.5615
 31
0.0
  0
LINE
  8
0
 62
     0
 10
74.2996
 20
53.5615
 30
0.0
 11
71.0696
 21
53.5615
 31
0.0
  0
LINE
  8
0
 62
     0
 10
71.0696
 20
53.5615
 30
0.0
 11
71.0696
 21
54.9864
 31
0.0
  0
LINE
  8
0
 62
     0
 10
71.0696
 20
54.9864
 30
0.0
 11
75.77
 21
54.9864
 31
0.0
  0
LINE
  8
0
 62
     0
 10
75.77
 20
54.9864
 30
0.0
 11
75.77
 21
69.0866
 31
0.0
  0
LINE
  8
0
 62
     0
 10
75.77
 20
69.0866
 30
0.0
 11
71.0696
 21
69.0866
 31
0.0
  0
LINE
  8
0
 62
     0
 10
71.0696
 20
69.0866
 30
0.0
 11
71.0696
 21
70.5115
 31
0.0
  0
LINE
  8
0
 62
     0
 10
71.0696
 20
70.5115
 30
0.0
 11
74.2996
 21
70.5115
 31
0.0
  0
LINE
  8
0
 62
     0
 10
74.2996
 20
70.5115
 30
0.0
 11
74.2996
 21
72.2355
 31
0.0
  0
LINE
  8
0
 62
     0
 10
74.2996
 20
72.2355
 30
0.0
 11
75.2189
 21
72.2355
 31
0.0
  0
LINE
  8
0
 62
     0
 10
75.2189
 20
72.2355
 30
0.0
 11
75.2189
 21
75.6363
 31
0.0
  0
LINE
  8
0
 62
     0
 10
75.2189
 20
75.6363
 30
0.0
 11
74.2996
 21
75.6363
 31
0.0
  0
LINE
  8
0
 62
     0
 10
74.2996
 20
75.6363
 30
0.0
 11
74.2996
 21
77.3617
 31
0.0
  0
LINE
  8
0
 62
     0
 10
74.2996
 20
77.3617
 30
0.0
 11
71.0696
 21
77.3617
 31
0.0
  0
LINE
  8
0
 62
     0
 10
71.0696
 20
77.3617
 30
0.0
 11
71.0696
 21
78.1858
 31
0.0
  0
LINE
  8
0
 62
     0
 10
71.0696
 20
78.1858
 30
0.0
 11
68.1701
 21
78.1858
 31
0.0
  0
LINE
  8
0
 62
     0
 10
4.51997
 20
78.6116
 30
0.0
 11
18.6201
 21
78.6116
 31
0.0
  0
LINE
  8
0
 62
     0
 10
18.6201
 20
78.6116
 30
0.0
 11
18.6201
 21
64.5114
 31
0.0
  0
LINE
  8
0
 62
     0
 10
18.6201
 20
64.5114
 30
0.0
 11
4.51997
 21
64.5114
 31
0.0
  0
LINE
  8
0
 62
     0
 10
4.51997
 20
64.5114
 30
0.0
 11
4.51997
 21
78.6116
 31
0.0
  0
LINE
  8
0
 62
     0
 10
23.57
 20
78.6116
 30
0.0
 11
37.67
 21
78.6116
 31
0.0
  0
LINE
  8
0
 62
     0
 10
37.67
 20
78.6116
 30
0.0
 11
37.67
 21
64.5114
 31
0.0
  0
LINE
  8
0
 62
     0
 10
37.67
 20
64.5114
 30
0.0
 11
23.57
 21
64.5114
 31
0.0
  0
LINE
  8
0
 62
     0
 10
23.57
 20
64.5114
 30
0.0
 11
23.57
 21
78.6116
 31
0.0
  0
LINE
  8
0
 62
     0
 10
42.6201
 20
78.6116
 30
0.0
 11
56.72
 21
78.6116
 31
0.0
  0
LINE
  8
0
 62
     0
 10
56.72
 20
78.6116
 30
0.0
 11
56.72
 21
64.5114
 31
0.0
  0
LINE
  8
0
 62
     0
 10
56.72
 20
64.5114
 30
0.0
 11
42.6201
 21
64.5114
 31
0.0
  0
LINE
  8
0
 62
     0
 10
42.6201
 20
64.5114
 30
0.0
 11
42.6201
 21
78.6116
 31
0.0
  0
LINE
  8
0
 62
     0
 10
90.2451
 20
78.6116
 30
0.0
 11
104.345
 21
78.6116
 31
0.0
  0
LINE
  8
0
 62
     0
 10
104.345
 20
78.6116
 30
0.0
 11
104.345
 21
64.5114
 31
0.0
  0
LINE
  8
0
 62
     0
 10
104.345
 20
64.5114
 30
0.0
 11
90.2451
 21
64.5114
 31
0.0
  0
LINE
  8
0
 62
     0
 10
90.2451
 20
64.5114
 30
0.0
 11
90.2451
 21
78.6116
 31
0.0
  0
LINE
  8
0
 62
     0
 10
114.056
 20
78.6116
 30
0.0
 11
128.156
 21
78.6116
 31
0.0
  0
LINE
  8
0
 62
     0
 10
128.156
 20
78.6116
 30
0.0
 11
128.156
 21
64.5114
 31
0.0
  0
LINE
  8
0
 62
     0
 10
128.156
 20
64.5114
 30
0.0
 11
114.056
 21
64.5114
 31
0.0
  0
LINE
  8
0
 62
     0
 10
114.056
 20
64.5114
 30
0.0
 11
114.056
 21
78.6116
 31
0.0
  0
LINE
  8
0
 62
     0
 10
133.106
 20
78.6116
 30
0.0
 11
147.206
 21
78.6116
 31
0.0
  0
LINE
  8
0
 62
     0
 10
147.206
 20
78.6116
 30
0.0
 11
147.206
 21
64.5114
 31
0.0
  0
LINE
  8
0
 62
     0
 10
147.206
 20
64.5114
 30
0.0
 11
133.106
 21
64.5114
 31
0.0
  0
LINE
  8
0
 62
     0
 10
133.106
 20
64.5114
 30
0.0
 11
133.106
 21
78.6116
 31
0.0
  0
LINE
  8
0
 62
     0
 10
152.156
 20
78.6116
 30
0.0
 11
166.256
 21
78.6116
 31
0.0
  0
LINE
  8
0
 62
     0
 10
166.256
 20
78.6116
 30
0.0
 11
166.256
 21
64.5114
 31
0.0
  0
LINE
  8
0
 62
     0
 10
166.256
 20
64.5114
 30
0.0
 11
152.156
 21
64.5114
 31
0.0
  0
LINE
  8
0
 62
     0
 10
152.156
 20
64.5114
 30
0.0
 11
152.156
 21
78.6116
 31
0.0
  0
LINE
  8
0
 62
     0
 10
171.206
 20
78.6116
 30
0.0
 11
185.306
 21
78.6116
 31
0.0
  0
LINE
  8
0
 62
     0
 10
185.306
 20
78.6116
 30
0.0
 11
185.306
 21
64.5114
 31
0.0
  0
LINE
  8
0
 62
     0
 10
185.306
 20
64.5114
 30
0.0
 11
171.206
 21
64.5114
 31
0.0
  0
LINE
  8
0
 62
     0
 10
171.206
 20
64.5114
 30
0.0
 11
171.206
 21
78.6116
 31
0.0
  0
LINE
  8
0
 62
     0
 10
190.256
 20
78.6116
 30
0.0
 11
204.356
 21
78.6116
 31
0.0
  0
LINE
  8
0
 62
     0
 10
204.356
 20
78.6116
 30
0.0
 11
204.356
 21
64.5114
 31
0.0
  0
LINE
  8
0
 62
     0
 10
204.356
 20
64.5114
 30
0.0
 11
190.256
 21
64.5114
 31
0.0
  0
LINE
  8
0
 62
     0
 10
190.256
 20
64.5114
 30
0.0
 11
190.256
 21
78.6116
 31
0.0
  0
LINE
  8
0
 62
     0
 10
209.306
 20
78.6116
 30
0.0
 11
223.406
 21
78.6116
 31
0.0
  0
LINE
  8
0
 62
     0
 10
223.406
 20
78.6116
 30
0.0
 11
223.406
 21
64.5114
 31
0.0
  0
LINE
  8
0
 62
     0
 10
223.406
 20
64.5114
 30
0.0
 11
209.306
 21
64.5114
 31
0.0
  0
LINE
  8
0
 62
     0
 10
209.306
 20
64.5114
 30
0.0
 11
209.306
 21
78.6116
 31
0.0
  0
LINE
  8
0
 62
     0
 10
228.356
 20
78.6116
 30
0.0
 11
242.456
 21
78.6116
 31
0.0
  0
LINE
  8
0
 62
     0
 10
242.456
 20
78.6116
 30
0.0
 11
242.456
 21
64.5114
 31
0.0
  0
LINE
  8
0
 62
     0
 10
242.456
 20
64.5114
 30
0.0
 11
228.356
 21
64.5114
 31
0.0
  0
LINE
  8
0
 62
     0
 10
228.356
 20
64.5114
 30
0.0
 11
228.356
 21
78.6116
 31
0.0
  0
LINE
  8
0
 62
     0
 10
247.406
 20
78.6116
 30
0.0
 11
261.506
 21
78.6116
 31
0.0
  0
LINE
  8
0
 62
     0
 10
261.506
 20
78.6116
 30
0.0
 11
261.506
 21
64.5114
 31
0.0
  0
LINE
  8
0
 62
     0
 10
261.506
 20
64.5114
 30
0.0
 11
247.406
 21
64.5114
 31
0.0
  0
LINE
  8
0
 62
     0
 10
247.406
 20
64.5114
 30
0.0
 11
247.406
 21
78.6116
 31
0.0
  0
LINE
  8
0
 62
     0
 10
266.456
 20
78.6116
 30
0.0
 11
280.556
 21
78.6116
 31
0.0
  0
LINE
  8
0
 62
     0
 10
280.556
 20
78.6116
 30
0.0
 11
280.556
 21
64.5114
 31
0.0
  0
LINE
  8
0
 62
     0
 10
280.556
 20
64.5114
 30
0.0
 11
266.456
 21
64.5114
 31
0.0
  0
LINE
  8
0
 62
     0
 10
266.456
 20
64.5114
 30
0.0
 11
266.456
 21
78.6116
 31
0.0
  0
LINE
  8
0
 62
     0
 10
285.506
 20
78.6116
 30
0.0
 11
299.606
 21
78.6116
 31
0.0
  0
LINE
  8
0
 62
     0
 10
299.606
 20
78.6116
 30
0.0
 11
299.606
 21
64.5114
 31
0.0
  0
LINE
  8
0
 62
     0
 10
299.606
 20
64.5114
 30
0.0
 11
285.506
 21
64.5114
 31
0.0
  0
LINE
  8
0
 62
     0
 10
285.506
 20
64.5114
 30
0.0
 11
285.506
 21
78.6116
 31
0.0
  0
LINE
  8
0
 62
     0
 10
304.556
 20
78.6116
 30
0.0
 11
318.656
 21
78.6116
 31
0.0
  0
LINE
  8
0
 62
     0
 10
318.656
 20
78.6116
 30
0.0
 11
318.656
 21
64.5114
 31
0.0
  0
LINE
  8
0
 62
     0
 10
318.656
 20
64.5114
 30
0.0
 11
304.556
 21
64.5114
 31
0.0
  0
LINE
  8
0
 62
     0
 10
304.556
 20
64.5114
 30
0.0
 11
304.556
 21
78.6116
 31
0.0
  0
LINE
  8
0
 62
     0
 10
323.606
 20
78.6116
 30
0.0
 11
337.706
 21
78.6116
 31
0.0
  0
LINE
  8
0
 62
     0
 10
337.706
 20
78.6116
 30
0.0
 11
337.706
 21
64.5114
 31
0.0
  0
LINE
  8
0
 62
     0
 10
337.706
 20
64.5114
 30
0.0
 11
323.606
 21
64.5114
 31
0.0
  0
LINE
  8
0
 62
     0
 10
323.606
 20
64.5114
 30
0.0
 11
323.606
 21
78.6116
 31
0.0
  0
LINE
  8
0
 62
     0
 10
347.42
 20
78.6116
 30
0.0
 11
361.52
 21
78.6116
 31
0.0
  0
LINE
  8
0
 62
     0
 10
361.52
 20
78.6116
 30
0.0
 11
361.52
 21
64.5114
 31
0.0
  0
LINE
  8
0
 62
     0
 10
361.52
 20
64.5114
 30
0.0
 11
347.42
 21
64.5114
 31
0.0
  0
LINE
  8
0
 62
     0
 10
347.42
 20
64.5114
 30
0.0
 11
347.42
 21
78.6116
 31
0.0
  0
LINE
  8
0
 62
     0
 10
375.994
 20
78.6116
 30
0.0
 11
390.095
 21
78.6116
 31
0.0
  0
LINE
  8
0
 62
     0
 10
390.095
 20
78.6116
 30
0.0
 11
390.095
 21
64.5114
 31
0.0
  0
LINE
  8
0
 62
     0
 10
390.095
 20
64.5114
 30
0.0
 11
375.994
 21
64.5114
 31
0.0
  0
LINE
  8
0
 62
     0
 10
375.994
 20
64.5114
 30
0.0
 11
375.994
 21
78.6116
 31
0.0
  0
LINE
  8
0
 62
     0
 10
395.044
 20
78.6116
 30
0.0
 11
409.145
 21
78.6116
 31
0.0
  0
LINE
  8
0
 62
     0
 10
409.145
 20
78.6116
 30
0.0
 11
409.145
 21
64.5114
 31
0.0
  0
LINE
  8
0
 62
     0
 10
409.145
 20
64.5114
 30
0.0
 11
395.044
 21
64.5114
 31
0.0
  0
LINE
  8
0
 62
     0
 10
395.044
 20
64.5114
 30
0.0
 11
395.044
 21
78.6116
 31
0.0
  0
LINE
  8
0
 62
     0
 10
414.094
 20
78.6116
 30
0.0
 11
428.195
 21
78.6116
 31
0.0
  0
LINE
  8
0
 62
     0
 10
428.195
 20
78.6116
 30
0.0
 11
428.195
 21
64.5114
 31
0.0
  0
LINE
  8
0
 62
     0
 10
428.195
 20
64.5114
 30
0.0
 11
414.094
 21
64.5114
 31
0.0
  0
LINE
  8
0
 62
     0
 10
414.094
 20
64.5114
 30
0.0
 11
414.094
 21
78.6116
 31
0.0
  0
LINE
  8
0
 62
     0
 10
4.51997
 20
97.6616
 30
0.0
 11
18.6201
 21
97.6616
 31
0.0
  0
LINE
  8
0
 62
     0
 10
18.6201
 20
97.6616
 30
0.0
 11
18.6201
 21
83.5614
 31
0.0
  0
LINE
  8
0
 62
     0
 10
18.6201
 20
83.5614
 30
0.0
 11
4.51997
 21
83.5614
 31
0.0
  0
LINE
  8
0
 62
     0
 10
4.51997
 20
83.5614
 30
0.0
 11
4.51997
 21
97.6616
 31
0.0
  0
LINE
  8
0
 62
     0
 10
23.57
 20
97.6616
 30
0.0
 11
37.67
 21
97.6616
 31
0.0
  0
LINE
  8
0
 62
     0
 10
37.67
 20
97.6616
 30
0.0
 11
37.67
 21
83.5614
 31
0.0
  0
LINE
  8
0
 62
     0
 10
37.67
 20
83.5614
 30
0.0
 11
23.57
 21
83.5614
 31
0.0
  0
LINE
  8
0
 62
     0
 10
23.57
 20
83.5614
 30
0.0
 11
23.57
 21
97.6616
 31
0.0
  0
LINE
  8
0
 62
     0
 10
42.6201
 20
97.6616
 30
0.0
 11
56.72
 21
97.6616
 31
0.0
  0
LINE
  8
0
 62
     0
 10
56.72
 20
97.6616
 30
0.0
 11
56.72
 21
83.5614
 31
0.0
  0
LINE
  8
0
 62
     0
 10
56.72
 20
83.5614
 30
0.0
 11
42.6201
 21
83.5614
 31
0.0
  0
LINE
  8
0
 62
     0
 10
42.6201
 20
83.5614
 30
0.0
 11
42.6201
 21
97.6616
 31
0.0
  0
LINE
  8
0
 62
     0
 10
61.6701
 20
97.6616
 30
0.0
 11
75.77
 21
97.6616
 31
0.0
  0
LINE
  8
0
 62
     0
 10
75.77
 20
97.6616
 30
0.0
 11
75.77
 21
83.5614
 31
0.0
  0
LINE
  8
0
 62
     0
 10
75.77
 20
83.5614
 30
0.0
 11
61.6701
 21
83.5614
 31
0.0
  0
LINE
  8
0
 62
     0
 10
61.6701
 20
83.5614
 30
0.0
 11
61.6701
 21
97.6616
 31
0.0
  0
LINE
  8
0
 62
     0
 10
85.4812
 20
97.6616
 30
0.0
 11
99.5811
 21
97.6616
 31
0.0
  0
LINE
  8
0
 62
     0
 10
99.5811
 20
97.6616
 30
0.0
 11
99.5811
 21
83.5614
 31
0.0
  0
LINE
  8
0
 62
     0
 10
99.5811
 20
83.5614
 30
0.0
 11
85.4812
 21
83.5614
 31
0.0
  0
LINE
  8
0
 62
     0
 10
85.4812
 20
83.5614
 30
0.0
 11
85.4812
 21
97.6616
 31
0.0
  0
LINE
  8
0
 62
     0
 10
104.531
 20
97.6616
 30
0.0
 11
118.631
 21
97.6616
 31
0.0
  0
LINE
  8
0
 62
     0
 10
118.631
 20
97.6616
 30
0.0
 11
118.631
 21
83.5614
 31
0.0
  0
LINE
  8
0
 62
     0
 10
118.631
 20
83.5614
 30
0.0
 11
104.531
 21
83.5614
 31
0.0
  0
LINE
  8
0
 62
     0
 10
104.531
 20
83.5614
 30
0.0
 11
104.531
 21
97.6616
 31
0.0
  0
LINE
  8
0
 62
     0
 10
123.581
 20
97.6616
 30
0.0
 11
137.681
 21
97.6616
 31
0.0
  0
LINE
  8
0
 62
     0
 10
137.681
 20
97.6616
 30
0.0
 11
137.681
 21
83.5614
 31
0.0
  0
LINE
  8
0
 62
     0
 10
137.681
 20
83.5614
 30
0.0
 11
123.581
 21
83.5614
 31
0.0
  0
LINE
  8
0
 62
     0
 10
123.581
 20
83.5614
 30
0.0
 11
123.581
 21
97.6616
 31
0.0
  0
LINE
  8
0
 62
     0
 10
142.631
 20
97.6616
 30
0.0
 11
156.731
 21
97.6616
 31
0.0
  0
LINE
  8
0
 62
     0
 10
156.731
 20
97.6616
 30
0.0
 11
156.731
 21
83.5614
 31
0.0
  0
LINE
  8
0
 62
     0
 10
156.731
 20
83.5614
 30
0.0
 11
142.631
 21
83.5614
 31
0.0
  0
LINE
  8
0
 62
     0
 10
142.631
 20
83.5614
 30
0.0
 11
142.631
 21
97.6616
 31
0.0
  0
LINE
  8
0
 62
     0
 10
161.681
 20
97.6616
 30
0.0
 11
175.781
 21
97.6616
 31
0.0
  0
LINE
  8
0
 62
     0
 10
175.781
 20
97.6616
 30
0.0
 11
175.781
 21
83.5614
 31
0.0
  0
LINE
  8
0
 62
     0
 10
175.781
 20
83.5614
 30
0.0
 11
161.681
 21
83.5614
 31
0.0
  0
LINE
  8
0
 62
     0
 10
161.681
 20
83.5614
 30
0.0
 11
161.681
 21
97.6616
 31
0.0
  0
LINE
  8
0
 62
     0
 10
180.731
 20
97.6616
 30
0.0
 11
194.831
 21
97.6616
 31
0.0
  0
LINE
  8
0
 62
     0
 10
194.831
 20
97.6616
 30
0.0
 11
194.831
 21
83.5614
 31
0.0
  0
LINE
  8
0
 62
     0
 10
194.831
 20
83.5614
 30
0.0
 11
180.731
 21
83.5614
 31
0.0
  0
LINE
  8
0
 62
     0
 10
180.731
 20
83.5614
 30
0.0
 11
180.731
 21
97.6616
 31
0.0
  0
LINE
  8
0
 62
     0
 10
199.781
 20
97.6616
 30
0.0
 11
213.881
 21
97.6616
 31
0.0
  0
LINE
  8
0
 62
     0
 10
213.881
 20
97.6616
 30
0.0
 11
213.881
 21
83.5614
 31
0.0
  0
LINE
  8
0
 62
     0
 10
213.881
 20
83.5614
 30
0.0
 11
199.781
 21
83.5614
 31
0.0
  0
LINE
  8
0
 62
     0
 10
199.781
 20
83.5614
 30
0.0
 11
199.781
 21
97.6616
 31
0.0
  0
LINE
  8
0
 62
     0
 10
218.831
 20
97.6616
 30
0.0
 11
232.931
 21
97.6616
 31
0.0
  0
LINE
  8
0
 62
     0
 10
232.931
 20
97.6616
 30
0.0
 11
232.931
 21
83.5614
 31
0.0
  0
LINE
  8
0
 62
     0
 10
232.931
 20
83.5614
 30
0.0
 11
218.831
 21
83.5614
 31
0.0
  0
LINE
  8
0
 62
     0
 10
218.831
 20
83.5614
 30
0.0
 11
218.831
 21
97.6616
 31
0.0
  0
LINE
  8
0
 62
     0
 10
237.881
 20
97.6616
 30
0.0
 11
251.981
 21
97.6616
 31
0.0
  0
LINE
  8
0
 62
     0
 10
251.981
 20
97.6616
 30
0.0
 11
251.981
 21
83.5614
 31
0.0
  0
LINE
  8
0
 62
     0
 10
251.981
 20
83.5614
 30
0.0
 11
237.881
 21
83.5614
 31
0.0
  0
LINE
  8
0
 62
     0
 10
237.881
 20
83.5614
 30
0.0
 11
237.881
 21
97.6616
 31
0.0
  0
LINE
  8
0
 62
     0
 10
256.931
 20
97.6616
 30
0.0
 11
271.031
 21
97.6616
 31
0.0
  0
LINE
  8
0
 62
     0
 10
271.031
 20
97.6616
 30
0.0
 11
271.031
 21
83.5614
 31
0.0
  0
LINE
  8
0
 62
     0
 10
271.031
 20
83.5614
 30
0.0
 11
256.931
 21
83.5614
 31
0.0
  0
LINE
  8
0
 62
     0
 10
256.931
 20
83.5614
 30
0.0
 11
256.931
 21
97.6616
 31
0.0
  0
LINE
  8
0
 62
     0
 10
275.981
 20
97.6616
 30
0.0
 11
290.081
 21
97.6616
 31
0.0
  0
LINE
  8
0
 62
     0
 10
290.081
 20
97.6616
 30
0.0
 11
290.081
 21
83.5614
 31
0.0
  0
LINE
  8
0
 62
     0
 10
290.081
 20
83.5614
 30
0.0
 11
275.981
 21
83.5614
 31
0.0
  0
LINE
  8
0
 62
     0
 10
275.981
 20
83.5614
 30
0.0
 11
275.981
 21
97.6616
 31
0.0
  0
LINE
  8
0
 62
     0
 10
295.031
 20
97.6616
 30
0.0
 11
309.131
 21
97.6616
 31
0.0
  0
LINE
  8
0
 62
     0
 10
309.131
 20
97.6616
 30
0.0
 11
309.131
 21
83.5614
 31
0.0
  0
LINE
  8
0
 62
     0
 10
309.131
 20
83.5614
 30
0.0
 11
295.031
 21
83.5614
 31
0.0
  0
LINE
  8
0
 62
     0
 10
295.031
 20
83.5614
 30
0.0
 11
295.031
 21
97.6616
 31
0.0
  0
LINE
  8
0
 62
     0
 10
314.081
 20
97.6616
 30
0.0
 11
328.181
 21
97.6616
 31
0.0
  0
LINE
  8
0
 62
     0
 10
328.181
 20
97.6616
 30
0.0
 11
328.181
 21
83.5614
 31
0.0
  0
LINE
  8
0
 62
     0
 10
328.181
 20
83.5614
 30
0.0
 11
314.081
 21
83.5614
 31
0.0
  0
LINE
  8
0
 62
     0
 10
314.081
 20
83.5614
 30
0.0
 11
314.081
 21
97.6616
 31
0.0
  0
LINE
  8
0
 62
     0
 10
336.106
 20
98.4112
 30
0.0
 11
336.106
 21
97.4316
 31
0.0
  0
LINE
  8
0
 62
     0
 10
336.106
 20
97.4316
 30
0.0
 11
334.381
 21
97.4316
 31
0.0
  0
LINE
  8
0
 62
     0
 10
334.381
 20
97.4316
 30
0.0
 11
334.381
 21
91.1613
 31
0.0
  0
LINE
  8
0
 62
     0
 10
334.381
 20
91.1613
 30
0.0
 11
333.557
 21
91.1613
 31
0.0
  0
LINE
  8
0
 62
     0
 10
333.557
 20
91.1613
 30
0.0
 11
333.557
 21
88.2608
 31
0.0
  0
LINE
  8
0
 62
     0
 10
333.557
 20
88.2608
 30
0.0
 11
334.381
 21
88.2608
 31
0.0
  0
LINE
  8
0
 62
     0
 10
334.381
 20
88.2608
 30
0.0
 11
334.381
 21
85.0304
 31
0.0
  0
LINE
  8
0
 62
     0
 10
334.381
 20
85.0304
 30
0.0
 11
336.106
 21
85.0304
 31
0.0
  0
LINE
  8
0
 62
     0
 10
336.106
 20
85.0304
 30
0.0
 11
336.106
 21
84.1114
 31
0.0
  0
LINE
  8
0
 62
     0
 10
336.106
 20
84.1114
 30
0.0
 11
339.506
 21
84.1114
 31
0.0
  0
LINE
  8
0
 62
     0
 10
339.506
 20
84.1114
 30
0.0
 11
339.506
 21
85.0304
 31
0.0
  0
LINE
  8
0
 62
     0
 10
339.506
 20
85.0304
 30
0.0
 11
341.231
 21
85.0304
 31
0.0
  0
LINE
  8
0
 62
     0
 10
341.231
 20
85.0304
 30
0.0
 11
341.231
 21
88.2608
 31
0.0
  0
LINE
  8
0
 62
     0
 10
341.231
 20
88.2608
 30
0.0
 11
342.656
 21
88.2608
 31
0.0
  0
LINE
  8
0
 62
     0
 10
342.656
 20
88.2608
 30
0.0
 11
342.656
 21
83.5614
 31
0.0
  0
LINE
  8
0
 62
     0
 10
342.656
 20
83.5614
 30
0.0
 11
356.757
 21
83.5614
 31
0.0
  0
LINE
  8
0
 62
     0
 10
356.757
 20
83.5614
 30
0.0
 11
356.757
 21
88.2608
 31
0.0
  0
LINE
  8
0
 62
     0
 10
356.757
 20
88.2608
 30
0.0
 11
358.182
 21
88.2608
 31
0.0
  0
LINE
  8
0
 62
     0
 10
358.182
 20
88.2608
 30
0.0
 11
358.182
 21
85.0304
 31
0.0
  0
LINE
  8
0
 62
     0
 10
358.182
 20
85.0304
 30
0.0
 11
359.907
 21
85.0304
 31
0.0
  0
LINE
  8
0
 62
     0
 10
359.907
 20
85.0304
 30
0.0
 11
359.907
 21
84.1114
 31
0.0
  0
LINE
  8
0
 62
     0
 10
359.907
 20
84.1114
 30
0.0
 11
363.305
 21
84.1114
 31
0.0
  0
LINE
  8
0
 62
     0
 10
363.305
 20
84.1114
 30
0.0
 11
363.305
 21
85.0304
 31
0.0
  0
LINE
  8
0
 62
     0
 10
363.305
 20
85.0304
 30
0.0
 11
365.03
 21
85.0304
 31
0.0
  0
LINE
  8
0
 62
     0
 10
365.03
 20
85.0304
 30
0.0
 11
365.03
 21
88.2608
 31
0.0
  0
LINE
  8
0
 62
     0
 10
365.03
 20
88.2608
 30
0.0
 11
365.855
 21
88.2608
 31
0.0
  0
LINE
  8
0
 62
     0
 10
365.855
 20
88.2608
 30
0.0
 11
365.855
 21
91.1613
 31
0.0
  0
LINE
  8
0
 62
     0
 10
365.855
 20
91.1613
 30
0.0
 11
365.03
 21
91.1613
 31
0.0
  0
LINE
  8
0
 62
     0
 10
365.03
 20
91.1613
 30
0.0
 11
365.03
 21
97.4316
 31
0.0
  0
LINE
  8
0
 62
     0
 10
365.03
 20
97.4316
 30
0.0
 11
363.305
 21
97.4316
 31
0.0
  0
LINE
  8
0
 62
     0
 10
363.305
 20
97.4316
 30
0.0
 11
363.305
 21
98.4112
 31
0.0
  0
LINE
  8
0
 62
     0
 10
363.305
 20
98.4112
 30
0.0
 11
359.907
 21
98.4112
 31
0.0
  0
LINE
  8
0
 62
     0
 10
359.907
 20
98.4112
 30
0.0
 11
359.907
 21
97.4316
 31
0.0
  0
LINE
  8
0
 62
     0
 10
359.907
 20
97.4316
 30
0.0
 11
358.182
 21
97.4316
 31
0.0
  0
LINE
  8
0
 62
     0
 10
358.182
 20
97.4316
 30
0.0
 11
358.182
 21
92.9612
 31
0.0
  0
LINE
  8
0
 62
     0
 10
358.182
 20
92.9612
 30
0.0
 11
356.757
 21
92.9612
 31
0.0
  0
LINE
  8
0
 62
     0
 10
356.757
 20
92.9612
 30
0.0
 11
356.757
 21
97.6616
 31
0.0
  0
LINE
  8
0
 62
     0
 10
356.757
 20
97.6616
 30
0.0
 11
342.656
 21
97.6616
 31
0.0
  0
LINE
  8
0
 62
     0
 10
342.656
 20
97.6616
 30
0.0
 11
342.656
 21
92.9612
 31
0.0
  0
LINE
  8
0
 62
     0
 10
342.656
 20
92.9612
 30
0.0
 11
341.231
 21
92.9612
 31
0.0
  0
LINE
  8
0
 62
     0
 10
341.231
 20
92.9612
 30
0.0
 11
341.231
 21
97.4316
 31
0.0
  0
LINE
  8
0
 62
     0
 10
341.231
 20
97.4316
 30
0.0
 11
339.506
 21
97.4316
 31
0.0
  0
LINE
  8
0
 62
     0
 10
339.506
 20
97.4316
 30
0.0
 11
339.506
 21
98.4112
 31
0.0
  0
LINE
  8
0
 62
     0
 10
339.506
 20
98.4112
 30
0.0
 11
336.106
 21
98.4112
 31
0.0
  0
LINE
  8
0
 62
     0
 10
375.994
 20
97.6616
 30
0.0
 11
390.095
 21
97.6616
 31
0.0
  0
LINE
  8
0
 62
     0
 10
390.095
 20
97.6616
 30
0.0
 11
390.095
 21
83.5614
 31
0.0
  0
LINE
  8
0
 62
     0
 10
390.095
 20
83.5614
 30
0.0
 11
375.994
 21
83.5614
 31
0.0
  0
LINE
  8
0
 62
     0
 10
375.994
 20
83.5614
 30
0.0
 11
375.994
 21
97.6616
 31
0.0
  0
LINE
  8
0
 62
     0
 10
395.044
 20
97.6616
 30
0.0
 11
409.145
 21
97.6616
 31
0.0
  0
LINE
  8
0
 62
     0
 10
409.145
 20
97.6616
 30
0.0
 11
409.145
 21
83.5614
 31
0.0
  0
LINE
  8
0
 62
     0
 10
409.145
 20
83.5614
 30
0.0
 11
395.044
 21
83.5614
 31
0.0
  0
LINE
  8
0
 62
     0
 10
395.044
 20
83.5614
 30
0.0
 11
395.044
 21
97.6616
 31
0.0
  0
LINE
  8
0
 62
     0
 10
414.094
 20
97.6616
 30
0.0
 11
428.195
 21
97.6616
 31
0.0
  0
LINE
  8
0
 62
     0
 10
428.195
 20
97.6616
 30
0.0
 11
428.195
 21
83.5614
 31
0.0
  0
LINE
  8
0
 62
     0
 10
428.195
 20
83.5614
 30
0.0
 11
414.094
 21
83.5614
 31
0.0
  0
LINE
  8
0
 62
     0
 10
414.094
 20
83.5614
 30
0.0
 11
414.094
 21
97.6616
 31
0.0
  0
LINE
  8
0
 62
     0
 10
14.045
 20
126.237
 30
0.0
 11
28.1451
 21
126.237
 31
0.0
  0
LINE
  8
0
 62
     0
 10
28.1451
 20
126.237
 30
0.0
 11
28.1451
 21
112.136
 31
0.0
  0
LINE
  8
0
 62
     0
 10
28.1451
 20
112.136
 30
0.0
 11
14.045
 21
112.136
 31
0.0
  0
LINE
  8
0
 62
     0
 10
14.045
 20
112.136
 30
0.0
 11
14.045
 21
126.237
 31
0.0
  0
LINE
  8
0
 62
     0
 10
33.095
 20
126.237
 30
0.0
 11
47.1936
 21
126.237
 31
0.0
  0
LINE
  8
0
 62
     0
 10
47.1936
 20
126.237
 30
0.0
 11
47.1936
 21
112.136
 31
0.0
  0
LINE
  8
0
 62
     0
 10
47.1936
 20
112.136
 30
0.0
 11
33.095
 21
112.136
 31
0.0
  0
LINE
  8
0
 62
     0
 10
33.095
 20
112.136
 30
0.0
 11
33.095
 21
126.237
 31
0.0
  0
LINE
  8
0
 62
     0
 10
52.1451
 20
126.237
 30
0.0
 11
66.2436
 21
126.237
 31
0.0
  0
LINE
  8
0
 62
     0
 10
66.2436
 20
126.237
 30
0.0
 11
66.2436
 21
112.136
 31
0.0
  0
LINE
  8
0
 62
     0
 10
66.2436
 20
112.136
 30
0.0
 11
52.1451
 21
112.136
 31
0.0
  0
LINE
  8
0
 62
     0
 10
52.1451
 20
112.136
 30
0.0
 11
52.1451
 21
126.237
 31
0.0
  0
LINE
  8
0
 62
     0
 10
85.4812
 20
126.237
 30
0.0
 11
99.5811
 21
126.237
 31
0.0
  0
LINE
  8
0
 62
     0
 10
99.5811
 20
126.237
 30
0.0
 11
99.5811
 21
112.136
 31
0.0
  0
LINE
  8
0
 62
     0
 10
99.5811
 20
112.136
 30
0.0
 11
85.4812
 21
112.136
 31
0.0
  0
LINE
  8
0
 62
     0
 10
85.4812
 20
112.136
 30
0.0
 11
85.4812
 21
126.237
 31
0.0
  0
LINE
  8
0
 62
     0
 10
123.581
 20
126.237
 30
0.0
 11
137.681
 21
126.237
 31
0.0
  0
LINE
  8
0
 62
     0
 10
137.681
 20
126.237
 30
0.0
 11
137.681
 21
112.136
 31
0.0
  0
LINE
  8
0
 62
     0
 10
137.681
 20
112.136
 30
0.0
 11
123.581
 21
112.136
 31
0.0
  0
LINE
  8
0
 62
     0
 10
123.581
 20
112.136
 30
0.0
 11
123.581
 21
126.237
 31
0.0
  0
LINE
  8
0
 62
     0
 10
142.631
 20
126.237
 30
0.0
 11
156.731
 21
126.237
 31
0.0
  0
LINE
  8
0
 62
     0
 10
156.731
 20
126.237
 30
0.0
 11
156.731
 21
112.136
 31
0.0
  0
LINE
  8
0
 62
     0
 10
156.731
 20
112.136
 30
0.0
 11
142.631
 21
112.136
 31
0.0
  0
LINE
  8
0
 62
     0
 10
142.631
 20
112.136
 30
0.0
 11
142.631
 21
126.237
 31
0.0
  0
LINE
  8
0
 62
     0
 10
161.681
 20
126.237
 30
0.0
 11
175.781
 21
126.237
 31
0.0
  0
LINE
  8
0
 62
     0
 10
175.781
 20
126.237
 30
0.0
 11
175.781
 21
112.136
 31
0.0
  0
LINE
  8
0
 62
     0
 10
175.781
 20
112.136
 30
0.0
 11
161.681
 21
112.136
 31
0.0
  0
LINE
  8
0
 62
     0
 10
161.681
 20
112.136
 30
0.0
 11
161.681
 21
126.237
 31
0.0
  0
LINE
  8
0
 62
     0
 10
180.731
 20
126.237
 30
0.0
 11
194.831
 21
126.237
 31
0.0
  0
LINE
  8
0
 62
     0
 10
194.831
 20
126.237
 30
0.0
 11
194.831
 21
112.136
 31
0.0
  0
LINE
  8
0
 62
     0
 10
194.831
 20
112.136
 30
0.0
 11
180.731
 21
112.136
 31
0.0
  0
LINE
  8
0
 62
     0
 10
180.731
 20
112.136
 30
0.0
 11
180.731
 21
126.237
 31
0.0
  0
LINE
  8
0
 62
     0
 10
209.306
 20
126.237
 30
0.0
 11
223.406
 21
126.237
 31
0.0
  0
LINE
  8
0
 62
     0
 10
223.406
 20
126.237
 30
0.0
 11
223.406
 21
112.136
 31
0.0
  0
LINE
  8
0
 62
     0
 10
223.406
 20
112.136
 30
0.0
 11
209.306
 21
112.136
 31
0.0
  0
LINE
  8
0
 62
     0
 10
209.306
 20
112.136
 30
0.0
 11
209.306
 21
126.237
 31
0.0
  0
LINE
  8
0
 62
     0
 10
228.356
 20
126.237
 30
0.0
 11
242.456
 21
126.237
 31
0.0
  0
LINE
  8
0
 62
     0
 10
242.456
 20
126.237
 30
0.0
 11
242.456
 21
112.136
 31
0.0
  0
LINE
  8
0
 62
     0
 10
242.456
 20
112.136
 30
0.0
 11
228.356
 21
112.136
 31
0.0
  0
LINE
  8
0
 62
     0
 10
228.356
 20
112.136
 30
0.0
 11
228.356
 21
126.237
 31
0.0
  0
LINE
  8
0
 62
     0
 10
247.406
 20
126.237
 30
0.0
 11
261.506
 21
126.237
 31
0.0
  0
LINE
  8
0
 62
     0
 10
261.506
 20
126.237
 30
0.0
 11
261.506
 21
112.136
 31
0.0
  0
LINE
  8
0
 62
     0
 10
261.506
 20
112.136
 30
0.0
 11
247.406
 21
112.136
 31
0.0
  0
LINE
  8
0
 62
     0
 10
247.406
 20
112.136
 30
0.0
 11
247.406
 21
126.237
 31
0.0
  0
LINE
  8
0
 62
     0
 10
266.456
 20
126.237
 30
0.0
 11
280.556
 21
126.237
 31
0.0
  0
LINE
  8
0
 62
     0
 10
280.556
 20
126.237
 30
0.0
 11
280.556
 21
112.136
 31
0.0
  0
LINE
  8
0
 62
     0
 10
280.556
 20
112.136
 30
0.0
 11
266.456
 21
112.136
 31
0.0
  0
LINE
  8
0
 62
     0
 10
266.456
 20
112.136
 30
0.0
 11
266.456
 21
126.237
 31
0.0
  0
LINE
  8
0
 62
     0
 10
295.031
 20
126.237
 30
0.0
 11
309.131
 21
126.237
 31
0.0
  0
LINE
  8
0
 62
     0
 10
309.131
 20
126.237
 30
0.0
 11
309.131
 21
112.136
 31
0.0
  0
LINE
  8
0
 62
     0
 10
309.131
 20
112.136
 30
0.0
 11
295.031
 21
112.136
 31
0.0
  0
LINE
  8
0
 62
     0
 10
295.031
 20
112.136
 30
0.0
 11
295.031
 21
126.237
 31
0.0
  0
LINE
  8
0
 62
     0
 10
314.081
 20
126.237
 30
0.0
 11
328.181
 21
126.237
 31
0.0
  0
LINE
  8
0
 62
     0
 10
328.181
 20
126.237
 30
0.0
 11
328.181
 21
112.136
 31
0.0
  0
LINE
  8
0
 62
     0
 10
328.181
 20
112.136
 30
0.0
 11
314.081
 21
112.136
 31
0.0
  0
LINE
  8
0
 62
     0
 10
314.081
 20
112.136
 30
0.0
 11
314.081
 21
126.237
 31
0.0
  0
LINE
  8
0
 62
     0
 10
333.131
 20
126.237
 30
0.0
 11
347.231
 21
126.237
 31
0.0
  0
LINE
  8
0
 62
     0
 10
347.231
 20
126.237
 30
0.0
 11
347.231
 21
112.136
 31
0.0
  0
LINE
  8
0
 62
     0
 10
347.231
 20
112.136
 30
0.0
 11
333.131
 21
112.136
 31
0.0
  0
LINE
  8
0
 62
     0
 10
333.131
 20
112.136
 30
0.0
 11
333.131
 21
126.237
 31
0.0
  0
LINE
  8
0
 62
     0
 10
352.181
 20
126.237
 30
0.0
 11
366.282
 21
126.237
 31
0.0
  0
LINE
  8
0
 62
     0
 10
366.282
 20
126.237
 30
0.0
 11
366.282
 21
112.136
 31
0.0
  0
LINE
  8
0
 62
     0
 10
366.282
 20
112.136
 30
0.0
 11
352.181
 21
112.136
 31
0.0
  0
LINE
  8
0
 62
     0
 10
352.181
 20
112.136
 30
0.0
 11
352.181
 21
126.237
 31
0.0
  0
LINE
  8
0
 62
     0
 10
375.994
 20
126.237
 30
0.0
 11
390.095
 21
126.237
 31
0.0
  0
LINE
  8
0
 62
     0
 10
390.095
 20
126.237
 30
0.0
 11
390.095
 21
112.136
 31
0.0
  0
LINE
  8
0
 62
     0
 10
390.095
 20
112.136
 30
0.0
 11
375.994
 21
112.136
 31
0.0
  0
LINE
  8
0
 62
     0
 10
375.994
 20
112.136
 30
0.0
 11
375.994
 21
126.237
 31
0.0
  0
LINE
  8
0
 62
     0
 10
395.044
 20
126.237
 30
0.0
 11
409.145
 21
126.237
 31
0.0
  0
LINE
  8
0
 62
     0
 10
409.145
 20
126.237
 30
0.0
 11
409.145
 21
112.136
 31
0.0
  0
LINE
  8
0
 62
     0
 10
409.145
 20
112.136
 30
0.0
 11
395.044
 21
112.136
 31
0.0
  0
LINE
  8
0
 62
     0
 10
395.044
 20
112.136
 30
0.0
 11
395.044
 21
126.237
 31
0.0
  0
LINE
  8
0
 62
     0
 10
414.094
 20
126.237
 30
0.0
 11
428.195
 21
126.237
 31
0.0
  0
LINE
  8
0
 62
     0
 10
428.195
 20
126.237
 30
0.0
 11
428.195
 21
112.136
 31
0.0
  0
LINE
  8
0
 62
     0
 10
428.195
 20
112.136
 30
0.0
 11
414.094
 21
112.136
 31
0.0
  0
LINE
  8
0
 62
     0
 10
414.094
 20
112.136
 30
0.0
 11
414.094
 21
126.237
 31
0.0
  0
LINE
  8
0
 62
     0
 10
52.1451
 20
145.287
 30
0.0
 11
66.2436
 21
145.287
 31
0.0
  0
LINE
  8
0
 62
     0
 10
66.2436
 20
145.287
 30
0.0
 11
66.2436
 21
131.186
 31
0.0
  0
LINE
  8
0
 62
     0
 10
66.2436
 20
131.186
 30
0.0
 11
52.1451
 21
131.186
 31
0.0
  0
LINE
  8
0
 62
     0
 10
52.1451
 20
131.186
 30
0.0
 11
52.1451
 21
145.287
 31
0.0
  0
LINE
  8
0
 62
     0
 10
85.4812
 20
145.287
 30
0.0
 11
99.5811
 21
145.287
 31
0.0
  0
LINE
  8
0
 62
     0
 10
99.5811
 20
145.287
 30
0.0
 11
99.5811
 21
131.186
 31
0.0
  0
LINE
  8
0
 62
     0
 10
99.5811
 20
131.186
 30
0.0
 11
85.4812
 21
131.186
 31
0.0
  0
LINE
  8
0
 62
     0
 10
85.4812
 20
131.186
 30
0.0
 11
85.4812
 21
145.287
 31
0.0
  0
LINE
  8
0
 62
     0
 10
123.581
 20
145.287
 30
0.0
 11
137.681
 21
145.287
 31
0.0
  0
LINE
  8
0
 62
     0
 10
137.681
 20
145.287
 30
0.0
 11
137.681
 21
131.186
 31
0.0
  0
LINE
  8
0
 62
     0
 10
137.681
 20
131.186
 30
0.0
 11
123.581
 21
131.186
 31
0.0
  0
LINE
  8
0
 62
     0
 10
123.581
 20
131.186
 30
0.0
 11
123.581
 21
145.287
 31
0.0
  0
LINE
  8
0
 62
     0
 10
142.631
 20
145.287
 30
0.0
 11
156.731
 21
145.287
 31
0.0
  0
LINE
  8
0
 62
     0
 10
156.731
 20
145.287
 30
0.0
 11
156.731
 21
131.186
 31
0.0
  0
LINE
  8
0
 62
     0
 10
156.731
 20
131.186
 30
0.0
 11
142.631
 21
131.186
 31
0.0
  0
LINE
  8
0
 62
     0
 10
142.631
 20
131.186
 30
0.0
 11
142.631
 21
145.287
 31
0.0
  0
LINE
  8
0
 62
     0
 10
161.681
 20
145.287
 30
0.0
 11
175.781
 21
145.287
 31
0.0
  0
LINE
  8
0
 62
     0
 10
175.781
 20
145.287
 30
0.0
 11
175.781
 21
131.186
 31
0.0
  0
LINE
  8
0
 62
     0
 10
175.781
 20
131.186
 30
0.0
 11
161.681
 21
131.186
 31
0.0
  0
LINE
  8
0
 62
     0
 10
161.681
 20
131.186
 30
0.0
 11
161.681
 21
145.287
 31
0.0
  0
LINE
  8
0
 62
     0
 10
180.731
 20
145.287
 30
0.0
 11
194.831
 21
145.287
 31
0.0
  0
LINE
  8
0
 62
     0
 10
194.831
 20
145.287
 30
0.0
 11
194.831
 21
131.186
 31
0.0
  0
LINE
  8
0
 62
     0
 10
194.831
 20
131.186
 30
0.0
 11
180.731
 21
131.186
 31
0.0
  0
LINE
  8
0
 62
     0
 10
180.731
 20
131.186
 30
0.0
 11
180.731
 21
145.287
 31
0.0
  0
LINE
  8
0
 62
     0
 10
209.306
 20
145.287
 30
0.0
 11
223.406
 21
145.287
 31
0.0
  0
LINE
  8
0
 62
     0
 10
223.406
 20
145.287
 30
0.0
 11
223.406
 21
131.186
 31
0.0
  0
LINE
  8
0
 62
     0
 10
223.406
 20
131.186
 30
0.0
 11
209.306
 21
131.186
 31
0.0
  0
LINE
  8
0
 62
     0
 10
209.306
 20
131.186
 30
0.0
 11
209.306
 21
145.287
 31
0.0
  0
LINE
  8
0
 62
     0
 10
228.356
 20
145.287
 30
0.0
 11
242.456
 21
145.287
 31
0.0
  0
LINE
  8
0
 62
     0
 10
242.456
 20
145.287
 30
0.0
 11
242.456
 21
131.186
 31
0.0
  0
LINE
  8
0
 62
     0
 10
242.456
 20
131.186
 30
0.0
 11
228.356
 21
131.186
 31
0.0
  0
LINE
  8
0
 62
     0
 10
228.356
 20
131.186
 30
0.0
 11
228.356
 21
145.287
 31
0.0
  0
LINE
  8
0
 62
     0
 10
247.406
 20
145.287
 30
0.0
 11
261.506
 21
145.287
 31
0.0
  0
LINE
  8
0
 62
     0
 10
261.506
 20
145.287
 30
0.0
 11
261.506
 21
131.186
 31
0.0
  0
LINE
  8
0
 62
     0
 10
261.506
 20
131.186
 30
0.0
 11
247.406
 21
131.186
 31
0.0
  0
LINE
  8
0
 62
     0
 10
247.406
 20
131.186
 30
0.0
 11
247.406
 21
145.287
 31
0.0
  0
LINE
  8
0
 62
     0
 10
266.456
 20
145.287
 30
0.0
 11
280.556
 21
145.287
 31
0.0
  0
LINE
  8
0
 62
     0
 10
280.556
 20
145.287
 30
0.0
 11
280.556
 21
131.186
 31
0.0
  0
LINE
  8
0
 62
     0
 10
280.556
 20
131.186
 30
0.0
 11
266.456
 21
131.186
 31
0.0
  0
LINE
  8
0
 62
     0
 10
266.456
 20
131.186
 30
0.0
 11
266.456
 21
145.287
 31
0.0
  0
LINE
  8
0
 62
     0
 10
295.031
 20
145.287
 30
0.0
 11
309.131
 21
145.287
 31
0.0
  0
LINE
  8
0
 62
     0
 10
309.131
 20
145.287
 30
0.0
 11
309.131
 21
131.186
 31
0.0
  0
LINE
  8
0
 62
     0
 10
309.131
 20
131.186
 30
0.0
 11
295.031
 21
131.186
 31
0.0
  0
LINE
  8
0
 62
     0
 10
295.031
 20
131.186
 30
0.0
 11
295.031
 21
145.287
 31
0.0
  0
LINE
  8
0
 62
     0
 10
314.081
 20
145.287
 30
0.0
 11
328.181
 21
145.287
 31
0.0
  0
LINE
  8
0
 62
     0
 10
328.181
 20
145.287
 30
0.0
 11
328.181
 21
131.186
 31
0.0
  0
LINE
  8
0
 62
     0
 10
328.181
 20
131.186
 30
0.0
 11
314.081
 21
131.186
 31
0.0
  0
LINE
  8
0
 62
     0
 10
314.081
 20
131.186
 30
0.0
 11
314.081
 21
145.287
 31
0.0
  0
LINE
  8
0
 62
     0
 10
333.131
 20
145.287
 30
0.0
 11
347.231
 21
145.287
 31
0.0
  0
LINE
  8
0
 62
     0
 10
347.231
 20
145.287
 30
0.0
 11
347.231
 21
131.186
 31
0.0
  0
LINE
  8
0
 62
     0
 10
347.231
 20
131.186
 30
0.0
 11
333.131
 21
131.186
 31
0.0
  0
LINE
  8
0
 62
     0
 10
333.131
 20
131.186
 30
0.0
 11
333.131
 21
145.287
 31
0.0
  0
LINE
  8
0
 62
     0
 10
352.181
 20
145.287
 30
0.0
 11
366.282
 21
145.287
 31
0.0
  0
LINE
  8
0
 62
     0
 10
366.282
 20
145.287
 30
0.0
 11
366.282
 21
131.186
 31
0.0
  0
LINE
  8
0
 62
     0
 10
366.282
 20
131.186
 30
0.0
 11
352.181
 21
131.186
 31
0.0
  0
LINE
  8
0
 62
     0
 10
352.181
 20
131.186
 30
0.0
 11
352.181
 21
145.287
 31
0.0
  0
ENDSEC
  0
EOF
