M48
; DRILL file {KiCad 7.0.5} date Sat Jun 10 21:15:36 2023
; FORMAT={-:-/ absolute / inch / decimal}
; #@! TF.CreationDate,2023-06-10T21:15:36-04:00
; #@! TF.GenerationSoftware,Kicad,Pcbnew,7.0.5
; #@! TF.FileFunction,NonPlated,1,2,NPTH
FMAT,2
INCH
; #@! TA.AperFunction,NonPlated,NPTH,ComponentDrill
T1C0.0689
; #@! TA.AperFunction,NonPlated,NPTH,ComponentDrill
T2C0.1181
; #@! TA.AperFunction,NonPlated,NPTH,ComponentDrill
T3C0.1200
; #@! TA.AperFunction,NonPlated,NPTH,ComponentDrill
T4C0.1570
%
G90
G05
T1
X14.7062Y-4.7812
X14.7062Y-5.5312
X14.7062Y-6.2812
X14.7062Y-7.0312
X14.8Y-3.6562
X15.0812Y-7.7812
X15.1062Y-4.7812
X15.1062Y-5.5312
X15.1062Y-6.2812
X15.1062Y-7.0312
X15.2Y-3.6562
X15.4562Y-4.7812
X15.4562Y-5.5312
X15.4562Y-6.2812
X15.4562Y-7.0312
X15.4812Y-7.7812
X15.7375Y-3.6562
X15.8562Y-4.7812
X15.8562Y-5.5312
X15.8562Y-6.2812
X15.8562Y-7.0312
X16.1375Y-3.6562
X16.2063Y-4.7812
X16.2063Y-5.5312
X16.2063Y-6.2812
X16.2063Y-7.0312
X16.2063Y-7.7812
X16.6062Y-4.7812
X16.6062Y-5.5312
X16.6062Y-6.2812
X16.6062Y-7.0312
X16.6062Y-7.7812
X16.675Y-3.6562
X16.7688Y-2.9062
X16.9563Y-4.7812
X17.075Y-3.6562
X17.1562Y-5.7062
X17.1562Y-6.1063
X17.1562Y-7.2062
X17.1562Y-7.6063
X17.1687Y-2.9062
X17.3562Y-4.7812
X17.8938Y-2.9062
X17.8938Y-3.6562
X17.8938Y-4.7812
X17.9875Y-7.7812
X18.0813Y-5.5312
X18.175Y-6.2812
X18.2937Y-2.9062
X18.2937Y-3.6562
X18.2937Y-4.7812
X18.3625Y-7.0312
X18.3875Y-7.7812
X18.4812Y-5.5312
X18.575Y-6.2812
X18.6438Y-4.7812
X18.7625Y-7.0312
X18.925Y-7.7812
X19.0188Y-5.5312
X19.0437Y-4.7812
X19.2063Y-6.2812
X19.325Y-7.7812
X19.3938Y-2.9062
X19.3938Y-3.6562
X19.3938Y-4.7812
X19.4187Y-5.5312
X19.5813Y-7.0312
X19.6062Y-6.2812
X19.7688Y-5.5312
X19.7937Y-2.9062
X19.7937Y-3.6562
X19.7937Y-4.7812
X19.8625Y-7.7812
X19.9563Y-6.2812
X19.9812Y-7.0312
X20.1438Y-2.9062
X20.1438Y-3.6562
X20.1438Y-4.7812
X20.1687Y-5.5312
X20.2625Y-7.7812
X20.3336Y-7.025
X20.3562Y-6.2812
X20.5188Y-5.5312
X20.5437Y-2.9062
X20.5437Y-3.6562
X20.5437Y-4.7812
X20.7063Y-6.2812
X20.7336Y-7.025
X20.8938Y-2.9062
X20.8938Y-3.6562
X20.8938Y-4.7812
X20.9187Y-5.5312
X21.0813Y-7.0312
X21.1062Y-6.2812
X21.2688Y-5.5312
X21.2937Y-2.9062
X21.2937Y-3.6562
X21.2937Y-4.7812
X21.4563Y-6.2812
X21.4812Y-7.0312
X21.6438Y-2.9062
X21.6438Y-3.6562
X21.6438Y-4.7812
X21.6687Y-5.5312
X21.8313Y-7.0312
X21.8562Y-6.2812
X22.0188Y-5.5312
X22.0437Y-2.9062
X22.0437Y-3.6562
X22.0437Y-4.7812
X22.2063Y-6.2812
X22.2312Y-7.0312
X22.3938Y-4.7812
X22.4187Y-5.5312
X22.5813Y-7.0312
X22.6062Y-6.2812
X22.675Y-7.7812
X22.7688Y-2.9062
X22.7688Y-3.6562
X22.7688Y-5.5312
X22.7937Y-4.7812
X22.9563Y-6.2812
X22.9812Y-7.0312
X23.075Y-7.7812
X23.1438Y-4.7812
X23.1687Y-2.9062
X23.1687Y-3.6562
X23.1687Y-5.5312
X23.3313Y-7.0312
X23.3562Y-6.2812
X23.5188Y-2.9062
X23.5188Y-3.6562
X23.5188Y-5.5312
X23.5437Y-4.7812
X23.7063Y-6.2812
X23.7312Y-7.0312
X23.8938Y-4.7812
X23.9187Y-2.9062
X23.9187Y-3.6562
X23.9187Y-5.5312
X24.0813Y-7.0312
X24.1062Y-6.2812
X24.2688Y-2.9062
X24.2688Y-3.6562
X24.2688Y-5.5312
X24.2937Y-4.7812
X24.4563Y-6.2812
X24.4812Y-7.0312
X24.6438Y-4.7812
X24.6687Y-2.9062
X24.6687Y-3.6562
X24.6687Y-5.5312
X24.8313Y-7.0312
X24.8562Y-6.2812
X25.0188Y-2.9062
X25.0188Y-3.6562
X25.0188Y-5.5312
X25.0437Y-4.7812
X25.2063Y-6.2812
X25.2312Y-7.0312
X25.3938Y-4.7812
X25.4187Y-2.9062
X25.4187Y-3.6562
X25.4187Y-5.5312
X25.4875Y-7.7812
X25.5813Y-7.0312
X25.6062Y-6.2812
X25.7688Y-5.5312
X25.7937Y-4.7812
X25.8875Y-7.7812
X25.9563Y-6.2812
X25.9812Y-7.0312
X26.1438Y-2.9062
X26.1438Y-3.6562
X26.1438Y-4.7812
X26.1687Y-5.5312
X26.3313Y-7.0312
X26.3562Y-6.2812
X26.425Y-7.7812
X26.5188Y-5.5312
X26.5437Y-2.9062
X26.5437Y-3.6562
X26.5437Y-4.7812
X26.7063Y-6.2812
X26.7312Y-7.0312
X26.825Y-7.7812
X26.8938Y-2.9062
X26.8938Y-3.6562
X26.8938Y-4.7812
X26.9187Y-5.5312
X27.1062Y-6.2812
X27.2688Y-5.5312
X27.2937Y-2.9062
X27.2937Y-3.6562
X27.2937Y-4.7812
X27.3625Y-7.7812
X27.6438Y-2.9062
X27.6438Y-3.6562
X27.6687Y-5.5312
X27.7375Y-7.0312
X27.7625Y-7.7812
X27.925Y-6.2812
X28.0188Y-4.7812
X28.0437Y-2.9062
X28.0437Y-3.6562
X28.1375Y-7.0312
X28.2063Y-5.5312
X28.3Y-7.7812
X28.325Y-6.2812
X28.3938Y-2.9062
X28.3938Y-3.6562
X28.4187Y-4.7812
X28.6062Y-5.5312
X28.7Y-7.7812
X28.7937Y-2.9062
X28.7937Y-3.6562
X29.3313Y-3.6562
X29.3313Y-4.7812
X29.3313Y-5.5312
X29.3313Y-7.7812
X29.7312Y-3.6562
X29.7312Y-4.7812
X29.7312Y-5.5312
X29.7312Y-7.7812
X30.0813Y-3.6562
X30.0813Y-4.7812
X30.0813Y-5.5312
X30.0813Y-7.0312
X30.0813Y-7.7812
X30.4812Y-3.6562
X30.4812Y-4.7812
X30.4812Y-5.5312
X30.4812Y-7.0312
X30.4812Y-7.7812
X30.8313Y-3.6562
X30.8313Y-4.7812
X30.8313Y-5.5312
X30.8313Y-7.7812
X31.2312Y-3.6562
X31.2312Y-4.7812
X31.2312Y-5.5312
X31.2312Y-7.7812
T2
X14.8063Y-4.9813
X14.8063Y-5.7313
X14.8063Y-6.4813
X14.8063Y-7.2313
X14.9Y-3.8562
X15.0563Y-4.8812
X15.0563Y-5.6312
X15.0563Y-6.3812
X15.0563Y-7.1312
X15.15Y-3.7563
X15.1813Y-7.9813
X15.4313Y-7.8812
X15.5563Y-4.9813
X15.5563Y-5.7313
X15.5563Y-6.4813
X15.5563Y-7.2313
X15.8063Y-4.8812
X15.8063Y-5.6312
X15.8063Y-6.3812
X15.8063Y-7.1312
X15.8375Y-3.8562
X16.0875Y-3.7563
X16.3062Y-4.9813
X16.3062Y-5.7313
X16.3062Y-6.4813
X16.3062Y-7.2313
X16.3062Y-7.9813
X16.5562Y-4.8812
X16.5562Y-5.6312
X16.5562Y-6.3812
X16.5562Y-7.1312
X16.5562Y-7.8812
X16.775Y-3.8562
X16.8687Y-3.1062
X17.025Y-3.7563
X17.0562Y-4.9813
X17.1187Y-3.0063
X17.2562Y-5.7562
X17.2562Y-7.2562
X17.3062Y-4.8812
X17.3562Y-6.0062
X17.3562Y-7.5062
X17.9937Y-3.1062
X17.9937Y-3.8562
X17.9937Y-4.9813
X18.0875Y-7.9813
X18.1812Y-5.7313
X18.2437Y-3.0063
X18.2437Y-3.7563
X18.2437Y-4.8812
X18.275Y-6.4813
X18.3375Y-7.8812
X18.4312Y-5.6312
X18.4625Y-7.2313
X18.525Y-6.3812
X18.7125Y-7.1312
X18.7437Y-4.9813
X18.9937Y-4.8812
X19.025Y-7.9813
X19.1187Y-5.7313
X19.275Y-7.8812
X19.3062Y-6.4813
X19.3687Y-5.6312
X19.4937Y-3.1062
X19.4937Y-3.8562
X19.4937Y-4.9813
X19.5562Y-6.3812
X19.6812Y-7.2313
X19.7437Y-3.0063
X19.7437Y-3.7563
X19.7437Y-4.8812
X19.8687Y-5.7313
X19.9312Y-7.1312
X19.9625Y-7.9813
X20.0562Y-6.4813
X20.1187Y-5.6312
X20.2125Y-7.8812
X20.2437Y-3.1062
X20.2437Y-3.8562
X20.2437Y-4.9813
X20.3062Y-6.3812
X20.4336Y-7.225
X20.4937Y-3.0063
X20.4937Y-3.7563
X20.4937Y-4.8812
X20.6187Y-5.7313
X20.6836Y-7.125
X20.8062Y-6.4813
X20.8687Y-5.6312
X20.9937Y-3.1062
X20.9937Y-3.8562
X20.9937Y-4.9813
X21.0562Y-6.3812
X21.1812Y-7.2313
X21.2437Y-3.0063
X21.2437Y-3.7563
X21.2437Y-4.8812
X21.3687Y-5.7313
X21.4312Y-7.1312
X21.5562Y-6.4813
X21.6187Y-5.6312
X21.7437Y-3.1062
X21.7437Y-3.8562
X21.7437Y-4.9813
X21.8062Y-6.3812
X21.9312Y-7.2313
X21.9937Y-3.0063
X21.9937Y-3.7563
X21.9937Y-4.8812
X22.1187Y-5.7313
X22.1812Y-7.1312
X22.3062Y-6.4813
X22.3687Y-5.6312
X22.4937Y-4.9813
X22.5562Y-6.3812
X22.6812Y-7.2313
X22.7437Y-4.8812
X22.775Y-7.9813
X22.8687Y-3.1062
X22.8687Y-3.8562
X22.8687Y-5.7313
X22.9312Y-7.1312
X23.025Y-7.8812
X23.0562Y-6.4813
X23.1187Y-3.0063
X23.1187Y-3.7563
X23.1187Y-5.6312
X23.2437Y-4.9813
X23.3062Y-6.3812
X23.4312Y-7.2313
X23.4937Y-4.8812
X23.6187Y-3.1062
X23.6187Y-3.8562
X23.6187Y-5.7313
X23.6812Y-7.1312
X23.8062Y-6.4813
X23.8687Y-3.0063
X23.8687Y-3.7563
X23.8687Y-5.6312
X23.9937Y-4.9813
X24.0562Y-6.3812
X24.1812Y-7.2313
X24.2437Y-4.8812
X24.3687Y-3.1062
X24.3687Y-3.8562
X24.3687Y-5.7313
X24.4312Y-7.1312
X24.5562Y-6.4813
X24.6187Y-3.0063
X24.6187Y-3.7563
X24.6187Y-5.6312
X24.7437Y-4.9813
X24.8062Y-6.3812
X24.9312Y-7.2313
X24.9937Y-4.8812
X25.1187Y-3.1062
X25.1187Y-3.8562
X25.1187Y-5.7313
X25.1812Y-7.1312
X25.3062Y-6.4813
X25.3687Y-3.0063
X25.3687Y-3.7563
X25.3687Y-5.6312
X25.4937Y-4.9813
X25.5562Y-6.3812
X25.5875Y-7.9813
X25.6812Y-7.2313
X25.7437Y-4.8812
X25.8375Y-7.8812
X25.8687Y-5.7313
X25.9312Y-7.1312
X26.0562Y-6.4813
X26.1187Y-5.6312
X26.2437Y-3.1062
X26.2437Y-3.8562
X26.2437Y-4.9813
X26.3062Y-6.3812
X26.4312Y-7.2313
X26.4937Y-3.0063
X26.4937Y-3.7563
X26.4937Y-4.8812
X26.525Y-7.9813
X26.6187Y-5.7313
X26.6812Y-7.1312
X26.775Y-7.8812
X26.8062Y-6.4813
X26.8687Y-5.6312
X26.9937Y-3.1062
X26.9937Y-3.8562
X26.9937Y-4.9813
X27.0562Y-6.3812
X27.2437Y-3.0063
X27.2437Y-3.7563
X27.2437Y-4.8812
X27.3687Y-5.7313
X27.4625Y-7.9813
X27.6187Y-5.6312
X27.7125Y-7.8812
X27.7437Y-3.1062
X27.7437Y-3.8562
X27.8375Y-7.2313
X27.9937Y-3.0063
X27.9937Y-3.7563
X28.025Y-6.4813
X28.0875Y-7.1312
X28.1187Y-4.9813
X28.275Y-6.3812
X28.3062Y-5.7313
X28.3687Y-4.8812
X28.4Y-7.9813
X28.4937Y-3.1062
X28.4937Y-3.8562
X28.5562Y-5.6312
X28.65Y-7.8812
X28.7437Y-3.0063
X28.7437Y-3.7563
X29.4312Y-3.8562
X29.4312Y-4.9813
X29.4312Y-5.7313
X29.4312Y-7.9813
X29.6812Y-3.7563
X29.6812Y-4.8812
X29.6812Y-5.6312
X29.6812Y-7.8812
X30.1812Y-3.8562
X30.1812Y-4.9813
X30.1812Y-5.7313
X30.1812Y-7.2313
X30.1812Y-7.9813
X30.4312Y-3.7563
X30.4312Y-4.8812
X30.4312Y-5.6312
X30.4312Y-7.1312
X30.4312Y-7.8812
X30.9312Y-3.8562
X30.9312Y-4.9813
X30.9312Y-5.7313
X30.9312Y-7.9813
X31.1812Y-3.7563
X31.1812Y-4.8812
X31.1812Y-5.6312
X31.1812Y-7.8812
T3
X14.8112Y-7.5062
X15.7512Y-7.5062
X16.8812Y-5.4363
X16.8812Y-6.3762
X16.8812Y-6.9363
X16.8812Y-7.8762
X18.0925Y-6.7562
X19.0325Y-6.7562
X20.9065Y-7.5062
X24.8435Y-7.5062
X27.4675Y-6.7562
X27.655Y-6.0062
X27.7488Y-4.5062
X28.4075Y-6.7562
X28.595Y-6.0062
X28.6887Y-4.5062
T4
X14.8112Y-8.1062
X14.9062Y-4.7812
X14.9062Y-5.5312
X14.9062Y-6.2812
X14.9062Y-7.0312
X15.0Y-3.6562
X15.2812Y-7.7812
X15.6562Y-4.7812
X15.6562Y-5.5312
X15.6562Y-6.2812
X15.6562Y-7.0312
X15.7512Y-8.1062
X15.9375Y-3.6562
X16.4062Y-4.7812
X16.4062Y-5.5312
X16.4062Y-6.2812
X16.4062Y-7.0312
X16.4062Y-7.7812
X16.875Y-3.6562
X16.9688Y-2.9062
X17.1562Y-4.7812
X17.1562Y-5.9062
X17.1562Y-7.4062
X17.4812Y-5.4363
X17.4812Y-6.3762
X17.4812Y-6.9363
X17.4812Y-7.8762
X18.0925Y-7.3563
X18.0938Y-2.9062
X18.0938Y-3.6562
X18.0938Y-4.7812
X18.1875Y-7.7812
X18.2812Y-5.5312
X18.375Y-6.2812
X18.5625Y-7.0312
X18.8438Y-4.7812
X19.0325Y-7.3563
X19.125Y-7.7812
X19.2188Y-5.5312
X19.4062Y-6.2812
X19.5938Y-2.9062
X19.5938Y-3.6562
X19.5938Y-4.7812
X19.7812Y-7.0312
X19.9688Y-5.5312
X20.0625Y-7.7812
X20.1562Y-6.2812
X20.3438Y-2.9062
X20.3438Y-3.6562
X20.3438Y-4.7812
X20.5336Y-7.025
X20.7188Y-5.5312
X20.9062Y-6.2812
X20.9065Y-8.1062
X21.0938Y-2.9062
X21.0938Y-3.6562
X21.0938Y-4.7812
X21.2812Y-7.0312
X21.4688Y-5.5312
X21.6562Y-6.2812
X21.8438Y-2.9062
X21.8438Y-3.6562
X21.8438Y-4.7812
X22.0312Y-7.0312
X22.2188Y-5.5312
X22.4062Y-6.2812
X22.5938Y-4.7812
X22.7812Y-7.0312
X22.875Y-7.7812
X22.9688Y-2.9062
X22.9688Y-3.6562
X22.9688Y-5.5312
X23.1562Y-6.2812
X23.3438Y-4.7812
X23.5312Y-7.0312
X23.7188Y-2.9062
X23.7188Y-3.6562
X23.7188Y-5.5312
X23.9062Y-6.2812
X24.0938Y-4.7812
X24.2812Y-7.0312
X24.4688Y-2.9062
X24.4688Y-3.6562
X24.4688Y-5.5312
X24.6562Y-6.2812
X24.8435Y-8.1062
X24.8438Y-4.7812
X25.0312Y-7.0312
X25.2188Y-2.9062
X25.2188Y-3.6562
X25.2188Y-5.5312
X25.4062Y-6.2812
X25.5938Y-4.7812
X25.6875Y-7.7812
X25.7812Y-7.0312
X25.9688Y-5.5312
X26.1562Y-6.2812
X26.3438Y-2.9062
X26.3438Y-3.6562
X26.3438Y-4.7812
X26.5312Y-7.0312
X26.625Y-7.7812
X26.7188Y-5.5312
X26.9062Y-6.2812
X27.0938Y-2.9062
X27.0938Y-3.6562
X27.0938Y-4.7812
X27.4675Y-7.3563
X27.4688Y-5.5312
X27.5625Y-7.7812
X27.655Y-6.6063
X27.7488Y-5.1063
X27.8438Y-2.9062
X27.8438Y-3.6562
X27.9375Y-7.0312
X28.125Y-6.2812
X28.2188Y-4.7812
X28.4062Y-5.5312
X28.4075Y-7.3563
X28.5Y-7.7812
X28.5938Y-2.9062
X28.5938Y-3.6562
X28.595Y-6.6063
X28.6887Y-5.1063
X29.5312Y-3.6562
X29.5312Y-4.7812
X29.5312Y-5.5312
X29.5312Y-7.7812
X30.2812Y-3.6562
X30.2812Y-4.7812
X30.2812Y-5.5312
X30.2812Y-7.0312
X30.2812Y-7.7812
X31.0312Y-3.6562
X31.0312Y-4.7812
X31.0312Y-5.5312
X31.0312Y-7.7812
T0
M30
