M48
; DRILL file {KiCad 7.0.5} date Sat Jun 10 21:15:36 2023
; FORMAT={-:-/ absolute / inch / decimal}
; #@! TF.CreationDate,2023-06-10T21:15:36-04:00
; #@! TF.GenerationSoftware,Kicad,Pcbnew,7.0.5
; #@! TF.FileFunction,Plated,1,2,PTH
FMAT,2
INCH
; #@! TA.AperFunction,Plated,PTH,ViaDrill
T1C0.0157
; #@! TA.AperFunction,Plated,PTH,ViaDrill
T2C0.0315
%
G90
G05
T1
X14.9062Y-4.0312
X15.2812Y-4.5
X15.2812Y-5.25
X15.2812Y-6.0
X15.2812Y-6.75
X15.375Y-3.375
X15.6562Y-4.125
X15.6562Y-7.5
X16.0312Y-4.5
X16.0312Y-5.25
X16.0312Y-6.0
X16.0312Y-6.75
X16.3125Y-3.375
X16.4062Y-4.2188
X16.7812Y-4.5
X16.7812Y-5.25
X16.7812Y-6.0
X16.7812Y-6.75
X16.7812Y-7.5
X17.0625Y-4.3125
X17.1562Y-6.75
X17.3438Y-5.25
X17.4375Y-2.625
X17.4375Y-3.375
X17.5312Y-4.5
X18.0Y-4.4062
X18.4688Y-3.375
X18.4688Y-4.5
X18.4688Y-5.25
X18.5625Y-2.625
X18.5625Y-7.5
X18.6693Y-4.4449
X18.75Y-6.0
X18.9375Y-6.75
X19.2188Y-4.5
X19.4062Y-4.5
X19.4062Y-5.25
X19.5Y-7.5
X19.5938Y-6.0
X19.9688Y-2.625
X19.9688Y-3.375
X19.9688Y-4.5
X20.1555Y-6.7508
X20.1562Y-4.6875
X20.343Y-5.2508
X20.3438Y-6.0
X20.4375Y-7.5
X20.7188Y-2.625
X20.7188Y-3.375
X20.7188Y-4.5
X20.9055Y-6.7508
X21.0669Y-5.1457
X21.093Y-5.2508
X21.0938Y-6.0
X21.4688Y-2.625
X21.4688Y-3.375
X21.4688Y-4.5
X21.6555Y-6.7508
X21.815Y-5.1348
X21.843Y-5.2508
X21.8438Y-6.0
X22.2188Y-2.625
X22.2188Y-3.375
X22.2188Y-4.5
X22.4055Y-6.7508
X22.4062Y-5.25
X22.5938Y-5.1633
X22.5938Y-6.0
X22.7812Y-4.5
X22.9688Y-6.75
X23.25Y-7.5
X23.343Y-5.2508
X23.3438Y-2.625
X23.3438Y-3.375
X23.3438Y-6.0
X23.3701Y-5.1969
X23.5312Y-4.5
X23.9055Y-6.7508
X24.0937Y-5.2501
X24.0938Y-2.625
X24.0938Y-3.375
X24.0938Y-6.0
X24.1417Y-5.2165
X24.2812Y-4.5
X24.6562Y-6.7501
X24.8437Y-5.2501
X24.8438Y-2.625
X24.8438Y-3.375
X24.8438Y-6.0
X25.0118Y-5.4094
X25.0312Y-4.5
X25.4062Y-6.7501
X25.593Y-5.2508
X25.5938Y-2.625
X25.5938Y-3.375
X25.5938Y-6.0
X25.7559Y-5.3873
X25.9688Y-4.5
X25.9688Y-6.75
X26.0625Y-7.5
X26.1562Y-5.25
X26.3438Y-6.0
X26.3543Y-5.4173
X26.7188Y-2.625
X26.7188Y-3.375
X26.7188Y-4.5
X26.9055Y-6.7508
X26.9062Y-5.25
X27.0Y-7.5
X27.0938Y-6.0
X27.4094Y-5.8622
X27.4688Y-2.625
X27.4688Y-3.375
X27.4688Y-4.5
X27.6575Y-4.5512
X27.75Y-5.3438
X27.75Y-7.5
X28.125Y-6.75
X28.2188Y-2.625
X28.2188Y-3.375
X28.3125Y-6.0
X28.3661Y-3.9803
X28.5938Y-4.5
X28.6875Y-7.5
X28.7598Y-5.8907
X28.7812Y-5.3438
X28.9688Y-2.625
X28.9688Y-3.375
X28.9803Y-4.0079
X28.9882Y-4.1024
X28.9961Y-4.1969
X29.0039Y-4.2913
X29.0118Y-4.378
X29.0236Y-5.189
X29.0394Y-4.6654
X29.0551Y-4.4016
X29.063Y-5.2283
X29.1339Y-5.2559
X29.1772Y-5.2835
X29.2087Y-5.315
X29.2283Y-5.4134
X29.409Y-5.378
X29.4134Y-5.8888
X29.4528Y-5.378
X29.9055Y-2.2087
X29.9062Y-3.375
X29.9062Y-4.5
X29.9062Y-5.25
X29.9062Y-7.5
X29.9291Y-6.843
X29.9331Y-3.2402
X29.9331Y-6.0938
X29.9528Y-2.2087
X29.9724Y-3.2402
X30.0035Y-4.5512
X30.0039Y-2.2087
X30.0118Y-3.2402
X30.0511Y-3.2402
X30.0551Y-2.2087
X30.063Y-4.4882
X30.0669Y-5.9065
X30.0906Y-3.2402
X30.1024Y-2.2087
X30.1535Y-2.2087
X30.2047Y-2.2087
X30.2244Y-2.8071
X30.2795Y-2.8071
X30.3465Y-2.8071
X30.4055Y-1.9449
X30.4055Y-2.0591
X30.4094Y-2.8071
X30.451Y-5.9074
X30.4606Y-5.25
X30.4685Y-3.375
X30.4724Y-2.8071
X30.4764Y-4.4961
X30.4856Y-5.8888
X30.5354Y-2.8071
X30.5371Y-5.871
X30.5669Y-5.8425
X30.5787Y-2.8071
X30.5945Y-2.1732
X30.626Y-2.8071
X30.6496Y-2.1732
X30.6562Y-6.75
X30.6562Y-7.5
X30.6694Y-4.1811
X30.6969Y-2.1732
X30.752Y-2.1732
X30.7992Y-2.1732
X30.8504Y-2.1732
X30.9016Y-2.1732
X30.9488Y-2.1732
X31.2047Y-3.375
X31.2283Y-4.5
X31.2323Y-7.5
X31.2362Y-5.252
T2
X29.1614Y-2.0906
X29.1772Y-2.189
X30.2992Y-2.0906
X30.4606Y-2.1417
T0
M30
