%TF.GenerationSoftware,KiCad,Pcbnew,7.0.5*%
%TF.CreationDate,2023-06-27T19:32:05-04:00*%
%TF.ProjectId,keyboard_mk1,6b657962-6f61-4726-945f-6d6b312e6b69,rev?*%
%TF.SameCoordinates,Original*%
%TF.FileFunction,Soldermask,Top*%
%TF.FilePolarity,Negative*%
%FSLAX46Y46*%
G04 Gerber Fmt 4.6, Leading zero omitted, Abs format (unit mm)*
G04 Created by KiCad (PCBNEW 7.0.5) date 2023-06-27 19:32:05*
%MOMM*%
%LPD*%
G01*
G04 APERTURE LIST*
G04 Aperture macros list*
%AMRoundRect*
0 Rectangle with rounded corners*
0 $1 Rounding radius*
0 $2 $3 $4 $5 $6 $7 $8 $9 X,Y pos of 4 corners*
0 Add a 4 corners polygon primitive as box body*
4,1,4,$2,$3,$4,$5,$6,$7,$8,$9,$2,$3,0*
0 Add four circle primitives for the rounded corners*
1,1,$1+$1,$2,$3*
1,1,$1+$1,$4,$5*
1,1,$1+$1,$6,$7*
1,1,$1+$1,$8,$9*
0 Add four rect primitives between the rounded corners*
20,1,$1+$1,$2,$3,$4,$5,0*
20,1,$1+$1,$4,$5,$6,$7,0*
20,1,$1+$1,$6,$7,$8,$9,0*
20,1,$1+$1,$8,$9,$2,$3,0*%
G04 Aperture macros list end*
%ADD10C,1.750000*%
%ADD11C,3.000000*%
%ADD12C,3.987800*%
%ADD13RoundRect,0.250000X0.450000X-0.350000X0.450000X0.350000X-0.450000X0.350000X-0.450000X-0.350000X0*%
%ADD14C,3.048000*%
%ADD15C,5.500000*%
%ADD16C,3.500000*%
%ADD17RoundRect,0.250000X0.450000X-0.325000X0.450000X0.325000X-0.450000X0.325000X-0.450000X-0.325000X0*%
%ADD18RoundRect,0.250000X-0.450000X0.350000X-0.450000X-0.350000X0.450000X-0.350000X0.450000X0.350000X0*%
%ADD19RoundRect,0.250000X-0.350000X-0.450000X0.350000X-0.450000X0.350000X0.450000X-0.350000X0.450000X0*%
%ADD20RoundRect,0.250000X0.337500X0.475000X-0.337500X0.475000X-0.337500X-0.475000X0.337500X-0.475000X0*%
%ADD21R,1.500000X0.400000*%
%ADD22O,1.700000X1.700000*%
%ADD23R,1.700000X1.700000*%
G04 APERTURE END LIST*
D10*
%TO.C,125K105*%
X741679243Y-149949490D03*
D11*
X740409243Y-152489490D03*
D12*
X736599243Y-149949490D03*
D11*
X734059243Y-155029490D03*
D10*
X731519243Y-149949490D03*
%TD*%
%TO.C,K57*%
X667860493Y-73749490D03*
D11*
X666590493Y-76289490D03*
D12*
X662780493Y-73749490D03*
D11*
X660240493Y-78829490D03*
D10*
X657700493Y-73749490D03*
%TD*%
D13*
%TO.C,R5*%
X716280000Y-3540000D03*
X716280000Y-1540000D03*
%TD*%
D10*
%TO.C,K18*%
X786922993Y-45174490D03*
D11*
X785652993Y-47714490D03*
D12*
X781842993Y-45174490D03*
D11*
X779302993Y-50254490D03*
D10*
X776762993Y-45174490D03*
%TD*%
D14*
%TO.C,2K106*%
X412780993Y-156934490D03*
D12*
X412780993Y-141694490D03*
D10*
X405922993Y-149949490D03*
D11*
X404652993Y-152489490D03*
D12*
X400842993Y-149949490D03*
D11*
X398302993Y-155029490D03*
D10*
X395762993Y-149949490D03*
D14*
X388904993Y-156934490D03*
D12*
X388904993Y-141694490D03*
%TD*%
D10*
%TO.C,K28*%
X553560493Y-45174490D03*
D11*
X552290493Y-47714490D03*
D12*
X548480493Y-45174490D03*
D11*
X545940493Y-50254490D03*
D10*
X543400493Y-45174490D03*
%TD*%
D14*
%TO.C,275K121*%
X734249743Y-137884490D03*
D12*
X734249743Y-122644490D03*
D10*
X727391743Y-130899490D03*
D11*
X726121743Y-133439490D03*
D12*
X722311743Y-130899490D03*
D11*
X719771743Y-135979490D03*
D10*
X717231743Y-130899490D03*
D14*
X710373743Y-137884490D03*
D12*
X710373743Y-122644490D03*
%TD*%
D10*
%TO.C,K21*%
X786922993Y-92799490D03*
D11*
X785652993Y-95339490D03*
D12*
X781842993Y-92799490D03*
D11*
X779302993Y-97879490D03*
D10*
X776762993Y-92799490D03*
%TD*%
%TO.C,K29*%
X572610493Y-45174490D03*
D11*
X571340493Y-47714490D03*
D12*
X567530493Y-45174490D03*
D11*
X564990493Y-50254490D03*
D10*
X562450493Y-45174490D03*
%TD*%
%TO.C,K67*%
X477360493Y-26124490D03*
D11*
X476090493Y-28664490D03*
D12*
X472280493Y-26124490D03*
D11*
X469740493Y-31204490D03*
D10*
X467200493Y-26124490D03*
%TD*%
%TO.C,K35*%
X705960493Y-45174490D03*
D11*
X704690493Y-47714490D03*
D12*
X700880493Y-45174490D03*
D11*
X698340493Y-50254490D03*
D10*
X695800493Y-45174490D03*
%TD*%
%TO.C,K42*%
X805972993Y-92799490D03*
D11*
X804702993Y-95339490D03*
D12*
X800892993Y-92799490D03*
D11*
X798352993Y-97879490D03*
D10*
X795812993Y-92799490D03*
%TD*%
%TO.C,K49*%
X515460493Y-73749490D03*
D11*
X514190493Y-76289490D03*
D12*
X510380493Y-73749490D03*
D11*
X507840493Y-78829490D03*
D10*
X505300493Y-73749490D03*
%TD*%
%TO.C,K44*%
X415447993Y-92799490D03*
D11*
X414177993Y-95339490D03*
D12*
X410367993Y-92799490D03*
D11*
X407827993Y-97879490D03*
D10*
X405287993Y-92799490D03*
%TD*%
D15*
%TO.C,REF\u002A\u002A*%
X575310000Y-149860000D03*
%TD*%
D10*
%TO.C,K55*%
X629760493Y-73749490D03*
D11*
X628490493Y-76289490D03*
D12*
X624680493Y-73749490D03*
D11*
X622140493Y-78829490D03*
D10*
X619600493Y-73749490D03*
%TD*%
%TO.C,K95*%
X605947993Y-111849490D03*
D11*
X604677993Y-114389490D03*
D12*
X600867993Y-111849490D03*
D11*
X598327993Y-116929490D03*
D10*
X595787993Y-111849490D03*
%TD*%
%TO.C,K17*%
X767872993Y-45174490D03*
D11*
X766602993Y-47714490D03*
D12*
X762792993Y-45174490D03*
D11*
X760252993Y-50254490D03*
D10*
X757712993Y-45174490D03*
%TD*%
%TO.C,K53*%
X591660493Y-73749490D03*
D11*
X590390493Y-76289490D03*
D12*
X586580493Y-73749490D03*
D11*
X584040493Y-78829490D03*
D10*
X581500493Y-73749490D03*
%TD*%
%TO.C,K27*%
X534510493Y-45174490D03*
D11*
X533240493Y-47714490D03*
D12*
X529430493Y-45174490D03*
D11*
X526890493Y-50254490D03*
D10*
X524350493Y-45174490D03*
%TD*%
%TO.C,K59*%
X705960493Y-73749490D03*
D11*
X704690493Y-76289490D03*
D12*
X700880493Y-73749490D03*
D11*
X698340493Y-78829490D03*
D10*
X695800493Y-73749490D03*
%TD*%
%TO.C,K6*%
X534510493Y-26124490D03*
D11*
X533240493Y-28664490D03*
D12*
X529430493Y-26124490D03*
D11*
X526890493Y-31204490D03*
D10*
X524350493Y-26124490D03*
%TD*%
%TO.C,K2*%
X424972917Y-45174506D03*
D11*
X423702917Y-47714506D03*
D12*
X419892917Y-45174506D03*
D11*
X417352917Y-50254506D03*
D10*
X414812917Y-45174506D03*
%TD*%
%TO.C,K52*%
X572610493Y-73749490D03*
D11*
X571340493Y-76289490D03*
D12*
X567530493Y-73749490D03*
D11*
X564990493Y-78829490D03*
D10*
X562450493Y-73749490D03*
%TD*%
%TO.C,K96*%
X624997993Y-111849490D03*
D11*
X623727993Y-114389490D03*
D12*
X619917993Y-111849490D03*
D11*
X617377993Y-116929490D03*
D10*
X614837993Y-111849490D03*
%TD*%
%TO.C,K69*%
X505935493Y-92799490D03*
D11*
X504665493Y-95339490D03*
D12*
X500855493Y-92799490D03*
D11*
X498315493Y-97879490D03*
D10*
X495775493Y-92799490D03*
%TD*%
%TO.C,K61*%
X767872993Y-149949490D03*
D11*
X766602993Y-152489490D03*
D12*
X762792993Y-149949490D03*
D11*
X760252993Y-155029490D03*
D10*
X757712993Y-149949490D03*
%TD*%
D15*
%TO.C,REF\u002A\u002A*%
X803910000Y-115570000D03*
%TD*%
D10*
%TO.C,K14*%
X705960493Y-26124490D03*
D11*
X704690493Y-28664490D03*
D12*
X700880493Y-26124490D03*
D11*
X698340493Y-31204490D03*
D10*
X695800493Y-26124490D03*
%TD*%
%TO.C,K23*%
X415447993Y-73749490D03*
D11*
X414177993Y-76289490D03*
D12*
X410367993Y-73749490D03*
D11*
X407827993Y-78829490D03*
D10*
X405287993Y-73749490D03*
%TD*%
%TO.C,K92*%
X548797993Y-111849490D03*
D11*
X547527993Y-114389490D03*
D12*
X543717993Y-111849490D03*
D11*
X541177993Y-116929490D03*
D10*
X538637993Y-111849490D03*
%TD*%
D14*
%TO.C,225K110*%
X496124743Y-137884490D03*
D12*
X496124743Y-122644490D03*
D10*
X489266743Y-130899490D03*
D11*
X487996743Y-133439490D03*
D12*
X484186743Y-130899490D03*
D11*
X481646743Y-135979490D03*
D10*
X479106743Y-130899490D03*
D14*
X472248743Y-137884490D03*
D12*
X472248743Y-122644490D03*
%TD*%
D16*
%TO.C,REF\u002A\u002A*%
X613410000Y-149860000D03*
%TD*%
D10*
%TO.C,K63*%
X805972993Y-149949490D03*
D11*
X804702993Y-152489490D03*
D12*
X800892993Y-149949490D03*
D11*
X798352993Y-155029490D03*
D10*
X795812993Y-149949490D03*
%TD*%
%TO.C,K94*%
X586897993Y-111849490D03*
D11*
X585627993Y-114389490D03*
D12*
X581817993Y-111849490D03*
D11*
X579277993Y-116929490D03*
D10*
X576737993Y-111849490D03*
%TD*%
%TO.C,125K102*%
X670241743Y-149949490D03*
D11*
X668971743Y-152489490D03*
D12*
X665161743Y-149949490D03*
D11*
X662621743Y-155029490D03*
D10*
X660081743Y-149949490D03*
%TD*%
%TO.C,15K81*%
X739297993Y-92799490D03*
D11*
X738027993Y-95339490D03*
D12*
X734217993Y-92799490D03*
D11*
X731677993Y-97879490D03*
D10*
X729137993Y-92799490D03*
%TD*%
D17*
%TO.C,D124*%
X736600000Y-7375000D03*
X736600000Y-5325000D03*
%TD*%
D10*
%TO.C,K20*%
X767872993Y-92799490D03*
D11*
X766602993Y-95339490D03*
D12*
X762792993Y-92799490D03*
D11*
X760252993Y-97879490D03*
D10*
X757712993Y-92799490D03*
%TD*%
%TO.C,K80*%
X715485493Y-92799490D03*
D11*
X714215493Y-95339490D03*
D12*
X710405493Y-92799490D03*
D11*
X707865493Y-97879490D03*
D10*
X705325493Y-92799490D03*
%TD*%
D18*
%TO.C,R11*%
X736600000Y-11700000D03*
X736600000Y-13700000D03*
%TD*%
D10*
%TO.C,K72*%
X563085493Y-92799490D03*
D11*
X561815493Y-95339490D03*
D12*
X558005493Y-92799490D03*
D11*
X555465493Y-97879490D03*
D10*
X552925493Y-92799490D03*
%TD*%
%TO.C,K77*%
X658335493Y-92799490D03*
D11*
X657065493Y-95339490D03*
D12*
X653255493Y-92799490D03*
D11*
X650715493Y-97879490D03*
D10*
X648175493Y-92799490D03*
%TD*%
%TO.C,K93*%
X567847993Y-111849490D03*
D11*
X566577993Y-114389490D03*
D12*
X562767993Y-111849490D03*
D11*
X560227993Y-116929490D03*
D10*
X557687993Y-111849490D03*
%TD*%
%TO.C,K33*%
X658335493Y-45174490D03*
D11*
X657065493Y-47714490D03*
D12*
X653255493Y-45174490D03*
D11*
X650715493Y-50254490D03*
D10*
X648175493Y-45174490D03*
%TD*%
%TO.C,K116*%
X615472993Y-130899490D03*
D11*
X614202993Y-133439490D03*
D12*
X610392993Y-130899490D03*
D11*
X607852993Y-135979490D03*
D10*
X605312993Y-130899490D03*
%TD*%
%TO.C,K54*%
X610710493Y-73749490D03*
D11*
X609440493Y-76289490D03*
D12*
X605630493Y-73749490D03*
D11*
X603090493Y-78829490D03*
D10*
X600550493Y-73749490D03*
%TD*%
D13*
%TO.C,R12*%
X712470000Y-13430000D03*
X712470000Y-11430000D03*
%TD*%
D10*
%TO.C,K76*%
X639285493Y-92799490D03*
D11*
X638015493Y-95339490D03*
D12*
X634205493Y-92799490D03*
D11*
X631665493Y-97879490D03*
D10*
X629125493Y-92799490D03*
%TD*%
%TO.C,K16*%
X744060493Y-26124490D03*
D11*
X742790493Y-28664490D03*
D12*
X738980493Y-26124490D03*
D11*
X736440493Y-31204490D03*
D10*
X733900493Y-26124490D03*
%TD*%
D13*
%TO.C,R4*%
X726440000Y-3540000D03*
X726440000Y-1540000D03*
%TD*%
D10*
%TO.C,K26*%
X515460493Y-45174490D03*
D11*
X514190493Y-47714490D03*
D12*
X510380493Y-45174490D03*
D11*
X507840493Y-50254490D03*
D10*
X505300493Y-45174490D03*
%TD*%
%TO.C,125K83*%
X503554243Y-149949490D03*
D11*
X502284243Y-152489490D03*
D12*
X498474243Y-149949490D03*
D11*
X495934243Y-155029490D03*
D10*
X493394243Y-149949490D03*
%TD*%
%TO.C,K74*%
X601185493Y-92799490D03*
D11*
X599915493Y-95339490D03*
D12*
X596105493Y-92799490D03*
D11*
X593565493Y-97879490D03*
D10*
X591025493Y-92799490D03*
%TD*%
%TO.C,K9*%
X601185493Y-26124490D03*
D11*
X599915493Y-28664490D03*
D12*
X596105493Y-26124490D03*
D11*
X593565493Y-31204490D03*
D10*
X591025493Y-26124490D03*
%TD*%
%TO.C,K19*%
X805972993Y-45174490D03*
D11*
X804702993Y-47714490D03*
D12*
X800892993Y-45174490D03*
D11*
X798352993Y-50254490D03*
D10*
X795812993Y-45174490D03*
%TD*%
D14*
%TO.C,2K88*%
X455452993Y-128486490D03*
D12*
X440212993Y-128486490D03*
D10*
X448467993Y-135344490D03*
D11*
X451007993Y-136614490D03*
D12*
X448467993Y-140424490D03*
D11*
X453547993Y-142964490D03*
D10*
X448467993Y-145504490D03*
D14*
X455452993Y-152362490D03*
D12*
X440212993Y-152362490D03*
%TD*%
D10*
%TO.C,K12*%
X658335493Y-26124490D03*
D11*
X657065493Y-28664490D03*
D12*
X653255493Y-26124490D03*
D11*
X650715493Y-31204490D03*
D10*
X648175493Y-26124490D03*
%TD*%
%TO.C,K70*%
X524985493Y-92799490D03*
D11*
X523715493Y-95339490D03*
D12*
X519905493Y-92799490D03*
D11*
X517365493Y-97879490D03*
D10*
X514825493Y-92799490D03*
%TD*%
D19*
%TO.C,R7*%
X454472800Y-10414000D03*
X456472800Y-10414000D03*
%TD*%
D10*
%TO.C,K79*%
X696435493Y-92799490D03*
D11*
X695165493Y-95339490D03*
D12*
X691355493Y-92799490D03*
D11*
X688815493Y-97879490D03*
D10*
X686275493Y-92799490D03*
%TD*%
%TO.C,K34*%
X686910493Y-45174490D03*
D11*
X685640493Y-47714490D03*
D12*
X681830493Y-45174490D03*
D11*
X679290493Y-50254490D03*
D10*
X676750493Y-45174490D03*
%TD*%
%TO.C,K99*%
X682147993Y-111849490D03*
D11*
X680877993Y-114389490D03*
D12*
X677067993Y-111849490D03*
D11*
X674527993Y-116929490D03*
D10*
X671987993Y-111849490D03*
%TD*%
D17*
%TO.C,D123*%
X726440000Y-7375000D03*
X726440000Y-5325000D03*
%TD*%
D10*
%TO.C,125K103*%
X694054243Y-149949490D03*
D11*
X692784243Y-152489490D03*
D12*
X688974243Y-149949490D03*
D11*
X686434243Y-155029490D03*
D10*
X683894243Y-149949490D03*
%TD*%
%TO.C,K100*%
X701197993Y-111849490D03*
D11*
X699927993Y-114389490D03*
D12*
X696117993Y-111849490D03*
D11*
X693577993Y-116929490D03*
D10*
X691037993Y-111849490D03*
%TD*%
D15*
%TO.C,REF\u002A\u002A*%
X474066424Y-8860405D03*
%TD*%
D10*
%TO.C,K22*%
X396397993Y-73749490D03*
D11*
X395127993Y-76289490D03*
D12*
X391317993Y-73749490D03*
D11*
X388777993Y-78829490D03*
D10*
X386237993Y-73749490D03*
%TD*%
D19*
%TO.C,R8*%
X454472800Y-7620000D03*
X456472800Y-7620000D03*
%TD*%
D10*
%TO.C,K64*%
X396397993Y-111849490D03*
D11*
X395127993Y-114389490D03*
D12*
X391317993Y-111849490D03*
D11*
X388777993Y-116929490D03*
D10*
X386237993Y-111849490D03*
%TD*%
%TO.C,K118*%
X653572993Y-130899490D03*
D11*
X652302993Y-133439490D03*
D12*
X648492993Y-130899490D03*
D11*
X645952993Y-135979490D03*
D10*
X643412993Y-130899490D03*
%TD*%
%TO.C,K75*%
X620235493Y-92799490D03*
D11*
X618965493Y-95339490D03*
D12*
X615155493Y-92799490D03*
D11*
X612615493Y-97879490D03*
D10*
X610075493Y-92799490D03*
%TD*%
D14*
%TO.C,625K109*%
X643724143Y-156934490D03*
D12*
X643724143Y-141694490D03*
D10*
X598804243Y-149949490D03*
D11*
X597534243Y-152489490D03*
D12*
X593724243Y-149949490D03*
D11*
X591184243Y-155029490D03*
D10*
X588644243Y-149949490D03*
D14*
X543724343Y-156934490D03*
D12*
X543724343Y-141694490D03*
%TD*%
D10*
%TO.C,K85*%
X396397993Y-130899490D03*
D11*
X395127993Y-133439490D03*
D12*
X391317993Y-130899490D03*
D11*
X388777993Y-135979490D03*
D10*
X386237993Y-130899490D03*
%TD*%
%TO.C,K40*%
X805972993Y-73749490D03*
D11*
X804702993Y-76289490D03*
D12*
X800892993Y-73749490D03*
D11*
X798352993Y-78829490D03*
D10*
X795812993Y-73749490D03*
%TD*%
D20*
%TO.C,C1*%
X463397600Y-12801600D03*
X461322600Y-12801600D03*
%TD*%
D16*
%TO.C,REF\u002A\u002A*%
X467360000Y-130810000D03*
%TD*%
D10*
%TO.C,K117*%
X634522993Y-130899490D03*
D11*
X633252993Y-133439490D03*
D12*
X629442993Y-130899490D03*
D11*
X626902993Y-135979490D03*
D10*
X624362993Y-130899490D03*
%TD*%
D15*
%TO.C,REF\u002A\u002A*%
X702666616Y-8860405D03*
%TD*%
D13*
%TO.C,R10*%
X726440000Y-13700000D03*
X726440000Y-11700000D03*
%TD*%
D10*
%TO.C,K15*%
X725010493Y-26124490D03*
D11*
X723740493Y-28664490D03*
D12*
X719930493Y-26124490D03*
D11*
X717390493Y-31204490D03*
D10*
X714850493Y-26124490D03*
%TD*%
%TO.C,K66*%
X434497993Y-111849490D03*
D11*
X433227993Y-114389490D03*
D12*
X429417993Y-111849490D03*
D11*
X426877993Y-116929490D03*
D10*
X424337993Y-111849490D03*
%TD*%
D21*
%TO.C,Q1*%
X730250000Y-11430000D03*
X730250000Y-12080000D03*
X730250000Y-12730000D03*
X732910000Y-12730000D03*
X732910000Y-12080000D03*
X732910000Y-11430000D03*
%TD*%
D10*
%TO.C,K24*%
X434497993Y-73749490D03*
D11*
X433227993Y-76289490D03*
D12*
X429417993Y-73749490D03*
D11*
X426877993Y-78829490D03*
D10*
X424337993Y-73749490D03*
%TD*%
D13*
%TO.C,R3*%
X736600000Y-3540000D03*
X736600000Y-1540000D03*
%TD*%
D10*
%TO.C,K87*%
X434497993Y-130899490D03*
D11*
X433227993Y-133439490D03*
D12*
X429417993Y-130899490D03*
D11*
X426877993Y-135979490D03*
D10*
X424337993Y-130899490D03*
%TD*%
%TO.C,K32*%
X639285493Y-45174490D03*
D11*
X638015493Y-47714490D03*
D12*
X634205493Y-45174490D03*
D11*
X631665493Y-50254490D03*
D10*
X629125493Y-45174490D03*
%TD*%
%TO.C,K111*%
X520222993Y-130899490D03*
D11*
X518952993Y-133439490D03*
D12*
X515142993Y-130899490D03*
D11*
X512602993Y-135979490D03*
D10*
X510062993Y-130899490D03*
%TD*%
%TO.C,K31*%
X620235493Y-45174490D03*
D11*
X618965493Y-47714490D03*
D12*
X615155493Y-45174490D03*
D11*
X612615493Y-50254490D03*
D10*
X610075493Y-45174490D03*
%TD*%
%TO.C,125K82*%
X479741743Y-149949490D03*
D11*
X478471743Y-152489490D03*
D12*
X474661743Y-149949490D03*
D11*
X472121743Y-155029490D03*
D10*
X469581743Y-149949490D03*
%TD*%
%TO.C,K1*%
X405922901Y-45174506D03*
D11*
X404652901Y-47714506D03*
D12*
X400842901Y-45174506D03*
D11*
X398302901Y-50254506D03*
D10*
X395762901Y-45174506D03*
%TD*%
%TO.C,K56*%
X648810493Y-73749490D03*
D11*
X647540493Y-76289490D03*
D12*
X643730493Y-73749490D03*
D11*
X641190493Y-78829490D03*
D10*
X638650493Y-73749490D03*
%TD*%
D14*
%TO.C,225K101*%
X739012243Y-118834490D03*
D12*
X739012243Y-103594490D03*
D10*
X732154243Y-111849490D03*
D11*
X730884243Y-114389490D03*
D12*
X727074243Y-111849490D03*
D11*
X724534243Y-116929490D03*
D10*
X721994243Y-111849490D03*
D14*
X715136243Y-118834490D03*
D12*
X715136243Y-103594490D03*
%TD*%
D10*
%TO.C,K113*%
X558322993Y-130899490D03*
D11*
X557052993Y-133439490D03*
D12*
X553242993Y-130899490D03*
D11*
X550702993Y-135979490D03*
D10*
X548162993Y-130899490D03*
%TD*%
%TO.C,K50*%
X534510493Y-73749490D03*
D11*
X533240493Y-76289490D03*
D12*
X529430493Y-73749490D03*
D11*
X526890493Y-78829490D03*
D10*
X524350493Y-73749490D03*
%TD*%
%TO.C,K47*%
X477360493Y-73749490D03*
D11*
X476090493Y-76289490D03*
D12*
X472280493Y-73749490D03*
D11*
X469740493Y-78829490D03*
D10*
X467200493Y-73749490D03*
%TD*%
%TO.C,K8*%
X572610493Y-26124490D03*
D11*
X571340493Y-28664490D03*
D12*
X567530493Y-26124490D03*
D11*
X564990493Y-31204490D03*
D10*
X562450493Y-26124490D03*
%TD*%
%TO.C,K90*%
X510697993Y-111849490D03*
D11*
X509427993Y-114389490D03*
D12*
X505617993Y-111849490D03*
D11*
X503077993Y-116929490D03*
D10*
X500537993Y-111849490D03*
%TD*%
%TO.C,K62*%
X786922993Y-149949490D03*
D11*
X785652993Y-152489490D03*
D12*
X781842993Y-149949490D03*
D11*
X779302993Y-155029490D03*
D10*
X776762993Y-149949490D03*
%TD*%
%TO.C,K119*%
X672622993Y-130899490D03*
D11*
X671352993Y-133439490D03*
D12*
X667542993Y-130899490D03*
D11*
X665002993Y-135979490D03*
D10*
X662462993Y-130899490D03*
%TD*%
%TO.C,K36*%
X725010493Y-45174490D03*
D11*
X723740493Y-47714490D03*
D12*
X719930493Y-45174490D03*
D11*
X717390493Y-50254490D03*
D10*
X714850493Y-45174490D03*
%TD*%
D15*
%TO.C,REF\u002A\u002A*%
X391160000Y-8890000D03*
%TD*%
D10*
%TO.C,K25*%
X453547993Y-73749490D03*
D11*
X452277993Y-76289490D03*
D12*
X448467993Y-73749490D03*
D11*
X445927993Y-78829490D03*
D10*
X443387993Y-73749490D03*
%TD*%
%TO.C,K3*%
X444022965Y-45174506D03*
D11*
X442752965Y-47714506D03*
D12*
X438942965Y-45174506D03*
D11*
X436402965Y-50254506D03*
D10*
X433862965Y-45174506D03*
%TD*%
D22*
%TO.C,SW1*%
X449580000Y-7620000D03*
X449580000Y-10160000D03*
D23*
X449580000Y-12700000D03*
%TD*%
D16*
%TO.C,REF\u002A\u002A*%
X740410000Y-130810000D03*
%TD*%
D19*
%TO.C,R6*%
X457165200Y-12801600D03*
X459165200Y-12801600D03*
%TD*%
D10*
%TO.C,K97*%
X644047993Y-111849490D03*
D11*
X642777993Y-114389490D03*
D12*
X638967993Y-111849490D03*
D11*
X636427993Y-116929490D03*
D10*
X633887993Y-111849490D03*
%TD*%
%TO.C,K73*%
X582135493Y-92799490D03*
D11*
X580865493Y-95339490D03*
D12*
X577055493Y-92799490D03*
D11*
X574515493Y-97879490D03*
D10*
X571975493Y-92799490D03*
%TD*%
%TO.C,K65*%
X415447993Y-111849490D03*
D11*
X414177993Y-114389490D03*
D12*
X410367993Y-111849490D03*
D11*
X407827993Y-116929490D03*
D10*
X405287993Y-111849490D03*
%TD*%
%TO.C,125K84*%
X527366743Y-149949490D03*
D11*
X526096743Y-152489490D03*
D12*
X522286743Y-149949490D03*
D11*
X519746743Y-155029490D03*
D10*
X517206743Y-149949490D03*
%TD*%
%TO.C,K91*%
X529747993Y-111849490D03*
D11*
X528477993Y-114389490D03*
D12*
X524667993Y-111849490D03*
D11*
X522127993Y-116929490D03*
D10*
X519587993Y-111849490D03*
%TD*%
%TO.C,125K104*%
X717866743Y-149949490D03*
D11*
X716596743Y-152489490D03*
D12*
X712786743Y-149949490D03*
D11*
X710246743Y-155029490D03*
D10*
X707706743Y-149949490D03*
%TD*%
%TO.C,K11*%
X639285493Y-26124490D03*
D11*
X638015493Y-28664490D03*
D12*
X634205493Y-26124490D03*
D11*
X631665493Y-31204490D03*
D10*
X629125493Y-26124490D03*
%TD*%
%TO.C,K48*%
X496410493Y-73749490D03*
D11*
X495140493Y-76289490D03*
D12*
X491330493Y-73749490D03*
D11*
X488790493Y-78829490D03*
D10*
X486250493Y-73749490D03*
%TD*%
%TO.C,K120*%
X691672993Y-130899490D03*
D11*
X690402993Y-133439490D03*
D12*
X686592993Y-130899490D03*
D11*
X684052993Y-135979490D03*
D10*
X681512993Y-130899490D03*
%TD*%
%TO.C,K45*%
X434497993Y-92799490D03*
D11*
X433227993Y-95339490D03*
D12*
X429417993Y-92799490D03*
D11*
X426877993Y-97879490D03*
D10*
X424337993Y-92799490D03*
%TD*%
%TO.C,K71*%
X544035493Y-92799490D03*
D11*
X542765493Y-95339490D03*
D12*
X538955493Y-92799490D03*
D11*
X536415493Y-97879490D03*
D10*
X533875493Y-92799490D03*
%TD*%
D15*
%TO.C,REF\u002A\u002A*%
X803910000Y-27940000D03*
%TD*%
D10*
%TO.C,K43*%
X396397993Y-92799490D03*
D11*
X395127993Y-95339490D03*
D12*
X391317993Y-92799490D03*
D11*
X388777993Y-97879490D03*
D10*
X386237993Y-92799490D03*
%TD*%
D14*
%TO.C,2K46*%
X455452993Y-90386490D03*
D12*
X440212993Y-90386490D03*
D10*
X448467993Y-97244490D03*
D11*
X451007993Y-98514490D03*
D12*
X448467993Y-102324490D03*
D11*
X453547993Y-104864490D03*
D10*
X448467993Y-107404490D03*
D14*
X455452993Y-114262490D03*
D12*
X440212993Y-114262490D03*
%TD*%
D17*
%TO.C,D122*%
X716280000Y-7375000D03*
X716280000Y-5325000D03*
%TD*%
D20*
%TO.C,C2*%
X463339000Y-4622800D03*
X461264000Y-4622800D03*
%TD*%
D10*
%TO.C,K7*%
X553560493Y-26124490D03*
D11*
X552290493Y-28664490D03*
D12*
X548480493Y-26124490D03*
D11*
X545940493Y-31204490D03*
D10*
X543400493Y-26124490D03*
%TD*%
%TO.C,K78*%
X677385493Y-92799490D03*
D11*
X676115493Y-95339490D03*
D12*
X672305493Y-92799490D03*
D11*
X669765493Y-97879490D03*
D10*
X667225493Y-92799490D03*
%TD*%
%TO.C,K114*%
X577372993Y-130899490D03*
D11*
X576102993Y-133439490D03*
D12*
X572292993Y-130899490D03*
D11*
X569752993Y-135979490D03*
D10*
X567212993Y-130899490D03*
%TD*%
%TO.C,K41*%
X786922993Y-130899490D03*
D11*
X785652993Y-133439490D03*
D12*
X781842993Y-130899490D03*
D11*
X779302993Y-135979490D03*
D10*
X776762993Y-130899490D03*
%TD*%
D16*
%TO.C,REF\u002A\u002A*%
X598170000Y-101600000D03*
%TD*%
D10*
%TO.C,K108*%
X434497993Y-149949490D03*
D11*
X433227993Y-152489490D03*
D12*
X429417993Y-149949490D03*
D11*
X426877993Y-155029490D03*
D10*
X424337993Y-149949490D03*
%TD*%
%TO.C,K10*%
X620235493Y-26124490D03*
D11*
X618965493Y-28664490D03*
D12*
X615155493Y-26124490D03*
D11*
X612615493Y-31204490D03*
D10*
X610075493Y-26124490D03*
%TD*%
%TO.C,K13*%
X686910493Y-26124490D03*
D11*
X685640493Y-28664490D03*
D12*
X681830493Y-26124490D03*
D11*
X679290493Y-31204490D03*
D10*
X676750493Y-26124490D03*
%TD*%
D14*
%TO.C,2K60*%
X741393493Y-80734490D03*
D12*
X741393493Y-65494490D03*
D10*
X734535493Y-73749490D03*
D11*
X733265493Y-76289490D03*
D12*
X729455493Y-73749490D03*
D11*
X726915493Y-78829490D03*
D10*
X724375493Y-73749490D03*
D14*
X717517493Y-80734490D03*
D12*
X717517493Y-65494490D03*
%TD*%
D10*
%TO.C,K115*%
X596422993Y-130899490D03*
D11*
X595152993Y-133439490D03*
D12*
X591342993Y-130899490D03*
D11*
X588802993Y-135979490D03*
D10*
X586262993Y-130899490D03*
%TD*%
D16*
%TO.C,REF\u002A\u002A*%
X765810000Y-59690000D03*
%TD*%
D10*
%TO.C,K98*%
X663097993Y-111849490D03*
D11*
X661827993Y-114389490D03*
D12*
X658017993Y-111849490D03*
D11*
X655477993Y-116929490D03*
D10*
X652937993Y-111849490D03*
%TD*%
%TO.C,K58*%
X686910493Y-73749490D03*
D11*
X685640493Y-76289490D03*
D12*
X681830493Y-73749490D03*
D11*
X679290493Y-78829490D03*
D10*
X676750493Y-73749490D03*
%TD*%
D15*
%TO.C,REF\u002A\u002A*%
X448310000Y-118110000D03*
%TD*%
D10*
%TO.C,15K68*%
X482122993Y-92799490D03*
D11*
X480852993Y-95339490D03*
D12*
X477042993Y-92799490D03*
D11*
X474502993Y-97879490D03*
D10*
X471962993Y-92799490D03*
%TD*%
%TO.C,K37*%
X744060493Y-45174490D03*
D11*
X742790493Y-47714490D03*
D12*
X738980493Y-45174490D03*
D11*
X736440493Y-50254490D03*
D10*
X733900493Y-45174490D03*
%TD*%
%TO.C,K112*%
X539331743Y-130740740D03*
D11*
X538061743Y-133280740D03*
D12*
X534251743Y-130740740D03*
D11*
X531711743Y-135820740D03*
D10*
X529171743Y-130740740D03*
%TD*%
%TO.C,K30*%
X601185493Y-45174490D03*
D11*
X599915493Y-47714490D03*
D12*
X596105493Y-45174490D03*
D11*
X593565493Y-50254490D03*
D10*
X591025493Y-45174490D03*
%TD*%
D21*
%TO.C,Q2*%
X716178400Y-11836400D03*
X716178400Y-12486400D03*
X716178400Y-13136400D03*
X718838400Y-13136400D03*
X718838400Y-12486400D03*
X718838400Y-11836400D03*
%TD*%
D10*
%TO.C,K86*%
X415447993Y-130899490D03*
D11*
X414177993Y-133439490D03*
D12*
X410367993Y-130899490D03*
D11*
X407827993Y-135979490D03*
D10*
X405287993Y-130899490D03*
%TD*%
%TO.C,K5*%
X515460493Y-26124490D03*
D11*
X514190493Y-28664490D03*
D12*
X510380493Y-26124490D03*
D11*
X507840493Y-31204490D03*
D10*
X505300493Y-26124490D03*
%TD*%
%TO.C,175K89*%
X484504243Y-111849490D03*
D11*
X483234243Y-114389490D03*
D12*
X479424243Y-111849490D03*
D11*
X476884243Y-116929490D03*
D10*
X474344243Y-111849490D03*
%TD*%
%TO.C,K38*%
X767872993Y-73749490D03*
D11*
X766602993Y-76289490D03*
D12*
X762792993Y-73749490D03*
D11*
X760252993Y-78829490D03*
D10*
X757712993Y-73749490D03*
%TD*%
D19*
%TO.C,R9*%
X456825600Y-4673600D03*
X458825600Y-4673600D03*
%TD*%
D10*
%TO.C,K4*%
X444022965Y-26124498D03*
D11*
X442752965Y-28664498D03*
D12*
X438942965Y-26124498D03*
D11*
X436402965Y-31204498D03*
D10*
X433862965Y-26124498D03*
%TD*%
D16*
%TO.C,REF\u002A\u002A*%
X397510000Y-59690000D03*
%TD*%
D15*
%TO.C,REF\u002A\u002A*%
X581660000Y-58420000D03*
%TD*%
D10*
%TO.C,K39*%
X786922993Y-73749490D03*
D11*
X785652993Y-76289490D03*
D12*
X781842993Y-73749490D03*
D11*
X779302993Y-78829490D03*
D10*
X776762993Y-73749490D03*
%TD*%
%TO.C,K107*%
X477360493Y-45174490D03*
D11*
X476090493Y-47714490D03*
D12*
X472280493Y-45174490D03*
D11*
X469740493Y-50254490D03*
D10*
X467200493Y-45174490D03*
%TD*%
%TO.C,K51*%
X553560493Y-73749490D03*
D11*
X552290493Y-76289490D03*
D12*
X548480493Y-73749490D03*
D11*
X545940493Y-78829490D03*
D10*
X543400493Y-73749490D03*
%TD*%
M02*
