%TF.GenerationSoftware,KiCad,Pcbnew,7.0.5*%
%TF.CreationDate,2023-06-10T21:14:49-04:00*%
%TF.ProjectId,keyboard_mk1,6b657962-6f61-4726-945f-6d6b312e6b69,rev?*%
%TF.SameCoordinates,Original*%
%TF.FileFunction,Paste,Bot*%
%TF.FilePolarity,Positive*%
%FSLAX46Y46*%
G04 Gerber Fmt 4.6, Leading zero omitted, Abs format (unit mm)*
G04 Created by KiCad (PCBNEW 7.0.5) date 2023-06-10 21:14:49*
%MOMM*%
%LPD*%
G01*
G04 APERTURE LIST*
G04 Aperture macros list*
%AMRoundRect*
0 Rectangle with rounded corners*
0 $1 Rounding radius*
0 $2 $3 $4 $5 $6 $7 $8 $9 X,Y pos of 4 corners*
0 Add a 4 corners polygon primitive as box body*
4,1,4,$2,$3,$4,$5,$6,$7,$8,$9,$2,$3,0*
0 Add four circle primitives for the rounded corners*
1,1,$1+$1,$2,$3*
1,1,$1+$1,$4,$5*
1,1,$1+$1,$6,$7*
1,1,$1+$1,$8,$9*
0 Add four rect primitives between the rounded corners*
20,1,$1+$1,$2,$3,$4,$5,0*
20,1,$1+$1,$4,$5,$6,$7,0*
20,1,$1+$1,$6,$7,$8,$9,0*
20,1,$1+$1,$8,$9,$2,$3,0*%
G04 Aperture macros list end*
%ADD10R,2.550000X2.500000*%
%ADD11R,2.500000X2.550000*%
%ADD12RoundRect,0.225000X-0.375000X0.225000X-0.375000X-0.225000X0.375000X-0.225000X0.375000X0.225000X0*%
%ADD13RoundRect,0.150000X0.150000X-0.875000X0.150000X0.875000X-0.150000X0.875000X-0.150000X-0.875000X0*%
%ADD14O,2.748280X1.998980*%
%ADD15O,1.016000X2.032000*%
%ADD16C,1.143000*%
%ADD17RoundRect,0.250000X-0.350000X-0.450000X0.350000X-0.450000X0.350000X0.450000X-0.350000X0.450000X0*%
G04 APERTURE END LIST*
D10*
%TO.C,125K105*%
X730985000Y-200183750D03*
X718058000Y-202723750D03*
%TD*%
%TO.C,K57*%
X657166250Y-123983750D03*
X644239250Y-126523750D03*
%TD*%
%TO.C,K18*%
X776228750Y-95408750D03*
X763301750Y-97948750D03*
%TD*%
%TO.C,2K106*%
X395228750Y-200183750D03*
X382301750Y-202723750D03*
%TD*%
%TO.C,K28*%
X542866250Y-95408750D03*
X529939250Y-97948750D03*
%TD*%
%TO.C,275K121*%
X716697500Y-181133750D03*
X703770500Y-183673750D03*
%TD*%
%TO.C,K21*%
X776228750Y-143033750D03*
X763301750Y-145573750D03*
%TD*%
%TO.C,K29*%
X561916250Y-95408750D03*
X548989250Y-97948750D03*
%TD*%
%TO.C,K67*%
X466666250Y-76358750D03*
X453739250Y-78898750D03*
%TD*%
%TO.C,K35*%
X695266250Y-95408750D03*
X682339250Y-97948750D03*
%TD*%
%TO.C,K42*%
X795278750Y-143033750D03*
X782351750Y-145573750D03*
%TD*%
%TO.C,K49*%
X504766250Y-123983750D03*
X491839250Y-126523750D03*
%TD*%
%TO.C,K44*%
X404753750Y-143033750D03*
X391826750Y-145573750D03*
%TD*%
%TO.C,K55*%
X619066250Y-123983750D03*
X606139250Y-126523750D03*
%TD*%
%TO.C,K95*%
X595253750Y-162083750D03*
X582326750Y-164623750D03*
%TD*%
%TO.C,K17*%
X757178750Y-95408750D03*
X744251750Y-97948750D03*
%TD*%
%TO.C,K53*%
X580966250Y-123983750D03*
X568039250Y-126523750D03*
%TD*%
%TO.C,K27*%
X523816250Y-95408750D03*
X510889250Y-97948750D03*
%TD*%
%TO.C,K59*%
X695266250Y-123983750D03*
X682339250Y-126523750D03*
%TD*%
%TO.C,K6*%
X523816250Y-76358750D03*
X510889250Y-78898750D03*
%TD*%
%TO.C,125K2*%
X411897500Y-95408750D03*
X398970500Y-97948750D03*
%TD*%
%TO.C,K52*%
X561916250Y-123983750D03*
X548989250Y-126523750D03*
%TD*%
%TO.C,K96*%
X614303750Y-162083750D03*
X601376750Y-164623750D03*
%TD*%
%TO.C,K69*%
X495241250Y-143033750D03*
X482314250Y-145573750D03*
%TD*%
%TO.C,K61*%
X757178750Y-200183750D03*
X744251750Y-202723750D03*
%TD*%
%TO.C,K14*%
X695266250Y-76358750D03*
X682339250Y-78898750D03*
%TD*%
%TO.C,K23*%
X404753750Y-123983750D03*
X391826750Y-126523750D03*
%TD*%
%TO.C,K92*%
X538103750Y-162083750D03*
X525176750Y-164623750D03*
%TD*%
%TO.C,225K110*%
X478572500Y-181133750D03*
X465645500Y-183673750D03*
%TD*%
%TO.C,K63*%
X795278750Y-200183750D03*
X782351750Y-202723750D03*
%TD*%
%TO.C,K94*%
X576203750Y-162083750D03*
X563276750Y-164623750D03*
%TD*%
%TO.C,125K102*%
X659547500Y-200183750D03*
X646620500Y-202723750D03*
%TD*%
%TO.C,15K81*%
X728603750Y-143033750D03*
X715676750Y-145573750D03*
%TD*%
%TO.C,K20*%
X757178750Y-143033750D03*
X744251750Y-145573750D03*
%TD*%
%TO.C,K80*%
X704791250Y-143033750D03*
X691864250Y-145573750D03*
%TD*%
%TO.C,K72*%
X552391250Y-143033750D03*
X539464250Y-145573750D03*
%TD*%
%TO.C,K77*%
X647641250Y-143033750D03*
X634714250Y-145573750D03*
%TD*%
%TO.C,K93*%
X557153750Y-162083750D03*
X544226750Y-164623750D03*
%TD*%
%TO.C,K33*%
X647641250Y-95408750D03*
X634714250Y-97948750D03*
%TD*%
%TO.C,K116*%
X604778750Y-181133750D03*
X591851750Y-183673750D03*
%TD*%
%TO.C,K54*%
X600016250Y-123983750D03*
X587089250Y-126523750D03*
%TD*%
%TO.C,K76*%
X628591250Y-143033750D03*
X615664250Y-145573750D03*
%TD*%
%TO.C,K16*%
X733366250Y-76358750D03*
X720439250Y-78898750D03*
%TD*%
%TO.C,K26*%
X504766250Y-95408750D03*
X491839250Y-97948750D03*
%TD*%
%TO.C,125K83*%
X492860000Y-200183750D03*
X479933000Y-202723750D03*
%TD*%
%TO.C,K74*%
X590491250Y-143033750D03*
X577564250Y-145573750D03*
%TD*%
%TO.C,K9*%
X590491250Y-76358750D03*
X577564250Y-78898750D03*
%TD*%
%TO.C,K19*%
X795278750Y-95408750D03*
X782351750Y-97948750D03*
%TD*%
D11*
%TO.C,2K88*%
X438308750Y-181033750D03*
X440848750Y-193960750D03*
%TD*%
D10*
%TO.C,K12*%
X647641250Y-76358750D03*
X634714250Y-78898750D03*
%TD*%
%TO.C,K70*%
X514291250Y-143033750D03*
X501364250Y-145573750D03*
%TD*%
%TO.C,K79*%
X685741250Y-143033750D03*
X672814250Y-145573750D03*
%TD*%
%TO.C,K34*%
X676216250Y-95408750D03*
X663289250Y-97948750D03*
%TD*%
%TO.C,K99*%
X671453750Y-162083750D03*
X658526750Y-164623750D03*
%TD*%
%TO.C,125K103*%
X683360000Y-200183750D03*
X670433000Y-202723750D03*
%TD*%
%TO.C,K100*%
X690503750Y-162083750D03*
X677576750Y-164623750D03*
%TD*%
%TO.C,K22*%
X385703750Y-123983750D03*
X372776750Y-126523750D03*
%TD*%
%TO.C,K64*%
X385703750Y-162083750D03*
X372776750Y-164623750D03*
%TD*%
%TO.C,K118*%
X642878750Y-181133750D03*
X629951750Y-183673750D03*
%TD*%
%TO.C,K75*%
X609541250Y-143033750D03*
X596614250Y-145573750D03*
%TD*%
%TO.C,625K109*%
X588110000Y-200183750D03*
X575183000Y-202723750D03*
%TD*%
%TO.C,K85*%
X385703750Y-181133750D03*
X372776750Y-183673750D03*
%TD*%
%TO.C,K40*%
X795278750Y-123983750D03*
X782351750Y-126523750D03*
%TD*%
%TO.C,K117*%
X623828750Y-181133750D03*
X610901750Y-183673750D03*
%TD*%
%TO.C,K15*%
X714316250Y-76358750D03*
X701389250Y-78898750D03*
%TD*%
%TO.C,K66*%
X423803750Y-162083750D03*
X410876750Y-164623750D03*
%TD*%
%TO.C,K24*%
X423803750Y-123983750D03*
X410876750Y-126523750D03*
%TD*%
%TO.C,K87*%
X423803750Y-181133750D03*
X410876750Y-183673750D03*
%TD*%
%TO.C,K32*%
X628591250Y-95408750D03*
X615664250Y-97948750D03*
%TD*%
%TO.C,K111*%
X509528750Y-181133750D03*
X496601750Y-183673750D03*
%TD*%
%TO.C,K31*%
X609541250Y-95408750D03*
X596614250Y-97948750D03*
%TD*%
%TO.C,125K82*%
X469047500Y-200183750D03*
X456120500Y-202723750D03*
%TD*%
%TO.C,125K1*%
X388085000Y-95408750D03*
X375158000Y-97948750D03*
%TD*%
%TO.C,K56*%
X638116250Y-123983750D03*
X625189250Y-126523750D03*
%TD*%
%TO.C,225K101*%
X721460000Y-162083750D03*
X708533000Y-164623750D03*
%TD*%
%TO.C,K113*%
X547628750Y-181133750D03*
X534701750Y-183673750D03*
%TD*%
%TO.C,K50*%
X523816250Y-123983750D03*
X510889250Y-126523750D03*
%TD*%
%TO.C,K47*%
X466666250Y-123983750D03*
X453739250Y-126523750D03*
%TD*%
%TO.C,K8*%
X561916250Y-76358750D03*
X548989250Y-78898750D03*
%TD*%
%TO.C,K90*%
X500003750Y-162083750D03*
X487076750Y-164623750D03*
%TD*%
%TO.C,K62*%
X776228750Y-200183750D03*
X763301750Y-202723750D03*
%TD*%
%TO.C,K119*%
X661928750Y-181133750D03*
X649001750Y-183673750D03*
%TD*%
%TO.C,K36*%
X714316250Y-95408750D03*
X701389250Y-97948750D03*
%TD*%
%TO.C,K25*%
X442853750Y-123983750D03*
X429926750Y-126523750D03*
%TD*%
%TO.C,125K3*%
X435710000Y-95408750D03*
X422783000Y-97948750D03*
%TD*%
%TO.C,K97*%
X633353750Y-162083750D03*
X620426750Y-164623750D03*
%TD*%
%TO.C,K73*%
X571441250Y-143033750D03*
X558514250Y-145573750D03*
%TD*%
%TO.C,K65*%
X404753750Y-162083750D03*
X391826750Y-164623750D03*
%TD*%
%TO.C,125K84*%
X516672500Y-200183750D03*
X503745500Y-202723750D03*
%TD*%
%TO.C,K91*%
X519053750Y-162083750D03*
X506126750Y-164623750D03*
%TD*%
%TO.C,125K104*%
X707172500Y-200183750D03*
X694245500Y-202723750D03*
%TD*%
%TO.C,K11*%
X628591250Y-76358750D03*
X615664250Y-78898750D03*
%TD*%
%TO.C,K48*%
X485716250Y-123983750D03*
X472789250Y-126523750D03*
%TD*%
%TO.C,K120*%
X680978750Y-181133750D03*
X668051750Y-183673750D03*
%TD*%
%TO.C,K45*%
X423803750Y-143033750D03*
X410876750Y-145573750D03*
%TD*%
%TO.C,K71*%
X533341250Y-143033750D03*
X520414250Y-145573750D03*
%TD*%
%TO.C,K43*%
X385703750Y-143033750D03*
X372776750Y-145573750D03*
%TD*%
D11*
%TO.C,2K46*%
X438308750Y-142933750D03*
X440848750Y-155860750D03*
%TD*%
D10*
%TO.C,K7*%
X542866250Y-76358750D03*
X529939250Y-78898750D03*
%TD*%
%TO.C,K78*%
X666691250Y-143033750D03*
X653764250Y-145573750D03*
%TD*%
%TO.C,K114*%
X566678750Y-181133750D03*
X553751750Y-183673750D03*
%TD*%
%TO.C,K41*%
X776228750Y-181133750D03*
X763301750Y-183673750D03*
%TD*%
%TO.C,K108*%
X423803750Y-200183750D03*
X410876750Y-202723750D03*
%TD*%
%TO.C,K10*%
X609541250Y-76358750D03*
X596614250Y-78898750D03*
%TD*%
%TO.C,K13*%
X676216250Y-76358750D03*
X663289250Y-78898750D03*
%TD*%
%TO.C,2K60*%
X723841250Y-123983750D03*
X710914250Y-126523750D03*
%TD*%
%TO.C,K115*%
X585728750Y-181133750D03*
X572801750Y-183673750D03*
%TD*%
%TO.C,K98*%
X652403750Y-162083750D03*
X639476750Y-164623750D03*
%TD*%
%TO.C,K58*%
X676216250Y-123983750D03*
X663289250Y-126523750D03*
%TD*%
%TO.C,15K68*%
X471428750Y-143033750D03*
X458501750Y-145573750D03*
%TD*%
%TO.C,K37*%
X733366250Y-95408750D03*
X720439250Y-97948750D03*
%TD*%
%TO.C,K112*%
X528637500Y-180975000D03*
X515710500Y-183515000D03*
%TD*%
%TO.C,K30*%
X590491250Y-95408750D03*
X577564250Y-97948750D03*
%TD*%
%TO.C,K86*%
X404753750Y-181133750D03*
X391826750Y-183673750D03*
%TD*%
%TO.C,K5*%
X504766250Y-76358750D03*
X491839250Y-78898750D03*
%TD*%
%TO.C,175K89*%
X473810000Y-162083750D03*
X460883000Y-164623750D03*
%TD*%
%TO.C,K38*%
X757178750Y-123983750D03*
X744251750Y-126523750D03*
%TD*%
%TO.C,K4*%
X438091250Y-76358750D03*
X425164250Y-78898750D03*
%TD*%
%TO.C,K39*%
X776228750Y-123983750D03*
X763301750Y-126523750D03*
%TD*%
%TO.C,K107*%
X466666250Y-95408750D03*
X453739250Y-97948750D03*
%TD*%
%TO.C,K51*%
X542866250Y-123983750D03*
X529939250Y-126523750D03*
%TD*%
D12*
%TO.C,D10*%
X404812500Y-171500000D03*
X404812500Y-174800000D03*
%TD*%
%TO.C,D77*%
X628650000Y-66725000D03*
X628650000Y-70025000D03*
%TD*%
%TO.C,D108*%
X733425000Y-135781250D03*
X733425000Y-139081250D03*
%TD*%
%TO.C,D47*%
X538162500Y-152450000D03*
X538162500Y-155750000D03*
%TD*%
%TO.C,D117*%
X776287500Y-190550000D03*
X776287500Y-193850000D03*
%TD*%
%TO.C,D16*%
X423862500Y-152450000D03*
X423862500Y-155750000D03*
%TD*%
%TO.C,D85*%
X683418750Y-190550000D03*
X683418750Y-193850000D03*
%TD*%
%TO.C,D30*%
X504825000Y-85775000D03*
X504825000Y-89075000D03*
%TD*%
%TO.C,D102*%
X695325000Y-114350000D03*
X695325000Y-117650000D03*
%TD*%
%TO.C,D20*%
X438150000Y-133400000D03*
X438150000Y-136700000D03*
%TD*%
%TO.C,D73*%
X633412500Y-152450000D03*
X633412500Y-155750000D03*
%TD*%
%TO.C,D92*%
X695325000Y-66725000D03*
X695325000Y-70025000D03*
%TD*%
%TO.C,D100*%
X731043750Y-190550000D03*
X731043750Y-193850000D03*
%TD*%
%TO.C,D2*%
X411956250Y-85775000D03*
X411956250Y-89075000D03*
%TD*%
%TO.C,D70*%
X614362500Y-152450000D03*
X614362500Y-155750000D03*
%TD*%
%TO.C,D78*%
X647700000Y-66725000D03*
X647700000Y-70025000D03*
%TD*%
%TO.C,D8*%
X385762500Y-171500000D03*
X385762500Y-174800000D03*
%TD*%
D13*
%TO.C,U2*%
X792385000Y-67450000D03*
X791115000Y-67450000D03*
X789845000Y-67450000D03*
X788575000Y-67450000D03*
X787305000Y-67450000D03*
X786035000Y-67450000D03*
X784765000Y-67450000D03*
X783495000Y-67450000D03*
X782225000Y-67450000D03*
X780955000Y-67450000D03*
X779685000Y-67450000D03*
X778415000Y-67450000D03*
X778415000Y-58150000D03*
X779685000Y-58150000D03*
X780955000Y-58150000D03*
X782225000Y-58150000D03*
X783495000Y-58150000D03*
X784765000Y-58150000D03*
X786035000Y-58150000D03*
X787305000Y-58150000D03*
X788575000Y-58150000D03*
X789845000Y-58150000D03*
X791115000Y-58150000D03*
X792385000Y-58150000D03*
%TD*%
D12*
%TO.C,D43*%
X542925000Y-66725000D03*
X542925000Y-70025000D03*
%TD*%
%TO.C,D107*%
X723900000Y-114350000D03*
X723900000Y-117650000D03*
%TD*%
%TO.C,D34*%
X509587500Y-171500000D03*
X509587500Y-174800000D03*
%TD*%
%TO.C,D95*%
X685800000Y-133400000D03*
X685800000Y-136700000D03*
%TD*%
%TO.C,D49*%
X566737500Y-171500000D03*
X566737500Y-174800000D03*
%TD*%
%TO.C,D64*%
X590550000Y-133400000D03*
X590550000Y-136700000D03*
%TD*%
%TO.C,D39*%
X514350000Y-133400000D03*
X514350000Y-136700000D03*
%TD*%
%TO.C,D59*%
X576262500Y-152450000D03*
X576262500Y-155750000D03*
%TD*%
%TO.C,D5*%
X385762500Y-114350000D03*
X385762500Y-117650000D03*
%TD*%
%TO.C,D61*%
X588168750Y-190550000D03*
X588168750Y-193850000D03*
%TD*%
%TO.C,D82*%
X652462500Y-152450000D03*
X652462500Y-155750000D03*
%TD*%
%TO.C,D33*%
X500062500Y-152450000D03*
X500062500Y-155750000D03*
%TD*%
%TO.C,D94*%
X676275000Y-114350000D03*
X676275000Y-117650000D03*
%TD*%
%TO.C,D25*%
X471487500Y-133400000D03*
X471487500Y-136700000D03*
%TD*%
%TO.C,D22*%
X466725000Y-66725000D03*
X466725000Y-70025000D03*
%TD*%
%TO.C,D121*%
X795337500Y-85775000D03*
X795337500Y-89075000D03*
%TD*%
%TO.C,D101*%
X707231250Y-135781250D03*
X707231250Y-139081250D03*
%TD*%
%TO.C,D27*%
X478631250Y-171500000D03*
X478631250Y-174800000D03*
%TD*%
%TO.C,D89*%
X657225000Y-114350000D03*
X657225000Y-117650000D03*
%TD*%
%TO.C,D56*%
X590550000Y-85775000D03*
X590550000Y-89075000D03*
%TD*%
%TO.C,D62*%
X604837500Y-171500000D03*
X604837500Y-174800000D03*
%TD*%
%TO.C,D15*%
X423862500Y-133400000D03*
X423862500Y-136700000D03*
%TD*%
%TO.C,D120*%
X795337500Y-114350000D03*
X795337500Y-117650000D03*
%TD*%
%TO.C,D35*%
X492918750Y-190550000D03*
X492918750Y-193850000D03*
%TD*%
%TO.C,D96*%
X690562500Y-152450000D03*
X690562500Y-155750000D03*
%TD*%
%TO.C,D40*%
X504825000Y-114350000D03*
X504825000Y-117650000D03*
%TD*%
%TO.C,D65*%
X581025000Y-114350000D03*
X581025000Y-117650000D03*
%TD*%
%TO.C,D58*%
X571500000Y-133400000D03*
X571500000Y-136700000D03*
%TD*%
%TO.C,D84*%
X659606250Y-190550000D03*
X659606250Y-193850000D03*
%TD*%
%TO.C,D105*%
X733425000Y-66725000D03*
X733425000Y-70025000D03*
%TD*%
%TO.C,D97*%
X707231250Y-190550000D03*
X707231250Y-193850000D03*
%TD*%
%TO.C,D81*%
X647700000Y-133400000D03*
X647700000Y-136700000D03*
%TD*%
%TO.C,D24*%
X466725000Y-114350000D03*
X466725000Y-117650000D03*
%TD*%
%TO.C,D114*%
X776287500Y-114350000D03*
X776287500Y-117650000D03*
%TD*%
%TO.C,D32*%
X495300000Y-133400000D03*
X495300000Y-136700000D03*
%TD*%
%TO.C,D55*%
X590550000Y-66725000D03*
X590550000Y-70025000D03*
%TD*%
%TO.C,D109*%
X757237500Y-190550000D03*
X757237500Y-193850000D03*
%TD*%
%TO.C,D21*%
X442912500Y-114350000D03*
X442912500Y-117650000D03*
%TD*%
%TO.C,D93*%
X695325000Y-85775000D03*
X695325000Y-89075000D03*
%TD*%
%TO.C,D104*%
X714375000Y-66725000D03*
X714375000Y-70025000D03*
%TD*%
%TO.C,D87*%
X671512500Y-152450000D03*
X671512500Y-155750000D03*
%TD*%
%TO.C,D29*%
X504825000Y-66725000D03*
X504825000Y-70025000D03*
%TD*%
%TO.C,D111*%
X757237500Y-114350000D03*
X757237500Y-117650000D03*
%TD*%
%TO.C,D110*%
X757237500Y-133400000D03*
X757237500Y-136700000D03*
%TD*%
%TO.C,D90*%
X676275000Y-85775000D03*
X676275000Y-89075000D03*
%TD*%
%TO.C,D113*%
X776287500Y-85775000D03*
X776287500Y-89075000D03*
%TD*%
%TO.C,D31*%
X485775000Y-114350000D03*
X485775000Y-117650000D03*
%TD*%
%TO.C,D60*%
X585787500Y-171500000D03*
X585787500Y-174800000D03*
%TD*%
%TO.C,D51*%
X552450000Y-133400000D03*
X552450000Y-136700000D03*
%TD*%
%TO.C,D106*%
X733425000Y-85775000D03*
X733425000Y-89075000D03*
%TD*%
%TO.C,D48*%
X547687500Y-171500000D03*
X547687500Y-174800000D03*
%TD*%
%TO.C,D11*%
X404812500Y-152450000D03*
X404812500Y-155750000D03*
%TD*%
D14*
%TO.C,U1*%
X753800000Y-50540000D03*
X753800000Y-53080000D03*
X753800000Y-55620000D03*
X753800000Y-58160000D03*
X753800000Y-60700000D03*
X753800000Y-63240000D03*
X753800000Y-65780000D03*
X737635440Y-65780000D03*
X737635440Y-63240000D03*
X737635440Y-60700000D03*
X737635440Y-58160000D03*
X737635440Y-55620000D03*
X737635440Y-53080000D03*
X737635440Y-50540000D03*
D15*
X746933120Y-66857820D03*
X744383120Y-66857820D03*
D16*
X746934317Y-49853633D03*
X744394317Y-49853633D03*
X746934317Y-52393633D03*
X744394317Y-52393633D03*
%TD*%
D12*
%TO.C,D6*%
X385762500Y-133400000D03*
X385762500Y-136700000D03*
%TD*%
D13*
%TO.C,U3*%
X773510000Y-67500000D03*
X772240000Y-67500000D03*
X770970000Y-67500000D03*
X769700000Y-67500000D03*
X768430000Y-67500000D03*
X767160000Y-67500000D03*
X765890000Y-67500000D03*
X764620000Y-67500000D03*
X763350000Y-67500000D03*
X762080000Y-67500000D03*
X760810000Y-67500000D03*
X759540000Y-67500000D03*
X759540000Y-58200000D03*
X760810000Y-58200000D03*
X762080000Y-58200000D03*
X763350000Y-58200000D03*
X764620000Y-58200000D03*
X765890000Y-58200000D03*
X767160000Y-58200000D03*
X768430000Y-58200000D03*
X769700000Y-58200000D03*
X770970000Y-58200000D03*
X772240000Y-58200000D03*
X773510000Y-58200000D03*
%TD*%
D12*
%TO.C,D18*%
X423862500Y-190550000D03*
X423862500Y-193850000D03*
%TD*%
%TO.C,D14*%
X423862500Y-114350000D03*
X423862500Y-117650000D03*
%TD*%
%TO.C,D37*%
X528637500Y-171500000D03*
X528637500Y-174800000D03*
%TD*%
%TO.C,D36*%
X516731250Y-190550000D03*
X516731250Y-193850000D03*
%TD*%
%TO.C,D98*%
X716756250Y-171500000D03*
X716756250Y-174800000D03*
%TD*%
%TO.C,D66*%
X609600000Y-66725000D03*
X609600000Y-70025000D03*
%TD*%
%TO.C,D13*%
X404812500Y-114350000D03*
X404812500Y-117650000D03*
%TD*%
D17*
%TO.C,R2*%
X790100000Y-54700000D03*
X792100000Y-54700000D03*
%TD*%
D12*
%TO.C,D28*%
X469106250Y-190550000D03*
X469106250Y-193850000D03*
%TD*%
%TO.C,D23*%
X466725000Y-85775000D03*
X466725000Y-89075000D03*
%TD*%
%TO.C,D46*%
X533400000Y-133400000D03*
X533400000Y-136700000D03*
%TD*%
%TO.C,D17*%
X423862500Y-171500000D03*
X423862500Y-174800000D03*
%TD*%
%TO.C,D115*%
X776287500Y-133400000D03*
X776287500Y-136700000D03*
%TD*%
%TO.C,D119*%
X795337500Y-133400000D03*
X795337500Y-136700000D03*
%TD*%
%TO.C,D88*%
X666750000Y-133400000D03*
X666750000Y-136700000D03*
%TD*%
%TO.C,D19*%
X438150000Y-171500000D03*
X438150000Y-174800000D03*
%TD*%
%TO.C,D45*%
X523875000Y-114350000D03*
X523875000Y-117650000D03*
%TD*%
%TO.C,D76*%
X628650000Y-85775000D03*
X628650000Y-89075000D03*
%TD*%
%TO.C,D57*%
X561975000Y-114350000D03*
X561975000Y-117650000D03*
%TD*%
%TO.C,D9*%
X395287500Y-190550000D03*
X395287500Y-193850000D03*
%TD*%
%TO.C,D83*%
X661987500Y-171500000D03*
X661987500Y-174800000D03*
%TD*%
%TO.C,D7*%
X385762500Y-152450000D03*
X385762500Y-155750000D03*
%TD*%
%TO.C,D68*%
X600075000Y-114350000D03*
X600075000Y-117650000D03*
%TD*%
%TO.C,D26*%
X473868750Y-152450000D03*
X473868750Y-155750000D03*
%TD*%
%TO.C,D1*%
X388143750Y-85775000D03*
X388143750Y-89075000D03*
%TD*%
%TO.C,D50*%
X557212500Y-152450000D03*
X557212500Y-155750000D03*
%TD*%
%TO.C,D86*%
X681037500Y-171500000D03*
X681037500Y-174800000D03*
%TD*%
%TO.C,D54*%
X561975000Y-66725000D03*
X561975000Y-70025000D03*
%TD*%
%TO.C,D99*%
X721518750Y-152450000D03*
X721518750Y-155750000D03*
%TD*%
%TO.C,D116*%
X776287500Y-171500000D03*
X776287500Y-174800000D03*
%TD*%
%TO.C,D74*%
X628650000Y-133400000D03*
X628650000Y-136700000D03*
%TD*%
%TO.C,D52*%
X542925000Y-114350000D03*
X542925000Y-117650000D03*
%TD*%
%TO.C,D69*%
X609600000Y-133400000D03*
X609600000Y-136700000D03*
%TD*%
%TO.C,D112*%
X757237500Y-85775000D03*
X757237500Y-89075000D03*
%TD*%
%TO.C,D41*%
X523875000Y-85775000D03*
X523875000Y-89075000D03*
%TD*%
%TO.C,D118*%
X795337500Y-190550000D03*
X795337500Y-193850000D03*
%TD*%
%TO.C,D72*%
X642937500Y-171500000D03*
X642937500Y-174800000D03*
%TD*%
%TO.C,D75*%
X619125000Y-114350000D03*
X619125000Y-117650000D03*
%TD*%
%TO.C,D53*%
X561975000Y-85775000D03*
X561975000Y-89075000D03*
%TD*%
%TO.C,D91*%
X676275000Y-66725000D03*
X676275000Y-70025000D03*
%TD*%
%TO.C,D44*%
X542925000Y-85775000D03*
X542925000Y-89075000D03*
%TD*%
%TO.C,D4*%
X435768750Y-85775000D03*
X435768750Y-89075000D03*
%TD*%
%TO.C,D80*%
X638175000Y-114350000D03*
X638175000Y-117650000D03*
%TD*%
%TO.C,D79*%
X647700000Y-85775000D03*
X647700000Y-89075000D03*
%TD*%
%TO.C,D71*%
X623887500Y-171500000D03*
X623887500Y-174800000D03*
%TD*%
%TO.C,D38*%
X519112500Y-152450000D03*
X519112500Y-155750000D03*
%TD*%
%TO.C,D3*%
X438150000Y-66725000D03*
X438150000Y-70025000D03*
%TD*%
%TO.C,D67*%
X609600000Y-85775000D03*
X609600000Y-89075000D03*
%TD*%
%TO.C,D42*%
X523875000Y-66725000D03*
X523875000Y-70025000D03*
%TD*%
%TO.C,D63*%
X595312500Y-152450000D03*
X595312500Y-155750000D03*
%TD*%
%TO.C,D12*%
X404812500Y-133400000D03*
X404812500Y-136700000D03*
%TD*%
D17*
%TO.C,R1*%
X790100000Y-52000000D03*
X792100000Y-52000000D03*
%TD*%
M02*
