M48
; DRILL file {KiCad 7.0.5} date Tue Jun 27 19:32:14 2023
; FORMAT={-:-/ absolute / inch / decimal}
; #@! TF.CreationDate,2023-06-27T19:32:14-04:00
; #@! TF.GenerationSoftware,Kicad,Pcbnew,7.0.5
; #@! TF.FileFunction,NonPlated,1,2,NPTH
FMAT,2
INCH
; #@! TA.AperFunction,NonPlated,NPTH,ComponentDrill
T1C0.0689
; #@! TA.AperFunction,NonPlated,NPTH,ComponentDrill
T2C0.1181
; #@! TA.AperFunction,NonPlated,NPTH,ComponentDrill
T3C0.1200
; #@! TA.AperFunction,NonPlated,NPTH,ComponentDrill
T4C0.1378
; #@! TA.AperFunction,NonPlated,NPTH,ComponentDrill
T5C0.1570
; #@! TA.AperFunction,NonPlated,NPTH,ComponentDrill
T6C0.2165
%
G90
G05
T1
X15.2062Y-2.9035
X15.2062Y-3.6535
X15.2062Y-4.4035
X15.2062Y-5.1535
X15.5812Y-1.7785
X15.5812Y-5.9035
X15.6062Y-2.9035
X15.6062Y-3.6535
X15.6062Y-4.4035
X15.6062Y-5.1535
X15.9562Y-2.9035
X15.9562Y-3.6535
X15.9562Y-4.4035
X15.9562Y-5.1535
X15.9812Y-1.7785
X15.9812Y-5.9035
X16.3312Y-1.7785
X16.3562Y-2.9035
X16.3562Y-3.6535
X16.3562Y-4.4035
X16.3562Y-5.1535
X16.7062Y-2.9035
X16.7062Y-3.6535
X16.7062Y-4.4035
X16.7062Y-5.1535
X16.7062Y-5.9035
X16.7312Y-1.7785
X17.0812Y-1.0285
X17.0812Y-1.7785
X17.1062Y-2.9035
X17.1062Y-3.6535
X17.1062Y-4.4035
X17.1062Y-5.1535
X17.1062Y-5.9035
X17.4562Y-2.9035
X17.4812Y-1.0285
X17.4812Y-1.7785
X17.6562Y-3.8285
X17.6562Y-4.2285
X17.6562Y-5.3285
X17.6562Y-5.7285
X17.8562Y-2.9035
X18.3937Y-1.0285
X18.3937Y-1.7785
X18.3937Y-2.9035
X18.4875Y-5.9035
X18.5812Y-3.6535
X18.675Y-4.4035
X18.7937Y-1.0285
X18.7937Y-1.7785
X18.7937Y-2.9035
X18.8625Y-5.1535
X18.8875Y-5.9035
X18.9812Y-3.6535
X19.075Y-4.4035
X19.1437Y-2.9035
X19.2625Y-5.1535
X19.425Y-5.9035
X19.5187Y-3.6535
X19.5437Y-2.9035
X19.7062Y-4.4035
X19.825Y-5.9035
X19.8937Y-1.0285
X19.8937Y-1.7785
X19.8937Y-2.9035
X19.9187Y-3.6535
X20.0812Y-5.1535
X20.1062Y-4.4035
X20.2687Y-3.6535
X20.2937Y-1.0285
X20.2937Y-1.7785
X20.2937Y-2.9035
X20.3625Y-5.9035
X20.4562Y-4.4035
X20.4812Y-5.1535
X20.6437Y-1.0285
X20.6437Y-1.7785
X20.6437Y-2.9035
X20.6687Y-3.6535
X20.7625Y-5.9035
X20.8335Y-5.1473
X20.8562Y-4.4035
X21.0187Y-3.6535
X21.0437Y-1.0285
X21.0437Y-1.7785
X21.0437Y-2.9035
X21.2062Y-4.4035
X21.2335Y-5.1473
X21.3937Y-1.0285
X21.3937Y-1.7785
X21.3937Y-2.9035
X21.4187Y-3.6535
X21.5812Y-5.1535
X21.6062Y-4.4035
X21.7687Y-3.6535
X21.7937Y-1.0285
X21.7937Y-1.7785
X21.7937Y-2.9035
X21.9562Y-4.4035
X21.9812Y-5.1535
X22.1437Y-1.0285
X22.1437Y-1.7785
X22.1437Y-2.9035
X22.1687Y-3.6535
X22.3312Y-5.1535
X22.3562Y-4.4035
X22.5187Y-3.6535
X22.5437Y-1.0285
X22.5437Y-1.7785
X22.5437Y-2.9035
X22.7062Y-4.4035
X22.7312Y-5.1535
X22.8937Y-2.9035
X22.9187Y-3.6535
X23.0812Y-5.1535
X23.1062Y-4.4035
X23.175Y-5.9035
X23.2687Y-1.0285
X23.2687Y-1.7785
X23.2687Y-3.6535
X23.2937Y-2.9035
X23.4562Y-4.4035
X23.4812Y-5.1535
X23.575Y-5.9035
X23.6437Y-2.9035
X23.6687Y-1.0285
X23.6687Y-1.7785
X23.6687Y-3.6535
X23.8312Y-5.1535
X23.8562Y-4.4035
X24.0187Y-1.0285
X24.0187Y-1.7785
X24.0187Y-3.6535
X24.0437Y-2.9035
X24.2062Y-4.4035
X24.2312Y-5.1535
X24.3937Y-2.9035
X24.4187Y-1.0285
X24.4187Y-1.7785
X24.4187Y-3.6535
X24.5812Y-5.1535
X24.6062Y-4.4035
X24.7687Y-1.0285
X24.7687Y-1.7785
X24.7687Y-3.6535
X24.7937Y-2.9035
X24.9562Y-4.4035
X24.9812Y-5.1535
X25.1437Y-2.9035
X25.1687Y-1.0285
X25.1687Y-1.7785
X25.1687Y-3.6535
X25.3312Y-5.1535
X25.3562Y-4.4035
X25.5187Y-1.0285
X25.5187Y-1.7785
X25.5187Y-3.6535
X25.5437Y-2.9035
X25.7062Y-4.4035
X25.7312Y-5.1535
X25.8937Y-2.9035
X25.9187Y-1.0285
X25.9187Y-1.7785
X25.9187Y-3.6535
X25.9875Y-5.9035
X26.0812Y-5.1535
X26.1062Y-4.4035
X26.2687Y-3.6535
X26.2937Y-2.9035
X26.3875Y-5.9035
X26.4562Y-4.4035
X26.4812Y-5.1535
X26.6437Y-1.0285
X26.6437Y-1.7785
X26.6437Y-2.9035
X26.6687Y-3.6535
X26.8312Y-5.1535
X26.8562Y-4.4035
X26.925Y-5.9035
X27.0187Y-3.6535
X27.0437Y-1.0285
X27.0437Y-1.7785
X27.0437Y-2.9035
X27.2062Y-4.4035
X27.2312Y-5.1535
X27.325Y-5.9035
X27.3937Y-1.0285
X27.3937Y-1.7785
X27.3937Y-2.9035
X27.4187Y-3.6535
X27.6062Y-4.4035
X27.7687Y-3.6535
X27.7937Y-1.0285
X27.7937Y-1.7785
X27.7937Y-2.9035
X27.8625Y-5.9035
X28.1437Y-1.0285
X28.1437Y-1.7785
X28.1687Y-3.6535
X28.2375Y-5.1535
X28.2625Y-5.9035
X28.425Y-4.4035
X28.5187Y-2.9035
X28.5437Y-1.0285
X28.5437Y-1.7785
X28.6375Y-5.1535
X28.7062Y-3.6535
X28.8Y-5.9035
X28.825Y-4.4035
X28.8937Y-1.0285
X28.8937Y-1.7785
X28.9187Y-2.9035
X29.1062Y-3.6535
X29.2Y-5.9035
X29.2937Y-1.0285
X29.2937Y-1.7785
X29.8312Y-1.7785
X29.8312Y-2.9035
X29.8312Y-3.6535
X29.8312Y-5.9035
X30.2312Y-1.7785
X30.2312Y-2.9035
X30.2312Y-3.6535
X30.2312Y-5.9035
X30.5812Y-1.7785
X30.5812Y-2.9035
X30.5812Y-3.6535
X30.5812Y-5.1535
X30.5812Y-5.9035
X30.9812Y-1.7785
X30.9812Y-2.9035
X30.9812Y-3.6535
X30.9812Y-5.1535
X30.9812Y-5.9035
X31.3312Y-1.7785
X31.3312Y-2.9035
X31.3312Y-3.6535
X31.3312Y-5.9035
X31.7312Y-1.7785
X31.7312Y-2.9035
X31.7312Y-3.6535
X31.7312Y-5.9035
T2
X15.3062Y-3.1035
X15.3062Y-3.8535
X15.3062Y-4.6035
X15.3062Y-5.3535
X15.5562Y-3.0035
X15.5562Y-3.7535
X15.5562Y-4.5035
X15.5562Y-5.2535
X15.6812Y-1.9785
X15.6812Y-6.1035
X15.9312Y-1.8785
X15.9312Y-6.0035
X16.0562Y-3.1035
X16.0562Y-3.8535
X16.0562Y-4.6035
X16.0562Y-5.3535
X16.3062Y-3.0035
X16.3062Y-3.7535
X16.3062Y-4.5035
X16.3062Y-5.2535
X16.4312Y-1.9785
X16.6812Y-1.8785
X16.8062Y-3.1035
X16.8062Y-3.8535
X16.8062Y-4.6035
X16.8062Y-5.3535
X16.8062Y-6.1035
X17.0562Y-3.0035
X17.0562Y-3.7535
X17.0562Y-4.5035
X17.0562Y-5.2535
X17.0562Y-6.0035
X17.1812Y-1.2285
X17.1812Y-1.9785
X17.4312Y-1.1285
X17.4312Y-1.8785
X17.5562Y-3.1035
X17.7562Y-3.8785
X17.7562Y-5.3785
X17.8062Y-3.0035
X17.8562Y-4.1285
X17.8562Y-5.6285
X18.4937Y-1.2285
X18.4937Y-1.9785
X18.4937Y-3.1035
X18.5875Y-6.1035
X18.6812Y-3.8535
X18.7437Y-1.1285
X18.7437Y-1.8785
X18.7437Y-3.0035
X18.775Y-4.6035
X18.8375Y-6.0035
X18.9312Y-3.7535
X18.9625Y-5.3535
X19.025Y-4.5035
X19.2125Y-5.2535
X19.2437Y-3.1035
X19.4937Y-3.0035
X19.525Y-6.1035
X19.6187Y-3.8535
X19.775Y-6.0035
X19.8062Y-4.6035
X19.8687Y-3.7535
X19.9937Y-1.2285
X19.9937Y-1.9785
X19.9937Y-3.1035
X20.0562Y-4.5035
X20.1812Y-5.3535
X20.2437Y-1.1285
X20.2437Y-1.8785
X20.2437Y-3.0035
X20.3687Y-3.8535
X20.4312Y-5.2535
X20.4625Y-6.1035
X20.5562Y-4.6035
X20.6187Y-3.7535
X20.7125Y-6.0035
X20.7437Y-1.2285
X20.7437Y-1.9785
X20.7437Y-3.1035
X20.8062Y-4.5035
X20.9335Y-5.3473
X20.9937Y-1.1285
X20.9937Y-1.8785
X20.9937Y-3.0035
X21.1187Y-3.8535
X21.1835Y-5.2473
X21.3062Y-4.6035
X21.3687Y-3.7535
X21.4937Y-1.2285
X21.4937Y-1.9785
X21.4937Y-3.1035
X21.5562Y-4.5035
X21.6812Y-5.3535
X21.7437Y-1.1285
X21.7437Y-1.8785
X21.7437Y-3.0035
X21.8687Y-3.8535
X21.9312Y-5.2535
X22.0562Y-4.6035
X22.1187Y-3.7535
X22.2437Y-1.2285
X22.2437Y-1.9785
X22.2437Y-3.1035
X22.3062Y-4.5035
X22.4312Y-5.3535
X22.4937Y-1.1285
X22.4937Y-1.8785
X22.4937Y-3.0035
X22.6187Y-3.8535
X22.6812Y-5.2535
X22.8062Y-4.6035
X22.8687Y-3.7535
X22.9937Y-3.1035
X23.0562Y-4.5035
X23.1812Y-5.3535
X23.2437Y-3.0035
X23.275Y-6.1035
X23.3687Y-1.2285
X23.3687Y-1.9785
X23.3687Y-3.8535
X23.4312Y-5.2535
X23.525Y-6.0035
X23.5562Y-4.6035
X23.6187Y-1.1285
X23.6187Y-1.8785
X23.6187Y-3.7535
X23.7437Y-3.1035
X23.8062Y-4.5035
X23.9312Y-5.3535
X23.9937Y-3.0035
X24.1187Y-1.2285
X24.1187Y-1.9785
X24.1187Y-3.8535
X24.1812Y-5.2535
X24.3062Y-4.6035
X24.3687Y-1.1285
X24.3687Y-1.8785
X24.3687Y-3.7535
X24.4937Y-3.1035
X24.5562Y-4.5035
X24.6812Y-5.3535
X24.7437Y-3.0035
X24.8687Y-1.2285
X24.8687Y-1.9785
X24.8687Y-3.8535
X24.9312Y-5.2535
X25.0562Y-4.6035
X25.1187Y-1.1285
X25.1187Y-1.8785
X25.1187Y-3.7535
X25.2437Y-3.1035
X25.3062Y-4.5035
X25.4312Y-5.3535
X25.4937Y-3.0035
X25.6187Y-1.2285
X25.6187Y-1.9785
X25.6187Y-3.8535
X25.6812Y-5.2535
X25.8062Y-4.6035
X25.8687Y-1.1285
X25.8687Y-1.8785
X25.8687Y-3.7535
X25.9937Y-3.1035
X26.0562Y-4.5035
X26.0875Y-6.1035
X26.1812Y-5.3535
X26.2437Y-3.0035
X26.3375Y-6.0035
X26.3687Y-3.8535
X26.4312Y-5.2535
X26.5562Y-4.6035
X26.6187Y-3.7535
X26.7437Y-1.2285
X26.7437Y-1.9785
X26.7437Y-3.1035
X26.8062Y-4.5035
X26.9312Y-5.3535
X26.9937Y-1.1285
X26.9937Y-1.8785
X26.9937Y-3.0035
X27.025Y-6.1035
X27.1187Y-3.8535
X27.1812Y-5.2535
X27.275Y-6.0035
X27.3062Y-4.6035
X27.3687Y-3.7535
X27.4937Y-1.2285
X27.4937Y-1.9785
X27.4937Y-3.1035
X27.5562Y-4.5035
X27.7437Y-1.1285
X27.7437Y-1.8785
X27.7437Y-3.0035
X27.8687Y-3.8535
X27.9625Y-6.1035
X28.1187Y-3.7535
X28.2125Y-6.0035
X28.2437Y-1.2285
X28.2437Y-1.9785
X28.3375Y-5.3535
X28.4937Y-1.1285
X28.4937Y-1.8785
X28.525Y-4.6035
X28.5875Y-5.2535
X28.6187Y-3.1035
X28.775Y-4.5035
X28.8062Y-3.8535
X28.8687Y-3.0035
X28.9Y-6.1035
X28.9937Y-1.2285
X28.9937Y-1.9785
X29.0562Y-3.7535
X29.15Y-6.0035
X29.2437Y-1.1285
X29.2437Y-1.8785
X29.9312Y-1.9785
X29.9312Y-3.1035
X29.9312Y-3.8535
X29.9312Y-6.1035
X30.1812Y-1.8785
X30.1812Y-3.0035
X30.1812Y-3.7535
X30.1812Y-6.0035
X30.6812Y-1.9785
X30.6812Y-3.1035
X30.6812Y-3.8535
X30.6812Y-5.3535
X30.6812Y-6.1035
X30.9312Y-1.8785
X30.9312Y-3.0035
X30.9312Y-3.7535
X30.9312Y-5.2535
X30.9312Y-6.0035
X31.4312Y-1.9785
X31.4312Y-3.1035
X31.4312Y-3.8535
X31.4312Y-6.1035
X31.6812Y-1.8785
X31.6812Y-3.0035
X31.6812Y-3.7535
X31.6812Y-6.0035
T3
X15.3112Y-6.1785
X16.2512Y-6.1785
X17.9312Y-3.5585
X17.9312Y-4.4985
X17.9312Y-5.0585
X17.9312Y-5.9985
X18.5925Y-5.4285
X19.5325Y-5.4285
X21.4065Y-6.1785
X25.3435Y-6.1785
X27.9675Y-5.4285
X28.155Y-4.6785
X28.2487Y-3.1785
X28.9075Y-5.4285
X29.095Y-4.6785
X29.1887Y-3.1785
T4
X15.65Y-2.35
X18.4Y-5.15
X23.55Y-4.0
X24.15Y-5.9
X29.15Y-5.15
X30.15Y-2.35
T5
X15.3112Y-5.5785
X15.4062Y-2.9035
X15.4062Y-3.6535
X15.4062Y-4.4035
X15.4062Y-5.1535
X15.7812Y-1.7785
X15.7812Y-5.9035
X16.1562Y-2.9035
X16.1562Y-3.6535
X16.1562Y-4.4035
X16.1562Y-5.1535
X16.2512Y-5.5785
X16.5312Y-1.7785
X16.9062Y-2.9035
X16.9062Y-3.6535
X16.9062Y-4.4035
X16.9062Y-5.1535
X16.9062Y-5.9035
X17.2812Y-1.0285
X17.2812Y-1.7785
X17.3312Y-3.5585
X17.3312Y-4.4985
X17.3312Y-5.0585
X17.3312Y-5.9985
X17.6562Y-2.9035
X17.6562Y-4.0285
X17.6562Y-5.5285
X18.5925Y-4.8285
X18.5937Y-1.0285
X18.5937Y-1.7785
X18.5937Y-2.9035
X18.6875Y-5.9035
X18.7812Y-3.6535
X18.875Y-4.4035
X19.0625Y-5.1535
X19.3437Y-2.9035
X19.5325Y-4.8285
X19.625Y-5.9035
X19.7187Y-3.6535
X19.9062Y-4.4035
X20.0937Y-1.0285
X20.0937Y-1.7785
X20.0937Y-2.9035
X20.2812Y-5.1535
X20.4687Y-3.6535
X20.5625Y-5.9035
X20.6562Y-4.4035
X20.8437Y-1.0285
X20.8437Y-1.7785
X20.8437Y-2.9035
X21.0335Y-5.1473
X21.2187Y-3.6535
X21.4062Y-4.4035
X21.4065Y-5.5785
X21.5937Y-1.0285
X21.5937Y-1.7785
X21.5937Y-2.9035
X21.7812Y-5.1535
X21.9687Y-3.6535
X22.1562Y-4.4035
X22.3437Y-1.0285
X22.3437Y-1.7785
X22.3437Y-2.9035
X22.5312Y-5.1535
X22.7187Y-3.6535
X22.9062Y-4.4035
X23.0937Y-2.9035
X23.2812Y-5.1535
X23.375Y-5.9035
X23.4687Y-1.0285
X23.4687Y-1.7785
X23.4687Y-3.6535
X23.6562Y-4.4035
X23.8437Y-2.9035
X24.0312Y-5.1535
X24.2187Y-1.0285
X24.2187Y-1.7785
X24.2187Y-3.6535
X24.4062Y-4.4035
X24.5937Y-2.9035
X24.7812Y-5.1535
X24.9687Y-1.0285
X24.9687Y-1.7785
X24.9687Y-3.6535
X25.1562Y-4.4035
X25.3435Y-5.5785
X25.3437Y-2.9035
X25.5312Y-5.1535
X25.7187Y-1.0285
X25.7187Y-1.7785
X25.7187Y-3.6535
X25.9062Y-4.4035
X26.0937Y-2.9035
X26.1875Y-5.9035
X26.2812Y-5.1535
X26.4687Y-3.6535
X26.6562Y-4.4035
X26.8437Y-1.0285
X26.8437Y-1.7785
X26.8437Y-2.9035
X27.0312Y-5.1535
X27.125Y-5.9035
X27.2187Y-3.6535
X27.4062Y-4.4035
X27.5937Y-1.0285
X27.5937Y-1.7785
X27.5937Y-2.9035
X27.9675Y-4.8285
X27.9687Y-3.6535
X28.0625Y-5.9035
X28.155Y-4.0785
X28.2487Y-2.5785
X28.3437Y-1.0285
X28.3437Y-1.7785
X28.4375Y-5.1535
X28.625Y-4.4035
X28.7187Y-2.9035
X28.9062Y-3.6535
X28.9075Y-4.8285
X29.0Y-5.9035
X29.0937Y-1.0285
X29.0937Y-1.7785
X29.095Y-4.0785
X29.1887Y-2.5785
X30.0312Y-1.7785
X30.0312Y-2.9035
X30.0312Y-3.6535
X30.0312Y-5.9035
X30.7812Y-1.7785
X30.7812Y-2.9035
X30.7812Y-3.6535
X30.7812Y-5.1535
X30.7812Y-5.9035
X31.5312Y-1.7785
X31.5312Y-2.9035
X31.5312Y-3.6535
X31.5312Y-5.9035
T6
X15.4Y-0.35
X17.65Y-4.65
X18.664Y-0.3488
X22.65Y-5.9
X22.9Y-2.3
X27.664Y-0.3488
X31.65Y-1.1
X31.65Y-4.55
T0
M30
