  0
SECTION
  2
HEADER
  9
$ANGBASE
  50
0.0
  9
$ANGDIR
  70
1
  9
$MEASUREMENT
  70
1
  0
ENDSEC
  0
SECTION
  2
TABLES
  0
TABLE
  2
LTYPE
  70
4
  0
LTYPE
  5
40F
  2
CONTINUOUS
  70
0
  3
Solid line
  72
65
  73
0
  40
0.0
  0
LTYPE
  5
410
  2
DASHDOT
 70
0
  3
Dash Dot ____ _ ____ _
 72
65
 73
4
 40
2.0
 49
1.25
 49
-0.25
 49
0.25
 49
-0.25
  0
LTYPE
  5
411
  2
DASHED
 70
0
  3
Dashed __ __ __ __ __
 72
65
 73
2
 40
0.75
 49
0.5
 49
-0.25
  0
LTYPE
  5
43B
  2
DOTTED
 70
0
  3
Dotted .  .  .  .
 72
65
 73
2
 40
0.2
 49
0.0
 49
-0.2
  0
ENDTAB
  0
TABLE
  2
STYLE
  70
4
  0
STYLE
  2
KICAD
  70
0
  40
0
  41
1
  42
1
  50
0
  71
0
  3
isocp.shx
  0
STYLE
  2
KICADB
  70
0
  40
0
  41
1
  42
1
  50
0
  71
0
  3
isocp.shx
  0
STYLE
  2
KICADI
  70
0
  40
0
  41
1
  42
1
  50
15
  71
0
  3
isocp.shx
  0
STYLE
  2
KICADBI
  70
0
  40
0
  41
1
  42
1
  50
15
  71
0
  3
isocp.shx
  0
ENDTAB
  0
TABLE
  2
LAYER
  70
1
  0
LAYER
  2
BLACK
  70
0
  62
7
  6
CONTINUOUS
  0
ENDTAB
  0
ENDSEC
  0
SECTION
  2
ENTITIES
0
LINE
8
BLACK
6
CONTINUOUS
10
798.512
20
0.11926
11
799.182
21
0.100454
0
LINE
8
BLACK
6
CONTINUOUS
10
799.182
20
0.100454
11
799.85
21
0.044088
0
LINE
8
BLACK
6
CONTINUOUS
10
799.85
20
0.044088
11
800.514
21
-0.049661
0
LINE
8
BLACK
6
CONTINUOUS
10
800.514
20
-0.049661
11
801.172
21
-0.180497
0
LINE
8
BLACK
6
CONTINUOUS
10
801.172
20
-0.180497
11
801.822
21
-0.348009
0
LINE
8
BLACK
6
CONTINUOUS
10
801.822
20
-0.348009
11
802.461
21
-0.55167
0
LINE
8
BLACK
6
CONTINUOUS
10
802.461
20
-0.55167
11
803.087
21
-0.790839
0
LINE
8
BLACK
6
CONTINUOUS
10
803.087
20
-0.790839
11
803.699
21
-1.06476
0
LINE
8
BLACK
6
CONTINUOUS
10
803.699
20
-1.06476
11
804.295
21
-1.37258
0
LINE
8
BLACK
6
CONTINUOUS
10
804.295
20
-1.37258
11
804.873
21
-1.71332
0
LINE
8
BLACK
6
CONTINUOUS
10
804.873
20
-1.71332
11
805.431
21
-2.08592
0
LINE
8
BLACK
6
CONTINUOUS
10
805.431
20
-2.08592
11
805.966
21
-2.4892
0
LINE
8
BLACK
6
CONTINUOUS
10
805.966
20
-2.4892
11
806.479
21
-2.92189
0
LINE
8
BLACK
6
CONTINUOUS
10
806.479
20
-2.92189
11
806.966
21
-3.38262
0
LINE
8
BLACK
6
CONTINUOUS
10
806.966
20
-3.38262
11
807.427
21
-3.86996
0
LINE
8
BLACK
6
CONTINUOUS
10
807.427
20
-3.86996
11
807.86
21
-4.38237
0
LINE
8
BLACK
6
CONTINUOUS
10
807.86
20
-4.38237
11
808.263
21
-4.91823
0
LINE
8
BLACK
6
CONTINUOUS
10
808.263
20
-4.91823
11
808.635
21
-5.47586
0
LINE
8
BLACK
6
CONTINUOUS
10
808.635
20
-5.47586
11
808.976
21
-6.05351
0
LINE
8
BLACK
6
CONTINUOUS
10
808.976
20
-6.05351
11
809.284
21
-6.64935
0
LINE
8
BLACK
6
CONTINUOUS
10
809.284
20
-6.64935
11
809.558
21
-7.26152
0
LINE
8
BLACK
6
CONTINUOUS
10
809.558
20
-7.26152
11
809.797
21
-7.88808
0
LINE
8
BLACK
6
CONTINUOUS
10
809.797
20
-7.88808
11
810.001
21
-8.52707
0
LINE
8
BLACK
6
CONTINUOUS
10
810.001
20
-8.52707
11
810.168
21
-9.17647
0
LINE
8
BLACK
6
CONTINUOUS
10
810.168
20
-9.17647
11
810.299
21
-9.83424
0
LINE
8
BLACK
6
CONTINUOUS
10
810.299
20
-9.83424
11
810.393
21
-10.4983
0
LINE
8
BLACK
6
CONTINUOUS
10
810.393
20
-10.4983
11
810.449
21
-11.1666
0
LINE
8
BLACK
6
CONTINUOUS
10
810.449
20
-11.1666
11
810.468
21
-11.837
0
LINE
8
BLACK
6
CONTINUOUS
10
810.468
20
-11.837
11
810.468
21
-11.837
0
LINE
8
BLACK
6
CONTINUOUS
10
810.468
20
-11.837
11
810.468
21
-159.474
0
LINE
8
BLACK
6
CONTINUOUS
10
810.468
20
-159.474
11
810.468
21
-159.474
0
LINE
8
BLACK
6
CONTINUOUS
10
810.468
20
-159.474
11
810.468
21
-159.474
0
LINE
8
BLACK
6
CONTINUOUS
10
810.468
20
-159.474
11
810.45
21
-159.768
0
LINE
8
BLACK
6
CONTINUOUS
10
810.45
20
-159.768
11
810.397
21
-160.056
0
LINE
8
BLACK
6
CONTINUOUS
10
810.397
20
-160.056
11
810.31
21
-160.337
0
LINE
8
BLACK
6
CONTINUOUS
10
810.31
20
-160.337
11
810.189
21
-160.604
0
LINE
8
BLACK
6
CONTINUOUS
10
810.189
20
-160.604
11
810.038
21
-160.856
0
LINE
8
BLACK
6
CONTINUOUS
10
810.038
20
-160.856
11
809.857
21
-161.087
0
LINE
8
BLACK
6
CONTINUOUS
10
809.857
20
-161.087
11
809.649
21
-161.294
0
LINE
8
BLACK
6
CONTINUOUS
10
809.649
20
-161.294
11
809.418
21
-161.475
0
LINE
8
BLACK
6
CONTINUOUS
10
809.418
20
-161.475
11
809.167
21
-161.627
0
LINE
8
BLACK
6
CONTINUOUS
10
809.167
20
-161.627
11
808.899
21
-161.748
0
LINE
8
BLACK
6
CONTINUOUS
10
808.899
20
-161.748
11
808.619
21
-161.835
0
LINE
8
BLACK
6
CONTINUOUS
10
808.619
20
-161.835
11
808.33
21
-161.888
0
LINE
8
BLACK
6
CONTINUOUS
10
808.33
20
-161.888
11
808.037
21
-161.906
0
LINE
8
BLACK
6
CONTINUOUS
10
808.037
20
-161.906
11
808.037
21
-161.906
0
LINE
8
BLACK
6
CONTINUOUS
10
808.037
20
-161.906
11
808.037
21
-161.906
0
LINE
8
BLACK
6
CONTINUOUS
10
808.037
20
-161.906
11
808.037
21
-161.906
0
LINE
8
BLACK
6
CONTINUOUS
10
808.037
20
-161.906
11
808.037
21
-161.906
0
LINE
8
BLACK
6
CONTINUOUS
10
808.037
20
-161.906
11
384.174
21
-161.906
0
LINE
8
BLACK
6
CONTINUOUS
10
384.174
20
-161.906
11
384.174
21
-161.906
0
LINE
8
BLACK
6
CONTINUOUS
10
384.174
20
-161.906
11
384.174
21
-161.906
0
LINE
8
BLACK
6
CONTINUOUS
10
384.174
20
-161.906
11
383.881
21
-161.888
0
LINE
8
BLACK
6
CONTINUOUS
10
383.881
20
-161.888
11
383.592
21
-161.835
0
LINE
8
BLACK
6
CONTINUOUS
10
383.592
20
-161.835
11
383.312
21
-161.748
0
LINE
8
BLACK
6
CONTINUOUS
10
383.312
20
-161.748
11
383.044
21
-161.627
0
LINE
8
BLACK
6
CONTINUOUS
10
383.044
20
-161.627
11
382.793
21
-161.475
0
LINE
8
BLACK
6
CONTINUOUS
10
382.793
20
-161.475
11
382.562
21
-161.294
0
LINE
8
BLACK
6
CONTINUOUS
10
382.562
20
-161.294
11
382.354
21
-161.087
0
LINE
8
BLACK
6
CONTINUOUS
10
382.354
20
-161.087
11
382.173
21
-160.856
0
LINE
8
BLACK
6
CONTINUOUS
10
382.173
20
-160.856
11
382.021
21
-160.604
0
LINE
8
BLACK
6
CONTINUOUS
10
382.021
20
-160.604
11
381.901
21
-160.337
0
LINE
8
BLACK
6
CONTINUOUS
10
381.901
20
-160.337
11
381.814
21
-160.056
0
LINE
8
BLACK
6
CONTINUOUS
10
381.814
20
-160.056
11
381.761
21
-159.768
0
LINE
8
BLACK
6
CONTINUOUS
10
381.761
20
-159.768
11
381.743
21
-159.474
0
LINE
8
BLACK
6
CONTINUOUS
10
381.743
20
-159.474
11
381.743
21
-159.474
0
LINE
8
BLACK
6
CONTINUOUS
10
381.743
20
-159.474
11
381.743
21
-11.837
0
LINE
8
BLACK
6
CONTINUOUS
10
381.743
20
-11.837
11
381.762
21
-11.1666
0
LINE
8
BLACK
6
CONTINUOUS
10
381.762
20
-11.1666
11
381.818
21
-10.4983
0
LINE
8
BLACK
6
CONTINUOUS
10
381.818
20
-10.4983
11
381.912
21
-9.83425
0
LINE
8
BLACK
6
CONTINUOUS
10
381.912
20
-9.83425
11
382.043
21
-9.17648
0
LINE
8
BLACK
6
CONTINUOUS
10
382.043
20
-9.17648
11
382.21
21
-8.52708
0
LINE
8
BLACK
6
CONTINUOUS
10
382.21
20
-8.52708
11
382.414
21
-7.8881
0
LINE
8
BLACK
6
CONTINUOUS
10
382.414
20
-7.8881
11
382.653
21
-7.26154
0
LINE
8
BLACK
6
CONTINUOUS
10
382.653
20
-7.26154
11
382.927
21
-6.64938
0
LINE
8
BLACK
6
CONTINUOUS
10
382.927
20
-6.64938
11
383.235
21
-6.05354
0
LINE
8
BLACK
6
CONTINUOUS
10
383.235
20
-6.05354
11
383.576
21
-5.4759
0
LINE
8
BLACK
6
CONTINUOUS
10
383.576
20
-5.4759
11
383.948
21
-4.91827
0
LINE
8
BLACK
6
CONTINUOUS
10
383.948
20
-4.91827
11
384.351
21
-4.38241
0
LINE
8
BLACK
6
CONTINUOUS
10
384.351
20
-4.38241
11
384.784
21
-3.87
0
LINE
8
BLACK
6
CONTINUOUS
10
384.784
20
-3.87
11
385.245
21
-3.38267
0
LINE
8
BLACK
6
CONTINUOUS
10
385.245
20
-3.38267
11
385.732
21
-2.92193
0
LINE
8
BLACK
6
CONTINUOUS
10
385.732
20
-2.92193
11
386.245
21
-2.48924
0
LINE
8
BLACK
6
CONTINUOUS
10
386.245
20
-2.48924
11
386.781
21
-2.08597
0
LINE
8
BLACK
6
CONTINUOUS
10
386.781
20
-2.08597
11
387.338
21
-1.71337
0
LINE
8
BLACK
6
CONTINUOUS
10
387.338
20
-1.71337
11
387.916
21
-1.37263
0
LINE
8
BLACK
6
CONTINUOUS
10
387.916
20
-1.37263
11
388.512
21
-1.06481
0
LINE
8
BLACK
6
CONTINUOUS
10
388.512
20
-1.06481
11
389.124
21
-0.790892
0
LINE
8
BLACK
6
CONTINUOUS
10
389.124
20
-0.790892
11
389.75
21
-0.551724
0
LINE
8
BLACK
6
CONTINUOUS
10
389.75
20
-0.551724
11
390.389
21
-0.348063
0
LINE
8
BLACK
6
CONTINUOUS
10
390.389
20
-0.348063
11
391.039
21
-0.180552
0
LINE
8
BLACK
6
CONTINUOUS
10
391.039
20
-0.180552
11
391.696
21
-0.049715
0
LINE
8
BLACK
6
CONTINUOUS
10
391.696
20
-0.049715
11
392.361
21
0.044033
0
LINE
8
BLACK
6
CONTINUOUS
10
392.361
20
0.044033
11
393.029
21
0.1004
0
LINE
8
BLACK
6
CONTINUOUS
10
393.029
20
0.1004
11
393.699
21
0.119203
0
LINE
8
BLACK
6
CONTINUOUS
10
393.699
20
0.119203
11
393.699
21
0.11926
0
LINE
8
BLACK
6
CONTINUOUS
10
393.699
20
0.11926
11
798.512
21
0.11926
0
LINE
8
BLACK
6
CONTINUOUS
10
798.512
20
0.01926
11
393.699
21
0.01926
0
LINE
8
BLACK
6
CONTINUOUS
10
393.699
20
0.01926
11
393.699
21
0.019207
0
LINE
8
BLACK
6
CONTINUOUS
10
393.699
20
0.019207
11
393.367
21
0.019208
0
LINE
8
BLACK
6
CONTINUOUS
10
393.367
20
0.019208
11
392.702
21
-0.018093
0
LINE
8
BLACK
6
CONTINUOUS
10
392.702
20
-0.018093
11
392.041
21
-0.092582
0
LINE
8
BLACK
6
CONTINUOUS
10
392.041
20
-0.092582
11
391.385
21
-0.204023
0
LINE
8
BLACK
6
CONTINUOUS
10
391.385
20
-0.204023
11
390.737
21
-0.352066
0
LINE
8
BLACK
6
CONTINUOUS
10
390.737
20
-0.352066
11
390.097
21
-0.536244
0
LINE
8
BLACK
6
CONTINUOUS
10
390.097
20
-0.536244
11
389.469
21
-0.755979
0
LINE
8
BLACK
6
CONTINUOUS
10
389.469
20
-0.755979
11
388.855
21
-1.01058
0
LINE
8
BLACK
6
CONTINUOUS
10
388.855
20
-1.01058
11
388.255
21
-1.29924
0
LINE
8
BLACK
6
CONTINUOUS
10
388.255
20
-1.29924
11
387.673
21
-1.62106
0
LINE
8
BLACK
6
CONTINUOUS
10
387.673
20
-1.62106
11
387.11
21
-1.97503
0
LINE
8
BLACK
6
CONTINUOUS
10
387.11
20
-1.97503
11
386.567
21
-2.36002
0
LINE
8
BLACK
6
CONTINUOUS
10
386.567
20
-2.36002
11
386.047
21
-2.77483
0
LINE
8
BLACK
6
CONTINUOUS
10
386.047
20
-2.77483
11
385.551
21
-3.21816
0
LINE
8
BLACK
6
CONTINUOUS
10
385.551
20
-3.21816
11
385.08
21
-3.6886
0
LINE
8
BLACK
6
CONTINUOUS
10
385.08
20
-3.6886
11
384.637
21
-4.18468
0
LINE
8
BLACK
6
CONTINUOUS
10
384.637
20
-4.18468
11
384.222
21
-4.70484
0
LINE
8
BLACK
6
CONTINUOUS
10
384.222
20
-4.70484
11
383.837
21
-5.24743
0
LINE
8
BLACK
6
CONTINUOUS
10
383.837
20
-5.24743
11
383.483
21
-5.81076
0
LINE
8
BLACK
6
CONTINUOUS
10
383.483
20
-5.81076
11
383.161
21
-6.39306
0
LINE
8
BLACK
6
CONTINUOUS
10
383.161
20
-6.39306
11
382.873
21
-6.99248
0
LINE
8
BLACK
6
CONTINUOUS
10
382.873
20
-6.99248
11
382.618
21
-7.60714
0
LINE
8
BLACK
6
CONTINUOUS
10
382.618
20
-7.60714
11
382.398
21
-8.23511
0
LINE
8
BLACK
6
CONTINUOUS
10
382.398
20
-8.23511
11
382.214
21
-8.87442
0
LINE
8
BLACK
6
CONTINUOUS
10
382.214
20
-8.87442
11
382.066
21
-9.52304
0
LINE
8
BLACK
6
CONTINUOUS
10
382.066
20
-9.52304
11
381.955
21
-10.179
0
LINE
8
BLACK
6
CONTINUOUS
10
381.955
20
-10.179
11
381.88
21
-10.8401
0
LINE
8
BLACK
6
CONTINUOUS
10
381.88
20
-10.8401
11
381.843
21
-11.5043
0
LINE
8
BLACK
6
CONTINUOUS
10
381.843
20
-11.5043
11
381.843
21
-11.837
0
LINE
8
BLACK
6
CONTINUOUS
10
381.843
20
-11.837
11
381.843
21
-159.474
0
LINE
8
BLACK
6
CONTINUOUS
10
381.843
20
-159.474
11
381.843
21
-159.475
0
LINE
8
BLACK
6
CONTINUOUS
10
381.843
20
-159.475
11
381.843
21
-159.616
0
LINE
8
BLACK
6
CONTINUOUS
10
381.843
20
-159.616
11
381.877
21
-159.895
0
LINE
8
BLACK
6
CONTINUOUS
10
381.877
20
-159.895
11
381.944
21
-160.169
0
LINE
8
BLACK
6
CONTINUOUS
10
381.944
20
-160.169
11
382.044
21
-160.433
0
LINE
8
BLACK
6
CONTINUOUS
10
382.044
20
-160.433
11
382.176
21
-160.683
0
LINE
8
BLACK
6
CONTINUOUS
10
382.176
20
-160.683
11
382.336
21
-160.915
0
LINE
8
BLACK
6
CONTINUOUS
10
382.336
20
-160.915
11
382.523
21
-161.126
0
LINE
8
BLACK
6
CONTINUOUS
10
382.523
20
-161.126
11
382.734
21
-161.313
0
LINE
8
BLACK
6
CONTINUOUS
10
382.734
20
-161.313
11
382.966
21
-161.473
0
LINE
8
BLACK
6
CONTINUOUS
10
382.966
20
-161.473
11
383.216
21
-161.604
0
LINE
8
BLACK
6
CONTINUOUS
10
383.216
20
-161.604
11
383.479
21
-161.704
0
LINE
8
BLACK
6
CONTINUOUS
10
383.479
20
-161.704
11
383.753
21
-161.772
0
LINE
8
BLACK
6
CONTINUOUS
10
383.753
20
-161.772
11
384.033
21
-161.806
0
LINE
8
BLACK
6
CONTINUOUS
10
384.033
20
-161.806
11
384.174
21
-161.806
0
LINE
8
BLACK
6
CONTINUOUS
10
384.174
20
-161.806
11
384.174
21
-161.806
0
LINE
8
BLACK
6
CONTINUOUS
10
384.174
20
-161.806
11
808.037
21
-161.806
0
LINE
8
BLACK
6
CONTINUOUS
10
808.037
20
-161.806
11
808.037
21
-161.806
0
LINE
8
BLACK
6
CONTINUOUS
10
808.037
20
-161.806
11
808.178
21
-161.806
0
LINE
8
BLACK
6
CONTINUOUS
10
808.178
20
-161.806
11
808.458
21
-161.772
0
LINE
8
BLACK
6
CONTINUOUS
10
808.458
20
-161.772
11
808.732
21
-161.704
0
LINE
8
BLACK
6
CONTINUOUS
10
808.732
20
-161.704
11
808.995
21
-161.604
0
LINE
8
BLACK
6
CONTINUOUS
10
808.995
20
-161.604
11
809.245
21
-161.473
0
LINE
8
BLACK
6
CONTINUOUS
10
809.245
20
-161.473
11
809.477
21
-161.313
0
LINE
8
BLACK
6
CONTINUOUS
10
809.477
20
-161.313
11
809.688
21
-161.126
0
LINE
8
BLACK
6
CONTINUOUS
10
809.688
20
-161.126
11
809.875
21
-160.915
0
LINE
8
BLACK
6
CONTINUOUS
10
809.875
20
-160.915
11
810.035
21
-160.683
0
LINE
8
BLACK
6
CONTINUOUS
10
810.035
20
-160.683
11
810.166
21
-160.433
0
LINE
8
BLACK
6
CONTINUOUS
10
810.166
20
-160.433
11
810.266
21
-160.169
0
LINE
8
BLACK
6
CONTINUOUS
10
810.266
20
-160.169
11
810.334
21
-159.895
0
LINE
8
BLACK
6
CONTINUOUS
10
810.334
20
-159.895
11
810.368
21
-159.615
0
LINE
8
BLACK
6
CONTINUOUS
10
810.368
20
-159.615
11
810.368
21
-159.474
0
LINE
8
BLACK
6
CONTINUOUS
10
810.368
20
-159.474
11
810.368
21
-11.837
0
LINE
8
BLACK
6
CONTINUOUS
10
810.368
20
-11.837
11
810.368
21
-11.8368
0
LINE
8
BLACK
6
CONTINUOUS
10
810.368
20
-11.8368
11
810.368
21
-11.5043
0
LINE
8
BLACK
6
CONTINUOUS
10
810.368
20
-11.5043
11
810.331
21
-10.8401
0
LINE
8
BLACK
6
CONTINUOUS
10
810.331
20
-10.8401
11
810.256
21
-10.1789
0
LINE
8
BLACK
6
CONTINUOUS
10
810.256
20
-10.1789
11
810.145
21
-9.52303
0
LINE
8
BLACK
6
CONTINUOUS
10
810.145
20
-9.52303
11
809.997
21
-8.8744
0
LINE
8
BLACK
6
CONTINUOUS
10
809.997
20
-8.8744
11
809.813
21
-8.23509
0
LINE
8
BLACK
6
CONTINUOUS
10
809.813
20
-8.23509
11
809.593
21
-7.60712
0
LINE
8
BLACK
6
CONTINUOUS
10
809.593
20
-7.60712
11
809.338
21
-6.99245
0
LINE
8
BLACK
6
CONTINUOUS
10
809.338
20
-6.99245
11
809.05
21
-6.39303
0
LINE
8
BLACK
6
CONTINUOUS
10
809.05
20
-6.39303
11
808.728
21
-5.81073
0
LINE
8
BLACK
6
CONTINUOUS
10
808.728
20
-5.81073
11
808.374
21
-5.2474
0
LINE
8
BLACK
6
CONTINUOUS
10
808.374
20
-5.2474
11
807.989
21
-4.7048
0
LINE
8
BLACK
6
CONTINUOUS
10
807.989
20
-4.7048
11
807.574
21
-4.18464
0
LINE
8
BLACK
6
CONTINUOUS
10
807.574
20
-4.18464
11
807.131
21
-3.68856
0
LINE
8
BLACK
6
CONTINUOUS
10
807.131
20
-3.68856
11
806.66
21
-3.21811
0
LINE
8
BLACK
6
CONTINUOUS
10
806.66
20
-3.21811
11
806.164
21
-2.77479
0
LINE
8
BLACK
6
CONTINUOUS
10
806.164
20
-2.77479
11
805.644
21
-2.35997
0
LINE
8
BLACK
6
CONTINUOUS
10
805.644
20
-2.35997
11
805.101
21
-1.97498
0
LINE
8
BLACK
6
CONTINUOUS
10
805.101
20
-1.97498
11
804.538
21
-1.62101
0
LINE
8
BLACK
6
CONTINUOUS
10
804.538
20
-1.62101
11
803.956
21
-1.29919
0
LINE
8
BLACK
6
CONTINUOUS
10
803.956
20
-1.29919
11
803.356
21
-1.01053
0
LINE
8
BLACK
6
CONTINUOUS
10
803.356
20
-1.01053
11
802.742
21
-0.755926
0
LINE
8
BLACK
6
CONTINUOUS
10
802.742
20
-0.755926
11
802.114
21
-0.53619
0
LINE
8
BLACK
6
CONTINUOUS
10
802.114
20
-0.53619
11
801.474
21
-0.352011
0
LINE
8
BLACK
6
CONTINUOUS
10
801.474
20
-0.352011
11
800.826
21
-0.203968
0
LINE
8
BLACK
6
CONTINUOUS
10
800.826
20
-0.203968
11
800.17
21
-0.092528
0
LINE
8
BLACK
6
CONTINUOUS
10
800.17
20
-0.092528
11
799.509
21
-0.018039
0
LINE
8
BLACK
6
CONTINUOUS
10
799.509
20
-0.018039
11
798.844
21
0.019262
0
LINE
8
BLACK
6
CONTINUOUS
10
798.844
20
0.019262
11
798.512
21
0.01926
  0
ENDSEC
  0
EOF
