M48
; DRILL file {KiCad 7.0.5} date Fri Jun 23 10:19:04 2023
; FORMAT={-:-/ absolute / inch / decimal}
; #@! TF.CreationDate,2023-06-23T10:19:04-04:00
; #@! TF.GenerationSoftware,Kicad,Pcbnew,7.0.5
; #@! TF.FileFunction,Plated,1,2,PTH
FMAT,2
INCH
; #@! TA.AperFunction,Plated,PTH,ViaDrill
T1C0.0157
; #@! TA.AperFunction,Plated,PTH,ViaDrill
T2C0.0315
; #@! TA.AperFunction,Plated,PTH,ComponentDrill
T3C0.0394
%
G90
G05
T1
X15.4062Y-2.1535
X15.7812Y-2.6223
X15.7812Y-3.3723
X15.7812Y-4.1223
X15.7812Y-4.8723
X15.95Y-5.6223
X16.3437Y-1.4953
X16.4843Y-2.2473
X16.5312Y-2.6223
X16.5312Y-3.3723
X16.5312Y-4.1223
X16.5312Y-4.8723
X16.9062Y-2.341
X17.0937Y-1.4973
X17.2812Y-2.6223
X17.2812Y-3.3723
X17.2812Y-4.1223
X17.2812Y-4.8723
X17.2812Y-5.6223
X17.5625Y-2.4348
X17.6562Y-4.8723
X17.8437Y-3.3723
X17.9375Y-0.7473
X17.9375Y-1.4973
X18.0312Y-2.6223
X18.25Y-0.35
X18.35Y-0.5
X18.5Y-2.5285
X18.9687Y-1.4973
X18.9687Y-2.6223
X18.9687Y-3.3723
X19.0625Y-0.7473
X19.0625Y-5.6223
X19.1693Y-2.5672
X19.25Y-4.1223
X19.4Y-4.8723
X19.7187Y-2.6223
X19.9062Y-2.6223
X19.9062Y-3.3723
X20.0Y-5.6223
X20.0937Y-4.1223
X20.4687Y-0.7473
X20.4687Y-1.4973
X20.4687Y-2.6223
X20.6554Y-4.8731
X20.6562Y-2.8098
X20.8429Y-3.3731
X20.8437Y-4.1223
X20.9375Y-5.6223
X21.2187Y-0.7473
X21.2187Y-1.4973
X21.2187Y-2.6223
X21.4054Y-4.8731
X21.5669Y-3.2679
X21.5929Y-3.3731
X21.5937Y-4.1223
X21.9687Y-0.7473
X21.9687Y-1.4973
X21.9687Y-2.6223
X22.1554Y-4.8731
X22.3149Y-3.2571
X22.3429Y-3.3731
X22.3437Y-4.1223
X22.7187Y-0.7473
X22.7187Y-1.4973
X22.7187Y-2.6223
X22.9054Y-4.8731
X22.9062Y-3.3723
X23.0937Y-3.2856
X23.0937Y-4.1223
X23.242Y-2.6223
X23.4687Y-4.8723
X23.75Y-5.6223
X23.8429Y-3.3731
X23.8437Y-0.7473
X23.8437Y-1.4973
X23.8437Y-4.1223
X23.87Y-3.3191
X24.0312Y-2.6223
X24.4054Y-4.8731
X24.5936Y-3.3724
X24.5937Y-0.7473
X24.5937Y-1.4973
X24.5937Y-4.1223
X24.6417Y-3.3388
X24.7812Y-2.6223
X25.1561Y-4.8724
X25.3436Y-3.3724
X25.3437Y-0.7473
X25.3437Y-1.4973
X25.3437Y-4.1223
X25.5118Y-3.5317
X25.5312Y-2.6223
X25.9061Y-4.8724
X26.0929Y-3.3731
X26.0937Y-0.7473
X26.0937Y-1.4973
X26.0937Y-4.1223
X26.2559Y-3.5095
X26.4687Y-2.6223
X26.4687Y-4.8723
X26.5625Y-5.6223
X26.6562Y-3.3723
X26.8437Y-4.1223
X26.8543Y-3.5396
X27.2187Y-0.7473
X27.2187Y-1.4973
X27.2187Y-2.6223
X27.4054Y-4.8731
X27.4062Y-3.3723
X27.5Y-5.6223
X27.5937Y-4.1223
X27.9094Y-3.9845
X27.9687Y-0.7473
X27.9687Y-1.4973
X27.9687Y-2.6223
X28.1575Y-2.6735
X28.25Y-3.466
X28.25Y-5.6223
X28.625Y-4.8723
X28.7187Y-0.7473
X28.7187Y-1.4973
X28.8125Y-4.1223
X28.85Y-2.6223
X28.8661Y-2.1026
X29.15Y-0.5
X29.1875Y-5.6223
X29.2598Y-4.013
X29.2812Y-3.466
X29.3Y-0.525
X29.4Y-0.45
X29.45Y-2.325
X29.4687Y-0.7473
X29.4687Y-1.4973
X29.4803Y-2.1301
X29.4882Y-2.2246
X29.5Y-2.475
X29.5039Y-2.4136
X29.5236Y-3.3112
X29.5393Y-2.7876
X29.5551Y-2.5238
X29.563Y-3.3506
X29.6338Y-3.3782
X29.6771Y-3.4057
X29.7086Y-3.4372
X29.7283Y-3.5357
X29.909Y-3.5002
X29.9134Y-4.011
X29.9527Y-3.5002
X30.1Y-0.35
X30.1Y-0.4
X30.1Y-0.45
X30.4055Y-0.3309
X30.4062Y-1.4973
X30.4062Y-2.6223
X30.4062Y-3.3723
X30.4062Y-5.6223
X30.4291Y-4.9653
X30.433Y-1.3624
X30.433Y-4.216
X30.4527Y-0.3309
X30.4724Y-1.3624
X30.5035Y-2.6735
X30.5039Y-0.3309
X30.5117Y-1.3624
X30.5511Y-1.3624
X30.5551Y-0.3309
X30.563Y-2.6105
X30.5669Y-4.0287
X30.5905Y-1.3624
X30.6023Y-0.3309
X30.6535Y-0.3309
X30.7047Y-0.3309
X30.7244Y-0.9294
X30.7795Y-0.9294
X30.8464Y-0.9294
X30.9Y-0.7
X30.9055Y-0.0672
X30.9055Y-0.1813
X30.9094Y-0.9294
X30.9509Y-4.0297
X30.9606Y-3.3723
X30.9685Y-1.4973
X30.9724Y-0.9294
X30.9763Y-2.6183
X30.9856Y-4.011
X31.0354Y-0.9294
X31.037Y-3.9933
X31.0669Y-3.9648
X31.0945Y-0.2955
X31.1Y-0.9294
X31.146Y-0.2955
X31.1562Y-4.8723
X31.1562Y-5.6223
X31.1688Y-0.9312
X31.1694Y-2.3034
X31.194Y-0.2955
X31.246Y-0.2955
X31.2992Y-0.2955
X31.346Y-0.296
X31.396Y-0.2955
X31.4488Y-0.2955
X31.7047Y-1.4973
X31.7283Y-2.6223
X31.7323Y-5.6223
X31.7362Y-3.3742
T2
X29.45Y-0.1
X29.6614Y-0.2128
X29.6771Y-0.3112
X30.796Y-0.18
X30.9606Y-0.264
T3
X17.7Y-0.3
X17.7Y-0.4
X17.7Y-0.5
T0
M30
