%TF.GenerationSoftware,KiCad,Pcbnew,7.0.5*%
%TF.CreationDate,2023-06-10T21:14:49-04:00*%
%TF.ProjectId,keyboard_mk1,6b657962-6f61-4726-945f-6d6b312e6b69,rev?*%
%TF.SameCoordinates,Original*%
%TF.FileFunction,Soldermask,Bot*%
%TF.FilePolarity,Negative*%
%FSLAX46Y46*%
G04 Gerber Fmt 4.6, Leading zero omitted, Abs format (unit mm)*
G04 Created by KiCad (PCBNEW 7.0.5) date 2023-06-10 21:14:49*
%MOMM*%
%LPD*%
G01*
G04 APERTURE LIST*
G04 Aperture macros list*
%AMRoundRect*
0 Rectangle with rounded corners*
0 $1 Rounding radius*
0 $2 $3 $4 $5 $6 $7 $8 $9 X,Y pos of 4 corners*
0 Add a 4 corners polygon primitive as box body*
4,1,4,$2,$3,$4,$5,$6,$7,$8,$9,$2,$3,0*
0 Add four circle primitives for the rounded corners*
1,1,$1+$1,$2,$3*
1,1,$1+$1,$4,$5*
1,1,$1+$1,$6,$7*
1,1,$1+$1,$8,$9*
0 Add four rect primitives between the rounded corners*
20,1,$1+$1,$2,$3,$4,$5,0*
20,1,$1+$1,$4,$5,$6,$7,0*
20,1,$1+$1,$6,$7,$8,$9,0*
20,1,$1+$1,$8,$9,$2,$3,0*%
G04 Aperture macros list end*
%ADD10C,1.750000*%
%ADD11C,3.000000*%
%ADD12C,3.987800*%
%ADD13R,2.550000X2.500000*%
%ADD14C,3.048000*%
%ADD15R,2.500000X2.550000*%
%ADD16RoundRect,0.225000X-0.375000X0.225000X-0.375000X-0.225000X0.375000X-0.225000X0.375000X0.225000X0*%
%ADD17RoundRect,0.150000X0.150000X-0.875000X0.150000X0.875000X-0.150000X0.875000X-0.150000X-0.875000X0*%
%ADD18O,2.748280X1.998980*%
%ADD19O,1.016000X2.032000*%
%ADD20C,1.143000*%
%ADD21RoundRect,0.250000X-0.350000X-0.450000X0.350000X-0.450000X0.350000X0.450000X-0.350000X0.450000X0*%
G04 APERTURE END LIST*
D10*
%TO.C,125K105*%
X728980000Y-197643750D03*
D11*
X727710000Y-200183750D03*
D12*
X723900000Y-197643750D03*
D11*
X721360000Y-202723750D03*
D10*
X718820000Y-197643750D03*
D13*
X730985000Y-200183750D03*
X718058000Y-202723750D03*
%TD*%
D10*
%TO.C,K57*%
X655161250Y-121443750D03*
D11*
X653891250Y-123983750D03*
D12*
X650081250Y-121443750D03*
D11*
X647541250Y-126523750D03*
D10*
X645001250Y-121443750D03*
D13*
X657166250Y-123983750D03*
X644239250Y-126523750D03*
%TD*%
D10*
%TO.C,K18*%
X774223750Y-92868750D03*
D11*
X772953750Y-95408750D03*
D12*
X769143750Y-92868750D03*
D11*
X766603750Y-97948750D03*
D10*
X764063750Y-92868750D03*
D13*
X776228750Y-95408750D03*
X763301750Y-97948750D03*
%TD*%
D12*
%TO.C,2K106*%
X400081750Y-205898750D03*
D14*
X400081750Y-190658750D03*
D10*
X393223750Y-197643750D03*
D11*
X391953750Y-200183750D03*
D12*
X388143750Y-197643750D03*
D11*
X385603750Y-202723750D03*
D10*
X383063750Y-197643750D03*
D12*
X376205750Y-205898750D03*
D14*
X376205750Y-190658750D03*
D13*
X395228750Y-200183750D03*
X382301750Y-202723750D03*
%TD*%
D10*
%TO.C,K28*%
X540861250Y-92868750D03*
D11*
X539591250Y-95408750D03*
D12*
X535781250Y-92868750D03*
D11*
X533241250Y-97948750D03*
D10*
X530701250Y-92868750D03*
D13*
X542866250Y-95408750D03*
X529939250Y-97948750D03*
%TD*%
D12*
%TO.C,275K121*%
X721550500Y-186848750D03*
D14*
X721550500Y-171608750D03*
D10*
X714692500Y-178593750D03*
D11*
X713422500Y-181133750D03*
D12*
X709612500Y-178593750D03*
D11*
X707072500Y-183673750D03*
D10*
X704532500Y-178593750D03*
D12*
X697674500Y-186848750D03*
D14*
X697674500Y-171608750D03*
D13*
X716697500Y-181133750D03*
X703770500Y-183673750D03*
%TD*%
D10*
%TO.C,K21*%
X774223750Y-140493750D03*
D11*
X772953750Y-143033750D03*
D12*
X769143750Y-140493750D03*
D11*
X766603750Y-145573750D03*
D10*
X764063750Y-140493750D03*
D13*
X776228750Y-143033750D03*
X763301750Y-145573750D03*
%TD*%
D10*
%TO.C,K29*%
X559911250Y-92868750D03*
D11*
X558641250Y-95408750D03*
D12*
X554831250Y-92868750D03*
D11*
X552291250Y-97948750D03*
D10*
X549751250Y-92868750D03*
D13*
X561916250Y-95408750D03*
X548989250Y-97948750D03*
%TD*%
D10*
%TO.C,K67*%
X464661250Y-73818750D03*
D11*
X463391250Y-76358750D03*
D12*
X459581250Y-73818750D03*
D11*
X457041250Y-78898750D03*
D10*
X454501250Y-73818750D03*
D13*
X466666250Y-76358750D03*
X453739250Y-78898750D03*
%TD*%
D10*
%TO.C,K35*%
X693261250Y-92868750D03*
D11*
X691991250Y-95408750D03*
D12*
X688181250Y-92868750D03*
D11*
X685641250Y-97948750D03*
D10*
X683101250Y-92868750D03*
D13*
X695266250Y-95408750D03*
X682339250Y-97948750D03*
%TD*%
D10*
%TO.C,K42*%
X793273750Y-140493750D03*
D11*
X792003750Y-143033750D03*
D12*
X788193750Y-140493750D03*
D11*
X785653750Y-145573750D03*
D10*
X783113750Y-140493750D03*
D13*
X795278750Y-143033750D03*
X782351750Y-145573750D03*
%TD*%
D10*
%TO.C,K49*%
X502761250Y-121443750D03*
D11*
X501491250Y-123983750D03*
D12*
X497681250Y-121443750D03*
D11*
X495141250Y-126523750D03*
D10*
X492601250Y-121443750D03*
D13*
X504766250Y-123983750D03*
X491839250Y-126523750D03*
%TD*%
D10*
%TO.C,K44*%
X402748750Y-140493750D03*
D11*
X401478750Y-143033750D03*
D12*
X397668750Y-140493750D03*
D11*
X395128750Y-145573750D03*
D10*
X392588750Y-140493750D03*
D13*
X404753750Y-143033750D03*
X391826750Y-145573750D03*
%TD*%
D10*
%TO.C,K55*%
X617061250Y-121443750D03*
D11*
X615791250Y-123983750D03*
D12*
X611981250Y-121443750D03*
D11*
X609441250Y-126523750D03*
D10*
X606901250Y-121443750D03*
D13*
X619066250Y-123983750D03*
X606139250Y-126523750D03*
%TD*%
D10*
%TO.C,K95*%
X593248750Y-159543750D03*
D11*
X591978750Y-162083750D03*
D12*
X588168750Y-159543750D03*
D11*
X585628750Y-164623750D03*
D10*
X583088750Y-159543750D03*
D13*
X595253750Y-162083750D03*
X582326750Y-164623750D03*
%TD*%
D10*
%TO.C,K17*%
X755173750Y-92868750D03*
D11*
X753903750Y-95408750D03*
D12*
X750093750Y-92868750D03*
D11*
X747553750Y-97948750D03*
D10*
X745013750Y-92868750D03*
D13*
X757178750Y-95408750D03*
X744251750Y-97948750D03*
%TD*%
D10*
%TO.C,K53*%
X578961250Y-121443750D03*
D11*
X577691250Y-123983750D03*
D12*
X573881250Y-121443750D03*
D11*
X571341250Y-126523750D03*
D10*
X568801250Y-121443750D03*
D13*
X580966250Y-123983750D03*
X568039250Y-126523750D03*
%TD*%
D10*
%TO.C,K27*%
X521811250Y-92868750D03*
D11*
X520541250Y-95408750D03*
D12*
X516731250Y-92868750D03*
D11*
X514191250Y-97948750D03*
D10*
X511651250Y-92868750D03*
D13*
X523816250Y-95408750D03*
X510889250Y-97948750D03*
%TD*%
D10*
%TO.C,K59*%
X693261250Y-121443750D03*
D11*
X691991250Y-123983750D03*
D12*
X688181250Y-121443750D03*
D11*
X685641250Y-126523750D03*
D10*
X683101250Y-121443750D03*
D13*
X695266250Y-123983750D03*
X682339250Y-126523750D03*
%TD*%
D10*
%TO.C,K6*%
X521811250Y-73818750D03*
D11*
X520541250Y-76358750D03*
D12*
X516731250Y-73818750D03*
D11*
X514191250Y-78898750D03*
D10*
X511651250Y-73818750D03*
D13*
X523816250Y-76358750D03*
X510889250Y-78898750D03*
%TD*%
D10*
%TO.C,125K2*%
X409892500Y-92868750D03*
D11*
X408622500Y-95408750D03*
D12*
X404812500Y-92868750D03*
D11*
X402272500Y-97948750D03*
D10*
X399732500Y-92868750D03*
D13*
X411897500Y-95408750D03*
X398970500Y-97948750D03*
%TD*%
D10*
%TO.C,K52*%
X559911250Y-121443750D03*
D11*
X558641250Y-123983750D03*
D12*
X554831250Y-121443750D03*
D11*
X552291250Y-126523750D03*
D10*
X549751250Y-121443750D03*
D13*
X561916250Y-123983750D03*
X548989250Y-126523750D03*
%TD*%
D10*
%TO.C,K96*%
X612298750Y-159543750D03*
D11*
X611028750Y-162083750D03*
D12*
X607218750Y-159543750D03*
D11*
X604678750Y-164623750D03*
D10*
X602138750Y-159543750D03*
D13*
X614303750Y-162083750D03*
X601376750Y-164623750D03*
%TD*%
D10*
%TO.C,K69*%
X493236250Y-140493750D03*
D11*
X491966250Y-143033750D03*
D12*
X488156250Y-140493750D03*
D11*
X485616250Y-145573750D03*
D10*
X483076250Y-140493750D03*
D13*
X495241250Y-143033750D03*
X482314250Y-145573750D03*
%TD*%
D10*
%TO.C,K61*%
X755173750Y-197643750D03*
D11*
X753903750Y-200183750D03*
D12*
X750093750Y-197643750D03*
D11*
X747553750Y-202723750D03*
D10*
X745013750Y-197643750D03*
D13*
X757178750Y-200183750D03*
X744251750Y-202723750D03*
%TD*%
D10*
%TO.C,K14*%
X693261250Y-73818750D03*
D11*
X691991250Y-76358750D03*
D12*
X688181250Y-73818750D03*
D11*
X685641250Y-78898750D03*
D10*
X683101250Y-73818750D03*
D13*
X695266250Y-76358750D03*
X682339250Y-78898750D03*
%TD*%
D10*
%TO.C,K23*%
X402748750Y-121443750D03*
D11*
X401478750Y-123983750D03*
D12*
X397668750Y-121443750D03*
D11*
X395128750Y-126523750D03*
D10*
X392588750Y-121443750D03*
D13*
X404753750Y-123983750D03*
X391826750Y-126523750D03*
%TD*%
D10*
%TO.C,K92*%
X536098750Y-159543750D03*
D11*
X534828750Y-162083750D03*
D12*
X531018750Y-159543750D03*
D11*
X528478750Y-164623750D03*
D10*
X525938750Y-159543750D03*
D13*
X538103750Y-162083750D03*
X525176750Y-164623750D03*
%TD*%
D12*
%TO.C,225K110*%
X483425500Y-186848750D03*
D14*
X483425500Y-171608750D03*
D10*
X476567500Y-178593750D03*
D11*
X475297500Y-181133750D03*
D12*
X471487500Y-178593750D03*
D11*
X468947500Y-183673750D03*
D10*
X466407500Y-178593750D03*
D12*
X459549500Y-186848750D03*
D14*
X459549500Y-171608750D03*
D13*
X478572500Y-181133750D03*
X465645500Y-183673750D03*
%TD*%
D10*
%TO.C,K63*%
X793273750Y-197643750D03*
D11*
X792003750Y-200183750D03*
D12*
X788193750Y-197643750D03*
D11*
X785653750Y-202723750D03*
D10*
X783113750Y-197643750D03*
D13*
X795278750Y-200183750D03*
X782351750Y-202723750D03*
%TD*%
D10*
%TO.C,K94*%
X574198750Y-159543750D03*
D11*
X572928750Y-162083750D03*
D12*
X569118750Y-159543750D03*
D11*
X566578750Y-164623750D03*
D10*
X564038750Y-159543750D03*
D13*
X576203750Y-162083750D03*
X563276750Y-164623750D03*
%TD*%
D10*
%TO.C,125K102*%
X657542500Y-197643750D03*
D11*
X656272500Y-200183750D03*
D12*
X652462500Y-197643750D03*
D11*
X649922500Y-202723750D03*
D10*
X647382500Y-197643750D03*
D13*
X659547500Y-200183750D03*
X646620500Y-202723750D03*
%TD*%
D10*
%TO.C,15K81*%
X726598750Y-140493750D03*
D11*
X725328750Y-143033750D03*
D12*
X721518750Y-140493750D03*
D11*
X718978750Y-145573750D03*
D10*
X716438750Y-140493750D03*
D13*
X728603750Y-143033750D03*
X715676750Y-145573750D03*
%TD*%
D10*
%TO.C,K20*%
X755173750Y-140493750D03*
D11*
X753903750Y-143033750D03*
D12*
X750093750Y-140493750D03*
D11*
X747553750Y-145573750D03*
D10*
X745013750Y-140493750D03*
D13*
X757178750Y-143033750D03*
X744251750Y-145573750D03*
%TD*%
D10*
%TO.C,K80*%
X702786250Y-140493750D03*
D11*
X701516250Y-143033750D03*
D12*
X697706250Y-140493750D03*
D11*
X695166250Y-145573750D03*
D10*
X692626250Y-140493750D03*
D13*
X704791250Y-143033750D03*
X691864250Y-145573750D03*
%TD*%
D10*
%TO.C,K72*%
X550386250Y-140493750D03*
D11*
X549116250Y-143033750D03*
D12*
X545306250Y-140493750D03*
D11*
X542766250Y-145573750D03*
D10*
X540226250Y-140493750D03*
D13*
X552391250Y-143033750D03*
X539464250Y-145573750D03*
%TD*%
D10*
%TO.C,K77*%
X645636250Y-140493750D03*
D11*
X644366250Y-143033750D03*
D12*
X640556250Y-140493750D03*
D11*
X638016250Y-145573750D03*
D10*
X635476250Y-140493750D03*
D13*
X647641250Y-143033750D03*
X634714250Y-145573750D03*
%TD*%
D10*
%TO.C,K93*%
X555148750Y-159543750D03*
D11*
X553878750Y-162083750D03*
D12*
X550068750Y-159543750D03*
D11*
X547528750Y-164623750D03*
D10*
X544988750Y-159543750D03*
D13*
X557153750Y-162083750D03*
X544226750Y-164623750D03*
%TD*%
D10*
%TO.C,K33*%
X645636250Y-92868750D03*
D11*
X644366250Y-95408750D03*
D12*
X640556250Y-92868750D03*
D11*
X638016250Y-97948750D03*
D10*
X635476250Y-92868750D03*
D13*
X647641250Y-95408750D03*
X634714250Y-97948750D03*
%TD*%
D10*
%TO.C,K116*%
X602773750Y-178593750D03*
D11*
X601503750Y-181133750D03*
D12*
X597693750Y-178593750D03*
D11*
X595153750Y-183673750D03*
D10*
X592613750Y-178593750D03*
D13*
X604778750Y-181133750D03*
X591851750Y-183673750D03*
%TD*%
D10*
%TO.C,K54*%
X598011250Y-121443750D03*
D11*
X596741250Y-123983750D03*
D12*
X592931250Y-121443750D03*
D11*
X590391250Y-126523750D03*
D10*
X587851250Y-121443750D03*
D13*
X600016250Y-123983750D03*
X587089250Y-126523750D03*
%TD*%
D10*
%TO.C,K76*%
X626586250Y-140493750D03*
D11*
X625316250Y-143033750D03*
D12*
X621506250Y-140493750D03*
D11*
X618966250Y-145573750D03*
D10*
X616426250Y-140493750D03*
D13*
X628591250Y-143033750D03*
X615664250Y-145573750D03*
%TD*%
D10*
%TO.C,K16*%
X731361250Y-73818750D03*
D11*
X730091250Y-76358750D03*
D12*
X726281250Y-73818750D03*
D11*
X723741250Y-78898750D03*
D10*
X721201250Y-73818750D03*
D13*
X733366250Y-76358750D03*
X720439250Y-78898750D03*
%TD*%
D10*
%TO.C,K26*%
X502761250Y-92868750D03*
D11*
X501491250Y-95408750D03*
D12*
X497681250Y-92868750D03*
D11*
X495141250Y-97948750D03*
D10*
X492601250Y-92868750D03*
D13*
X504766250Y-95408750D03*
X491839250Y-97948750D03*
%TD*%
D10*
%TO.C,125K83*%
X490855000Y-197643750D03*
D11*
X489585000Y-200183750D03*
D12*
X485775000Y-197643750D03*
D11*
X483235000Y-202723750D03*
D10*
X480695000Y-197643750D03*
D13*
X492860000Y-200183750D03*
X479933000Y-202723750D03*
%TD*%
D10*
%TO.C,K74*%
X588486250Y-140493750D03*
D11*
X587216250Y-143033750D03*
D12*
X583406250Y-140493750D03*
D11*
X580866250Y-145573750D03*
D10*
X578326250Y-140493750D03*
D13*
X590491250Y-143033750D03*
X577564250Y-145573750D03*
%TD*%
D10*
%TO.C,K9*%
X588486250Y-73818750D03*
D11*
X587216250Y-76358750D03*
D12*
X583406250Y-73818750D03*
D11*
X580866250Y-78898750D03*
D10*
X578326250Y-73818750D03*
D13*
X590491250Y-76358750D03*
X577564250Y-78898750D03*
%TD*%
D10*
%TO.C,K19*%
X793273750Y-92868750D03*
D11*
X792003750Y-95408750D03*
D12*
X788193750Y-92868750D03*
D11*
X785653750Y-97948750D03*
D10*
X783113750Y-92868750D03*
D13*
X795278750Y-95408750D03*
X782351750Y-97948750D03*
%TD*%
D12*
%TO.C,2K88*%
X444023750Y-176180750D03*
D14*
X428783750Y-176180750D03*
D10*
X435768750Y-183038750D03*
D11*
X438308750Y-184308750D03*
D12*
X435768750Y-188118750D03*
D11*
X440848750Y-190658750D03*
D10*
X435768750Y-193198750D03*
D12*
X444023750Y-200056750D03*
D14*
X428783750Y-200056750D03*
D15*
X438308750Y-181033750D03*
X440848750Y-193960750D03*
%TD*%
D10*
%TO.C,K12*%
X645636250Y-73818750D03*
D11*
X644366250Y-76358750D03*
D12*
X640556250Y-73818750D03*
D11*
X638016250Y-78898750D03*
D10*
X635476250Y-73818750D03*
D13*
X647641250Y-76358750D03*
X634714250Y-78898750D03*
%TD*%
D10*
%TO.C,K70*%
X512286250Y-140493750D03*
D11*
X511016250Y-143033750D03*
D12*
X507206250Y-140493750D03*
D11*
X504666250Y-145573750D03*
D10*
X502126250Y-140493750D03*
D13*
X514291250Y-143033750D03*
X501364250Y-145573750D03*
%TD*%
D10*
%TO.C,K79*%
X683736250Y-140493750D03*
D11*
X682466250Y-143033750D03*
D12*
X678656250Y-140493750D03*
D11*
X676116250Y-145573750D03*
D10*
X673576250Y-140493750D03*
D13*
X685741250Y-143033750D03*
X672814250Y-145573750D03*
%TD*%
D10*
%TO.C,K34*%
X674211250Y-92868750D03*
D11*
X672941250Y-95408750D03*
D12*
X669131250Y-92868750D03*
D11*
X666591250Y-97948750D03*
D10*
X664051250Y-92868750D03*
D13*
X676216250Y-95408750D03*
X663289250Y-97948750D03*
%TD*%
D10*
%TO.C,K99*%
X669448750Y-159543750D03*
D11*
X668178750Y-162083750D03*
D12*
X664368750Y-159543750D03*
D11*
X661828750Y-164623750D03*
D10*
X659288750Y-159543750D03*
D13*
X671453750Y-162083750D03*
X658526750Y-164623750D03*
%TD*%
D10*
%TO.C,125K103*%
X681355000Y-197643750D03*
D11*
X680085000Y-200183750D03*
D12*
X676275000Y-197643750D03*
D11*
X673735000Y-202723750D03*
D10*
X671195000Y-197643750D03*
D13*
X683360000Y-200183750D03*
X670433000Y-202723750D03*
%TD*%
D10*
%TO.C,K100*%
X688498750Y-159543750D03*
D11*
X687228750Y-162083750D03*
D12*
X683418750Y-159543750D03*
D11*
X680878750Y-164623750D03*
D10*
X678338750Y-159543750D03*
D13*
X690503750Y-162083750D03*
X677576750Y-164623750D03*
%TD*%
D10*
%TO.C,K22*%
X383698750Y-121443750D03*
D11*
X382428750Y-123983750D03*
D12*
X378618750Y-121443750D03*
D11*
X376078750Y-126523750D03*
D10*
X373538750Y-121443750D03*
D13*
X385703750Y-123983750D03*
X372776750Y-126523750D03*
%TD*%
D10*
%TO.C,K64*%
X383698750Y-159543750D03*
D11*
X382428750Y-162083750D03*
D12*
X378618750Y-159543750D03*
D11*
X376078750Y-164623750D03*
D10*
X373538750Y-159543750D03*
D13*
X385703750Y-162083750D03*
X372776750Y-164623750D03*
%TD*%
D10*
%TO.C,K118*%
X640873750Y-178593750D03*
D11*
X639603750Y-181133750D03*
D12*
X635793750Y-178593750D03*
D11*
X633253750Y-183673750D03*
D10*
X630713750Y-178593750D03*
D13*
X642878750Y-181133750D03*
X629951750Y-183673750D03*
%TD*%
D10*
%TO.C,K75*%
X607536250Y-140493750D03*
D11*
X606266250Y-143033750D03*
D12*
X602456250Y-140493750D03*
D11*
X599916250Y-145573750D03*
D10*
X597376250Y-140493750D03*
D13*
X609541250Y-143033750D03*
X596614250Y-145573750D03*
%TD*%
D12*
%TO.C,625K109*%
X631024900Y-205898750D03*
D14*
X631024900Y-190658750D03*
D10*
X586105000Y-197643750D03*
D11*
X584835000Y-200183750D03*
D12*
X581025000Y-197643750D03*
D11*
X578485000Y-202723750D03*
D10*
X575945000Y-197643750D03*
D12*
X531025100Y-205898750D03*
D14*
X531025100Y-190658750D03*
D13*
X588110000Y-200183750D03*
X575183000Y-202723750D03*
%TD*%
D10*
%TO.C,K85*%
X383698750Y-178593750D03*
D11*
X382428750Y-181133750D03*
D12*
X378618750Y-178593750D03*
D11*
X376078750Y-183673750D03*
D10*
X373538750Y-178593750D03*
D13*
X385703750Y-181133750D03*
X372776750Y-183673750D03*
%TD*%
D10*
%TO.C,K40*%
X793273750Y-121443750D03*
D11*
X792003750Y-123983750D03*
D12*
X788193750Y-121443750D03*
D11*
X785653750Y-126523750D03*
D10*
X783113750Y-121443750D03*
D13*
X795278750Y-123983750D03*
X782351750Y-126523750D03*
%TD*%
D10*
%TO.C,K117*%
X621823750Y-178593750D03*
D11*
X620553750Y-181133750D03*
D12*
X616743750Y-178593750D03*
D11*
X614203750Y-183673750D03*
D10*
X611663750Y-178593750D03*
D13*
X623828750Y-181133750D03*
X610901750Y-183673750D03*
%TD*%
D10*
%TO.C,K15*%
X712311250Y-73818750D03*
D11*
X711041250Y-76358750D03*
D12*
X707231250Y-73818750D03*
D11*
X704691250Y-78898750D03*
D10*
X702151250Y-73818750D03*
D13*
X714316250Y-76358750D03*
X701389250Y-78898750D03*
%TD*%
D10*
%TO.C,K66*%
X421798750Y-159543750D03*
D11*
X420528750Y-162083750D03*
D12*
X416718750Y-159543750D03*
D11*
X414178750Y-164623750D03*
D10*
X411638750Y-159543750D03*
D13*
X423803750Y-162083750D03*
X410876750Y-164623750D03*
%TD*%
D10*
%TO.C,K24*%
X421798750Y-121443750D03*
D11*
X420528750Y-123983750D03*
D12*
X416718750Y-121443750D03*
D11*
X414178750Y-126523750D03*
D10*
X411638750Y-121443750D03*
D13*
X423803750Y-123983750D03*
X410876750Y-126523750D03*
%TD*%
D10*
%TO.C,K87*%
X421798750Y-178593750D03*
D11*
X420528750Y-181133750D03*
D12*
X416718750Y-178593750D03*
D11*
X414178750Y-183673750D03*
D10*
X411638750Y-178593750D03*
D13*
X423803750Y-181133750D03*
X410876750Y-183673750D03*
%TD*%
D10*
%TO.C,K32*%
X626586250Y-92868750D03*
D11*
X625316250Y-95408750D03*
D12*
X621506250Y-92868750D03*
D11*
X618966250Y-97948750D03*
D10*
X616426250Y-92868750D03*
D13*
X628591250Y-95408750D03*
X615664250Y-97948750D03*
%TD*%
D10*
%TO.C,K111*%
X507523750Y-178593750D03*
D11*
X506253750Y-181133750D03*
D12*
X502443750Y-178593750D03*
D11*
X499903750Y-183673750D03*
D10*
X497363750Y-178593750D03*
D13*
X509528750Y-181133750D03*
X496601750Y-183673750D03*
%TD*%
D10*
%TO.C,K31*%
X607536250Y-92868750D03*
D11*
X606266250Y-95408750D03*
D12*
X602456250Y-92868750D03*
D11*
X599916250Y-97948750D03*
D10*
X597376250Y-92868750D03*
D13*
X609541250Y-95408750D03*
X596614250Y-97948750D03*
%TD*%
D10*
%TO.C,125K82*%
X467042500Y-197643750D03*
D11*
X465772500Y-200183750D03*
D12*
X461962500Y-197643750D03*
D11*
X459422500Y-202723750D03*
D10*
X456882500Y-197643750D03*
D13*
X469047500Y-200183750D03*
X456120500Y-202723750D03*
%TD*%
D10*
%TO.C,125K1*%
X386080000Y-92868750D03*
D11*
X384810000Y-95408750D03*
D12*
X381000000Y-92868750D03*
D11*
X378460000Y-97948750D03*
D10*
X375920000Y-92868750D03*
D13*
X388085000Y-95408750D03*
X375158000Y-97948750D03*
%TD*%
D10*
%TO.C,K56*%
X636111250Y-121443750D03*
D11*
X634841250Y-123983750D03*
D12*
X631031250Y-121443750D03*
D11*
X628491250Y-126523750D03*
D10*
X625951250Y-121443750D03*
D13*
X638116250Y-123983750D03*
X625189250Y-126523750D03*
%TD*%
D12*
%TO.C,225K101*%
X726313000Y-167798750D03*
D14*
X726313000Y-152558750D03*
D10*
X719455000Y-159543750D03*
D11*
X718185000Y-162083750D03*
D12*
X714375000Y-159543750D03*
D11*
X711835000Y-164623750D03*
D10*
X709295000Y-159543750D03*
D12*
X702437000Y-167798750D03*
D14*
X702437000Y-152558750D03*
D13*
X721460000Y-162083750D03*
X708533000Y-164623750D03*
%TD*%
D10*
%TO.C,K113*%
X545623750Y-178593750D03*
D11*
X544353750Y-181133750D03*
D12*
X540543750Y-178593750D03*
D11*
X538003750Y-183673750D03*
D10*
X535463750Y-178593750D03*
D13*
X547628750Y-181133750D03*
X534701750Y-183673750D03*
%TD*%
D10*
%TO.C,K50*%
X521811250Y-121443750D03*
D11*
X520541250Y-123983750D03*
D12*
X516731250Y-121443750D03*
D11*
X514191250Y-126523750D03*
D10*
X511651250Y-121443750D03*
D13*
X523816250Y-123983750D03*
X510889250Y-126523750D03*
%TD*%
D10*
%TO.C,K47*%
X464661250Y-121443750D03*
D11*
X463391250Y-123983750D03*
D12*
X459581250Y-121443750D03*
D11*
X457041250Y-126523750D03*
D10*
X454501250Y-121443750D03*
D13*
X466666250Y-123983750D03*
X453739250Y-126523750D03*
%TD*%
D10*
%TO.C,K8*%
X559911250Y-73818750D03*
D11*
X558641250Y-76358750D03*
D12*
X554831250Y-73818750D03*
D11*
X552291250Y-78898750D03*
D10*
X549751250Y-73818750D03*
D13*
X561916250Y-76358750D03*
X548989250Y-78898750D03*
%TD*%
D10*
%TO.C,K90*%
X497998750Y-159543750D03*
D11*
X496728750Y-162083750D03*
D12*
X492918750Y-159543750D03*
D11*
X490378750Y-164623750D03*
D10*
X487838750Y-159543750D03*
D13*
X500003750Y-162083750D03*
X487076750Y-164623750D03*
%TD*%
D10*
%TO.C,K62*%
X774223750Y-197643750D03*
D11*
X772953750Y-200183750D03*
D12*
X769143750Y-197643750D03*
D11*
X766603750Y-202723750D03*
D10*
X764063750Y-197643750D03*
D13*
X776228750Y-200183750D03*
X763301750Y-202723750D03*
%TD*%
D10*
%TO.C,K119*%
X659923750Y-178593750D03*
D11*
X658653750Y-181133750D03*
D12*
X654843750Y-178593750D03*
D11*
X652303750Y-183673750D03*
D10*
X649763750Y-178593750D03*
D13*
X661928750Y-181133750D03*
X649001750Y-183673750D03*
%TD*%
D10*
%TO.C,K36*%
X712311250Y-92868750D03*
D11*
X711041250Y-95408750D03*
D12*
X707231250Y-92868750D03*
D11*
X704691250Y-97948750D03*
D10*
X702151250Y-92868750D03*
D13*
X714316250Y-95408750D03*
X701389250Y-97948750D03*
%TD*%
D10*
%TO.C,K25*%
X440848750Y-121443750D03*
D11*
X439578750Y-123983750D03*
D12*
X435768750Y-121443750D03*
D11*
X433228750Y-126523750D03*
D10*
X430688750Y-121443750D03*
D13*
X442853750Y-123983750D03*
X429926750Y-126523750D03*
%TD*%
D10*
%TO.C,125K3*%
X433705000Y-92868750D03*
D11*
X432435000Y-95408750D03*
D12*
X428625000Y-92868750D03*
D11*
X426085000Y-97948750D03*
D10*
X423545000Y-92868750D03*
D13*
X435710000Y-95408750D03*
X422783000Y-97948750D03*
%TD*%
D10*
%TO.C,K97*%
X631348750Y-159543750D03*
D11*
X630078750Y-162083750D03*
D12*
X626268750Y-159543750D03*
D11*
X623728750Y-164623750D03*
D10*
X621188750Y-159543750D03*
D13*
X633353750Y-162083750D03*
X620426750Y-164623750D03*
%TD*%
D10*
%TO.C,K73*%
X569436250Y-140493750D03*
D11*
X568166250Y-143033750D03*
D12*
X564356250Y-140493750D03*
D11*
X561816250Y-145573750D03*
D10*
X559276250Y-140493750D03*
D13*
X571441250Y-143033750D03*
X558514250Y-145573750D03*
%TD*%
D10*
%TO.C,K65*%
X402748750Y-159543750D03*
D11*
X401478750Y-162083750D03*
D12*
X397668750Y-159543750D03*
D11*
X395128750Y-164623750D03*
D10*
X392588750Y-159543750D03*
D13*
X404753750Y-162083750D03*
X391826750Y-164623750D03*
%TD*%
D10*
%TO.C,125K84*%
X514667500Y-197643750D03*
D11*
X513397500Y-200183750D03*
D12*
X509587500Y-197643750D03*
D11*
X507047500Y-202723750D03*
D10*
X504507500Y-197643750D03*
D13*
X516672500Y-200183750D03*
X503745500Y-202723750D03*
%TD*%
D10*
%TO.C,K91*%
X517048750Y-159543750D03*
D11*
X515778750Y-162083750D03*
D12*
X511968750Y-159543750D03*
D11*
X509428750Y-164623750D03*
D10*
X506888750Y-159543750D03*
D13*
X519053750Y-162083750D03*
X506126750Y-164623750D03*
%TD*%
D10*
%TO.C,125K104*%
X705167500Y-197643750D03*
D11*
X703897500Y-200183750D03*
D12*
X700087500Y-197643750D03*
D11*
X697547500Y-202723750D03*
D10*
X695007500Y-197643750D03*
D13*
X707172500Y-200183750D03*
X694245500Y-202723750D03*
%TD*%
D10*
%TO.C,K11*%
X626586250Y-73818750D03*
D11*
X625316250Y-76358750D03*
D12*
X621506250Y-73818750D03*
D11*
X618966250Y-78898750D03*
D10*
X616426250Y-73818750D03*
D13*
X628591250Y-76358750D03*
X615664250Y-78898750D03*
%TD*%
D10*
%TO.C,K48*%
X483711250Y-121443750D03*
D11*
X482441250Y-123983750D03*
D12*
X478631250Y-121443750D03*
D11*
X476091250Y-126523750D03*
D10*
X473551250Y-121443750D03*
D13*
X485716250Y-123983750D03*
X472789250Y-126523750D03*
%TD*%
D10*
%TO.C,K120*%
X678973750Y-178593750D03*
D11*
X677703750Y-181133750D03*
D12*
X673893750Y-178593750D03*
D11*
X671353750Y-183673750D03*
D10*
X668813750Y-178593750D03*
D13*
X680978750Y-181133750D03*
X668051750Y-183673750D03*
%TD*%
D10*
%TO.C,K45*%
X421798750Y-140493750D03*
D11*
X420528750Y-143033750D03*
D12*
X416718750Y-140493750D03*
D11*
X414178750Y-145573750D03*
D10*
X411638750Y-140493750D03*
D13*
X423803750Y-143033750D03*
X410876750Y-145573750D03*
%TD*%
D10*
%TO.C,K71*%
X531336250Y-140493750D03*
D11*
X530066250Y-143033750D03*
D12*
X526256250Y-140493750D03*
D11*
X523716250Y-145573750D03*
D10*
X521176250Y-140493750D03*
D13*
X533341250Y-143033750D03*
X520414250Y-145573750D03*
%TD*%
D10*
%TO.C,K43*%
X383698750Y-140493750D03*
D11*
X382428750Y-143033750D03*
D12*
X378618750Y-140493750D03*
D11*
X376078750Y-145573750D03*
D10*
X373538750Y-140493750D03*
D13*
X385703750Y-143033750D03*
X372776750Y-145573750D03*
%TD*%
D12*
%TO.C,2K46*%
X444023750Y-138080750D03*
D14*
X428783750Y-138080750D03*
D10*
X435768750Y-144938750D03*
D11*
X438308750Y-146208750D03*
D12*
X435768750Y-150018750D03*
D11*
X440848750Y-152558750D03*
D10*
X435768750Y-155098750D03*
D12*
X444023750Y-161956750D03*
D14*
X428783750Y-161956750D03*
D15*
X438308750Y-142933750D03*
X440848750Y-155860750D03*
%TD*%
D10*
%TO.C,K7*%
X540861250Y-73818750D03*
D11*
X539591250Y-76358750D03*
D12*
X535781250Y-73818750D03*
D11*
X533241250Y-78898750D03*
D10*
X530701250Y-73818750D03*
D13*
X542866250Y-76358750D03*
X529939250Y-78898750D03*
%TD*%
D10*
%TO.C,K78*%
X664686250Y-140493750D03*
D11*
X663416250Y-143033750D03*
D12*
X659606250Y-140493750D03*
D11*
X657066250Y-145573750D03*
D10*
X654526250Y-140493750D03*
D13*
X666691250Y-143033750D03*
X653764250Y-145573750D03*
%TD*%
D10*
%TO.C,K114*%
X564673750Y-178593750D03*
D11*
X563403750Y-181133750D03*
D12*
X559593750Y-178593750D03*
D11*
X557053750Y-183673750D03*
D10*
X554513750Y-178593750D03*
D13*
X566678750Y-181133750D03*
X553751750Y-183673750D03*
%TD*%
D10*
%TO.C,K41*%
X774223750Y-178593750D03*
D11*
X772953750Y-181133750D03*
D12*
X769143750Y-178593750D03*
D11*
X766603750Y-183673750D03*
D10*
X764063750Y-178593750D03*
D13*
X776228750Y-181133750D03*
X763301750Y-183673750D03*
%TD*%
D10*
%TO.C,K108*%
X421798750Y-197643750D03*
D11*
X420528750Y-200183750D03*
D12*
X416718750Y-197643750D03*
D11*
X414178750Y-202723750D03*
D10*
X411638750Y-197643750D03*
D13*
X423803750Y-200183750D03*
X410876750Y-202723750D03*
%TD*%
D10*
%TO.C,K10*%
X607536250Y-73818750D03*
D11*
X606266250Y-76358750D03*
D12*
X602456250Y-73818750D03*
D11*
X599916250Y-78898750D03*
D10*
X597376250Y-73818750D03*
D13*
X609541250Y-76358750D03*
X596614250Y-78898750D03*
%TD*%
D10*
%TO.C,K13*%
X674211250Y-73818750D03*
D11*
X672941250Y-76358750D03*
D12*
X669131250Y-73818750D03*
D11*
X666591250Y-78898750D03*
D10*
X664051250Y-73818750D03*
D13*
X676216250Y-76358750D03*
X663289250Y-78898750D03*
%TD*%
D12*
%TO.C,2K60*%
X728694250Y-129698750D03*
D14*
X728694250Y-114458750D03*
D10*
X721836250Y-121443750D03*
D11*
X720566250Y-123983750D03*
D12*
X716756250Y-121443750D03*
D11*
X714216250Y-126523750D03*
D10*
X711676250Y-121443750D03*
D12*
X704818250Y-129698750D03*
D14*
X704818250Y-114458750D03*
D13*
X723841250Y-123983750D03*
X710914250Y-126523750D03*
%TD*%
D10*
%TO.C,K115*%
X583723750Y-178593750D03*
D11*
X582453750Y-181133750D03*
D12*
X578643750Y-178593750D03*
D11*
X576103750Y-183673750D03*
D10*
X573563750Y-178593750D03*
D13*
X585728750Y-181133750D03*
X572801750Y-183673750D03*
%TD*%
D10*
%TO.C,K98*%
X650398750Y-159543750D03*
D11*
X649128750Y-162083750D03*
D12*
X645318750Y-159543750D03*
D11*
X642778750Y-164623750D03*
D10*
X640238750Y-159543750D03*
D13*
X652403750Y-162083750D03*
X639476750Y-164623750D03*
%TD*%
D10*
%TO.C,K58*%
X674211250Y-121443750D03*
D11*
X672941250Y-123983750D03*
D12*
X669131250Y-121443750D03*
D11*
X666591250Y-126523750D03*
D10*
X664051250Y-121443750D03*
D13*
X676216250Y-123983750D03*
X663289250Y-126523750D03*
%TD*%
D10*
%TO.C,15K68*%
X469423750Y-140493750D03*
D11*
X468153750Y-143033750D03*
D12*
X464343750Y-140493750D03*
D11*
X461803750Y-145573750D03*
D10*
X459263750Y-140493750D03*
D13*
X471428750Y-143033750D03*
X458501750Y-145573750D03*
%TD*%
D10*
%TO.C,K37*%
X731361250Y-92868750D03*
D11*
X730091250Y-95408750D03*
D12*
X726281250Y-92868750D03*
D11*
X723741250Y-97948750D03*
D10*
X721201250Y-92868750D03*
D13*
X733366250Y-95408750D03*
X720439250Y-97948750D03*
%TD*%
D10*
%TO.C,K112*%
X526632500Y-178435000D03*
D11*
X525362500Y-180975000D03*
D12*
X521552500Y-178435000D03*
D11*
X519012500Y-183515000D03*
D10*
X516472500Y-178435000D03*
D13*
X528637500Y-180975000D03*
X515710500Y-183515000D03*
%TD*%
D10*
%TO.C,K30*%
X588486250Y-92868750D03*
D11*
X587216250Y-95408750D03*
D12*
X583406250Y-92868750D03*
D11*
X580866250Y-97948750D03*
D10*
X578326250Y-92868750D03*
D13*
X590491250Y-95408750D03*
X577564250Y-97948750D03*
%TD*%
D10*
%TO.C,K86*%
X402748750Y-178593750D03*
D11*
X401478750Y-181133750D03*
D12*
X397668750Y-178593750D03*
D11*
X395128750Y-183673750D03*
D10*
X392588750Y-178593750D03*
D13*
X404753750Y-181133750D03*
X391826750Y-183673750D03*
%TD*%
D10*
%TO.C,K5*%
X502761250Y-73818750D03*
D11*
X501491250Y-76358750D03*
D12*
X497681250Y-73818750D03*
D11*
X495141250Y-78898750D03*
D10*
X492601250Y-73818750D03*
D13*
X504766250Y-76358750D03*
X491839250Y-78898750D03*
%TD*%
D10*
%TO.C,175K89*%
X471805000Y-159543750D03*
D11*
X470535000Y-162083750D03*
D12*
X466725000Y-159543750D03*
D11*
X464185000Y-164623750D03*
D10*
X461645000Y-159543750D03*
D13*
X473810000Y-162083750D03*
X460883000Y-164623750D03*
%TD*%
D10*
%TO.C,K38*%
X755173750Y-121443750D03*
D11*
X753903750Y-123983750D03*
D12*
X750093750Y-121443750D03*
D11*
X747553750Y-126523750D03*
D10*
X745013750Y-121443750D03*
D13*
X757178750Y-123983750D03*
X744251750Y-126523750D03*
%TD*%
D10*
%TO.C,K4*%
X436086250Y-73818750D03*
D11*
X434816250Y-76358750D03*
D12*
X431006250Y-73818750D03*
D11*
X428466250Y-78898750D03*
D10*
X425926250Y-73818750D03*
D13*
X438091250Y-76358750D03*
X425164250Y-78898750D03*
%TD*%
D10*
%TO.C,K39*%
X774223750Y-121443750D03*
D11*
X772953750Y-123983750D03*
D12*
X769143750Y-121443750D03*
D11*
X766603750Y-126523750D03*
D10*
X764063750Y-121443750D03*
D13*
X776228750Y-123983750D03*
X763301750Y-126523750D03*
%TD*%
D10*
%TO.C,K107*%
X464661250Y-92868750D03*
D11*
X463391250Y-95408750D03*
D12*
X459581250Y-92868750D03*
D11*
X457041250Y-97948750D03*
D10*
X454501250Y-92868750D03*
D13*
X466666250Y-95408750D03*
X453739250Y-97948750D03*
%TD*%
D10*
%TO.C,K51*%
X540861250Y-121443750D03*
D11*
X539591250Y-123983750D03*
D12*
X535781250Y-121443750D03*
D11*
X533241250Y-126523750D03*
D10*
X530701250Y-121443750D03*
D13*
X542866250Y-123983750D03*
X529939250Y-126523750D03*
%TD*%
D16*
%TO.C,D10*%
X404812500Y-171500000D03*
X404812500Y-174800000D03*
%TD*%
%TO.C,D77*%
X628650000Y-66725000D03*
X628650000Y-70025000D03*
%TD*%
%TO.C,D108*%
X733425000Y-135781250D03*
X733425000Y-139081250D03*
%TD*%
%TO.C,D47*%
X538162500Y-152450000D03*
X538162500Y-155750000D03*
%TD*%
%TO.C,D117*%
X776287500Y-190550000D03*
X776287500Y-193850000D03*
%TD*%
%TO.C,D16*%
X423862500Y-152450000D03*
X423862500Y-155750000D03*
%TD*%
%TO.C,D85*%
X683418750Y-190550000D03*
X683418750Y-193850000D03*
%TD*%
%TO.C,D30*%
X504825000Y-85775000D03*
X504825000Y-89075000D03*
%TD*%
%TO.C,D102*%
X695325000Y-114350000D03*
X695325000Y-117650000D03*
%TD*%
%TO.C,D20*%
X438150000Y-133400000D03*
X438150000Y-136700000D03*
%TD*%
%TO.C,D73*%
X633412500Y-152450000D03*
X633412500Y-155750000D03*
%TD*%
%TO.C,D92*%
X695325000Y-66725000D03*
X695325000Y-70025000D03*
%TD*%
%TO.C,D100*%
X731043750Y-190550000D03*
X731043750Y-193850000D03*
%TD*%
%TO.C,D2*%
X411956250Y-85775000D03*
X411956250Y-89075000D03*
%TD*%
%TO.C,D70*%
X614362500Y-152450000D03*
X614362500Y-155750000D03*
%TD*%
%TO.C,D78*%
X647700000Y-66725000D03*
X647700000Y-70025000D03*
%TD*%
%TO.C,D8*%
X385762500Y-171500000D03*
X385762500Y-174800000D03*
%TD*%
D17*
%TO.C,U2*%
X792385000Y-67450000D03*
X791115000Y-67450000D03*
X789845000Y-67450000D03*
X788575000Y-67450000D03*
X787305000Y-67450000D03*
X786035000Y-67450000D03*
X784765000Y-67450000D03*
X783495000Y-67450000D03*
X782225000Y-67450000D03*
X780955000Y-67450000D03*
X779685000Y-67450000D03*
X778415000Y-67450000D03*
X778415000Y-58150000D03*
X779685000Y-58150000D03*
X780955000Y-58150000D03*
X782225000Y-58150000D03*
X783495000Y-58150000D03*
X784765000Y-58150000D03*
X786035000Y-58150000D03*
X787305000Y-58150000D03*
X788575000Y-58150000D03*
X789845000Y-58150000D03*
X791115000Y-58150000D03*
X792385000Y-58150000D03*
%TD*%
D16*
%TO.C,D43*%
X542925000Y-66725000D03*
X542925000Y-70025000D03*
%TD*%
%TO.C,D107*%
X723900000Y-114350000D03*
X723900000Y-117650000D03*
%TD*%
%TO.C,D34*%
X509587500Y-171500000D03*
X509587500Y-174800000D03*
%TD*%
%TO.C,D95*%
X685800000Y-133400000D03*
X685800000Y-136700000D03*
%TD*%
%TO.C,D49*%
X566737500Y-171500000D03*
X566737500Y-174800000D03*
%TD*%
%TO.C,D64*%
X590550000Y-133400000D03*
X590550000Y-136700000D03*
%TD*%
%TO.C,D39*%
X514350000Y-133400000D03*
X514350000Y-136700000D03*
%TD*%
%TO.C,D59*%
X576262500Y-152450000D03*
X576262500Y-155750000D03*
%TD*%
%TO.C,D5*%
X385762500Y-114350000D03*
X385762500Y-117650000D03*
%TD*%
%TO.C,D61*%
X588168750Y-190550000D03*
X588168750Y-193850000D03*
%TD*%
%TO.C,D82*%
X652462500Y-152450000D03*
X652462500Y-155750000D03*
%TD*%
%TO.C,D33*%
X500062500Y-152450000D03*
X500062500Y-155750000D03*
%TD*%
%TO.C,D94*%
X676275000Y-114350000D03*
X676275000Y-117650000D03*
%TD*%
%TO.C,D25*%
X471487500Y-133400000D03*
X471487500Y-136700000D03*
%TD*%
%TO.C,D22*%
X466725000Y-66725000D03*
X466725000Y-70025000D03*
%TD*%
%TO.C,D121*%
X795337500Y-85775000D03*
X795337500Y-89075000D03*
%TD*%
%TO.C,D101*%
X707231250Y-135781250D03*
X707231250Y-139081250D03*
%TD*%
%TO.C,D27*%
X478631250Y-171500000D03*
X478631250Y-174800000D03*
%TD*%
%TO.C,D89*%
X657225000Y-114350000D03*
X657225000Y-117650000D03*
%TD*%
%TO.C,D56*%
X590550000Y-85775000D03*
X590550000Y-89075000D03*
%TD*%
%TO.C,D62*%
X604837500Y-171500000D03*
X604837500Y-174800000D03*
%TD*%
%TO.C,D15*%
X423862500Y-133400000D03*
X423862500Y-136700000D03*
%TD*%
%TO.C,D120*%
X795337500Y-114350000D03*
X795337500Y-117650000D03*
%TD*%
%TO.C,D35*%
X492918750Y-190550000D03*
X492918750Y-193850000D03*
%TD*%
%TO.C,D96*%
X690562500Y-152450000D03*
X690562500Y-155750000D03*
%TD*%
%TO.C,D40*%
X504825000Y-114350000D03*
X504825000Y-117650000D03*
%TD*%
%TO.C,D65*%
X581025000Y-114350000D03*
X581025000Y-117650000D03*
%TD*%
%TO.C,D58*%
X571500000Y-133400000D03*
X571500000Y-136700000D03*
%TD*%
%TO.C,D84*%
X659606250Y-190550000D03*
X659606250Y-193850000D03*
%TD*%
%TO.C,D105*%
X733425000Y-66725000D03*
X733425000Y-70025000D03*
%TD*%
%TO.C,D97*%
X707231250Y-190550000D03*
X707231250Y-193850000D03*
%TD*%
%TO.C,D81*%
X647700000Y-133400000D03*
X647700000Y-136700000D03*
%TD*%
%TO.C,D24*%
X466725000Y-114350000D03*
X466725000Y-117650000D03*
%TD*%
%TO.C,D114*%
X776287500Y-114350000D03*
X776287500Y-117650000D03*
%TD*%
%TO.C,D32*%
X495300000Y-133400000D03*
X495300000Y-136700000D03*
%TD*%
%TO.C,D55*%
X590550000Y-66725000D03*
X590550000Y-70025000D03*
%TD*%
%TO.C,D109*%
X757237500Y-190550000D03*
X757237500Y-193850000D03*
%TD*%
%TO.C,D21*%
X442912500Y-114350000D03*
X442912500Y-117650000D03*
%TD*%
%TO.C,D93*%
X695325000Y-85775000D03*
X695325000Y-89075000D03*
%TD*%
%TO.C,D104*%
X714375000Y-66725000D03*
X714375000Y-70025000D03*
%TD*%
%TO.C,D87*%
X671512500Y-152450000D03*
X671512500Y-155750000D03*
%TD*%
%TO.C,D29*%
X504825000Y-66725000D03*
X504825000Y-70025000D03*
%TD*%
%TO.C,D111*%
X757237500Y-114350000D03*
X757237500Y-117650000D03*
%TD*%
%TO.C,D110*%
X757237500Y-133400000D03*
X757237500Y-136700000D03*
%TD*%
%TO.C,D90*%
X676275000Y-85775000D03*
X676275000Y-89075000D03*
%TD*%
%TO.C,D113*%
X776287500Y-85775000D03*
X776287500Y-89075000D03*
%TD*%
%TO.C,D31*%
X485775000Y-114350000D03*
X485775000Y-117650000D03*
%TD*%
%TO.C,D60*%
X585787500Y-171500000D03*
X585787500Y-174800000D03*
%TD*%
%TO.C,D51*%
X552450000Y-133400000D03*
X552450000Y-136700000D03*
%TD*%
%TO.C,D106*%
X733425000Y-85775000D03*
X733425000Y-89075000D03*
%TD*%
%TO.C,D48*%
X547687500Y-171500000D03*
X547687500Y-174800000D03*
%TD*%
%TO.C,D11*%
X404812500Y-152450000D03*
X404812500Y-155750000D03*
%TD*%
D18*
%TO.C,U1*%
X753800000Y-50540000D03*
X753800000Y-53080000D03*
X753800000Y-55620000D03*
X753800000Y-58160000D03*
X753800000Y-60700000D03*
X753800000Y-63240000D03*
X753800000Y-65780000D03*
X737635440Y-65780000D03*
X737635440Y-63240000D03*
X737635440Y-60700000D03*
X737635440Y-58160000D03*
X737635440Y-55620000D03*
X737635440Y-53080000D03*
X737635440Y-50540000D03*
D19*
X746933120Y-66857820D03*
X744383120Y-66857820D03*
D20*
X746934317Y-49853633D03*
X744394317Y-49853633D03*
X746934317Y-52393633D03*
X744394317Y-52393633D03*
%TD*%
D16*
%TO.C,D6*%
X385762500Y-133400000D03*
X385762500Y-136700000D03*
%TD*%
D17*
%TO.C,U3*%
X773510000Y-67500000D03*
X772240000Y-67500000D03*
X770970000Y-67500000D03*
X769700000Y-67500000D03*
X768430000Y-67500000D03*
X767160000Y-67500000D03*
X765890000Y-67500000D03*
X764620000Y-67500000D03*
X763350000Y-67500000D03*
X762080000Y-67500000D03*
X760810000Y-67500000D03*
X759540000Y-67500000D03*
X759540000Y-58200000D03*
X760810000Y-58200000D03*
X762080000Y-58200000D03*
X763350000Y-58200000D03*
X764620000Y-58200000D03*
X765890000Y-58200000D03*
X767160000Y-58200000D03*
X768430000Y-58200000D03*
X769700000Y-58200000D03*
X770970000Y-58200000D03*
X772240000Y-58200000D03*
X773510000Y-58200000D03*
%TD*%
D16*
%TO.C,D18*%
X423862500Y-190550000D03*
X423862500Y-193850000D03*
%TD*%
%TO.C,D14*%
X423862500Y-114350000D03*
X423862500Y-117650000D03*
%TD*%
%TO.C,D37*%
X528637500Y-171500000D03*
X528637500Y-174800000D03*
%TD*%
%TO.C,D36*%
X516731250Y-190550000D03*
X516731250Y-193850000D03*
%TD*%
%TO.C,D98*%
X716756250Y-171500000D03*
X716756250Y-174800000D03*
%TD*%
%TO.C,D66*%
X609600000Y-66725000D03*
X609600000Y-70025000D03*
%TD*%
%TO.C,D13*%
X404812500Y-114350000D03*
X404812500Y-117650000D03*
%TD*%
D21*
%TO.C,R2*%
X790100000Y-54700000D03*
X792100000Y-54700000D03*
%TD*%
D16*
%TO.C,D28*%
X469106250Y-190550000D03*
X469106250Y-193850000D03*
%TD*%
%TO.C,D23*%
X466725000Y-85775000D03*
X466725000Y-89075000D03*
%TD*%
%TO.C,D46*%
X533400000Y-133400000D03*
X533400000Y-136700000D03*
%TD*%
%TO.C,D17*%
X423862500Y-171500000D03*
X423862500Y-174800000D03*
%TD*%
%TO.C,D115*%
X776287500Y-133400000D03*
X776287500Y-136700000D03*
%TD*%
%TO.C,D119*%
X795337500Y-133400000D03*
X795337500Y-136700000D03*
%TD*%
%TO.C,D88*%
X666750000Y-133400000D03*
X666750000Y-136700000D03*
%TD*%
%TO.C,D19*%
X438150000Y-171500000D03*
X438150000Y-174800000D03*
%TD*%
%TO.C,D45*%
X523875000Y-114350000D03*
X523875000Y-117650000D03*
%TD*%
%TO.C,D76*%
X628650000Y-85775000D03*
X628650000Y-89075000D03*
%TD*%
%TO.C,D57*%
X561975000Y-114350000D03*
X561975000Y-117650000D03*
%TD*%
%TO.C,D9*%
X395287500Y-190550000D03*
X395287500Y-193850000D03*
%TD*%
%TO.C,D83*%
X661987500Y-171500000D03*
X661987500Y-174800000D03*
%TD*%
%TO.C,D7*%
X385762500Y-152450000D03*
X385762500Y-155750000D03*
%TD*%
%TO.C,D68*%
X600075000Y-114350000D03*
X600075000Y-117650000D03*
%TD*%
%TO.C,D26*%
X473868750Y-152450000D03*
X473868750Y-155750000D03*
%TD*%
%TO.C,D1*%
X388143750Y-85775000D03*
X388143750Y-89075000D03*
%TD*%
%TO.C,D50*%
X557212500Y-152450000D03*
X557212500Y-155750000D03*
%TD*%
%TO.C,D86*%
X681037500Y-171500000D03*
X681037500Y-174800000D03*
%TD*%
%TO.C,D54*%
X561975000Y-66725000D03*
X561975000Y-70025000D03*
%TD*%
%TO.C,D99*%
X721518750Y-152450000D03*
X721518750Y-155750000D03*
%TD*%
%TO.C,D116*%
X776287500Y-171500000D03*
X776287500Y-174800000D03*
%TD*%
%TO.C,D74*%
X628650000Y-133400000D03*
X628650000Y-136700000D03*
%TD*%
%TO.C,D52*%
X542925000Y-114350000D03*
X542925000Y-117650000D03*
%TD*%
%TO.C,D69*%
X609600000Y-133400000D03*
X609600000Y-136700000D03*
%TD*%
%TO.C,D112*%
X757237500Y-85775000D03*
X757237500Y-89075000D03*
%TD*%
%TO.C,D41*%
X523875000Y-85775000D03*
X523875000Y-89075000D03*
%TD*%
%TO.C,D118*%
X795337500Y-190550000D03*
X795337500Y-193850000D03*
%TD*%
%TO.C,D72*%
X642937500Y-171500000D03*
X642937500Y-174800000D03*
%TD*%
%TO.C,D75*%
X619125000Y-114350000D03*
X619125000Y-117650000D03*
%TD*%
%TO.C,D53*%
X561975000Y-85775000D03*
X561975000Y-89075000D03*
%TD*%
%TO.C,D91*%
X676275000Y-66725000D03*
X676275000Y-70025000D03*
%TD*%
%TO.C,D44*%
X542925000Y-85775000D03*
X542925000Y-89075000D03*
%TD*%
%TO.C,D4*%
X435768750Y-85775000D03*
X435768750Y-89075000D03*
%TD*%
%TO.C,D80*%
X638175000Y-114350000D03*
X638175000Y-117650000D03*
%TD*%
%TO.C,D79*%
X647700000Y-85775000D03*
X647700000Y-89075000D03*
%TD*%
%TO.C,D71*%
X623887500Y-171500000D03*
X623887500Y-174800000D03*
%TD*%
%TO.C,D38*%
X519112500Y-152450000D03*
X519112500Y-155750000D03*
%TD*%
%TO.C,D3*%
X438150000Y-66725000D03*
X438150000Y-70025000D03*
%TD*%
%TO.C,D67*%
X609600000Y-85775000D03*
X609600000Y-89075000D03*
%TD*%
%TO.C,D42*%
X523875000Y-66725000D03*
X523875000Y-70025000D03*
%TD*%
%TO.C,D63*%
X595312500Y-152450000D03*
X595312500Y-155750000D03*
%TD*%
%TO.C,D12*%
X404812500Y-133400000D03*
X404812500Y-136700000D03*
%TD*%
D21*
%TO.C,R1*%
X790100000Y-52000000D03*
X792100000Y-52000000D03*
%TD*%
M02*
