%TF.GenerationSoftware,KiCad,Pcbnew,7.0.5*%
%TF.CreationDate,2023-06-23T10:17:56-04:00*%
%TF.ProjectId,keyboard_mk1,6b657962-6f61-4726-945f-6d6b312e6b69,rev?*%
%TF.SameCoordinates,Original*%
%TF.FileFunction,Legend,Top*%
%TF.FilePolarity,Positive*%
%FSLAX46Y46*%
G04 Gerber Fmt 4.6, Leading zero omitted, Abs format (unit mm)*
G04 Created by KiCad (PCBNEW 7.0.5) date 2023-06-23 10:17:56*
%MOMM*%
%LPD*%
G01*
G04 APERTURE LIST*
%ADD10C,0.150000*%
%ADD11C,0.300000*%
%ADD12C,0.120000*%
G04 APERTURE END LIST*
D10*
G36*
X543342724Y-7942114D02*
G01*
X543289486Y-7938202D01*
X543239684Y-7926467D01*
X543193316Y-7906909D01*
X543150382Y-7879527D01*
X543110884Y-7844321D01*
X543074820Y-7801293D01*
X543042191Y-7750441D01*
X543012996Y-7691765D01*
X542989106Y-7640951D01*
X542965674Y-7595365D01*
X542937028Y-7545736D01*
X542909097Y-7504275D01*
X542876525Y-7465306D01*
X542834699Y-7431646D01*
X542785316Y-7415618D01*
X542730747Y-7406602D01*
X542673795Y-7401056D01*
X542620720Y-7397908D01*
X542560967Y-7395904D01*
X542511769Y-7395153D01*
X542476883Y-7395010D01*
X542414319Y-7398077D01*
X542350888Y-7407279D01*
X542286588Y-7422616D01*
X542221420Y-7444088D01*
X542155384Y-7471694D01*
X542088479Y-7505434D01*
X542020707Y-7545310D01*
X541952066Y-7591320D01*
X541882557Y-7643465D01*
X541812180Y-7701745D01*
X541740934Y-7766159D01*
X541704986Y-7800667D01*
X541668821Y-7836708D01*
X541632438Y-7874283D01*
X541595839Y-7913392D01*
X541559022Y-7954034D01*
X541521989Y-7996210D01*
X541484738Y-8039920D01*
X541447270Y-8085163D01*
X541409586Y-8131940D01*
X541371684Y-8180251D01*
X541320969Y-8246013D01*
X541271864Y-8311560D01*
X541224369Y-8376892D01*
X541178484Y-8442010D01*
X541134209Y-8506914D01*
X541091544Y-8571602D01*
X541050489Y-8636076D01*
X541011044Y-8700335D01*
X540973209Y-8764380D01*
X540936984Y-8828210D01*
X540902369Y-8891825D01*
X540869364Y-8955226D01*
X540837969Y-9018412D01*
X540808184Y-9081383D01*
X540780009Y-9144139D01*
X540753444Y-9206681D01*
X540728489Y-9269009D01*
X540705144Y-9331121D01*
X540683409Y-9393019D01*
X540663284Y-9454702D01*
X540644769Y-9516171D01*
X540627864Y-9577425D01*
X540612569Y-9638464D01*
X540598884Y-9699289D01*
X540586809Y-9759898D01*
X540576344Y-9820294D01*
X540567489Y-9880474D01*
X540560244Y-9940440D01*
X540554609Y-10000191D01*
X540550584Y-10059728D01*
X540548169Y-10119050D01*
X540547364Y-10178157D01*
X540548476Y-10234748D01*
X540551810Y-10290337D01*
X540557368Y-10344925D01*
X540565148Y-10398510D01*
X540575152Y-10451094D01*
X540587378Y-10502676D01*
X540601828Y-10553256D01*
X540618500Y-10602834D01*
X540637395Y-10651411D01*
X540658514Y-10698986D01*
X540681855Y-10745559D01*
X540707420Y-10791130D01*
X540735207Y-10835700D01*
X540765217Y-10879268D01*
X540797451Y-10921834D01*
X540831907Y-10963398D01*
X540868863Y-11004509D01*
X540906764Y-11042968D01*
X540945609Y-11078774D01*
X540985399Y-11111928D01*
X541026133Y-11142430D01*
X541067811Y-11170279D01*
X541110435Y-11195476D01*
X541154002Y-11218021D01*
X541221125Y-11246865D01*
X541290373Y-11269741D01*
X541361746Y-11286650D01*
X541410509Y-11294607D01*
X541460216Y-11299912D01*
X541510868Y-11302564D01*
X541536548Y-11302896D01*
X541602765Y-11301361D01*
X541669069Y-11296756D01*
X541735458Y-11289082D01*
X541801933Y-11278338D01*
X541868494Y-11264524D01*
X541935141Y-11247640D01*
X542001873Y-11227687D01*
X542068692Y-11204664D01*
X542135596Y-11178571D01*
X542202587Y-11149409D01*
X542247295Y-11128262D01*
X542300379Y-11100537D01*
X542344550Y-11075810D01*
X542392457Y-11047714D01*
X542444098Y-11016248D01*
X542499475Y-10981411D01*
X542558587Y-10943204D01*
X542600070Y-10915860D01*
X542643214Y-10887018D01*
X542688017Y-10856679D01*
X542734480Y-10824841D01*
X542782604Y-10791506D01*
X542832387Y-10756673D01*
X542857902Y-10738695D01*
X542905262Y-10706065D01*
X542949645Y-10677786D01*
X543000939Y-10648556D01*
X543047581Y-10626123D01*
X543097412Y-10608177D01*
X543147084Y-10599612D01*
X543153435Y-10599476D01*
X543207131Y-10603340D01*
X543257391Y-10614932D01*
X543304217Y-10634252D01*
X543347609Y-10661300D01*
X543387565Y-10696076D01*
X543400121Y-10709385D01*
X543434153Y-10751045D01*
X543461143Y-10794508D01*
X543481093Y-10839774D01*
X543495469Y-10894863D01*
X543500163Y-10944036D01*
X543500260Y-10952407D01*
X543495666Y-11007905D01*
X543481885Y-11060828D01*
X543458916Y-11111174D01*
X543426759Y-11158945D01*
X543392943Y-11196786D01*
X543369590Y-11218632D01*
X543312935Y-11267093D01*
X543256237Y-11314015D01*
X543199496Y-11359399D01*
X543142712Y-11403245D01*
X543085885Y-11445552D01*
X543029015Y-11486321D01*
X542972102Y-11525551D01*
X542915146Y-11563243D01*
X542858147Y-11599397D01*
X542801106Y-11634012D01*
X542744021Y-11667088D01*
X542686893Y-11698626D01*
X542629723Y-11728626D01*
X542572510Y-11757087D01*
X542515253Y-11784010D01*
X542457954Y-11809394D01*
X542400612Y-11833240D01*
X542343227Y-11855547D01*
X542285799Y-11876316D01*
X542228328Y-11895547D01*
X542170814Y-11913239D01*
X542113257Y-11929393D01*
X542055657Y-11944008D01*
X541998014Y-11957085D01*
X541940329Y-11968623D01*
X541882600Y-11978623D01*
X541824828Y-11987084D01*
X541767014Y-11994007D01*
X541709156Y-11999392D01*
X541651256Y-12003238D01*
X541593313Y-12005546D01*
X541535327Y-12006315D01*
X541447342Y-12004135D01*
X541361075Y-11997595D01*
X541276525Y-11986694D01*
X541193692Y-11971434D01*
X541112577Y-11951813D01*
X541033179Y-11927833D01*
X540955498Y-11899492D01*
X540879535Y-11866791D01*
X540805289Y-11829730D01*
X540732760Y-11788309D01*
X540661949Y-11742528D01*
X540592855Y-11692387D01*
X540525478Y-11637885D01*
X540459819Y-11579024D01*
X540395877Y-11515802D01*
X540333652Y-11448220D01*
X540276274Y-11379980D01*
X540222598Y-11310204D01*
X540172623Y-11238891D01*
X540126351Y-11166043D01*
X540083780Y-11091659D01*
X540044911Y-11015738D01*
X540009744Y-10938282D01*
X539978278Y-10859289D01*
X539950515Y-10778761D01*
X539926453Y-10696696D01*
X539906093Y-10613096D01*
X539889435Y-10527959D01*
X539876479Y-10441286D01*
X539867224Y-10353077D01*
X539861672Y-10263332D01*
X539859821Y-10172051D01*
X539860774Y-10097651D01*
X539863632Y-10023135D01*
X539868397Y-9948501D01*
X539875067Y-9873750D01*
X539883643Y-9798883D01*
X539894124Y-9723899D01*
X539906512Y-9648798D01*
X539920805Y-9573580D01*
X539937004Y-9498245D01*
X539955109Y-9422793D01*
X539975119Y-9347225D01*
X539997036Y-9271539D01*
X540020858Y-9195737D01*
X540046585Y-9119818D01*
X540074219Y-9043782D01*
X540103758Y-8967629D01*
X540135203Y-8891359D01*
X540168554Y-8814972D01*
X540203811Y-8738468D01*
X540240973Y-8661848D01*
X540280041Y-8585111D01*
X540321015Y-8508256D01*
X540363895Y-8431285D01*
X540408680Y-8354197D01*
X540455371Y-8276993D01*
X540503968Y-8199671D01*
X540554471Y-8122232D01*
X540606879Y-8044677D01*
X540661194Y-7967005D01*
X540717414Y-7889215D01*
X540775539Y-7811309D01*
X540835571Y-7733286D01*
X540886418Y-7669198D01*
X540937294Y-7607143D01*
X540988199Y-7547124D01*
X541039132Y-7489139D01*
X541090094Y-7433188D01*
X541141084Y-7379273D01*
X541192103Y-7327391D01*
X541243151Y-7277544D01*
X541294227Y-7229732D01*
X541345332Y-7183955D01*
X541396466Y-7140211D01*
X541447628Y-7098503D01*
X541498819Y-7058829D01*
X541550038Y-7021190D01*
X541601287Y-6985585D01*
X541652563Y-6952015D01*
X541703869Y-6920479D01*
X541755202Y-6890978D01*
X541806565Y-6863511D01*
X541857956Y-6838079D01*
X541909376Y-6814682D01*
X541960824Y-6793319D01*
X542012301Y-6773990D01*
X542063807Y-6756697D01*
X542115341Y-6741437D01*
X542166904Y-6728213D01*
X542218496Y-6717023D01*
X542270116Y-6707867D01*
X542321765Y-6700746D01*
X542373442Y-6695660D01*
X542425148Y-6692608D01*
X542476883Y-6691591D01*
X542528683Y-6691978D01*
X542578754Y-6693141D01*
X542636557Y-6695560D01*
X542691869Y-6699094D01*
X542744691Y-6703745D01*
X542778523Y-6707466D01*
X542827782Y-6713649D01*
X542882428Y-6722598D01*
X542934037Y-6733417D01*
X542982606Y-6746106D01*
X543015438Y-6756315D01*
X543054949Y-6715153D01*
X543097918Y-6680967D01*
X543144346Y-6653758D01*
X543194232Y-6633526D01*
X543247576Y-6620270D01*
X543304379Y-6613991D01*
X543328069Y-6613433D01*
X543384569Y-6618146D01*
X543435612Y-6632285D01*
X543481198Y-6655851D01*
X543521326Y-6688843D01*
X543555997Y-6731261D01*
X543585211Y-6783105D01*
X543608967Y-6844376D01*
X543623203Y-6896515D01*
X543627267Y-6915073D01*
X543637088Y-6966521D01*
X543645943Y-7020116D01*
X543653832Y-7075858D01*
X543660755Y-7133746D01*
X543666712Y-7193782D01*
X543671703Y-7255963D01*
X543675728Y-7320292D01*
X543678787Y-7386767D01*
X543680880Y-7455389D01*
X543682007Y-7526157D01*
X543682221Y-7574528D01*
X543679559Y-7624202D01*
X543669725Y-7679225D01*
X543652645Y-7731092D01*
X543628318Y-7779803D01*
X543606506Y-7812665D01*
X543568954Y-7856658D01*
X543525906Y-7891548D01*
X543477363Y-7917337D01*
X543423324Y-7934023D01*
X543374094Y-7940976D01*
X543342724Y-7942114D01*
G37*
G36*
X546900547Y-6535777D02*
G01*
X546969449Y-6537283D01*
X547037218Y-6539794D01*
X547103854Y-6543308D01*
X547169357Y-6547827D01*
X547233727Y-6553350D01*
X547296964Y-6559877D01*
X547359068Y-6567408D01*
X547420040Y-6575944D01*
X547479878Y-6585483D01*
X547538583Y-6596027D01*
X547596156Y-6607575D01*
X547652595Y-6620127D01*
X547707902Y-6633683D01*
X547762075Y-6648243D01*
X547815116Y-6663808D01*
X547867023Y-6680377D01*
X547917798Y-6697949D01*
X547967439Y-6716526D01*
X548015948Y-6736108D01*
X548063324Y-6756693D01*
X548109567Y-6778282D01*
X548154676Y-6800876D01*
X548198653Y-6824474D01*
X548241497Y-6849076D01*
X548283208Y-6874682D01*
X548363231Y-6928907D01*
X548438722Y-6987148D01*
X548509681Y-7049406D01*
X548544994Y-7083365D01*
X548579185Y-7118534D01*
X548612256Y-7154911D01*
X548644206Y-7192498D01*
X548675034Y-7231295D01*
X548704741Y-7271300D01*
X548733328Y-7312515D01*
X548760793Y-7354939D01*
X548787138Y-7398572D01*
X548812361Y-7443415D01*
X548836463Y-7489467D01*
X548859445Y-7536728D01*
X548881305Y-7585199D01*
X548902044Y-7634878D01*
X548921662Y-7685767D01*
X548940159Y-7737866D01*
X548957535Y-7791174D01*
X548973790Y-7845690D01*
X548988924Y-7901417D01*
X549002937Y-7958352D01*
X549015829Y-8016497D01*
X549027600Y-8075851D01*
X549038250Y-8136415D01*
X549047779Y-8198187D01*
X549056186Y-8261169D01*
X549063473Y-8325361D01*
X549069639Y-8390761D01*
X549074684Y-8457371D01*
X549078607Y-8525190D01*
X549081410Y-8594218D01*
X549083091Y-8664456D01*
X549083652Y-8735903D01*
X549083021Y-8810777D01*
X549081128Y-8885187D01*
X549077974Y-8959135D01*
X549073558Y-9032620D01*
X549067880Y-9105643D01*
X549060940Y-9178202D01*
X549052739Y-9250299D01*
X549043275Y-9321933D01*
X549032550Y-9393105D01*
X549020564Y-9463814D01*
X549007315Y-9534060D01*
X548992805Y-9603843D01*
X548977033Y-9673164D01*
X548959999Y-9742022D01*
X548941704Y-9810417D01*
X548922146Y-9878349D01*
X548901327Y-9945819D01*
X548879246Y-10012826D01*
X548855904Y-10079370D01*
X548831299Y-10145452D01*
X548805433Y-10211070D01*
X548778305Y-10276226D01*
X548749916Y-10340920D01*
X548720264Y-10405150D01*
X548689351Y-10468918D01*
X548657176Y-10532223D01*
X548623739Y-10595066D01*
X548589041Y-10657446D01*
X548553081Y-10719363D01*
X548515859Y-10780817D01*
X548477375Y-10841808D01*
X548437629Y-10902337D01*
X548390876Y-10970258D01*
X548343276Y-11036022D01*
X548294830Y-11099630D01*
X548245536Y-11161082D01*
X548195396Y-11220378D01*
X548144409Y-11277517D01*
X548092576Y-11332500D01*
X548039895Y-11385327D01*
X547986368Y-11435998D01*
X547931994Y-11484513D01*
X547876774Y-11530871D01*
X547820706Y-11575074D01*
X547763792Y-11617120D01*
X547706032Y-11657009D01*
X547647424Y-11694743D01*
X547587970Y-11730321D01*
X547527669Y-11763742D01*
X547466521Y-11795007D01*
X547404526Y-11824115D01*
X547341685Y-11851068D01*
X547277997Y-11875864D01*
X547213462Y-11898505D01*
X547148081Y-11918989D01*
X547081853Y-11937316D01*
X547014778Y-11953488D01*
X546946856Y-11967503D01*
X546878088Y-11979362D01*
X546808472Y-11989065D01*
X546738011Y-11996612D01*
X546666702Y-12002003D01*
X546594546Y-12005237D01*
X546521544Y-12006315D01*
X546461231Y-12005742D01*
X546401498Y-12004025D01*
X546342344Y-12001163D01*
X546283770Y-11997156D01*
X546225776Y-11992004D01*
X546168361Y-11985707D01*
X546111525Y-11978265D01*
X546055269Y-11969678D01*
X545999593Y-11959947D01*
X545944497Y-11949071D01*
X545889980Y-11937049D01*
X545836042Y-11923883D01*
X545782685Y-11909572D01*
X545729907Y-11894116D01*
X545677708Y-11877515D01*
X545626089Y-11859769D01*
X545575050Y-11840879D01*
X545524590Y-11820843D01*
X545474710Y-11799663D01*
X545425409Y-11777337D01*
X545376688Y-11753867D01*
X545328547Y-11729252D01*
X545280985Y-11703492D01*
X545234003Y-11676587D01*
X545187600Y-11648537D01*
X545141777Y-11619343D01*
X545096534Y-11589003D01*
X545051870Y-11557519D01*
X545007786Y-11524889D01*
X544964282Y-11491115D01*
X544921357Y-11456196D01*
X544879011Y-11420132D01*
X544835058Y-11380701D01*
X544792501Y-11340567D01*
X544751338Y-11299729D01*
X544711571Y-11258188D01*
X544673200Y-11215942D01*
X544636223Y-11172994D01*
X544600642Y-11129341D01*
X544566457Y-11084985D01*
X544533666Y-11039925D01*
X544502271Y-10994162D01*
X544472272Y-10947695D01*
X544443667Y-10900525D01*
X544416458Y-10852650D01*
X544390645Y-10804072D01*
X544366226Y-10754791D01*
X544343203Y-10704806D01*
X544321576Y-10654117D01*
X544301343Y-10602725D01*
X544282506Y-10550629D01*
X544265065Y-10497829D01*
X544249019Y-10444326D01*
X544234368Y-10390119D01*
X544221112Y-10335208D01*
X544209252Y-10279594D01*
X544198787Y-10223277D01*
X544189717Y-10166255D01*
X544182043Y-10108530D01*
X544175764Y-10050101D01*
X544170880Y-9990969D01*
X544167392Y-9931133D01*
X544165299Y-9870594D01*
X544164615Y-9810572D01*
X544865578Y-9810572D01*
X544867496Y-9893705D01*
X544873249Y-9974882D01*
X544882837Y-10054104D01*
X544896261Y-10131369D01*
X544913520Y-10206679D01*
X544934615Y-10280033D01*
X544959545Y-10351431D01*
X544988310Y-10420874D01*
X545020911Y-10488360D01*
X545057347Y-10553890D01*
X545097618Y-10617465D01*
X545141725Y-10679084D01*
X545189667Y-10738747D01*
X545241445Y-10796454D01*
X545297058Y-10852205D01*
X545356506Y-10906001D01*
X545416298Y-10954062D01*
X545477826Y-10999023D01*
X545541091Y-11040883D01*
X545606092Y-11079642D01*
X545672829Y-11115301D01*
X545741303Y-11147859D01*
X545811513Y-11177316D01*
X545883460Y-11203672D01*
X545957143Y-11226927D01*
X546032563Y-11247082D01*
X546109718Y-11264136D01*
X546188611Y-11278090D01*
X546269240Y-11288942D01*
X546351605Y-11296694D01*
X546435706Y-11301345D01*
X546521544Y-11302896D01*
X546573390Y-11302062D01*
X546624665Y-11299561D01*
X546675371Y-11295393D01*
X546725506Y-11289558D01*
X546775072Y-11282055D01*
X546824067Y-11272885D01*
X546872492Y-11262048D01*
X546920347Y-11249544D01*
X546967632Y-11235372D01*
X547014347Y-11219533D01*
X547060492Y-11202027D01*
X547106067Y-11182854D01*
X547151072Y-11162013D01*
X547195507Y-11139506D01*
X547239371Y-11115331D01*
X547282666Y-11089488D01*
X547325391Y-11061979D01*
X547367545Y-11032802D01*
X547409130Y-11001958D01*
X547450144Y-10969447D01*
X547490589Y-10935268D01*
X547530463Y-10899423D01*
X547569767Y-10861910D01*
X547608501Y-10822729D01*
X547646665Y-10781882D01*
X547684260Y-10739367D01*
X547721284Y-10695185D01*
X547757738Y-10649336D01*
X547793621Y-10601820D01*
X547828935Y-10552636D01*
X547863679Y-10501785D01*
X547897853Y-10449267D01*
X547927681Y-10401378D01*
X547956562Y-10353120D01*
X547984496Y-10304492D01*
X548011483Y-10255494D01*
X548037523Y-10206127D01*
X548062617Y-10156390D01*
X548086763Y-10106283D01*
X548109962Y-10055807D01*
X548132215Y-10004961D01*
X548153521Y-9953745D01*
X548173879Y-9902159D01*
X548193291Y-9850204D01*
X548211756Y-9797879D01*
X548229274Y-9745184D01*
X548245845Y-9692120D01*
X548261469Y-9638686D01*
X548276147Y-9584882D01*
X548289877Y-9530709D01*
X548302660Y-9476165D01*
X548314497Y-9421252D01*
X548325386Y-9365970D01*
X548335329Y-9310318D01*
X548344325Y-9254296D01*
X548352373Y-9197904D01*
X548359475Y-9141142D01*
X548365630Y-9084011D01*
X548370838Y-9026510D01*
X548375100Y-8968640D01*
X548378414Y-8910400D01*
X548380781Y-8851790D01*
X548382201Y-8792810D01*
X548382675Y-8733461D01*
X548382316Y-8681890D01*
X548381239Y-8631284D01*
X548379444Y-8581645D01*
X548373701Y-8485264D01*
X548365085Y-8392748D01*
X548353598Y-8304095D01*
X548339239Y-8219307D01*
X548322009Y-8138382D01*
X548301907Y-8061322D01*
X548278932Y-7988125D01*
X548253087Y-7918793D01*
X548224369Y-7853324D01*
X548192780Y-7791720D01*
X548158318Y-7733979D01*
X548120986Y-7680103D01*
X548080781Y-7630090D01*
X548037704Y-7583942D01*
X548015089Y-7562316D01*
X547969389Y-7523128D01*
X547919911Y-7486467D01*
X547866655Y-7452335D01*
X547809620Y-7420732D01*
X547748807Y-7391656D01*
X547684217Y-7365109D01*
X547615848Y-7341090D01*
X547543701Y-7319600D01*
X547467775Y-7300638D01*
X547388072Y-7284204D01*
X547304591Y-7270298D01*
X547217331Y-7258921D01*
X547126293Y-7250072D01*
X547031478Y-7243751D01*
X546982653Y-7241539D01*
X546932884Y-7239959D01*
X546882170Y-7239011D01*
X546830512Y-7238695D01*
X546778175Y-7239525D01*
X546726341Y-7242015D01*
X546675011Y-7246165D01*
X546624184Y-7251975D01*
X546573860Y-7259446D01*
X546524039Y-7268576D01*
X546474722Y-7279367D01*
X546425908Y-7291817D01*
X546377597Y-7305928D01*
X546329790Y-7321699D01*
X546282486Y-7339130D01*
X546235685Y-7358221D01*
X546189387Y-7378972D01*
X546143593Y-7401383D01*
X546098302Y-7425454D01*
X546053514Y-7451186D01*
X546009229Y-7478577D01*
X545965448Y-7507629D01*
X545922170Y-7538340D01*
X545879396Y-7570712D01*
X545837124Y-7604744D01*
X545795356Y-7640436D01*
X545754091Y-7677788D01*
X545713330Y-7716800D01*
X545673071Y-7757472D01*
X545633316Y-7799804D01*
X545594064Y-7843797D01*
X545555316Y-7889449D01*
X545517071Y-7936762D01*
X545479329Y-7985734D01*
X545442090Y-8036367D01*
X545405355Y-8088660D01*
X545372146Y-8137663D01*
X545339991Y-8186977D01*
X545308891Y-8236601D01*
X545278844Y-8286535D01*
X545249852Y-8336778D01*
X545221915Y-8387332D01*
X545195031Y-8438196D01*
X545169202Y-8489371D01*
X545144427Y-8540855D01*
X545120707Y-8592649D01*
X545098040Y-8644753D01*
X545076428Y-8697168D01*
X545055870Y-8749892D01*
X545036367Y-8802927D01*
X545017917Y-8856272D01*
X545000522Y-8909926D01*
X544984181Y-8963891D01*
X544968894Y-9018166D01*
X544954662Y-9072751D01*
X544941484Y-9127646D01*
X544929360Y-9182851D01*
X544918290Y-9238366D01*
X544908275Y-9294191D01*
X544899314Y-9350327D01*
X544891407Y-9406772D01*
X544884554Y-9463527D01*
X544878756Y-9520593D01*
X544874012Y-9577969D01*
X544870322Y-9635654D01*
X544867686Y-9693650D01*
X544866105Y-9751956D01*
X544865578Y-9810572D01*
X544164615Y-9810572D01*
X544164601Y-9809351D01*
X544165289Y-9734461D01*
X544167353Y-9660000D01*
X544170794Y-9585968D01*
X544175611Y-9512366D01*
X544181804Y-9439194D01*
X544189373Y-9366450D01*
X544198319Y-9294136D01*
X544208641Y-9222252D01*
X544220339Y-9150796D01*
X544233413Y-9079770D01*
X544247864Y-9009174D01*
X544263691Y-8939006D01*
X544280894Y-8869268D01*
X544299474Y-8799960D01*
X544319429Y-8731080D01*
X544340761Y-8662630D01*
X544363469Y-8594610D01*
X544387554Y-8527018D01*
X544413014Y-8459856D01*
X544439851Y-8393124D01*
X544468064Y-8326820D01*
X544497654Y-8260946D01*
X544528619Y-8195502D01*
X544560961Y-8130486D01*
X544594679Y-8065900D01*
X544629774Y-8001744D01*
X544666244Y-7938016D01*
X544704091Y-7874718D01*
X544743315Y-7811850D01*
X544783914Y-7749410D01*
X544825890Y-7687400D01*
X544869241Y-7625819D01*
X544918775Y-7558725D01*
X544969066Y-7493761D01*
X545020116Y-7430927D01*
X545071925Y-7370223D01*
X545124492Y-7311649D01*
X545177818Y-7255205D01*
X545231902Y-7200891D01*
X545286744Y-7148706D01*
X545342345Y-7098652D01*
X545398705Y-7050728D01*
X545455823Y-7004933D01*
X545513699Y-6961269D01*
X545572334Y-6919735D01*
X545631728Y-6880330D01*
X545691880Y-6843056D01*
X545752790Y-6807911D01*
X545814459Y-6774897D01*
X545876886Y-6744012D01*
X545940072Y-6715258D01*
X546004017Y-6688633D01*
X546068720Y-6664138D01*
X546134181Y-6641774D01*
X546200401Y-6621539D01*
X546267379Y-6603434D01*
X546335116Y-6587459D01*
X546403611Y-6573615D01*
X546472865Y-6561900D01*
X546542877Y-6552315D01*
X546613648Y-6544860D01*
X546685178Y-6539535D01*
X546757465Y-6536340D01*
X546830512Y-6535275D01*
X546900547Y-6535777D01*
G37*
G36*
X552875522Y-11771842D02*
G01*
X552825247Y-11791100D01*
X552771509Y-11810100D01*
X552714307Y-11828843D01*
X552653643Y-11847328D01*
X552589515Y-11865556D01*
X552521923Y-11883526D01*
X552450869Y-11901238D01*
X552376351Y-11918693D01*
X552298370Y-11935890D01*
X552216925Y-11952830D01*
X552132017Y-11969512D01*
X552043646Y-11985936D01*
X551951812Y-12002103D01*
X551856514Y-12018012D01*
X551807567Y-12025870D01*
X551757753Y-12033663D01*
X551707074Y-12041393D01*
X551655529Y-12049057D01*
X551560918Y-12062810D01*
X551468511Y-12075676D01*
X551378309Y-12087654D01*
X551290310Y-12098746D01*
X551204515Y-12108949D01*
X551120923Y-12118266D01*
X551039536Y-12126695D01*
X550960353Y-12134237D01*
X550883373Y-12140892D01*
X550808598Y-12146659D01*
X550736026Y-12151539D01*
X550665659Y-12155532D01*
X550597495Y-12158638D01*
X550531535Y-12160856D01*
X550467779Y-12162187D01*
X550406227Y-12162630D01*
X550342915Y-12161697D01*
X550283037Y-12158895D01*
X550226594Y-12154226D01*
X550173586Y-12147690D01*
X550124012Y-12139285D01*
X550063256Y-12125175D01*
X550008607Y-12107744D01*
X549960064Y-12086993D01*
X549907971Y-12056385D01*
X549859600Y-12016314D01*
X549817678Y-11968763D01*
X549790469Y-11928191D01*
X549766888Y-11883411D01*
X549746935Y-11834424D01*
X549730609Y-11781230D01*
X549717912Y-11723828D01*
X549708842Y-11662219D01*
X549703400Y-11596402D01*
X549701586Y-11526378D01*
X549769974Y-10386985D01*
X549775459Y-10288112D01*
X549780770Y-10188566D01*
X549785906Y-10088348D01*
X549790868Y-9987457D01*
X549795657Y-9885893D01*
X549800271Y-9783657D01*
X549804711Y-9680749D01*
X549808977Y-9577167D01*
X549813069Y-9472913D01*
X549816986Y-9367987D01*
X549820730Y-9262387D01*
X549824299Y-9156115D01*
X549827694Y-9049171D01*
X549830916Y-8941554D01*
X549833963Y-8833264D01*
X549836836Y-8724302D01*
X549839535Y-8614667D01*
X549842059Y-8504359D01*
X549844410Y-8393379D01*
X549846586Y-8281726D01*
X549848589Y-8169401D01*
X549850417Y-8056402D01*
X549852071Y-7942732D01*
X549853551Y-7828388D01*
X549854857Y-7713372D01*
X549855989Y-7597684D01*
X549856946Y-7481323D01*
X549857730Y-7364289D01*
X549858339Y-7246582D01*
X549858775Y-7128203D01*
X549859036Y-7009152D01*
X549859123Y-6889427D01*
X549862558Y-6835603D01*
X549872862Y-6784956D01*
X549890035Y-6737486D01*
X549914078Y-6693193D01*
X549944989Y-6652078D01*
X549956820Y-6639078D01*
X549995131Y-6603801D01*
X550036790Y-6575823D01*
X550081799Y-6555144D01*
X550130156Y-6541763D01*
X550181862Y-6535681D01*
X550199842Y-6535275D01*
X550253494Y-6538924D01*
X550303626Y-6549872D01*
X550350237Y-6568119D01*
X550393328Y-6593664D01*
X550432898Y-6626508D01*
X550445306Y-6639078D01*
X550478507Y-6679135D01*
X550504840Y-6722369D01*
X550524303Y-6768780D01*
X550536897Y-6818368D01*
X550542621Y-6871133D01*
X550543003Y-6889427D01*
X550542912Y-7010672D01*
X550542640Y-7131232D01*
X550542187Y-7251108D01*
X550541553Y-7370299D01*
X550540737Y-7488806D01*
X550539740Y-7606628D01*
X550538562Y-7723766D01*
X550537202Y-7840219D01*
X550535661Y-7955987D01*
X550533939Y-8071071D01*
X550532036Y-8185471D01*
X550529951Y-8299186D01*
X550527685Y-8412216D01*
X550525238Y-8524562D01*
X550522610Y-8636223D01*
X550519800Y-8747199D01*
X550516809Y-8857492D01*
X550513636Y-8967099D01*
X550510283Y-9076022D01*
X550506748Y-9184261D01*
X550503032Y-9291814D01*
X550499135Y-9398684D01*
X550495056Y-9504869D01*
X550490796Y-9610369D01*
X550486355Y-9715185D01*
X550481732Y-9819316D01*
X550476928Y-9922762D01*
X550471943Y-10025525D01*
X550466777Y-10127602D01*
X550461430Y-10228995D01*
X550455901Y-10329703D01*
X550450191Y-10429727D01*
X550406227Y-10953628D01*
X550401272Y-11006629D01*
X550396939Y-11058471D01*
X550393229Y-11109154D01*
X550390141Y-11158678D01*
X550386993Y-11222906D01*
X550384951Y-11285073D01*
X550384016Y-11345180D01*
X550384188Y-11403226D01*
X550385466Y-11459211D01*
X550441952Y-11459435D01*
X550499364Y-11458887D01*
X550557700Y-11457565D01*
X550616963Y-11455471D01*
X550677150Y-11452604D01*
X550738264Y-11448964D01*
X550800302Y-11444552D01*
X550863266Y-11439366D01*
X550927156Y-11433408D01*
X550991971Y-11426677D01*
X551057711Y-11419173D01*
X551124377Y-11410897D01*
X551191968Y-11401847D01*
X551260485Y-11392025D01*
X551329928Y-11381430D01*
X551400295Y-11370062D01*
X551471588Y-11357922D01*
X551543807Y-11345008D01*
X551616951Y-11331322D01*
X551691021Y-11316863D01*
X551766016Y-11301631D01*
X551841936Y-11285627D01*
X551918782Y-11268849D01*
X551996553Y-11251299D01*
X552075250Y-11232976D01*
X552154872Y-11213880D01*
X552235420Y-11194012D01*
X552316893Y-11173370D01*
X552399291Y-11151956D01*
X552482615Y-11129769D01*
X552566865Y-11106810D01*
X552652040Y-11083077D01*
X552701928Y-11073059D01*
X552752268Y-11068551D01*
X552761949Y-11068422D01*
X552815687Y-11072630D01*
X552866077Y-11085252D01*
X552913117Y-11106290D01*
X552956809Y-11135742D01*
X552997152Y-11173609D01*
X553009856Y-11188101D01*
X553038907Y-11230434D01*
X553061948Y-11274998D01*
X553078978Y-11321796D01*
X553089998Y-11370826D01*
X553095007Y-11422088D01*
X553095341Y-11439672D01*
X553091906Y-11494283D01*
X553081602Y-11545154D01*
X553064429Y-11592285D01*
X553040386Y-11635676D01*
X553009474Y-11675328D01*
X552971693Y-11711239D01*
X552927042Y-11743410D01*
X552875522Y-11771842D01*
G37*
G36*
X556342975Y-6535777D02*
G01*
X556411877Y-6537283D01*
X556479646Y-6539794D01*
X556546282Y-6543308D01*
X556611785Y-6547827D01*
X556676155Y-6553350D01*
X556739393Y-6559877D01*
X556801497Y-6567408D01*
X556862468Y-6575944D01*
X556922306Y-6585483D01*
X556981012Y-6596027D01*
X557038584Y-6607575D01*
X557095024Y-6620127D01*
X557150330Y-6633683D01*
X557204503Y-6648243D01*
X557257544Y-6663808D01*
X557309452Y-6680377D01*
X557360226Y-6697949D01*
X557409868Y-6716526D01*
X557458377Y-6736108D01*
X557505752Y-6756693D01*
X557551995Y-6778282D01*
X557597105Y-6800876D01*
X557641082Y-6824474D01*
X557683925Y-6849076D01*
X557725636Y-6874682D01*
X557805659Y-6928907D01*
X557881150Y-6987148D01*
X557952110Y-7049406D01*
X557987422Y-7083365D01*
X558021614Y-7118534D01*
X558054684Y-7154911D01*
X558086634Y-7192498D01*
X558117462Y-7231295D01*
X558147170Y-7271300D01*
X558175756Y-7312515D01*
X558203222Y-7354939D01*
X558229566Y-7398572D01*
X558254789Y-7443415D01*
X558278892Y-7489467D01*
X558301873Y-7536728D01*
X558323733Y-7585199D01*
X558344472Y-7634878D01*
X558364091Y-7685767D01*
X558382588Y-7737866D01*
X558399964Y-7791174D01*
X558416219Y-7845690D01*
X558431353Y-7901417D01*
X558445366Y-7958352D01*
X558458258Y-8016497D01*
X558470028Y-8075851D01*
X558480678Y-8136415D01*
X558490207Y-8198187D01*
X558498615Y-8261169D01*
X558505902Y-8325361D01*
X558512067Y-8390761D01*
X558517112Y-8457371D01*
X558521036Y-8525190D01*
X558523838Y-8594218D01*
X558525520Y-8664456D01*
X558526080Y-8735903D01*
X558525449Y-8810777D01*
X558523557Y-8885187D01*
X558520402Y-8959135D01*
X558515986Y-9032620D01*
X558510308Y-9105643D01*
X558503369Y-9178202D01*
X558495167Y-9250299D01*
X558485704Y-9321933D01*
X558474979Y-9393105D01*
X558462992Y-9463814D01*
X558449744Y-9534060D01*
X558435233Y-9603843D01*
X558419461Y-9673164D01*
X558402428Y-9742022D01*
X558384132Y-9810417D01*
X558364575Y-9878349D01*
X558343756Y-9945819D01*
X558321675Y-10012826D01*
X558298332Y-10079370D01*
X558273728Y-10145452D01*
X558247862Y-10211070D01*
X558220734Y-10276226D01*
X558192344Y-10340920D01*
X558162693Y-10405150D01*
X558131780Y-10468918D01*
X558099605Y-10532223D01*
X558066168Y-10595066D01*
X558031469Y-10657446D01*
X557995509Y-10719363D01*
X557958287Y-10780817D01*
X557919803Y-10841808D01*
X557880058Y-10902337D01*
X557833305Y-10970258D01*
X557785705Y-11036022D01*
X557737258Y-11099630D01*
X557687965Y-11161082D01*
X557637825Y-11220378D01*
X557586838Y-11277517D01*
X557535004Y-11332500D01*
X557482324Y-11385327D01*
X557428797Y-11435998D01*
X557374423Y-11484513D01*
X557319202Y-11530871D01*
X557263135Y-11575074D01*
X557206221Y-11617120D01*
X557148460Y-11657009D01*
X557089852Y-11694743D01*
X557030398Y-11730321D01*
X556970097Y-11763742D01*
X556908949Y-11795007D01*
X556846955Y-11824115D01*
X556784114Y-11851068D01*
X556720426Y-11875864D01*
X556655891Y-11898505D01*
X556590509Y-11918989D01*
X556524281Y-11937316D01*
X556457206Y-11953488D01*
X556389285Y-11967503D01*
X556320516Y-11979362D01*
X556250901Y-11989065D01*
X556180439Y-11996612D01*
X556109130Y-12002003D01*
X556036975Y-12005237D01*
X555963973Y-12006315D01*
X555903660Y-12005742D01*
X555843927Y-12004025D01*
X555784773Y-12001163D01*
X555726199Y-11997156D01*
X555668204Y-11992004D01*
X555610789Y-11985707D01*
X555553954Y-11978265D01*
X555497698Y-11969678D01*
X555442022Y-11959947D01*
X555386925Y-11949071D01*
X555332408Y-11937049D01*
X555278471Y-11923883D01*
X555225113Y-11909572D01*
X555172335Y-11894116D01*
X555120136Y-11877515D01*
X555068517Y-11859769D01*
X555017478Y-11840879D01*
X554967018Y-11820843D01*
X554917138Y-11799663D01*
X554867838Y-11777337D01*
X554819117Y-11753867D01*
X554770975Y-11729252D01*
X554723414Y-11703492D01*
X554676431Y-11676587D01*
X554630029Y-11648537D01*
X554584206Y-11619343D01*
X554538963Y-11589003D01*
X554494299Y-11557519D01*
X554450215Y-11524889D01*
X554406710Y-11491115D01*
X554363785Y-11456196D01*
X554321440Y-11420132D01*
X554277487Y-11380701D01*
X554234929Y-11340567D01*
X554193767Y-11299729D01*
X554154000Y-11258188D01*
X554115628Y-11215942D01*
X554078652Y-11172994D01*
X554043071Y-11129341D01*
X554008885Y-11084985D01*
X553976095Y-11039925D01*
X553944700Y-10994162D01*
X553914700Y-10947695D01*
X553886096Y-10900525D01*
X553858887Y-10852650D01*
X553833073Y-10804072D01*
X553808655Y-10754791D01*
X553785632Y-10704806D01*
X553764004Y-10654117D01*
X553743772Y-10602725D01*
X553724935Y-10550629D01*
X553707493Y-10497829D01*
X553691447Y-10444326D01*
X553676796Y-10390119D01*
X553663540Y-10335208D01*
X553651680Y-10279594D01*
X553641215Y-10223277D01*
X553632145Y-10166255D01*
X553624471Y-10108530D01*
X553618192Y-10050101D01*
X553613308Y-9990969D01*
X553609820Y-9931133D01*
X553607727Y-9870594D01*
X553607043Y-9810572D01*
X554308006Y-9810572D01*
X554309924Y-9893705D01*
X554315677Y-9974882D01*
X554325266Y-10054104D01*
X554338689Y-10131369D01*
X554355949Y-10206679D01*
X554377043Y-10280033D01*
X554401973Y-10351431D01*
X554430738Y-10420874D01*
X554463339Y-10488360D01*
X554499775Y-10553890D01*
X554540047Y-10617465D01*
X554584153Y-10679084D01*
X554632096Y-10738747D01*
X554683873Y-10796454D01*
X554739486Y-10852205D01*
X554798934Y-10906001D01*
X554858726Y-10954062D01*
X554920254Y-10999023D01*
X554983519Y-11040883D01*
X555048520Y-11079642D01*
X555115258Y-11115301D01*
X555183731Y-11147859D01*
X555253942Y-11177316D01*
X555325888Y-11203672D01*
X555399571Y-11226927D01*
X555474991Y-11247082D01*
X555552147Y-11264136D01*
X555631039Y-11278090D01*
X555711668Y-11288942D01*
X555794033Y-11296694D01*
X555878135Y-11301345D01*
X555963973Y-11302896D01*
X556015818Y-11302062D01*
X556067094Y-11299561D01*
X556117799Y-11295393D01*
X556167935Y-11289558D01*
X556217500Y-11282055D01*
X556266495Y-11272885D01*
X556314920Y-11262048D01*
X556362776Y-11249544D01*
X556410061Y-11235372D01*
X556456776Y-11219533D01*
X556502921Y-11202027D01*
X556548496Y-11182854D01*
X556593500Y-11162013D01*
X556637935Y-11139506D01*
X556681800Y-11115331D01*
X556725095Y-11089488D01*
X556767819Y-11061979D01*
X556809974Y-11032802D01*
X556851558Y-11001958D01*
X556892573Y-10969447D01*
X556933017Y-10935268D01*
X556972891Y-10899423D01*
X557012196Y-10861910D01*
X557050930Y-10822729D01*
X557089094Y-10781882D01*
X557126688Y-10739367D01*
X557163712Y-10695185D01*
X557200166Y-10649336D01*
X557236050Y-10601820D01*
X557271364Y-10552636D01*
X557306108Y-10501785D01*
X557340281Y-10449267D01*
X557370109Y-10401378D01*
X557398990Y-10353120D01*
X557426924Y-10304492D01*
X557453911Y-10255494D01*
X557479952Y-10206127D01*
X557505045Y-10156390D01*
X557529191Y-10106283D01*
X557552391Y-10055807D01*
X557574643Y-10004961D01*
X557595949Y-9953745D01*
X557616308Y-9902159D01*
X557635720Y-9850204D01*
X557654185Y-9797879D01*
X557671703Y-9745184D01*
X557688274Y-9692120D01*
X557703898Y-9638686D01*
X557718575Y-9584882D01*
X557732305Y-9530709D01*
X557745089Y-9476165D01*
X557756925Y-9421252D01*
X557767815Y-9365970D01*
X557777757Y-9310318D01*
X557786753Y-9254296D01*
X557794802Y-9197904D01*
X557801904Y-9141142D01*
X557808059Y-9084011D01*
X557813267Y-9026510D01*
X557817528Y-8968640D01*
X557820842Y-8910400D01*
X557823209Y-8851790D01*
X557824630Y-8792810D01*
X557825103Y-8733461D01*
X557824744Y-8681890D01*
X557823667Y-8631284D01*
X557821873Y-8581645D01*
X557816129Y-8485264D01*
X557807514Y-8392748D01*
X557796027Y-8304095D01*
X557781668Y-8219307D01*
X557764437Y-8138382D01*
X557744335Y-8061322D01*
X557721361Y-7988125D01*
X557695515Y-7918793D01*
X557666797Y-7853324D01*
X557635208Y-7791720D01*
X557600747Y-7733979D01*
X557563414Y-7680103D01*
X557523209Y-7630090D01*
X557480133Y-7583942D01*
X557457518Y-7562316D01*
X557411818Y-7523128D01*
X557362339Y-7486467D01*
X557309083Y-7452335D01*
X557252049Y-7420732D01*
X557191236Y-7391656D01*
X557126645Y-7365109D01*
X557058276Y-7341090D01*
X556986129Y-7319600D01*
X556910204Y-7300638D01*
X556830501Y-7284204D01*
X556747019Y-7270298D01*
X556659760Y-7258921D01*
X556568722Y-7250072D01*
X556473906Y-7243751D01*
X556425081Y-7241539D01*
X556375312Y-7239959D01*
X556324598Y-7239011D01*
X556272940Y-7238695D01*
X556220603Y-7239525D01*
X556168770Y-7242015D01*
X556117439Y-7246165D01*
X556066612Y-7251975D01*
X556016288Y-7259446D01*
X555966468Y-7268576D01*
X555917150Y-7279367D01*
X555868336Y-7291817D01*
X555820026Y-7305928D01*
X555772218Y-7321699D01*
X555724914Y-7339130D01*
X555678113Y-7358221D01*
X555631816Y-7378972D01*
X555586021Y-7401383D01*
X555540730Y-7425454D01*
X555495942Y-7451186D01*
X555451658Y-7478577D01*
X555407877Y-7507629D01*
X555364599Y-7538340D01*
X555321824Y-7570712D01*
X555279553Y-7604744D01*
X555237784Y-7640436D01*
X555196520Y-7677788D01*
X555155758Y-7716800D01*
X555115500Y-7757472D01*
X555075745Y-7799804D01*
X555036493Y-7843797D01*
X554997744Y-7889449D01*
X554959499Y-7936762D01*
X554921757Y-7985734D01*
X554884518Y-8036367D01*
X554847783Y-8088660D01*
X554814574Y-8137663D01*
X554782419Y-8186977D01*
X554751319Y-8236601D01*
X554721273Y-8286535D01*
X554692281Y-8336778D01*
X554664343Y-8387332D01*
X554637460Y-8438196D01*
X554611631Y-8489371D01*
X554586856Y-8540855D01*
X554563135Y-8592649D01*
X554540469Y-8644753D01*
X554518857Y-8697168D01*
X554498299Y-8749892D01*
X554478795Y-8802927D01*
X554460346Y-8856272D01*
X554442950Y-8909926D01*
X554426610Y-8963891D01*
X554411323Y-9018166D01*
X554397091Y-9072751D01*
X554383912Y-9127646D01*
X554371789Y-9182851D01*
X554360719Y-9238366D01*
X554350704Y-9294191D01*
X554341742Y-9350327D01*
X554333835Y-9406772D01*
X554326983Y-9463527D01*
X554321184Y-9520593D01*
X554316440Y-9577969D01*
X554312750Y-9635654D01*
X554310115Y-9693650D01*
X554308533Y-9751956D01*
X554308006Y-9810572D01*
X553607043Y-9810572D01*
X553607029Y-9809351D01*
X553607717Y-9734461D01*
X553609782Y-9660000D01*
X553613222Y-9585968D01*
X553618039Y-9512366D01*
X553624232Y-9439194D01*
X553631802Y-9366450D01*
X553640748Y-9294136D01*
X553651069Y-9222252D01*
X553662768Y-9150796D01*
X553675842Y-9079770D01*
X553690293Y-9009174D01*
X553706119Y-8939006D01*
X553723323Y-8869268D01*
X553741902Y-8799960D01*
X553761858Y-8731080D01*
X553783190Y-8662630D01*
X553805898Y-8594610D01*
X553829982Y-8527018D01*
X553855443Y-8459856D01*
X553882280Y-8393124D01*
X553910493Y-8326820D01*
X553940082Y-8260946D01*
X553971048Y-8195502D01*
X554003390Y-8130486D01*
X554037108Y-8065900D01*
X554072202Y-8001744D01*
X554108673Y-7938016D01*
X554146520Y-7874718D01*
X554185743Y-7811850D01*
X554226342Y-7749410D01*
X554268318Y-7687400D01*
X554311670Y-7625819D01*
X554361203Y-7558725D01*
X554411495Y-7493761D01*
X554462545Y-7430927D01*
X554514353Y-7370223D01*
X554566920Y-7311649D01*
X554620246Y-7255205D01*
X554674330Y-7200891D01*
X554729173Y-7148706D01*
X554784774Y-7098652D01*
X554841133Y-7050728D01*
X554898251Y-7004933D01*
X554956128Y-6961269D01*
X555014763Y-6919735D01*
X555074156Y-6880330D01*
X555134308Y-6843056D01*
X555195218Y-6807911D01*
X555256887Y-6774897D01*
X555319315Y-6744012D01*
X555382501Y-6715258D01*
X555446445Y-6688633D01*
X555511148Y-6664138D01*
X555576609Y-6641774D01*
X555642829Y-6621539D01*
X555709808Y-6603434D01*
X555777544Y-6587459D01*
X555846040Y-6573615D01*
X555915294Y-6561900D01*
X555985306Y-6552315D01*
X556056077Y-6544860D01*
X556127606Y-6539535D01*
X556199894Y-6536340D01*
X556272940Y-6535275D01*
X556342975Y-6535777D01*
G37*
G36*
X559257588Y-10932868D02*
G01*
X559259906Y-10879387D01*
X559269609Y-10829770D01*
X559290262Y-10776768D01*
X559320967Y-10729025D01*
X559355285Y-10692288D01*
X559394927Y-10660747D01*
X559437831Y-10635731D01*
X559483999Y-10617241D01*
X559533429Y-10605277D01*
X559586123Y-10599839D01*
X559604412Y-10599476D01*
X559656064Y-10603948D01*
X559705687Y-10617365D01*
X559753284Y-10639726D01*
X559798853Y-10671032D01*
X559842394Y-10711282D01*
X559875768Y-10749922D01*
X559899946Y-10782658D01*
X559932368Y-10827953D01*
X559964146Y-10870414D01*
X559995280Y-10910041D01*
X560035790Y-10958470D01*
X560075155Y-11001861D01*
X560113375Y-11040215D01*
X560150450Y-11073531D01*
X560195184Y-11108093D01*
X560212577Y-11119713D01*
X560269632Y-11152450D01*
X560331345Y-11181967D01*
X560397716Y-11208263D01*
X560444552Y-11224006D01*
X560493458Y-11238317D01*
X560544434Y-11251197D01*
X560597480Y-11262646D01*
X560652597Y-11272663D01*
X560709784Y-11281250D01*
X560769042Y-11288406D01*
X560830370Y-11294130D01*
X560893768Y-11298423D01*
X560959236Y-11301286D01*
X561026775Y-11302717D01*
X561061321Y-11302896D01*
X561127581Y-11302075D01*
X561193250Y-11299614D01*
X561258328Y-11295511D01*
X561322814Y-11289767D01*
X561386708Y-11282383D01*
X561450011Y-11273357D01*
X561512722Y-11262691D01*
X561574842Y-11250383D01*
X561636370Y-11236435D01*
X561697307Y-11220845D01*
X561757652Y-11203615D01*
X561817405Y-11184743D01*
X561876567Y-11164230D01*
X561935138Y-11142077D01*
X561993117Y-11118282D01*
X562050505Y-11092847D01*
X562121192Y-11058290D01*
X562187319Y-11022093D01*
X562248885Y-10984254D01*
X562305891Y-10944774D01*
X562358336Y-10903654D01*
X562406221Y-10860892D01*
X562449546Y-10816490D01*
X562488310Y-10770446D01*
X562522513Y-10722762D01*
X562552156Y-10673436D01*
X562577239Y-10622469D01*
X562597761Y-10569862D01*
X562613723Y-10515613D01*
X562625124Y-10459723D01*
X562631965Y-10402193D01*
X562634245Y-10343021D01*
X562629930Y-10270303D01*
X562616986Y-10200525D01*
X562595412Y-10133689D01*
X562565208Y-10069794D01*
X562526375Y-10008839D01*
X562495692Y-9969836D01*
X562461174Y-9932141D01*
X562422820Y-9895753D01*
X562380631Y-9860671D01*
X562334606Y-9826897D01*
X562284746Y-9794430D01*
X562231051Y-9763270D01*
X562173520Y-9733417D01*
X562143317Y-9718981D01*
X562090647Y-9694962D01*
X562036442Y-9672365D01*
X561980700Y-9651189D01*
X561923422Y-9631435D01*
X561864608Y-9613102D01*
X561804258Y-9596191D01*
X561742372Y-9580702D01*
X561678950Y-9566634D01*
X561613992Y-9553988D01*
X561547498Y-9542763D01*
X561479468Y-9532960D01*
X561409901Y-9524579D01*
X561338799Y-9517619D01*
X561266161Y-9512080D01*
X561191986Y-9507963D01*
X561116276Y-9505268D01*
X561049123Y-9501900D01*
X560983221Y-9496987D01*
X560918568Y-9490528D01*
X560855165Y-9482523D01*
X560793012Y-9472973D01*
X560732108Y-9461877D01*
X560672455Y-9449235D01*
X560614051Y-9435048D01*
X560556898Y-9419316D01*
X560500994Y-9402037D01*
X560446340Y-9383214D01*
X560392935Y-9362844D01*
X560340781Y-9340929D01*
X560289876Y-9317468D01*
X560240221Y-9292462D01*
X560191817Y-9265910D01*
X560132812Y-9229703D01*
X560077614Y-9191607D01*
X560026223Y-9151622D01*
X559978638Y-9109747D01*
X559934861Y-9065984D01*
X559894890Y-9020332D01*
X559858726Y-8972790D01*
X559826368Y-8923360D01*
X559797818Y-8872040D01*
X559773074Y-8818831D01*
X559752136Y-8763734D01*
X559735006Y-8706747D01*
X559721682Y-8647871D01*
X559712166Y-8587106D01*
X559706455Y-8524452D01*
X559704552Y-8459909D01*
X559707262Y-8383082D01*
X559715390Y-8307085D01*
X559728938Y-8231919D01*
X559747905Y-8157582D01*
X559772291Y-8084075D01*
X559802097Y-8011399D01*
X559837321Y-7939552D01*
X559877964Y-7868536D01*
X559924027Y-7798349D01*
X559975509Y-7728993D01*
X560032410Y-7660467D01*
X560094730Y-7592770D01*
X560162469Y-7525904D01*
X560235628Y-7459868D01*
X560274239Y-7427161D01*
X560314205Y-7394662D01*
X560355526Y-7362370D01*
X560398202Y-7330286D01*
X560439690Y-7300608D01*
X560481263Y-7271872D01*
X560522923Y-7244079D01*
X560564668Y-7217228D01*
X560606500Y-7191319D01*
X560690420Y-7142327D01*
X560774684Y-7097104D01*
X560859291Y-7055650D01*
X560944242Y-7017964D01*
X561029536Y-6984046D01*
X561115174Y-6953898D01*
X561201155Y-6927517D01*
X561287479Y-6904906D01*
X561374147Y-6886063D01*
X561461159Y-6870989D01*
X561548514Y-6859683D01*
X561636212Y-6852146D01*
X561724254Y-6848377D01*
X561768404Y-6847906D01*
X561831666Y-6848990D01*
X561896431Y-6852242D01*
X561962699Y-6857663D01*
X562030469Y-6865251D01*
X562099742Y-6875008D01*
X562170518Y-6886932D01*
X562218536Y-6896087D01*
X562267222Y-6906205D01*
X562316577Y-6917286D01*
X562366599Y-6929331D01*
X562417289Y-6942340D01*
X562468646Y-6956313D01*
X562520672Y-6971249D01*
X562587958Y-6991594D01*
X562650903Y-7012636D01*
X562709507Y-7034375D01*
X562763770Y-7056810D01*
X562813692Y-7079941D01*
X562859273Y-7103769D01*
X562919505Y-7140817D01*
X562969969Y-7179432D01*
X563010666Y-7219614D01*
X563041596Y-7261363D01*
X563067642Y-7319466D01*
X563076325Y-7380355D01*
X563073609Y-7438845D01*
X563065462Y-7491581D01*
X563051885Y-7538565D01*
X563025333Y-7592260D01*
X562989126Y-7635728D01*
X562943263Y-7668967D01*
X562887746Y-7691980D01*
X562839772Y-7702527D01*
X562786366Y-7707321D01*
X562767357Y-7707641D01*
X562708396Y-7704850D01*
X562648241Y-7698261D01*
X562592905Y-7690199D01*
X562531157Y-7679657D01*
X562480639Y-7670122D01*
X562426515Y-7659192D01*
X562368784Y-7646866D01*
X562307446Y-7633146D01*
X562286199Y-7628262D01*
X562223209Y-7613890D01*
X562162923Y-7600999D01*
X562105342Y-7589590D01*
X562050466Y-7579661D01*
X561998295Y-7571214D01*
X561948829Y-7564248D01*
X561887081Y-7557264D01*
X561830142Y-7552914D01*
X561778012Y-7551197D01*
X561753750Y-7551325D01*
X561687513Y-7552971D01*
X561622526Y-7556382D01*
X561558789Y-7561558D01*
X561496302Y-7568499D01*
X561435065Y-7577205D01*
X561375078Y-7587676D01*
X561316340Y-7599912D01*
X561258852Y-7613913D01*
X561202615Y-7629679D01*
X561147627Y-7647210D01*
X561093888Y-7666506D01*
X561041400Y-7687567D01*
X560990161Y-7710393D01*
X560940173Y-7734985D01*
X560891434Y-7761341D01*
X560843945Y-7789462D01*
X560797362Y-7819477D01*
X560753785Y-7850294D01*
X560713213Y-7881912D01*
X560675646Y-7914331D01*
X560624931Y-7964463D01*
X560580978Y-8016398D01*
X560543787Y-8070136D01*
X560513358Y-8125678D01*
X560489691Y-8183022D01*
X560472786Y-8242170D01*
X560462643Y-8303121D01*
X560459262Y-8365875D01*
X560467200Y-8427623D01*
X560491014Y-8484638D01*
X560530703Y-8536922D01*
X560570889Y-8573029D01*
X560620005Y-8606474D01*
X560678051Y-8637257D01*
X560745027Y-8665378D01*
X560794638Y-8682647D01*
X560848219Y-8698732D01*
X560905769Y-8713635D01*
X560967288Y-8727355D01*
X561020124Y-8737334D01*
X561083990Y-8747123D01*
X561139127Y-8754339D01*
X561200468Y-8761449D01*
X561268013Y-8768450D01*
X561341761Y-8775345D01*
X561394374Y-8779881D01*
X561449744Y-8784370D01*
X561507870Y-8788811D01*
X561568755Y-8793205D01*
X561632396Y-8797551D01*
X561698795Y-8801849D01*
X561747614Y-8805882D01*
X561843240Y-8816167D01*
X561936186Y-8829410D01*
X562026451Y-8845610D01*
X562114035Y-8864768D01*
X562198938Y-8886883D01*
X562281160Y-8911956D01*
X562360701Y-8939987D01*
X562437562Y-8970975D01*
X562511741Y-9004921D01*
X562583239Y-9041825D01*
X562652056Y-9081686D01*
X562718193Y-9124505D01*
X562781648Y-9170281D01*
X562842423Y-9219015D01*
X562900516Y-9270707D01*
X562928558Y-9297662D01*
X562977654Y-9348414D01*
X563023583Y-9400530D01*
X563066345Y-9454011D01*
X563105939Y-9508855D01*
X563142366Y-9565065D01*
X563175625Y-9622638D01*
X563205716Y-9681576D01*
X563232640Y-9741878D01*
X563256396Y-9803545D01*
X563276985Y-9866576D01*
X563294407Y-9930971D01*
X563308661Y-9996731D01*
X563319747Y-10063854D01*
X563327666Y-10132343D01*
X563332417Y-10202195D01*
X563334001Y-10273412D01*
X563333263Y-10324305D01*
X563331048Y-10374553D01*
X563327357Y-10424158D01*
X563322189Y-10473119D01*
X563307425Y-10569108D01*
X563286755Y-10662521D01*
X563260179Y-10753359D01*
X563227698Y-10841620D01*
X563189311Y-10927305D01*
X563145018Y-11010415D01*
X563094819Y-11090948D01*
X563038715Y-11168905D01*
X562976705Y-11244287D01*
X562943485Y-11281011D01*
X562908789Y-11317092D01*
X562872617Y-11352529D01*
X562834968Y-11387321D01*
X562795842Y-11421470D01*
X562755241Y-11454975D01*
X562713162Y-11487836D01*
X562669608Y-11520052D01*
X562624577Y-11551625D01*
X562578069Y-11582554D01*
X562495279Y-11633868D01*
X562410858Y-11681873D01*
X562324806Y-11726566D01*
X562237121Y-11767949D01*
X562147806Y-11806021D01*
X562056859Y-11840783D01*
X561964280Y-11872234D01*
X561917379Y-11886718D01*
X561870070Y-11900375D01*
X561822353Y-11913203D01*
X561774229Y-11925204D01*
X561725696Y-11936378D01*
X561676756Y-11946723D01*
X561627408Y-11956242D01*
X561577651Y-11964932D01*
X561527487Y-11972795D01*
X561476916Y-11979830D01*
X561425936Y-11986037D01*
X561374548Y-11991417D01*
X561322753Y-11995969D01*
X561270549Y-11999694D01*
X561217938Y-12002590D01*
X561164919Y-12004660D01*
X561111492Y-12005901D01*
X561057657Y-12006315D01*
X560979457Y-12005356D01*
X560902086Y-12002480D01*
X560825546Y-11997685D01*
X560749835Y-11990973D01*
X560674955Y-11982344D01*
X560600904Y-11971797D01*
X560527684Y-11959332D01*
X560455293Y-11944949D01*
X560383733Y-11928649D01*
X560313003Y-11910431D01*
X560243103Y-11890295D01*
X560174033Y-11868241D01*
X560105792Y-11844270D01*
X560038382Y-11818382D01*
X559971802Y-11790575D01*
X559906052Y-11760851D01*
X559828672Y-11722268D01*
X559756206Y-11681930D01*
X559688652Y-11639836D01*
X559626013Y-11595987D01*
X559568286Y-11550382D01*
X559515474Y-11503022D01*
X559467574Y-11453906D01*
X559424589Y-11403035D01*
X559386516Y-11350408D01*
X559353358Y-11296026D01*
X559325112Y-11239889D01*
X559301780Y-11181995D01*
X559283362Y-11122347D01*
X559269857Y-11060942D01*
X559261266Y-10997783D01*
X559257588Y-10932868D01*
G37*
G36*
X564108251Y-10932868D02*
G01*
X564110569Y-10879387D01*
X564120272Y-10829770D01*
X564140925Y-10776768D01*
X564171630Y-10729025D01*
X564205948Y-10692288D01*
X564245589Y-10660747D01*
X564288494Y-10635731D01*
X564334662Y-10617241D01*
X564384092Y-10605277D01*
X564436786Y-10599839D01*
X564455075Y-10599476D01*
X564506727Y-10603948D01*
X564556350Y-10617365D01*
X564603947Y-10639726D01*
X564649516Y-10671032D01*
X564693057Y-10711282D01*
X564726431Y-10749922D01*
X564750609Y-10782658D01*
X564783031Y-10827953D01*
X564814809Y-10870414D01*
X564845943Y-10910041D01*
X564886453Y-10958470D01*
X564925818Y-11001861D01*
X564964038Y-11040215D01*
X565001113Y-11073531D01*
X565045847Y-11108093D01*
X565063240Y-11119713D01*
X565120295Y-11152450D01*
X565182008Y-11181967D01*
X565248379Y-11208263D01*
X565295215Y-11224006D01*
X565344121Y-11238317D01*
X565395097Y-11251197D01*
X565448143Y-11262646D01*
X565503260Y-11272663D01*
X565560447Y-11281250D01*
X565619705Y-11288406D01*
X565681033Y-11294130D01*
X565744431Y-11298423D01*
X565809899Y-11301286D01*
X565877438Y-11302717D01*
X565911984Y-11302896D01*
X565978244Y-11302075D01*
X566043913Y-11299614D01*
X566108991Y-11295511D01*
X566173476Y-11289767D01*
X566237371Y-11282383D01*
X566300674Y-11273357D01*
X566363385Y-11262691D01*
X566425505Y-11250383D01*
X566487033Y-11236435D01*
X566547969Y-11220845D01*
X566608315Y-11203615D01*
X566668068Y-11184743D01*
X566727230Y-11164230D01*
X566785801Y-11142077D01*
X566843780Y-11118282D01*
X566901168Y-11092847D01*
X566971855Y-11058290D01*
X567037982Y-11022093D01*
X567099548Y-10984254D01*
X567156554Y-10944774D01*
X567208999Y-10903654D01*
X567256884Y-10860892D01*
X567300209Y-10816490D01*
X567338973Y-10770446D01*
X567373176Y-10722762D01*
X567402819Y-10673436D01*
X567427902Y-10622469D01*
X567448424Y-10569862D01*
X567464386Y-10515613D01*
X567475787Y-10459723D01*
X567482628Y-10402193D01*
X567484908Y-10343021D01*
X567480593Y-10270303D01*
X567467649Y-10200525D01*
X567446075Y-10133689D01*
X567415871Y-10069794D01*
X567377038Y-10008839D01*
X567346355Y-9969836D01*
X567311837Y-9932141D01*
X567273483Y-9895753D01*
X567231294Y-9860671D01*
X567185269Y-9826897D01*
X567135409Y-9794430D01*
X567081714Y-9763270D01*
X567024183Y-9733417D01*
X566993980Y-9718981D01*
X566941310Y-9694962D01*
X566887104Y-9672365D01*
X566831363Y-9651189D01*
X566774085Y-9631435D01*
X566715271Y-9613102D01*
X566654921Y-9596191D01*
X566593035Y-9580702D01*
X566529613Y-9566634D01*
X566464655Y-9553988D01*
X566398161Y-9542763D01*
X566330131Y-9532960D01*
X566260564Y-9524579D01*
X566189462Y-9517619D01*
X566116824Y-9512080D01*
X566042649Y-9507963D01*
X565966939Y-9505268D01*
X565899786Y-9501900D01*
X565833884Y-9496987D01*
X565769231Y-9490528D01*
X565705828Y-9482523D01*
X565643675Y-9472973D01*
X565582771Y-9461877D01*
X565523118Y-9449235D01*
X565464714Y-9435048D01*
X565407561Y-9419316D01*
X565351657Y-9402037D01*
X565297002Y-9383214D01*
X565243598Y-9362844D01*
X565191444Y-9340929D01*
X565140539Y-9317468D01*
X565090884Y-9292462D01*
X565042479Y-9265910D01*
X564983475Y-9229703D01*
X564928277Y-9191607D01*
X564876886Y-9151622D01*
X564829301Y-9109747D01*
X564785524Y-9065984D01*
X564745553Y-9020332D01*
X564709389Y-8972790D01*
X564677031Y-8923360D01*
X564648480Y-8872040D01*
X564623737Y-8818831D01*
X564602799Y-8763734D01*
X564585669Y-8706747D01*
X564572345Y-8647871D01*
X564562828Y-8587106D01*
X564557118Y-8524452D01*
X564555215Y-8459909D01*
X564557925Y-8383082D01*
X564566053Y-8307085D01*
X564579601Y-8231919D01*
X564598568Y-8157582D01*
X564622954Y-8084075D01*
X564652759Y-8011399D01*
X564687984Y-7939552D01*
X564728627Y-7868536D01*
X564774690Y-7798349D01*
X564826172Y-7728993D01*
X564883073Y-7660467D01*
X564945393Y-7592770D01*
X565013132Y-7525904D01*
X565086291Y-7459868D01*
X565124902Y-7427161D01*
X565164868Y-7394662D01*
X565206189Y-7362370D01*
X565248865Y-7330286D01*
X565290353Y-7300608D01*
X565331926Y-7271872D01*
X565373586Y-7244079D01*
X565415331Y-7217228D01*
X565457163Y-7191319D01*
X565541083Y-7142327D01*
X565625347Y-7097104D01*
X565709954Y-7055650D01*
X565794905Y-7017964D01*
X565880199Y-6984046D01*
X565965837Y-6953898D01*
X566051818Y-6927517D01*
X566138142Y-6904906D01*
X566224810Y-6886063D01*
X566311822Y-6870989D01*
X566399177Y-6859683D01*
X566486875Y-6852146D01*
X566574917Y-6848377D01*
X566619067Y-6847906D01*
X566682329Y-6848990D01*
X566747094Y-6852242D01*
X566813362Y-6857663D01*
X566881132Y-6865251D01*
X566950405Y-6875008D01*
X567021180Y-6886932D01*
X567069199Y-6896087D01*
X567117885Y-6906205D01*
X567167240Y-6917286D01*
X567217262Y-6929331D01*
X567267952Y-6942340D01*
X567319309Y-6956313D01*
X567371335Y-6971249D01*
X567438621Y-6991594D01*
X567501566Y-7012636D01*
X567560170Y-7034375D01*
X567614433Y-7056810D01*
X567664355Y-7079941D01*
X567709936Y-7103769D01*
X567770168Y-7140817D01*
X567820632Y-7179432D01*
X567861329Y-7219614D01*
X567892259Y-7261363D01*
X567918305Y-7319466D01*
X567926987Y-7380355D01*
X567924272Y-7438845D01*
X567916125Y-7491581D01*
X567902548Y-7538565D01*
X567875996Y-7592260D01*
X567839789Y-7635728D01*
X567793926Y-7668967D01*
X567738409Y-7691980D01*
X567690434Y-7702527D01*
X567637029Y-7707321D01*
X567618020Y-7707641D01*
X567559059Y-7704850D01*
X567498904Y-7698261D01*
X567443568Y-7690199D01*
X567381820Y-7679657D01*
X567331302Y-7670122D01*
X567277177Y-7659192D01*
X567219446Y-7646866D01*
X567158109Y-7633146D01*
X567136862Y-7628262D01*
X567073872Y-7613890D01*
X567013586Y-7600999D01*
X566956005Y-7589590D01*
X566901129Y-7579661D01*
X566848958Y-7571214D01*
X566799492Y-7564248D01*
X566737744Y-7557264D01*
X566680805Y-7552914D01*
X566628675Y-7551197D01*
X566604412Y-7551325D01*
X566538176Y-7552971D01*
X566473189Y-7556382D01*
X566409452Y-7561558D01*
X566346965Y-7568499D01*
X566285728Y-7577205D01*
X566225741Y-7587676D01*
X566167003Y-7599912D01*
X566109515Y-7613913D01*
X566053278Y-7629679D01*
X565998289Y-7647210D01*
X565944551Y-7666506D01*
X565892063Y-7687567D01*
X565840824Y-7710393D01*
X565790836Y-7734985D01*
X565742097Y-7761341D01*
X565694608Y-7789462D01*
X565648025Y-7819477D01*
X565604448Y-7850294D01*
X565563876Y-7881912D01*
X565526309Y-7914331D01*
X565475594Y-7964463D01*
X565431641Y-8016398D01*
X565394450Y-8070136D01*
X565364021Y-8125678D01*
X565340354Y-8183022D01*
X565323449Y-8242170D01*
X565313306Y-8303121D01*
X565309925Y-8365875D01*
X565317863Y-8427623D01*
X565341677Y-8484638D01*
X565381366Y-8536922D01*
X565421552Y-8573029D01*
X565470668Y-8606474D01*
X565528714Y-8637257D01*
X565595690Y-8665378D01*
X565645301Y-8682647D01*
X565698882Y-8698732D01*
X565756432Y-8713635D01*
X565817950Y-8727355D01*
X565870787Y-8737334D01*
X565934653Y-8747123D01*
X565989790Y-8754339D01*
X566051131Y-8761449D01*
X566118676Y-8768450D01*
X566192424Y-8775345D01*
X566245037Y-8779881D01*
X566300406Y-8784370D01*
X566358533Y-8788811D01*
X566419418Y-8793205D01*
X566483059Y-8797551D01*
X566549458Y-8801849D01*
X566598277Y-8805882D01*
X566693903Y-8816167D01*
X566786849Y-8829410D01*
X566877114Y-8845610D01*
X566964698Y-8864768D01*
X567049601Y-8886883D01*
X567131823Y-8911956D01*
X567211364Y-8939987D01*
X567288224Y-8970975D01*
X567362404Y-9004921D01*
X567433902Y-9041825D01*
X567502719Y-9081686D01*
X567568856Y-9124505D01*
X567632311Y-9170281D01*
X567693086Y-9219015D01*
X567751179Y-9270707D01*
X567779221Y-9297662D01*
X567828317Y-9348414D01*
X567874246Y-9400530D01*
X567917008Y-9454011D01*
X567956602Y-9508855D01*
X567993028Y-9565065D01*
X568026287Y-9622638D01*
X568056379Y-9681576D01*
X568083303Y-9741878D01*
X568107059Y-9803545D01*
X568127648Y-9866576D01*
X568145070Y-9930971D01*
X568159323Y-9996731D01*
X568170410Y-10063854D01*
X568178329Y-10132343D01*
X568183080Y-10202195D01*
X568184664Y-10273412D01*
X568183925Y-10324305D01*
X568181711Y-10374553D01*
X568178020Y-10424158D01*
X568172852Y-10473119D01*
X568158088Y-10569108D01*
X568137418Y-10662521D01*
X568110842Y-10753359D01*
X568078361Y-10841620D01*
X568039974Y-10927305D01*
X567995681Y-11010415D01*
X567945482Y-11090948D01*
X567889378Y-11168905D01*
X567827368Y-11244287D01*
X567794148Y-11281011D01*
X567759452Y-11317092D01*
X567723280Y-11352529D01*
X567685631Y-11387321D01*
X567646505Y-11421470D01*
X567605904Y-11454975D01*
X567563825Y-11487836D01*
X567520271Y-11520052D01*
X567475240Y-11551625D01*
X567428732Y-11582554D01*
X567345942Y-11633868D01*
X567261521Y-11681873D01*
X567175468Y-11726566D01*
X567087784Y-11767949D01*
X566998469Y-11806021D01*
X566907522Y-11840783D01*
X566814943Y-11872234D01*
X566768042Y-11886718D01*
X566720733Y-11900375D01*
X566673016Y-11913203D01*
X566624892Y-11925204D01*
X566576359Y-11936378D01*
X566527419Y-11946723D01*
X566478070Y-11956242D01*
X566428314Y-11964932D01*
X566378150Y-11972795D01*
X566327578Y-11979830D01*
X566276599Y-11986037D01*
X566225211Y-11991417D01*
X566173416Y-11995969D01*
X566121212Y-11999694D01*
X566068601Y-12002590D01*
X566015582Y-12004660D01*
X565962155Y-12005901D01*
X565908320Y-12006315D01*
X565830120Y-12005356D01*
X565752749Y-12002480D01*
X565676209Y-11997685D01*
X565600498Y-11990973D01*
X565525618Y-11982344D01*
X565451567Y-11971797D01*
X565378347Y-11959332D01*
X565305956Y-11944949D01*
X565234396Y-11928649D01*
X565163666Y-11910431D01*
X565093766Y-11890295D01*
X565024696Y-11868241D01*
X564956455Y-11844270D01*
X564889045Y-11818382D01*
X564822465Y-11790575D01*
X564756715Y-11760851D01*
X564679335Y-11722268D01*
X564606869Y-11681930D01*
X564539315Y-11639836D01*
X564476676Y-11595987D01*
X564418949Y-11550382D01*
X564366137Y-11503022D01*
X564318237Y-11453906D01*
X564275252Y-11403035D01*
X564237179Y-11350408D01*
X564204020Y-11296026D01*
X564175775Y-11239889D01*
X564152443Y-11181995D01*
X564134025Y-11122347D01*
X564120520Y-11060942D01*
X564111929Y-10997783D01*
X564108251Y-10932868D01*
G37*
G36*
X571212054Y-12006315D02*
G01*
X571145799Y-12005710D01*
X571080606Y-12003896D01*
X571016475Y-12000873D01*
X570953404Y-11996641D01*
X570891396Y-11991199D01*
X570830448Y-11984548D01*
X570770562Y-11976687D01*
X570711738Y-11967618D01*
X570653974Y-11957339D01*
X570597273Y-11945851D01*
X570541632Y-11933153D01*
X570487053Y-11919246D01*
X570433536Y-11904130D01*
X570381080Y-11887805D01*
X570329685Y-11870270D01*
X570279351Y-11851526D01*
X570230079Y-11831573D01*
X570181869Y-11810410D01*
X570134720Y-11788038D01*
X570088632Y-11764457D01*
X570043606Y-11739667D01*
X569999641Y-11713667D01*
X569956737Y-11686458D01*
X569914895Y-11658040D01*
X569874115Y-11628412D01*
X569834395Y-11597575D01*
X569795737Y-11565529D01*
X569758141Y-11532274D01*
X569721606Y-11497809D01*
X569686132Y-11462135D01*
X569651720Y-11425252D01*
X569618369Y-11387159D01*
X569566329Y-11323165D01*
X569516760Y-11255440D01*
X569469663Y-11183985D01*
X569425036Y-11108799D01*
X569382880Y-11029883D01*
X569343195Y-10947236D01*
X569305982Y-10860859D01*
X569271239Y-10770751D01*
X569254794Y-10724299D01*
X569238968Y-10676914D01*
X569223758Y-10628596D01*
X569209167Y-10579345D01*
X569195193Y-10529162D01*
X569181838Y-10478046D01*
X569169100Y-10425998D01*
X569156979Y-10373017D01*
X569145477Y-10319104D01*
X569134592Y-10264258D01*
X569124325Y-10208479D01*
X569114676Y-10151768D01*
X569105644Y-10094124D01*
X569097230Y-10035547D01*
X569089434Y-9976038D01*
X569082256Y-9915596D01*
X569076045Y-9857374D01*
X569070235Y-9792311D01*
X569064825Y-9720407D01*
X569059816Y-9641663D01*
X569055208Y-9556077D01*
X569051001Y-9463651D01*
X569047194Y-9364385D01*
X569045441Y-9312186D01*
X569043788Y-9258278D01*
X569042235Y-9202659D01*
X569040783Y-9145330D01*
X569039430Y-9086290D01*
X569038178Y-9025541D01*
X569037026Y-8963081D01*
X569035974Y-8898911D01*
X569035022Y-8833031D01*
X569034171Y-8765441D01*
X569033420Y-8696141D01*
X569032768Y-8625130D01*
X569032217Y-8552410D01*
X569031767Y-8477979D01*
X569031416Y-8401838D01*
X569031166Y-8323987D01*
X569031015Y-8244425D01*
X569030965Y-8163154D01*
X569031046Y-8103433D01*
X569031290Y-8045173D01*
X569031695Y-7988372D01*
X569032263Y-7933031D01*
X569032993Y-7879150D01*
X569033885Y-7826728D01*
X569034939Y-7775766D01*
X569036155Y-7726264D01*
X569038284Y-7654748D01*
X569040778Y-7586516D01*
X569043636Y-7521569D01*
X569046860Y-7459906D01*
X569050449Y-7401527D01*
X569051726Y-7382798D01*
X569055801Y-7325407D01*
X569060241Y-7271386D01*
X569065046Y-7220735D01*
X569072020Y-7158444D01*
X569079643Y-7102144D01*
X569087915Y-7051836D01*
X569099167Y-6997376D01*
X569114008Y-6944382D01*
X569137516Y-6885134D01*
X569165299Y-6833786D01*
X569197356Y-6790337D01*
X569233687Y-6754788D01*
X569274292Y-6727139D01*
X569319172Y-6707390D01*
X569368326Y-6695540D01*
X569421754Y-6691591D01*
X569478279Y-6696624D01*
X569529244Y-6711726D01*
X569574650Y-6736896D01*
X569614496Y-6772133D01*
X569648781Y-6817439D01*
X569677507Y-6872812D01*
X569700674Y-6938253D01*
X569713029Y-6987474D01*
X569722913Y-7041169D01*
X569730326Y-7099339D01*
X569735268Y-7161983D01*
X569737739Y-7229103D01*
X569738048Y-7264340D01*
X569738048Y-9251256D01*
X569739471Y-9377480D01*
X569743739Y-9499696D01*
X569750853Y-9617906D01*
X569760812Y-9732109D01*
X569773617Y-9842304D01*
X569789268Y-9948493D01*
X569807764Y-10050674D01*
X569829105Y-10148848D01*
X569853292Y-10243015D01*
X569880324Y-10333175D01*
X569910202Y-10419328D01*
X569942926Y-10501474D01*
X569978495Y-10579612D01*
X570016910Y-10653744D01*
X570058170Y-10723868D01*
X570102275Y-10789986D01*
X570149226Y-10852096D01*
X570199023Y-10910199D01*
X570251665Y-10964295D01*
X570307153Y-11014384D01*
X570365486Y-11060465D01*
X570426665Y-11102540D01*
X570490689Y-11140608D01*
X570557559Y-11174668D01*
X570627275Y-11204721D01*
X570699836Y-11230768D01*
X570775242Y-11252807D01*
X570853494Y-11270839D01*
X570934591Y-11284864D01*
X571018534Y-11294881D01*
X571105323Y-11300892D01*
X571194957Y-11302896D01*
X571279256Y-11299536D01*
X571360880Y-11289457D01*
X571439827Y-11272660D01*
X571516098Y-11249143D01*
X571589693Y-11218907D01*
X571660611Y-11181952D01*
X571728854Y-11138278D01*
X571794420Y-11087885D01*
X571857310Y-11030773D01*
X571917524Y-10966942D01*
X571975062Y-10896392D01*
X572029924Y-10819123D01*
X572082109Y-10735135D01*
X572131619Y-10644427D01*
X572178452Y-10547001D01*
X572222609Y-10442855D01*
X572264089Y-10331991D01*
X572302894Y-10214407D01*
X572339022Y-10090105D01*
X572372474Y-9959083D01*
X572403250Y-9821342D01*
X572431350Y-9676882D01*
X572456774Y-9525703D01*
X572479522Y-9367805D01*
X572499593Y-9203188D01*
X572516988Y-9031852D01*
X572531707Y-8853797D01*
X572543750Y-8669023D01*
X572553116Y-8477529D01*
X572559807Y-8279317D01*
X572563821Y-8074386D01*
X572565159Y-7862735D01*
X572565159Y-7812031D01*
X572565159Y-7756089D01*
X572565159Y-7705469D01*
X572565159Y-7651212D01*
X572565159Y-7593318D01*
X572565159Y-7544383D01*
X572565159Y-7531786D01*
X572564104Y-7471745D01*
X572563227Y-7418323D01*
X572562411Y-7362953D01*
X572561785Y-7310402D01*
X572561496Y-7261898D01*
X572562679Y-7210473D01*
X572566228Y-7160613D01*
X572573991Y-7100489D01*
X572585452Y-7042809D01*
X572600610Y-6987574D01*
X572619465Y-6934784D01*
X572637211Y-6894312D01*
X572662780Y-6846799D01*
X572691250Y-6805621D01*
X572730915Y-6763058D01*
X572775113Y-6730393D01*
X572823842Y-6707626D01*
X572877103Y-6694758D01*
X572922975Y-6691591D01*
X572984302Y-6695734D01*
X573039596Y-6708163D01*
X573088859Y-6728878D01*
X573132089Y-6757880D01*
X573169287Y-6795167D01*
X573200453Y-6840741D01*
X573225587Y-6894601D01*
X573244689Y-6956747D01*
X573257758Y-7027179D01*
X573263120Y-7078737D01*
X573265801Y-7133978D01*
X573266136Y-7162979D01*
X573266265Y-7221168D01*
X573266569Y-7277399D01*
X573266941Y-7327450D01*
X573267428Y-7382004D01*
X573268029Y-7441061D01*
X573268744Y-7504621D01*
X573269356Y-7555247D01*
X573269800Y-7590404D01*
X573269800Y-7642718D01*
X573269800Y-7692500D01*
X573269800Y-7754934D01*
X573269800Y-7812866D01*
X573269800Y-7866294D01*
X573269800Y-7915219D01*
X573269800Y-7970042D01*
X573269800Y-8017829D01*
X573267790Y-8263215D01*
X573261762Y-8500810D01*
X573251714Y-8730615D01*
X573237647Y-8952631D01*
X573219562Y-9166856D01*
X573197457Y-9373291D01*
X573171333Y-9571936D01*
X573141191Y-9762792D01*
X573107029Y-9945857D01*
X573068848Y-10121132D01*
X573026648Y-10288617D01*
X572980429Y-10448313D01*
X572930191Y-10600218D01*
X572875934Y-10744333D01*
X572817658Y-10880658D01*
X572755363Y-11009193D01*
X572689049Y-11129939D01*
X572618716Y-11242894D01*
X572544364Y-11348059D01*
X572465993Y-11445434D01*
X572383603Y-11535019D01*
X572297193Y-11616814D01*
X572206765Y-11690819D01*
X572112318Y-11757035D01*
X572013851Y-11815460D01*
X571911366Y-11866095D01*
X571804861Y-11908940D01*
X571694338Y-11943995D01*
X571579795Y-11971260D01*
X571461234Y-11990735D01*
X571338653Y-12002420D01*
X571212054Y-12006315D01*
G37*
G36*
X574112438Y-10932868D02*
G01*
X574114756Y-10879387D01*
X574124459Y-10829770D01*
X574145112Y-10776768D01*
X574175817Y-10729025D01*
X574210135Y-10692288D01*
X574249776Y-10660747D01*
X574292681Y-10635731D01*
X574338849Y-10617241D01*
X574388279Y-10605277D01*
X574440973Y-10599839D01*
X574459262Y-10599476D01*
X574510914Y-10603948D01*
X574560537Y-10617365D01*
X574608134Y-10639726D01*
X574653703Y-10671032D01*
X574697244Y-10711282D01*
X574730618Y-10749922D01*
X574754796Y-10782658D01*
X574787218Y-10827953D01*
X574818996Y-10870414D01*
X574850130Y-10910041D01*
X574890640Y-10958470D01*
X574930005Y-11001861D01*
X574968225Y-11040215D01*
X575005300Y-11073531D01*
X575050034Y-11108093D01*
X575067427Y-11119713D01*
X575124482Y-11152450D01*
X575186195Y-11181967D01*
X575252566Y-11208263D01*
X575299402Y-11224006D01*
X575348308Y-11238317D01*
X575399284Y-11251197D01*
X575452330Y-11262646D01*
X575507447Y-11272663D01*
X575564634Y-11281250D01*
X575623892Y-11288406D01*
X575685220Y-11294130D01*
X575748618Y-11298423D01*
X575814086Y-11301286D01*
X575881625Y-11302717D01*
X575916171Y-11302896D01*
X575982431Y-11302075D01*
X576048100Y-11299614D01*
X576113178Y-11295511D01*
X576177664Y-11289767D01*
X576241558Y-11282383D01*
X576304861Y-11273357D01*
X576367572Y-11262691D01*
X576429692Y-11250383D01*
X576491220Y-11236435D01*
X576552156Y-11220845D01*
X576612502Y-11203615D01*
X576672255Y-11184743D01*
X576731417Y-11164230D01*
X576789988Y-11142077D01*
X576847967Y-11118282D01*
X576905355Y-11092847D01*
X576976042Y-11058290D01*
X577042169Y-11022093D01*
X577103735Y-10984254D01*
X577160741Y-10944774D01*
X577213186Y-10903654D01*
X577261071Y-10860892D01*
X577304396Y-10816490D01*
X577343160Y-10770446D01*
X577377363Y-10722762D01*
X577407006Y-10673436D01*
X577432089Y-10622469D01*
X577452611Y-10569862D01*
X577468573Y-10515613D01*
X577479974Y-10459723D01*
X577486815Y-10402193D01*
X577489095Y-10343021D01*
X577484780Y-10270303D01*
X577471836Y-10200525D01*
X577450262Y-10133689D01*
X577420058Y-10069794D01*
X577381225Y-10008839D01*
X577350542Y-9969836D01*
X577316024Y-9932141D01*
X577277670Y-9895753D01*
X577235481Y-9860671D01*
X577189456Y-9826897D01*
X577139596Y-9794430D01*
X577085901Y-9763270D01*
X577028370Y-9733417D01*
X576998167Y-9718981D01*
X576945497Y-9694962D01*
X576891292Y-9672365D01*
X576835550Y-9651189D01*
X576778272Y-9631435D01*
X576719458Y-9613102D01*
X576659108Y-9596191D01*
X576597222Y-9580702D01*
X576533800Y-9566634D01*
X576468842Y-9553988D01*
X576402348Y-9542763D01*
X576334318Y-9532960D01*
X576264751Y-9524579D01*
X576193649Y-9517619D01*
X576121011Y-9512080D01*
X576046836Y-9507963D01*
X575971126Y-9505268D01*
X575903973Y-9501900D01*
X575838071Y-9496987D01*
X575773418Y-9490528D01*
X575710015Y-9482523D01*
X575647862Y-9472973D01*
X575586958Y-9461877D01*
X575527305Y-9449235D01*
X575468901Y-9435048D01*
X575411748Y-9419316D01*
X575355844Y-9402037D01*
X575301189Y-9383214D01*
X575247785Y-9362844D01*
X575195631Y-9340929D01*
X575144726Y-9317468D01*
X575095071Y-9292462D01*
X575046666Y-9265910D01*
X574987662Y-9229703D01*
X574932464Y-9191607D01*
X574881073Y-9151622D01*
X574833488Y-9109747D01*
X574789711Y-9065984D01*
X574749740Y-9020332D01*
X574713576Y-8972790D01*
X574681218Y-8923360D01*
X574652667Y-8872040D01*
X574627924Y-8818831D01*
X574606986Y-8763734D01*
X574589856Y-8706747D01*
X574576532Y-8647871D01*
X574567016Y-8587106D01*
X574561305Y-8524452D01*
X574559402Y-8459909D01*
X574562112Y-8383082D01*
X574570240Y-8307085D01*
X574583788Y-8231919D01*
X574602755Y-8157582D01*
X574627141Y-8084075D01*
X574656946Y-8011399D01*
X574692171Y-7939552D01*
X574732814Y-7868536D01*
X574778877Y-7798349D01*
X574830359Y-7728993D01*
X574887260Y-7660467D01*
X574949580Y-7592770D01*
X575017319Y-7525904D01*
X575090478Y-7459868D01*
X575129089Y-7427161D01*
X575169055Y-7394662D01*
X575210376Y-7362370D01*
X575253052Y-7330286D01*
X575294540Y-7300608D01*
X575336113Y-7271872D01*
X575377773Y-7244079D01*
X575419518Y-7217228D01*
X575461350Y-7191319D01*
X575545270Y-7142327D01*
X575629534Y-7097104D01*
X575714141Y-7055650D01*
X575799092Y-7017964D01*
X575884386Y-6984046D01*
X575970024Y-6953898D01*
X576056005Y-6927517D01*
X576142329Y-6904906D01*
X576228997Y-6886063D01*
X576316009Y-6870989D01*
X576403364Y-6859683D01*
X576491062Y-6852146D01*
X576579104Y-6848377D01*
X576623254Y-6847906D01*
X576686516Y-6848990D01*
X576751281Y-6852242D01*
X576817549Y-6857663D01*
X576885319Y-6865251D01*
X576954592Y-6875008D01*
X577025367Y-6886932D01*
X577073386Y-6896087D01*
X577122072Y-6906205D01*
X577171427Y-6917286D01*
X577221449Y-6929331D01*
X577272139Y-6942340D01*
X577323496Y-6956313D01*
X577375522Y-6971249D01*
X577442808Y-6991594D01*
X577505753Y-7012636D01*
X577564357Y-7034375D01*
X577618620Y-7056810D01*
X577668542Y-7079941D01*
X577714123Y-7103769D01*
X577774355Y-7140817D01*
X577824819Y-7179432D01*
X577865516Y-7219614D01*
X577896446Y-7261363D01*
X577922492Y-7319466D01*
X577931175Y-7380355D01*
X577928459Y-7438845D01*
X577920312Y-7491581D01*
X577906735Y-7538565D01*
X577880183Y-7592260D01*
X577843976Y-7635728D01*
X577798113Y-7668967D01*
X577742596Y-7691980D01*
X577694621Y-7702527D01*
X577641216Y-7707321D01*
X577622207Y-7707641D01*
X577563246Y-7704850D01*
X577503091Y-7698261D01*
X577447755Y-7690199D01*
X577386007Y-7679657D01*
X577335489Y-7670122D01*
X577281365Y-7659192D01*
X577223634Y-7646866D01*
X577162296Y-7633146D01*
X577141049Y-7628262D01*
X577078059Y-7613890D01*
X577017773Y-7600999D01*
X576960192Y-7589590D01*
X576905316Y-7579661D01*
X576853145Y-7571214D01*
X576803679Y-7564248D01*
X576741931Y-7557264D01*
X576684992Y-7552914D01*
X576632862Y-7551197D01*
X576608599Y-7551325D01*
X576542363Y-7552971D01*
X576477376Y-7556382D01*
X576413639Y-7561558D01*
X576351152Y-7568499D01*
X576289915Y-7577205D01*
X576229928Y-7587676D01*
X576171190Y-7599912D01*
X576113702Y-7613913D01*
X576057465Y-7629679D01*
X576002477Y-7647210D01*
X575948738Y-7666506D01*
X575896250Y-7687567D01*
X575845011Y-7710393D01*
X575795023Y-7734985D01*
X575746284Y-7761341D01*
X575698795Y-7789462D01*
X575652212Y-7819477D01*
X575608635Y-7850294D01*
X575568063Y-7881912D01*
X575530496Y-7914331D01*
X575479781Y-7964463D01*
X575435828Y-8016398D01*
X575398637Y-8070136D01*
X575368208Y-8125678D01*
X575344541Y-8183022D01*
X575327636Y-8242170D01*
X575317493Y-8303121D01*
X575314112Y-8365875D01*
X575322050Y-8427623D01*
X575345864Y-8484638D01*
X575385553Y-8536922D01*
X575425739Y-8573029D01*
X575474855Y-8606474D01*
X575532901Y-8637257D01*
X575599877Y-8665378D01*
X575649488Y-8682647D01*
X575703069Y-8698732D01*
X575760619Y-8713635D01*
X575822138Y-8727355D01*
X575874974Y-8737334D01*
X575938840Y-8747123D01*
X575993977Y-8754339D01*
X576055318Y-8761449D01*
X576122863Y-8768450D01*
X576196611Y-8775345D01*
X576249224Y-8779881D01*
X576304593Y-8784370D01*
X576362720Y-8788811D01*
X576423605Y-8793205D01*
X576487246Y-8797551D01*
X576553645Y-8801849D01*
X576602464Y-8805882D01*
X576698090Y-8816167D01*
X576791036Y-8829410D01*
X576881301Y-8845610D01*
X576968885Y-8864768D01*
X577053788Y-8886883D01*
X577136010Y-8911956D01*
X577215551Y-8939987D01*
X577292411Y-8970975D01*
X577366591Y-9004921D01*
X577438089Y-9041825D01*
X577506906Y-9081686D01*
X577573043Y-9124505D01*
X577636498Y-9170281D01*
X577697273Y-9219015D01*
X577755366Y-9270707D01*
X577783408Y-9297662D01*
X577832504Y-9348414D01*
X577878433Y-9400530D01*
X577921195Y-9454011D01*
X577960789Y-9508855D01*
X577997215Y-9565065D01*
X578030474Y-9622638D01*
X578060566Y-9681576D01*
X578087490Y-9741878D01*
X578111246Y-9803545D01*
X578131835Y-9866576D01*
X578149257Y-9930971D01*
X578163511Y-9996731D01*
X578174597Y-10063854D01*
X578182516Y-10132343D01*
X578187267Y-10202195D01*
X578188851Y-10273412D01*
X578188112Y-10324305D01*
X578185898Y-10374553D01*
X578182207Y-10424158D01*
X578177039Y-10473119D01*
X578162275Y-10569108D01*
X578141605Y-10662521D01*
X578115029Y-10753359D01*
X578082548Y-10841620D01*
X578044161Y-10927305D01*
X577999868Y-11010415D01*
X577949669Y-11090948D01*
X577893565Y-11168905D01*
X577831555Y-11244287D01*
X577798335Y-11281011D01*
X577763639Y-11317092D01*
X577727467Y-11352529D01*
X577689818Y-11387321D01*
X577650692Y-11421470D01*
X577610091Y-11454975D01*
X577568012Y-11487836D01*
X577524458Y-11520052D01*
X577479427Y-11551625D01*
X577432919Y-11582554D01*
X577350129Y-11633868D01*
X577265708Y-11681873D01*
X577179655Y-11726566D01*
X577091971Y-11767949D01*
X577002656Y-11806021D01*
X576911709Y-11840783D01*
X576819130Y-11872234D01*
X576772229Y-11886718D01*
X576724920Y-11900375D01*
X576677203Y-11913203D01*
X576629079Y-11925204D01*
X576580546Y-11936378D01*
X576531606Y-11946723D01*
X576482257Y-11956242D01*
X576432501Y-11964932D01*
X576382337Y-11972795D01*
X576331765Y-11979830D01*
X576280786Y-11986037D01*
X576229398Y-11991417D01*
X576177603Y-11995969D01*
X576125399Y-11999694D01*
X576072788Y-12002590D01*
X576019769Y-12004660D01*
X575966342Y-12005901D01*
X575912507Y-12006315D01*
X575834307Y-12005356D01*
X575756936Y-12002480D01*
X575680396Y-11997685D01*
X575604685Y-11990973D01*
X575529805Y-11982344D01*
X575455754Y-11971797D01*
X575382534Y-11959332D01*
X575310143Y-11944949D01*
X575238583Y-11928649D01*
X575167853Y-11910431D01*
X575097953Y-11890295D01*
X575028883Y-11868241D01*
X574960642Y-11844270D01*
X574893232Y-11818382D01*
X574826652Y-11790575D01*
X574760902Y-11760851D01*
X574683522Y-11722268D01*
X574611056Y-11681930D01*
X574543502Y-11639836D01*
X574480863Y-11595987D01*
X574423136Y-11550382D01*
X574370324Y-11503022D01*
X574322424Y-11453906D01*
X574279439Y-11403035D01*
X574241366Y-11350408D01*
X574208207Y-11296026D01*
X574179962Y-11239889D01*
X574156630Y-11181995D01*
X574138212Y-11122347D01*
X574124707Y-11060942D01*
X574116116Y-10997783D01*
X574112438Y-10932868D01*
G37*
G36*
X590684915Y-6535777D02*
G01*
X590753817Y-6537283D01*
X590821586Y-6539794D01*
X590888222Y-6543308D01*
X590953725Y-6547827D01*
X591018095Y-6553350D01*
X591081333Y-6559877D01*
X591143437Y-6567408D01*
X591204408Y-6575944D01*
X591264246Y-6585483D01*
X591322952Y-6596027D01*
X591380524Y-6607575D01*
X591436964Y-6620127D01*
X591492270Y-6633683D01*
X591546443Y-6648243D01*
X591599484Y-6663808D01*
X591651392Y-6680377D01*
X591702166Y-6697949D01*
X591751808Y-6716526D01*
X591800316Y-6736108D01*
X591847692Y-6756693D01*
X591893935Y-6778282D01*
X591939045Y-6800876D01*
X591983022Y-6824474D01*
X592025865Y-6849076D01*
X592067576Y-6874682D01*
X592147599Y-6928907D01*
X592223090Y-6987148D01*
X592294050Y-7049406D01*
X592329362Y-7083365D01*
X592363554Y-7118534D01*
X592396624Y-7154911D01*
X592428574Y-7192498D01*
X592459402Y-7231295D01*
X592489110Y-7271300D01*
X592517696Y-7312515D01*
X592545162Y-7354939D01*
X592571506Y-7398572D01*
X592596729Y-7443415D01*
X592620832Y-7489467D01*
X592643813Y-7536728D01*
X592665673Y-7585199D01*
X592686412Y-7634878D01*
X592706031Y-7685767D01*
X592724528Y-7737866D01*
X592741904Y-7791174D01*
X592758159Y-7845690D01*
X592773293Y-7901417D01*
X592787306Y-7958352D01*
X592800198Y-8016497D01*
X592811968Y-8075851D01*
X592822618Y-8136415D01*
X592832147Y-8198187D01*
X592840555Y-8261169D01*
X592847842Y-8325361D01*
X592854007Y-8390761D01*
X592859052Y-8457371D01*
X592862976Y-8525190D01*
X592865778Y-8594218D01*
X592867460Y-8664456D01*
X592868020Y-8735903D01*
X592867389Y-8810777D01*
X592865497Y-8885187D01*
X592862342Y-8959135D01*
X592857926Y-9032620D01*
X592852248Y-9105643D01*
X592845309Y-9178202D01*
X592837107Y-9250299D01*
X592827644Y-9321933D01*
X592816919Y-9393105D01*
X592804932Y-9463814D01*
X592791684Y-9534060D01*
X592777173Y-9603843D01*
X592761401Y-9673164D01*
X592744368Y-9742022D01*
X592726072Y-9810417D01*
X592706515Y-9878349D01*
X592685696Y-9945819D01*
X592663615Y-10012826D01*
X592640272Y-10079370D01*
X592615668Y-10145452D01*
X592589802Y-10211070D01*
X592562674Y-10276226D01*
X592534284Y-10340920D01*
X592504633Y-10405150D01*
X592473720Y-10468918D01*
X592441545Y-10532223D01*
X592408108Y-10595066D01*
X592373409Y-10657446D01*
X592337449Y-10719363D01*
X592300227Y-10780817D01*
X592261743Y-10841808D01*
X592221998Y-10902337D01*
X592175245Y-10970258D01*
X592127645Y-11036022D01*
X592079198Y-11099630D01*
X592029905Y-11161082D01*
X591979765Y-11220378D01*
X591928778Y-11277517D01*
X591876944Y-11332500D01*
X591824264Y-11385327D01*
X591770737Y-11435998D01*
X591716363Y-11484513D01*
X591661142Y-11530871D01*
X591605075Y-11575074D01*
X591548161Y-11617120D01*
X591490400Y-11657009D01*
X591431792Y-11694743D01*
X591372338Y-11730321D01*
X591312037Y-11763742D01*
X591250889Y-11795007D01*
X591188895Y-11824115D01*
X591126054Y-11851068D01*
X591062366Y-11875864D01*
X590997831Y-11898505D01*
X590932449Y-11918989D01*
X590866221Y-11937316D01*
X590799146Y-11953488D01*
X590731225Y-11967503D01*
X590662456Y-11979362D01*
X590592841Y-11989065D01*
X590522379Y-11996612D01*
X590451070Y-12002003D01*
X590378915Y-12005237D01*
X590305913Y-12006315D01*
X590245600Y-12005742D01*
X590185867Y-12004025D01*
X590126713Y-12001163D01*
X590068139Y-11997156D01*
X590010144Y-11992004D01*
X589952729Y-11985707D01*
X589895894Y-11978265D01*
X589839638Y-11969678D01*
X589783962Y-11959947D01*
X589728865Y-11949071D01*
X589674348Y-11937049D01*
X589620411Y-11923883D01*
X589567053Y-11909572D01*
X589514275Y-11894116D01*
X589462076Y-11877515D01*
X589410457Y-11859769D01*
X589359418Y-11840879D01*
X589308958Y-11820843D01*
X589259078Y-11799663D01*
X589209778Y-11777337D01*
X589161057Y-11753867D01*
X589112915Y-11729252D01*
X589065354Y-11703492D01*
X589018371Y-11676587D01*
X588971969Y-11648537D01*
X588926146Y-11619343D01*
X588880902Y-11589003D01*
X588836239Y-11557519D01*
X588792155Y-11524889D01*
X588748650Y-11491115D01*
X588705725Y-11456196D01*
X588663380Y-11420132D01*
X588619427Y-11380701D01*
X588576869Y-11340567D01*
X588535707Y-11299729D01*
X588495940Y-11258188D01*
X588457568Y-11215942D01*
X588420592Y-11172994D01*
X588385011Y-11129341D01*
X588350825Y-11084985D01*
X588318035Y-11039925D01*
X588286640Y-10994162D01*
X588256640Y-10947695D01*
X588228036Y-10900525D01*
X588200827Y-10852650D01*
X588175013Y-10804072D01*
X588150595Y-10754791D01*
X588127572Y-10704806D01*
X588105944Y-10654117D01*
X588085712Y-10602725D01*
X588066875Y-10550629D01*
X588049433Y-10497829D01*
X588033387Y-10444326D01*
X588018736Y-10390119D01*
X588005480Y-10335208D01*
X587993620Y-10279594D01*
X587983155Y-10223277D01*
X587974085Y-10166255D01*
X587966411Y-10108530D01*
X587960132Y-10050101D01*
X587955248Y-9990969D01*
X587951760Y-9931133D01*
X587949667Y-9870594D01*
X587948983Y-9810572D01*
X588649946Y-9810572D01*
X588651864Y-9893705D01*
X588657617Y-9974882D01*
X588667206Y-10054104D01*
X588680629Y-10131369D01*
X588697889Y-10206679D01*
X588718983Y-10280033D01*
X588743913Y-10351431D01*
X588772678Y-10420874D01*
X588805279Y-10488360D01*
X588841715Y-10553890D01*
X588881987Y-10617465D01*
X588926093Y-10679084D01*
X588974036Y-10738747D01*
X589025813Y-10796454D01*
X589081426Y-10852205D01*
X589140874Y-10906001D01*
X589200666Y-10954062D01*
X589262194Y-10999023D01*
X589325459Y-11040883D01*
X589390460Y-11079642D01*
X589457198Y-11115301D01*
X589525671Y-11147859D01*
X589595882Y-11177316D01*
X589667828Y-11203672D01*
X589741511Y-11226927D01*
X589816931Y-11247082D01*
X589894087Y-11264136D01*
X589972979Y-11278090D01*
X590053608Y-11288942D01*
X590135973Y-11296694D01*
X590220075Y-11301345D01*
X590305913Y-11302896D01*
X590357758Y-11302062D01*
X590409034Y-11299561D01*
X590459739Y-11295393D01*
X590509875Y-11289558D01*
X590559440Y-11282055D01*
X590608435Y-11272885D01*
X590656860Y-11262048D01*
X590704716Y-11249544D01*
X590752001Y-11235372D01*
X590798716Y-11219533D01*
X590844861Y-11202027D01*
X590890436Y-11182854D01*
X590935440Y-11162013D01*
X590979875Y-11139506D01*
X591023740Y-11115331D01*
X591067035Y-11089488D01*
X591109759Y-11061979D01*
X591151914Y-11032802D01*
X591193498Y-11001958D01*
X591234513Y-10969447D01*
X591274957Y-10935268D01*
X591314831Y-10899423D01*
X591354136Y-10861910D01*
X591392870Y-10822729D01*
X591431034Y-10781882D01*
X591468628Y-10739367D01*
X591505652Y-10695185D01*
X591542106Y-10649336D01*
X591577990Y-10601820D01*
X591613304Y-10552636D01*
X591648048Y-10501785D01*
X591682221Y-10449267D01*
X591712049Y-10401378D01*
X591740930Y-10353120D01*
X591768864Y-10304492D01*
X591795851Y-10255494D01*
X591821892Y-10206127D01*
X591846985Y-10156390D01*
X591871131Y-10106283D01*
X591894331Y-10055807D01*
X591916583Y-10004961D01*
X591937889Y-9953745D01*
X591958248Y-9902159D01*
X591977660Y-9850204D01*
X591996125Y-9797879D01*
X592013643Y-9745184D01*
X592030214Y-9692120D01*
X592045838Y-9638686D01*
X592060515Y-9584882D01*
X592074245Y-9530709D01*
X592087029Y-9476165D01*
X592098865Y-9421252D01*
X592109755Y-9365970D01*
X592119697Y-9310318D01*
X592128693Y-9254296D01*
X592136742Y-9197904D01*
X592143844Y-9141142D01*
X592149999Y-9084011D01*
X592155207Y-9026510D01*
X592159468Y-8968640D01*
X592162782Y-8910400D01*
X592165149Y-8851790D01*
X592166570Y-8792810D01*
X592167043Y-8733461D01*
X592166684Y-8681890D01*
X592165607Y-8631284D01*
X592163813Y-8581645D01*
X592158069Y-8485264D01*
X592149454Y-8392748D01*
X592137967Y-8304095D01*
X592123608Y-8219307D01*
X592106377Y-8138382D01*
X592086275Y-8061322D01*
X592063301Y-7988125D01*
X592037455Y-7918793D01*
X592008737Y-7853324D01*
X591977148Y-7791720D01*
X591942687Y-7733979D01*
X591905354Y-7680103D01*
X591865149Y-7630090D01*
X591822073Y-7583942D01*
X591799458Y-7562316D01*
X591753758Y-7523128D01*
X591704279Y-7486467D01*
X591651023Y-7452335D01*
X591593989Y-7420732D01*
X591533176Y-7391656D01*
X591468585Y-7365109D01*
X591400216Y-7341090D01*
X591328069Y-7319600D01*
X591252144Y-7300638D01*
X591172441Y-7284204D01*
X591088959Y-7270298D01*
X591001700Y-7258921D01*
X590910662Y-7250072D01*
X590815846Y-7243751D01*
X590767021Y-7241539D01*
X590717252Y-7239959D01*
X590666538Y-7239011D01*
X590614880Y-7238695D01*
X590562543Y-7239525D01*
X590510709Y-7242015D01*
X590459379Y-7246165D01*
X590408552Y-7251975D01*
X590358228Y-7259446D01*
X590308408Y-7268576D01*
X590259090Y-7279367D01*
X590210276Y-7291817D01*
X590161966Y-7305928D01*
X590114158Y-7321699D01*
X590066854Y-7339130D01*
X590020053Y-7358221D01*
X589973756Y-7378972D01*
X589927961Y-7401383D01*
X589882670Y-7425454D01*
X589837882Y-7451186D01*
X589793598Y-7478577D01*
X589749817Y-7507629D01*
X589706539Y-7538340D01*
X589663764Y-7570712D01*
X589621493Y-7604744D01*
X589579724Y-7640436D01*
X589538460Y-7677788D01*
X589497698Y-7716800D01*
X589457440Y-7757472D01*
X589417685Y-7799804D01*
X589378433Y-7843797D01*
X589339684Y-7889449D01*
X589301439Y-7936762D01*
X589263697Y-7985734D01*
X589226458Y-8036367D01*
X589189723Y-8088660D01*
X589156514Y-8137663D01*
X589124359Y-8186977D01*
X589093259Y-8236601D01*
X589063213Y-8286535D01*
X589034221Y-8336778D01*
X589006283Y-8387332D01*
X588979400Y-8438196D01*
X588953571Y-8489371D01*
X588928796Y-8540855D01*
X588905075Y-8592649D01*
X588882409Y-8644753D01*
X588860797Y-8697168D01*
X588840239Y-8749892D01*
X588820735Y-8802927D01*
X588802286Y-8856272D01*
X588784890Y-8909926D01*
X588768550Y-8963891D01*
X588753263Y-9018166D01*
X588739031Y-9072751D01*
X588725852Y-9127646D01*
X588713729Y-9182851D01*
X588702659Y-9238366D01*
X588692643Y-9294191D01*
X588683682Y-9350327D01*
X588675775Y-9406772D01*
X588668923Y-9463527D01*
X588663124Y-9520593D01*
X588658380Y-9577969D01*
X588654690Y-9635654D01*
X588652055Y-9693650D01*
X588650473Y-9751956D01*
X588649946Y-9810572D01*
X587948983Y-9810572D01*
X587948969Y-9809351D01*
X587949657Y-9734461D01*
X587951722Y-9660000D01*
X587955162Y-9585968D01*
X587959979Y-9512366D01*
X587966172Y-9439194D01*
X587973742Y-9366450D01*
X587982687Y-9294136D01*
X587993009Y-9222252D01*
X588004708Y-9150796D01*
X588017782Y-9079770D01*
X588032233Y-9009174D01*
X588048059Y-8939006D01*
X588065263Y-8869268D01*
X588083842Y-8799960D01*
X588103798Y-8731080D01*
X588125129Y-8662630D01*
X588147838Y-8594610D01*
X588171922Y-8527018D01*
X588197383Y-8459856D01*
X588224220Y-8393124D01*
X588252433Y-8326820D01*
X588282022Y-8260946D01*
X588312988Y-8195502D01*
X588345330Y-8130486D01*
X588379048Y-8065900D01*
X588414142Y-8001744D01*
X588450613Y-7938016D01*
X588488460Y-7874718D01*
X588527683Y-7811850D01*
X588568282Y-7749410D01*
X588610258Y-7687400D01*
X588653610Y-7625819D01*
X588703143Y-7558725D01*
X588753435Y-7493761D01*
X588804485Y-7430927D01*
X588856293Y-7370223D01*
X588908860Y-7311649D01*
X588962186Y-7255205D01*
X589016270Y-7200891D01*
X589071113Y-7148706D01*
X589126714Y-7098652D01*
X589183073Y-7050728D01*
X589240191Y-7004933D01*
X589298068Y-6961269D01*
X589356703Y-6919735D01*
X589416096Y-6880330D01*
X589476248Y-6843056D01*
X589537158Y-6807911D01*
X589598827Y-6774897D01*
X589661255Y-6744012D01*
X589724441Y-6715258D01*
X589788385Y-6688633D01*
X589853088Y-6664138D01*
X589918549Y-6641774D01*
X589984769Y-6621539D01*
X590051748Y-6603434D01*
X590119484Y-6587459D01*
X590187980Y-6573615D01*
X590257234Y-6561900D01*
X590327246Y-6552315D01*
X590398017Y-6544860D01*
X590469546Y-6539535D01*
X590541834Y-6536340D01*
X590614880Y-6535275D01*
X590684915Y-6535777D01*
G37*
G36*
X596937106Y-7395010D02*
G01*
X596886083Y-7391181D01*
X596836481Y-7380848D01*
X596806436Y-7371807D01*
X596752235Y-7355688D01*
X596695878Y-7340609D01*
X596637365Y-7326569D01*
X596576695Y-7313570D01*
X596513870Y-7301611D01*
X596448888Y-7290692D01*
X596381749Y-7280812D01*
X596312455Y-7271973D01*
X596241004Y-7264173D01*
X596167398Y-7257413D01*
X596091635Y-7251694D01*
X596013716Y-7247014D01*
X595933640Y-7243374D01*
X595851408Y-7240774D01*
X595767021Y-7239215D01*
X595680477Y-7238695D01*
X595622488Y-7239286D01*
X595562095Y-7241061D01*
X595499298Y-7244018D01*
X595434097Y-7248159D01*
X595383618Y-7252041D01*
X595331787Y-7256588D01*
X595278603Y-7261801D01*
X595224067Y-7267679D01*
X595168178Y-7274223D01*
X595149248Y-7276552D01*
X595091589Y-7284026D01*
X595032642Y-7292251D01*
X594972406Y-7301228D01*
X594910883Y-7310956D01*
X594848071Y-7321435D01*
X594783972Y-7332666D01*
X594718584Y-7344648D01*
X594651909Y-7357381D01*
X594583946Y-7370866D01*
X594514694Y-7385102D01*
X594467811Y-7395010D01*
X594461705Y-8723691D01*
X594543307Y-8704762D01*
X594622333Y-8687055D01*
X594698783Y-8670568D01*
X594772657Y-8655303D01*
X594843954Y-8641259D01*
X594912676Y-8628436D01*
X594978822Y-8616835D01*
X595042392Y-8606454D01*
X595103386Y-8597295D01*
X595161804Y-8589357D01*
X595217646Y-8582641D01*
X595270912Y-8577145D01*
X595321602Y-8572871D01*
X595392807Y-8568750D01*
X595458216Y-8567376D01*
X595524462Y-8567681D01*
X595591004Y-8568597D01*
X595657841Y-8570123D01*
X595724975Y-8572260D01*
X595792404Y-8575008D01*
X595860129Y-8578367D01*
X595928149Y-8582336D01*
X595996466Y-8586915D01*
X596065078Y-8592105D01*
X596133986Y-8597906D01*
X596203190Y-8604317D01*
X596272689Y-8611339D01*
X596342485Y-8618972D01*
X596412576Y-8627215D01*
X596482962Y-8636069D01*
X596553645Y-8645533D01*
X596611261Y-8654403D01*
X596663211Y-8668188D01*
X596709493Y-8686889D01*
X596762387Y-8719470D01*
X596805205Y-8760791D01*
X596837949Y-8810852D01*
X596860618Y-8869651D01*
X596871008Y-8919486D01*
X596875731Y-8974237D01*
X596876045Y-8993579D01*
X596872525Y-9049436D01*
X596861963Y-9101600D01*
X596844361Y-9150071D01*
X596819717Y-9194851D01*
X596788032Y-9235938D01*
X596775906Y-9248813D01*
X596737094Y-9282845D01*
X596694848Y-9309836D01*
X596649167Y-9329785D01*
X596600051Y-9342694D01*
X596547501Y-9348562D01*
X596529221Y-9348953D01*
X596469120Y-9347999D01*
X596414728Y-9345862D01*
X596354726Y-9342503D01*
X596289115Y-9337924D01*
X596236225Y-9333688D01*
X596180179Y-9328765D01*
X596120977Y-9323155D01*
X596058620Y-9316858D01*
X595993108Y-9309874D01*
X595927813Y-9302890D01*
X595865653Y-9296593D01*
X595806627Y-9290983D01*
X595750735Y-9286060D01*
X595697977Y-9281824D01*
X595648353Y-9278275D01*
X595587063Y-9274611D01*
X595531345Y-9272169D01*
X595481199Y-9270948D01*
X595458216Y-9270795D01*
X595391144Y-9274459D01*
X595329746Y-9282015D01*
X595258838Y-9293693D01*
X595206283Y-9303768D01*
X595149501Y-9315675D01*
X595088493Y-9329413D01*
X595023258Y-9344984D01*
X594953797Y-9362386D01*
X594880109Y-9381620D01*
X594802195Y-9402686D01*
X594720054Y-9425584D01*
X594633686Y-9450314D01*
X594543092Y-9476875D01*
X594496210Y-9490843D01*
X594448272Y-9505268D01*
X594416520Y-11887857D01*
X594413128Y-11942053D01*
X594402953Y-11992901D01*
X594385994Y-12040399D01*
X594362252Y-12084549D01*
X594331727Y-12125350D01*
X594320044Y-12138206D01*
X594282477Y-12173068D01*
X594241218Y-12200717D01*
X594196267Y-12221153D01*
X594147624Y-12234377D01*
X594095288Y-12240387D01*
X594077022Y-12240788D01*
X594023370Y-12237268D01*
X593973238Y-12226706D01*
X593926627Y-12209103D01*
X593883536Y-12184460D01*
X593843966Y-12152775D01*
X593831558Y-12140648D01*
X593798357Y-12101465D01*
X593772024Y-12059018D01*
X593752561Y-12013308D01*
X593739967Y-11964336D01*
X593734243Y-11912100D01*
X593733861Y-11893963D01*
X593733961Y-11807534D01*
X593734262Y-11715857D01*
X593734763Y-11618932D01*
X593735088Y-11568502D01*
X593735464Y-11516761D01*
X593735890Y-11463707D01*
X593736366Y-11409342D01*
X593736892Y-11353664D01*
X593737468Y-11296675D01*
X593738094Y-11238374D01*
X593738770Y-11178761D01*
X593739496Y-11117836D01*
X593740273Y-11055600D01*
X593741099Y-10992051D01*
X593741976Y-10927191D01*
X593742902Y-10861019D01*
X593743879Y-10793535D01*
X593744906Y-10724739D01*
X593745983Y-10654631D01*
X593747110Y-10583212D01*
X593748287Y-10510480D01*
X593749514Y-10436437D01*
X593750791Y-10361082D01*
X593752119Y-10284415D01*
X593753496Y-10206436D01*
X593754924Y-10127145D01*
X593756401Y-10046543D01*
X593757929Y-9964628D01*
X593759507Y-9881402D01*
X593761084Y-9798176D01*
X593762612Y-9716262D01*
X593764090Y-9635659D01*
X593765517Y-9556368D01*
X593766895Y-9478390D01*
X593768222Y-9401723D01*
X593769499Y-9326367D01*
X593770727Y-9252324D01*
X593771904Y-9179593D01*
X593773031Y-9108173D01*
X593774108Y-9038065D01*
X593775134Y-8969270D01*
X593776111Y-8901786D01*
X593777038Y-8835613D01*
X593777914Y-8770753D01*
X593778741Y-8707205D01*
X593779517Y-8644968D01*
X593780243Y-8584043D01*
X593780920Y-8524430D01*
X593781546Y-8466129D01*
X593782122Y-8409140D01*
X593782648Y-8353463D01*
X593783124Y-8299097D01*
X593783549Y-8246044D01*
X593783925Y-8194302D01*
X593784251Y-8143872D01*
X593784526Y-8094754D01*
X593784927Y-8000453D01*
X593785127Y-7911400D01*
X593785152Y-7868841D01*
X593785003Y-7818233D01*
X593784556Y-7760291D01*
X593783983Y-7708657D01*
X593783220Y-7652328D01*
X593782266Y-7591306D01*
X593781425Y-7542458D01*
X593780477Y-7490971D01*
X593779422Y-7436843D01*
X593779046Y-7418213D01*
X593778173Y-7362997D01*
X593777386Y-7310465D01*
X593776685Y-7260616D01*
X593775883Y-7198324D01*
X593775235Y-7140803D01*
X593774738Y-7088052D01*
X593774333Y-7028822D01*
X593774166Y-6977046D01*
X593774161Y-6967585D01*
X593777467Y-6912974D01*
X593787385Y-6861797D01*
X593803914Y-6814055D01*
X593827055Y-6769748D01*
X593856808Y-6728876D01*
X593868195Y-6716015D01*
X593905847Y-6681153D01*
X593947364Y-6653504D01*
X593992744Y-6633068D01*
X594041989Y-6619844D01*
X594095097Y-6613834D01*
X594113659Y-6613433D01*
X594168919Y-6617325D01*
X594221126Y-6629003D01*
X594270280Y-6648466D01*
X594316380Y-6675715D01*
X594369317Y-6666565D01*
X594421577Y-6657740D01*
X594473159Y-6649239D01*
X594524063Y-6641063D01*
X594574290Y-6633211D01*
X594623840Y-6625683D01*
X594672713Y-6618480D01*
X594744751Y-6608283D01*
X594815265Y-6598816D01*
X594884256Y-6590080D01*
X594951722Y-6582072D01*
X595017664Y-6574795D01*
X595082082Y-6568248D01*
X595145237Y-6562355D01*
X595206932Y-6557042D01*
X595267167Y-6552309D01*
X595325943Y-6548155D01*
X595383259Y-6544581D01*
X595439115Y-6541586D01*
X595493512Y-6539171D01*
X595546448Y-6537336D01*
X595597925Y-6536080D01*
X595647943Y-6535404D01*
X595680477Y-6535275D01*
X595730232Y-6535704D01*
X595780883Y-6536992D01*
X595832432Y-6539139D01*
X595884877Y-6542144D01*
X595938220Y-6546008D01*
X595992459Y-6550731D01*
X596047595Y-6556312D01*
X596103627Y-6562752D01*
X596160557Y-6570051D01*
X596218383Y-6578208D01*
X596277107Y-6587224D01*
X596336727Y-6597099D01*
X596397244Y-6607832D01*
X596458657Y-6619424D01*
X596520968Y-6631875D01*
X596584175Y-6645184D01*
X596667728Y-6664628D01*
X596745891Y-6684798D01*
X596818663Y-6705692D01*
X596886044Y-6727311D01*
X596948035Y-6749655D01*
X597004635Y-6772725D01*
X597055845Y-6796520D01*
X597101665Y-6821039D01*
X597160287Y-6859178D01*
X597206780Y-6898949D01*
X597241144Y-6940351D01*
X597268097Y-6998091D01*
X597274161Y-7043300D01*
X597271027Y-7092144D01*
X597259448Y-7146415D01*
X597239338Y-7197765D01*
X597210695Y-7246192D01*
X597185013Y-7278995D01*
X597145786Y-7318422D01*
X597103210Y-7349691D01*
X597057286Y-7372804D01*
X597008013Y-7387759D01*
X596955391Y-7394557D01*
X596937106Y-7395010D01*
G37*
G36*
X603266660Y-7942114D02*
G01*
X603213422Y-7938202D01*
X603163620Y-7926467D01*
X603117252Y-7906909D01*
X603074318Y-7879527D01*
X603034820Y-7844321D01*
X602998756Y-7801293D01*
X602966126Y-7750441D01*
X602936932Y-7691765D01*
X602913042Y-7640951D01*
X602889610Y-7595365D01*
X602860964Y-7545736D01*
X602833033Y-7504275D01*
X602800461Y-7465306D01*
X602758634Y-7431646D01*
X602709252Y-7415618D01*
X602654683Y-7406602D01*
X602597731Y-7401056D01*
X602544656Y-7397908D01*
X602484902Y-7395904D01*
X602435704Y-7395153D01*
X602400819Y-7395010D01*
X602338255Y-7398077D01*
X602274824Y-7407279D01*
X602210524Y-7422616D01*
X602145356Y-7444088D01*
X602079320Y-7471694D01*
X602012415Y-7505434D01*
X601944643Y-7545310D01*
X601876002Y-7591320D01*
X601806493Y-7643465D01*
X601736116Y-7701745D01*
X601664870Y-7766159D01*
X601628922Y-7800667D01*
X601592756Y-7836708D01*
X601556374Y-7874283D01*
X601519775Y-7913392D01*
X601482958Y-7954034D01*
X601445924Y-7996210D01*
X601408674Y-8039920D01*
X601371206Y-8085163D01*
X601333521Y-8131940D01*
X601295620Y-8180251D01*
X601244905Y-8246013D01*
X601195800Y-8311560D01*
X601148305Y-8376892D01*
X601102420Y-8442010D01*
X601058145Y-8506914D01*
X601015480Y-8571602D01*
X600974425Y-8636076D01*
X600934980Y-8700335D01*
X600897145Y-8764380D01*
X600860920Y-8828210D01*
X600826305Y-8891825D01*
X600793300Y-8955226D01*
X600761905Y-9018412D01*
X600732120Y-9081383D01*
X600703945Y-9144139D01*
X600677380Y-9206681D01*
X600652425Y-9269009D01*
X600629080Y-9331121D01*
X600607345Y-9393019D01*
X600587220Y-9454702D01*
X600568705Y-9516171D01*
X600551800Y-9577425D01*
X600536505Y-9638464D01*
X600522820Y-9699289D01*
X600510745Y-9759898D01*
X600500280Y-9820294D01*
X600491425Y-9880474D01*
X600484180Y-9940440D01*
X600478545Y-10000191D01*
X600474520Y-10059728D01*
X600472105Y-10119050D01*
X600471300Y-10178157D01*
X600472412Y-10234748D01*
X600475746Y-10290337D01*
X600481304Y-10344925D01*
X600489084Y-10398510D01*
X600499088Y-10451094D01*
X600511314Y-10502676D01*
X600525763Y-10553256D01*
X600542436Y-10602834D01*
X600561331Y-10651411D01*
X600582450Y-10698986D01*
X600605791Y-10745559D01*
X600631356Y-10791130D01*
X600659143Y-10835700D01*
X600689153Y-10879268D01*
X600721387Y-10921834D01*
X600755843Y-10963398D01*
X600792799Y-11004509D01*
X600830700Y-11042968D01*
X600869545Y-11078774D01*
X600909334Y-11111928D01*
X600950069Y-11142430D01*
X600991747Y-11170279D01*
X601034371Y-11195476D01*
X601077938Y-11218021D01*
X601145061Y-11246865D01*
X601214309Y-11269741D01*
X601285682Y-11286650D01*
X601334445Y-11294607D01*
X601384152Y-11299912D01*
X601434804Y-11302564D01*
X601460484Y-11302896D01*
X601526701Y-11301361D01*
X601593004Y-11296756D01*
X601659394Y-11289082D01*
X601725869Y-11278338D01*
X601792430Y-11264524D01*
X601859077Y-11247640D01*
X601925809Y-11227687D01*
X601992628Y-11204664D01*
X602059532Y-11178571D01*
X602126522Y-11149409D01*
X602171230Y-11128262D01*
X602224315Y-11100537D01*
X602268486Y-11075810D01*
X602316393Y-11047714D01*
X602368034Y-11016248D01*
X602423411Y-10981411D01*
X602482523Y-10943204D01*
X602524006Y-10915860D01*
X602567149Y-10887018D01*
X602611953Y-10856679D01*
X602658416Y-10824841D01*
X602706540Y-10791506D01*
X602756323Y-10756673D01*
X602781837Y-10738695D01*
X602829198Y-10706065D01*
X602873581Y-10677786D01*
X602924875Y-10648556D01*
X602971517Y-10626123D01*
X603021348Y-10608177D01*
X603071020Y-10599612D01*
X603077371Y-10599476D01*
X603131067Y-10603340D01*
X603181327Y-10614932D01*
X603228153Y-10634252D01*
X603271544Y-10661300D01*
X603311501Y-10696076D01*
X603324057Y-10709385D01*
X603358088Y-10751045D01*
X603385079Y-10794508D01*
X603405029Y-10839774D01*
X603419404Y-10894863D01*
X603424098Y-10944036D01*
X603424196Y-10952407D01*
X603419602Y-11007905D01*
X603405821Y-11060828D01*
X603382851Y-11111174D01*
X603350694Y-11158945D01*
X603316878Y-11196786D01*
X603293526Y-11218632D01*
X603236871Y-11267093D01*
X603180173Y-11314015D01*
X603123432Y-11359399D01*
X603066648Y-11403245D01*
X603009820Y-11445552D01*
X602952951Y-11486321D01*
X602896038Y-11525551D01*
X602839082Y-11563243D01*
X602782083Y-11599397D01*
X602725041Y-11634012D01*
X602667957Y-11667088D01*
X602610829Y-11698626D01*
X602553659Y-11728626D01*
X602496445Y-11757087D01*
X602439189Y-11784010D01*
X602381890Y-11809394D01*
X602324548Y-11833240D01*
X602267162Y-11855547D01*
X602209734Y-11876316D01*
X602152263Y-11895547D01*
X602094749Y-11913239D01*
X602037193Y-11929393D01*
X601979593Y-11944008D01*
X601921950Y-11957085D01*
X601864264Y-11968623D01*
X601806536Y-11978623D01*
X601748764Y-11987084D01*
X601690950Y-11994007D01*
X601633092Y-11999392D01*
X601575192Y-12003238D01*
X601517249Y-12005546D01*
X601459262Y-12006315D01*
X601371278Y-12004135D01*
X601285010Y-11997595D01*
X601200460Y-11986694D01*
X601117628Y-11971434D01*
X601036512Y-11951813D01*
X600957114Y-11927833D01*
X600879434Y-11899492D01*
X600803470Y-11866791D01*
X600729224Y-11829730D01*
X600656696Y-11788309D01*
X600585884Y-11742528D01*
X600516790Y-11692387D01*
X600449414Y-11637885D01*
X600383754Y-11579024D01*
X600319812Y-11515802D01*
X600257588Y-11448220D01*
X600200210Y-11379980D01*
X600146533Y-11310204D01*
X600096559Y-11238891D01*
X600050287Y-11166043D01*
X600007716Y-11091659D01*
X599968847Y-11015738D01*
X599933680Y-10938282D01*
X599902214Y-10859289D01*
X599874451Y-10778761D01*
X599850389Y-10696696D01*
X599830029Y-10613096D01*
X599813371Y-10527959D01*
X599800415Y-10441286D01*
X599791160Y-10353077D01*
X599785607Y-10263332D01*
X599783757Y-10172051D01*
X599784709Y-10097651D01*
X599787568Y-10023135D01*
X599792332Y-9948501D01*
X599799003Y-9873750D01*
X599807579Y-9798883D01*
X599818060Y-9723899D01*
X599830448Y-9648798D01*
X599844741Y-9573580D01*
X599860940Y-9498245D01*
X599879045Y-9422793D01*
X599899055Y-9347225D01*
X599920971Y-9271539D01*
X599944793Y-9195737D01*
X599970521Y-9119818D01*
X599998155Y-9043782D01*
X600027694Y-8967629D01*
X600059139Y-8891359D01*
X600092490Y-8814972D01*
X600127747Y-8738468D01*
X600164909Y-8661848D01*
X600203977Y-8585111D01*
X600244951Y-8508256D01*
X600287831Y-8431285D01*
X600332616Y-8354197D01*
X600379307Y-8276993D01*
X600427904Y-8199671D01*
X600478407Y-8122232D01*
X600530815Y-8044677D01*
X600585129Y-7967005D01*
X600641349Y-7889215D01*
X600699475Y-7811309D01*
X600759507Y-7733286D01*
X600810354Y-7669198D01*
X600861230Y-7607143D01*
X600912135Y-7547124D01*
X600963068Y-7489139D01*
X601014030Y-7433188D01*
X601065020Y-7379273D01*
X601116039Y-7327391D01*
X601167087Y-7277544D01*
X601218163Y-7229732D01*
X601269268Y-7183955D01*
X601320402Y-7140211D01*
X601371564Y-7098503D01*
X601422755Y-7058829D01*
X601473974Y-7021190D01*
X601525222Y-6985585D01*
X601576499Y-6952015D01*
X601627804Y-6920479D01*
X601679138Y-6890978D01*
X601730501Y-6863511D01*
X601781892Y-6838079D01*
X601833312Y-6814682D01*
X601884760Y-6793319D01*
X601936237Y-6773990D01*
X601987743Y-6756697D01*
X602039277Y-6741437D01*
X602090840Y-6728213D01*
X602142432Y-6717023D01*
X602194052Y-6707867D01*
X602245701Y-6700746D01*
X602297378Y-6695660D01*
X602349084Y-6692608D01*
X602400819Y-6691591D01*
X602452619Y-6691978D01*
X602502690Y-6693141D01*
X602560492Y-6695560D01*
X602615805Y-6699094D01*
X602668627Y-6703745D01*
X602702459Y-6707466D01*
X602751717Y-6713649D01*
X602806364Y-6722598D01*
X602857973Y-6733417D01*
X602906542Y-6746106D01*
X602939374Y-6756315D01*
X602978885Y-6715153D01*
X603021854Y-6680967D01*
X603068281Y-6653758D01*
X603118167Y-6633526D01*
X603171512Y-6620270D01*
X603228315Y-6613991D01*
X603252005Y-6613433D01*
X603308505Y-6618146D01*
X603359548Y-6632285D01*
X603405134Y-6655851D01*
X603445262Y-6688843D01*
X603479933Y-6731261D01*
X603509147Y-6783105D01*
X603532903Y-6844376D01*
X603547139Y-6896515D01*
X603551202Y-6915073D01*
X603561023Y-6966521D01*
X603569878Y-7020116D01*
X603577767Y-7075858D01*
X603584690Y-7133746D01*
X603590647Y-7193782D01*
X603595638Y-7255963D01*
X603599663Y-7320292D01*
X603602722Y-7386767D01*
X603604815Y-7455389D01*
X603605942Y-7526157D01*
X603606157Y-7574528D01*
X603603495Y-7624202D01*
X603593661Y-7679225D01*
X603576581Y-7731092D01*
X603552254Y-7779803D01*
X603530442Y-7812665D01*
X603492889Y-7856658D01*
X603449842Y-7891548D01*
X603401298Y-7917337D01*
X603347260Y-7934023D01*
X603298029Y-7940976D01*
X603266660Y-7942114D01*
G37*
G36*
X607211181Y-11771842D02*
G01*
X607160907Y-11791100D01*
X607107168Y-11810100D01*
X607049967Y-11828843D01*
X606989302Y-11847328D01*
X606925174Y-11865556D01*
X606857583Y-11883526D01*
X606786528Y-11901238D01*
X606712010Y-11918693D01*
X606634029Y-11935890D01*
X606552584Y-11952830D01*
X606467677Y-11969512D01*
X606379306Y-11985936D01*
X606287471Y-12002103D01*
X606192174Y-12018012D01*
X606143226Y-12025870D01*
X606093413Y-12033663D01*
X606042733Y-12041393D01*
X605991188Y-12049057D01*
X605896578Y-12062810D01*
X605804171Y-12075676D01*
X605713968Y-12087654D01*
X605625969Y-12098746D01*
X605540174Y-12108949D01*
X605456583Y-12118266D01*
X605375196Y-12126695D01*
X605296012Y-12134237D01*
X605219033Y-12140892D01*
X605144257Y-12146659D01*
X605071686Y-12151539D01*
X605001318Y-12155532D01*
X604933154Y-12158638D01*
X604867194Y-12160856D01*
X604803438Y-12162187D01*
X604741886Y-12162630D01*
X604678574Y-12161697D01*
X604618696Y-12158895D01*
X604562253Y-12154226D01*
X604509245Y-12147690D01*
X604459671Y-12139285D01*
X604398916Y-12125175D01*
X604344267Y-12107744D01*
X604295723Y-12086993D01*
X604243631Y-12056385D01*
X604195259Y-12016314D01*
X604153337Y-11968763D01*
X604126128Y-11928191D01*
X604102547Y-11883411D01*
X604082594Y-11834424D01*
X604066269Y-11781230D01*
X604053571Y-11723828D01*
X604044501Y-11662219D01*
X604039060Y-11596402D01*
X604037246Y-11526378D01*
X604105634Y-10386985D01*
X604111118Y-10288112D01*
X604116429Y-10188566D01*
X604121566Y-10088348D01*
X604126528Y-9987457D01*
X604131316Y-9885893D01*
X604135930Y-9783657D01*
X604140370Y-9680749D01*
X604144636Y-9577167D01*
X604148728Y-9472913D01*
X604152646Y-9367987D01*
X604156389Y-9262387D01*
X604159959Y-9156115D01*
X604163354Y-9049171D01*
X604166575Y-8941554D01*
X604169622Y-8833264D01*
X604172495Y-8724302D01*
X604175194Y-8614667D01*
X604177719Y-8504359D01*
X604180069Y-8393379D01*
X604182246Y-8281726D01*
X604184248Y-8169401D01*
X604186076Y-8056402D01*
X604187731Y-7942732D01*
X604189211Y-7828388D01*
X604190516Y-7713372D01*
X604191648Y-7597684D01*
X604192606Y-7481323D01*
X604193389Y-7364289D01*
X604193999Y-7246582D01*
X604194434Y-7128203D01*
X604194695Y-7009152D01*
X604194782Y-6889427D01*
X604198217Y-6835603D01*
X604208521Y-6784956D01*
X604225694Y-6737486D01*
X604249737Y-6693193D01*
X604280649Y-6652078D01*
X604292479Y-6639078D01*
X604330790Y-6603801D01*
X604372450Y-6575823D01*
X604417458Y-6555144D01*
X604465816Y-6541763D01*
X604517522Y-6535681D01*
X604535501Y-6535275D01*
X604589153Y-6538924D01*
X604639285Y-6549872D01*
X604685896Y-6568119D01*
X604728987Y-6593664D01*
X604768557Y-6626508D01*
X604780965Y-6639078D01*
X604814167Y-6679135D01*
X604840499Y-6722369D01*
X604859962Y-6768780D01*
X604872556Y-6818368D01*
X604878281Y-6871133D01*
X604878662Y-6889427D01*
X604878572Y-7010672D01*
X604878300Y-7131232D01*
X604877847Y-7251108D01*
X604877212Y-7370299D01*
X604876396Y-7488806D01*
X604875399Y-7606628D01*
X604874221Y-7723766D01*
X604872862Y-7840219D01*
X604871321Y-7955987D01*
X604869599Y-8071071D01*
X604867695Y-8185471D01*
X604865611Y-8299186D01*
X604863345Y-8412216D01*
X604860897Y-8524562D01*
X604858269Y-8636223D01*
X604855459Y-8747199D01*
X604852468Y-8857492D01*
X604849296Y-8967099D01*
X604845942Y-9076022D01*
X604842407Y-9184261D01*
X604838691Y-9291814D01*
X604834794Y-9398684D01*
X604830715Y-9504869D01*
X604826455Y-9610369D01*
X604822014Y-9715185D01*
X604817392Y-9819316D01*
X604812588Y-9922762D01*
X604807603Y-10025525D01*
X604802437Y-10127602D01*
X604797089Y-10228995D01*
X604791560Y-10329703D01*
X604785850Y-10429727D01*
X604741886Y-10953628D01*
X604736931Y-11006629D01*
X604732598Y-11058471D01*
X604728888Y-11109154D01*
X604725801Y-11158678D01*
X604722652Y-11222906D01*
X604720610Y-11285073D01*
X604719675Y-11345180D01*
X604719847Y-11403226D01*
X604721126Y-11459211D01*
X604777612Y-11459435D01*
X604835023Y-11458887D01*
X604893360Y-11457565D01*
X604952622Y-11455471D01*
X605012810Y-11452604D01*
X605073923Y-11448964D01*
X605135962Y-11444552D01*
X605198926Y-11439366D01*
X605262815Y-11433408D01*
X605327630Y-11426677D01*
X605393371Y-11419173D01*
X605460037Y-11410897D01*
X605527628Y-11401847D01*
X605596145Y-11392025D01*
X605665587Y-11381430D01*
X605735955Y-11370062D01*
X605807248Y-11357922D01*
X605879466Y-11345008D01*
X605952610Y-11331322D01*
X606026680Y-11316863D01*
X606101675Y-11301631D01*
X606177595Y-11285627D01*
X606254441Y-11268849D01*
X606332213Y-11251299D01*
X606410909Y-11232976D01*
X606490532Y-11213880D01*
X606571079Y-11194012D01*
X606652552Y-11173370D01*
X606734951Y-11151956D01*
X606818275Y-11129769D01*
X606902524Y-11106810D01*
X606987699Y-11083077D01*
X607037588Y-11073059D01*
X607087927Y-11068551D01*
X607097609Y-11068422D01*
X607151347Y-11072630D01*
X607201736Y-11085252D01*
X607248777Y-11106290D01*
X607292469Y-11135742D01*
X607332812Y-11173609D01*
X607345515Y-11188101D01*
X607374567Y-11230434D01*
X607397607Y-11274998D01*
X607414638Y-11321796D01*
X607425657Y-11370826D01*
X607430666Y-11422088D01*
X607431000Y-11439672D01*
X607427565Y-11494283D01*
X607417261Y-11545154D01*
X607400088Y-11592285D01*
X607376045Y-11635676D01*
X607345133Y-11675328D01*
X607307352Y-11711239D01*
X607262701Y-11743410D01*
X607211181Y-11771842D01*
G37*
G36*
X610830860Y-7512247D02*
G01*
X610774150Y-7511541D01*
X610713929Y-7509422D01*
X610650197Y-7505892D01*
X610600094Y-7502318D01*
X610548016Y-7497950D01*
X610493963Y-7492787D01*
X610437935Y-7486830D01*
X610379932Y-7480079D01*
X610319954Y-7472533D01*
X610278872Y-7467062D01*
X609725662Y-7395010D01*
X609720778Y-7458501D01*
X609716049Y-7521816D01*
X609711476Y-7584954D01*
X609707057Y-7647916D01*
X609702794Y-7710701D01*
X609698685Y-7773310D01*
X609694732Y-7835742D01*
X609690933Y-7897998D01*
X609687290Y-7960077D01*
X609683802Y-8021979D01*
X609680468Y-8083706D01*
X609677290Y-8145255D01*
X609674267Y-8206628D01*
X609671399Y-8267825D01*
X609668686Y-8328845D01*
X609666127Y-8389689D01*
X609663724Y-8450356D01*
X609661476Y-8510847D01*
X609659383Y-8571161D01*
X609657445Y-8631299D01*
X609655662Y-8691260D01*
X609654035Y-8751044D01*
X609652562Y-8810652D01*
X609651244Y-8870084D01*
X609650081Y-8929339D01*
X609649073Y-8988418D01*
X609648221Y-9047320D01*
X609647523Y-9106046D01*
X609646980Y-9164595D01*
X609646593Y-9222967D01*
X609646360Y-9281163D01*
X609646283Y-9339183D01*
X609646493Y-9402056D01*
X609646925Y-9451591D01*
X609647595Y-9503164D01*
X609648500Y-9556777D01*
X609649641Y-9612430D01*
X609651018Y-9670121D01*
X609652632Y-9729852D01*
X609654482Y-9791623D01*
X609656568Y-9855432D01*
X609658890Y-9921281D01*
X609659716Y-9943684D01*
X609662117Y-10010213D01*
X609664281Y-10074702D01*
X609666210Y-10137152D01*
X609667902Y-10197563D01*
X609669358Y-10255934D01*
X609670578Y-10312267D01*
X609671562Y-10366559D01*
X609672310Y-10418813D01*
X609672821Y-10469027D01*
X609673136Y-10532807D01*
X609673149Y-10548185D01*
X609672945Y-10609472D01*
X609672334Y-10669686D01*
X609671314Y-10728827D01*
X609669886Y-10786894D01*
X609668051Y-10843888D01*
X609665808Y-10899809D01*
X609663157Y-10954656D01*
X609660098Y-11008430D01*
X609656631Y-11061131D01*
X609652756Y-11112758D01*
X609649946Y-11146580D01*
X610731942Y-11133147D01*
X610784349Y-11136796D01*
X610833494Y-11147744D01*
X610879375Y-11165991D01*
X610921994Y-11191536D01*
X610961349Y-11224380D01*
X610973743Y-11236950D01*
X611006944Y-11277093D01*
X611033277Y-11320584D01*
X611052740Y-11367424D01*
X611065334Y-11417613D01*
X611071058Y-11471151D01*
X611071440Y-11489741D01*
X611068005Y-11545683D01*
X611057701Y-11598105D01*
X611040528Y-11647006D01*
X611016485Y-11692387D01*
X610985573Y-11734247D01*
X610973743Y-11747418D01*
X610935475Y-11782279D01*
X610893944Y-11809928D01*
X610849150Y-11830365D01*
X610801093Y-11843588D01*
X610749774Y-11849599D01*
X610731942Y-11850000D01*
X610680708Y-11850000D01*
X610623483Y-11850000D01*
X610560266Y-11850000D01*
X610508921Y-11850000D01*
X610454207Y-11850000D01*
X610396121Y-11850000D01*
X610334666Y-11850000D01*
X610269840Y-11850000D01*
X610201644Y-11850000D01*
X610154308Y-11850000D01*
X610083876Y-11850000D01*
X610016835Y-11850000D01*
X609953187Y-11850000D01*
X609892930Y-11850000D01*
X609836065Y-11850000D01*
X609782591Y-11850000D01*
X609732509Y-11850000D01*
X609671010Y-11850000D01*
X609615540Y-11850000D01*
X609577895Y-11850000D01*
X609517597Y-11850610D01*
X609467766Y-11851869D01*
X609413985Y-11853816D01*
X609356254Y-11856449D01*
X609294573Y-11859769D01*
X609228942Y-11863776D01*
X609159362Y-11868470D01*
X609085831Y-11873851D01*
X609034617Y-11877820D01*
X608981646Y-11882095D01*
X608926921Y-11886674D01*
X608898900Y-11889078D01*
X608843430Y-11893811D01*
X608789677Y-11898237D01*
X608737642Y-11902359D01*
X608687324Y-11906175D01*
X608615067Y-11911327D01*
X608546675Y-11915792D01*
X608482146Y-11919571D01*
X608421481Y-11922662D01*
X608364680Y-11925066D01*
X608311744Y-11926783D01*
X608262671Y-11927814D01*
X608217462Y-11928157D01*
X608165055Y-11924594D01*
X608115910Y-11913903D01*
X608070029Y-11896086D01*
X608027411Y-11871142D01*
X607988055Y-11839071D01*
X607975662Y-11826796D01*
X607942460Y-11786697D01*
X607916127Y-11743334D01*
X607896664Y-11696708D01*
X607884071Y-11646820D01*
X607878346Y-11593669D01*
X607877964Y-11575226D01*
X607881399Y-11520944D01*
X607891703Y-11469839D01*
X607908876Y-11421911D01*
X607932919Y-11377161D01*
X607963831Y-11335587D01*
X607975662Y-11322435D01*
X608013972Y-11287158D01*
X608055632Y-11259180D01*
X608100640Y-11238500D01*
X608148998Y-11225119D01*
X608200704Y-11219037D01*
X608218683Y-11218632D01*
X608278828Y-11217506D01*
X608329947Y-11215184D01*
X608386219Y-11211595D01*
X608447642Y-11206740D01*
X608514217Y-11200619D01*
X608585944Y-11193231D01*
X608636625Y-11187602D01*
X608689595Y-11181410D01*
X608744855Y-11174655D01*
X608802405Y-11167337D01*
X608862244Y-11159457D01*
X608924373Y-11151013D01*
X608956297Y-11146580D01*
X608962407Y-11093915D01*
X608967917Y-11039877D01*
X608972826Y-10984464D01*
X608977134Y-10927677D01*
X608980840Y-10869517D01*
X608983946Y-10809983D01*
X608986450Y-10749075D01*
X608988354Y-10686793D01*
X608989656Y-10623137D01*
X608990357Y-10558107D01*
X608990491Y-10513991D01*
X608990147Y-10453446D01*
X608989117Y-10389656D01*
X608987893Y-10339685D01*
X608986283Y-10287890D01*
X608984287Y-10234270D01*
X608981904Y-10178825D01*
X608979135Y-10121556D01*
X608975979Y-10062461D01*
X608972437Y-10001543D01*
X608968509Y-9938799D01*
X608964580Y-9876077D01*
X608961038Y-9815223D01*
X608957883Y-9756236D01*
X608955114Y-9699117D01*
X608952731Y-9643865D01*
X608950734Y-9590481D01*
X608949124Y-9538965D01*
X608947901Y-9489316D01*
X608946870Y-9426023D01*
X608946527Y-9366050D01*
X608946620Y-9316359D01*
X608946899Y-9265901D01*
X608947364Y-9214674D01*
X608948015Y-9162679D01*
X608948852Y-9109917D01*
X608949876Y-9056386D01*
X608951085Y-9002087D01*
X608952480Y-8947021D01*
X608954062Y-8891186D01*
X608955829Y-8834583D01*
X608957783Y-8777212D01*
X608959922Y-8719073D01*
X608962248Y-8660166D01*
X608964759Y-8600492D01*
X608967457Y-8540049D01*
X608970341Y-8478838D01*
X608973410Y-8416859D01*
X608976666Y-8354112D01*
X608980108Y-8290596D01*
X608983736Y-8226313D01*
X608987550Y-8161262D01*
X608991550Y-8095443D01*
X608995736Y-8028856D01*
X609000108Y-7961501D01*
X609004666Y-7893377D01*
X609009410Y-7824486D01*
X609014340Y-7754827D01*
X609019456Y-7684400D01*
X609024759Y-7613204D01*
X609030247Y-7541241D01*
X609035921Y-7468509D01*
X609041782Y-7395010D01*
X608596038Y-7409665D01*
X608149074Y-7419434D01*
X608095336Y-7415957D01*
X608044946Y-7405524D01*
X607997906Y-7388136D01*
X607954214Y-7363793D01*
X607913871Y-7332494D01*
X607901168Y-7320516D01*
X607867551Y-7281117D01*
X607840889Y-7238027D01*
X607821183Y-7191244D01*
X607808432Y-7140768D01*
X607802636Y-7086601D01*
X607802249Y-7067725D01*
X607805083Y-7010702D01*
X607813584Y-6958703D01*
X607827752Y-6911726D01*
X607855458Y-6856905D01*
X607893239Y-6811014D01*
X607941096Y-6774054D01*
X607999027Y-6746023D01*
X608049087Y-6730860D01*
X608104815Y-6720721D01*
X608124650Y-6718457D01*
X608181107Y-6713656D01*
X608246065Y-6709327D01*
X608319524Y-6705470D01*
X608373219Y-6703161D01*
X608430693Y-6701062D01*
X608491944Y-6699173D01*
X608556974Y-6697494D01*
X608625782Y-6696025D01*
X608698368Y-6694765D01*
X608774732Y-6693716D01*
X608854874Y-6692876D01*
X608938794Y-6692246D01*
X609026493Y-6691827D01*
X609117969Y-6691617D01*
X609165124Y-6691591D01*
X609251964Y-6692144D01*
X609341513Y-6693804D01*
X609433772Y-6696571D01*
X609528741Y-6700444D01*
X609626419Y-6705425D01*
X609676274Y-6708330D01*
X609726806Y-6711512D01*
X609778016Y-6714970D01*
X609829904Y-6718705D01*
X609882468Y-6722717D01*
X609935710Y-6727006D01*
X609989630Y-6731571D01*
X610044227Y-6736413D01*
X610099501Y-6741532D01*
X610155453Y-6746927D01*
X610212082Y-6752599D01*
X610269388Y-6758547D01*
X610327372Y-6764773D01*
X610386033Y-6771275D01*
X610445372Y-6778053D01*
X610505388Y-6785109D01*
X610566081Y-6792441D01*
X610627452Y-6800050D01*
X610689500Y-6807935D01*
X610752226Y-6816097D01*
X610815629Y-6824536D01*
X610879709Y-6833251D01*
X610934270Y-6843606D01*
X610983465Y-6858639D01*
X611040709Y-6885964D01*
X611088413Y-6921608D01*
X611126576Y-6965572D01*
X611155198Y-7017855D01*
X611174279Y-7078458D01*
X611182329Y-7129370D01*
X611185013Y-7184961D01*
X611180891Y-7240560D01*
X611168526Y-7291951D01*
X611147918Y-7339135D01*
X611119067Y-7382111D01*
X611081973Y-7420880D01*
X611067776Y-7432868D01*
X611021377Y-7463797D01*
X610971939Y-7487131D01*
X610919463Y-7502867D01*
X610863948Y-7511006D01*
X610830860Y-7512247D01*
G37*
G36*
X615161286Y-7942114D02*
G01*
X615108049Y-7938202D01*
X615058246Y-7926467D01*
X615011878Y-7906909D01*
X614968945Y-7879527D01*
X614929446Y-7844321D01*
X614893382Y-7801293D01*
X614860753Y-7750441D01*
X614831558Y-7691765D01*
X614807668Y-7640951D01*
X614784236Y-7595365D01*
X614755590Y-7545736D01*
X614727660Y-7504275D01*
X614695088Y-7465306D01*
X614653261Y-7431646D01*
X614603878Y-7415618D01*
X614549310Y-7406602D01*
X614492358Y-7401056D01*
X614439283Y-7397908D01*
X614379529Y-7395904D01*
X614330331Y-7395153D01*
X614295445Y-7395010D01*
X614232882Y-7398077D01*
X614169450Y-7407279D01*
X614105151Y-7422616D01*
X614039983Y-7444088D01*
X613973946Y-7471694D01*
X613907042Y-7505434D01*
X613839269Y-7545310D01*
X613770628Y-7591320D01*
X613701119Y-7643465D01*
X613630742Y-7701745D01*
X613559497Y-7766159D01*
X613523548Y-7800667D01*
X613487383Y-7836708D01*
X613451001Y-7874283D01*
X613414401Y-7913392D01*
X613377585Y-7954034D01*
X613340551Y-7996210D01*
X613303301Y-8039920D01*
X613265833Y-8085163D01*
X613228148Y-8131940D01*
X613190246Y-8180251D01*
X613139531Y-8246013D01*
X613090426Y-8311560D01*
X613042931Y-8376892D01*
X612997046Y-8442010D01*
X612952771Y-8506914D01*
X612910107Y-8571602D01*
X612869052Y-8636076D01*
X612829607Y-8700335D01*
X612791772Y-8764380D01*
X612755547Y-8828210D01*
X612720932Y-8891825D01*
X612687927Y-8955226D01*
X612656532Y-9018412D01*
X612626747Y-9081383D01*
X612598572Y-9144139D01*
X612572007Y-9206681D01*
X612547052Y-9269009D01*
X612523707Y-9331121D01*
X612501972Y-9393019D01*
X612481847Y-9454702D01*
X612463332Y-9516171D01*
X612446427Y-9577425D01*
X612431132Y-9638464D01*
X612417447Y-9699289D01*
X612405372Y-9759898D01*
X612394907Y-9820294D01*
X612386052Y-9880474D01*
X612378807Y-9940440D01*
X612373172Y-10000191D01*
X612369147Y-10059728D01*
X612366732Y-10119050D01*
X612365927Y-10178157D01*
X612367038Y-10234748D01*
X612370373Y-10290337D01*
X612375930Y-10344925D01*
X612383711Y-10398510D01*
X612393714Y-10451094D01*
X612405941Y-10502676D01*
X612420390Y-10553256D01*
X612437063Y-10602834D01*
X612455958Y-10651411D01*
X612477076Y-10698986D01*
X612500418Y-10745559D01*
X612525982Y-10791130D01*
X612553770Y-10835700D01*
X612583780Y-10879268D01*
X612616013Y-10921834D01*
X612650470Y-10963398D01*
X612687426Y-11004509D01*
X612725326Y-11042968D01*
X612764171Y-11078774D01*
X612803961Y-11111928D01*
X612844695Y-11142430D01*
X612886374Y-11170279D01*
X612928997Y-11195476D01*
X612972565Y-11218021D01*
X613039688Y-11246865D01*
X613108935Y-11269741D01*
X613180309Y-11286650D01*
X613229071Y-11294607D01*
X613278778Y-11299912D01*
X613329430Y-11302564D01*
X613355110Y-11302896D01*
X613421328Y-11301361D01*
X613487631Y-11296756D01*
X613554020Y-11289082D01*
X613620495Y-11278338D01*
X613687056Y-11264524D01*
X613753703Y-11247640D01*
X613820436Y-11227687D01*
X613887254Y-11204664D01*
X613954159Y-11178571D01*
X614021149Y-11149409D01*
X614065857Y-11128262D01*
X614118942Y-11100537D01*
X614163113Y-11075810D01*
X614211019Y-11047714D01*
X614262661Y-11016248D01*
X614318038Y-10981411D01*
X614377150Y-10943204D01*
X614418633Y-10915860D01*
X614461776Y-10887018D01*
X614506579Y-10856679D01*
X614553043Y-10824841D01*
X614601166Y-10791506D01*
X614650950Y-10756673D01*
X614676464Y-10738695D01*
X614723824Y-10706065D01*
X614768208Y-10677786D01*
X614819501Y-10648556D01*
X614866143Y-10626123D01*
X614915975Y-10608177D01*
X614965646Y-10599612D01*
X614971998Y-10599476D01*
X615025693Y-10603340D01*
X615075954Y-10614932D01*
X615122780Y-10634252D01*
X615166171Y-10661300D01*
X615206128Y-10696076D01*
X615218683Y-10709385D01*
X615252715Y-10751045D01*
X615279706Y-10794508D01*
X615299655Y-10839774D01*
X615314031Y-10894863D01*
X615318725Y-10944036D01*
X615318823Y-10952407D01*
X615314229Y-11007905D01*
X615300447Y-11060828D01*
X615277478Y-11111174D01*
X615245321Y-11158945D01*
X615211505Y-11196786D01*
X615188153Y-11218632D01*
X615131498Y-11267093D01*
X615074799Y-11314015D01*
X615018058Y-11359399D01*
X614961274Y-11403245D01*
X614904447Y-11445552D01*
X614847577Y-11486321D01*
X614790664Y-11525551D01*
X614733709Y-11563243D01*
X614676710Y-11599397D01*
X614619668Y-11634012D01*
X614562583Y-11667088D01*
X614505456Y-11698626D01*
X614448285Y-11728626D01*
X614391072Y-11757087D01*
X614333816Y-11784010D01*
X614276516Y-11809394D01*
X614219174Y-11833240D01*
X614161789Y-11855547D01*
X614104361Y-11876316D01*
X614046890Y-11895547D01*
X613989376Y-11913239D01*
X613931819Y-11929393D01*
X613874219Y-11944008D01*
X613816577Y-11957085D01*
X613758891Y-11968623D01*
X613701162Y-11978623D01*
X613643391Y-11987084D01*
X613585576Y-11994007D01*
X613527719Y-11999392D01*
X613469819Y-12003238D01*
X613411875Y-12005546D01*
X613353889Y-12006315D01*
X613265904Y-12004135D01*
X613179637Y-11997595D01*
X613095087Y-11986694D01*
X613012254Y-11971434D01*
X612931139Y-11951813D01*
X612851741Y-11927833D01*
X612774060Y-11899492D01*
X612698097Y-11866791D01*
X612623851Y-11829730D01*
X612551322Y-11788309D01*
X612480511Y-11742528D01*
X612411417Y-11692387D01*
X612344040Y-11637885D01*
X612278381Y-11579024D01*
X612214439Y-11515802D01*
X612152214Y-11448220D01*
X612094836Y-11379980D01*
X612041160Y-11310204D01*
X611991186Y-11238891D01*
X611944913Y-11166043D01*
X611902342Y-11091659D01*
X611863473Y-11015738D01*
X611828306Y-10938282D01*
X611796841Y-10859289D01*
X611769077Y-10778761D01*
X611745016Y-10696696D01*
X611724656Y-10613096D01*
X611707998Y-10527959D01*
X611695041Y-10441286D01*
X611685787Y-10353077D01*
X611680234Y-10263332D01*
X611678383Y-10172051D01*
X611679336Y-10097651D01*
X611682195Y-10023135D01*
X611686959Y-9948501D01*
X611693629Y-9873750D01*
X611702205Y-9798883D01*
X611712687Y-9723899D01*
X611725074Y-9648798D01*
X611739368Y-9573580D01*
X611755567Y-9498245D01*
X611773671Y-9422793D01*
X611793682Y-9347225D01*
X611815598Y-9271539D01*
X611839420Y-9195737D01*
X611865148Y-9119818D01*
X611892781Y-9043782D01*
X611922321Y-8967629D01*
X611953766Y-8891359D01*
X611987117Y-8814972D01*
X612022373Y-8738468D01*
X612059536Y-8661848D01*
X612098604Y-8585111D01*
X612139578Y-8508256D01*
X612182457Y-8431285D01*
X612227243Y-8354197D01*
X612273934Y-8276993D01*
X612322531Y-8199671D01*
X612373033Y-8122232D01*
X612425442Y-8044677D01*
X612479756Y-7967005D01*
X612535976Y-7889215D01*
X612594102Y-7811309D01*
X612654133Y-7733286D01*
X612704981Y-7669198D01*
X612755857Y-7607143D01*
X612806761Y-7547124D01*
X612857694Y-7489139D01*
X612908656Y-7433188D01*
X612959647Y-7379273D01*
X613010666Y-7327391D01*
X613061714Y-7277544D01*
X613112790Y-7229732D01*
X613163895Y-7183955D01*
X613215028Y-7140211D01*
X613266191Y-7098503D01*
X613317381Y-7058829D01*
X613368601Y-7021190D01*
X613419849Y-6985585D01*
X613471126Y-6952015D01*
X613522431Y-6920479D01*
X613573765Y-6890978D01*
X613625127Y-6863511D01*
X613676519Y-6838079D01*
X613727938Y-6814682D01*
X613779387Y-6793319D01*
X613830864Y-6773990D01*
X613882370Y-6756697D01*
X613933904Y-6741437D01*
X613985467Y-6728213D01*
X614037058Y-6717023D01*
X614088678Y-6707867D01*
X614140327Y-6700746D01*
X614192005Y-6695660D01*
X614243711Y-6692608D01*
X614295445Y-6691591D01*
X614347246Y-6691978D01*
X614397316Y-6693141D01*
X614455119Y-6695560D01*
X614510431Y-6699094D01*
X614563254Y-6703745D01*
X614597085Y-6707466D01*
X614646344Y-6713649D01*
X614700991Y-6722598D01*
X614752599Y-6733417D01*
X614801169Y-6746106D01*
X614834001Y-6756315D01*
X614873511Y-6715153D01*
X614916480Y-6680967D01*
X614962908Y-6653758D01*
X615012794Y-6633526D01*
X615066139Y-6620270D01*
X615122942Y-6613991D01*
X615146632Y-6613433D01*
X615203132Y-6618146D01*
X615254175Y-6632285D01*
X615299760Y-6655851D01*
X615339889Y-6688843D01*
X615374560Y-6731261D01*
X615403774Y-6783105D01*
X615427530Y-6844376D01*
X615441766Y-6896515D01*
X615445829Y-6915073D01*
X615455650Y-6966521D01*
X615464505Y-7020116D01*
X615472394Y-7075858D01*
X615479317Y-7133746D01*
X615485274Y-7193782D01*
X615490265Y-7255963D01*
X615494290Y-7320292D01*
X615497349Y-7386767D01*
X615499442Y-7455389D01*
X615500569Y-7526157D01*
X615500784Y-7574528D01*
X615498122Y-7624202D01*
X615488288Y-7679225D01*
X615471207Y-7731092D01*
X615446881Y-7779803D01*
X615425068Y-7812665D01*
X615387516Y-7856658D01*
X615344468Y-7891548D01*
X615295925Y-7917337D01*
X615241886Y-7934023D01*
X615192656Y-7940976D01*
X615161286Y-7942114D01*
G37*
G36*
X619545445Y-12006315D02*
G01*
X619478383Y-12002680D01*
X619407868Y-11991775D01*
X619333899Y-11973600D01*
X619256475Y-11948155D01*
X619175599Y-11915439D01*
X619091268Y-11875454D01*
X619047808Y-11852735D01*
X619003484Y-11828199D01*
X618958296Y-11801845D01*
X618912246Y-11773674D01*
X618865331Y-11743685D01*
X618817554Y-11711878D01*
X618768913Y-11678254D01*
X618719408Y-11642813D01*
X618669040Y-11605554D01*
X618617809Y-11566477D01*
X618565714Y-11525583D01*
X618512756Y-11482872D01*
X618458934Y-11438343D01*
X618404249Y-11391996D01*
X618348701Y-11343832D01*
X618292289Y-11293851D01*
X618235013Y-11242052D01*
X618176874Y-11188435D01*
X618117872Y-11133001D01*
X618058006Y-11075750D01*
X617030965Y-10025505D01*
X617030965Y-10074354D01*
X617027302Y-11896406D01*
X617024672Y-11957951D01*
X617016783Y-12013442D01*
X617003635Y-12062880D01*
X616977922Y-12119380D01*
X616942860Y-12165118D01*
X616898448Y-12200094D01*
X616844686Y-12224309D01*
X616781574Y-12237761D01*
X616728104Y-12240788D01*
X616668981Y-12236554D01*
X616613734Y-12223853D01*
X616562364Y-12202685D01*
X616514869Y-12173049D01*
X616471250Y-12134946D01*
X616431506Y-12088375D01*
X616416694Y-12067376D01*
X616388901Y-12022129D01*
X616365818Y-11975689D01*
X616347447Y-11928057D01*
X616333785Y-11879232D01*
X616324835Y-11829215D01*
X616320595Y-11778005D01*
X616320218Y-11757187D01*
X616320265Y-11705567D01*
X616320405Y-11652373D01*
X616320637Y-11597604D01*
X616320963Y-11541261D01*
X616321381Y-11483344D01*
X616321893Y-11423853D01*
X616322498Y-11362787D01*
X616323195Y-11300148D01*
X616323986Y-11235934D01*
X616324870Y-11170146D01*
X616325846Y-11102783D01*
X616326916Y-11033847D01*
X616328079Y-10963336D01*
X616329335Y-10891251D01*
X616330683Y-10817592D01*
X616332125Y-10742358D01*
X616333660Y-10665550D01*
X616335288Y-10587169D01*
X616337009Y-10507212D01*
X616338823Y-10425682D01*
X616340730Y-10342577D01*
X616342730Y-10257899D01*
X616344823Y-10171646D01*
X616347009Y-10083818D01*
X616349288Y-9994417D01*
X616351660Y-9903441D01*
X616354125Y-9810891D01*
X616356683Y-9716767D01*
X616359334Y-9621069D01*
X616362078Y-9523796D01*
X616364916Y-9424949D01*
X616367846Y-9324528D01*
X616370851Y-9224035D01*
X616373761Y-9125122D01*
X616376576Y-9027791D01*
X616379295Y-8932042D01*
X616381918Y-8837873D01*
X616384447Y-8745287D01*
X616386880Y-8654281D01*
X616389217Y-8564857D01*
X616391459Y-8477014D01*
X616393606Y-8390753D01*
X616395657Y-8306073D01*
X616397613Y-8222974D01*
X616399473Y-8141457D01*
X616401238Y-8061521D01*
X616402908Y-7983167D01*
X616404482Y-7906393D01*
X616405961Y-7831202D01*
X616407344Y-7757591D01*
X616408632Y-7685562D01*
X616409825Y-7615115D01*
X616410922Y-7546249D01*
X616411924Y-7478964D01*
X616412830Y-7413260D01*
X616413641Y-7349138D01*
X616414357Y-7286597D01*
X616414977Y-7225638D01*
X616415502Y-7166260D01*
X616415931Y-7108463D01*
X616416265Y-7052248D01*
X616416504Y-6997614D01*
X616416647Y-6944562D01*
X616416694Y-6893091D01*
X616420129Y-6838809D01*
X616430433Y-6787704D01*
X616447606Y-6739776D01*
X616471649Y-6695025D01*
X616502561Y-6653451D01*
X616514392Y-6640300D01*
X616552659Y-6604608D01*
X616594190Y-6576300D01*
X616638984Y-6555377D01*
X616687041Y-6541839D01*
X616738360Y-6535685D01*
X616756192Y-6535275D01*
X616809844Y-6538967D01*
X616859976Y-6550044D01*
X616906587Y-6568506D01*
X616949678Y-6594351D01*
X616989248Y-6627582D01*
X617001656Y-6640300D01*
X617034858Y-6680814D01*
X617061190Y-6724506D01*
X617080653Y-6771375D01*
X617093247Y-6821421D01*
X617098972Y-6874644D01*
X617099353Y-6893091D01*
X617098999Y-6959595D01*
X617097936Y-7032710D01*
X617096834Y-7085127D01*
X617095418Y-7140482D01*
X617093686Y-7198776D01*
X617091639Y-7260009D01*
X617089278Y-7324180D01*
X617086602Y-7391289D01*
X617083611Y-7461337D01*
X617080305Y-7534324D01*
X617076684Y-7610249D01*
X617072749Y-7689113D01*
X617068498Y-7770915D01*
X617063933Y-7855656D01*
X617059053Y-7943335D01*
X617054039Y-8028167D01*
X617049379Y-8110470D01*
X617045071Y-8190245D01*
X617041116Y-8267491D01*
X617037515Y-8342209D01*
X617034266Y-8414399D01*
X617031371Y-8484061D01*
X617028828Y-8551195D01*
X617026638Y-8615800D01*
X617024802Y-8677876D01*
X617023318Y-8737425D01*
X617022188Y-8794445D01*
X617021410Y-8848937D01*
X617020986Y-8900901D01*
X617020914Y-8950336D01*
X617021195Y-8997243D01*
X617079213Y-8939708D01*
X617138165Y-8880369D01*
X617198052Y-8819227D01*
X617258874Y-8756282D01*
X617320631Y-8691534D01*
X617383324Y-8624983D01*
X617446951Y-8556628D01*
X617511513Y-8486470D01*
X617577010Y-8414509D01*
X617610109Y-8377852D01*
X617643442Y-8340745D01*
X617677009Y-8303187D01*
X617710809Y-8265178D01*
X617744844Y-8226718D01*
X617779112Y-8187807D01*
X617813613Y-8148445D01*
X617848349Y-8108633D01*
X617883318Y-8068370D01*
X617918521Y-8027656D01*
X617953957Y-7986491D01*
X617989628Y-7944876D01*
X618025532Y-7902810D01*
X618061670Y-7860293D01*
X619047190Y-6674494D01*
X619084482Y-6634387D01*
X619123086Y-6601078D01*
X619171143Y-6570080D01*
X619221089Y-6548871D01*
X619272924Y-6537450D01*
X619308530Y-6535275D01*
X619358747Y-6539010D01*
X619406818Y-6550216D01*
X619452743Y-6568892D01*
X619496520Y-6595038D01*
X619538151Y-6628655D01*
X619551551Y-6641521D01*
X619588073Y-6682994D01*
X619617039Y-6727731D01*
X619638448Y-6775730D01*
X619652302Y-6826993D01*
X619658598Y-6881518D01*
X619659018Y-6900418D01*
X619651226Y-6951241D01*
X619627849Y-7015780D01*
X619603606Y-7066427D01*
X619572436Y-7123171D01*
X619534340Y-7186011D01*
X619489317Y-7254947D01*
X619437368Y-7329980D01*
X619408796Y-7369783D01*
X619378492Y-7411110D01*
X619346457Y-7453961D01*
X619312689Y-7498336D01*
X619277191Y-7544235D01*
X619239960Y-7591659D01*
X619200998Y-7640606D01*
X619160305Y-7691078D01*
X619117880Y-7743074D01*
X619073723Y-7796594D01*
X619027834Y-7851638D01*
X618980214Y-7908206D01*
X618930862Y-7966299D01*
X618879779Y-8025915D01*
X618826963Y-8087056D01*
X618772417Y-8149720D01*
X618734138Y-8192893D01*
X618695781Y-8236012D01*
X618657345Y-8279075D01*
X618618830Y-8322083D01*
X618580236Y-8365037D01*
X618541564Y-8407936D01*
X618502813Y-8450779D01*
X618463984Y-8493568D01*
X618425075Y-8536303D01*
X618386088Y-8578982D01*
X618347023Y-8621606D01*
X618307878Y-8664176D01*
X618268655Y-8706691D01*
X618229353Y-8749151D01*
X618189973Y-8791556D01*
X618150513Y-8833906D01*
X618110975Y-8876201D01*
X618071359Y-8918441D01*
X618031663Y-8960627D01*
X617991889Y-9002758D01*
X617952036Y-9044833D01*
X617912105Y-9086854D01*
X617872094Y-9128821D01*
X617832005Y-9170732D01*
X617791838Y-9212588D01*
X617751591Y-9254390D01*
X617711266Y-9296136D01*
X617670862Y-9337828D01*
X617630380Y-9379465D01*
X617589819Y-9421047D01*
X617549179Y-9462575D01*
X617508460Y-9504047D01*
X617561879Y-9560495D01*
X617618942Y-9619929D01*
X617679649Y-9682349D01*
X617744002Y-9747756D01*
X617811998Y-9816148D01*
X617847364Y-9851465D01*
X617883640Y-9887527D01*
X617920827Y-9924337D01*
X617958926Y-9961893D01*
X617997935Y-10000195D01*
X618037856Y-10039244D01*
X618078688Y-10079040D01*
X618120431Y-10119582D01*
X618163086Y-10160871D01*
X618206651Y-10202906D01*
X618251128Y-10245688D01*
X618296515Y-10289216D01*
X618342814Y-10333491D01*
X618390024Y-10378513D01*
X618438145Y-10424281D01*
X618487177Y-10470795D01*
X618537121Y-10518057D01*
X618587975Y-10566064D01*
X618639741Y-10614819D01*
X618692418Y-10664320D01*
X618746006Y-10714567D01*
X618800505Y-10765561D01*
X619160763Y-11072086D01*
X619210107Y-11109352D01*
X619260444Y-11144214D01*
X619311774Y-11176672D01*
X619364095Y-11206725D01*
X619417409Y-11234374D01*
X619471714Y-11259619D01*
X619527013Y-11282459D01*
X619583303Y-11302896D01*
X619631753Y-11321278D01*
X619688940Y-11350263D01*
X619737655Y-11384361D01*
X619777898Y-11423574D01*
X619809669Y-11467900D01*
X619832967Y-11517340D01*
X619847794Y-11571894D01*
X619854148Y-11631562D01*
X619854412Y-11647278D01*
X619850965Y-11698636D01*
X619840621Y-11749059D01*
X619823382Y-11798546D01*
X619799248Y-11847099D01*
X619782361Y-11874424D01*
X619746869Y-11919246D01*
X619707256Y-11954795D01*
X619663521Y-11981070D01*
X619615665Y-11998072D01*
X619563687Y-12005800D01*
X619545445Y-12006315D01*
G37*
G36*
X620319695Y-10932868D02*
G01*
X620322013Y-10879387D01*
X620331716Y-10829770D01*
X620352370Y-10776768D01*
X620383074Y-10729025D01*
X620417392Y-10692288D01*
X620457034Y-10660747D01*
X620499939Y-10635731D01*
X620546106Y-10617241D01*
X620595537Y-10605277D01*
X620648230Y-10599839D01*
X620666520Y-10599476D01*
X620718171Y-10603948D01*
X620767795Y-10617365D01*
X620815391Y-10639726D01*
X620860960Y-10671032D01*
X620904502Y-10711282D01*
X620937875Y-10749922D01*
X620962054Y-10782658D01*
X620994476Y-10827953D01*
X621026253Y-10870414D01*
X621057387Y-10910041D01*
X621097897Y-10958470D01*
X621137262Y-11001861D01*
X621175482Y-11040215D01*
X621212558Y-11073531D01*
X621257292Y-11108093D01*
X621274685Y-11119713D01*
X621331739Y-11152450D01*
X621393452Y-11181967D01*
X621459824Y-11208263D01*
X621506659Y-11224006D01*
X621555565Y-11238317D01*
X621606541Y-11251197D01*
X621659588Y-11262646D01*
X621714705Y-11272663D01*
X621771892Y-11281250D01*
X621831149Y-11288406D01*
X621892477Y-11294130D01*
X621955875Y-11298423D01*
X622021344Y-11301286D01*
X622088883Y-11302717D01*
X622123429Y-11302896D01*
X622189689Y-11302075D01*
X622255358Y-11299614D01*
X622320435Y-11295511D01*
X622384921Y-11289767D01*
X622448815Y-11282383D01*
X622512118Y-11273357D01*
X622574829Y-11262691D01*
X622636949Y-11250383D01*
X622698477Y-11236435D01*
X622759414Y-11220845D01*
X622819759Y-11203615D01*
X622879513Y-11184743D01*
X622938675Y-11164230D01*
X622997245Y-11142077D01*
X623055225Y-11118282D01*
X623112612Y-11092847D01*
X623183299Y-11058290D01*
X623249426Y-11022093D01*
X623310993Y-10984254D01*
X623367998Y-10944774D01*
X623420444Y-10903654D01*
X623468329Y-10860892D01*
X623511653Y-10816490D01*
X623550417Y-10770446D01*
X623584621Y-10722762D01*
X623614264Y-10673436D01*
X623639347Y-10622469D01*
X623659869Y-10569862D01*
X623675830Y-10515613D01*
X623687232Y-10459723D01*
X623694072Y-10402193D01*
X623696352Y-10343021D01*
X623692038Y-10270303D01*
X623679093Y-10200525D01*
X623657519Y-10133689D01*
X623627316Y-10069794D01*
X623588483Y-10008839D01*
X623557799Y-9969836D01*
X623523281Y-9932141D01*
X623484927Y-9895753D01*
X623442738Y-9860671D01*
X623396714Y-9826897D01*
X623346854Y-9794430D01*
X623293159Y-9763270D01*
X623235628Y-9733417D01*
X623205424Y-9718981D01*
X623152755Y-9694962D01*
X623098549Y-9672365D01*
X623042807Y-9651189D01*
X622985529Y-9631435D01*
X622926716Y-9613102D01*
X622866366Y-9596191D01*
X622804480Y-9580702D01*
X622741058Y-9566634D01*
X622676100Y-9553988D01*
X622609605Y-9542763D01*
X622541575Y-9532960D01*
X622472009Y-9524579D01*
X622400907Y-9517619D01*
X622328268Y-9512080D01*
X622254094Y-9507963D01*
X622178383Y-9505268D01*
X622111231Y-9501900D01*
X622045328Y-9496987D01*
X621980675Y-9490528D01*
X621917272Y-9482523D01*
X621855119Y-9472973D01*
X621794216Y-9461877D01*
X621734562Y-9449235D01*
X621676159Y-9435048D01*
X621619005Y-9419316D01*
X621563101Y-9402037D01*
X621508447Y-9383214D01*
X621455043Y-9362844D01*
X621402888Y-9340929D01*
X621351984Y-9317468D01*
X621302329Y-9292462D01*
X621253924Y-9265910D01*
X621194919Y-9229703D01*
X621139721Y-9191607D01*
X621088330Y-9151622D01*
X621040746Y-9109747D01*
X620996968Y-9065984D01*
X620956997Y-9020332D01*
X620920833Y-8972790D01*
X620888476Y-8923360D01*
X620859925Y-8872040D01*
X620835181Y-8818831D01*
X620814244Y-8763734D01*
X620797114Y-8706747D01*
X620783790Y-8647871D01*
X620774273Y-8587106D01*
X620768563Y-8524452D01*
X620766660Y-8459909D01*
X620769369Y-8383082D01*
X620777498Y-8307085D01*
X620791046Y-8231919D01*
X620810013Y-8157582D01*
X620834399Y-8084075D01*
X620864204Y-8011399D01*
X620899428Y-7939552D01*
X620940072Y-7868536D01*
X620986135Y-7798349D01*
X621037616Y-7728993D01*
X621094517Y-7660467D01*
X621156837Y-7592770D01*
X621224577Y-7525904D01*
X621297735Y-7459868D01*
X621336346Y-7427161D01*
X621376313Y-7394662D01*
X621417633Y-7362370D01*
X621460309Y-7330286D01*
X621501797Y-7300608D01*
X621543371Y-7271872D01*
X621585030Y-7244079D01*
X621626776Y-7217228D01*
X621668607Y-7191319D01*
X621752528Y-7142327D01*
X621836791Y-7097104D01*
X621921399Y-7055650D01*
X622006349Y-7017964D01*
X622091644Y-6984046D01*
X622177281Y-6953898D01*
X622263262Y-6927517D01*
X622349587Y-6904906D01*
X622436255Y-6886063D01*
X622523266Y-6870989D01*
X622610621Y-6859683D01*
X622698320Y-6852146D01*
X622786362Y-6848377D01*
X622830512Y-6847906D01*
X622893774Y-6848990D01*
X622958539Y-6852242D01*
X623024806Y-6857663D01*
X623092577Y-6865251D01*
X623161849Y-6875008D01*
X623232625Y-6886932D01*
X623280643Y-6896087D01*
X623329330Y-6906205D01*
X623378684Y-6917286D01*
X623428706Y-6929331D01*
X623479396Y-6942340D01*
X623530754Y-6956313D01*
X623582780Y-6971249D01*
X623650066Y-6991594D01*
X623713011Y-7012636D01*
X623771615Y-7034375D01*
X623825877Y-7056810D01*
X623875799Y-7079941D01*
X623921380Y-7103769D01*
X623981612Y-7140817D01*
X624032077Y-7179432D01*
X624072774Y-7219614D01*
X624103704Y-7261363D01*
X624129750Y-7319466D01*
X624138432Y-7380355D01*
X624135716Y-7438845D01*
X624127570Y-7491581D01*
X624113992Y-7538565D01*
X624087440Y-7592260D01*
X624051233Y-7635728D01*
X624005371Y-7668967D01*
X623949853Y-7691980D01*
X623901879Y-7702527D01*
X623848474Y-7707321D01*
X623829465Y-7707641D01*
X623770503Y-7704850D01*
X623710349Y-7698261D01*
X623655012Y-7690199D01*
X623593265Y-7679657D01*
X623542747Y-7670122D01*
X623488622Y-7659192D01*
X623430891Y-7646866D01*
X623369554Y-7633146D01*
X623348306Y-7628262D01*
X623285316Y-7613890D01*
X623225031Y-7600999D01*
X623167450Y-7589590D01*
X623112574Y-7579661D01*
X623060403Y-7571214D01*
X623010936Y-7564248D01*
X622949189Y-7557264D01*
X622892250Y-7552914D01*
X622840119Y-7551197D01*
X622815857Y-7551325D01*
X622749620Y-7552971D01*
X622684634Y-7556382D01*
X622620897Y-7561558D01*
X622558410Y-7568499D01*
X622497173Y-7577205D01*
X622437185Y-7587676D01*
X622378448Y-7599912D01*
X622320960Y-7613913D01*
X622264722Y-7629679D01*
X622209734Y-7647210D01*
X622155996Y-7666506D01*
X622103507Y-7687567D01*
X622052269Y-7710393D01*
X622002280Y-7734985D01*
X621953541Y-7761341D01*
X621906052Y-7789462D01*
X621859470Y-7819477D01*
X621815892Y-7850294D01*
X621775320Y-7881912D01*
X621737754Y-7914331D01*
X621687039Y-7964463D01*
X621643086Y-8016398D01*
X621605895Y-8070136D01*
X621575466Y-8125678D01*
X621551799Y-8183022D01*
X621534894Y-8242170D01*
X621524751Y-8303121D01*
X621521370Y-8365875D01*
X621529308Y-8427623D01*
X621553121Y-8484638D01*
X621592811Y-8536922D01*
X621632997Y-8573029D01*
X621682112Y-8606474D01*
X621740158Y-8637257D01*
X621807134Y-8665378D01*
X621856746Y-8682647D01*
X621910327Y-8698732D01*
X621967876Y-8713635D01*
X622029395Y-8727355D01*
X622082232Y-8737334D01*
X622146097Y-8747123D01*
X622201234Y-8754339D01*
X622262575Y-8761449D01*
X622330120Y-8768450D01*
X622403869Y-8775345D01*
X622456481Y-8779881D01*
X622511851Y-8784370D01*
X622569978Y-8788811D01*
X622630862Y-8793205D01*
X622694504Y-8797551D01*
X622760902Y-8801849D01*
X622809721Y-8805882D01*
X622905348Y-8816167D01*
X622998294Y-8829410D01*
X623088559Y-8845610D01*
X623176143Y-8864768D01*
X623261046Y-8886883D01*
X623343268Y-8911956D01*
X623422809Y-8939987D01*
X623499669Y-8970975D01*
X623573848Y-9004921D01*
X623645346Y-9041825D01*
X623714164Y-9081686D01*
X623780300Y-9124505D01*
X623843756Y-9170281D01*
X623904530Y-9219015D01*
X623962624Y-9270707D01*
X623990665Y-9297662D01*
X624039762Y-9348414D01*
X624085691Y-9400530D01*
X624128452Y-9454011D01*
X624168046Y-9508855D01*
X624204473Y-9565065D01*
X624237732Y-9622638D01*
X624267823Y-9681576D01*
X624294747Y-9741878D01*
X624318504Y-9803545D01*
X624339093Y-9866576D01*
X624356514Y-9930971D01*
X624370768Y-9996731D01*
X624381854Y-10063854D01*
X624389773Y-10132343D01*
X624394524Y-10202195D01*
X624396108Y-10273412D01*
X624395370Y-10324305D01*
X624393155Y-10374553D01*
X624389464Y-10424158D01*
X624384297Y-10473119D01*
X624369532Y-10569108D01*
X624348862Y-10662521D01*
X624322287Y-10753359D01*
X624289805Y-10841620D01*
X624251418Y-10927305D01*
X624207125Y-11010415D01*
X624156927Y-11090948D01*
X624100822Y-11168905D01*
X624038812Y-11244287D01*
X624005593Y-11281011D01*
X623970897Y-11317092D01*
X623934724Y-11352529D01*
X623897075Y-11387321D01*
X623857950Y-11421470D01*
X623817348Y-11454975D01*
X623775270Y-11487836D01*
X623731715Y-11520052D01*
X623686684Y-11551625D01*
X623640177Y-11582554D01*
X623557387Y-11633868D01*
X623472966Y-11681873D01*
X623386913Y-11726566D01*
X623299229Y-11767949D01*
X623209913Y-11806021D01*
X623118966Y-11840783D01*
X623026388Y-11872234D01*
X622979487Y-11886718D01*
X622932178Y-11900375D01*
X622884461Y-11913203D01*
X622836336Y-11925204D01*
X622787804Y-11936378D01*
X622738863Y-11946723D01*
X622689515Y-11956242D01*
X622639759Y-11964932D01*
X622589595Y-11972795D01*
X622539023Y-11979830D01*
X622488043Y-11986037D01*
X622436656Y-11991417D01*
X622384860Y-11995969D01*
X622332657Y-11999694D01*
X622280046Y-12002590D01*
X622227027Y-12004660D01*
X622173600Y-12005901D01*
X622119765Y-12006315D01*
X622041564Y-12005356D01*
X621964194Y-12002480D01*
X621887653Y-11997685D01*
X621811943Y-11990973D01*
X621737062Y-11982344D01*
X621663012Y-11971797D01*
X621589791Y-11959332D01*
X621517401Y-11944949D01*
X621445841Y-11928649D01*
X621375110Y-11910431D01*
X621305210Y-11890295D01*
X621236140Y-11868241D01*
X621167900Y-11844270D01*
X621100490Y-11818382D01*
X621033910Y-11790575D01*
X620968160Y-11760851D01*
X620890780Y-11722268D01*
X620818313Y-11681930D01*
X620750760Y-11639836D01*
X620688120Y-11595987D01*
X620630394Y-11550382D01*
X620577581Y-11503022D01*
X620529682Y-11453906D01*
X620486696Y-11403035D01*
X620448624Y-11350408D01*
X620415465Y-11296026D01*
X620387220Y-11239889D01*
X620363888Y-11181995D01*
X620345469Y-11122347D01*
X620331964Y-11060942D01*
X620323373Y-10997783D01*
X620319695Y-10932868D01*
G37*
G36*
X631286199Y-7084822D02*
G01*
X631247044Y-7143697D01*
X631209262Y-7203089D01*
X631172855Y-7262995D01*
X631137821Y-7323416D01*
X631104162Y-7384353D01*
X631071876Y-7445805D01*
X631040964Y-7507772D01*
X631011426Y-7570254D01*
X630983261Y-7633252D01*
X630956471Y-7696764D01*
X630939374Y-7739392D01*
X630678034Y-8505094D01*
X629753575Y-11045219D01*
X629733210Y-11101009D01*
X629712416Y-11156636D01*
X629691193Y-11212101D01*
X629669540Y-11267404D01*
X629647458Y-11322545D01*
X629624947Y-11377523D01*
X629602006Y-11432339D01*
X629578636Y-11486994D01*
X629554837Y-11541485D01*
X629530608Y-11595815D01*
X629505950Y-11649983D01*
X629480863Y-11703988D01*
X629455346Y-11757831D01*
X629429400Y-11811512D01*
X629403025Y-11865031D01*
X629376220Y-11918387D01*
X629331870Y-11948269D01*
X629281251Y-11971968D01*
X629234281Y-11986995D01*
X629182958Y-11997728D01*
X629127282Y-12004168D01*
X629067253Y-12006315D01*
X629003769Y-12003872D01*
X628945208Y-11996545D01*
X628891570Y-11984333D01*
X628842855Y-11967236D01*
X628799063Y-11945254D01*
X628751246Y-11910908D01*
X628711121Y-11868928D01*
X628697225Y-11850000D01*
X628671182Y-11782764D01*
X628644956Y-11713710D01*
X628618546Y-11642839D01*
X628591952Y-11570151D01*
X628565175Y-11495645D01*
X628538214Y-11419321D01*
X628511069Y-11341180D01*
X628483741Y-11261222D01*
X628456229Y-11179446D01*
X628428534Y-11095852D01*
X628400655Y-11010441D01*
X628372592Y-10923212D01*
X628344345Y-10834166D01*
X628315915Y-10743303D01*
X628287301Y-10650622D01*
X628258504Y-10556123D01*
X628229522Y-10459807D01*
X628200358Y-10361673D01*
X628171009Y-10261722D01*
X628141477Y-10159953D01*
X628111761Y-10056367D01*
X628081862Y-9950964D01*
X628051778Y-9843742D01*
X628021512Y-9734704D01*
X627991061Y-9623848D01*
X627960427Y-9511174D01*
X627929609Y-9396683D01*
X627898608Y-9280374D01*
X627867423Y-9162248D01*
X627836054Y-9042304D01*
X627804502Y-8920543D01*
X627772766Y-8796964D01*
X627501656Y-7837090D01*
X627477108Y-7748375D01*
X627454143Y-7663582D01*
X627432762Y-7582710D01*
X627412965Y-7505759D01*
X627394752Y-7432729D01*
X627378123Y-7363621D01*
X627363077Y-7298434D01*
X627349615Y-7237168D01*
X627337737Y-7179823D01*
X627327442Y-7126400D01*
X627318731Y-7076898D01*
X627308635Y-7009997D01*
X627302102Y-6951919D01*
X627299132Y-6902664D01*
X627298934Y-6888206D01*
X627302798Y-6831105D01*
X627314390Y-6777953D01*
X627333710Y-6728752D01*
X627360758Y-6683500D01*
X627395534Y-6642198D01*
X627408844Y-6629309D01*
X627447441Y-6597352D01*
X627496269Y-6568426D01*
X627549188Y-6548499D01*
X627597803Y-6538581D01*
X627649423Y-6535275D01*
X627711571Y-6539740D01*
X627767957Y-6553135D01*
X627818580Y-6575461D01*
X627863441Y-6606716D01*
X627902539Y-6646902D01*
X627935874Y-6696017D01*
X627963447Y-6754063D01*
X627980345Y-6803458D01*
X627985257Y-6821039D01*
X628112263Y-7427983D01*
X628441991Y-8615003D01*
X628462582Y-8695787D01*
X628483140Y-8775869D01*
X628503665Y-8855251D01*
X628524156Y-8933931D01*
X628544614Y-9011910D01*
X628565038Y-9089187D01*
X628585429Y-9165763D01*
X628605786Y-9241639D01*
X628626110Y-9316812D01*
X628646401Y-9391285D01*
X628666659Y-9465056D01*
X628686883Y-9538126D01*
X628707073Y-9610495D01*
X628727230Y-9682163D01*
X628747354Y-9753129D01*
X628767445Y-9823394D01*
X628787502Y-9892958D01*
X628807525Y-9961821D01*
X628827515Y-10029982D01*
X628847472Y-10097443D01*
X628867396Y-10164201D01*
X628887286Y-10230259D01*
X628907142Y-10295616D01*
X628926966Y-10360271D01*
X628946756Y-10424225D01*
X628966512Y-10487477D01*
X628986235Y-10550029D01*
X629005925Y-10611879D01*
X629025581Y-10673028D01*
X629045204Y-10733476D01*
X629064794Y-10793222D01*
X629084350Y-10852267D01*
X629105110Y-10796092D01*
X630025906Y-8262072D01*
X630317776Y-7407222D01*
X630342296Y-7347087D01*
X630367006Y-7288802D01*
X630391908Y-7232369D01*
X630417000Y-7177786D01*
X630442283Y-7125055D01*
X630467756Y-7074174D01*
X630493421Y-7025144D01*
X630519276Y-6977965D01*
X630545323Y-6932637D01*
X630571560Y-6889160D01*
X630597987Y-6847534D01*
X630637987Y-6788565D01*
X630678416Y-6733761D01*
X630719274Y-6683121D01*
X630732989Y-6667166D01*
X630769464Y-6629170D01*
X630807908Y-6597614D01*
X630856637Y-6568248D01*
X630908200Y-6548155D01*
X630962596Y-6537336D01*
X631000435Y-6535275D01*
X631051110Y-6538882D01*
X631099639Y-6549701D01*
X631146022Y-6567733D01*
X631190257Y-6592978D01*
X631232346Y-6625435D01*
X631245899Y-6637857D01*
X631282836Y-6677785D01*
X631312131Y-6720633D01*
X631333783Y-6766399D01*
X631347794Y-6815086D01*
X631354162Y-6866692D01*
X631354587Y-6884542D01*
X631350313Y-6934612D01*
X631337490Y-6984682D01*
X631316119Y-7034752D01*
X631290406Y-7078563D01*
X631286199Y-7084822D01*
G37*
G36*
X633766485Y-11850000D02*
G01*
X633082605Y-11850000D01*
X632402389Y-11846336D01*
X632344496Y-11845802D01*
X632291106Y-11844199D01*
X632242219Y-11841527D01*
X632187443Y-11836685D01*
X632131000Y-11828671D01*
X632077956Y-11816283D01*
X632065334Y-11812142D01*
X632015024Y-11786692D01*
X631973242Y-11753848D01*
X631939986Y-11713610D01*
X631915258Y-11665978D01*
X631899056Y-11610952D01*
X631892235Y-11561607D01*
X631890700Y-11521493D01*
X631895444Y-11452746D01*
X631909677Y-11390761D01*
X631933397Y-11335538D01*
X631966606Y-11287077D01*
X632009303Y-11245378D01*
X632061489Y-11210441D01*
X632123162Y-11182266D01*
X632194324Y-11160853D01*
X632247037Y-11150334D01*
X632303967Y-11142821D01*
X632365113Y-11138313D01*
X632430477Y-11136810D01*
X632595341Y-11140474D01*
X632735780Y-11146580D01*
X632735065Y-11092860D01*
X632732918Y-11031686D01*
X632730170Y-10977380D01*
X632726507Y-10918304D01*
X632721927Y-10854457D01*
X632717891Y-10803442D01*
X632713340Y-10749743D01*
X632708274Y-10693361D01*
X632706471Y-10673970D01*
X632701233Y-10616508D01*
X632696511Y-10561814D01*
X632692303Y-10509890D01*
X632688611Y-10460735D01*
X632684489Y-10399502D01*
X632681284Y-10343193D01*
X632678994Y-10291806D01*
X632677420Y-10234496D01*
X632677162Y-10203803D01*
X632677472Y-10149263D01*
X632678402Y-10091279D01*
X632679953Y-10029851D01*
X632682123Y-9964979D01*
X632684914Y-9896663D01*
X632688325Y-9824902D01*
X632692356Y-9749697D01*
X632697007Y-9671048D01*
X632702278Y-9588955D01*
X632708169Y-9503417D01*
X632714681Y-9414436D01*
X632721813Y-9322010D01*
X632729564Y-9226140D01*
X632733673Y-9176913D01*
X632737936Y-9126825D01*
X632742355Y-9075877D01*
X632746929Y-9024067D01*
X632751657Y-8971396D01*
X632756541Y-8917864D01*
X632761196Y-8865217D01*
X632765695Y-8813369D01*
X632770040Y-8762320D01*
X632774229Y-8712070D01*
X632778264Y-8662620D01*
X632785868Y-8566115D01*
X632792852Y-8472807D01*
X632799215Y-8382694D01*
X632804959Y-8295778D01*
X632810082Y-8212058D01*
X632814586Y-8131535D01*
X632818469Y-8054207D01*
X632821732Y-7980075D01*
X632824374Y-7909140D01*
X632826397Y-7841401D01*
X632827799Y-7776858D01*
X632828582Y-7715511D01*
X632828744Y-7657360D01*
X632828593Y-7629483D01*
X632772345Y-7676805D01*
X632718702Y-7721074D01*
X632667664Y-7762290D01*
X632619231Y-7800453D01*
X632573402Y-7835563D01*
X632530177Y-7867620D01*
X632489558Y-7896624D01*
X632433512Y-7934405D01*
X632383326Y-7965317D01*
X632339001Y-7989360D01*
X632289017Y-8010731D01*
X632241188Y-8020272D01*
X632191143Y-8016579D01*
X632135903Y-8002939D01*
X632084053Y-7979246D01*
X632042307Y-7950939D01*
X632003052Y-7915247D01*
X631968605Y-7874747D01*
X631941285Y-7832014D01*
X631921092Y-7787048D01*
X631908026Y-7739850D01*
X631902087Y-7690420D01*
X631901691Y-7673447D01*
X631908906Y-7620227D01*
X631930552Y-7563609D01*
X631958258Y-7515867D01*
X631995200Y-7465950D01*
X632028967Y-7427085D01*
X632067929Y-7386996D01*
X632112086Y-7345683D01*
X632161437Y-7303147D01*
X632197225Y-7274110D01*
X632246035Y-7238313D01*
X632285799Y-7208159D01*
X632328267Y-7175172D01*
X632373440Y-7139352D01*
X632421318Y-7100697D01*
X632471900Y-7059209D01*
X632525188Y-7014888D01*
X632581180Y-6967733D01*
X632620011Y-6934722D01*
X632660043Y-6900452D01*
X632701279Y-6864922D01*
X632722347Y-6846685D01*
X632760095Y-6808975D01*
X632797623Y-6773698D01*
X632834932Y-6740854D01*
X632890484Y-6696150D01*
X632945543Y-6656920D01*
X633000108Y-6623163D01*
X633054178Y-6594881D01*
X633107756Y-6572073D01*
X633160839Y-6554738D01*
X633213429Y-6542878D01*
X633265525Y-6536492D01*
X633299981Y-6535275D01*
X633353791Y-6539320D01*
X633410964Y-6555754D01*
X633456926Y-6584830D01*
X633491678Y-6626547D01*
X633515220Y-6680905D01*
X633525982Y-6733493D01*
X633529569Y-6794173D01*
X633527927Y-6844029D01*
X633523710Y-6898239D01*
X633517892Y-6953312D01*
X633511323Y-7006192D01*
X633508809Y-7024982D01*
X633501753Y-7079608D01*
X633496158Y-7128995D01*
X633491475Y-7179994D01*
X633488555Y-7229549D01*
X633488048Y-7255792D01*
X633488633Y-7309904D01*
X633490064Y-7365031D01*
X633491912Y-7417135D01*
X633494357Y-7474844D01*
X633496742Y-7525048D01*
X633499509Y-7578838D01*
X633500260Y-7592847D01*
X633503123Y-7647248D01*
X633505603Y-7698100D01*
X633508167Y-7756674D01*
X633510135Y-7809703D01*
X633511709Y-7866017D01*
X633512461Y-7921624D01*
X633512472Y-7928681D01*
X633512148Y-7978087D01*
X633511175Y-8030442D01*
X633509553Y-8085745D01*
X633507282Y-8143996D01*
X633504363Y-8205195D01*
X633500795Y-8269342D01*
X633496578Y-8336437D01*
X633491712Y-8406481D01*
X633486197Y-8479472D01*
X633480034Y-8555412D01*
X633473222Y-8634299D01*
X633465761Y-8716135D01*
X633457651Y-8800919D01*
X633448893Y-8888650D01*
X633439486Y-8979330D01*
X633429430Y-9072958D01*
X633419522Y-9166577D01*
X633410253Y-9257228D01*
X633401623Y-9344912D01*
X633393633Y-9429629D01*
X633386282Y-9511379D01*
X633379570Y-9590162D01*
X633373497Y-9665977D01*
X633368064Y-9738825D01*
X633363270Y-9808707D01*
X633359115Y-9875620D01*
X633355599Y-9939567D01*
X633352722Y-10000547D01*
X633350485Y-10058559D01*
X633348887Y-10113605D01*
X633347928Y-10165683D01*
X633347609Y-10214794D01*
X633348028Y-10264673D01*
X633349288Y-10317223D01*
X633351387Y-10372445D01*
X633354325Y-10430338D01*
X633358103Y-10490903D01*
X633362721Y-10554139D01*
X633366735Y-10603319D01*
X633371222Y-10654001D01*
X633374475Y-10688625D01*
X633379527Y-10740170D01*
X633384150Y-10789933D01*
X633389645Y-10853513D01*
X633394377Y-10913924D01*
X633398346Y-10971169D01*
X633401552Y-11025246D01*
X633403994Y-11076155D01*
X633405974Y-11135338D01*
X633406227Y-11146580D01*
X633766485Y-11140474D01*
X633818764Y-11144037D01*
X633867521Y-11154728D01*
X633919956Y-11176208D01*
X633967599Y-11207388D01*
X634004622Y-11241835D01*
X634036994Y-11281605D01*
X634062668Y-11324896D01*
X634081644Y-11371708D01*
X634093923Y-11422040D01*
X634099504Y-11475893D01*
X634099877Y-11494626D01*
X634096528Y-11550854D01*
X634086481Y-11603219D01*
X634069737Y-11651719D01*
X634046296Y-11696355D01*
X634016157Y-11737128D01*
X634004622Y-11749860D01*
X633967599Y-11783892D01*
X633919956Y-11814696D01*
X633867521Y-11835917D01*
X633818764Y-11846479D01*
X633766485Y-11850000D01*
G37*
D11*
X639451207Y-11209227D02*
X640165493Y-11209227D01*
X639308350Y-11637798D02*
X639808350Y-10137798D01*
X639808350Y-10137798D02*
X640308350Y-11637798D01*
X640808349Y-11637798D02*
X640808349Y-10137798D01*
X641665492Y-11637798D02*
X641022635Y-10780655D01*
X641665492Y-10137798D02*
X640808349Y-10994941D01*
X642236921Y-11209227D02*
X642951207Y-11209227D01*
X642094064Y-11637798D02*
X642594064Y-10137798D01*
X642594064Y-10137798D02*
X643094064Y-11637798D01*
X644522635Y-10637798D02*
X645094063Y-10637798D01*
X644736920Y-10137798D02*
X644736920Y-11423512D01*
X644736920Y-11423512D02*
X644808349Y-11566370D01*
X644808349Y-11566370D02*
X644951206Y-11637798D01*
X644951206Y-11637798D02*
X645094063Y-11637798D01*
X645594063Y-11637798D02*
X645594063Y-10137798D01*
X646236921Y-11637798D02*
X646236921Y-10852084D01*
X646236921Y-10852084D02*
X646165492Y-10709227D01*
X646165492Y-10709227D02*
X646022635Y-10637798D01*
X646022635Y-10637798D02*
X645808349Y-10637798D01*
X645808349Y-10637798D02*
X645665492Y-10709227D01*
X645665492Y-10709227D02*
X645594063Y-10780655D01*
X647522635Y-11566370D02*
X647379778Y-11637798D01*
X647379778Y-11637798D02*
X647094064Y-11637798D01*
X647094064Y-11637798D02*
X646951206Y-11566370D01*
X646951206Y-11566370D02*
X646879778Y-11423512D01*
X646879778Y-11423512D02*
X646879778Y-10852084D01*
X646879778Y-10852084D02*
X646951206Y-10709227D01*
X646951206Y-10709227D02*
X647094064Y-10637798D01*
X647094064Y-10637798D02*
X647379778Y-10637798D01*
X647379778Y-10637798D02*
X647522635Y-10709227D01*
X647522635Y-10709227D02*
X647594064Y-10852084D01*
X647594064Y-10852084D02*
X647594064Y-10994941D01*
X647594064Y-10994941D02*
X646879778Y-11137798D01*
X650236920Y-11494941D02*
X650165492Y-11566370D01*
X650165492Y-11566370D02*
X649951206Y-11637798D01*
X649951206Y-11637798D02*
X649808349Y-11637798D01*
X649808349Y-11637798D02*
X649594063Y-11566370D01*
X649594063Y-11566370D02*
X649451206Y-11423512D01*
X649451206Y-11423512D02*
X649379777Y-11280655D01*
X649379777Y-11280655D02*
X649308349Y-10994941D01*
X649308349Y-10994941D02*
X649308349Y-10780655D01*
X649308349Y-10780655D02*
X649379777Y-10494941D01*
X649379777Y-10494941D02*
X649451206Y-10352084D01*
X649451206Y-10352084D02*
X649594063Y-10209227D01*
X649594063Y-10209227D02*
X649808349Y-10137798D01*
X649808349Y-10137798D02*
X649951206Y-10137798D01*
X649951206Y-10137798D02*
X650165492Y-10209227D01*
X650165492Y-10209227D02*
X650236920Y-10280655D01*
X651165492Y-10137798D02*
X651451206Y-10137798D01*
X651451206Y-10137798D02*
X651594063Y-10209227D01*
X651594063Y-10209227D02*
X651736920Y-10352084D01*
X651736920Y-10352084D02*
X651808349Y-10637798D01*
X651808349Y-10637798D02*
X651808349Y-11137798D01*
X651808349Y-11137798D02*
X651736920Y-11423512D01*
X651736920Y-11423512D02*
X651594063Y-11566370D01*
X651594063Y-11566370D02*
X651451206Y-11637798D01*
X651451206Y-11637798D02*
X651165492Y-11637798D01*
X651165492Y-11637798D02*
X651022635Y-11566370D01*
X651022635Y-11566370D02*
X650879777Y-11423512D01*
X650879777Y-11423512D02*
X650808349Y-11137798D01*
X650808349Y-11137798D02*
X650808349Y-10637798D01*
X650808349Y-10637798D02*
X650879777Y-10352084D01*
X650879777Y-10352084D02*
X651022635Y-10209227D01*
X651022635Y-10209227D02*
X651165492Y-10137798D01*
X653308349Y-11494941D02*
X653236921Y-11566370D01*
X653236921Y-11566370D02*
X653022635Y-11637798D01*
X653022635Y-11637798D02*
X652879778Y-11637798D01*
X652879778Y-11637798D02*
X652665492Y-11566370D01*
X652665492Y-11566370D02*
X652522635Y-11423512D01*
X652522635Y-11423512D02*
X652451206Y-11280655D01*
X652451206Y-11280655D02*
X652379778Y-10994941D01*
X652379778Y-10994941D02*
X652379778Y-10780655D01*
X652379778Y-10780655D02*
X652451206Y-10494941D01*
X652451206Y-10494941D02*
X652522635Y-10352084D01*
X652522635Y-10352084D02*
X652665492Y-10209227D01*
X652665492Y-10209227D02*
X652879778Y-10137798D01*
X652879778Y-10137798D02*
X653022635Y-10137798D01*
X653022635Y-10137798D02*
X653236921Y-10209227D01*
X653236921Y-10209227D02*
X653308349Y-10280655D01*
X653951206Y-11637798D02*
X653951206Y-10137798D01*
X654808349Y-11637798D02*
X654165492Y-10780655D01*
X654808349Y-10137798D02*
X653951206Y-10994941D01*
X656594063Y-11494941D02*
X656665492Y-11566370D01*
X656665492Y-11566370D02*
X656594063Y-11637798D01*
X656594063Y-11637798D02*
X656522635Y-11566370D01*
X656522635Y-11566370D02*
X656594063Y-11494941D01*
X656594063Y-11494941D02*
X656594063Y-11637798D01*
X656594063Y-10709227D02*
X656665492Y-10780655D01*
X656665492Y-10780655D02*
X656594063Y-10852084D01*
X656594063Y-10852084D02*
X656522635Y-10780655D01*
X656522635Y-10780655D02*
X656594063Y-10709227D01*
X656594063Y-10709227D02*
X656594063Y-10852084D01*
X657165492Y-12209227D02*
X657236921Y-12137798D01*
X657236921Y-12137798D02*
X657379778Y-11923512D01*
X657379778Y-11923512D02*
X657451207Y-11780655D01*
X657451207Y-11780655D02*
X657522635Y-11566370D01*
X657522635Y-11566370D02*
X657594064Y-11209227D01*
X657594064Y-11209227D02*
X657594064Y-10923512D01*
X657594064Y-10923512D02*
X657522635Y-10566370D01*
X657522635Y-10566370D02*
X657451207Y-10352084D01*
X657451207Y-10352084D02*
X657379778Y-10209227D01*
X657379778Y-10209227D02*
X657236921Y-9994941D01*
X657236921Y-9994941D02*
X657165492Y-9923512D01*
D10*
%TO.C,R5*%
X715084819Y-2706666D02*
X714608628Y-3039999D01*
X715084819Y-3278094D02*
X714084819Y-3278094D01*
X714084819Y-3278094D02*
X714084819Y-2897142D01*
X714084819Y-2897142D02*
X714132438Y-2801904D01*
X714132438Y-2801904D02*
X714180057Y-2754285D01*
X714180057Y-2754285D02*
X714275295Y-2706666D01*
X714275295Y-2706666D02*
X714418152Y-2706666D01*
X714418152Y-2706666D02*
X714513390Y-2754285D01*
X714513390Y-2754285D02*
X714561009Y-2801904D01*
X714561009Y-2801904D02*
X714608628Y-2897142D01*
X714608628Y-2897142D02*
X714608628Y-3278094D01*
X714084819Y-1801904D02*
X714084819Y-2278094D01*
X714084819Y-2278094D02*
X714561009Y-2325713D01*
X714561009Y-2325713D02*
X714513390Y-2278094D01*
X714513390Y-2278094D02*
X714465771Y-2182856D01*
X714465771Y-2182856D02*
X714465771Y-1944761D01*
X714465771Y-1944761D02*
X714513390Y-1849523D01*
X714513390Y-1849523D02*
X714561009Y-1801904D01*
X714561009Y-1801904D02*
X714656247Y-1754285D01*
X714656247Y-1754285D02*
X714894342Y-1754285D01*
X714894342Y-1754285D02*
X714989580Y-1801904D01*
X714989580Y-1801904D02*
X715037200Y-1849523D01*
X715037200Y-1849523D02*
X715084819Y-1944761D01*
X715084819Y-1944761D02*
X715084819Y-2182856D01*
X715084819Y-2182856D02*
X715037200Y-2278094D01*
X715037200Y-2278094D02*
X714989580Y-2325713D01*
%TO.C,D124*%
X735404819Y-8040475D02*
X734404819Y-8040475D01*
X734404819Y-8040475D02*
X734404819Y-7802380D01*
X734404819Y-7802380D02*
X734452438Y-7659523D01*
X734452438Y-7659523D02*
X734547676Y-7564285D01*
X734547676Y-7564285D02*
X734642914Y-7516666D01*
X734642914Y-7516666D02*
X734833390Y-7469047D01*
X734833390Y-7469047D02*
X734976247Y-7469047D01*
X734976247Y-7469047D02*
X735166723Y-7516666D01*
X735166723Y-7516666D02*
X735261961Y-7564285D01*
X735261961Y-7564285D02*
X735357200Y-7659523D01*
X735357200Y-7659523D02*
X735404819Y-7802380D01*
X735404819Y-7802380D02*
X735404819Y-8040475D01*
X735404819Y-6516666D02*
X735404819Y-7088094D01*
X735404819Y-6802380D02*
X734404819Y-6802380D01*
X734404819Y-6802380D02*
X734547676Y-6897618D01*
X734547676Y-6897618D02*
X734642914Y-6992856D01*
X734642914Y-6992856D02*
X734690533Y-7088094D01*
X734500057Y-6135713D02*
X734452438Y-6088094D01*
X734452438Y-6088094D02*
X734404819Y-5992856D01*
X734404819Y-5992856D02*
X734404819Y-5754761D01*
X734404819Y-5754761D02*
X734452438Y-5659523D01*
X734452438Y-5659523D02*
X734500057Y-5611904D01*
X734500057Y-5611904D02*
X734595295Y-5564285D01*
X734595295Y-5564285D02*
X734690533Y-5564285D01*
X734690533Y-5564285D02*
X734833390Y-5611904D01*
X734833390Y-5611904D02*
X735404819Y-6183332D01*
X735404819Y-6183332D02*
X735404819Y-5564285D01*
X734738152Y-4707142D02*
X735404819Y-4707142D01*
X734357200Y-4945237D02*
X735071485Y-5183332D01*
X735071485Y-5183332D02*
X735071485Y-4564285D01*
%TO.C,R11*%
X738704819Y-13342857D02*
X738228628Y-13676190D01*
X738704819Y-13914285D02*
X737704819Y-13914285D01*
X737704819Y-13914285D02*
X737704819Y-13533333D01*
X737704819Y-13533333D02*
X737752438Y-13438095D01*
X737752438Y-13438095D02*
X737800057Y-13390476D01*
X737800057Y-13390476D02*
X737895295Y-13342857D01*
X737895295Y-13342857D02*
X738038152Y-13342857D01*
X738038152Y-13342857D02*
X738133390Y-13390476D01*
X738133390Y-13390476D02*
X738181009Y-13438095D01*
X738181009Y-13438095D02*
X738228628Y-13533333D01*
X738228628Y-13533333D02*
X738228628Y-13914285D01*
X738704819Y-12390476D02*
X738704819Y-12961904D01*
X738704819Y-12676190D02*
X737704819Y-12676190D01*
X737704819Y-12676190D02*
X737847676Y-12771428D01*
X737847676Y-12771428D02*
X737942914Y-12866666D01*
X737942914Y-12866666D02*
X737990533Y-12961904D01*
X738704819Y-11438095D02*
X738704819Y-12009523D01*
X738704819Y-11723809D02*
X737704819Y-11723809D01*
X737704819Y-11723809D02*
X737847676Y-11819047D01*
X737847676Y-11819047D02*
X737942914Y-11914285D01*
X737942914Y-11914285D02*
X737990533Y-12009523D01*
%TO.C,R12*%
X711274819Y-13072857D02*
X710798628Y-13406190D01*
X711274819Y-13644285D02*
X710274819Y-13644285D01*
X710274819Y-13644285D02*
X710274819Y-13263333D01*
X710274819Y-13263333D02*
X710322438Y-13168095D01*
X710322438Y-13168095D02*
X710370057Y-13120476D01*
X710370057Y-13120476D02*
X710465295Y-13072857D01*
X710465295Y-13072857D02*
X710608152Y-13072857D01*
X710608152Y-13072857D02*
X710703390Y-13120476D01*
X710703390Y-13120476D02*
X710751009Y-13168095D01*
X710751009Y-13168095D02*
X710798628Y-13263333D01*
X710798628Y-13263333D02*
X710798628Y-13644285D01*
X711274819Y-12120476D02*
X711274819Y-12691904D01*
X711274819Y-12406190D02*
X710274819Y-12406190D01*
X710274819Y-12406190D02*
X710417676Y-12501428D01*
X710417676Y-12501428D02*
X710512914Y-12596666D01*
X710512914Y-12596666D02*
X710560533Y-12691904D01*
X710370057Y-11739523D02*
X710322438Y-11691904D01*
X710322438Y-11691904D02*
X710274819Y-11596666D01*
X710274819Y-11596666D02*
X710274819Y-11358571D01*
X710274819Y-11358571D02*
X710322438Y-11263333D01*
X710322438Y-11263333D02*
X710370057Y-11215714D01*
X710370057Y-11215714D02*
X710465295Y-11168095D01*
X710465295Y-11168095D02*
X710560533Y-11168095D01*
X710560533Y-11168095D02*
X710703390Y-11215714D01*
X710703390Y-11215714D02*
X711274819Y-11787142D01*
X711274819Y-11787142D02*
X711274819Y-11168095D01*
%TO.C,R4*%
X725244819Y-2706666D02*
X724768628Y-3039999D01*
X725244819Y-3278094D02*
X724244819Y-3278094D01*
X724244819Y-3278094D02*
X724244819Y-2897142D01*
X724244819Y-2897142D02*
X724292438Y-2801904D01*
X724292438Y-2801904D02*
X724340057Y-2754285D01*
X724340057Y-2754285D02*
X724435295Y-2706666D01*
X724435295Y-2706666D02*
X724578152Y-2706666D01*
X724578152Y-2706666D02*
X724673390Y-2754285D01*
X724673390Y-2754285D02*
X724721009Y-2801904D01*
X724721009Y-2801904D02*
X724768628Y-2897142D01*
X724768628Y-2897142D02*
X724768628Y-3278094D01*
X724578152Y-1849523D02*
X725244819Y-1849523D01*
X724197200Y-2087618D02*
X724911485Y-2325713D01*
X724911485Y-2325713D02*
X724911485Y-1706666D01*
%TO.C,R7*%
X455306133Y-9218819D02*
X454972800Y-8742628D01*
X454734705Y-9218819D02*
X454734705Y-8218819D01*
X454734705Y-8218819D02*
X455115657Y-8218819D01*
X455115657Y-8218819D02*
X455210895Y-8266438D01*
X455210895Y-8266438D02*
X455258514Y-8314057D01*
X455258514Y-8314057D02*
X455306133Y-8409295D01*
X455306133Y-8409295D02*
X455306133Y-8552152D01*
X455306133Y-8552152D02*
X455258514Y-8647390D01*
X455258514Y-8647390D02*
X455210895Y-8695009D01*
X455210895Y-8695009D02*
X455115657Y-8742628D01*
X455115657Y-8742628D02*
X454734705Y-8742628D01*
X455639467Y-8218819D02*
X456306133Y-8218819D01*
X456306133Y-8218819D02*
X455877562Y-9218819D01*
%TO.C,D123*%
X725244819Y-8040475D02*
X724244819Y-8040475D01*
X724244819Y-8040475D02*
X724244819Y-7802380D01*
X724244819Y-7802380D02*
X724292438Y-7659523D01*
X724292438Y-7659523D02*
X724387676Y-7564285D01*
X724387676Y-7564285D02*
X724482914Y-7516666D01*
X724482914Y-7516666D02*
X724673390Y-7469047D01*
X724673390Y-7469047D02*
X724816247Y-7469047D01*
X724816247Y-7469047D02*
X725006723Y-7516666D01*
X725006723Y-7516666D02*
X725101961Y-7564285D01*
X725101961Y-7564285D02*
X725197200Y-7659523D01*
X725197200Y-7659523D02*
X725244819Y-7802380D01*
X725244819Y-7802380D02*
X725244819Y-8040475D01*
X725244819Y-6516666D02*
X725244819Y-7088094D01*
X725244819Y-6802380D02*
X724244819Y-6802380D01*
X724244819Y-6802380D02*
X724387676Y-6897618D01*
X724387676Y-6897618D02*
X724482914Y-6992856D01*
X724482914Y-6992856D02*
X724530533Y-7088094D01*
X724340057Y-6135713D02*
X724292438Y-6088094D01*
X724292438Y-6088094D02*
X724244819Y-5992856D01*
X724244819Y-5992856D02*
X724244819Y-5754761D01*
X724244819Y-5754761D02*
X724292438Y-5659523D01*
X724292438Y-5659523D02*
X724340057Y-5611904D01*
X724340057Y-5611904D02*
X724435295Y-5564285D01*
X724435295Y-5564285D02*
X724530533Y-5564285D01*
X724530533Y-5564285D02*
X724673390Y-5611904D01*
X724673390Y-5611904D02*
X725244819Y-6183332D01*
X725244819Y-6183332D02*
X725244819Y-5564285D01*
X724244819Y-5230951D02*
X724244819Y-4611904D01*
X724244819Y-4611904D02*
X724625771Y-4945237D01*
X724625771Y-4945237D02*
X724625771Y-4802380D01*
X724625771Y-4802380D02*
X724673390Y-4707142D01*
X724673390Y-4707142D02*
X724721009Y-4659523D01*
X724721009Y-4659523D02*
X724816247Y-4611904D01*
X724816247Y-4611904D02*
X725054342Y-4611904D01*
X725054342Y-4611904D02*
X725149580Y-4659523D01*
X725149580Y-4659523D02*
X725197200Y-4707142D01*
X725197200Y-4707142D02*
X725244819Y-4802380D01*
X725244819Y-4802380D02*
X725244819Y-5088094D01*
X725244819Y-5088094D02*
X725197200Y-5183332D01*
X725197200Y-5183332D02*
X725149580Y-5230951D01*
%TO.C,R8*%
X455306133Y-6424819D02*
X454972800Y-5948628D01*
X454734705Y-6424819D02*
X454734705Y-5424819D01*
X454734705Y-5424819D02*
X455115657Y-5424819D01*
X455115657Y-5424819D02*
X455210895Y-5472438D01*
X455210895Y-5472438D02*
X455258514Y-5520057D01*
X455258514Y-5520057D02*
X455306133Y-5615295D01*
X455306133Y-5615295D02*
X455306133Y-5758152D01*
X455306133Y-5758152D02*
X455258514Y-5853390D01*
X455258514Y-5853390D02*
X455210895Y-5901009D01*
X455210895Y-5901009D02*
X455115657Y-5948628D01*
X455115657Y-5948628D02*
X454734705Y-5948628D01*
X455877562Y-5853390D02*
X455782324Y-5805771D01*
X455782324Y-5805771D02*
X455734705Y-5758152D01*
X455734705Y-5758152D02*
X455687086Y-5662914D01*
X455687086Y-5662914D02*
X455687086Y-5615295D01*
X455687086Y-5615295D02*
X455734705Y-5520057D01*
X455734705Y-5520057D02*
X455782324Y-5472438D01*
X455782324Y-5472438D02*
X455877562Y-5424819D01*
X455877562Y-5424819D02*
X456068038Y-5424819D01*
X456068038Y-5424819D02*
X456163276Y-5472438D01*
X456163276Y-5472438D02*
X456210895Y-5520057D01*
X456210895Y-5520057D02*
X456258514Y-5615295D01*
X456258514Y-5615295D02*
X456258514Y-5662914D01*
X456258514Y-5662914D02*
X456210895Y-5758152D01*
X456210895Y-5758152D02*
X456163276Y-5805771D01*
X456163276Y-5805771D02*
X456068038Y-5853390D01*
X456068038Y-5853390D02*
X455877562Y-5853390D01*
X455877562Y-5853390D02*
X455782324Y-5901009D01*
X455782324Y-5901009D02*
X455734705Y-5948628D01*
X455734705Y-5948628D02*
X455687086Y-6043866D01*
X455687086Y-6043866D02*
X455687086Y-6234342D01*
X455687086Y-6234342D02*
X455734705Y-6329580D01*
X455734705Y-6329580D02*
X455782324Y-6377200D01*
X455782324Y-6377200D02*
X455877562Y-6424819D01*
X455877562Y-6424819D02*
X456068038Y-6424819D01*
X456068038Y-6424819D02*
X456163276Y-6377200D01*
X456163276Y-6377200D02*
X456210895Y-6329580D01*
X456210895Y-6329580D02*
X456258514Y-6234342D01*
X456258514Y-6234342D02*
X456258514Y-6043866D01*
X456258514Y-6043866D02*
X456210895Y-5948628D01*
X456210895Y-5948628D02*
X456163276Y-5901009D01*
X456163276Y-5901009D02*
X456068038Y-5853390D01*
%TO.C,C1*%
X462193433Y-14841180D02*
X462145814Y-14888800D01*
X462145814Y-14888800D02*
X462002957Y-14936419D01*
X462002957Y-14936419D02*
X461907719Y-14936419D01*
X461907719Y-14936419D02*
X461764862Y-14888800D01*
X461764862Y-14888800D02*
X461669624Y-14793561D01*
X461669624Y-14793561D02*
X461622005Y-14698323D01*
X461622005Y-14698323D02*
X461574386Y-14507847D01*
X461574386Y-14507847D02*
X461574386Y-14364990D01*
X461574386Y-14364990D02*
X461622005Y-14174514D01*
X461622005Y-14174514D02*
X461669624Y-14079276D01*
X461669624Y-14079276D02*
X461764862Y-13984038D01*
X461764862Y-13984038D02*
X461907719Y-13936419D01*
X461907719Y-13936419D02*
X462002957Y-13936419D01*
X462002957Y-13936419D02*
X462145814Y-13984038D01*
X462145814Y-13984038D02*
X462193433Y-14031657D01*
X463145814Y-14936419D02*
X462574386Y-14936419D01*
X462860100Y-14936419D02*
X462860100Y-13936419D01*
X462860100Y-13936419D02*
X462764862Y-14079276D01*
X462764862Y-14079276D02*
X462669624Y-14174514D01*
X462669624Y-14174514D02*
X462574386Y-14222133D01*
%TO.C,R10*%
X725244819Y-13342857D02*
X724768628Y-13676190D01*
X725244819Y-13914285D02*
X724244819Y-13914285D01*
X724244819Y-13914285D02*
X724244819Y-13533333D01*
X724244819Y-13533333D02*
X724292438Y-13438095D01*
X724292438Y-13438095D02*
X724340057Y-13390476D01*
X724340057Y-13390476D02*
X724435295Y-13342857D01*
X724435295Y-13342857D02*
X724578152Y-13342857D01*
X724578152Y-13342857D02*
X724673390Y-13390476D01*
X724673390Y-13390476D02*
X724721009Y-13438095D01*
X724721009Y-13438095D02*
X724768628Y-13533333D01*
X724768628Y-13533333D02*
X724768628Y-13914285D01*
X725244819Y-12390476D02*
X725244819Y-12961904D01*
X725244819Y-12676190D02*
X724244819Y-12676190D01*
X724244819Y-12676190D02*
X724387676Y-12771428D01*
X724387676Y-12771428D02*
X724482914Y-12866666D01*
X724482914Y-12866666D02*
X724530533Y-12961904D01*
X724244819Y-11771428D02*
X724244819Y-11676190D01*
X724244819Y-11676190D02*
X724292438Y-11580952D01*
X724292438Y-11580952D02*
X724340057Y-11533333D01*
X724340057Y-11533333D02*
X724435295Y-11485714D01*
X724435295Y-11485714D02*
X724625771Y-11438095D01*
X724625771Y-11438095D02*
X724863866Y-11438095D01*
X724863866Y-11438095D02*
X725054342Y-11485714D01*
X725054342Y-11485714D02*
X725149580Y-11533333D01*
X725149580Y-11533333D02*
X725197200Y-11580952D01*
X725197200Y-11580952D02*
X725244819Y-11676190D01*
X725244819Y-11676190D02*
X725244819Y-11771428D01*
X725244819Y-11771428D02*
X725197200Y-11866666D01*
X725197200Y-11866666D02*
X725149580Y-11914285D01*
X725149580Y-11914285D02*
X725054342Y-11961904D01*
X725054342Y-11961904D02*
X724863866Y-12009523D01*
X724863866Y-12009523D02*
X724625771Y-12009523D01*
X724625771Y-12009523D02*
X724435295Y-11961904D01*
X724435295Y-11961904D02*
X724340057Y-11914285D01*
X724340057Y-11914285D02*
X724292438Y-11866666D01*
X724292438Y-11866666D02*
X724244819Y-11771428D01*
%TO.C,Q1*%
X731484761Y-10630057D02*
X731389523Y-10582438D01*
X731389523Y-10582438D02*
X731294285Y-10487200D01*
X731294285Y-10487200D02*
X731151428Y-10344342D01*
X731151428Y-10344342D02*
X731056190Y-10296723D01*
X731056190Y-10296723D02*
X730960952Y-10296723D01*
X731008571Y-10534819D02*
X730913333Y-10487200D01*
X730913333Y-10487200D02*
X730818095Y-10391961D01*
X730818095Y-10391961D02*
X730770476Y-10201485D01*
X730770476Y-10201485D02*
X730770476Y-9868152D01*
X730770476Y-9868152D02*
X730818095Y-9677676D01*
X730818095Y-9677676D02*
X730913333Y-9582438D01*
X730913333Y-9582438D02*
X731008571Y-9534819D01*
X731008571Y-9534819D02*
X731199047Y-9534819D01*
X731199047Y-9534819D02*
X731294285Y-9582438D01*
X731294285Y-9582438D02*
X731389523Y-9677676D01*
X731389523Y-9677676D02*
X731437142Y-9868152D01*
X731437142Y-9868152D02*
X731437142Y-10201485D01*
X731437142Y-10201485D02*
X731389523Y-10391961D01*
X731389523Y-10391961D02*
X731294285Y-10487200D01*
X731294285Y-10487200D02*
X731199047Y-10534819D01*
X731199047Y-10534819D02*
X731008571Y-10534819D01*
X732389523Y-10534819D02*
X731818095Y-10534819D01*
X732103809Y-10534819D02*
X732103809Y-9534819D01*
X732103809Y-9534819D02*
X732008571Y-9677676D01*
X732008571Y-9677676D02*
X731913333Y-9772914D01*
X731913333Y-9772914D02*
X731818095Y-9820533D01*
%TO.C,R3*%
X735404819Y-2706666D02*
X734928628Y-3039999D01*
X735404819Y-3278094D02*
X734404819Y-3278094D01*
X734404819Y-3278094D02*
X734404819Y-2897142D01*
X734404819Y-2897142D02*
X734452438Y-2801904D01*
X734452438Y-2801904D02*
X734500057Y-2754285D01*
X734500057Y-2754285D02*
X734595295Y-2706666D01*
X734595295Y-2706666D02*
X734738152Y-2706666D01*
X734738152Y-2706666D02*
X734833390Y-2754285D01*
X734833390Y-2754285D02*
X734881009Y-2801904D01*
X734881009Y-2801904D02*
X734928628Y-2897142D01*
X734928628Y-2897142D02*
X734928628Y-3278094D01*
X734404819Y-2373332D02*
X734404819Y-1754285D01*
X734404819Y-1754285D02*
X734785771Y-2087618D01*
X734785771Y-2087618D02*
X734785771Y-1944761D01*
X734785771Y-1944761D02*
X734833390Y-1849523D01*
X734833390Y-1849523D02*
X734881009Y-1801904D01*
X734881009Y-1801904D02*
X734976247Y-1754285D01*
X734976247Y-1754285D02*
X735214342Y-1754285D01*
X735214342Y-1754285D02*
X735309580Y-1801904D01*
X735309580Y-1801904D02*
X735357200Y-1849523D01*
X735357200Y-1849523D02*
X735404819Y-1944761D01*
X735404819Y-1944761D02*
X735404819Y-2230475D01*
X735404819Y-2230475D02*
X735357200Y-2325713D01*
X735357200Y-2325713D02*
X735309580Y-2373332D01*
%TO.C,SW1*%
X443861667Y-15377200D02*
X444004524Y-15424819D01*
X444004524Y-15424819D02*
X444242619Y-15424819D01*
X444242619Y-15424819D02*
X444337857Y-15377200D01*
X444337857Y-15377200D02*
X444385476Y-15329580D01*
X444385476Y-15329580D02*
X444433095Y-15234342D01*
X444433095Y-15234342D02*
X444433095Y-15139104D01*
X444433095Y-15139104D02*
X444385476Y-15043866D01*
X444385476Y-15043866D02*
X444337857Y-14996247D01*
X444337857Y-14996247D02*
X444242619Y-14948628D01*
X444242619Y-14948628D02*
X444052143Y-14901009D01*
X444052143Y-14901009D02*
X443956905Y-14853390D01*
X443956905Y-14853390D02*
X443909286Y-14805771D01*
X443909286Y-14805771D02*
X443861667Y-14710533D01*
X443861667Y-14710533D02*
X443861667Y-14615295D01*
X443861667Y-14615295D02*
X443909286Y-14520057D01*
X443909286Y-14520057D02*
X443956905Y-14472438D01*
X443956905Y-14472438D02*
X444052143Y-14424819D01*
X444052143Y-14424819D02*
X444290238Y-14424819D01*
X444290238Y-14424819D02*
X444433095Y-14472438D01*
X444766429Y-14424819D02*
X445004524Y-15424819D01*
X445004524Y-15424819D02*
X445195000Y-14710533D01*
X445195000Y-14710533D02*
X445385476Y-15424819D01*
X445385476Y-15424819D02*
X445623572Y-14424819D01*
X446528333Y-15424819D02*
X445956905Y-15424819D01*
X446242619Y-15424819D02*
X446242619Y-14424819D01*
X446242619Y-14424819D02*
X446147381Y-14567676D01*
X446147381Y-14567676D02*
X446052143Y-14662914D01*
X446052143Y-14662914D02*
X445956905Y-14710533D01*
%TO.C,R6*%
X457998533Y-11606419D02*
X457665200Y-11130228D01*
X457427105Y-11606419D02*
X457427105Y-10606419D01*
X457427105Y-10606419D02*
X457808057Y-10606419D01*
X457808057Y-10606419D02*
X457903295Y-10654038D01*
X457903295Y-10654038D02*
X457950914Y-10701657D01*
X457950914Y-10701657D02*
X457998533Y-10796895D01*
X457998533Y-10796895D02*
X457998533Y-10939752D01*
X457998533Y-10939752D02*
X457950914Y-11034990D01*
X457950914Y-11034990D02*
X457903295Y-11082609D01*
X457903295Y-11082609D02*
X457808057Y-11130228D01*
X457808057Y-11130228D02*
X457427105Y-11130228D01*
X458855676Y-10606419D02*
X458665200Y-10606419D01*
X458665200Y-10606419D02*
X458569962Y-10654038D01*
X458569962Y-10654038D02*
X458522343Y-10701657D01*
X458522343Y-10701657D02*
X458427105Y-10844514D01*
X458427105Y-10844514D02*
X458379486Y-11034990D01*
X458379486Y-11034990D02*
X458379486Y-11415942D01*
X458379486Y-11415942D02*
X458427105Y-11511180D01*
X458427105Y-11511180D02*
X458474724Y-11558800D01*
X458474724Y-11558800D02*
X458569962Y-11606419D01*
X458569962Y-11606419D02*
X458760438Y-11606419D01*
X458760438Y-11606419D02*
X458855676Y-11558800D01*
X458855676Y-11558800D02*
X458903295Y-11511180D01*
X458903295Y-11511180D02*
X458950914Y-11415942D01*
X458950914Y-11415942D02*
X458950914Y-11177847D01*
X458950914Y-11177847D02*
X458903295Y-11082609D01*
X458903295Y-11082609D02*
X458855676Y-11034990D01*
X458855676Y-11034990D02*
X458760438Y-10987371D01*
X458760438Y-10987371D02*
X458569962Y-10987371D01*
X458569962Y-10987371D02*
X458474724Y-11034990D01*
X458474724Y-11034990D02*
X458427105Y-11082609D01*
X458427105Y-11082609D02*
X458379486Y-11177847D01*
%TO.C,D122*%
X715084819Y-8040475D02*
X714084819Y-8040475D01*
X714084819Y-8040475D02*
X714084819Y-7802380D01*
X714084819Y-7802380D02*
X714132438Y-7659523D01*
X714132438Y-7659523D02*
X714227676Y-7564285D01*
X714227676Y-7564285D02*
X714322914Y-7516666D01*
X714322914Y-7516666D02*
X714513390Y-7469047D01*
X714513390Y-7469047D02*
X714656247Y-7469047D01*
X714656247Y-7469047D02*
X714846723Y-7516666D01*
X714846723Y-7516666D02*
X714941961Y-7564285D01*
X714941961Y-7564285D02*
X715037200Y-7659523D01*
X715037200Y-7659523D02*
X715084819Y-7802380D01*
X715084819Y-7802380D02*
X715084819Y-8040475D01*
X715084819Y-6516666D02*
X715084819Y-7088094D01*
X715084819Y-6802380D02*
X714084819Y-6802380D01*
X714084819Y-6802380D02*
X714227676Y-6897618D01*
X714227676Y-6897618D02*
X714322914Y-6992856D01*
X714322914Y-6992856D02*
X714370533Y-7088094D01*
X714180057Y-6135713D02*
X714132438Y-6088094D01*
X714132438Y-6088094D02*
X714084819Y-5992856D01*
X714084819Y-5992856D02*
X714084819Y-5754761D01*
X714084819Y-5754761D02*
X714132438Y-5659523D01*
X714132438Y-5659523D02*
X714180057Y-5611904D01*
X714180057Y-5611904D02*
X714275295Y-5564285D01*
X714275295Y-5564285D02*
X714370533Y-5564285D01*
X714370533Y-5564285D02*
X714513390Y-5611904D01*
X714513390Y-5611904D02*
X715084819Y-6183332D01*
X715084819Y-6183332D02*
X715084819Y-5564285D01*
X714180057Y-5183332D02*
X714132438Y-5135713D01*
X714132438Y-5135713D02*
X714084819Y-5040475D01*
X714084819Y-5040475D02*
X714084819Y-4802380D01*
X714084819Y-4802380D02*
X714132438Y-4707142D01*
X714132438Y-4707142D02*
X714180057Y-4659523D01*
X714180057Y-4659523D02*
X714275295Y-4611904D01*
X714275295Y-4611904D02*
X714370533Y-4611904D01*
X714370533Y-4611904D02*
X714513390Y-4659523D01*
X714513390Y-4659523D02*
X715084819Y-5230951D01*
X715084819Y-5230951D02*
X715084819Y-4611904D01*
%TO.C,C2*%
X462134833Y-6662380D02*
X462087214Y-6710000D01*
X462087214Y-6710000D02*
X461944357Y-6757619D01*
X461944357Y-6757619D02*
X461849119Y-6757619D01*
X461849119Y-6757619D02*
X461706262Y-6710000D01*
X461706262Y-6710000D02*
X461611024Y-6614761D01*
X461611024Y-6614761D02*
X461563405Y-6519523D01*
X461563405Y-6519523D02*
X461515786Y-6329047D01*
X461515786Y-6329047D02*
X461515786Y-6186190D01*
X461515786Y-6186190D02*
X461563405Y-5995714D01*
X461563405Y-5995714D02*
X461611024Y-5900476D01*
X461611024Y-5900476D02*
X461706262Y-5805238D01*
X461706262Y-5805238D02*
X461849119Y-5757619D01*
X461849119Y-5757619D02*
X461944357Y-5757619D01*
X461944357Y-5757619D02*
X462087214Y-5805238D01*
X462087214Y-5805238D02*
X462134833Y-5852857D01*
X462515786Y-5852857D02*
X462563405Y-5805238D01*
X462563405Y-5805238D02*
X462658643Y-5757619D01*
X462658643Y-5757619D02*
X462896738Y-5757619D01*
X462896738Y-5757619D02*
X462991976Y-5805238D01*
X462991976Y-5805238D02*
X463039595Y-5852857D01*
X463039595Y-5852857D02*
X463087214Y-5948095D01*
X463087214Y-5948095D02*
X463087214Y-6043333D01*
X463087214Y-6043333D02*
X463039595Y-6186190D01*
X463039595Y-6186190D02*
X462468167Y-6757619D01*
X462468167Y-6757619D02*
X463087214Y-6757619D01*
%TO.C,Q2*%
X717413161Y-11036457D02*
X717317923Y-10988838D01*
X717317923Y-10988838D02*
X717222685Y-10893600D01*
X717222685Y-10893600D02*
X717079828Y-10750742D01*
X717079828Y-10750742D02*
X716984590Y-10703123D01*
X716984590Y-10703123D02*
X716889352Y-10703123D01*
X716936971Y-10941219D02*
X716841733Y-10893600D01*
X716841733Y-10893600D02*
X716746495Y-10798361D01*
X716746495Y-10798361D02*
X716698876Y-10607885D01*
X716698876Y-10607885D02*
X716698876Y-10274552D01*
X716698876Y-10274552D02*
X716746495Y-10084076D01*
X716746495Y-10084076D02*
X716841733Y-9988838D01*
X716841733Y-9988838D02*
X716936971Y-9941219D01*
X716936971Y-9941219D02*
X717127447Y-9941219D01*
X717127447Y-9941219D02*
X717222685Y-9988838D01*
X717222685Y-9988838D02*
X717317923Y-10084076D01*
X717317923Y-10084076D02*
X717365542Y-10274552D01*
X717365542Y-10274552D02*
X717365542Y-10607885D01*
X717365542Y-10607885D02*
X717317923Y-10798361D01*
X717317923Y-10798361D02*
X717222685Y-10893600D01*
X717222685Y-10893600D02*
X717127447Y-10941219D01*
X717127447Y-10941219D02*
X716936971Y-10941219D01*
X717746495Y-10036457D02*
X717794114Y-9988838D01*
X717794114Y-9988838D02*
X717889352Y-9941219D01*
X717889352Y-9941219D02*
X718127447Y-9941219D01*
X718127447Y-9941219D02*
X718222685Y-9988838D01*
X718222685Y-9988838D02*
X718270304Y-10036457D01*
X718270304Y-10036457D02*
X718317923Y-10131695D01*
X718317923Y-10131695D02*
X718317923Y-10226933D01*
X718317923Y-10226933D02*
X718270304Y-10369790D01*
X718270304Y-10369790D02*
X717698876Y-10941219D01*
X717698876Y-10941219D02*
X718317923Y-10941219D01*
%TO.C,R9*%
X457658933Y-3478419D02*
X457325600Y-3002228D01*
X457087505Y-3478419D02*
X457087505Y-2478419D01*
X457087505Y-2478419D02*
X457468457Y-2478419D01*
X457468457Y-2478419D02*
X457563695Y-2526038D01*
X457563695Y-2526038D02*
X457611314Y-2573657D01*
X457611314Y-2573657D02*
X457658933Y-2668895D01*
X457658933Y-2668895D02*
X457658933Y-2811752D01*
X457658933Y-2811752D02*
X457611314Y-2906990D01*
X457611314Y-2906990D02*
X457563695Y-2954609D01*
X457563695Y-2954609D02*
X457468457Y-3002228D01*
X457468457Y-3002228D02*
X457087505Y-3002228D01*
X458135124Y-3478419D02*
X458325600Y-3478419D01*
X458325600Y-3478419D02*
X458420838Y-3430800D01*
X458420838Y-3430800D02*
X458468457Y-3383180D01*
X458468457Y-3383180D02*
X458563695Y-3240323D01*
X458563695Y-3240323D02*
X458611314Y-3049847D01*
X458611314Y-3049847D02*
X458611314Y-2668895D01*
X458611314Y-2668895D02*
X458563695Y-2573657D01*
X458563695Y-2573657D02*
X458516076Y-2526038D01*
X458516076Y-2526038D02*
X458420838Y-2478419D01*
X458420838Y-2478419D02*
X458230362Y-2478419D01*
X458230362Y-2478419D02*
X458135124Y-2526038D01*
X458135124Y-2526038D02*
X458087505Y-2573657D01*
X458087505Y-2573657D02*
X458039886Y-2668895D01*
X458039886Y-2668895D02*
X458039886Y-2906990D01*
X458039886Y-2906990D02*
X458087505Y-3002228D01*
X458087505Y-3002228D02*
X458135124Y-3049847D01*
X458135124Y-3049847D02*
X458230362Y-3097466D01*
X458230362Y-3097466D02*
X458420838Y-3097466D01*
X458420838Y-3097466D02*
X458516076Y-3049847D01*
X458516076Y-3049847D02*
X458563695Y-3002228D01*
X458563695Y-3002228D02*
X458611314Y-2906990D01*
D12*
%TO.C,R5*%
X715545000Y-2767064D02*
X715545000Y-2312936D01*
X717015000Y-2767064D02*
X717015000Y-2312936D01*
%TO.C,D124*%
X735640000Y-8210000D02*
X737560000Y-8210000D01*
X737560000Y-8210000D02*
X737560000Y-5350000D01*
X735640000Y-5350000D02*
X735640000Y-8210000D01*
%TO.C,R11*%
X737335000Y-12472936D02*
X737335000Y-12927064D01*
X735865000Y-12472936D02*
X735865000Y-12927064D01*
%TO.C,R12*%
X711735000Y-12657064D02*
X711735000Y-12202936D01*
X713205000Y-12657064D02*
X713205000Y-12202936D01*
%TO.C,R4*%
X725705000Y-2767064D02*
X725705000Y-2312936D01*
X727175000Y-2767064D02*
X727175000Y-2312936D01*
%TO.C,R7*%
X455245736Y-9679000D02*
X455699864Y-9679000D01*
X455245736Y-11149000D02*
X455699864Y-11149000D01*
%TO.C,D123*%
X725480000Y-8210000D02*
X727400000Y-8210000D01*
X727400000Y-8210000D02*
X727400000Y-5350000D01*
X725480000Y-5350000D02*
X725480000Y-8210000D01*
%TO.C,R8*%
X455245736Y-6885000D02*
X455699864Y-6885000D01*
X455245736Y-8355000D02*
X455699864Y-8355000D01*
%TO.C,C1*%
X462621352Y-13536600D02*
X462098848Y-13536600D01*
X462621352Y-12066600D02*
X462098848Y-12066600D01*
%TO.C,R10*%
X725705000Y-12927064D02*
X725705000Y-12472936D01*
X727175000Y-12927064D02*
X727175000Y-12472936D01*
%TO.C,Q1*%
X730880000Y-13240000D02*
X732280000Y-13240000D01*
X732280000Y-10920000D02*
X730380000Y-10920000D01*
%TO.C,R3*%
X735865000Y-2767064D02*
X735865000Y-2312936D01*
X737335000Y-2767064D02*
X737335000Y-2312936D01*
%TO.C,SW1*%
X450850000Y-13970000D02*
X449580000Y-13970000D01*
X450850000Y-12700000D02*
X450850000Y-13970000D01*
X448537071Y-10540000D02*
X448140000Y-10540000D01*
X448537071Y-9780000D02*
X448140000Y-9780000D01*
X448537071Y-8000000D02*
X448140000Y-8000000D01*
X448537071Y-7240000D02*
X448140000Y-7240000D01*
X448470000Y-13080000D02*
X448140000Y-13080000D01*
X448470000Y-12320000D02*
X448140000Y-12320000D01*
X448140000Y-14030000D02*
X448140000Y-6290000D01*
X448140000Y-11430000D02*
X445480000Y-11430000D01*
X448140000Y-8890000D02*
X445480000Y-8890000D01*
X448140000Y-6290000D02*
X445480000Y-6290000D01*
X445480000Y-14030000D02*
X448140000Y-14030000D01*
X445480000Y-13080000D02*
X439480000Y-13080000D01*
X445480000Y-13020000D02*
X439480000Y-13020000D01*
X445480000Y-12900000D02*
X439480000Y-12900000D01*
X445480000Y-12780000D02*
X439480000Y-12780000D01*
X445480000Y-12660000D02*
X439480000Y-12660000D01*
X445480000Y-12540000D02*
X439480000Y-12540000D01*
X445480000Y-12420000D02*
X439480000Y-12420000D01*
X445480000Y-10540000D02*
X439480000Y-10540000D01*
X445480000Y-8000000D02*
X439480000Y-8000000D01*
X445480000Y-6290000D02*
X445480000Y-14030000D01*
X439480000Y-13080000D02*
X439480000Y-12320000D01*
X439480000Y-12320000D02*
X445480000Y-12320000D01*
X439480000Y-10540000D02*
X439480000Y-9780000D01*
X439480000Y-9780000D02*
X445480000Y-9780000D01*
X439480000Y-8000000D02*
X439480000Y-7240000D01*
X439480000Y-7240000D02*
X445480000Y-7240000D01*
%TO.C,R6*%
X457938136Y-12066600D02*
X458392264Y-12066600D01*
X457938136Y-13536600D02*
X458392264Y-13536600D01*
%TO.C,D122*%
X715320000Y-8210000D02*
X717240000Y-8210000D01*
X717240000Y-8210000D02*
X717240000Y-5350000D01*
X715320000Y-5350000D02*
X715320000Y-8210000D01*
%TO.C,C2*%
X462562752Y-5357800D02*
X462040248Y-5357800D01*
X462562752Y-3887800D02*
X462040248Y-3887800D01*
%TO.C,Q2*%
X716808400Y-13646400D02*
X718208400Y-13646400D01*
X718208400Y-11326400D02*
X716308400Y-11326400D01*
%TO.C,R9*%
X457598536Y-3938600D02*
X458052664Y-3938600D01*
X457598536Y-5408600D02*
X458052664Y-5408600D01*
%TD*%
M02*
