%TF.GenerationSoftware,KiCad,Pcbnew,7.0.5*%
%TF.CreationDate,2023-06-23T10:17:56-04:00*%
%TF.ProjectId,keyboard_mk1,6b657962-6f61-4726-945f-6d6b312e6b69,rev?*%
%TF.SameCoordinates,Original*%
%TF.FileFunction,Paste,Bot*%
%TF.FilePolarity,Positive*%
%FSLAX46Y46*%
G04 Gerber Fmt 4.6, Leading zero omitted, Abs format (unit mm)*
G04 Created by KiCad (PCBNEW 7.0.5) date 2023-06-23 10:17:56*
%MOMM*%
%LPD*%
G01*
G04 APERTURE LIST*
G04 Aperture macros list*
%AMRoundRect*
0 Rectangle with rounded corners*
0 $1 Rounding radius*
0 $2 $3 $4 $5 $6 $7 $8 $9 X,Y pos of 4 corners*
0 Add a 4 corners polygon primitive as box body*
4,1,4,$2,$3,$4,$5,$6,$7,$8,$9,$2,$3,0*
0 Add four circle primitives for the rounded corners*
1,1,$1+$1,$2,$3*
1,1,$1+$1,$4,$5*
1,1,$1+$1,$6,$7*
1,1,$1+$1,$8,$9*
0 Add four rect primitives between the rounded corners*
20,1,$1+$1,$2,$3,$4,$5,0*
20,1,$1+$1,$4,$5,$6,$7,0*
20,1,$1+$1,$6,$7,$8,$9,0*
20,1,$1+$1,$8,$9,$2,$3,0*%
G04 Aperture macros list end*
%ADD10R,2.550000X2.500000*%
%ADD11R,2.500000X2.550000*%
%ADD12RoundRect,0.225000X-0.375000X0.225000X-0.375000X-0.225000X0.375000X-0.225000X0.375000X0.225000X0*%
%ADD13RoundRect,0.150000X0.150000X-0.875000X0.150000X0.875000X-0.150000X0.875000X-0.150000X-0.875000X0*%
%ADD14O,2.748280X1.998980*%
%ADD15O,1.016000X2.032000*%
%ADD16C,1.143000*%
%ADD17RoundRect,0.250000X-0.350000X-0.450000X0.350000X-0.450000X0.350000X0.450000X-0.350000X0.450000X0*%
G04 APERTURE END LIST*
D10*
%TO.C,125K105*%
X743684243Y-152489490D03*
X730757243Y-155029490D03*
%TD*%
%TO.C,K57*%
X669865493Y-76289490D03*
X656938493Y-78829490D03*
%TD*%
%TO.C,K18*%
X788927993Y-47714490D03*
X776000993Y-50254490D03*
%TD*%
%TO.C,2K106*%
X407927993Y-152489490D03*
X395000993Y-155029490D03*
%TD*%
%TO.C,K28*%
X555565493Y-47714490D03*
X542638493Y-50254490D03*
%TD*%
%TO.C,275K121*%
X729396743Y-133439490D03*
X716469743Y-135979490D03*
%TD*%
%TO.C,K21*%
X788927993Y-95339490D03*
X776000993Y-97879490D03*
%TD*%
%TO.C,K29*%
X574615493Y-47714490D03*
X561688493Y-50254490D03*
%TD*%
%TO.C,K67*%
X479365493Y-28664490D03*
X466438493Y-31204490D03*
%TD*%
%TO.C,K35*%
X707965493Y-47714490D03*
X695038493Y-50254490D03*
%TD*%
%TO.C,K42*%
X807977993Y-95339490D03*
X795050993Y-97879490D03*
%TD*%
%TO.C,K49*%
X517465493Y-76289490D03*
X504538493Y-78829490D03*
%TD*%
%TO.C,K44*%
X417452993Y-95339490D03*
X404525993Y-97879490D03*
%TD*%
%TO.C,K55*%
X631765493Y-76289490D03*
X618838493Y-78829490D03*
%TD*%
%TO.C,K95*%
X607952993Y-114389490D03*
X595025993Y-116929490D03*
%TD*%
%TO.C,K17*%
X769877993Y-47714490D03*
X756950993Y-50254490D03*
%TD*%
%TO.C,K53*%
X593665493Y-76289490D03*
X580738493Y-78829490D03*
%TD*%
%TO.C,K27*%
X536515493Y-47714490D03*
X523588493Y-50254490D03*
%TD*%
%TO.C,K59*%
X707965493Y-76289490D03*
X695038493Y-78829490D03*
%TD*%
%TO.C,K6*%
X536515493Y-28664490D03*
X523588493Y-31204490D03*
%TD*%
%TO.C,K2*%
X431740445Y-47714498D03*
X418813445Y-50254498D03*
%TD*%
%TO.C,K52*%
X574615493Y-76289490D03*
X561688493Y-78829490D03*
%TD*%
%TO.C,K96*%
X627002993Y-114389490D03*
X614075993Y-116929490D03*
%TD*%
%TO.C,K69*%
X507940493Y-95339490D03*
X495013493Y-97879490D03*
%TD*%
%TO.C,K61*%
X769877993Y-152489490D03*
X756950993Y-155029490D03*
%TD*%
%TO.C,K14*%
X707965493Y-28664490D03*
X695038493Y-31204490D03*
%TD*%
%TO.C,K23*%
X417452993Y-76289490D03*
X404525993Y-78829490D03*
%TD*%
%TO.C,K92*%
X550802993Y-114389490D03*
X537875993Y-116929490D03*
%TD*%
%TO.C,225K110*%
X491271743Y-133439490D03*
X478344743Y-135979490D03*
%TD*%
%TO.C,K63*%
X807977993Y-152489490D03*
X795050993Y-155029490D03*
%TD*%
%TO.C,K94*%
X588902993Y-114389490D03*
X575975993Y-116929490D03*
%TD*%
%TO.C,125K102*%
X672246743Y-152489490D03*
X659319743Y-155029490D03*
%TD*%
%TO.C,15K81*%
X741302993Y-95339490D03*
X728375993Y-97879490D03*
%TD*%
%TO.C,K20*%
X769877993Y-95339490D03*
X756950993Y-97879490D03*
%TD*%
%TO.C,K80*%
X717490493Y-95339490D03*
X704563493Y-97879490D03*
%TD*%
%TO.C,K72*%
X565090493Y-95339490D03*
X552163493Y-97879490D03*
%TD*%
%TO.C,K77*%
X660340493Y-95339490D03*
X647413493Y-97879490D03*
%TD*%
%TO.C,K93*%
X569852993Y-114389490D03*
X556925993Y-116929490D03*
%TD*%
%TO.C,K33*%
X660340493Y-47714490D03*
X647413493Y-50254490D03*
%TD*%
%TO.C,K116*%
X617477993Y-133439490D03*
X604550993Y-135979490D03*
%TD*%
%TO.C,K54*%
X612715493Y-76289490D03*
X599788493Y-78829490D03*
%TD*%
%TO.C,K76*%
X641290493Y-95339490D03*
X628363493Y-97879490D03*
%TD*%
%TO.C,K16*%
X746065493Y-28664490D03*
X733138493Y-31204490D03*
%TD*%
%TO.C,K26*%
X517465493Y-47714490D03*
X504538493Y-50254490D03*
%TD*%
%TO.C,125K83*%
X505559243Y-152489490D03*
X492632243Y-155029490D03*
%TD*%
%TO.C,K74*%
X603190493Y-95339490D03*
X590263493Y-97879490D03*
%TD*%
%TO.C,K9*%
X603190493Y-28664490D03*
X590263493Y-31204490D03*
%TD*%
%TO.C,K19*%
X807977993Y-47714490D03*
X795050993Y-50254490D03*
%TD*%
D11*
%TO.C,2K88*%
X451007993Y-133339490D03*
X453547993Y-146266490D03*
%TD*%
D10*
%TO.C,K12*%
X660340493Y-28664490D03*
X647413493Y-31204490D03*
%TD*%
%TO.C,K70*%
X526990493Y-95339490D03*
X514063493Y-97879490D03*
%TD*%
%TO.C,K79*%
X698440493Y-95339490D03*
X685513493Y-97879490D03*
%TD*%
%TO.C,K34*%
X688915493Y-47714490D03*
X675988493Y-50254490D03*
%TD*%
%TO.C,K99*%
X684152993Y-114389490D03*
X671225993Y-116929490D03*
%TD*%
%TO.C,125K103*%
X696059243Y-152489490D03*
X683132243Y-155029490D03*
%TD*%
%TO.C,K100*%
X703202993Y-114389490D03*
X690275993Y-116929490D03*
%TD*%
%TO.C,K22*%
X398402993Y-76289490D03*
X385475993Y-78829490D03*
%TD*%
%TO.C,K64*%
X398402993Y-114389490D03*
X385475993Y-116929490D03*
%TD*%
%TO.C,K118*%
X655577993Y-133439490D03*
X642650993Y-135979490D03*
%TD*%
%TO.C,K75*%
X622240493Y-95339490D03*
X609313493Y-97879490D03*
%TD*%
%TO.C,625K109*%
X600809243Y-152489490D03*
X587882243Y-155029490D03*
%TD*%
%TO.C,K85*%
X398402993Y-133439490D03*
X385475993Y-135979490D03*
%TD*%
%TO.C,K40*%
X807977993Y-76289490D03*
X795050993Y-78829490D03*
%TD*%
%TO.C,K117*%
X636527993Y-133439490D03*
X623600993Y-135979490D03*
%TD*%
%TO.C,K15*%
X727015493Y-28664490D03*
X714088493Y-31204490D03*
%TD*%
%TO.C,K66*%
X436502993Y-114389490D03*
X423575993Y-116929490D03*
%TD*%
%TO.C,K24*%
X436502993Y-76289490D03*
X423575993Y-78829490D03*
%TD*%
%TO.C,K87*%
X436502993Y-133439490D03*
X423575993Y-135979490D03*
%TD*%
%TO.C,K32*%
X641290493Y-47714490D03*
X628363493Y-50254490D03*
%TD*%
%TO.C,K111*%
X522227993Y-133439490D03*
X509300993Y-135979490D03*
%TD*%
%TO.C,K31*%
X622240493Y-47714490D03*
X609313493Y-50254490D03*
%TD*%
%TO.C,125K82*%
X481746743Y-152489490D03*
X468819743Y-155029490D03*
%TD*%
%TO.C,K1*%
X412690429Y-47714498D03*
X399763429Y-50254498D03*
%TD*%
%TO.C,K56*%
X650815493Y-76289490D03*
X637888493Y-78829490D03*
%TD*%
%TO.C,225K101*%
X734159243Y-114389490D03*
X721232243Y-116929490D03*
%TD*%
%TO.C,K113*%
X560327993Y-133439490D03*
X547400993Y-135979490D03*
%TD*%
%TO.C,K50*%
X536515493Y-76289490D03*
X523588493Y-78829490D03*
%TD*%
%TO.C,K47*%
X479365493Y-76289490D03*
X466438493Y-78829490D03*
%TD*%
%TO.C,K8*%
X574615493Y-28664490D03*
X561688493Y-31204490D03*
%TD*%
%TO.C,K90*%
X512702993Y-114389490D03*
X499775993Y-116929490D03*
%TD*%
%TO.C,K62*%
X788927993Y-152489490D03*
X776000993Y-155029490D03*
%TD*%
%TO.C,K119*%
X674627993Y-133439490D03*
X661700993Y-135979490D03*
%TD*%
%TO.C,K36*%
X727015493Y-47714490D03*
X714088493Y-50254490D03*
%TD*%
%TO.C,K25*%
X455552993Y-76289490D03*
X442625993Y-78829490D03*
%TD*%
%TO.C,K3*%
X450790493Y-47714498D03*
X437863493Y-50254498D03*
%TD*%
%TO.C,K97*%
X646052993Y-114389490D03*
X633125993Y-116929490D03*
%TD*%
%TO.C,K73*%
X584140493Y-95339490D03*
X571213493Y-97879490D03*
%TD*%
%TO.C,K65*%
X417452993Y-114389490D03*
X404525993Y-116929490D03*
%TD*%
%TO.C,125K84*%
X529371743Y-152489490D03*
X516444743Y-155029490D03*
%TD*%
%TO.C,K91*%
X531752993Y-114389490D03*
X518825993Y-116929490D03*
%TD*%
%TO.C,125K104*%
X719871743Y-152489490D03*
X706944743Y-155029490D03*
%TD*%
%TO.C,K11*%
X641290493Y-28664490D03*
X628363493Y-31204490D03*
%TD*%
%TO.C,K48*%
X498415493Y-76289490D03*
X485488493Y-78829490D03*
%TD*%
%TO.C,K120*%
X693677993Y-133439490D03*
X680750993Y-135979490D03*
%TD*%
%TO.C,K45*%
X436502993Y-95339490D03*
X423575993Y-97879490D03*
%TD*%
%TO.C,K71*%
X546040493Y-95339490D03*
X533113493Y-97879490D03*
%TD*%
%TO.C,K43*%
X398402993Y-95339490D03*
X385475993Y-97879490D03*
%TD*%
D11*
%TO.C,2K46*%
X451007993Y-95239490D03*
X453547993Y-108166490D03*
%TD*%
D10*
%TO.C,K7*%
X555565493Y-28664490D03*
X542638493Y-31204490D03*
%TD*%
%TO.C,K78*%
X679390493Y-95339490D03*
X666463493Y-97879490D03*
%TD*%
%TO.C,K114*%
X579377993Y-133439490D03*
X566450993Y-135979490D03*
%TD*%
%TO.C,K41*%
X788927993Y-133439490D03*
X776000993Y-135979490D03*
%TD*%
%TO.C,K108*%
X436502993Y-152489490D03*
X423575993Y-155029490D03*
%TD*%
%TO.C,K10*%
X622240493Y-28664490D03*
X609313493Y-31204490D03*
%TD*%
%TO.C,K13*%
X688915493Y-28664490D03*
X675988493Y-31204490D03*
%TD*%
%TO.C,2K60*%
X736540493Y-76289490D03*
X723613493Y-78829490D03*
%TD*%
%TO.C,K115*%
X598427993Y-133439490D03*
X585500993Y-135979490D03*
%TD*%
%TO.C,K98*%
X665102993Y-114389490D03*
X652175993Y-116929490D03*
%TD*%
%TO.C,K58*%
X688915493Y-76289490D03*
X675988493Y-78829490D03*
%TD*%
%TO.C,15K68*%
X484127993Y-95339490D03*
X471200993Y-97879490D03*
%TD*%
%TO.C,K37*%
X746065493Y-47714490D03*
X733138493Y-50254490D03*
%TD*%
%TO.C,K112*%
X541336743Y-133280740D03*
X528409743Y-135820740D03*
%TD*%
%TO.C,K30*%
X603190493Y-47714490D03*
X590263493Y-50254490D03*
%TD*%
%TO.C,K86*%
X417452993Y-133439490D03*
X404525993Y-135979490D03*
%TD*%
%TO.C,K5*%
X517465493Y-28664490D03*
X504538493Y-31204490D03*
%TD*%
%TO.C,175K89*%
X486509243Y-114389490D03*
X473582243Y-116929490D03*
%TD*%
%TO.C,K38*%
X769877993Y-76289490D03*
X756950993Y-78829490D03*
%TD*%
%TO.C,K4*%
X450790493Y-28664490D03*
X437863493Y-31204490D03*
%TD*%
%TO.C,K39*%
X788927993Y-76289490D03*
X776000993Y-78829490D03*
%TD*%
%TO.C,K107*%
X479365493Y-47714490D03*
X466438493Y-50254490D03*
%TD*%
%TO.C,K51*%
X555565493Y-76289490D03*
X542638493Y-78829490D03*
%TD*%
D12*
%TO.C,D10*%
X417511743Y-123805740D03*
X417511743Y-127105740D03*
%TD*%
%TO.C,D77*%
X641349243Y-19030740D03*
X641349243Y-22330740D03*
%TD*%
%TO.C,D108*%
X746124243Y-88086990D03*
X746124243Y-91386990D03*
%TD*%
%TO.C,D47*%
X550861743Y-104755740D03*
X550861743Y-108055740D03*
%TD*%
%TO.C,D117*%
X788986743Y-142855740D03*
X788986743Y-146155740D03*
%TD*%
%TO.C,D16*%
X436561743Y-104755740D03*
X436561743Y-108055740D03*
%TD*%
%TO.C,D85*%
X696117993Y-142855740D03*
X696117993Y-146155740D03*
%TD*%
%TO.C,D30*%
X517524243Y-38080740D03*
X517524243Y-41380740D03*
%TD*%
%TO.C,D102*%
X708024243Y-66655740D03*
X708024243Y-69955740D03*
%TD*%
%TO.C,D20*%
X450849243Y-85705740D03*
X450849243Y-89005740D03*
%TD*%
%TO.C,D73*%
X646111743Y-104755740D03*
X646111743Y-108055740D03*
%TD*%
%TO.C,D92*%
X708024243Y-19030740D03*
X708024243Y-22330740D03*
%TD*%
%TO.C,D100*%
X743742993Y-142855740D03*
X743742993Y-146155740D03*
%TD*%
%TO.C,D2*%
X431799202Y-38080742D03*
X431799202Y-41380742D03*
%TD*%
%TO.C,D70*%
X627061743Y-104755740D03*
X627061743Y-108055740D03*
%TD*%
%TO.C,D78*%
X660399243Y-19030740D03*
X660399243Y-22330740D03*
%TD*%
%TO.C,D8*%
X398461743Y-123805740D03*
X398461743Y-127105740D03*
%TD*%
D13*
%TO.C,U2*%
X805084243Y-19755740D03*
X803814243Y-19755740D03*
X802544243Y-19755740D03*
X801274243Y-19755740D03*
X800004243Y-19755740D03*
X798734243Y-19755740D03*
X797464243Y-19755740D03*
X796194243Y-19755740D03*
X794924243Y-19755740D03*
X793654243Y-19755740D03*
X792384243Y-19755740D03*
X791114243Y-19755740D03*
X791114243Y-10455740D03*
X792384243Y-10455740D03*
X793654243Y-10455740D03*
X794924243Y-10455740D03*
X796194243Y-10455740D03*
X797464243Y-10455740D03*
X798734243Y-10455740D03*
X800004243Y-10455740D03*
X801274243Y-10455740D03*
X802544243Y-10455740D03*
X803814243Y-10455740D03*
X805084243Y-10455740D03*
%TD*%
D12*
%TO.C,D43*%
X555624243Y-19030740D03*
X555624243Y-22330740D03*
%TD*%
%TO.C,D107*%
X736599243Y-66655740D03*
X736599243Y-69955740D03*
%TD*%
%TO.C,D34*%
X522286743Y-123805740D03*
X522286743Y-127105740D03*
%TD*%
%TO.C,D95*%
X698499243Y-85705740D03*
X698499243Y-89005740D03*
%TD*%
%TO.C,D49*%
X579436743Y-123805740D03*
X579436743Y-127105740D03*
%TD*%
%TO.C,D64*%
X603249243Y-85705740D03*
X603249243Y-89005740D03*
%TD*%
%TO.C,D39*%
X527049243Y-85705740D03*
X527049243Y-89005740D03*
%TD*%
%TO.C,D59*%
X588961743Y-104755740D03*
X588961743Y-108055740D03*
%TD*%
%TO.C,D5*%
X398461743Y-66655740D03*
X398461743Y-69955740D03*
%TD*%
%TO.C,D61*%
X600867993Y-142855740D03*
X600867993Y-146155740D03*
%TD*%
%TO.C,D82*%
X665161743Y-104755740D03*
X665161743Y-108055740D03*
%TD*%
%TO.C,D33*%
X512761743Y-104755740D03*
X512761743Y-108055740D03*
%TD*%
%TO.C,D94*%
X688974243Y-66655740D03*
X688974243Y-69955740D03*
%TD*%
%TO.C,D25*%
X484186743Y-85705740D03*
X484186743Y-89005740D03*
%TD*%
%TO.C,D22*%
X479424243Y-19030740D03*
X479424243Y-22330740D03*
%TD*%
%TO.C,D121*%
X808036743Y-38080740D03*
X808036743Y-41380740D03*
%TD*%
%TO.C,D101*%
X719930493Y-88086990D03*
X719930493Y-91386990D03*
%TD*%
%TO.C,D27*%
X491330493Y-123805740D03*
X491330493Y-127105740D03*
%TD*%
%TO.C,D89*%
X669924243Y-66655740D03*
X669924243Y-69955740D03*
%TD*%
%TO.C,D56*%
X603249243Y-38080740D03*
X603249243Y-41380740D03*
%TD*%
%TO.C,D62*%
X617536743Y-123805740D03*
X617536743Y-127105740D03*
%TD*%
%TO.C,D15*%
X436561743Y-85705740D03*
X436561743Y-89005740D03*
%TD*%
%TO.C,D120*%
X808036743Y-66655740D03*
X808036743Y-69955740D03*
%TD*%
%TO.C,D35*%
X505617993Y-142855740D03*
X505617993Y-146155740D03*
%TD*%
%TO.C,D96*%
X703261743Y-104755740D03*
X703261743Y-108055740D03*
%TD*%
%TO.C,D40*%
X517524243Y-66655740D03*
X517524243Y-69955740D03*
%TD*%
%TO.C,D65*%
X593724243Y-66655740D03*
X593724243Y-69955740D03*
%TD*%
%TO.C,D58*%
X584199243Y-85705740D03*
X584199243Y-89005740D03*
%TD*%
%TO.C,D84*%
X672305493Y-142855740D03*
X672305493Y-146155740D03*
%TD*%
%TO.C,D105*%
X746124243Y-19030740D03*
X746124243Y-22330740D03*
%TD*%
%TO.C,D97*%
X719930493Y-142855740D03*
X719930493Y-146155740D03*
%TD*%
%TO.C,D81*%
X660399243Y-85705740D03*
X660399243Y-89005740D03*
%TD*%
%TO.C,D24*%
X479424243Y-66655740D03*
X479424243Y-69955740D03*
%TD*%
%TO.C,D114*%
X788986743Y-66655740D03*
X788986743Y-69955740D03*
%TD*%
%TO.C,D32*%
X507999243Y-85705740D03*
X507999243Y-89005740D03*
%TD*%
%TO.C,D55*%
X603249243Y-19030740D03*
X603249243Y-22330740D03*
%TD*%
%TO.C,D109*%
X769936743Y-142855740D03*
X769936743Y-146155740D03*
%TD*%
%TO.C,D21*%
X455611743Y-66655740D03*
X455611743Y-69955740D03*
%TD*%
%TO.C,D93*%
X708024243Y-38080740D03*
X708024243Y-41380740D03*
%TD*%
%TO.C,D104*%
X727074243Y-19030740D03*
X727074243Y-22330740D03*
%TD*%
%TO.C,D87*%
X684211743Y-104755740D03*
X684211743Y-108055740D03*
%TD*%
%TO.C,D29*%
X517524243Y-19030740D03*
X517524243Y-22330740D03*
%TD*%
%TO.C,D111*%
X769936743Y-66655740D03*
X769936743Y-69955740D03*
%TD*%
%TO.C,D110*%
X769936743Y-85705740D03*
X769936743Y-89005740D03*
%TD*%
%TO.C,D90*%
X688974243Y-38080740D03*
X688974243Y-41380740D03*
%TD*%
%TO.C,D113*%
X788986743Y-38080740D03*
X788986743Y-41380740D03*
%TD*%
%TO.C,D31*%
X498474243Y-66655740D03*
X498474243Y-69955740D03*
%TD*%
%TO.C,D60*%
X598486743Y-123805740D03*
X598486743Y-127105740D03*
%TD*%
%TO.C,D51*%
X565149243Y-85705740D03*
X565149243Y-89005740D03*
%TD*%
%TO.C,D106*%
X746124243Y-38080740D03*
X746124243Y-41380740D03*
%TD*%
%TO.C,D48*%
X560386743Y-123805740D03*
X560386743Y-127105740D03*
%TD*%
%TO.C,D11*%
X417511743Y-104755740D03*
X417511743Y-108055740D03*
%TD*%
D14*
%TO.C,U1*%
X766499243Y-2845740D03*
X766499243Y-5385740D03*
X766499243Y-7925740D03*
X766499243Y-10465740D03*
X766499243Y-13005740D03*
X766499243Y-15545740D03*
X766499243Y-18085740D03*
X750334683Y-18085740D03*
X750334683Y-15545740D03*
X750334683Y-13005740D03*
X750334683Y-10465740D03*
X750334683Y-7925740D03*
X750334683Y-5385740D03*
X750334683Y-2845740D03*
D15*
X759632363Y-19163560D03*
X757082363Y-19163560D03*
D16*
X759633560Y-2159373D03*
X757093560Y-2159373D03*
X759633560Y-4699373D03*
X757093560Y-4699373D03*
%TD*%
D12*
%TO.C,D6*%
X398461743Y-85705740D03*
X398461743Y-89005740D03*
%TD*%
D13*
%TO.C,U3*%
X786209243Y-19805740D03*
X784939243Y-19805740D03*
X783669243Y-19805740D03*
X782399243Y-19805740D03*
X781129243Y-19805740D03*
X779859243Y-19805740D03*
X778589243Y-19805740D03*
X777319243Y-19805740D03*
X776049243Y-19805740D03*
X774779243Y-19805740D03*
X773509243Y-19805740D03*
X772239243Y-19805740D03*
X772239243Y-10505740D03*
X773509243Y-10505740D03*
X774779243Y-10505740D03*
X776049243Y-10505740D03*
X777319243Y-10505740D03*
X778589243Y-10505740D03*
X779859243Y-10505740D03*
X781129243Y-10505740D03*
X782399243Y-10505740D03*
X783669243Y-10505740D03*
X784939243Y-10505740D03*
X786209243Y-10505740D03*
%TD*%
D12*
%TO.C,D18*%
X436561743Y-142855740D03*
X436561743Y-146155740D03*
%TD*%
%TO.C,D14*%
X436561743Y-66655740D03*
X436561743Y-69955740D03*
%TD*%
%TO.C,D37*%
X541336743Y-123805740D03*
X541336743Y-127105740D03*
%TD*%
%TO.C,D36*%
X529430493Y-142855740D03*
X529430493Y-146155740D03*
%TD*%
%TO.C,D98*%
X729455493Y-123805740D03*
X729455493Y-127105740D03*
%TD*%
%TO.C,D66*%
X622299243Y-19030740D03*
X622299243Y-22330740D03*
%TD*%
%TO.C,D13*%
X417511743Y-66655740D03*
X417511743Y-69955740D03*
%TD*%
D17*
%TO.C,R2*%
X802799243Y-7005740D03*
X804799243Y-7005740D03*
%TD*%
D12*
%TO.C,D28*%
X481805493Y-142855740D03*
X481805493Y-146155740D03*
%TD*%
%TO.C,D23*%
X479424243Y-38080740D03*
X479424243Y-41380740D03*
%TD*%
%TO.C,D46*%
X546099243Y-85705740D03*
X546099243Y-89005740D03*
%TD*%
%TO.C,D17*%
X436561743Y-123805740D03*
X436561743Y-127105740D03*
%TD*%
%TO.C,D115*%
X788986743Y-85705740D03*
X788986743Y-89005740D03*
%TD*%
%TO.C,D119*%
X808036743Y-85705740D03*
X808036743Y-89005740D03*
%TD*%
%TO.C,D88*%
X679449243Y-85705740D03*
X679449243Y-89005740D03*
%TD*%
%TO.C,D19*%
X450849243Y-123805740D03*
X450849243Y-127105740D03*
%TD*%
%TO.C,D45*%
X536574243Y-66655740D03*
X536574243Y-69955740D03*
%TD*%
%TO.C,D76*%
X641349243Y-38080740D03*
X641349243Y-41380740D03*
%TD*%
%TO.C,D57*%
X574674243Y-66655740D03*
X574674243Y-69955740D03*
%TD*%
%TO.C,D9*%
X407986743Y-142855740D03*
X407986743Y-146155740D03*
%TD*%
%TO.C,D83*%
X674686743Y-123805740D03*
X674686743Y-127105740D03*
%TD*%
%TO.C,D7*%
X398461743Y-104755740D03*
X398461743Y-108055740D03*
%TD*%
%TO.C,D68*%
X612774243Y-66655740D03*
X612774243Y-69955740D03*
%TD*%
%TO.C,D26*%
X486567993Y-104755740D03*
X486567993Y-108055740D03*
%TD*%
%TO.C,D1*%
X412749185Y-38030742D03*
X412749185Y-41330742D03*
%TD*%
%TO.C,D50*%
X569911743Y-104755740D03*
X569911743Y-108055740D03*
%TD*%
%TO.C,D86*%
X693736743Y-123805740D03*
X693736743Y-127105740D03*
%TD*%
%TO.C,D54*%
X574674243Y-19030740D03*
X574674243Y-22330740D03*
%TD*%
%TO.C,D103*%
X727074243Y-38080740D03*
X727074243Y-41380740D03*
%TD*%
%TO.C,D99*%
X734217993Y-104755740D03*
X734217993Y-108055740D03*
%TD*%
%TO.C,D116*%
X788986743Y-123805740D03*
X788986743Y-127105740D03*
%TD*%
%TO.C,D74*%
X641349243Y-85705740D03*
X641349243Y-89005740D03*
%TD*%
%TO.C,D52*%
X555624243Y-66655740D03*
X555624243Y-69955740D03*
%TD*%
%TO.C,D69*%
X622299243Y-85705740D03*
X622299243Y-89005740D03*
%TD*%
%TO.C,D112*%
X769936743Y-38080740D03*
X769936743Y-41380740D03*
%TD*%
%TO.C,D41*%
X536574243Y-38080740D03*
X536574243Y-41380740D03*
%TD*%
%TO.C,D118*%
X808036743Y-142855740D03*
X808036743Y-146155740D03*
%TD*%
%TO.C,D72*%
X655636743Y-123805740D03*
X655636743Y-127105740D03*
%TD*%
%TO.C,D75*%
X631824243Y-66655740D03*
X631824243Y-69955740D03*
%TD*%
%TO.C,D53*%
X574674243Y-38080740D03*
X574674243Y-41380740D03*
%TD*%
%TO.C,D91*%
X688974243Y-19030740D03*
X688974243Y-22330740D03*
%TD*%
%TO.C,D44*%
X555624243Y-38080740D03*
X555624243Y-41380740D03*
%TD*%
%TO.C,D4*%
X450849217Y-38080740D03*
X450849217Y-41380740D03*
%TD*%
%TO.C,D80*%
X650874243Y-66655740D03*
X650874243Y-69955740D03*
%TD*%
%TO.C,D79*%
X660399243Y-38080740D03*
X660399243Y-41380740D03*
%TD*%
%TO.C,D71*%
X636586743Y-123805740D03*
X636586743Y-127105740D03*
%TD*%
%TO.C,D38*%
X531811743Y-104755740D03*
X531811743Y-108055740D03*
%TD*%
%TO.C,D3*%
X450849243Y-19030740D03*
X450849243Y-22330740D03*
%TD*%
%TO.C,D67*%
X622299243Y-38080740D03*
X622299243Y-41380740D03*
%TD*%
%TO.C,D42*%
X536574243Y-19030740D03*
X536574243Y-22330740D03*
%TD*%
%TO.C,D63*%
X608011743Y-104755740D03*
X608011743Y-108055740D03*
%TD*%
%TO.C,D12*%
X417511743Y-85705740D03*
X417511743Y-89005740D03*
%TD*%
D17*
%TO.C,R1*%
X802799243Y-4305740D03*
X804799243Y-4305740D03*
%TD*%
M02*
